G04 #@! TF.GenerationSoftware,KiCad,Pcbnew,5.1.10*
G04 #@! TF.CreationDate,2022-03-09T15:20:40-05:00*
G04 #@! TF.ProjectId,bourbondox2_right,626f7572-626f-46e6-946f-78325f726967,rev?*
G04 #@! TF.SameCoordinates,Original*
G04 #@! TF.FileFunction,Legend,Bot*
G04 #@! TF.FilePolarity,Positive*
%FSLAX46Y46*%
G04 Gerber Fmt 4.6, Leading zero omitted, Abs format (unit mm)*
G04 Created by KiCad (PCBNEW 5.1.10) date 2022-03-09 15:20:40*
%MOMM*%
%LPD*%
G01*
G04 APERTURE LIST*
%ADD10C,0.150000*%
%ADD11C,0.381000*%
%ADD12C,0.120000*%
G04 APERTURE END LIST*
D10*
X73230654Y-125309821D02*
X73087797Y-125357440D01*
X73040178Y-125405059D01*
X72992559Y-125500297D01*
X72992559Y-125643154D01*
X73040178Y-125738392D01*
X73087797Y-125786011D01*
X73183035Y-125833630D01*
X73563988Y-125833630D01*
X73563988Y-124833630D01*
X73230654Y-124833630D01*
X73135416Y-124881250D01*
X73087797Y-124928869D01*
X73040178Y-125024107D01*
X73040178Y-125119345D01*
X73087797Y-125214583D01*
X73135416Y-125262202D01*
X73230654Y-125309821D01*
X73563988Y-125309821D01*
X72421130Y-125833630D02*
X72516369Y-125786011D01*
X72563988Y-125738392D01*
X72611607Y-125643154D01*
X72611607Y-125357440D01*
X72563988Y-125262202D01*
X72516369Y-125214583D01*
X72421130Y-125166964D01*
X72278273Y-125166964D01*
X72183035Y-125214583D01*
X72135416Y-125262202D01*
X72087797Y-125357440D01*
X72087797Y-125643154D01*
X72135416Y-125738392D01*
X72183035Y-125786011D01*
X72278273Y-125833630D01*
X72421130Y-125833630D01*
X71230654Y-125166964D02*
X71230654Y-125833630D01*
X71659226Y-125166964D02*
X71659226Y-125690773D01*
X71611607Y-125786011D01*
X71516369Y-125833630D01*
X71373511Y-125833630D01*
X71278273Y-125786011D01*
X71230654Y-125738392D01*
X70754464Y-125833630D02*
X70754464Y-125166964D01*
X70754464Y-125357440D02*
X70706845Y-125262202D01*
X70659226Y-125214583D01*
X70563988Y-125166964D01*
X70468750Y-125166964D01*
X70135416Y-125833630D02*
X70135416Y-124833630D01*
X70135416Y-125214583D02*
X70040178Y-125166964D01*
X69849702Y-125166964D01*
X69754464Y-125214583D01*
X69706845Y-125262202D01*
X69659226Y-125357440D01*
X69659226Y-125643154D01*
X69706845Y-125738392D01*
X69754464Y-125786011D01*
X69849702Y-125833630D01*
X70040178Y-125833630D01*
X70135416Y-125786011D01*
X69087797Y-125833630D02*
X69183035Y-125786011D01*
X69230654Y-125738392D01*
X69278273Y-125643154D01*
X69278273Y-125357440D01*
X69230654Y-125262202D01*
X69183035Y-125214583D01*
X69087797Y-125166964D01*
X68944940Y-125166964D01*
X68849702Y-125214583D01*
X68802083Y-125262202D01*
X68754464Y-125357440D01*
X68754464Y-125643154D01*
X68802083Y-125738392D01*
X68849702Y-125786011D01*
X68944940Y-125833630D01*
X69087797Y-125833630D01*
X68325892Y-125166964D02*
X68325892Y-125833630D01*
X68325892Y-125262202D02*
X68278273Y-125214583D01*
X68183035Y-125166964D01*
X68040178Y-125166964D01*
X67944940Y-125214583D01*
X67897321Y-125309821D01*
X67897321Y-125833630D01*
X66992559Y-125833630D02*
X66992559Y-124833630D01*
X66992559Y-125786011D02*
X67087797Y-125833630D01*
X67278273Y-125833630D01*
X67373511Y-125786011D01*
X67421130Y-125738392D01*
X67468750Y-125643154D01*
X67468750Y-125357440D01*
X67421130Y-125262202D01*
X67373511Y-125214583D01*
X67278273Y-125166964D01*
X67087797Y-125166964D01*
X66992559Y-125214583D01*
X66373511Y-125833630D02*
X66468750Y-125786011D01*
X66516369Y-125738392D01*
X66563988Y-125643154D01*
X66563988Y-125357440D01*
X66516369Y-125262202D01*
X66468750Y-125214583D01*
X66373511Y-125166964D01*
X66230654Y-125166964D01*
X66135416Y-125214583D01*
X66087797Y-125262202D01*
X66040178Y-125357440D01*
X66040178Y-125643154D01*
X66087797Y-125738392D01*
X66135416Y-125786011D01*
X66230654Y-125833630D01*
X66373511Y-125833630D01*
X65706845Y-125833630D02*
X65183035Y-125166964D01*
X65706845Y-125166964D02*
X65183035Y-125833630D01*
X64135416Y-125166964D02*
X63897321Y-125833630D01*
X63659226Y-125166964D01*
X63325892Y-124928869D02*
X63278273Y-124881250D01*
X63183035Y-124833630D01*
X62944940Y-124833630D01*
X62849702Y-124881250D01*
X62802083Y-124928869D01*
X62754464Y-125024107D01*
X62754464Y-125119345D01*
X62802083Y-125262202D01*
X63373511Y-125833630D01*
X62754464Y-125833630D01*
X62325892Y-125738392D02*
X62278273Y-125786011D01*
X62325892Y-125833630D01*
X62373511Y-125786011D01*
X62325892Y-125738392D01*
X62325892Y-125833630D01*
X61659226Y-124833630D02*
X61563988Y-124833630D01*
X61468750Y-124881250D01*
X61421130Y-124928869D01*
X61373511Y-125024107D01*
X61325892Y-125214583D01*
X61325892Y-125452678D01*
X61373511Y-125643154D01*
X61421130Y-125738392D01*
X61468750Y-125786011D01*
X61563988Y-125833630D01*
X61659226Y-125833630D01*
X61754464Y-125786011D01*
X61802083Y-125738392D01*
X61849702Y-125643154D01*
X61897321Y-125452678D01*
X61897321Y-125214583D01*
X61849702Y-125024107D01*
X61802083Y-124928869D01*
X61754464Y-124881250D01*
X61659226Y-124833630D01*
X70849702Y-127483630D02*
X71183035Y-127007440D01*
X71421130Y-127483630D02*
X71421130Y-126483630D01*
X71040178Y-126483630D01*
X70944940Y-126531250D01*
X70897321Y-126578869D01*
X70849702Y-126674107D01*
X70849702Y-126816964D01*
X70897321Y-126912202D01*
X70944940Y-126959821D01*
X71040178Y-127007440D01*
X71421130Y-127007440D01*
X70421130Y-127483630D02*
X70421130Y-126483630D01*
X69421130Y-126531250D02*
X69516369Y-126483630D01*
X69659226Y-126483630D01*
X69802083Y-126531250D01*
X69897321Y-126626488D01*
X69944940Y-126721726D01*
X69992559Y-126912202D01*
X69992559Y-127055059D01*
X69944940Y-127245535D01*
X69897321Y-127340773D01*
X69802083Y-127436011D01*
X69659226Y-127483630D01*
X69563988Y-127483630D01*
X69421130Y-127436011D01*
X69373511Y-127388392D01*
X69373511Y-127055059D01*
X69563988Y-127055059D01*
X68944940Y-127483630D02*
X68944940Y-126483630D01*
X68944940Y-126959821D02*
X68373511Y-126959821D01*
X68373511Y-127483630D02*
X68373511Y-126483630D01*
X68040178Y-126483630D02*
X67468750Y-126483630D01*
X67754464Y-127483630D02*
X67754464Y-126483630D01*
X66421130Y-127436011D02*
X66278273Y-127483630D01*
X66040178Y-127483630D01*
X65944940Y-127436011D01*
X65897321Y-127388392D01*
X65849702Y-127293154D01*
X65849702Y-127197916D01*
X65897321Y-127102678D01*
X65944940Y-127055059D01*
X66040178Y-127007440D01*
X66230654Y-126959821D01*
X66325892Y-126912202D01*
X66373511Y-126864583D01*
X66421130Y-126769345D01*
X66421130Y-126674107D01*
X66373511Y-126578869D01*
X66325892Y-126531250D01*
X66230654Y-126483630D01*
X65992559Y-126483630D01*
X65849702Y-126531250D01*
X65421130Y-127483630D02*
X65421130Y-126483630D01*
X64944940Y-127483630D02*
X64944940Y-126483630D01*
X64706845Y-126483630D01*
X64563988Y-126531250D01*
X64468750Y-126626488D01*
X64421130Y-126721726D01*
X64373511Y-126912202D01*
X64373511Y-127055059D01*
X64421130Y-127245535D01*
X64468750Y-127340773D01*
X64563988Y-127436011D01*
X64706845Y-127483630D01*
X64944940Y-127483630D01*
X63944940Y-126959821D02*
X63611607Y-126959821D01*
X63468750Y-127483630D02*
X63944940Y-127483630D01*
X63944940Y-126483630D01*
X63468750Y-126483630D01*
D11*
G04 #@! TO.C,U1*
X60325000Y-33337500D02*
X57785000Y-33337500D01*
X60325000Y-30797500D02*
X60325000Y-33337500D01*
D10*
G36*
X72719635Y-37086530D02*
G01*
X72719635Y-37186530D01*
X72819635Y-37186530D01*
X72819635Y-37086530D01*
X72719635Y-37086530D01*
G37*
X72719635Y-37086530D02*
X72719635Y-37186530D01*
X72819635Y-37186530D01*
X72819635Y-37086530D01*
X72719635Y-37086530D01*
G36*
X72919635Y-36686530D02*
G01*
X72919635Y-37486530D01*
X73019635Y-37486530D01*
X73019635Y-36686530D01*
X72919635Y-36686530D01*
G37*
X72919635Y-36686530D02*
X72919635Y-37486530D01*
X73019635Y-37486530D01*
X73019635Y-36686530D01*
X72919635Y-36686530D01*
G36*
X72519635Y-37286530D02*
G01*
X72519635Y-37486530D01*
X72619635Y-37486530D01*
X72619635Y-37286530D01*
X72519635Y-37286530D01*
G37*
X72519635Y-37286530D02*
X72519635Y-37486530D01*
X72619635Y-37486530D01*
X72619635Y-37286530D01*
X72519635Y-37286530D01*
G36*
X72519635Y-36686530D02*
G01*
X72519635Y-36986530D01*
X72619635Y-36986530D01*
X72619635Y-36686530D01*
X72519635Y-36686530D01*
G37*
X72519635Y-36686530D02*
X72519635Y-36986530D01*
X72619635Y-36986530D01*
X72619635Y-36686530D01*
X72519635Y-36686530D01*
G36*
X72519635Y-36686530D02*
G01*
X72519635Y-36786530D01*
X73019635Y-36786530D01*
X73019635Y-36686530D01*
X72519635Y-36686530D01*
G37*
X72519635Y-36686530D02*
X72519635Y-36786530D01*
X73019635Y-36786530D01*
X73019635Y-36686530D01*
X72519635Y-36686530D01*
D11*
X75565000Y-61277500D02*
X75565000Y-28257500D01*
X57785000Y-61277500D02*
X75565000Y-61277500D01*
X57785000Y-28257500D02*
X57785000Y-61277500D01*
X75565000Y-28257500D02*
X57785000Y-28257500D01*
X60325000Y-30797500D02*
X57785000Y-30797500D01*
D10*
G04 #@! TO.C,R2*
X74624240Y-74338499D02*
X74624240Y-77338499D01*
X74624240Y-77338499D02*
X72624240Y-77338499D01*
X72624240Y-77338499D02*
X72624240Y-74338499D01*
X72624240Y-74338499D02*
X74624240Y-74338499D01*
G04 #@! TO.C,R1*
X70850000Y-74338499D02*
X70850000Y-77338499D01*
X70850000Y-77338499D02*
X68850000Y-77338499D01*
X68850000Y-77338499D02*
X68850000Y-74338499D01*
X68850000Y-74338499D02*
X70850000Y-74338499D01*
G04 #@! TO.C,OL1*
X62230000Y-65405000D02*
X72390000Y-65405000D01*
X72390000Y-65405000D02*
X72390000Y-67945000D01*
X72390000Y-67945000D02*
X62230000Y-67945000D01*
X62230000Y-67945000D02*
X62230000Y-65405000D01*
D12*
G04 #@! TO.C,D45*
X71643750Y-168937500D02*
X69643750Y-168937500D01*
X69643750Y-168937500D02*
X69643750Y-165037500D01*
X71643750Y-168937500D02*
X71643750Y-165037500D01*
G04 #@! TO.C,D44*
X89900000Y-161793750D02*
X87900000Y-161793750D01*
X87900000Y-161793750D02*
X87900000Y-157893750D01*
X89900000Y-161793750D02*
X89900000Y-157893750D01*
G04 #@! TO.C,D43*
X106493750Y-153400000D02*
X106493750Y-151400000D01*
X106493750Y-151400000D02*
X110393750Y-151400000D01*
X106493750Y-153400000D02*
X110393750Y-153400000D01*
G04 #@! TO.C,D42*
X125543750Y-154193750D02*
X125543750Y-152193750D01*
X125543750Y-152193750D02*
X129443750Y-152193750D01*
X125543750Y-154193750D02*
X129443750Y-154193750D01*
G04 #@! TO.C,D41*
X125543750Y-135143750D02*
X125543750Y-133143750D01*
X125543750Y-133143750D02*
X129443750Y-133143750D01*
X125543750Y-135143750D02*
X129443750Y-135143750D01*
G04 #@! TO.C,D40*
X144593750Y-154193750D02*
X144593750Y-152193750D01*
X144593750Y-152193750D02*
X148493750Y-152193750D01*
X144593750Y-154193750D02*
X148493750Y-154193750D01*
G04 #@! TO.C,D35*
X87443750Y-115675000D02*
X87443750Y-113675000D01*
X87443750Y-113675000D02*
X91343750Y-113675000D01*
X87443750Y-115675000D02*
X91343750Y-115675000D01*
G04 #@! TO.C,D34*
X106493750Y-115375000D02*
X106493750Y-113375000D01*
X106493750Y-113375000D02*
X110393750Y-113375000D01*
X106493750Y-115375000D02*
X110393750Y-115375000D01*
G04 #@! TO.C,D33*
X125543750Y-112125000D02*
X125543750Y-110125000D01*
X125543750Y-110125000D02*
X129443750Y-110125000D01*
X125543750Y-112125000D02*
X129443750Y-112125000D01*
G04 #@! TO.C,D32*
X144593750Y-118700000D02*
X144593750Y-116700000D01*
X144593750Y-116700000D02*
X148493750Y-116700000D01*
X144593750Y-118700000D02*
X148493750Y-118700000D01*
G04 #@! TO.C,D31*
X163643750Y-134700000D02*
X163643750Y-132700000D01*
X163643750Y-132700000D02*
X167543750Y-132700000D01*
X163643750Y-134700000D02*
X167543750Y-134700000D01*
G04 #@! TO.C,D30*
X175550000Y-134700000D02*
X175550000Y-132700000D01*
X175550000Y-132700000D02*
X179450000Y-132700000D01*
X175550000Y-134700000D02*
X179450000Y-134700000D01*
G04 #@! TO.C,D25*
X87443750Y-96625000D02*
X87443750Y-94625000D01*
X87443750Y-94625000D02*
X91343750Y-94625000D01*
X87443750Y-96625000D02*
X91343750Y-96625000D01*
G04 #@! TO.C,D24*
X106493750Y-96325000D02*
X106493750Y-94325000D01*
X106493750Y-94325000D02*
X110393750Y-94325000D01*
X106493750Y-96325000D02*
X110393750Y-96325000D01*
G04 #@! TO.C,D23*
X125543750Y-93075000D02*
X125543750Y-91075000D01*
X125543750Y-91075000D02*
X129443750Y-91075000D01*
X125543750Y-93075000D02*
X129443750Y-93075000D01*
G04 #@! TO.C,D22*
X144593750Y-99650000D02*
X144593750Y-97650000D01*
X144593750Y-97650000D02*
X148493750Y-97650000D01*
X144593750Y-99650000D02*
X148493750Y-99650000D01*
G04 #@! TO.C,D21*
X163643750Y-115650000D02*
X163643750Y-113650000D01*
X163643750Y-113650000D02*
X167543750Y-113650000D01*
X163643750Y-115650000D02*
X167543750Y-115650000D01*
G04 #@! TO.C,D20*
X175550000Y-115650000D02*
X175550000Y-113650000D01*
X175550000Y-113650000D02*
X179450000Y-113650000D01*
X175550000Y-115650000D02*
X179450000Y-115650000D01*
G04 #@! TO.C,D15*
X87443750Y-77575000D02*
X87443750Y-75575000D01*
X87443750Y-75575000D02*
X91343750Y-75575000D01*
X87443750Y-77575000D02*
X91343750Y-77575000D01*
G04 #@! TO.C,D14*
X106493750Y-77275000D02*
X106493750Y-75275000D01*
X106493750Y-75275000D02*
X110393750Y-75275000D01*
X106493750Y-77275000D02*
X110393750Y-77275000D01*
G04 #@! TO.C,D13*
X125543750Y-73231250D02*
X125543750Y-71231250D01*
X125543750Y-71231250D02*
X129443750Y-71231250D01*
X125543750Y-73231250D02*
X129443750Y-73231250D01*
G04 #@! TO.C,D12*
X144593750Y-79806250D02*
X144593750Y-77806250D01*
X144593750Y-77806250D02*
X148493750Y-77806250D01*
X144593750Y-79806250D02*
X148493750Y-79806250D01*
G04 #@! TO.C,D11*
X163643750Y-96600000D02*
X163643750Y-94600000D01*
X163643750Y-94600000D02*
X167543750Y-94600000D01*
X163643750Y-96600000D02*
X167543750Y-96600000D01*
G04 #@! TO.C,D10*
X175550000Y-96600000D02*
X175550000Y-94600000D01*
X175550000Y-94600000D02*
X179450000Y-94600000D01*
X175550000Y-96600000D02*
X179450000Y-96600000D01*
G04 #@! TO.C,D5*
X87443750Y-50212500D02*
X87443750Y-48212500D01*
X87443750Y-48212500D02*
X91343750Y-48212500D01*
X87443750Y-50212500D02*
X91343750Y-50212500D01*
G04 #@! TO.C,D4*
X106493750Y-50212500D02*
X106493750Y-48212500D01*
X106493750Y-48212500D02*
X110393750Y-48212500D01*
X106493750Y-50212500D02*
X110393750Y-50212500D01*
G04 #@! TO.C,D3*
X125543750Y-50212500D02*
X125543750Y-48212500D01*
X125543750Y-48212500D02*
X129443750Y-48212500D01*
X125543750Y-50212500D02*
X129443750Y-50212500D01*
G04 #@! TO.C,D2*
X144593750Y-50212500D02*
X144593750Y-48212500D01*
X144593750Y-48212500D02*
X148493750Y-48212500D01*
X144593750Y-50212500D02*
X148493750Y-50212500D01*
G04 #@! TO.C,U1*
D10*
X72248333Y-37451309D02*
X72134047Y-37489404D01*
X71943571Y-37489404D01*
X71867380Y-37451309D01*
X71829285Y-37413214D01*
X71791190Y-37337023D01*
X71791190Y-37260833D01*
X71829285Y-37184642D01*
X71867380Y-37146547D01*
X71943571Y-37108452D01*
X72095952Y-37070357D01*
X72172142Y-37032261D01*
X72210238Y-36994166D01*
X72248333Y-36917976D01*
X72248333Y-36841785D01*
X72210238Y-36765595D01*
X72172142Y-36727500D01*
X72095952Y-36689404D01*
X71905476Y-36689404D01*
X71791190Y-36727500D01*
X71562619Y-36689404D02*
X71105476Y-36689404D01*
X71334047Y-37489404D02*
X71334047Y-36689404D01*
X65293604Y-31629404D02*
X64836461Y-31629404D01*
X65065032Y-32429404D02*
X65065032Y-31629404D01*
X64645985Y-31629404D02*
X64112651Y-32429404D01*
X64112651Y-31629404D02*
X64645985Y-32429404D01*
X63655508Y-31629404D02*
X63579318Y-31629404D01*
X63503128Y-31667500D01*
X63465032Y-31705595D01*
X63426937Y-31781785D01*
X63388842Y-31934166D01*
X63388842Y-32124642D01*
X63426937Y-32277023D01*
X63465032Y-32353214D01*
X63503128Y-32391309D01*
X63579318Y-32429404D01*
X63655508Y-32429404D01*
X63731699Y-32391309D01*
X63769794Y-32353214D01*
X63807889Y-32277023D01*
X63845985Y-32124642D01*
X63845985Y-31934166D01*
X63807889Y-31781785D01*
X63769794Y-31705595D01*
X63731699Y-31667500D01*
X63655508Y-31629404D01*
X62474556Y-31591309D02*
X63160270Y-32619880D01*
X62207889Y-32429404D02*
X62207889Y-31629404D01*
X62017413Y-31629404D01*
X61903128Y-31667500D01*
X61826937Y-31743690D01*
X61788842Y-31819880D01*
X61750747Y-31972261D01*
X61750747Y-32086547D01*
X61788842Y-32238928D01*
X61826937Y-32315119D01*
X61903128Y-32391309D01*
X62017413Y-32429404D01*
X62207889Y-32429404D01*
X61484080Y-31629404D02*
X60988842Y-31629404D01*
X61255508Y-31934166D01*
X61141223Y-31934166D01*
X61065032Y-31972261D01*
X61026937Y-32010357D01*
X60988842Y-32086547D01*
X60988842Y-32277023D01*
X61026937Y-32353214D01*
X61065032Y-32391309D01*
X61141223Y-32429404D01*
X61369794Y-32429404D01*
X61445985Y-32391309D01*
X61484080Y-32353214D01*
X72459809Y-57410357D02*
X72345523Y-57448452D01*
X72307428Y-57486547D01*
X72269333Y-57562738D01*
X72269333Y-57677023D01*
X72307428Y-57753214D01*
X72345523Y-57791309D01*
X72421714Y-57829404D01*
X72726476Y-57829404D01*
X72726476Y-57029404D01*
X72459809Y-57029404D01*
X72383619Y-57067500D01*
X72345523Y-57105595D01*
X72307428Y-57181785D01*
X72307428Y-57257976D01*
X72345523Y-57334166D01*
X72383619Y-57372261D01*
X72459809Y-57410357D01*
X72726476Y-57410357D01*
X71964571Y-57105595D02*
X71926476Y-57067500D01*
X71850285Y-57029404D01*
X71659809Y-57029404D01*
X71583619Y-57067500D01*
X71545523Y-57105595D01*
X71507428Y-57181785D01*
X71507428Y-57257976D01*
X71545523Y-57372261D01*
X72002666Y-57829404D01*
X71507428Y-57829404D01*
X72402666Y-49790357D02*
X72669333Y-49790357D01*
X72669333Y-50209404D02*
X72669333Y-49409404D01*
X72288380Y-49409404D01*
X72059809Y-49409404D02*
X71526476Y-49409404D01*
X71869333Y-50209404D01*
X72402666Y-47250357D02*
X72669333Y-47250357D01*
X72669333Y-47669404D02*
X72669333Y-46869404D01*
X72288380Y-46869404D01*
X71640761Y-46869404D02*
X71793142Y-46869404D01*
X71869333Y-46907500D01*
X71907428Y-46945595D01*
X71983619Y-47059880D01*
X72021714Y-47212261D01*
X72021714Y-47517023D01*
X71983619Y-47593214D01*
X71945523Y-47631309D01*
X71869333Y-47669404D01*
X71716952Y-47669404D01*
X71640761Y-47631309D01*
X71602666Y-47593214D01*
X71564571Y-47517023D01*
X71564571Y-47326547D01*
X71602666Y-47250357D01*
X71640761Y-47212261D01*
X71716952Y-47174166D01*
X71869333Y-47174166D01*
X71945523Y-47212261D01*
X71983619Y-47250357D01*
X72021714Y-47326547D01*
X72402666Y-44710357D02*
X72669333Y-44710357D01*
X72669333Y-45129404D02*
X72669333Y-44329404D01*
X72288380Y-44329404D01*
X71602666Y-44329404D02*
X71983619Y-44329404D01*
X72021714Y-44710357D01*
X71983619Y-44672261D01*
X71907428Y-44634166D01*
X71716952Y-44634166D01*
X71640761Y-44672261D01*
X71602666Y-44710357D01*
X71564571Y-44786547D01*
X71564571Y-44977023D01*
X71602666Y-45053214D01*
X71640761Y-45091309D01*
X71716952Y-45129404D01*
X71907428Y-45129404D01*
X71983619Y-45091309D01*
X72021714Y-45053214D01*
X72688380Y-32429404D02*
X72955047Y-32048452D01*
X73145523Y-32429404D02*
X73145523Y-31629404D01*
X72840761Y-31629404D01*
X72764571Y-31667500D01*
X72726476Y-31705595D01*
X72688380Y-31781785D01*
X72688380Y-31896071D01*
X72726476Y-31972261D01*
X72764571Y-32010357D01*
X72840761Y-32048452D01*
X73145523Y-32048452D01*
X72383619Y-32200833D02*
X72002666Y-32200833D01*
X72459809Y-32429404D02*
X72193142Y-31629404D01*
X71926476Y-32429404D01*
X71736000Y-31629404D02*
X71545523Y-32429404D01*
X71393142Y-31857976D01*
X71240761Y-32429404D01*
X71050285Y-31629404D01*
X72745523Y-34207500D02*
X72821714Y-34169404D01*
X72936000Y-34169404D01*
X73050285Y-34207500D01*
X73126476Y-34283690D01*
X73164571Y-34359880D01*
X73202666Y-34512261D01*
X73202666Y-34626547D01*
X73164571Y-34778928D01*
X73126476Y-34855119D01*
X73050285Y-34931309D01*
X72936000Y-34969404D01*
X72859809Y-34969404D01*
X72745523Y-34931309D01*
X72707428Y-34893214D01*
X72707428Y-34626547D01*
X72859809Y-34626547D01*
X72364571Y-34969404D02*
X72364571Y-34169404D01*
X71907428Y-34969404D01*
X71907428Y-34169404D01*
X71526476Y-34969404D02*
X71526476Y-34169404D01*
X71336000Y-34169404D01*
X71221714Y-34207500D01*
X71145523Y-34283690D01*
X71107428Y-34359880D01*
X71069333Y-34512261D01*
X71069333Y-34626547D01*
X71107428Y-34778928D01*
X71145523Y-34855119D01*
X71221714Y-34931309D01*
X71336000Y-34969404D01*
X71526476Y-34969404D01*
X73202666Y-39249404D02*
X72936000Y-40049404D01*
X72669333Y-39249404D01*
X71945523Y-39973214D02*
X71983619Y-40011309D01*
X72097904Y-40049404D01*
X72174095Y-40049404D01*
X72288380Y-40011309D01*
X72364571Y-39935119D01*
X72402666Y-39858928D01*
X72440761Y-39706547D01*
X72440761Y-39592261D01*
X72402666Y-39439880D01*
X72364571Y-39363690D01*
X72288380Y-39287500D01*
X72174095Y-39249404D01*
X72097904Y-39249404D01*
X71983619Y-39287500D01*
X71945523Y-39325595D01*
X71145523Y-39973214D02*
X71183619Y-40011309D01*
X71297904Y-40049404D01*
X71374095Y-40049404D01*
X71488380Y-40011309D01*
X71564571Y-39935119D01*
X71602666Y-39858928D01*
X71640761Y-39706547D01*
X71640761Y-39592261D01*
X71602666Y-39439880D01*
X71564571Y-39363690D01*
X71488380Y-39287500D01*
X71374095Y-39249404D01*
X71297904Y-39249404D01*
X71183619Y-39287500D01*
X71145523Y-39325595D01*
X72402666Y-42170357D02*
X72669333Y-42170357D01*
X72669333Y-42589404D02*
X72669333Y-41789404D01*
X72288380Y-41789404D01*
X71640761Y-42056071D02*
X71640761Y-42589404D01*
X71831238Y-41751309D02*
X72021714Y-42322738D01*
X71526476Y-42322738D01*
X72459809Y-52330357D02*
X72345523Y-52368452D01*
X72307428Y-52406547D01*
X72269333Y-52482738D01*
X72269333Y-52597023D01*
X72307428Y-52673214D01*
X72345523Y-52711309D01*
X72421714Y-52749404D01*
X72726476Y-52749404D01*
X72726476Y-51949404D01*
X72459809Y-51949404D01*
X72383619Y-51987500D01*
X72345523Y-52025595D01*
X72307428Y-52101785D01*
X72307428Y-52177976D01*
X72345523Y-52254166D01*
X72383619Y-52292261D01*
X72459809Y-52330357D01*
X72726476Y-52330357D01*
X71507428Y-52749404D02*
X71964571Y-52749404D01*
X71736000Y-52749404D02*
X71736000Y-51949404D01*
X71812190Y-52063690D01*
X71888380Y-52139880D01*
X71964571Y-52177976D01*
X72459809Y-54870357D02*
X72345523Y-54908452D01*
X72307428Y-54946547D01*
X72269333Y-55022738D01*
X72269333Y-55137023D01*
X72307428Y-55213214D01*
X72345523Y-55251309D01*
X72421714Y-55289404D01*
X72726476Y-55289404D01*
X72726476Y-54489404D01*
X72459809Y-54489404D01*
X72383619Y-54527500D01*
X72345523Y-54565595D01*
X72307428Y-54641785D01*
X72307428Y-54717976D01*
X72345523Y-54794166D01*
X72383619Y-54832261D01*
X72459809Y-54870357D01*
X72726476Y-54870357D01*
X72002666Y-54489404D02*
X71507428Y-54489404D01*
X71774095Y-54794166D01*
X71659809Y-54794166D01*
X71583619Y-54832261D01*
X71545523Y-54870357D01*
X71507428Y-54946547D01*
X71507428Y-55137023D01*
X71545523Y-55213214D01*
X71583619Y-55251309D01*
X71659809Y-55289404D01*
X71888380Y-55289404D01*
X71964571Y-55251309D01*
X72002666Y-55213214D01*
X72459809Y-59950357D02*
X72345523Y-59988452D01*
X72307428Y-60026547D01*
X72269333Y-60102738D01*
X72269333Y-60217023D01*
X72307428Y-60293214D01*
X72345523Y-60331309D01*
X72421714Y-60369404D01*
X72726476Y-60369404D01*
X72726476Y-59569404D01*
X72459809Y-59569404D01*
X72383619Y-59607500D01*
X72345523Y-59645595D01*
X72307428Y-59721785D01*
X72307428Y-59797976D01*
X72345523Y-59874166D01*
X72383619Y-59912261D01*
X72459809Y-59950357D01*
X72726476Y-59950357D01*
X71583619Y-59569404D02*
X71736000Y-59569404D01*
X71812190Y-59607500D01*
X71850285Y-59645595D01*
X71926476Y-59759880D01*
X71964571Y-59912261D01*
X71964571Y-60217023D01*
X71926476Y-60293214D01*
X71888380Y-60331309D01*
X71812190Y-60369404D01*
X71659809Y-60369404D01*
X71583619Y-60331309D01*
X71545523Y-60293214D01*
X71507428Y-60217023D01*
X71507428Y-60026547D01*
X71545523Y-59950357D01*
X71583619Y-59912261D01*
X71659809Y-59874166D01*
X71812190Y-59874166D01*
X71888380Y-59912261D01*
X71926476Y-59950357D01*
X71964571Y-60026547D01*
X61537809Y-59950357D02*
X61423523Y-59988452D01*
X61385428Y-60026547D01*
X61347333Y-60102738D01*
X61347333Y-60217023D01*
X61385428Y-60293214D01*
X61423523Y-60331309D01*
X61499714Y-60369404D01*
X61804476Y-60369404D01*
X61804476Y-59569404D01*
X61537809Y-59569404D01*
X61461619Y-59607500D01*
X61423523Y-59645595D01*
X61385428Y-59721785D01*
X61385428Y-59797976D01*
X61423523Y-59874166D01*
X61461619Y-59912261D01*
X61537809Y-59950357D01*
X61804476Y-59950357D01*
X60623523Y-59569404D02*
X61004476Y-59569404D01*
X61042571Y-59950357D01*
X61004476Y-59912261D01*
X60928285Y-59874166D01*
X60737809Y-59874166D01*
X60661619Y-59912261D01*
X60623523Y-59950357D01*
X60585428Y-60026547D01*
X60585428Y-60217023D01*
X60623523Y-60293214D01*
X60661619Y-60331309D01*
X60737809Y-60369404D01*
X60928285Y-60369404D01*
X61004476Y-60331309D01*
X61042571Y-60293214D01*
X61537809Y-57410357D02*
X61423523Y-57448452D01*
X61385428Y-57486547D01*
X61347333Y-57562738D01*
X61347333Y-57677023D01*
X61385428Y-57753214D01*
X61423523Y-57791309D01*
X61499714Y-57829404D01*
X61804476Y-57829404D01*
X61804476Y-57029404D01*
X61537809Y-57029404D01*
X61461619Y-57067500D01*
X61423523Y-57105595D01*
X61385428Y-57181785D01*
X61385428Y-57257976D01*
X61423523Y-57334166D01*
X61461619Y-57372261D01*
X61537809Y-57410357D01*
X61804476Y-57410357D01*
X60661619Y-57296071D02*
X60661619Y-57829404D01*
X60852095Y-56991309D02*
X61042571Y-57562738D01*
X60547333Y-57562738D01*
X61766380Y-54870357D02*
X61499714Y-54870357D01*
X61385428Y-55289404D02*
X61766380Y-55289404D01*
X61766380Y-54489404D01*
X61385428Y-54489404D01*
X60699714Y-54489404D02*
X60852095Y-54489404D01*
X60928285Y-54527500D01*
X60966380Y-54565595D01*
X61042571Y-54679880D01*
X61080666Y-54832261D01*
X61080666Y-55137023D01*
X61042571Y-55213214D01*
X61004476Y-55251309D01*
X60928285Y-55289404D01*
X60775904Y-55289404D01*
X60699714Y-55251309D01*
X60661619Y-55213214D01*
X60623523Y-55137023D01*
X60623523Y-54946547D01*
X60661619Y-54870357D01*
X60699714Y-54832261D01*
X60775904Y-54794166D01*
X60928285Y-54794166D01*
X61004476Y-54832261D01*
X61042571Y-54870357D01*
X61080666Y-54946547D01*
X61804476Y-52749404D02*
X61804476Y-51949404D01*
X61614000Y-51949404D01*
X61499714Y-51987500D01*
X61423523Y-52063690D01*
X61385428Y-52139880D01*
X61347333Y-52292261D01*
X61347333Y-52406547D01*
X61385428Y-52558928D01*
X61423523Y-52635119D01*
X61499714Y-52711309D01*
X61614000Y-52749404D01*
X61804476Y-52749404D01*
X61080666Y-51949404D02*
X60547333Y-51949404D01*
X60890190Y-52749404D01*
X61347333Y-50133214D02*
X61385428Y-50171309D01*
X61499714Y-50209404D01*
X61575904Y-50209404D01*
X61690190Y-50171309D01*
X61766380Y-50095119D01*
X61804476Y-50018928D01*
X61842571Y-49866547D01*
X61842571Y-49752261D01*
X61804476Y-49599880D01*
X61766380Y-49523690D01*
X61690190Y-49447500D01*
X61575904Y-49409404D01*
X61499714Y-49409404D01*
X61385428Y-49447500D01*
X61347333Y-49485595D01*
X60661619Y-49409404D02*
X60814000Y-49409404D01*
X60890190Y-49447500D01*
X60928285Y-49485595D01*
X61004476Y-49599880D01*
X61042571Y-49752261D01*
X61042571Y-50057023D01*
X61004476Y-50133214D01*
X60966380Y-50171309D01*
X60890190Y-50209404D01*
X60737809Y-50209404D01*
X60661619Y-50171309D01*
X60623523Y-50133214D01*
X60585428Y-50057023D01*
X60585428Y-49866547D01*
X60623523Y-49790357D01*
X60661619Y-49752261D01*
X60737809Y-49714166D01*
X60890190Y-49714166D01*
X60966380Y-49752261D01*
X61004476Y-49790357D01*
X61042571Y-49866547D01*
X61804476Y-47669404D02*
X61804476Y-46869404D01*
X61614000Y-46869404D01*
X61499714Y-46907500D01*
X61423523Y-46983690D01*
X61385428Y-47059880D01*
X61347333Y-47212261D01*
X61347333Y-47326547D01*
X61385428Y-47478928D01*
X61423523Y-47555119D01*
X61499714Y-47631309D01*
X61614000Y-47669404D01*
X61804476Y-47669404D01*
X60661619Y-47136071D02*
X60661619Y-47669404D01*
X60852095Y-46831309D02*
X61042571Y-47402738D01*
X60547333Y-47402738D01*
X61823523Y-36747500D02*
X61899714Y-36709404D01*
X62014000Y-36709404D01*
X62128285Y-36747500D01*
X62204476Y-36823690D01*
X62242571Y-36899880D01*
X62280666Y-37052261D01*
X62280666Y-37166547D01*
X62242571Y-37318928D01*
X62204476Y-37395119D01*
X62128285Y-37471309D01*
X62014000Y-37509404D01*
X61937809Y-37509404D01*
X61823523Y-37471309D01*
X61785428Y-37433214D01*
X61785428Y-37166547D01*
X61937809Y-37166547D01*
X61442571Y-37509404D02*
X61442571Y-36709404D01*
X60985428Y-37509404D01*
X60985428Y-36709404D01*
X60604476Y-37509404D02*
X60604476Y-36709404D01*
X60414000Y-36709404D01*
X60299714Y-36747500D01*
X60223523Y-36823690D01*
X60185428Y-36899880D01*
X60147333Y-37052261D01*
X60147333Y-37166547D01*
X60185428Y-37318928D01*
X60223523Y-37395119D01*
X60299714Y-37471309D01*
X60414000Y-37509404D01*
X60604476Y-37509404D01*
X61823523Y-39287500D02*
X61899714Y-39249404D01*
X62014000Y-39249404D01*
X62128285Y-39287500D01*
X62204476Y-39363690D01*
X62242571Y-39439880D01*
X62280666Y-39592261D01*
X62280666Y-39706547D01*
X62242571Y-39858928D01*
X62204476Y-39935119D01*
X62128285Y-40011309D01*
X62014000Y-40049404D01*
X61937809Y-40049404D01*
X61823523Y-40011309D01*
X61785428Y-39973214D01*
X61785428Y-39706547D01*
X61937809Y-39706547D01*
X61442571Y-40049404D02*
X61442571Y-39249404D01*
X60985428Y-40049404D01*
X60985428Y-39249404D01*
X60604476Y-40049404D02*
X60604476Y-39249404D01*
X60414000Y-39249404D01*
X60299714Y-39287500D01*
X60223523Y-39363690D01*
X60185428Y-39439880D01*
X60147333Y-39592261D01*
X60147333Y-39706547D01*
X60185428Y-39858928D01*
X60223523Y-39935119D01*
X60299714Y-40011309D01*
X60414000Y-40049404D01*
X60604476Y-40049404D01*
X61804476Y-42589404D02*
X61804476Y-41789404D01*
X61614000Y-41789404D01*
X61499714Y-41827500D01*
X61423523Y-41903690D01*
X61385428Y-41979880D01*
X61347333Y-42132261D01*
X61347333Y-42246547D01*
X61385428Y-42398928D01*
X61423523Y-42475119D01*
X61499714Y-42551309D01*
X61614000Y-42589404D01*
X61804476Y-42589404D01*
X60585428Y-42589404D02*
X61042571Y-42589404D01*
X60814000Y-42589404D02*
X60814000Y-41789404D01*
X60890190Y-41903690D01*
X60966380Y-41979880D01*
X61042571Y-42017976D01*
X61804476Y-45129404D02*
X61804476Y-44329404D01*
X61614000Y-44329404D01*
X61499714Y-44367500D01*
X61423523Y-44443690D01*
X61385428Y-44519880D01*
X61347333Y-44672261D01*
X61347333Y-44786547D01*
X61385428Y-44938928D01*
X61423523Y-45015119D01*
X61499714Y-45091309D01*
X61614000Y-45129404D01*
X61804476Y-45129404D01*
X60852095Y-44329404D02*
X60775904Y-44329404D01*
X60699714Y-44367500D01*
X60661619Y-44405595D01*
X60623523Y-44481785D01*
X60585428Y-44634166D01*
X60585428Y-44824642D01*
X60623523Y-44977023D01*
X60661619Y-45053214D01*
X60699714Y-45091309D01*
X60775904Y-45129404D01*
X60852095Y-45129404D01*
X60928285Y-45091309D01*
X60966380Y-45053214D01*
X61004476Y-44977023D01*
X61042571Y-44824642D01*
X61042571Y-44634166D01*
X61004476Y-44481785D01*
X60966380Y-44405595D01*
X60928285Y-44367500D01*
X60852095Y-44329404D01*
X61804476Y-34969404D02*
X61804476Y-34169404D01*
X61614000Y-34169404D01*
X61499714Y-34207500D01*
X61423523Y-34283690D01*
X61385428Y-34359880D01*
X61347333Y-34512261D01*
X61347333Y-34626547D01*
X61385428Y-34778928D01*
X61423523Y-34855119D01*
X61499714Y-34931309D01*
X61614000Y-34969404D01*
X61804476Y-34969404D01*
X61042571Y-34245595D02*
X61004476Y-34207500D01*
X60928285Y-34169404D01*
X60737809Y-34169404D01*
X60661619Y-34207500D01*
X60623523Y-34245595D01*
X60585428Y-34321785D01*
X60585428Y-34397976D01*
X60623523Y-34512261D01*
X61080666Y-34969404D01*
X60585428Y-34969404D01*
G04 #@! TO.C,R2*
X73986144Y-75705165D02*
X73605192Y-75438499D01*
X73986144Y-75248022D02*
X73186144Y-75248022D01*
X73186144Y-75552784D01*
X73224240Y-75628975D01*
X73262335Y-75667070D01*
X73338525Y-75705165D01*
X73452811Y-75705165D01*
X73529001Y-75667070D01*
X73567097Y-75628975D01*
X73605192Y-75552784D01*
X73605192Y-75248022D01*
X73986144Y-76467070D02*
X73986144Y-76009927D01*
X73986144Y-76238499D02*
X73186144Y-76238499D01*
X73300430Y-76162308D01*
X73376620Y-76086118D01*
X73414716Y-76009927D01*
G04 #@! TO.C,R1*
X70211904Y-75705165D02*
X69830952Y-75438499D01*
X70211904Y-75248022D02*
X69411904Y-75248022D01*
X69411904Y-75552784D01*
X69450000Y-75628975D01*
X69488095Y-75667070D01*
X69564285Y-75705165D01*
X69678571Y-75705165D01*
X69754761Y-75667070D01*
X69792857Y-75628975D01*
X69830952Y-75552784D01*
X69830952Y-75248022D01*
X70211904Y-76467070D02*
X70211904Y-76009927D01*
X70211904Y-76238499D02*
X69411904Y-76238499D01*
X69526190Y-76162308D01*
X69602380Y-76086118D01*
X69640476Y-76009927D01*
G04 #@! TO.C,D45*
X73096130Y-165473214D02*
X72096130Y-165473214D01*
X72096130Y-165711309D01*
X72143750Y-165854166D01*
X72238988Y-165949404D01*
X72334226Y-165997023D01*
X72524702Y-166044642D01*
X72667559Y-166044642D01*
X72858035Y-165997023D01*
X72953273Y-165949404D01*
X73048511Y-165854166D01*
X73096130Y-165711309D01*
X73096130Y-165473214D01*
X72429464Y-166901785D02*
X73096130Y-166901785D01*
X72048511Y-166663690D02*
X72762797Y-166425595D01*
X72762797Y-167044642D01*
X72096130Y-167901785D02*
X72096130Y-167425595D01*
X72572321Y-167377976D01*
X72524702Y-167425595D01*
X72477083Y-167520833D01*
X72477083Y-167758928D01*
X72524702Y-167854166D01*
X72572321Y-167901785D01*
X72667559Y-167949404D01*
X72905654Y-167949404D01*
X73000892Y-167901785D01*
X73048511Y-167854166D01*
X73096130Y-167758928D01*
X73096130Y-167520833D01*
X73048511Y-167425595D01*
X73000892Y-167377976D01*
G04 #@! TO.C,D44*
X91352380Y-158329464D02*
X90352380Y-158329464D01*
X90352380Y-158567559D01*
X90400000Y-158710416D01*
X90495238Y-158805654D01*
X90590476Y-158853273D01*
X90780952Y-158900892D01*
X90923809Y-158900892D01*
X91114285Y-158853273D01*
X91209523Y-158805654D01*
X91304761Y-158710416D01*
X91352380Y-158567559D01*
X91352380Y-158329464D01*
X90685714Y-159758035D02*
X91352380Y-159758035D01*
X90304761Y-159519940D02*
X91019047Y-159281845D01*
X91019047Y-159900892D01*
X90685714Y-160710416D02*
X91352380Y-160710416D01*
X90304761Y-160472321D02*
X91019047Y-160234226D01*
X91019047Y-160853273D01*
G04 #@! TO.C,D43*
X109958035Y-154852380D02*
X109958035Y-153852380D01*
X109719940Y-153852380D01*
X109577083Y-153900000D01*
X109481845Y-153995238D01*
X109434226Y-154090476D01*
X109386607Y-154280952D01*
X109386607Y-154423809D01*
X109434226Y-154614285D01*
X109481845Y-154709523D01*
X109577083Y-154804761D01*
X109719940Y-154852380D01*
X109958035Y-154852380D01*
X108529464Y-154185714D02*
X108529464Y-154852380D01*
X108767559Y-153804761D02*
X109005654Y-154519047D01*
X108386607Y-154519047D01*
X108100892Y-153852380D02*
X107481845Y-153852380D01*
X107815178Y-154233333D01*
X107672321Y-154233333D01*
X107577083Y-154280952D01*
X107529464Y-154328571D01*
X107481845Y-154423809D01*
X107481845Y-154661904D01*
X107529464Y-154757142D01*
X107577083Y-154804761D01*
X107672321Y-154852380D01*
X107958035Y-154852380D01*
X108053273Y-154804761D01*
X108100892Y-154757142D01*
G04 #@! TO.C,D42*
X129008035Y-155646130D02*
X129008035Y-154646130D01*
X128769940Y-154646130D01*
X128627083Y-154693750D01*
X128531845Y-154788988D01*
X128484226Y-154884226D01*
X128436607Y-155074702D01*
X128436607Y-155217559D01*
X128484226Y-155408035D01*
X128531845Y-155503273D01*
X128627083Y-155598511D01*
X128769940Y-155646130D01*
X129008035Y-155646130D01*
X127579464Y-154979464D02*
X127579464Y-155646130D01*
X127817559Y-154598511D02*
X128055654Y-155312797D01*
X127436607Y-155312797D01*
X127103273Y-154741369D02*
X127055654Y-154693750D01*
X126960416Y-154646130D01*
X126722321Y-154646130D01*
X126627083Y-154693750D01*
X126579464Y-154741369D01*
X126531845Y-154836607D01*
X126531845Y-154931845D01*
X126579464Y-155074702D01*
X127150892Y-155646130D01*
X126531845Y-155646130D01*
G04 #@! TO.C,D41*
X129008035Y-136596130D02*
X129008035Y-135596130D01*
X128769940Y-135596130D01*
X128627083Y-135643750D01*
X128531845Y-135738988D01*
X128484226Y-135834226D01*
X128436607Y-136024702D01*
X128436607Y-136167559D01*
X128484226Y-136358035D01*
X128531845Y-136453273D01*
X128627083Y-136548511D01*
X128769940Y-136596130D01*
X129008035Y-136596130D01*
X127579464Y-135929464D02*
X127579464Y-136596130D01*
X127817559Y-135548511D02*
X128055654Y-136262797D01*
X127436607Y-136262797D01*
X126531845Y-136596130D02*
X127103273Y-136596130D01*
X126817559Y-136596130D02*
X126817559Y-135596130D01*
X126912797Y-135738988D01*
X127008035Y-135834226D01*
X127103273Y-135881845D01*
G04 #@! TO.C,D40*
X148058035Y-155646130D02*
X148058035Y-154646130D01*
X147819940Y-154646130D01*
X147677083Y-154693750D01*
X147581845Y-154788988D01*
X147534226Y-154884226D01*
X147486607Y-155074702D01*
X147486607Y-155217559D01*
X147534226Y-155408035D01*
X147581845Y-155503273D01*
X147677083Y-155598511D01*
X147819940Y-155646130D01*
X148058035Y-155646130D01*
X146629464Y-154979464D02*
X146629464Y-155646130D01*
X146867559Y-154598511D02*
X147105654Y-155312797D01*
X146486607Y-155312797D01*
X145915178Y-154646130D02*
X145819940Y-154646130D01*
X145724702Y-154693750D01*
X145677083Y-154741369D01*
X145629464Y-154836607D01*
X145581845Y-155027083D01*
X145581845Y-155265178D01*
X145629464Y-155455654D01*
X145677083Y-155550892D01*
X145724702Y-155598511D01*
X145819940Y-155646130D01*
X145915178Y-155646130D01*
X146010416Y-155598511D01*
X146058035Y-155550892D01*
X146105654Y-155455654D01*
X146153273Y-155265178D01*
X146153273Y-155027083D01*
X146105654Y-154836607D01*
X146058035Y-154741369D01*
X146010416Y-154693750D01*
X145915178Y-154646130D01*
G04 #@! TO.C,D35*
X90908035Y-117127380D02*
X90908035Y-116127380D01*
X90669940Y-116127380D01*
X90527083Y-116175000D01*
X90431845Y-116270238D01*
X90384226Y-116365476D01*
X90336607Y-116555952D01*
X90336607Y-116698809D01*
X90384226Y-116889285D01*
X90431845Y-116984523D01*
X90527083Y-117079761D01*
X90669940Y-117127380D01*
X90908035Y-117127380D01*
X90003273Y-116127380D02*
X89384226Y-116127380D01*
X89717559Y-116508333D01*
X89574702Y-116508333D01*
X89479464Y-116555952D01*
X89431845Y-116603571D01*
X89384226Y-116698809D01*
X89384226Y-116936904D01*
X89431845Y-117032142D01*
X89479464Y-117079761D01*
X89574702Y-117127380D01*
X89860416Y-117127380D01*
X89955654Y-117079761D01*
X90003273Y-117032142D01*
X88479464Y-116127380D02*
X88955654Y-116127380D01*
X89003273Y-116603571D01*
X88955654Y-116555952D01*
X88860416Y-116508333D01*
X88622321Y-116508333D01*
X88527083Y-116555952D01*
X88479464Y-116603571D01*
X88431845Y-116698809D01*
X88431845Y-116936904D01*
X88479464Y-117032142D01*
X88527083Y-117079761D01*
X88622321Y-117127380D01*
X88860416Y-117127380D01*
X88955654Y-117079761D01*
X89003273Y-117032142D01*
G04 #@! TO.C,D34*
X109958035Y-116827380D02*
X109958035Y-115827380D01*
X109719940Y-115827380D01*
X109577083Y-115875000D01*
X109481845Y-115970238D01*
X109434226Y-116065476D01*
X109386607Y-116255952D01*
X109386607Y-116398809D01*
X109434226Y-116589285D01*
X109481845Y-116684523D01*
X109577083Y-116779761D01*
X109719940Y-116827380D01*
X109958035Y-116827380D01*
X109053273Y-115827380D02*
X108434226Y-115827380D01*
X108767559Y-116208333D01*
X108624702Y-116208333D01*
X108529464Y-116255952D01*
X108481845Y-116303571D01*
X108434226Y-116398809D01*
X108434226Y-116636904D01*
X108481845Y-116732142D01*
X108529464Y-116779761D01*
X108624702Y-116827380D01*
X108910416Y-116827380D01*
X109005654Y-116779761D01*
X109053273Y-116732142D01*
X107577083Y-116160714D02*
X107577083Y-116827380D01*
X107815178Y-115779761D02*
X108053273Y-116494047D01*
X107434226Y-116494047D01*
G04 #@! TO.C,D33*
X129008035Y-113577380D02*
X129008035Y-112577380D01*
X128769940Y-112577380D01*
X128627083Y-112625000D01*
X128531845Y-112720238D01*
X128484226Y-112815476D01*
X128436607Y-113005952D01*
X128436607Y-113148809D01*
X128484226Y-113339285D01*
X128531845Y-113434523D01*
X128627083Y-113529761D01*
X128769940Y-113577380D01*
X129008035Y-113577380D01*
X128103273Y-112577380D02*
X127484226Y-112577380D01*
X127817559Y-112958333D01*
X127674702Y-112958333D01*
X127579464Y-113005952D01*
X127531845Y-113053571D01*
X127484226Y-113148809D01*
X127484226Y-113386904D01*
X127531845Y-113482142D01*
X127579464Y-113529761D01*
X127674702Y-113577380D01*
X127960416Y-113577380D01*
X128055654Y-113529761D01*
X128103273Y-113482142D01*
X127150892Y-112577380D02*
X126531845Y-112577380D01*
X126865178Y-112958333D01*
X126722321Y-112958333D01*
X126627083Y-113005952D01*
X126579464Y-113053571D01*
X126531845Y-113148809D01*
X126531845Y-113386904D01*
X126579464Y-113482142D01*
X126627083Y-113529761D01*
X126722321Y-113577380D01*
X127008035Y-113577380D01*
X127103273Y-113529761D01*
X127150892Y-113482142D01*
G04 #@! TO.C,D32*
X148058035Y-120152380D02*
X148058035Y-119152380D01*
X147819940Y-119152380D01*
X147677083Y-119200000D01*
X147581845Y-119295238D01*
X147534226Y-119390476D01*
X147486607Y-119580952D01*
X147486607Y-119723809D01*
X147534226Y-119914285D01*
X147581845Y-120009523D01*
X147677083Y-120104761D01*
X147819940Y-120152380D01*
X148058035Y-120152380D01*
X147153273Y-119152380D02*
X146534226Y-119152380D01*
X146867559Y-119533333D01*
X146724702Y-119533333D01*
X146629464Y-119580952D01*
X146581845Y-119628571D01*
X146534226Y-119723809D01*
X146534226Y-119961904D01*
X146581845Y-120057142D01*
X146629464Y-120104761D01*
X146724702Y-120152380D01*
X147010416Y-120152380D01*
X147105654Y-120104761D01*
X147153273Y-120057142D01*
X146153273Y-119247619D02*
X146105654Y-119200000D01*
X146010416Y-119152380D01*
X145772321Y-119152380D01*
X145677083Y-119200000D01*
X145629464Y-119247619D01*
X145581845Y-119342857D01*
X145581845Y-119438095D01*
X145629464Y-119580952D01*
X146200892Y-120152380D01*
X145581845Y-120152380D01*
G04 #@! TO.C,D31*
X167108035Y-136152380D02*
X167108035Y-135152380D01*
X166869940Y-135152380D01*
X166727083Y-135200000D01*
X166631845Y-135295238D01*
X166584226Y-135390476D01*
X166536607Y-135580952D01*
X166536607Y-135723809D01*
X166584226Y-135914285D01*
X166631845Y-136009523D01*
X166727083Y-136104761D01*
X166869940Y-136152380D01*
X167108035Y-136152380D01*
X166203273Y-135152380D02*
X165584226Y-135152380D01*
X165917559Y-135533333D01*
X165774702Y-135533333D01*
X165679464Y-135580952D01*
X165631845Y-135628571D01*
X165584226Y-135723809D01*
X165584226Y-135961904D01*
X165631845Y-136057142D01*
X165679464Y-136104761D01*
X165774702Y-136152380D01*
X166060416Y-136152380D01*
X166155654Y-136104761D01*
X166203273Y-136057142D01*
X164631845Y-136152380D02*
X165203273Y-136152380D01*
X164917559Y-136152380D02*
X164917559Y-135152380D01*
X165012797Y-135295238D01*
X165108035Y-135390476D01*
X165203273Y-135438095D01*
G04 #@! TO.C,D30*
X179014285Y-136152380D02*
X179014285Y-135152380D01*
X178776190Y-135152380D01*
X178633333Y-135200000D01*
X178538095Y-135295238D01*
X178490476Y-135390476D01*
X178442857Y-135580952D01*
X178442857Y-135723809D01*
X178490476Y-135914285D01*
X178538095Y-136009523D01*
X178633333Y-136104761D01*
X178776190Y-136152380D01*
X179014285Y-136152380D01*
X178109523Y-135152380D02*
X177490476Y-135152380D01*
X177823809Y-135533333D01*
X177680952Y-135533333D01*
X177585714Y-135580952D01*
X177538095Y-135628571D01*
X177490476Y-135723809D01*
X177490476Y-135961904D01*
X177538095Y-136057142D01*
X177585714Y-136104761D01*
X177680952Y-136152380D01*
X177966666Y-136152380D01*
X178061904Y-136104761D01*
X178109523Y-136057142D01*
X176871428Y-135152380D02*
X176776190Y-135152380D01*
X176680952Y-135200000D01*
X176633333Y-135247619D01*
X176585714Y-135342857D01*
X176538095Y-135533333D01*
X176538095Y-135771428D01*
X176585714Y-135961904D01*
X176633333Y-136057142D01*
X176680952Y-136104761D01*
X176776190Y-136152380D01*
X176871428Y-136152380D01*
X176966666Y-136104761D01*
X177014285Y-136057142D01*
X177061904Y-135961904D01*
X177109523Y-135771428D01*
X177109523Y-135533333D01*
X177061904Y-135342857D01*
X177014285Y-135247619D01*
X176966666Y-135200000D01*
X176871428Y-135152380D01*
G04 #@! TO.C,D25*
X90908035Y-98077380D02*
X90908035Y-97077380D01*
X90669940Y-97077380D01*
X90527083Y-97125000D01*
X90431845Y-97220238D01*
X90384226Y-97315476D01*
X90336607Y-97505952D01*
X90336607Y-97648809D01*
X90384226Y-97839285D01*
X90431845Y-97934523D01*
X90527083Y-98029761D01*
X90669940Y-98077380D01*
X90908035Y-98077380D01*
X89955654Y-97172619D02*
X89908035Y-97125000D01*
X89812797Y-97077380D01*
X89574702Y-97077380D01*
X89479464Y-97125000D01*
X89431845Y-97172619D01*
X89384226Y-97267857D01*
X89384226Y-97363095D01*
X89431845Y-97505952D01*
X90003273Y-98077380D01*
X89384226Y-98077380D01*
X88479464Y-97077380D02*
X88955654Y-97077380D01*
X89003273Y-97553571D01*
X88955654Y-97505952D01*
X88860416Y-97458333D01*
X88622321Y-97458333D01*
X88527083Y-97505952D01*
X88479464Y-97553571D01*
X88431845Y-97648809D01*
X88431845Y-97886904D01*
X88479464Y-97982142D01*
X88527083Y-98029761D01*
X88622321Y-98077380D01*
X88860416Y-98077380D01*
X88955654Y-98029761D01*
X89003273Y-97982142D01*
G04 #@! TO.C,D24*
X109958035Y-97777380D02*
X109958035Y-96777380D01*
X109719940Y-96777380D01*
X109577083Y-96825000D01*
X109481845Y-96920238D01*
X109434226Y-97015476D01*
X109386607Y-97205952D01*
X109386607Y-97348809D01*
X109434226Y-97539285D01*
X109481845Y-97634523D01*
X109577083Y-97729761D01*
X109719940Y-97777380D01*
X109958035Y-97777380D01*
X109005654Y-96872619D02*
X108958035Y-96825000D01*
X108862797Y-96777380D01*
X108624702Y-96777380D01*
X108529464Y-96825000D01*
X108481845Y-96872619D01*
X108434226Y-96967857D01*
X108434226Y-97063095D01*
X108481845Y-97205952D01*
X109053273Y-97777380D01*
X108434226Y-97777380D01*
X107577083Y-97110714D02*
X107577083Y-97777380D01*
X107815178Y-96729761D02*
X108053273Y-97444047D01*
X107434226Y-97444047D01*
G04 #@! TO.C,D23*
X129008035Y-94527380D02*
X129008035Y-93527380D01*
X128769940Y-93527380D01*
X128627083Y-93575000D01*
X128531845Y-93670238D01*
X128484226Y-93765476D01*
X128436607Y-93955952D01*
X128436607Y-94098809D01*
X128484226Y-94289285D01*
X128531845Y-94384523D01*
X128627083Y-94479761D01*
X128769940Y-94527380D01*
X129008035Y-94527380D01*
X128055654Y-93622619D02*
X128008035Y-93575000D01*
X127912797Y-93527380D01*
X127674702Y-93527380D01*
X127579464Y-93575000D01*
X127531845Y-93622619D01*
X127484226Y-93717857D01*
X127484226Y-93813095D01*
X127531845Y-93955952D01*
X128103273Y-94527380D01*
X127484226Y-94527380D01*
X127150892Y-93527380D02*
X126531845Y-93527380D01*
X126865178Y-93908333D01*
X126722321Y-93908333D01*
X126627083Y-93955952D01*
X126579464Y-94003571D01*
X126531845Y-94098809D01*
X126531845Y-94336904D01*
X126579464Y-94432142D01*
X126627083Y-94479761D01*
X126722321Y-94527380D01*
X127008035Y-94527380D01*
X127103273Y-94479761D01*
X127150892Y-94432142D01*
G04 #@! TO.C,D22*
X148058035Y-101102380D02*
X148058035Y-100102380D01*
X147819940Y-100102380D01*
X147677083Y-100150000D01*
X147581845Y-100245238D01*
X147534226Y-100340476D01*
X147486607Y-100530952D01*
X147486607Y-100673809D01*
X147534226Y-100864285D01*
X147581845Y-100959523D01*
X147677083Y-101054761D01*
X147819940Y-101102380D01*
X148058035Y-101102380D01*
X147105654Y-100197619D02*
X147058035Y-100150000D01*
X146962797Y-100102380D01*
X146724702Y-100102380D01*
X146629464Y-100150000D01*
X146581845Y-100197619D01*
X146534226Y-100292857D01*
X146534226Y-100388095D01*
X146581845Y-100530952D01*
X147153273Y-101102380D01*
X146534226Y-101102380D01*
X146153273Y-100197619D02*
X146105654Y-100150000D01*
X146010416Y-100102380D01*
X145772321Y-100102380D01*
X145677083Y-100150000D01*
X145629464Y-100197619D01*
X145581845Y-100292857D01*
X145581845Y-100388095D01*
X145629464Y-100530952D01*
X146200892Y-101102380D01*
X145581845Y-101102380D01*
G04 #@! TO.C,D21*
X167108035Y-117102380D02*
X167108035Y-116102380D01*
X166869940Y-116102380D01*
X166727083Y-116150000D01*
X166631845Y-116245238D01*
X166584226Y-116340476D01*
X166536607Y-116530952D01*
X166536607Y-116673809D01*
X166584226Y-116864285D01*
X166631845Y-116959523D01*
X166727083Y-117054761D01*
X166869940Y-117102380D01*
X167108035Y-117102380D01*
X166155654Y-116197619D02*
X166108035Y-116150000D01*
X166012797Y-116102380D01*
X165774702Y-116102380D01*
X165679464Y-116150000D01*
X165631845Y-116197619D01*
X165584226Y-116292857D01*
X165584226Y-116388095D01*
X165631845Y-116530952D01*
X166203273Y-117102380D01*
X165584226Y-117102380D01*
X164631845Y-117102380D02*
X165203273Y-117102380D01*
X164917559Y-117102380D02*
X164917559Y-116102380D01*
X165012797Y-116245238D01*
X165108035Y-116340476D01*
X165203273Y-116388095D01*
G04 #@! TO.C,D20*
X179014285Y-117102380D02*
X179014285Y-116102380D01*
X178776190Y-116102380D01*
X178633333Y-116150000D01*
X178538095Y-116245238D01*
X178490476Y-116340476D01*
X178442857Y-116530952D01*
X178442857Y-116673809D01*
X178490476Y-116864285D01*
X178538095Y-116959523D01*
X178633333Y-117054761D01*
X178776190Y-117102380D01*
X179014285Y-117102380D01*
X178061904Y-116197619D02*
X178014285Y-116150000D01*
X177919047Y-116102380D01*
X177680952Y-116102380D01*
X177585714Y-116150000D01*
X177538095Y-116197619D01*
X177490476Y-116292857D01*
X177490476Y-116388095D01*
X177538095Y-116530952D01*
X178109523Y-117102380D01*
X177490476Y-117102380D01*
X176871428Y-116102380D02*
X176776190Y-116102380D01*
X176680952Y-116150000D01*
X176633333Y-116197619D01*
X176585714Y-116292857D01*
X176538095Y-116483333D01*
X176538095Y-116721428D01*
X176585714Y-116911904D01*
X176633333Y-117007142D01*
X176680952Y-117054761D01*
X176776190Y-117102380D01*
X176871428Y-117102380D01*
X176966666Y-117054761D01*
X177014285Y-117007142D01*
X177061904Y-116911904D01*
X177109523Y-116721428D01*
X177109523Y-116483333D01*
X177061904Y-116292857D01*
X177014285Y-116197619D01*
X176966666Y-116150000D01*
X176871428Y-116102380D01*
G04 #@! TO.C,D15*
X90908035Y-79027380D02*
X90908035Y-78027380D01*
X90669940Y-78027380D01*
X90527083Y-78075000D01*
X90431845Y-78170238D01*
X90384226Y-78265476D01*
X90336607Y-78455952D01*
X90336607Y-78598809D01*
X90384226Y-78789285D01*
X90431845Y-78884523D01*
X90527083Y-78979761D01*
X90669940Y-79027380D01*
X90908035Y-79027380D01*
X89384226Y-79027380D02*
X89955654Y-79027380D01*
X89669940Y-79027380D02*
X89669940Y-78027380D01*
X89765178Y-78170238D01*
X89860416Y-78265476D01*
X89955654Y-78313095D01*
X88479464Y-78027380D02*
X88955654Y-78027380D01*
X89003273Y-78503571D01*
X88955654Y-78455952D01*
X88860416Y-78408333D01*
X88622321Y-78408333D01*
X88527083Y-78455952D01*
X88479464Y-78503571D01*
X88431845Y-78598809D01*
X88431845Y-78836904D01*
X88479464Y-78932142D01*
X88527083Y-78979761D01*
X88622321Y-79027380D01*
X88860416Y-79027380D01*
X88955654Y-78979761D01*
X89003273Y-78932142D01*
G04 #@! TO.C,D14*
X109958035Y-78727380D02*
X109958035Y-77727380D01*
X109719940Y-77727380D01*
X109577083Y-77775000D01*
X109481845Y-77870238D01*
X109434226Y-77965476D01*
X109386607Y-78155952D01*
X109386607Y-78298809D01*
X109434226Y-78489285D01*
X109481845Y-78584523D01*
X109577083Y-78679761D01*
X109719940Y-78727380D01*
X109958035Y-78727380D01*
X108434226Y-78727380D02*
X109005654Y-78727380D01*
X108719940Y-78727380D02*
X108719940Y-77727380D01*
X108815178Y-77870238D01*
X108910416Y-77965476D01*
X109005654Y-78013095D01*
X107577083Y-78060714D02*
X107577083Y-78727380D01*
X107815178Y-77679761D02*
X108053273Y-78394047D01*
X107434226Y-78394047D01*
G04 #@! TO.C,D13*
X129008035Y-74683630D02*
X129008035Y-73683630D01*
X128769940Y-73683630D01*
X128627083Y-73731250D01*
X128531845Y-73826488D01*
X128484226Y-73921726D01*
X128436607Y-74112202D01*
X128436607Y-74255059D01*
X128484226Y-74445535D01*
X128531845Y-74540773D01*
X128627083Y-74636011D01*
X128769940Y-74683630D01*
X129008035Y-74683630D01*
X127484226Y-74683630D02*
X128055654Y-74683630D01*
X127769940Y-74683630D02*
X127769940Y-73683630D01*
X127865178Y-73826488D01*
X127960416Y-73921726D01*
X128055654Y-73969345D01*
X127150892Y-73683630D02*
X126531845Y-73683630D01*
X126865178Y-74064583D01*
X126722321Y-74064583D01*
X126627083Y-74112202D01*
X126579464Y-74159821D01*
X126531845Y-74255059D01*
X126531845Y-74493154D01*
X126579464Y-74588392D01*
X126627083Y-74636011D01*
X126722321Y-74683630D01*
X127008035Y-74683630D01*
X127103273Y-74636011D01*
X127150892Y-74588392D01*
G04 #@! TO.C,D12*
X148058035Y-81258630D02*
X148058035Y-80258630D01*
X147819940Y-80258630D01*
X147677083Y-80306250D01*
X147581845Y-80401488D01*
X147534226Y-80496726D01*
X147486607Y-80687202D01*
X147486607Y-80830059D01*
X147534226Y-81020535D01*
X147581845Y-81115773D01*
X147677083Y-81211011D01*
X147819940Y-81258630D01*
X148058035Y-81258630D01*
X146534226Y-81258630D02*
X147105654Y-81258630D01*
X146819940Y-81258630D02*
X146819940Y-80258630D01*
X146915178Y-80401488D01*
X147010416Y-80496726D01*
X147105654Y-80544345D01*
X146153273Y-80353869D02*
X146105654Y-80306250D01*
X146010416Y-80258630D01*
X145772321Y-80258630D01*
X145677083Y-80306250D01*
X145629464Y-80353869D01*
X145581845Y-80449107D01*
X145581845Y-80544345D01*
X145629464Y-80687202D01*
X146200892Y-81258630D01*
X145581845Y-81258630D01*
G04 #@! TO.C,D11*
X167108035Y-98052380D02*
X167108035Y-97052380D01*
X166869940Y-97052380D01*
X166727083Y-97100000D01*
X166631845Y-97195238D01*
X166584226Y-97290476D01*
X166536607Y-97480952D01*
X166536607Y-97623809D01*
X166584226Y-97814285D01*
X166631845Y-97909523D01*
X166727083Y-98004761D01*
X166869940Y-98052380D01*
X167108035Y-98052380D01*
X165584226Y-98052380D02*
X166155654Y-98052380D01*
X165869940Y-98052380D02*
X165869940Y-97052380D01*
X165965178Y-97195238D01*
X166060416Y-97290476D01*
X166155654Y-97338095D01*
X164631845Y-98052380D02*
X165203273Y-98052380D01*
X164917559Y-98052380D02*
X164917559Y-97052380D01*
X165012797Y-97195238D01*
X165108035Y-97290476D01*
X165203273Y-97338095D01*
G04 #@! TO.C,D10*
X179014285Y-98052380D02*
X179014285Y-97052380D01*
X178776190Y-97052380D01*
X178633333Y-97100000D01*
X178538095Y-97195238D01*
X178490476Y-97290476D01*
X178442857Y-97480952D01*
X178442857Y-97623809D01*
X178490476Y-97814285D01*
X178538095Y-97909523D01*
X178633333Y-98004761D01*
X178776190Y-98052380D01*
X179014285Y-98052380D01*
X177490476Y-98052380D02*
X178061904Y-98052380D01*
X177776190Y-98052380D02*
X177776190Y-97052380D01*
X177871428Y-97195238D01*
X177966666Y-97290476D01*
X178061904Y-97338095D01*
X176871428Y-97052380D02*
X176776190Y-97052380D01*
X176680952Y-97100000D01*
X176633333Y-97147619D01*
X176585714Y-97242857D01*
X176538095Y-97433333D01*
X176538095Y-97671428D01*
X176585714Y-97861904D01*
X176633333Y-97957142D01*
X176680952Y-98004761D01*
X176776190Y-98052380D01*
X176871428Y-98052380D01*
X176966666Y-98004761D01*
X177014285Y-97957142D01*
X177061904Y-97861904D01*
X177109523Y-97671428D01*
X177109523Y-97433333D01*
X177061904Y-97242857D01*
X177014285Y-97147619D01*
X176966666Y-97100000D01*
X176871428Y-97052380D01*
G04 #@! TO.C,D5*
X90431845Y-51664880D02*
X90431845Y-50664880D01*
X90193750Y-50664880D01*
X90050892Y-50712500D01*
X89955654Y-50807738D01*
X89908035Y-50902976D01*
X89860416Y-51093452D01*
X89860416Y-51236309D01*
X89908035Y-51426785D01*
X89955654Y-51522023D01*
X90050892Y-51617261D01*
X90193750Y-51664880D01*
X90431845Y-51664880D01*
X88955654Y-50664880D02*
X89431845Y-50664880D01*
X89479464Y-51141071D01*
X89431845Y-51093452D01*
X89336607Y-51045833D01*
X89098511Y-51045833D01*
X89003273Y-51093452D01*
X88955654Y-51141071D01*
X88908035Y-51236309D01*
X88908035Y-51474404D01*
X88955654Y-51569642D01*
X89003273Y-51617261D01*
X89098511Y-51664880D01*
X89336607Y-51664880D01*
X89431845Y-51617261D01*
X89479464Y-51569642D01*
G04 #@! TO.C,D4*
X109481845Y-51664880D02*
X109481845Y-50664880D01*
X109243750Y-50664880D01*
X109100892Y-50712500D01*
X109005654Y-50807738D01*
X108958035Y-50902976D01*
X108910416Y-51093452D01*
X108910416Y-51236309D01*
X108958035Y-51426785D01*
X109005654Y-51522023D01*
X109100892Y-51617261D01*
X109243750Y-51664880D01*
X109481845Y-51664880D01*
X108053273Y-50998214D02*
X108053273Y-51664880D01*
X108291369Y-50617261D02*
X108529464Y-51331547D01*
X107910416Y-51331547D01*
G04 #@! TO.C,D3*
X128531845Y-51664880D02*
X128531845Y-50664880D01*
X128293750Y-50664880D01*
X128150892Y-50712500D01*
X128055654Y-50807738D01*
X128008035Y-50902976D01*
X127960416Y-51093452D01*
X127960416Y-51236309D01*
X128008035Y-51426785D01*
X128055654Y-51522023D01*
X128150892Y-51617261D01*
X128293750Y-51664880D01*
X128531845Y-51664880D01*
X127627083Y-50664880D02*
X127008035Y-50664880D01*
X127341369Y-51045833D01*
X127198511Y-51045833D01*
X127103273Y-51093452D01*
X127055654Y-51141071D01*
X127008035Y-51236309D01*
X127008035Y-51474404D01*
X127055654Y-51569642D01*
X127103273Y-51617261D01*
X127198511Y-51664880D01*
X127484226Y-51664880D01*
X127579464Y-51617261D01*
X127627083Y-51569642D01*
G04 #@! TO.C,D2*
X147581845Y-51664880D02*
X147581845Y-50664880D01*
X147343750Y-50664880D01*
X147200892Y-50712500D01*
X147105654Y-50807738D01*
X147058035Y-50902976D01*
X147010416Y-51093452D01*
X147010416Y-51236309D01*
X147058035Y-51426785D01*
X147105654Y-51522023D01*
X147200892Y-51617261D01*
X147343750Y-51664880D01*
X147581845Y-51664880D01*
X146629464Y-50760119D02*
X146581845Y-50712500D01*
X146486607Y-50664880D01*
X146248511Y-50664880D01*
X146153273Y-50712500D01*
X146105654Y-50760119D01*
X146058035Y-50855357D01*
X146058035Y-50950595D01*
X146105654Y-51093452D01*
X146677083Y-51664880D01*
X146058035Y-51664880D01*
G04 #@! TD*
M02*
