M48
; DRILL file {KiCad 5.1.10} date Wed Mar  9 15:20:49 2022
; FORMAT={-:-/ absolute / inch / decimal}
; #@! TF.CreationDate,2022-03-09T15:20:49-05:00
; #@! TF.GenerationSoftware,Kicad,Pcbnew,5.1.10
; #@! TF.FileFunction,NonPlated,1,2,NPTH
FMAT,2
INCH
T1C0.0472
T2C0.0689
T3C0.1570
%
G90
G05
T1
X2.0625Y-1.1841
X2.0625Y-1.4596
X2.2961Y-3.0266
T2
X2.3632Y-6.4353
X2.7096Y-6.2353
X3.0127Y-6.0603
X3.3Y-1.625
X3.3Y-2.7023
X3.3Y-3.4523
X3.3Y-4.2023
X3.3591Y-5.8603
X3.7Y-1.625
X3.7Y-2.7023
X3.7Y-3.4523
X3.7Y-4.2023
X4.05Y-1.625
X4.05Y-2.6905
X4.05Y-3.4405
X4.05Y-4.1905
X4.05Y-5.7188
X4.45Y-1.625
X4.45Y-2.6905
X4.45Y-3.4405
X4.45Y-4.1905
X4.45Y-5.7188
X4.8Y-1.625
X4.8Y-2.5625
X4.8Y-3.3125
X4.8Y-4.0625
X4.8Y-4.9688
X4.8Y-5.7188
X5.2Y-1.625
X5.2Y-2.5625
X5.2Y-3.3125
X5.2Y-4.0625
X5.2Y-4.9688
X5.2Y-5.7188
X5.55Y-1.625
X5.55Y-2.8214
X5.55Y-3.5714
X5.55Y-4.3214
X5.55Y-5.7188
X5.95Y-1.625
X5.95Y-2.8214
X5.95Y-3.5714
X5.95Y-4.3214
X5.95Y-5.7188
X6.3Y-3.4513
X6.3Y-4.2013
X6.3Y-4.9513
X6.7Y-3.4513
X6.7Y-4.2013
X6.7Y-4.9513
X7.05Y-3.4513
X7.05Y-4.2013
X7.05Y-4.9513
X7.2375Y-3.4513
X7.2375Y-4.2013
X7.2375Y-4.9513
X7.45Y-3.4513
X7.45Y-4.2013
X7.45Y-4.9513
X7.6375Y-3.4513
X7.6375Y-4.2013
X7.6375Y-4.9513
T3
X2.5364Y-6.3353
X3.1859Y-5.9603
X3.5Y-1.625
X3.5Y-2.7023
X3.5Y-3.4523
X3.5Y-4.2023
X4.25Y-1.625
X4.25Y-2.6905
X4.25Y-3.4405
X4.25Y-4.1905
X4.25Y-5.7188
X5.0Y-1.625
X5.0Y-2.5625
X5.0Y-3.3125
X5.0Y-4.0625
X5.0Y-4.9688
X5.0Y-5.7188
X5.75Y-1.625
X5.75Y-2.8214
X5.75Y-3.5714
X5.75Y-4.3214
X5.75Y-5.7188
X6.5Y-3.4513
X6.5Y-4.2013
X6.5Y-4.9513
X7.25Y-3.4513
X7.25Y-4.2013
X7.25Y-4.9513
X7.4375Y-3.4513
X7.4375Y-4.2013
X7.4375Y-4.9513
T0
M30
