G04 #@! TF.GenerationSoftware,KiCad,Pcbnew,5.1.10*
G04 #@! TF.CreationDate,2022-03-09T15:20:40-05:00*
G04 #@! TF.ProjectId,bourbondox2_right,626f7572-626f-46e6-946f-78325f726967,rev?*
G04 #@! TF.SameCoordinates,Original*
G04 #@! TF.FileFunction,Soldermask,Bot*
G04 #@! TF.FilePolarity,Negative*
%FSLAX46Y46*%
G04 Gerber Fmt 4.6, Leading zero omitted, Abs format (unit mm)*
G04 Created by KiCad (PCBNEW 5.1.10) date 2022-03-09 15:20:40*
%MOMM*%
%LPD*%
G01*
G04 APERTURE LIST*
%ADD10C,1.752600*%
%ADD11R,1.752600X1.752600*%
%ADD12C,1.200000*%
%ADD13C,2.100000*%
%ADD14C,1.750000*%
%ADD15C,1.397000*%
%ADD16C,2.250000*%
%ADD17C,3.987800*%
%ADD18O,1.700000X2.500000*%
%ADD19R,1.200000X0.900000*%
%ADD20R,0.900000X1.200000*%
G04 APERTURE END LIST*
D10*
G04 #@! TO.C,U1*
X74295000Y-32067500D03*
X59055000Y-60007500D03*
X74295000Y-34607500D03*
X74295000Y-37147500D03*
X74295000Y-39687500D03*
X74295000Y-42227500D03*
X74295000Y-44767500D03*
X74295000Y-47307500D03*
X74295000Y-49847500D03*
X74295000Y-52387500D03*
X74295000Y-54927500D03*
X74295000Y-57467500D03*
X74295000Y-60007500D03*
X59055000Y-57467500D03*
X59055000Y-54927500D03*
X59055000Y-52387500D03*
X59055000Y-49847500D03*
X59055000Y-47307500D03*
X59055000Y-44767500D03*
X59055000Y-42227500D03*
X59055000Y-39687500D03*
X59055000Y-37147500D03*
X59055000Y-34607500D03*
D11*
X59055000Y-32067500D03*
G04 #@! TD*
D12*
G04 #@! TO.C,SW1*
X58321250Y-76875000D03*
D13*
X62021250Y-80375000D03*
D14*
X59531250Y-79375000D03*
X59531250Y-74375000D03*
D13*
X62021250Y-73365000D03*
G04 #@! TD*
D15*
G04 #@! TO.C,R2*
X73624240Y-78378499D03*
X73624240Y-73298499D03*
G04 #@! TD*
G04 #@! TO.C,R1*
X69850000Y-78378499D03*
X69850000Y-73298499D03*
G04 #@! TD*
G04 #@! TO.C,OL1*
X71120000Y-66675000D03*
X68580000Y-66675000D03*
X66040000Y-66675000D03*
X63500000Y-66675000D03*
G04 #@! TD*
D16*
G04 #@! TO.C,MX30_2*
X186372500Y-130842500D03*
D17*
X188912500Y-125762500D03*
D16*
X192722500Y-128302500D03*
D14*
X193992500Y-125762500D03*
X183832500Y-125762500D03*
G04 #@! TD*
D16*
G04 #@! TO.C,MX20_2*
X186372500Y-111792500D03*
D17*
X188912500Y-106712500D03*
D16*
X192722500Y-109252500D03*
D14*
X193992500Y-106712500D03*
X183832500Y-106712500D03*
G04 #@! TD*
D16*
G04 #@! TO.C,MX10_2*
X186372500Y-92742500D03*
D17*
X188912500Y-87662500D03*
D16*
X192722500Y-90202500D03*
D14*
X193992500Y-87662500D03*
X183832500Y-87662500D03*
G04 #@! TD*
G04 #@! TO.C,MX45*
X68824267Y-158376250D03*
X60025449Y-163456250D03*
D16*
X59855301Y-160621545D03*
D17*
X64424858Y-160916250D03*
D16*
X64084563Y-155246841D03*
G04 #@! TD*
D14*
G04 #@! TO.C,MX44*
X85322051Y-148851250D03*
X76523233Y-153931250D03*
D16*
X76353085Y-151096545D03*
D17*
X80922642Y-151391250D03*
D16*
X80582347Y-145721841D03*
G04 #@! TD*
G04 #@! TO.C,MX43*
X110490000Y-140176250D03*
D17*
X107950000Y-145256250D03*
D16*
X104140000Y-142716250D03*
D14*
X102870000Y-145256250D03*
X113030000Y-145256250D03*
G04 #@! TD*
D16*
G04 #@! TO.C,MX42*
X129540000Y-140176250D03*
D17*
X127000000Y-145256250D03*
D16*
X123190000Y-142716250D03*
D14*
X121920000Y-145256250D03*
X132080000Y-145256250D03*
G04 #@! TD*
D16*
G04 #@! TO.C,MX41*
X129540000Y-121126250D03*
D17*
X127000000Y-126206250D03*
D16*
X123190000Y-123666250D03*
D14*
X121920000Y-126206250D03*
X132080000Y-126206250D03*
G04 #@! TD*
D16*
G04 #@! TO.C,MX40*
X148590000Y-140176250D03*
D17*
X146050000Y-145256250D03*
D16*
X142240000Y-142716250D03*
D14*
X140970000Y-145256250D03*
X151130000Y-145256250D03*
G04 #@! TD*
D16*
G04 #@! TO.C,MX35*
X91440000Y-101657500D03*
D17*
X88900000Y-106737500D03*
D16*
X85090000Y-104197500D03*
D14*
X83820000Y-106737500D03*
X93980000Y-106737500D03*
G04 #@! TD*
D16*
G04 #@! TO.C,MX34*
X110490000Y-101357500D03*
D17*
X107950000Y-106437500D03*
D16*
X104140000Y-103897500D03*
D14*
X102870000Y-106437500D03*
X113030000Y-106437500D03*
G04 #@! TD*
D16*
G04 #@! TO.C,MX33*
X129540000Y-98107500D03*
D17*
X127000000Y-103187500D03*
D16*
X123190000Y-100647500D03*
D14*
X121920000Y-103187500D03*
X132080000Y-103187500D03*
G04 #@! TD*
D16*
G04 #@! TO.C,MX32*
X148590000Y-104682500D03*
D17*
X146050000Y-109762500D03*
D16*
X142240000Y-107222500D03*
D14*
X140970000Y-109762500D03*
X151130000Y-109762500D03*
G04 #@! TD*
D16*
G04 #@! TO.C,MX31*
X167640000Y-120682500D03*
D17*
X165100000Y-125762500D03*
D16*
X161290000Y-123222500D03*
D14*
X160020000Y-125762500D03*
X170180000Y-125762500D03*
G04 #@! TD*
D16*
G04 #@! TO.C,MX30*
X186690000Y-120682500D03*
D17*
X184150000Y-125762500D03*
D16*
X180340000Y-123222500D03*
D14*
X179070000Y-125762500D03*
X189230000Y-125762500D03*
G04 #@! TD*
D16*
G04 #@! TO.C,MX25*
X91440000Y-82607500D03*
D17*
X88900000Y-87687500D03*
D16*
X85090000Y-85147500D03*
D14*
X83820000Y-87687500D03*
X93980000Y-87687500D03*
G04 #@! TD*
D16*
G04 #@! TO.C,MX24*
X110490000Y-82307500D03*
D17*
X107950000Y-87387500D03*
D16*
X104140000Y-84847500D03*
D14*
X102870000Y-87387500D03*
X113030000Y-87387500D03*
G04 #@! TD*
D16*
G04 #@! TO.C,MX23*
X129540000Y-79057500D03*
D17*
X127000000Y-84137500D03*
D16*
X123190000Y-81597500D03*
D14*
X121920000Y-84137500D03*
X132080000Y-84137500D03*
G04 #@! TD*
D16*
G04 #@! TO.C,MX22*
X148590000Y-85632500D03*
D17*
X146050000Y-90712500D03*
D16*
X142240000Y-88172500D03*
D14*
X140970000Y-90712500D03*
X151130000Y-90712500D03*
G04 #@! TD*
D16*
G04 #@! TO.C,MX21*
X167640000Y-101632500D03*
D17*
X165100000Y-106712500D03*
D16*
X161290000Y-104172500D03*
D14*
X160020000Y-106712500D03*
X170180000Y-106712500D03*
G04 #@! TD*
D16*
G04 #@! TO.C,MX20*
X186690000Y-101632500D03*
D17*
X184150000Y-106712500D03*
D16*
X180340000Y-104172500D03*
D14*
X179070000Y-106712500D03*
X189230000Y-106712500D03*
G04 #@! TD*
D16*
G04 #@! TO.C,MX15*
X91440000Y-63557500D03*
D17*
X88900000Y-68637500D03*
D16*
X85090000Y-66097500D03*
D14*
X83820000Y-68637500D03*
X93980000Y-68637500D03*
G04 #@! TD*
D16*
G04 #@! TO.C,MX14*
X110490000Y-63257500D03*
D17*
X107950000Y-68337500D03*
D16*
X104140000Y-65797500D03*
D14*
X102870000Y-68337500D03*
X113030000Y-68337500D03*
G04 #@! TD*
D16*
G04 #@! TO.C,MX13*
X129540000Y-60007500D03*
D17*
X127000000Y-65087500D03*
D16*
X123190000Y-62547500D03*
D14*
X121920000Y-65087500D03*
X132080000Y-65087500D03*
G04 #@! TD*
D16*
G04 #@! TO.C,MX12*
X148590000Y-66582500D03*
D17*
X146050000Y-71662500D03*
D16*
X142240000Y-69122500D03*
D14*
X140970000Y-71662500D03*
X151130000Y-71662500D03*
G04 #@! TD*
D16*
G04 #@! TO.C,MX11*
X167640000Y-82582500D03*
D17*
X165100000Y-87662500D03*
D16*
X161290000Y-85122500D03*
D14*
X160020000Y-87662500D03*
X170180000Y-87662500D03*
G04 #@! TD*
D16*
G04 #@! TO.C,MX10*
X186690000Y-82582500D03*
D17*
X184150000Y-87662500D03*
D16*
X180340000Y-85122500D03*
D14*
X179070000Y-87662500D03*
X189230000Y-87662500D03*
G04 #@! TD*
D16*
G04 #@! TO.C,MX5*
X91440000Y-36195000D03*
D17*
X88900000Y-41275000D03*
D16*
X85090000Y-38735000D03*
D14*
X83820000Y-41275000D03*
X93980000Y-41275000D03*
G04 #@! TD*
D16*
G04 #@! TO.C,MX4*
X110490000Y-36195000D03*
D17*
X107950000Y-41275000D03*
D16*
X104140000Y-38735000D03*
D14*
X102870000Y-41275000D03*
X113030000Y-41275000D03*
G04 #@! TD*
D16*
G04 #@! TO.C,MX3*
X129540000Y-36195000D03*
D17*
X127000000Y-41275000D03*
D16*
X123190000Y-38735000D03*
D14*
X121920000Y-41275000D03*
X132080000Y-41275000D03*
G04 #@! TD*
D16*
G04 #@! TO.C,MX2*
X148590000Y-36195000D03*
D17*
X146050000Y-41275000D03*
D16*
X142240000Y-38735000D03*
D14*
X140970000Y-41275000D03*
X151130000Y-41275000D03*
G04 #@! TD*
D18*
G04 #@! TO.C,J1*
X50287500Y-40375000D03*
X54487500Y-38875000D03*
X54487500Y-34875000D03*
X54487500Y-31875000D03*
D12*
X52387500Y-37075000D03*
X52387500Y-30075000D03*
G04 #@! TD*
D19*
G04 #@! TO.C,D45*
X70643750Y-165037500D03*
X70643750Y-168337500D03*
G04 #@! TD*
G04 #@! TO.C,D44*
X88900000Y-157893750D03*
X88900000Y-161193750D03*
G04 #@! TD*
D20*
G04 #@! TO.C,D43*
X110393750Y-152400000D03*
X107093750Y-152400000D03*
G04 #@! TD*
G04 #@! TO.C,D42*
X129443750Y-153193750D03*
X126143750Y-153193750D03*
G04 #@! TD*
G04 #@! TO.C,D41*
X129443750Y-134143750D03*
X126143750Y-134143750D03*
G04 #@! TD*
G04 #@! TO.C,D40*
X148493750Y-153193750D03*
X145193750Y-153193750D03*
G04 #@! TD*
G04 #@! TO.C,D35*
X91343750Y-114675000D03*
X88043750Y-114675000D03*
G04 #@! TD*
G04 #@! TO.C,D34*
X110393750Y-114375000D03*
X107093750Y-114375000D03*
G04 #@! TD*
G04 #@! TO.C,D33*
X129443750Y-111125000D03*
X126143750Y-111125000D03*
G04 #@! TD*
G04 #@! TO.C,D32*
X148493750Y-117700000D03*
X145193750Y-117700000D03*
G04 #@! TD*
G04 #@! TO.C,D31*
X167543750Y-133700000D03*
X164243750Y-133700000D03*
G04 #@! TD*
G04 #@! TO.C,D30*
X179450000Y-133700000D03*
X176150000Y-133700000D03*
G04 #@! TD*
G04 #@! TO.C,D25*
X91343750Y-95625000D03*
X88043750Y-95625000D03*
G04 #@! TD*
G04 #@! TO.C,D24*
X110393750Y-95325000D03*
X107093750Y-95325000D03*
G04 #@! TD*
G04 #@! TO.C,D23*
X129443750Y-92075000D03*
X126143750Y-92075000D03*
G04 #@! TD*
G04 #@! TO.C,D22*
X148493750Y-98650000D03*
X145193750Y-98650000D03*
G04 #@! TD*
G04 #@! TO.C,D21*
X167543750Y-114650000D03*
X164243750Y-114650000D03*
G04 #@! TD*
G04 #@! TO.C,D20*
X179450000Y-114650000D03*
X176150000Y-114650000D03*
G04 #@! TD*
G04 #@! TO.C,D15*
X91343750Y-76575000D03*
X88043750Y-76575000D03*
G04 #@! TD*
G04 #@! TO.C,D14*
X110393750Y-76275000D03*
X107093750Y-76275000D03*
G04 #@! TD*
G04 #@! TO.C,D13*
X129443750Y-72231250D03*
X126143750Y-72231250D03*
G04 #@! TD*
G04 #@! TO.C,D12*
X148493750Y-78806250D03*
X145193750Y-78806250D03*
G04 #@! TD*
G04 #@! TO.C,D11*
X167543750Y-95600000D03*
X164243750Y-95600000D03*
G04 #@! TD*
G04 #@! TO.C,D10*
X179450000Y-95600000D03*
X176150000Y-95600000D03*
G04 #@! TD*
G04 #@! TO.C,D5*
X91343750Y-49212500D03*
X88043750Y-49212500D03*
G04 #@! TD*
G04 #@! TO.C,D4*
X110393750Y-49212500D03*
X107093750Y-49212500D03*
G04 #@! TD*
G04 #@! TO.C,D3*
X129443750Y-49212500D03*
X126143750Y-49212500D03*
G04 #@! TD*
G04 #@! TO.C,D2*
X148493750Y-49212500D03*
X145193750Y-49212500D03*
G04 #@! TD*
M02*
