G04 #@! TF.GenerationSoftware,KiCad,Pcbnew,5.1.10*
G04 #@! TF.CreationDate,2022-03-09T15:21:35-05:00*
G04 #@! TF.ProjectId,bourbondox2_left,626f7572-626f-46e6-946f-78325f6c6566,rev?*
G04 #@! TF.SameCoordinates,Original*
G04 #@! TF.FileFunction,Legend,Top*
G04 #@! TF.FilePolarity,Positive*
%FSLAX46Y46*%
G04 Gerber Fmt 4.6, Leading zero omitted, Abs format (unit mm)*
G04 Created by KiCad (PCBNEW 5.1.10) date 2022-03-09 15:21:35*
%MOMM*%
%LPD*%
G01*
G04 APERTURE LIST*
%ADD10C,0.150000*%
%ADD11C,0.381000*%
%ADD12C,0.120000*%
G04 APERTURE END LIST*
D10*
X194263095Y-119753571D02*
X194405952Y-119801190D01*
X194453571Y-119848809D01*
X194501190Y-119944047D01*
X194501190Y-120086904D01*
X194453571Y-120182142D01*
X194405952Y-120229761D01*
X194310714Y-120277380D01*
X193929761Y-120277380D01*
X193929761Y-119277380D01*
X194263095Y-119277380D01*
X194358333Y-119325000D01*
X194405952Y-119372619D01*
X194453571Y-119467857D01*
X194453571Y-119563095D01*
X194405952Y-119658333D01*
X194358333Y-119705952D01*
X194263095Y-119753571D01*
X193929761Y-119753571D01*
X195072619Y-120277380D02*
X194977380Y-120229761D01*
X194929761Y-120182142D01*
X194882142Y-120086904D01*
X194882142Y-119801190D01*
X194929761Y-119705952D01*
X194977380Y-119658333D01*
X195072619Y-119610714D01*
X195215476Y-119610714D01*
X195310714Y-119658333D01*
X195358333Y-119705952D01*
X195405952Y-119801190D01*
X195405952Y-120086904D01*
X195358333Y-120182142D01*
X195310714Y-120229761D01*
X195215476Y-120277380D01*
X195072619Y-120277380D01*
X196263095Y-119610714D02*
X196263095Y-120277380D01*
X195834523Y-119610714D02*
X195834523Y-120134523D01*
X195882142Y-120229761D01*
X195977380Y-120277380D01*
X196120238Y-120277380D01*
X196215476Y-120229761D01*
X196263095Y-120182142D01*
X196739285Y-120277380D02*
X196739285Y-119610714D01*
X196739285Y-119801190D02*
X196786904Y-119705952D01*
X196834523Y-119658333D01*
X196929761Y-119610714D01*
X197025000Y-119610714D01*
X197358333Y-120277380D02*
X197358333Y-119277380D01*
X197358333Y-119658333D02*
X197453571Y-119610714D01*
X197644047Y-119610714D01*
X197739285Y-119658333D01*
X197786904Y-119705952D01*
X197834523Y-119801190D01*
X197834523Y-120086904D01*
X197786904Y-120182142D01*
X197739285Y-120229761D01*
X197644047Y-120277380D01*
X197453571Y-120277380D01*
X197358333Y-120229761D01*
X198405952Y-120277380D02*
X198310714Y-120229761D01*
X198263095Y-120182142D01*
X198215476Y-120086904D01*
X198215476Y-119801190D01*
X198263095Y-119705952D01*
X198310714Y-119658333D01*
X198405952Y-119610714D01*
X198548809Y-119610714D01*
X198644047Y-119658333D01*
X198691666Y-119705952D01*
X198739285Y-119801190D01*
X198739285Y-120086904D01*
X198691666Y-120182142D01*
X198644047Y-120229761D01*
X198548809Y-120277380D01*
X198405952Y-120277380D01*
X199167857Y-119610714D02*
X199167857Y-120277380D01*
X199167857Y-119705952D02*
X199215476Y-119658333D01*
X199310714Y-119610714D01*
X199453571Y-119610714D01*
X199548809Y-119658333D01*
X199596428Y-119753571D01*
X199596428Y-120277380D01*
X200501190Y-120277380D02*
X200501190Y-119277380D01*
X200501190Y-120229761D02*
X200405952Y-120277380D01*
X200215476Y-120277380D01*
X200120238Y-120229761D01*
X200072619Y-120182142D01*
X200025000Y-120086904D01*
X200025000Y-119801190D01*
X200072619Y-119705952D01*
X200120238Y-119658333D01*
X200215476Y-119610714D01*
X200405952Y-119610714D01*
X200501190Y-119658333D01*
X201120238Y-120277380D02*
X201025000Y-120229761D01*
X200977380Y-120182142D01*
X200929761Y-120086904D01*
X200929761Y-119801190D01*
X200977380Y-119705952D01*
X201025000Y-119658333D01*
X201120238Y-119610714D01*
X201263095Y-119610714D01*
X201358333Y-119658333D01*
X201405952Y-119705952D01*
X201453571Y-119801190D01*
X201453571Y-120086904D01*
X201405952Y-120182142D01*
X201358333Y-120229761D01*
X201263095Y-120277380D01*
X201120238Y-120277380D01*
X201786904Y-120277380D02*
X202310714Y-119610714D01*
X201786904Y-119610714D02*
X202310714Y-120277380D01*
X203358333Y-119610714D02*
X203596428Y-120277380D01*
X203834523Y-119610714D01*
X204167857Y-119372619D02*
X204215476Y-119325000D01*
X204310714Y-119277380D01*
X204548809Y-119277380D01*
X204644047Y-119325000D01*
X204691666Y-119372619D01*
X204739285Y-119467857D01*
X204739285Y-119563095D01*
X204691666Y-119705952D01*
X204120238Y-120277380D01*
X204739285Y-120277380D01*
X205167857Y-120182142D02*
X205215476Y-120229761D01*
X205167857Y-120277380D01*
X205120238Y-120229761D01*
X205167857Y-120182142D01*
X205167857Y-120277380D01*
X205834523Y-119277380D02*
X205929761Y-119277380D01*
X206025000Y-119325000D01*
X206072619Y-119372619D01*
X206120238Y-119467857D01*
X206167857Y-119658333D01*
X206167857Y-119896428D01*
X206120238Y-120086904D01*
X206072619Y-120182142D01*
X206025000Y-120229761D01*
X205929761Y-120277380D01*
X205834523Y-120277380D01*
X205739285Y-120229761D01*
X205691666Y-120182142D01*
X205644047Y-120086904D01*
X205596428Y-119896428D01*
X205596428Y-119658333D01*
X205644047Y-119467857D01*
X205691666Y-119372619D01*
X205739285Y-119325000D01*
X205834523Y-119277380D01*
X197025000Y-121927380D02*
X196548809Y-121927380D01*
X196548809Y-120927380D01*
X197358333Y-121403571D02*
X197691666Y-121403571D01*
X197834523Y-121927380D02*
X197358333Y-121927380D01*
X197358333Y-120927380D01*
X197834523Y-120927380D01*
X198596428Y-121403571D02*
X198263095Y-121403571D01*
X198263095Y-121927380D02*
X198263095Y-120927380D01*
X198739285Y-120927380D01*
X198977380Y-120927380D02*
X199548809Y-120927380D01*
X199263095Y-121927380D02*
X199263095Y-120927380D01*
X200596428Y-121879761D02*
X200739285Y-121927380D01*
X200977380Y-121927380D01*
X201072619Y-121879761D01*
X201120238Y-121832142D01*
X201167857Y-121736904D01*
X201167857Y-121641666D01*
X201120238Y-121546428D01*
X201072619Y-121498809D01*
X200977380Y-121451190D01*
X200786904Y-121403571D01*
X200691666Y-121355952D01*
X200644047Y-121308333D01*
X200596428Y-121213095D01*
X200596428Y-121117857D01*
X200644047Y-121022619D01*
X200691666Y-120975000D01*
X200786904Y-120927380D01*
X201025000Y-120927380D01*
X201167857Y-120975000D01*
X201596428Y-121927380D02*
X201596428Y-120927380D01*
X202072619Y-121927380D02*
X202072619Y-120927380D01*
X202310714Y-120927380D01*
X202453571Y-120975000D01*
X202548809Y-121070238D01*
X202596428Y-121165476D01*
X202644047Y-121355952D01*
X202644047Y-121498809D01*
X202596428Y-121689285D01*
X202548809Y-121784523D01*
X202453571Y-121879761D01*
X202310714Y-121927380D01*
X202072619Y-121927380D01*
X203072619Y-121403571D02*
X203405952Y-121403571D01*
X203548809Y-121927380D02*
X203072619Y-121927380D01*
X203072619Y-120927380D01*
X203548809Y-120927380D01*
D11*
G04 #@! TO.C,U1*
X223440000Y-21272500D02*
X220900000Y-21272500D01*
X220900000Y-18732500D02*
X220900000Y-21272500D01*
X238680000Y-18732500D02*
X220900000Y-18732500D01*
X238680000Y-21272500D02*
X238680000Y-18732500D01*
D10*
G36*
X234721568Y-27751860D02*
G01*
X234721568Y-27951860D01*
X234621568Y-27951860D01*
X234621568Y-27751860D01*
X234721568Y-27751860D01*
G37*
X234721568Y-27751860D02*
X234721568Y-27951860D01*
X234621568Y-27951860D01*
X234621568Y-27751860D01*
X234721568Y-27751860D01*
G36*
X234321568Y-27151860D02*
G01*
X234321568Y-27951860D01*
X234221568Y-27951860D01*
X234221568Y-27151860D01*
X234321568Y-27151860D01*
G37*
X234321568Y-27151860D02*
X234321568Y-27951860D01*
X234221568Y-27951860D01*
X234221568Y-27151860D01*
X234321568Y-27151860D01*
G36*
X234721568Y-27151860D02*
G01*
X234721568Y-27251860D01*
X234221568Y-27251860D01*
X234221568Y-27151860D01*
X234721568Y-27151860D01*
G37*
X234721568Y-27151860D02*
X234721568Y-27251860D01*
X234221568Y-27251860D01*
X234221568Y-27151860D01*
X234721568Y-27151860D01*
G36*
X234521568Y-27551860D02*
G01*
X234521568Y-27651860D01*
X234421568Y-27651860D01*
X234421568Y-27551860D01*
X234521568Y-27551860D01*
G37*
X234521568Y-27551860D02*
X234521568Y-27651860D01*
X234421568Y-27651860D01*
X234421568Y-27551860D01*
X234521568Y-27551860D01*
G36*
X234721568Y-27151860D02*
G01*
X234721568Y-27451860D01*
X234621568Y-27451860D01*
X234621568Y-27151860D01*
X234721568Y-27151860D01*
G37*
X234721568Y-27151860D02*
X234721568Y-27451860D01*
X234621568Y-27451860D01*
X234621568Y-27151860D01*
X234721568Y-27151860D01*
D11*
X223440000Y-23812500D02*
X220900000Y-23812500D01*
X223440000Y-21272500D02*
X223440000Y-23812500D01*
X238680000Y-51752500D02*
X238680000Y-21272500D01*
X220900000Y-51752500D02*
X238680000Y-51752500D01*
X220900000Y-21272500D02*
X220900000Y-51752500D01*
D12*
G04 #@! TO.C,SW1*
X233186250Y-68268750D02*
X233186250Y-71668750D01*
X233186250Y-66628750D02*
X233186250Y-67168750D01*
X233186250Y-72768750D02*
X233186250Y-73308750D01*
X233186250Y-73308750D02*
X232956250Y-73308750D01*
X236856250Y-66108750D02*
X232956250Y-66108750D01*
X236856250Y-73828750D02*
X232956250Y-73828750D01*
X236856250Y-66108750D02*
X236856250Y-73828750D01*
X233186250Y-66628750D02*
X232956250Y-66628750D01*
D10*
G04 #@! TO.C,OL1*
X224948750Y-58420000D02*
X224948750Y-55880000D01*
X235108750Y-55880000D02*
X235108750Y-58420000D01*
X224948750Y-55880000D02*
X235108750Y-55880000D01*
X224948750Y-58420000D02*
X235108750Y-58420000D01*
G04 #@! TO.C,J1*
X240781250Y-30156250D02*
X240781250Y-18406250D01*
X246581250Y-30156250D02*
X240781250Y-30156250D01*
X246581250Y-18406250D02*
X246581250Y-30156250D01*
X240781250Y-18406250D02*
X246581250Y-18406250D01*
G04 #@! TO.C,U1*
X224027651Y-22104404D02*
X224484794Y-22104404D01*
X224256223Y-22904404D02*
X224256223Y-22104404D01*
X224675270Y-22104404D02*
X225208604Y-22904404D01*
X225208604Y-22104404D02*
X224675270Y-22904404D01*
X225665747Y-22104404D02*
X225741937Y-22104404D01*
X225818128Y-22142500D01*
X225856223Y-22180595D01*
X225894318Y-22256785D01*
X225932413Y-22409166D01*
X225932413Y-22599642D01*
X225894318Y-22752023D01*
X225856223Y-22828214D01*
X225818128Y-22866309D01*
X225741937Y-22904404D01*
X225665747Y-22904404D01*
X225589556Y-22866309D01*
X225551461Y-22828214D01*
X225513366Y-22752023D01*
X225475270Y-22599642D01*
X225475270Y-22409166D01*
X225513366Y-22256785D01*
X225551461Y-22180595D01*
X225589556Y-22142500D01*
X225665747Y-22104404D01*
X226846699Y-22066309D02*
X226160985Y-23094880D01*
X227113366Y-22904404D02*
X227113366Y-22104404D01*
X227303842Y-22104404D01*
X227418128Y-22142500D01*
X227494318Y-22218690D01*
X227532413Y-22294880D01*
X227570508Y-22447261D01*
X227570508Y-22561547D01*
X227532413Y-22713928D01*
X227494318Y-22790119D01*
X227418128Y-22866309D01*
X227303842Y-22904404D01*
X227113366Y-22904404D01*
X227837175Y-22104404D02*
X228332413Y-22104404D01*
X228065747Y-22409166D01*
X228180032Y-22409166D01*
X228256223Y-22447261D01*
X228294318Y-22485357D01*
X228332413Y-22561547D01*
X228332413Y-22752023D01*
X228294318Y-22828214D01*
X228256223Y-22866309D01*
X228180032Y-22904404D01*
X227951461Y-22904404D01*
X227875270Y-22866309D01*
X227837175Y-22828214D01*
X223738523Y-25444404D02*
X223738523Y-24644404D01*
X223929000Y-24644404D01*
X224043285Y-24682500D01*
X224119476Y-24758690D01*
X224157571Y-24834880D01*
X224195666Y-24987261D01*
X224195666Y-25101547D01*
X224157571Y-25253928D01*
X224119476Y-25330119D01*
X224043285Y-25406309D01*
X223929000Y-25444404D01*
X223738523Y-25444404D01*
X224500428Y-24720595D02*
X224538523Y-24682500D01*
X224614714Y-24644404D01*
X224805190Y-24644404D01*
X224881380Y-24682500D01*
X224919476Y-24720595D01*
X224957571Y-24796785D01*
X224957571Y-24872976D01*
X224919476Y-24987261D01*
X224462333Y-25444404D01*
X224957571Y-25444404D01*
X223738523Y-35604404D02*
X223738523Y-34804404D01*
X223929000Y-34804404D01*
X224043285Y-34842500D01*
X224119476Y-34918690D01*
X224157571Y-34994880D01*
X224195666Y-35147261D01*
X224195666Y-35261547D01*
X224157571Y-35413928D01*
X224119476Y-35490119D01*
X224043285Y-35566309D01*
X223929000Y-35604404D01*
X223738523Y-35604404D01*
X224690904Y-34804404D02*
X224767095Y-34804404D01*
X224843285Y-34842500D01*
X224881380Y-34880595D01*
X224919476Y-34956785D01*
X224957571Y-35109166D01*
X224957571Y-35299642D01*
X224919476Y-35452023D01*
X224881380Y-35528214D01*
X224843285Y-35566309D01*
X224767095Y-35604404D01*
X224690904Y-35604404D01*
X224614714Y-35566309D01*
X224576619Y-35528214D01*
X224538523Y-35452023D01*
X224500428Y-35299642D01*
X224500428Y-35109166D01*
X224538523Y-34956785D01*
X224576619Y-34880595D01*
X224614714Y-34842500D01*
X224690904Y-34804404D01*
X223738523Y-33064404D02*
X223738523Y-32264404D01*
X223929000Y-32264404D01*
X224043285Y-32302500D01*
X224119476Y-32378690D01*
X224157571Y-32454880D01*
X224195666Y-32607261D01*
X224195666Y-32721547D01*
X224157571Y-32873928D01*
X224119476Y-32950119D01*
X224043285Y-33026309D01*
X223929000Y-33064404D01*
X223738523Y-33064404D01*
X224957571Y-33064404D02*
X224500428Y-33064404D01*
X224729000Y-33064404D02*
X224729000Y-32264404D01*
X224652809Y-32378690D01*
X224576619Y-32454880D01*
X224500428Y-32492976D01*
X223719476Y-29762500D02*
X223643285Y-29724404D01*
X223529000Y-29724404D01*
X223414714Y-29762500D01*
X223338523Y-29838690D01*
X223300428Y-29914880D01*
X223262333Y-30067261D01*
X223262333Y-30181547D01*
X223300428Y-30333928D01*
X223338523Y-30410119D01*
X223414714Y-30486309D01*
X223529000Y-30524404D01*
X223605190Y-30524404D01*
X223719476Y-30486309D01*
X223757571Y-30448214D01*
X223757571Y-30181547D01*
X223605190Y-30181547D01*
X224100428Y-30524404D02*
X224100428Y-29724404D01*
X224557571Y-30524404D01*
X224557571Y-29724404D01*
X224938523Y-30524404D02*
X224938523Y-29724404D01*
X225129000Y-29724404D01*
X225243285Y-29762500D01*
X225319476Y-29838690D01*
X225357571Y-29914880D01*
X225395666Y-30067261D01*
X225395666Y-30181547D01*
X225357571Y-30333928D01*
X225319476Y-30410119D01*
X225243285Y-30486309D01*
X225129000Y-30524404D01*
X224938523Y-30524404D01*
X223719476Y-27222500D02*
X223643285Y-27184404D01*
X223529000Y-27184404D01*
X223414714Y-27222500D01*
X223338523Y-27298690D01*
X223300428Y-27374880D01*
X223262333Y-27527261D01*
X223262333Y-27641547D01*
X223300428Y-27793928D01*
X223338523Y-27870119D01*
X223414714Y-27946309D01*
X223529000Y-27984404D01*
X223605190Y-27984404D01*
X223719476Y-27946309D01*
X223757571Y-27908214D01*
X223757571Y-27641547D01*
X223605190Y-27641547D01*
X224100428Y-27984404D02*
X224100428Y-27184404D01*
X224557571Y-27984404D01*
X224557571Y-27184404D01*
X224938523Y-27984404D02*
X224938523Y-27184404D01*
X225129000Y-27184404D01*
X225243285Y-27222500D01*
X225319476Y-27298690D01*
X225357571Y-27374880D01*
X225395666Y-27527261D01*
X225395666Y-27641547D01*
X225357571Y-27793928D01*
X225319476Y-27870119D01*
X225243285Y-27946309D01*
X225129000Y-27984404D01*
X224938523Y-27984404D01*
X223738523Y-38144404D02*
X223738523Y-37344404D01*
X223929000Y-37344404D01*
X224043285Y-37382500D01*
X224119476Y-37458690D01*
X224157571Y-37534880D01*
X224195666Y-37687261D01*
X224195666Y-37801547D01*
X224157571Y-37953928D01*
X224119476Y-38030119D01*
X224043285Y-38106309D01*
X223929000Y-38144404D01*
X223738523Y-38144404D01*
X224881380Y-37611071D02*
X224881380Y-38144404D01*
X224690904Y-37306309D02*
X224500428Y-37877738D01*
X224995666Y-37877738D01*
X224195666Y-40608214D02*
X224157571Y-40646309D01*
X224043285Y-40684404D01*
X223967095Y-40684404D01*
X223852809Y-40646309D01*
X223776619Y-40570119D01*
X223738523Y-40493928D01*
X223700428Y-40341547D01*
X223700428Y-40227261D01*
X223738523Y-40074880D01*
X223776619Y-39998690D01*
X223852809Y-39922500D01*
X223967095Y-39884404D01*
X224043285Y-39884404D01*
X224157571Y-39922500D01*
X224195666Y-39960595D01*
X224881380Y-39884404D02*
X224729000Y-39884404D01*
X224652809Y-39922500D01*
X224614714Y-39960595D01*
X224538523Y-40074880D01*
X224500428Y-40227261D01*
X224500428Y-40532023D01*
X224538523Y-40608214D01*
X224576619Y-40646309D01*
X224652809Y-40684404D01*
X224805190Y-40684404D01*
X224881380Y-40646309D01*
X224919476Y-40608214D01*
X224957571Y-40532023D01*
X224957571Y-40341547D01*
X224919476Y-40265357D01*
X224881380Y-40227261D01*
X224805190Y-40189166D01*
X224652809Y-40189166D01*
X224576619Y-40227261D01*
X224538523Y-40265357D01*
X224500428Y-40341547D01*
X223738523Y-43224404D02*
X223738523Y-42424404D01*
X223929000Y-42424404D01*
X224043285Y-42462500D01*
X224119476Y-42538690D01*
X224157571Y-42614880D01*
X224195666Y-42767261D01*
X224195666Y-42881547D01*
X224157571Y-43033928D01*
X224119476Y-43110119D01*
X224043285Y-43186309D01*
X223929000Y-43224404D01*
X223738523Y-43224404D01*
X224462333Y-42424404D02*
X224995666Y-42424404D01*
X224652809Y-43224404D01*
X223776619Y-45345357D02*
X224043285Y-45345357D01*
X224157571Y-45764404D02*
X223776619Y-45764404D01*
X223776619Y-44964404D01*
X224157571Y-44964404D01*
X224843285Y-44964404D02*
X224690904Y-44964404D01*
X224614714Y-45002500D01*
X224576619Y-45040595D01*
X224500428Y-45154880D01*
X224462333Y-45307261D01*
X224462333Y-45612023D01*
X224500428Y-45688214D01*
X224538523Y-45726309D01*
X224614714Y-45764404D01*
X224767095Y-45764404D01*
X224843285Y-45726309D01*
X224881380Y-45688214D01*
X224919476Y-45612023D01*
X224919476Y-45421547D01*
X224881380Y-45345357D01*
X224843285Y-45307261D01*
X224767095Y-45269166D01*
X224614714Y-45269166D01*
X224538523Y-45307261D01*
X224500428Y-45345357D01*
X224462333Y-45421547D01*
X224005190Y-47885357D02*
X224119476Y-47923452D01*
X224157571Y-47961547D01*
X224195666Y-48037738D01*
X224195666Y-48152023D01*
X224157571Y-48228214D01*
X224119476Y-48266309D01*
X224043285Y-48304404D01*
X223738523Y-48304404D01*
X223738523Y-47504404D01*
X224005190Y-47504404D01*
X224081380Y-47542500D01*
X224119476Y-47580595D01*
X224157571Y-47656785D01*
X224157571Y-47732976D01*
X224119476Y-47809166D01*
X224081380Y-47847261D01*
X224005190Y-47885357D01*
X223738523Y-47885357D01*
X224881380Y-47771071D02*
X224881380Y-48304404D01*
X224690904Y-47466309D02*
X224500428Y-48037738D01*
X224995666Y-48037738D01*
X224005190Y-50425357D02*
X224119476Y-50463452D01*
X224157571Y-50501547D01*
X224195666Y-50577738D01*
X224195666Y-50692023D01*
X224157571Y-50768214D01*
X224119476Y-50806309D01*
X224043285Y-50844404D01*
X223738523Y-50844404D01*
X223738523Y-50044404D01*
X224005190Y-50044404D01*
X224081380Y-50082500D01*
X224119476Y-50120595D01*
X224157571Y-50196785D01*
X224157571Y-50272976D01*
X224119476Y-50349166D01*
X224081380Y-50387261D01*
X224005190Y-50425357D01*
X223738523Y-50425357D01*
X224919476Y-50044404D02*
X224538523Y-50044404D01*
X224500428Y-50425357D01*
X224538523Y-50387261D01*
X224614714Y-50349166D01*
X224805190Y-50349166D01*
X224881380Y-50387261D01*
X224919476Y-50425357D01*
X224957571Y-50501547D01*
X224957571Y-50692023D01*
X224919476Y-50768214D01*
X224881380Y-50806309D01*
X224805190Y-50844404D01*
X224614714Y-50844404D01*
X224538523Y-50806309D01*
X224500428Y-50768214D01*
X234927190Y-50425357D02*
X235041476Y-50463452D01*
X235079571Y-50501547D01*
X235117666Y-50577738D01*
X235117666Y-50692023D01*
X235079571Y-50768214D01*
X235041476Y-50806309D01*
X234965285Y-50844404D01*
X234660523Y-50844404D01*
X234660523Y-50044404D01*
X234927190Y-50044404D01*
X235003380Y-50082500D01*
X235041476Y-50120595D01*
X235079571Y-50196785D01*
X235079571Y-50272976D01*
X235041476Y-50349166D01*
X235003380Y-50387261D01*
X234927190Y-50425357D01*
X234660523Y-50425357D01*
X235803380Y-50044404D02*
X235651000Y-50044404D01*
X235574809Y-50082500D01*
X235536714Y-50120595D01*
X235460523Y-50234880D01*
X235422428Y-50387261D01*
X235422428Y-50692023D01*
X235460523Y-50768214D01*
X235498619Y-50806309D01*
X235574809Y-50844404D01*
X235727190Y-50844404D01*
X235803380Y-50806309D01*
X235841476Y-50768214D01*
X235879571Y-50692023D01*
X235879571Y-50501547D01*
X235841476Y-50425357D01*
X235803380Y-50387261D01*
X235727190Y-50349166D01*
X235574809Y-50349166D01*
X235498619Y-50387261D01*
X235460523Y-50425357D01*
X235422428Y-50501547D01*
X234927190Y-45345357D02*
X235041476Y-45383452D01*
X235079571Y-45421547D01*
X235117666Y-45497738D01*
X235117666Y-45612023D01*
X235079571Y-45688214D01*
X235041476Y-45726309D01*
X234965285Y-45764404D01*
X234660523Y-45764404D01*
X234660523Y-44964404D01*
X234927190Y-44964404D01*
X235003380Y-45002500D01*
X235041476Y-45040595D01*
X235079571Y-45116785D01*
X235079571Y-45192976D01*
X235041476Y-45269166D01*
X235003380Y-45307261D01*
X234927190Y-45345357D01*
X234660523Y-45345357D01*
X235384333Y-44964404D02*
X235879571Y-44964404D01*
X235612904Y-45269166D01*
X235727190Y-45269166D01*
X235803380Y-45307261D01*
X235841476Y-45345357D01*
X235879571Y-45421547D01*
X235879571Y-45612023D01*
X235841476Y-45688214D01*
X235803380Y-45726309D01*
X235727190Y-45764404D01*
X235498619Y-45764404D01*
X235422428Y-45726309D01*
X235384333Y-45688214D01*
X234927190Y-42805357D02*
X235041476Y-42843452D01*
X235079571Y-42881547D01*
X235117666Y-42957738D01*
X235117666Y-43072023D01*
X235079571Y-43148214D01*
X235041476Y-43186309D01*
X234965285Y-43224404D01*
X234660523Y-43224404D01*
X234660523Y-42424404D01*
X234927190Y-42424404D01*
X235003380Y-42462500D01*
X235041476Y-42500595D01*
X235079571Y-42576785D01*
X235079571Y-42652976D01*
X235041476Y-42729166D01*
X235003380Y-42767261D01*
X234927190Y-42805357D01*
X234660523Y-42805357D01*
X235879571Y-43224404D02*
X235422428Y-43224404D01*
X235651000Y-43224404D02*
X235651000Y-42424404D01*
X235574809Y-42538690D01*
X235498619Y-42614880D01*
X235422428Y-42652976D01*
X234984333Y-32645357D02*
X234717666Y-32645357D01*
X234717666Y-33064404D02*
X234717666Y-32264404D01*
X235098619Y-32264404D01*
X235746238Y-32531071D02*
X235746238Y-33064404D01*
X235555761Y-32226309D02*
X235365285Y-32797738D01*
X235860523Y-32797738D01*
X234184333Y-29724404D02*
X234451000Y-30524404D01*
X234717666Y-29724404D01*
X235441476Y-30448214D02*
X235403380Y-30486309D01*
X235289095Y-30524404D01*
X235212904Y-30524404D01*
X235098619Y-30486309D01*
X235022428Y-30410119D01*
X234984333Y-30333928D01*
X234946238Y-30181547D01*
X234946238Y-30067261D01*
X234984333Y-29914880D01*
X235022428Y-29838690D01*
X235098619Y-29762500D01*
X235212904Y-29724404D01*
X235289095Y-29724404D01*
X235403380Y-29762500D01*
X235441476Y-29800595D01*
X236241476Y-30448214D02*
X236203380Y-30486309D01*
X236089095Y-30524404D01*
X236012904Y-30524404D01*
X235898619Y-30486309D01*
X235822428Y-30410119D01*
X235784333Y-30333928D01*
X235746238Y-30181547D01*
X235746238Y-30067261D01*
X235784333Y-29914880D01*
X235822428Y-29838690D01*
X235898619Y-29762500D01*
X236012904Y-29724404D01*
X236089095Y-29724404D01*
X236203380Y-29762500D01*
X236241476Y-29800595D01*
X234989786Y-27916309D02*
X235104072Y-27954404D01*
X235294548Y-27954404D01*
X235370739Y-27916309D01*
X235408834Y-27878214D01*
X235446929Y-27802023D01*
X235446929Y-27725833D01*
X235408834Y-27649642D01*
X235370739Y-27611547D01*
X235294548Y-27573452D01*
X235142167Y-27535357D01*
X235065977Y-27497261D01*
X235027881Y-27459166D01*
X234989786Y-27382976D01*
X234989786Y-27306785D01*
X235027881Y-27230595D01*
X235065977Y-27192500D01*
X235142167Y-27154404D01*
X235332643Y-27154404D01*
X235446929Y-27192500D01*
X235675500Y-27154404D02*
X236132643Y-27154404D01*
X235904072Y-27954404D02*
X235904072Y-27154404D01*
X234641476Y-24682500D02*
X234565285Y-24644404D01*
X234451000Y-24644404D01*
X234336714Y-24682500D01*
X234260523Y-24758690D01*
X234222428Y-24834880D01*
X234184333Y-24987261D01*
X234184333Y-25101547D01*
X234222428Y-25253928D01*
X234260523Y-25330119D01*
X234336714Y-25406309D01*
X234451000Y-25444404D01*
X234527190Y-25444404D01*
X234641476Y-25406309D01*
X234679571Y-25368214D01*
X234679571Y-25101547D01*
X234527190Y-25101547D01*
X235022428Y-25444404D02*
X235022428Y-24644404D01*
X235479571Y-25444404D01*
X235479571Y-24644404D01*
X235860523Y-25444404D02*
X235860523Y-24644404D01*
X236051000Y-24644404D01*
X236165285Y-24682500D01*
X236241476Y-24758690D01*
X236279571Y-24834880D01*
X236317666Y-24987261D01*
X236317666Y-25101547D01*
X236279571Y-25253928D01*
X236241476Y-25330119D01*
X236165285Y-25406309D01*
X236051000Y-25444404D01*
X235860523Y-25444404D01*
X234698619Y-22904404D02*
X234431952Y-22523452D01*
X234241476Y-22904404D02*
X234241476Y-22104404D01*
X234546238Y-22104404D01*
X234622428Y-22142500D01*
X234660523Y-22180595D01*
X234698619Y-22256785D01*
X234698619Y-22371071D01*
X234660523Y-22447261D01*
X234622428Y-22485357D01*
X234546238Y-22523452D01*
X234241476Y-22523452D01*
X235003380Y-22675833D02*
X235384333Y-22675833D01*
X234927190Y-22904404D02*
X235193857Y-22104404D01*
X235460523Y-22904404D01*
X235651000Y-22104404D02*
X235841476Y-22904404D01*
X235993857Y-22332976D01*
X236146238Y-22904404D01*
X236336714Y-22104404D01*
X234984333Y-35185357D02*
X234717666Y-35185357D01*
X234717666Y-35604404D02*
X234717666Y-34804404D01*
X235098619Y-34804404D01*
X235784333Y-34804404D02*
X235403380Y-34804404D01*
X235365285Y-35185357D01*
X235403380Y-35147261D01*
X235479571Y-35109166D01*
X235670047Y-35109166D01*
X235746238Y-35147261D01*
X235784333Y-35185357D01*
X235822428Y-35261547D01*
X235822428Y-35452023D01*
X235784333Y-35528214D01*
X235746238Y-35566309D01*
X235670047Y-35604404D01*
X235479571Y-35604404D01*
X235403380Y-35566309D01*
X235365285Y-35528214D01*
X234984333Y-37725357D02*
X234717666Y-37725357D01*
X234717666Y-38144404D02*
X234717666Y-37344404D01*
X235098619Y-37344404D01*
X235746238Y-37344404D02*
X235593857Y-37344404D01*
X235517666Y-37382500D01*
X235479571Y-37420595D01*
X235403380Y-37534880D01*
X235365285Y-37687261D01*
X235365285Y-37992023D01*
X235403380Y-38068214D01*
X235441476Y-38106309D01*
X235517666Y-38144404D01*
X235670047Y-38144404D01*
X235746238Y-38106309D01*
X235784333Y-38068214D01*
X235822428Y-37992023D01*
X235822428Y-37801547D01*
X235784333Y-37725357D01*
X235746238Y-37687261D01*
X235670047Y-37649166D01*
X235517666Y-37649166D01*
X235441476Y-37687261D01*
X235403380Y-37725357D01*
X235365285Y-37801547D01*
X234984333Y-40265357D02*
X234717666Y-40265357D01*
X234717666Y-40684404D02*
X234717666Y-39884404D01*
X235098619Y-39884404D01*
X235327190Y-39884404D02*
X235860523Y-39884404D01*
X235517666Y-40684404D01*
X234927190Y-47885357D02*
X235041476Y-47923452D01*
X235079571Y-47961547D01*
X235117666Y-48037738D01*
X235117666Y-48152023D01*
X235079571Y-48228214D01*
X235041476Y-48266309D01*
X234965285Y-48304404D01*
X234660523Y-48304404D01*
X234660523Y-47504404D01*
X234927190Y-47504404D01*
X235003380Y-47542500D01*
X235041476Y-47580595D01*
X235079571Y-47656785D01*
X235079571Y-47732976D01*
X235041476Y-47809166D01*
X235003380Y-47847261D01*
X234927190Y-47885357D01*
X234660523Y-47885357D01*
X235422428Y-47580595D02*
X235460523Y-47542500D01*
X235536714Y-47504404D01*
X235727190Y-47504404D01*
X235803380Y-47542500D01*
X235841476Y-47580595D01*
X235879571Y-47656785D01*
X235879571Y-47732976D01*
X235841476Y-47847261D01*
X235384333Y-48304404D01*
X235879571Y-48304404D01*
G04 #@! TO.C,SW1*
X232881011Y-71302083D02*
X232928630Y-71159226D01*
X232928630Y-70921130D01*
X232881011Y-70825892D01*
X232833392Y-70778273D01*
X232738154Y-70730654D01*
X232642916Y-70730654D01*
X232547678Y-70778273D01*
X232500059Y-70825892D01*
X232452440Y-70921130D01*
X232404821Y-71111607D01*
X232357202Y-71206845D01*
X232309583Y-71254464D01*
X232214345Y-71302083D01*
X232119107Y-71302083D01*
X232023869Y-71254464D01*
X231976250Y-71206845D01*
X231928630Y-71111607D01*
X231928630Y-70873511D01*
X231976250Y-70730654D01*
X231928630Y-70397321D02*
X232928630Y-70159226D01*
X232214345Y-69968750D01*
X232928630Y-69778273D01*
X231928630Y-69540178D01*
X232928630Y-68635416D02*
X232928630Y-69206845D01*
X232928630Y-68921130D02*
X231928630Y-68921130D01*
X232071488Y-69016369D01*
X232166726Y-69111607D01*
X232214345Y-69206845D01*
G04 #@! TO.C,OL1*
X223858645Y-59873447D02*
X223858645Y-59718628D01*
X223897350Y-59641219D01*
X223974759Y-59563809D01*
X224129578Y-59525104D01*
X224400511Y-59525104D01*
X224555330Y-59563809D01*
X224632740Y-59641219D01*
X224671445Y-59718628D01*
X224671445Y-59873447D01*
X224632740Y-59950857D01*
X224555330Y-60028266D01*
X224400511Y-60066971D01*
X224129578Y-60066971D01*
X223974759Y-60028266D01*
X223897350Y-59950857D01*
X223858645Y-59873447D01*
X224671445Y-58789714D02*
X224671445Y-59176761D01*
X223858645Y-59176761D01*
X224671445Y-58093028D02*
X224671445Y-58557485D01*
X224671445Y-58325257D02*
X223858645Y-58325257D01*
X223974759Y-58402666D01*
X224052169Y-58480076D01*
X224090873Y-58557485D01*
G04 #@! TO.C,J1*
X241169345Y-24158630D02*
X241740773Y-24158630D01*
X241455059Y-25158630D02*
X241455059Y-24158630D01*
X242645535Y-25158630D02*
X242312202Y-24682440D01*
X242074107Y-25158630D02*
X242074107Y-24158630D01*
X242455059Y-24158630D01*
X242550297Y-24206250D01*
X242597916Y-24253869D01*
X242645535Y-24349107D01*
X242645535Y-24491964D01*
X242597916Y-24587202D01*
X242550297Y-24634821D01*
X242455059Y-24682440D01*
X242074107Y-24682440D01*
X243645535Y-25158630D02*
X243312202Y-24682440D01*
X243074107Y-25158630D02*
X243074107Y-24158630D01*
X243455059Y-24158630D01*
X243550297Y-24206250D01*
X243597916Y-24253869D01*
X243645535Y-24349107D01*
X243645535Y-24491964D01*
X243597916Y-24587202D01*
X243550297Y-24634821D01*
X243455059Y-24682440D01*
X243074107Y-24682440D01*
X244026488Y-25111011D02*
X244169345Y-25158630D01*
X244407440Y-25158630D01*
X244502678Y-25111011D01*
X244550297Y-25063392D01*
X244597916Y-24968154D01*
X244597916Y-24872916D01*
X244550297Y-24777678D01*
X244502678Y-24730059D01*
X244407440Y-24682440D01*
X244216964Y-24634821D01*
X244121726Y-24587202D01*
X244074107Y-24539583D01*
X244026488Y-24444345D01*
X244026488Y-24349107D01*
X244074107Y-24253869D01*
X244121726Y-24206250D01*
X244216964Y-24158630D01*
X244455059Y-24158630D01*
X244597916Y-24206250D01*
G04 #@! TD*
M02*
