G04 #@! TF.GenerationSoftware,KiCad,Pcbnew,5.1.10*
G04 #@! TF.CreationDate,2022-03-09T15:21:35-05:00*
G04 #@! TF.ProjectId,bourbondox2_left,626f7572-626f-46e6-946f-78325f6c6566,rev?*
G04 #@! TF.SameCoordinates,Original*
G04 #@! TF.FileFunction,Soldermask,Bot*
G04 #@! TF.FilePolarity,Negative*
%FSLAX46Y46*%
G04 Gerber Fmt 4.6, Leading zero omitted, Abs format (unit mm)*
G04 Created by KiCad (PCBNEW 5.1.10) date 2022-03-09 15:21:35*
%MOMM*%
%LPD*%
G01*
G04 APERTURE LIST*
%ADD10C,2.250000*%
%ADD11C,3.987800*%
%ADD12C,1.750000*%
%ADD13C,3.048000*%
%ADD14C,1.752600*%
%ADD15R,1.752600X1.752600*%
%ADD16C,1.200000*%
%ADD17C,2.100000*%
%ADD18C,1.397000*%
%ADD19O,1.700000X2.500000*%
%ADD20R,0.900000X1.200000*%
G04 APERTURE END LIST*
D10*
G04 #@! TO.C,MX42_2*
X147779290Y-127481100D03*
D11*
X145239290Y-132561100D03*
D10*
X141429290Y-130021100D03*
D12*
X140159290Y-132561100D03*
X150319290Y-132561100D03*
G04 #@! TD*
D10*
G04 #@! TO.C,MX41_2*
X123966790Y-127481100D03*
D11*
X121426790Y-132561100D03*
D10*
X117616790Y-130021100D03*
D12*
X116346790Y-132561100D03*
X126506790Y-132561100D03*
G04 #@! TD*
D10*
G04 #@! TO.C,MX40_2*
X100154290Y-127481100D03*
D11*
X97614290Y-132561100D03*
D10*
X93804290Y-130021100D03*
D12*
X92534290Y-132561100D03*
X102694290Y-132561100D03*
G04 #@! TD*
D10*
G04 #@! TO.C,MX30_2*
X104921050Y-108435140D03*
D11*
X102381050Y-113515140D03*
D10*
X98571050Y-110975140D03*
D12*
X97301050Y-113515140D03*
X107461050Y-113515140D03*
G04 #@! TD*
D10*
G04 #@! TO.C,MX10_2*
X107302300Y-70335140D03*
D11*
X104762300Y-75415140D03*
D10*
X100952300Y-72875140D03*
D12*
X99682300Y-75415140D03*
X109842300Y-75415140D03*
G04 #@! TD*
D10*
G04 #@! TO.C,MX45*
X238443502Y-140918770D03*
D11*
X241572911Y-145658475D03*
D10*
X237468206Y-147688032D03*
D12*
X239032911Y-150057884D03*
X244112911Y-141259066D03*
D13*
X229570599Y-152477090D03*
X241476849Y-131854860D03*
D11*
X242768826Y-160097090D03*
X254675076Y-139474860D03*
G04 #@! TD*
D10*
G04 #@! TO.C,MX44*
X221945718Y-131393769D03*
D11*
X225075127Y-136133474D03*
D10*
X220970422Y-138163031D03*
D12*
X222535127Y-140532883D03*
X227615127Y-131734065D03*
D13*
X213072815Y-142952089D03*
X224979065Y-122329859D03*
D11*
X226271042Y-150572089D03*
X238177292Y-129949859D03*
G04 #@! TD*
D10*
G04 #@! TO.C,MX43*
X173973040Y-127481100D03*
D11*
X171433040Y-132561100D03*
D10*
X167623040Y-130021100D03*
D12*
X166353040Y-132561100D03*
X176513040Y-132561100D03*
G04 #@! TD*
D14*
G04 #@! TO.C,U1*
X237410000Y-22542500D03*
X222170000Y-50482500D03*
X237410000Y-25082500D03*
X237410000Y-27622500D03*
X237410000Y-30162500D03*
X237410000Y-32702500D03*
X237410000Y-35242500D03*
X237410000Y-37782500D03*
X237410000Y-40322500D03*
X237410000Y-42862500D03*
X237410000Y-45402500D03*
X237410000Y-47942500D03*
X237410000Y-50482500D03*
X222170000Y-47942500D03*
X222170000Y-45402500D03*
X222170000Y-42862500D03*
X222170000Y-40322500D03*
X222170000Y-37782500D03*
X222170000Y-35242500D03*
X222170000Y-32702500D03*
X222170000Y-30162500D03*
X222170000Y-27622500D03*
X222170000Y-25082500D03*
D15*
X222170000Y-22542500D03*
G04 #@! TD*
D16*
G04 #@! TO.C,SW1*
X235366250Y-69968750D03*
D17*
X231666250Y-66468750D03*
D12*
X234156250Y-67468750D03*
X234156250Y-72468750D03*
D17*
X231666250Y-73478750D03*
G04 #@! TD*
D18*
G04 #@! TO.C,OL1*
X233838750Y-57150000D03*
X231298750Y-57150000D03*
X228758750Y-57150000D03*
X226218750Y-57150000D03*
G04 #@! TD*
D10*
G04 #@! TO.C,MX42*
X145080540Y-137641100D03*
D11*
X147620540Y-132561100D03*
D10*
X151430540Y-135101100D03*
D12*
X152700540Y-132561100D03*
X142540540Y-132561100D03*
G04 #@! TD*
D10*
G04 #@! TO.C,MX41*
X131110540Y-127481100D03*
D11*
X128570540Y-132561100D03*
D10*
X124760540Y-130021100D03*
D12*
X123490540Y-132561100D03*
X133650540Y-132561100D03*
G04 #@! TD*
D10*
G04 #@! TO.C,MX40*
X112060540Y-127481100D03*
D11*
X109520540Y-132561100D03*
D10*
X105710540Y-130021100D03*
D12*
X104440540Y-132561100D03*
X114600540Y-132561100D03*
G04 #@! TD*
D10*
G04 #@! TO.C,MX35*
X207327500Y-96045520D03*
D11*
X204787500Y-101125520D03*
D10*
X200977500Y-98585520D03*
D12*
X199707500Y-101125520D03*
X209867500Y-101125520D03*
G04 #@! TD*
D10*
G04 #@! TO.C,MX34*
X188277500Y-94965520D03*
D11*
X185737500Y-100045520D03*
D10*
X181927500Y-97505520D03*
D12*
X180657500Y-100045520D03*
X190817500Y-100045520D03*
G04 #@! TD*
D10*
G04 #@! TO.C,MX33*
X169227500Y-90170000D03*
D11*
X166687500Y-95250000D03*
D10*
X162877500Y-92710000D03*
D12*
X161607500Y-95250000D03*
X171767500Y-95250000D03*
G04 #@! TD*
D10*
G04 #@! TO.C,MX32*
X150177500Y-93345000D03*
D11*
X147637500Y-98425000D03*
D10*
X143827500Y-95885000D03*
D12*
X142557500Y-98425000D03*
X152717500Y-98425000D03*
G04 #@! TD*
D10*
G04 #@! TO.C,MX31*
X131114800Y-108435140D03*
D11*
X128574800Y-113515140D03*
D10*
X124764800Y-110975140D03*
D12*
X123494800Y-113515140D03*
X133654800Y-113515140D03*
G04 #@! TD*
D10*
G04 #@! TO.C,MX30*
X112064800Y-108435140D03*
D11*
X109524800Y-113515140D03*
D10*
X105714800Y-110975140D03*
D12*
X104444800Y-113515140D03*
X114604800Y-113515140D03*
G04 #@! TD*
D10*
G04 #@! TO.C,MX25*
X207327500Y-76995520D03*
D11*
X204787500Y-82075520D03*
D10*
X200977500Y-79535520D03*
D12*
X199707500Y-82075520D03*
X209867500Y-82075520D03*
G04 #@! TD*
D10*
G04 #@! TO.C,MX24*
X188277500Y-75915520D03*
D11*
X185737500Y-80995520D03*
D10*
X181927500Y-78455520D03*
D12*
X180657500Y-80995520D03*
X190817500Y-80995520D03*
G04 #@! TD*
D10*
G04 #@! TO.C,MX23*
X169227500Y-71120000D03*
D11*
X166687500Y-76200000D03*
D10*
X162877500Y-73660000D03*
D12*
X161607500Y-76200000D03*
X171767500Y-76200000D03*
G04 #@! TD*
D10*
G04 #@! TO.C,MX22*
X150177500Y-74295000D03*
D11*
X147637500Y-79375000D03*
D10*
X143827500Y-76835000D03*
D12*
X142557500Y-79375000D03*
X152717500Y-79375000D03*
G04 #@! TD*
D10*
G04 #@! TO.C,MX21*
X131114800Y-89385140D03*
D11*
X128574800Y-94465140D03*
D10*
X124764800Y-91925140D03*
D12*
X123494800Y-94465140D03*
X133654800Y-94465140D03*
G04 #@! TD*
D10*
G04 #@! TO.C,MX20*
X112064800Y-89385140D03*
D11*
X109524800Y-94465140D03*
D10*
X105714800Y-91925140D03*
D12*
X104444800Y-94465140D03*
X114604800Y-94465140D03*
G04 #@! TD*
D10*
G04 #@! TO.C,MX15*
X207327500Y-57945520D03*
D11*
X204787500Y-63025520D03*
D10*
X200977500Y-60485520D03*
D12*
X199707500Y-63025520D03*
X209867500Y-63025520D03*
G04 #@! TD*
D10*
G04 #@! TO.C,MX14*
X188277500Y-56865520D03*
D11*
X185737500Y-61945520D03*
D10*
X181927500Y-59405520D03*
D12*
X180657500Y-61945520D03*
X190817500Y-61945520D03*
G04 #@! TD*
D10*
G04 #@! TO.C,MX13*
X169227500Y-52070000D03*
D11*
X166687500Y-57150000D03*
D10*
X162877500Y-54610000D03*
D12*
X161607500Y-57150000D03*
X171767500Y-57150000D03*
G04 #@! TD*
D10*
G04 #@! TO.C,MX12*
X150177500Y-55245000D03*
D11*
X147637500Y-60325000D03*
D10*
X143827500Y-57785000D03*
D12*
X142557500Y-60325000D03*
X152717500Y-60325000D03*
G04 #@! TD*
D10*
G04 #@! TO.C,MX11*
X131114800Y-70335140D03*
D11*
X128574800Y-75415140D03*
D10*
X124764800Y-72875140D03*
D12*
X123494800Y-75415140D03*
X133654800Y-75415140D03*
G04 #@! TD*
D10*
G04 #@! TO.C,MX10*
X106984800Y-80495140D03*
D11*
X109524800Y-75415140D03*
D10*
X113334800Y-77955140D03*
D12*
X114604800Y-75415140D03*
X104444800Y-75415140D03*
G04 #@! TD*
D10*
G04 #@! TO.C,MX05*
X207327500Y-28257500D03*
D11*
X204787500Y-33337500D03*
D10*
X200977500Y-30797500D03*
D12*
X199707500Y-33337500D03*
X209867500Y-33337500D03*
G04 #@! TD*
D10*
G04 #@! TO.C,MX04*
X188277500Y-28257500D03*
D11*
X185737500Y-33337500D03*
D10*
X181927500Y-30797500D03*
D12*
X180657500Y-33337500D03*
X190817500Y-33337500D03*
G04 #@! TD*
D10*
G04 #@! TO.C,MX03*
X169227500Y-28257500D03*
D11*
X166687500Y-33337500D03*
D10*
X162877500Y-30797500D03*
D12*
X161607500Y-33337500D03*
X171767500Y-33337500D03*
G04 #@! TD*
D19*
G04 #@! TO.C,J1*
X241581250Y-30056250D03*
X245781250Y-28556250D03*
X245781250Y-24556250D03*
X245781250Y-21556250D03*
D16*
X243681250Y-26756250D03*
X243681250Y-19756250D03*
G04 #@! TD*
D20*
G04 #@! TO.C,D45*
X218343750Y-116681250D03*
X215043750Y-116681250D03*
G04 #@! TD*
G04 #@! TO.C,D44*
X218343750Y-124618750D03*
X215043750Y-124618750D03*
G04 #@! TD*
G04 #@! TO.C,D43*
X173893750Y-139700000D03*
X170593750Y-139700000D03*
G04 #@! TD*
G04 #@! TO.C,D42*
X154480000Y-139570000D03*
X151180000Y-139570000D03*
G04 #@! TD*
G04 #@! TO.C,D41*
X131014290Y-138911100D03*
X127714290Y-138911100D03*
G04 #@! TD*
G04 #@! TO.C,D40*
X111964290Y-138911100D03*
X108664290Y-138911100D03*
G04 #@! TD*
G04 #@! TO.C,D35*
X207231250Y-109063020D03*
X203931250Y-109063020D03*
G04 #@! TD*
G04 #@! TO.C,D34*
X188181250Y-107983020D03*
X184881250Y-107983020D03*
G04 #@! TD*
G04 #@! TO.C,D33*
X169131250Y-103187500D03*
X165831250Y-103187500D03*
G04 #@! TD*
G04 #@! TO.C,D32*
X150081250Y-106362500D03*
X146781250Y-106362500D03*
G04 #@! TD*
G04 #@! TO.C,D31*
X131018550Y-121452640D03*
X127718550Y-121452640D03*
G04 #@! TD*
G04 #@! TO.C,D30*
X111968550Y-121452640D03*
X108668550Y-121452640D03*
G04 #@! TD*
G04 #@! TO.C,D25*
X207231250Y-90013020D03*
X203931250Y-90013020D03*
G04 #@! TD*
G04 #@! TO.C,D24*
X188181250Y-88933020D03*
X184881250Y-88933020D03*
G04 #@! TD*
G04 #@! TO.C,D23*
X169131250Y-84137500D03*
X165831250Y-84137500D03*
G04 #@! TD*
G04 #@! TO.C,D22*
X150081250Y-87312500D03*
X146781250Y-87312500D03*
G04 #@! TD*
G04 #@! TO.C,D21*
X131018550Y-102402640D03*
X127718550Y-102402640D03*
G04 #@! TD*
G04 #@! TO.C,D20*
X111968550Y-102402640D03*
X108668550Y-102402640D03*
G04 #@! TD*
G04 #@! TO.C,D15*
X207231250Y-70963020D03*
X203931250Y-70963020D03*
G04 #@! TD*
G04 #@! TO.C,D14*
X188181250Y-69883020D03*
X184881250Y-69883020D03*
G04 #@! TD*
G04 #@! TO.C,D13*
X169131250Y-65087500D03*
X165831250Y-65087500D03*
G04 #@! TD*
G04 #@! TO.C,D12*
X150081250Y-68262500D03*
X146781250Y-68262500D03*
G04 #@! TD*
G04 #@! TO.C,D11*
X131018550Y-83352640D03*
X127718550Y-83352640D03*
G04 #@! TD*
G04 #@! TO.C,D10*
X111968550Y-83352640D03*
X108668550Y-83352640D03*
G04 #@! TD*
G04 #@! TO.C,D05*
X207231250Y-41275000D03*
X203931250Y-41275000D03*
G04 #@! TD*
G04 #@! TO.C,D04*
X188181250Y-41275000D03*
X184881250Y-41275000D03*
G04 #@! TD*
G04 #@! TO.C,D03*
X169131250Y-41275000D03*
X165831250Y-41275000D03*
G04 #@! TD*
M02*
