G04 #@! TF.GenerationSoftware,KiCad,Pcbnew,5.1.10*
G04 #@! TF.CreationDate,2022-03-09T15:21:35-05:00*
G04 #@! TF.ProjectId,bourbondox2_left,626f7572-626f-46e6-946f-78325f6c6566,rev?*
G04 #@! TF.SameCoordinates,Original*
G04 #@! TF.FileFunction,Legend,Bot*
G04 #@! TF.FilePolarity,Positive*
%FSLAX46Y46*%
G04 Gerber Fmt 4.6, Leading zero omitted, Abs format (unit mm)*
G04 Created by KiCad (PCBNEW 5.1.10) date 2022-03-09 15:21:35*
%MOMM*%
%LPD*%
G01*
G04 APERTURE LIST*
%ADD10C,0.150000*%
%ADD11C,0.381000*%
%ADD12C,0.120000*%
G04 APERTURE END LIST*
D10*
X205786904Y-119753571D02*
X205644047Y-119801190D01*
X205596428Y-119848809D01*
X205548809Y-119944047D01*
X205548809Y-120086904D01*
X205596428Y-120182142D01*
X205644047Y-120229761D01*
X205739285Y-120277380D01*
X206120238Y-120277380D01*
X206120238Y-119277380D01*
X205786904Y-119277380D01*
X205691666Y-119325000D01*
X205644047Y-119372619D01*
X205596428Y-119467857D01*
X205596428Y-119563095D01*
X205644047Y-119658333D01*
X205691666Y-119705952D01*
X205786904Y-119753571D01*
X206120238Y-119753571D01*
X204977380Y-120277380D02*
X205072619Y-120229761D01*
X205120238Y-120182142D01*
X205167857Y-120086904D01*
X205167857Y-119801190D01*
X205120238Y-119705952D01*
X205072619Y-119658333D01*
X204977380Y-119610714D01*
X204834523Y-119610714D01*
X204739285Y-119658333D01*
X204691666Y-119705952D01*
X204644047Y-119801190D01*
X204644047Y-120086904D01*
X204691666Y-120182142D01*
X204739285Y-120229761D01*
X204834523Y-120277380D01*
X204977380Y-120277380D01*
X203786904Y-119610714D02*
X203786904Y-120277380D01*
X204215476Y-119610714D02*
X204215476Y-120134523D01*
X204167857Y-120229761D01*
X204072619Y-120277380D01*
X203929761Y-120277380D01*
X203834523Y-120229761D01*
X203786904Y-120182142D01*
X203310714Y-120277380D02*
X203310714Y-119610714D01*
X203310714Y-119801190D02*
X203263095Y-119705952D01*
X203215476Y-119658333D01*
X203120238Y-119610714D01*
X203025000Y-119610714D01*
X202691666Y-120277380D02*
X202691666Y-119277380D01*
X202691666Y-119658333D02*
X202596428Y-119610714D01*
X202405952Y-119610714D01*
X202310714Y-119658333D01*
X202263095Y-119705952D01*
X202215476Y-119801190D01*
X202215476Y-120086904D01*
X202263095Y-120182142D01*
X202310714Y-120229761D01*
X202405952Y-120277380D01*
X202596428Y-120277380D01*
X202691666Y-120229761D01*
X201644047Y-120277380D02*
X201739285Y-120229761D01*
X201786904Y-120182142D01*
X201834523Y-120086904D01*
X201834523Y-119801190D01*
X201786904Y-119705952D01*
X201739285Y-119658333D01*
X201644047Y-119610714D01*
X201501190Y-119610714D01*
X201405952Y-119658333D01*
X201358333Y-119705952D01*
X201310714Y-119801190D01*
X201310714Y-120086904D01*
X201358333Y-120182142D01*
X201405952Y-120229761D01*
X201501190Y-120277380D01*
X201644047Y-120277380D01*
X200882142Y-119610714D02*
X200882142Y-120277380D01*
X200882142Y-119705952D02*
X200834523Y-119658333D01*
X200739285Y-119610714D01*
X200596428Y-119610714D01*
X200501190Y-119658333D01*
X200453571Y-119753571D01*
X200453571Y-120277380D01*
X199548809Y-120277380D02*
X199548809Y-119277380D01*
X199548809Y-120229761D02*
X199644047Y-120277380D01*
X199834523Y-120277380D01*
X199929761Y-120229761D01*
X199977380Y-120182142D01*
X200025000Y-120086904D01*
X200025000Y-119801190D01*
X199977380Y-119705952D01*
X199929761Y-119658333D01*
X199834523Y-119610714D01*
X199644047Y-119610714D01*
X199548809Y-119658333D01*
X198929761Y-120277380D02*
X199025000Y-120229761D01*
X199072619Y-120182142D01*
X199120238Y-120086904D01*
X199120238Y-119801190D01*
X199072619Y-119705952D01*
X199025000Y-119658333D01*
X198929761Y-119610714D01*
X198786904Y-119610714D01*
X198691666Y-119658333D01*
X198644047Y-119705952D01*
X198596428Y-119801190D01*
X198596428Y-120086904D01*
X198644047Y-120182142D01*
X198691666Y-120229761D01*
X198786904Y-120277380D01*
X198929761Y-120277380D01*
X198263095Y-120277380D02*
X197739285Y-119610714D01*
X198263095Y-119610714D02*
X197739285Y-120277380D01*
X196691666Y-119610714D02*
X196453571Y-120277380D01*
X196215476Y-119610714D01*
X195882142Y-119372619D02*
X195834523Y-119325000D01*
X195739285Y-119277380D01*
X195501190Y-119277380D01*
X195405952Y-119325000D01*
X195358333Y-119372619D01*
X195310714Y-119467857D01*
X195310714Y-119563095D01*
X195358333Y-119705952D01*
X195929761Y-120277380D01*
X195310714Y-120277380D01*
X194882142Y-120182142D02*
X194834523Y-120229761D01*
X194882142Y-120277380D01*
X194929761Y-120229761D01*
X194882142Y-120182142D01*
X194882142Y-120277380D01*
X194215476Y-119277380D02*
X194120238Y-119277380D01*
X194025000Y-119325000D01*
X193977380Y-119372619D01*
X193929761Y-119467857D01*
X193882142Y-119658333D01*
X193882142Y-119896428D01*
X193929761Y-120086904D01*
X193977380Y-120182142D01*
X194025000Y-120229761D01*
X194120238Y-120277380D01*
X194215476Y-120277380D01*
X194310714Y-120229761D01*
X194358333Y-120182142D01*
X194405952Y-120086904D01*
X194453571Y-119896428D01*
X194453571Y-119658333D01*
X194405952Y-119467857D01*
X194358333Y-119372619D01*
X194310714Y-119325000D01*
X194215476Y-119277380D01*
X203025000Y-121927380D02*
X203501190Y-121927380D01*
X203501190Y-120927380D01*
X202691666Y-121403571D02*
X202358333Y-121403571D01*
X202215476Y-121927380D02*
X202691666Y-121927380D01*
X202691666Y-120927380D01*
X202215476Y-120927380D01*
X201453571Y-121403571D02*
X201786904Y-121403571D01*
X201786904Y-121927380D02*
X201786904Y-120927380D01*
X201310714Y-120927380D01*
X201072619Y-120927380D02*
X200501190Y-120927380D01*
X200786904Y-121927380D02*
X200786904Y-120927380D01*
X199453571Y-121879761D02*
X199310714Y-121927380D01*
X199072619Y-121927380D01*
X198977380Y-121879761D01*
X198929761Y-121832142D01*
X198882142Y-121736904D01*
X198882142Y-121641666D01*
X198929761Y-121546428D01*
X198977380Y-121498809D01*
X199072619Y-121451190D01*
X199263095Y-121403571D01*
X199358333Y-121355952D01*
X199405952Y-121308333D01*
X199453571Y-121213095D01*
X199453571Y-121117857D01*
X199405952Y-121022619D01*
X199358333Y-120975000D01*
X199263095Y-120927380D01*
X199025000Y-120927380D01*
X198882142Y-120975000D01*
X198453571Y-121927380D02*
X198453571Y-120927380D01*
X197977380Y-121927380D02*
X197977380Y-120927380D01*
X197739285Y-120927380D01*
X197596428Y-120975000D01*
X197501190Y-121070238D01*
X197453571Y-121165476D01*
X197405952Y-121355952D01*
X197405952Y-121498809D01*
X197453571Y-121689285D01*
X197501190Y-121784523D01*
X197596428Y-121879761D01*
X197739285Y-121927380D01*
X197977380Y-121927380D01*
X196977380Y-121403571D02*
X196644047Y-121403571D01*
X196501190Y-121927380D02*
X196977380Y-121927380D01*
X196977380Y-120927380D01*
X196501190Y-120927380D01*
D11*
G04 #@! TO.C,U1*
X223440000Y-21272500D02*
X220900000Y-21272500D01*
X238680000Y-18732500D02*
X220900000Y-18732500D01*
X220900000Y-18732500D02*
X220900000Y-51752500D01*
X220900000Y-51752500D02*
X238680000Y-51752500D01*
X238680000Y-51752500D02*
X238680000Y-18732500D01*
D10*
G36*
X235634635Y-27161530D02*
G01*
X235634635Y-27261530D01*
X236134635Y-27261530D01*
X236134635Y-27161530D01*
X235634635Y-27161530D01*
G37*
X235634635Y-27161530D02*
X235634635Y-27261530D01*
X236134635Y-27261530D01*
X236134635Y-27161530D01*
X235634635Y-27161530D01*
G36*
X235634635Y-27161530D02*
G01*
X235634635Y-27461530D01*
X235734635Y-27461530D01*
X235734635Y-27161530D01*
X235634635Y-27161530D01*
G37*
X235634635Y-27161530D02*
X235634635Y-27461530D01*
X235734635Y-27461530D01*
X235734635Y-27161530D01*
X235634635Y-27161530D01*
G36*
X235634635Y-27761530D02*
G01*
X235634635Y-27961530D01*
X235734635Y-27961530D01*
X235734635Y-27761530D01*
X235634635Y-27761530D01*
G37*
X235634635Y-27761530D02*
X235634635Y-27961530D01*
X235734635Y-27961530D01*
X235734635Y-27761530D01*
X235634635Y-27761530D01*
G36*
X236034635Y-27161530D02*
G01*
X236034635Y-27961530D01*
X236134635Y-27961530D01*
X236134635Y-27161530D01*
X236034635Y-27161530D01*
G37*
X236034635Y-27161530D02*
X236034635Y-27961530D01*
X236134635Y-27961530D01*
X236134635Y-27161530D01*
X236034635Y-27161530D01*
G36*
X235834635Y-27561530D02*
G01*
X235834635Y-27661530D01*
X235934635Y-27661530D01*
X235934635Y-27561530D01*
X235834635Y-27561530D01*
G37*
X235834635Y-27561530D02*
X235834635Y-27661530D01*
X235934635Y-27661530D01*
X235934635Y-27561530D01*
X235834635Y-27561530D01*
D11*
X223440000Y-21272500D02*
X223440000Y-23812500D01*
X223440000Y-23812500D02*
X220900000Y-23812500D01*
D10*
G04 #@! TO.C,OL1*
X224948750Y-58420000D02*
X224948750Y-55880000D01*
X235108750Y-58420000D02*
X224948750Y-58420000D01*
X235108750Y-55880000D02*
X235108750Y-58420000D01*
X224948750Y-55880000D02*
X235108750Y-55880000D01*
D12*
G04 #@! TO.C,D45*
X214443750Y-117681250D02*
X218343750Y-117681250D01*
X214443750Y-115681250D02*
X218343750Y-115681250D01*
X214443750Y-117681250D02*
X214443750Y-115681250D01*
G04 #@! TO.C,D44*
X214443750Y-125618750D02*
X218343750Y-125618750D01*
X214443750Y-123618750D02*
X218343750Y-123618750D01*
X214443750Y-125618750D02*
X214443750Y-123618750D01*
G04 #@! TO.C,D43*
X169993750Y-140700000D02*
X173893750Y-140700000D01*
X169993750Y-138700000D02*
X173893750Y-138700000D01*
X169993750Y-140700000D02*
X169993750Y-138700000D01*
G04 #@! TO.C,D42*
X150580000Y-140570000D02*
X154480000Y-140570000D01*
X150580000Y-138570000D02*
X154480000Y-138570000D01*
X150580000Y-140570000D02*
X150580000Y-138570000D01*
G04 #@! TO.C,D41*
X127114290Y-139911100D02*
X131014290Y-139911100D01*
X127114290Y-137911100D02*
X131014290Y-137911100D01*
X127114290Y-139911100D02*
X127114290Y-137911100D01*
G04 #@! TO.C,D40*
X108064290Y-139911100D02*
X111964290Y-139911100D01*
X108064290Y-137911100D02*
X111964290Y-137911100D01*
X108064290Y-139911100D02*
X108064290Y-137911100D01*
G04 #@! TO.C,D35*
X203331250Y-110063020D02*
X207231250Y-110063020D01*
X203331250Y-108063020D02*
X207231250Y-108063020D01*
X203331250Y-110063020D02*
X203331250Y-108063020D01*
G04 #@! TO.C,D34*
X184281250Y-108983020D02*
X188181250Y-108983020D01*
X184281250Y-106983020D02*
X188181250Y-106983020D01*
X184281250Y-108983020D02*
X184281250Y-106983020D01*
G04 #@! TO.C,D33*
X165231250Y-104187500D02*
X169131250Y-104187500D01*
X165231250Y-102187500D02*
X169131250Y-102187500D01*
X165231250Y-104187500D02*
X165231250Y-102187500D01*
G04 #@! TO.C,D32*
X146181250Y-107362500D02*
X150081250Y-107362500D01*
X146181250Y-105362500D02*
X150081250Y-105362500D01*
X146181250Y-107362500D02*
X146181250Y-105362500D01*
G04 #@! TO.C,D31*
X127118550Y-122452640D02*
X131018550Y-122452640D01*
X127118550Y-120452640D02*
X131018550Y-120452640D01*
X127118550Y-122452640D02*
X127118550Y-120452640D01*
G04 #@! TO.C,D30*
X108068550Y-122452640D02*
X111968550Y-122452640D01*
X108068550Y-120452640D02*
X111968550Y-120452640D01*
X108068550Y-122452640D02*
X108068550Y-120452640D01*
G04 #@! TO.C,D25*
X203331250Y-91013020D02*
X207231250Y-91013020D01*
X203331250Y-89013020D02*
X207231250Y-89013020D01*
X203331250Y-91013020D02*
X203331250Y-89013020D01*
G04 #@! TO.C,D24*
X184281250Y-89933020D02*
X188181250Y-89933020D01*
X184281250Y-87933020D02*
X188181250Y-87933020D01*
X184281250Y-89933020D02*
X184281250Y-87933020D01*
G04 #@! TO.C,D23*
X165231250Y-85137500D02*
X169131250Y-85137500D01*
X165231250Y-83137500D02*
X169131250Y-83137500D01*
X165231250Y-85137500D02*
X165231250Y-83137500D01*
G04 #@! TO.C,D22*
X146181250Y-88312500D02*
X150081250Y-88312500D01*
X146181250Y-86312500D02*
X150081250Y-86312500D01*
X146181250Y-88312500D02*
X146181250Y-86312500D01*
G04 #@! TO.C,D21*
X127118550Y-103402640D02*
X131018550Y-103402640D01*
X127118550Y-101402640D02*
X131018550Y-101402640D01*
X127118550Y-103402640D02*
X127118550Y-101402640D01*
G04 #@! TO.C,D20*
X108068550Y-103402640D02*
X111968550Y-103402640D01*
X108068550Y-101402640D02*
X111968550Y-101402640D01*
X108068550Y-103402640D02*
X108068550Y-101402640D01*
G04 #@! TO.C,D15*
X203331250Y-71963020D02*
X207231250Y-71963020D01*
X203331250Y-69963020D02*
X207231250Y-69963020D01*
X203331250Y-71963020D02*
X203331250Y-69963020D01*
G04 #@! TO.C,D14*
X184281250Y-70883020D02*
X188181250Y-70883020D01*
X184281250Y-68883020D02*
X188181250Y-68883020D01*
X184281250Y-70883020D02*
X184281250Y-68883020D01*
G04 #@! TO.C,D13*
X165231250Y-66087500D02*
X169131250Y-66087500D01*
X165231250Y-64087500D02*
X169131250Y-64087500D01*
X165231250Y-66087500D02*
X165231250Y-64087500D01*
G04 #@! TO.C,D12*
X146181250Y-69262500D02*
X150081250Y-69262500D01*
X146181250Y-67262500D02*
X150081250Y-67262500D01*
X146181250Y-69262500D02*
X146181250Y-67262500D01*
G04 #@! TO.C,D11*
X127118550Y-84352640D02*
X131018550Y-84352640D01*
X127118550Y-82352640D02*
X131018550Y-82352640D01*
X127118550Y-84352640D02*
X127118550Y-82352640D01*
G04 #@! TO.C,D10*
X108068550Y-84352640D02*
X111968550Y-84352640D01*
X108068550Y-82352640D02*
X111968550Y-82352640D01*
X108068550Y-84352640D02*
X108068550Y-82352640D01*
G04 #@! TO.C,D05*
X203331250Y-42275000D02*
X207231250Y-42275000D01*
X203331250Y-40275000D02*
X207231250Y-40275000D01*
X203331250Y-42275000D02*
X203331250Y-40275000D01*
G04 #@! TO.C,D04*
X184281250Y-42275000D02*
X188181250Y-42275000D01*
X184281250Y-40275000D02*
X188181250Y-40275000D01*
X184281250Y-42275000D02*
X184281250Y-40275000D01*
G04 #@! TO.C,D03*
X165231250Y-42275000D02*
X169131250Y-42275000D01*
X165231250Y-40275000D02*
X169131250Y-40275000D01*
X165231250Y-42275000D02*
X165231250Y-40275000D01*
G04 #@! TO.C,U1*
D10*
X235363333Y-27926309D02*
X235249047Y-27964404D01*
X235058571Y-27964404D01*
X234982380Y-27926309D01*
X234944285Y-27888214D01*
X234906190Y-27812023D01*
X234906190Y-27735833D01*
X234944285Y-27659642D01*
X234982380Y-27621547D01*
X235058571Y-27583452D01*
X235210952Y-27545357D01*
X235287142Y-27507261D01*
X235325238Y-27469166D01*
X235363333Y-27392976D01*
X235363333Y-27316785D01*
X235325238Y-27240595D01*
X235287142Y-27202500D01*
X235210952Y-27164404D01*
X235020476Y-27164404D01*
X234906190Y-27202500D01*
X234677619Y-27164404D02*
X234220476Y-27164404D01*
X234449047Y-27964404D02*
X234449047Y-27164404D01*
X228408604Y-22104404D02*
X227951461Y-22104404D01*
X228180032Y-22904404D02*
X228180032Y-22104404D01*
X227760985Y-22104404D02*
X227227651Y-22904404D01*
X227227651Y-22104404D02*
X227760985Y-22904404D01*
X226770508Y-22104404D02*
X226694318Y-22104404D01*
X226618128Y-22142500D01*
X226580032Y-22180595D01*
X226541937Y-22256785D01*
X226503842Y-22409166D01*
X226503842Y-22599642D01*
X226541937Y-22752023D01*
X226580032Y-22828214D01*
X226618128Y-22866309D01*
X226694318Y-22904404D01*
X226770508Y-22904404D01*
X226846699Y-22866309D01*
X226884794Y-22828214D01*
X226922889Y-22752023D01*
X226960985Y-22599642D01*
X226960985Y-22409166D01*
X226922889Y-22256785D01*
X226884794Y-22180595D01*
X226846699Y-22142500D01*
X226770508Y-22104404D01*
X225589556Y-22066309D02*
X226275270Y-23094880D01*
X225322889Y-22904404D02*
X225322889Y-22104404D01*
X225132413Y-22104404D01*
X225018128Y-22142500D01*
X224941937Y-22218690D01*
X224903842Y-22294880D01*
X224865747Y-22447261D01*
X224865747Y-22561547D01*
X224903842Y-22713928D01*
X224941937Y-22790119D01*
X225018128Y-22866309D01*
X225132413Y-22904404D01*
X225322889Y-22904404D01*
X224599080Y-22104404D02*
X224103842Y-22104404D01*
X224370508Y-22409166D01*
X224256223Y-22409166D01*
X224180032Y-22447261D01*
X224141937Y-22485357D01*
X224103842Y-22561547D01*
X224103842Y-22752023D01*
X224141937Y-22828214D01*
X224180032Y-22866309D01*
X224256223Y-22904404D01*
X224484794Y-22904404D01*
X224560985Y-22866309D01*
X224599080Y-22828214D01*
X235574809Y-47885357D02*
X235460523Y-47923452D01*
X235422428Y-47961547D01*
X235384333Y-48037738D01*
X235384333Y-48152023D01*
X235422428Y-48228214D01*
X235460523Y-48266309D01*
X235536714Y-48304404D01*
X235841476Y-48304404D01*
X235841476Y-47504404D01*
X235574809Y-47504404D01*
X235498619Y-47542500D01*
X235460523Y-47580595D01*
X235422428Y-47656785D01*
X235422428Y-47732976D01*
X235460523Y-47809166D01*
X235498619Y-47847261D01*
X235574809Y-47885357D01*
X235841476Y-47885357D01*
X235079571Y-47580595D02*
X235041476Y-47542500D01*
X234965285Y-47504404D01*
X234774809Y-47504404D01*
X234698619Y-47542500D01*
X234660523Y-47580595D01*
X234622428Y-47656785D01*
X234622428Y-47732976D01*
X234660523Y-47847261D01*
X235117666Y-48304404D01*
X234622428Y-48304404D01*
X235517666Y-40265357D02*
X235784333Y-40265357D01*
X235784333Y-40684404D02*
X235784333Y-39884404D01*
X235403380Y-39884404D01*
X235174809Y-39884404D02*
X234641476Y-39884404D01*
X234984333Y-40684404D01*
X235517666Y-37725357D02*
X235784333Y-37725357D01*
X235784333Y-38144404D02*
X235784333Y-37344404D01*
X235403380Y-37344404D01*
X234755761Y-37344404D02*
X234908142Y-37344404D01*
X234984333Y-37382500D01*
X235022428Y-37420595D01*
X235098619Y-37534880D01*
X235136714Y-37687261D01*
X235136714Y-37992023D01*
X235098619Y-38068214D01*
X235060523Y-38106309D01*
X234984333Y-38144404D01*
X234831952Y-38144404D01*
X234755761Y-38106309D01*
X234717666Y-38068214D01*
X234679571Y-37992023D01*
X234679571Y-37801547D01*
X234717666Y-37725357D01*
X234755761Y-37687261D01*
X234831952Y-37649166D01*
X234984333Y-37649166D01*
X235060523Y-37687261D01*
X235098619Y-37725357D01*
X235136714Y-37801547D01*
X235517666Y-35185357D02*
X235784333Y-35185357D01*
X235784333Y-35604404D02*
X235784333Y-34804404D01*
X235403380Y-34804404D01*
X234717666Y-34804404D02*
X235098619Y-34804404D01*
X235136714Y-35185357D01*
X235098619Y-35147261D01*
X235022428Y-35109166D01*
X234831952Y-35109166D01*
X234755761Y-35147261D01*
X234717666Y-35185357D01*
X234679571Y-35261547D01*
X234679571Y-35452023D01*
X234717666Y-35528214D01*
X234755761Y-35566309D01*
X234831952Y-35604404D01*
X235022428Y-35604404D01*
X235098619Y-35566309D01*
X235136714Y-35528214D01*
X235803380Y-22904404D02*
X236070047Y-22523452D01*
X236260523Y-22904404D02*
X236260523Y-22104404D01*
X235955761Y-22104404D01*
X235879571Y-22142500D01*
X235841476Y-22180595D01*
X235803380Y-22256785D01*
X235803380Y-22371071D01*
X235841476Y-22447261D01*
X235879571Y-22485357D01*
X235955761Y-22523452D01*
X236260523Y-22523452D01*
X235498619Y-22675833D02*
X235117666Y-22675833D01*
X235574809Y-22904404D02*
X235308142Y-22104404D01*
X235041476Y-22904404D01*
X234851000Y-22104404D02*
X234660523Y-22904404D01*
X234508142Y-22332976D01*
X234355761Y-22904404D01*
X234165285Y-22104404D01*
X235860523Y-24682500D02*
X235936714Y-24644404D01*
X236051000Y-24644404D01*
X236165285Y-24682500D01*
X236241476Y-24758690D01*
X236279571Y-24834880D01*
X236317666Y-24987261D01*
X236317666Y-25101547D01*
X236279571Y-25253928D01*
X236241476Y-25330119D01*
X236165285Y-25406309D01*
X236051000Y-25444404D01*
X235974809Y-25444404D01*
X235860523Y-25406309D01*
X235822428Y-25368214D01*
X235822428Y-25101547D01*
X235974809Y-25101547D01*
X235479571Y-25444404D02*
X235479571Y-24644404D01*
X235022428Y-25444404D01*
X235022428Y-24644404D01*
X234641476Y-25444404D02*
X234641476Y-24644404D01*
X234451000Y-24644404D01*
X234336714Y-24682500D01*
X234260523Y-24758690D01*
X234222428Y-24834880D01*
X234184333Y-24987261D01*
X234184333Y-25101547D01*
X234222428Y-25253928D01*
X234260523Y-25330119D01*
X234336714Y-25406309D01*
X234451000Y-25444404D01*
X234641476Y-25444404D01*
X236317666Y-29724404D02*
X236051000Y-30524404D01*
X235784333Y-29724404D01*
X235060523Y-30448214D02*
X235098619Y-30486309D01*
X235212904Y-30524404D01*
X235289095Y-30524404D01*
X235403380Y-30486309D01*
X235479571Y-30410119D01*
X235517666Y-30333928D01*
X235555761Y-30181547D01*
X235555761Y-30067261D01*
X235517666Y-29914880D01*
X235479571Y-29838690D01*
X235403380Y-29762500D01*
X235289095Y-29724404D01*
X235212904Y-29724404D01*
X235098619Y-29762500D01*
X235060523Y-29800595D01*
X234260523Y-30448214D02*
X234298619Y-30486309D01*
X234412904Y-30524404D01*
X234489095Y-30524404D01*
X234603380Y-30486309D01*
X234679571Y-30410119D01*
X234717666Y-30333928D01*
X234755761Y-30181547D01*
X234755761Y-30067261D01*
X234717666Y-29914880D01*
X234679571Y-29838690D01*
X234603380Y-29762500D01*
X234489095Y-29724404D01*
X234412904Y-29724404D01*
X234298619Y-29762500D01*
X234260523Y-29800595D01*
X235517666Y-32645357D02*
X235784333Y-32645357D01*
X235784333Y-33064404D02*
X235784333Y-32264404D01*
X235403380Y-32264404D01*
X234755761Y-32531071D02*
X234755761Y-33064404D01*
X234946238Y-32226309D02*
X235136714Y-32797738D01*
X234641476Y-32797738D01*
X235574809Y-42805357D02*
X235460523Y-42843452D01*
X235422428Y-42881547D01*
X235384333Y-42957738D01*
X235384333Y-43072023D01*
X235422428Y-43148214D01*
X235460523Y-43186309D01*
X235536714Y-43224404D01*
X235841476Y-43224404D01*
X235841476Y-42424404D01*
X235574809Y-42424404D01*
X235498619Y-42462500D01*
X235460523Y-42500595D01*
X235422428Y-42576785D01*
X235422428Y-42652976D01*
X235460523Y-42729166D01*
X235498619Y-42767261D01*
X235574809Y-42805357D01*
X235841476Y-42805357D01*
X234622428Y-43224404D02*
X235079571Y-43224404D01*
X234851000Y-43224404D02*
X234851000Y-42424404D01*
X234927190Y-42538690D01*
X235003380Y-42614880D01*
X235079571Y-42652976D01*
X235574809Y-45345357D02*
X235460523Y-45383452D01*
X235422428Y-45421547D01*
X235384333Y-45497738D01*
X235384333Y-45612023D01*
X235422428Y-45688214D01*
X235460523Y-45726309D01*
X235536714Y-45764404D01*
X235841476Y-45764404D01*
X235841476Y-44964404D01*
X235574809Y-44964404D01*
X235498619Y-45002500D01*
X235460523Y-45040595D01*
X235422428Y-45116785D01*
X235422428Y-45192976D01*
X235460523Y-45269166D01*
X235498619Y-45307261D01*
X235574809Y-45345357D01*
X235841476Y-45345357D01*
X235117666Y-44964404D02*
X234622428Y-44964404D01*
X234889095Y-45269166D01*
X234774809Y-45269166D01*
X234698619Y-45307261D01*
X234660523Y-45345357D01*
X234622428Y-45421547D01*
X234622428Y-45612023D01*
X234660523Y-45688214D01*
X234698619Y-45726309D01*
X234774809Y-45764404D01*
X235003380Y-45764404D01*
X235079571Y-45726309D01*
X235117666Y-45688214D01*
X235574809Y-50425357D02*
X235460523Y-50463452D01*
X235422428Y-50501547D01*
X235384333Y-50577738D01*
X235384333Y-50692023D01*
X235422428Y-50768214D01*
X235460523Y-50806309D01*
X235536714Y-50844404D01*
X235841476Y-50844404D01*
X235841476Y-50044404D01*
X235574809Y-50044404D01*
X235498619Y-50082500D01*
X235460523Y-50120595D01*
X235422428Y-50196785D01*
X235422428Y-50272976D01*
X235460523Y-50349166D01*
X235498619Y-50387261D01*
X235574809Y-50425357D01*
X235841476Y-50425357D01*
X234698619Y-50044404D02*
X234851000Y-50044404D01*
X234927190Y-50082500D01*
X234965285Y-50120595D01*
X235041476Y-50234880D01*
X235079571Y-50387261D01*
X235079571Y-50692023D01*
X235041476Y-50768214D01*
X235003380Y-50806309D01*
X234927190Y-50844404D01*
X234774809Y-50844404D01*
X234698619Y-50806309D01*
X234660523Y-50768214D01*
X234622428Y-50692023D01*
X234622428Y-50501547D01*
X234660523Y-50425357D01*
X234698619Y-50387261D01*
X234774809Y-50349166D01*
X234927190Y-50349166D01*
X235003380Y-50387261D01*
X235041476Y-50425357D01*
X235079571Y-50501547D01*
X224652809Y-50425357D02*
X224538523Y-50463452D01*
X224500428Y-50501547D01*
X224462333Y-50577738D01*
X224462333Y-50692023D01*
X224500428Y-50768214D01*
X224538523Y-50806309D01*
X224614714Y-50844404D01*
X224919476Y-50844404D01*
X224919476Y-50044404D01*
X224652809Y-50044404D01*
X224576619Y-50082500D01*
X224538523Y-50120595D01*
X224500428Y-50196785D01*
X224500428Y-50272976D01*
X224538523Y-50349166D01*
X224576619Y-50387261D01*
X224652809Y-50425357D01*
X224919476Y-50425357D01*
X223738523Y-50044404D02*
X224119476Y-50044404D01*
X224157571Y-50425357D01*
X224119476Y-50387261D01*
X224043285Y-50349166D01*
X223852809Y-50349166D01*
X223776619Y-50387261D01*
X223738523Y-50425357D01*
X223700428Y-50501547D01*
X223700428Y-50692023D01*
X223738523Y-50768214D01*
X223776619Y-50806309D01*
X223852809Y-50844404D01*
X224043285Y-50844404D01*
X224119476Y-50806309D01*
X224157571Y-50768214D01*
X224652809Y-47885357D02*
X224538523Y-47923452D01*
X224500428Y-47961547D01*
X224462333Y-48037738D01*
X224462333Y-48152023D01*
X224500428Y-48228214D01*
X224538523Y-48266309D01*
X224614714Y-48304404D01*
X224919476Y-48304404D01*
X224919476Y-47504404D01*
X224652809Y-47504404D01*
X224576619Y-47542500D01*
X224538523Y-47580595D01*
X224500428Y-47656785D01*
X224500428Y-47732976D01*
X224538523Y-47809166D01*
X224576619Y-47847261D01*
X224652809Y-47885357D01*
X224919476Y-47885357D01*
X223776619Y-47771071D02*
X223776619Y-48304404D01*
X223967095Y-47466309D02*
X224157571Y-48037738D01*
X223662333Y-48037738D01*
X224881380Y-45345357D02*
X224614714Y-45345357D01*
X224500428Y-45764404D02*
X224881380Y-45764404D01*
X224881380Y-44964404D01*
X224500428Y-44964404D01*
X223814714Y-44964404D02*
X223967095Y-44964404D01*
X224043285Y-45002500D01*
X224081380Y-45040595D01*
X224157571Y-45154880D01*
X224195666Y-45307261D01*
X224195666Y-45612023D01*
X224157571Y-45688214D01*
X224119476Y-45726309D01*
X224043285Y-45764404D01*
X223890904Y-45764404D01*
X223814714Y-45726309D01*
X223776619Y-45688214D01*
X223738523Y-45612023D01*
X223738523Y-45421547D01*
X223776619Y-45345357D01*
X223814714Y-45307261D01*
X223890904Y-45269166D01*
X224043285Y-45269166D01*
X224119476Y-45307261D01*
X224157571Y-45345357D01*
X224195666Y-45421547D01*
X224919476Y-43224404D02*
X224919476Y-42424404D01*
X224729000Y-42424404D01*
X224614714Y-42462500D01*
X224538523Y-42538690D01*
X224500428Y-42614880D01*
X224462333Y-42767261D01*
X224462333Y-42881547D01*
X224500428Y-43033928D01*
X224538523Y-43110119D01*
X224614714Y-43186309D01*
X224729000Y-43224404D01*
X224919476Y-43224404D01*
X224195666Y-42424404D02*
X223662333Y-42424404D01*
X224005190Y-43224404D01*
X224462333Y-40608214D02*
X224500428Y-40646309D01*
X224614714Y-40684404D01*
X224690904Y-40684404D01*
X224805190Y-40646309D01*
X224881380Y-40570119D01*
X224919476Y-40493928D01*
X224957571Y-40341547D01*
X224957571Y-40227261D01*
X224919476Y-40074880D01*
X224881380Y-39998690D01*
X224805190Y-39922500D01*
X224690904Y-39884404D01*
X224614714Y-39884404D01*
X224500428Y-39922500D01*
X224462333Y-39960595D01*
X223776619Y-39884404D02*
X223929000Y-39884404D01*
X224005190Y-39922500D01*
X224043285Y-39960595D01*
X224119476Y-40074880D01*
X224157571Y-40227261D01*
X224157571Y-40532023D01*
X224119476Y-40608214D01*
X224081380Y-40646309D01*
X224005190Y-40684404D01*
X223852809Y-40684404D01*
X223776619Y-40646309D01*
X223738523Y-40608214D01*
X223700428Y-40532023D01*
X223700428Y-40341547D01*
X223738523Y-40265357D01*
X223776619Y-40227261D01*
X223852809Y-40189166D01*
X224005190Y-40189166D01*
X224081380Y-40227261D01*
X224119476Y-40265357D01*
X224157571Y-40341547D01*
X224919476Y-38144404D02*
X224919476Y-37344404D01*
X224729000Y-37344404D01*
X224614714Y-37382500D01*
X224538523Y-37458690D01*
X224500428Y-37534880D01*
X224462333Y-37687261D01*
X224462333Y-37801547D01*
X224500428Y-37953928D01*
X224538523Y-38030119D01*
X224614714Y-38106309D01*
X224729000Y-38144404D01*
X224919476Y-38144404D01*
X223776619Y-37611071D02*
X223776619Y-38144404D01*
X223967095Y-37306309D02*
X224157571Y-37877738D01*
X223662333Y-37877738D01*
X224938523Y-27222500D02*
X225014714Y-27184404D01*
X225129000Y-27184404D01*
X225243285Y-27222500D01*
X225319476Y-27298690D01*
X225357571Y-27374880D01*
X225395666Y-27527261D01*
X225395666Y-27641547D01*
X225357571Y-27793928D01*
X225319476Y-27870119D01*
X225243285Y-27946309D01*
X225129000Y-27984404D01*
X225052809Y-27984404D01*
X224938523Y-27946309D01*
X224900428Y-27908214D01*
X224900428Y-27641547D01*
X225052809Y-27641547D01*
X224557571Y-27984404D02*
X224557571Y-27184404D01*
X224100428Y-27984404D01*
X224100428Y-27184404D01*
X223719476Y-27984404D02*
X223719476Y-27184404D01*
X223529000Y-27184404D01*
X223414714Y-27222500D01*
X223338523Y-27298690D01*
X223300428Y-27374880D01*
X223262333Y-27527261D01*
X223262333Y-27641547D01*
X223300428Y-27793928D01*
X223338523Y-27870119D01*
X223414714Y-27946309D01*
X223529000Y-27984404D01*
X223719476Y-27984404D01*
X224938523Y-29762500D02*
X225014714Y-29724404D01*
X225129000Y-29724404D01*
X225243285Y-29762500D01*
X225319476Y-29838690D01*
X225357571Y-29914880D01*
X225395666Y-30067261D01*
X225395666Y-30181547D01*
X225357571Y-30333928D01*
X225319476Y-30410119D01*
X225243285Y-30486309D01*
X225129000Y-30524404D01*
X225052809Y-30524404D01*
X224938523Y-30486309D01*
X224900428Y-30448214D01*
X224900428Y-30181547D01*
X225052809Y-30181547D01*
X224557571Y-30524404D02*
X224557571Y-29724404D01*
X224100428Y-30524404D01*
X224100428Y-29724404D01*
X223719476Y-30524404D02*
X223719476Y-29724404D01*
X223529000Y-29724404D01*
X223414714Y-29762500D01*
X223338523Y-29838690D01*
X223300428Y-29914880D01*
X223262333Y-30067261D01*
X223262333Y-30181547D01*
X223300428Y-30333928D01*
X223338523Y-30410119D01*
X223414714Y-30486309D01*
X223529000Y-30524404D01*
X223719476Y-30524404D01*
X224919476Y-33064404D02*
X224919476Y-32264404D01*
X224729000Y-32264404D01*
X224614714Y-32302500D01*
X224538523Y-32378690D01*
X224500428Y-32454880D01*
X224462333Y-32607261D01*
X224462333Y-32721547D01*
X224500428Y-32873928D01*
X224538523Y-32950119D01*
X224614714Y-33026309D01*
X224729000Y-33064404D01*
X224919476Y-33064404D01*
X223700428Y-33064404D02*
X224157571Y-33064404D01*
X223929000Y-33064404D02*
X223929000Y-32264404D01*
X224005190Y-32378690D01*
X224081380Y-32454880D01*
X224157571Y-32492976D01*
X224919476Y-35604404D02*
X224919476Y-34804404D01*
X224729000Y-34804404D01*
X224614714Y-34842500D01*
X224538523Y-34918690D01*
X224500428Y-34994880D01*
X224462333Y-35147261D01*
X224462333Y-35261547D01*
X224500428Y-35413928D01*
X224538523Y-35490119D01*
X224614714Y-35566309D01*
X224729000Y-35604404D01*
X224919476Y-35604404D01*
X223967095Y-34804404D02*
X223890904Y-34804404D01*
X223814714Y-34842500D01*
X223776619Y-34880595D01*
X223738523Y-34956785D01*
X223700428Y-35109166D01*
X223700428Y-35299642D01*
X223738523Y-35452023D01*
X223776619Y-35528214D01*
X223814714Y-35566309D01*
X223890904Y-35604404D01*
X223967095Y-35604404D01*
X224043285Y-35566309D01*
X224081380Y-35528214D01*
X224119476Y-35452023D01*
X224157571Y-35299642D01*
X224157571Y-35109166D01*
X224119476Y-34956785D01*
X224081380Y-34880595D01*
X224043285Y-34842500D01*
X223967095Y-34804404D01*
X224919476Y-25444404D02*
X224919476Y-24644404D01*
X224729000Y-24644404D01*
X224614714Y-24682500D01*
X224538523Y-24758690D01*
X224500428Y-24834880D01*
X224462333Y-24987261D01*
X224462333Y-25101547D01*
X224500428Y-25253928D01*
X224538523Y-25330119D01*
X224614714Y-25406309D01*
X224729000Y-25444404D01*
X224919476Y-25444404D01*
X224157571Y-24720595D02*
X224119476Y-24682500D01*
X224043285Y-24644404D01*
X223852809Y-24644404D01*
X223776619Y-24682500D01*
X223738523Y-24720595D01*
X223700428Y-24796785D01*
X223700428Y-24872976D01*
X223738523Y-24987261D01*
X224195666Y-25444404D01*
X223700428Y-25444404D01*
G04 #@! TO.C,D45*
X217908035Y-119133630D02*
X217908035Y-118133630D01*
X217669940Y-118133630D01*
X217527083Y-118181250D01*
X217431845Y-118276488D01*
X217384226Y-118371726D01*
X217336607Y-118562202D01*
X217336607Y-118705059D01*
X217384226Y-118895535D01*
X217431845Y-118990773D01*
X217527083Y-119086011D01*
X217669940Y-119133630D01*
X217908035Y-119133630D01*
X216479464Y-118466964D02*
X216479464Y-119133630D01*
X216717559Y-118086011D02*
X216955654Y-118800297D01*
X216336607Y-118800297D01*
X215479464Y-118133630D02*
X215955654Y-118133630D01*
X216003273Y-118609821D01*
X215955654Y-118562202D01*
X215860416Y-118514583D01*
X215622321Y-118514583D01*
X215527083Y-118562202D01*
X215479464Y-118609821D01*
X215431845Y-118705059D01*
X215431845Y-118943154D01*
X215479464Y-119038392D01*
X215527083Y-119086011D01*
X215622321Y-119133630D01*
X215860416Y-119133630D01*
X215955654Y-119086011D01*
X216003273Y-119038392D01*
G04 #@! TO.C,D44*
X217908035Y-127071130D02*
X217908035Y-126071130D01*
X217669940Y-126071130D01*
X217527083Y-126118750D01*
X217431845Y-126213988D01*
X217384226Y-126309226D01*
X217336607Y-126499702D01*
X217336607Y-126642559D01*
X217384226Y-126833035D01*
X217431845Y-126928273D01*
X217527083Y-127023511D01*
X217669940Y-127071130D01*
X217908035Y-127071130D01*
X216479464Y-126404464D02*
X216479464Y-127071130D01*
X216717559Y-126023511D02*
X216955654Y-126737797D01*
X216336607Y-126737797D01*
X215527083Y-126404464D02*
X215527083Y-127071130D01*
X215765178Y-126023511D02*
X216003273Y-126737797D01*
X215384226Y-126737797D01*
G04 #@! TO.C,D43*
X173458035Y-142152380D02*
X173458035Y-141152380D01*
X173219940Y-141152380D01*
X173077083Y-141200000D01*
X172981845Y-141295238D01*
X172934226Y-141390476D01*
X172886607Y-141580952D01*
X172886607Y-141723809D01*
X172934226Y-141914285D01*
X172981845Y-142009523D01*
X173077083Y-142104761D01*
X173219940Y-142152380D01*
X173458035Y-142152380D01*
X172029464Y-141485714D02*
X172029464Y-142152380D01*
X172267559Y-141104761D02*
X172505654Y-141819047D01*
X171886607Y-141819047D01*
X171600892Y-141152380D02*
X170981845Y-141152380D01*
X171315178Y-141533333D01*
X171172321Y-141533333D01*
X171077083Y-141580952D01*
X171029464Y-141628571D01*
X170981845Y-141723809D01*
X170981845Y-141961904D01*
X171029464Y-142057142D01*
X171077083Y-142104761D01*
X171172321Y-142152380D01*
X171458035Y-142152380D01*
X171553273Y-142104761D01*
X171600892Y-142057142D01*
G04 #@! TO.C,D42*
X154044285Y-142022380D02*
X154044285Y-141022380D01*
X153806190Y-141022380D01*
X153663333Y-141070000D01*
X153568095Y-141165238D01*
X153520476Y-141260476D01*
X153472857Y-141450952D01*
X153472857Y-141593809D01*
X153520476Y-141784285D01*
X153568095Y-141879523D01*
X153663333Y-141974761D01*
X153806190Y-142022380D01*
X154044285Y-142022380D01*
X152615714Y-141355714D02*
X152615714Y-142022380D01*
X152853809Y-140974761D02*
X153091904Y-141689047D01*
X152472857Y-141689047D01*
X152139523Y-141117619D02*
X152091904Y-141070000D01*
X151996666Y-141022380D01*
X151758571Y-141022380D01*
X151663333Y-141070000D01*
X151615714Y-141117619D01*
X151568095Y-141212857D01*
X151568095Y-141308095D01*
X151615714Y-141450952D01*
X152187142Y-142022380D01*
X151568095Y-142022380D01*
G04 #@! TO.C,D41*
X130578575Y-141363480D02*
X130578575Y-140363480D01*
X130340480Y-140363480D01*
X130197623Y-140411100D01*
X130102385Y-140506338D01*
X130054766Y-140601576D01*
X130007147Y-140792052D01*
X130007147Y-140934909D01*
X130054766Y-141125385D01*
X130102385Y-141220623D01*
X130197623Y-141315861D01*
X130340480Y-141363480D01*
X130578575Y-141363480D01*
X129150004Y-140696814D02*
X129150004Y-141363480D01*
X129388099Y-140315861D02*
X129626194Y-141030147D01*
X129007147Y-141030147D01*
X128102385Y-141363480D02*
X128673813Y-141363480D01*
X128388099Y-141363480D02*
X128388099Y-140363480D01*
X128483337Y-140506338D01*
X128578575Y-140601576D01*
X128673813Y-140649195D01*
G04 #@! TO.C,D40*
X111528575Y-141363480D02*
X111528575Y-140363480D01*
X111290480Y-140363480D01*
X111147623Y-140411100D01*
X111052385Y-140506338D01*
X111004766Y-140601576D01*
X110957147Y-140792052D01*
X110957147Y-140934909D01*
X111004766Y-141125385D01*
X111052385Y-141220623D01*
X111147623Y-141315861D01*
X111290480Y-141363480D01*
X111528575Y-141363480D01*
X110100004Y-140696814D02*
X110100004Y-141363480D01*
X110338099Y-140315861D02*
X110576194Y-141030147D01*
X109957147Y-141030147D01*
X109385718Y-140363480D02*
X109290480Y-140363480D01*
X109195242Y-140411100D01*
X109147623Y-140458719D01*
X109100004Y-140553957D01*
X109052385Y-140744433D01*
X109052385Y-140982528D01*
X109100004Y-141173004D01*
X109147623Y-141268242D01*
X109195242Y-141315861D01*
X109290480Y-141363480D01*
X109385718Y-141363480D01*
X109480956Y-141315861D01*
X109528575Y-141268242D01*
X109576194Y-141173004D01*
X109623813Y-140982528D01*
X109623813Y-140744433D01*
X109576194Y-140553957D01*
X109528575Y-140458719D01*
X109480956Y-140411100D01*
X109385718Y-140363480D01*
G04 #@! TO.C,D35*
X206795535Y-111515400D02*
X206795535Y-110515400D01*
X206557440Y-110515400D01*
X206414583Y-110563020D01*
X206319345Y-110658258D01*
X206271726Y-110753496D01*
X206224107Y-110943972D01*
X206224107Y-111086829D01*
X206271726Y-111277305D01*
X206319345Y-111372543D01*
X206414583Y-111467781D01*
X206557440Y-111515400D01*
X206795535Y-111515400D01*
X205890773Y-110515400D02*
X205271726Y-110515400D01*
X205605059Y-110896353D01*
X205462202Y-110896353D01*
X205366964Y-110943972D01*
X205319345Y-110991591D01*
X205271726Y-111086829D01*
X205271726Y-111324924D01*
X205319345Y-111420162D01*
X205366964Y-111467781D01*
X205462202Y-111515400D01*
X205747916Y-111515400D01*
X205843154Y-111467781D01*
X205890773Y-111420162D01*
X204366964Y-110515400D02*
X204843154Y-110515400D01*
X204890773Y-110991591D01*
X204843154Y-110943972D01*
X204747916Y-110896353D01*
X204509821Y-110896353D01*
X204414583Y-110943972D01*
X204366964Y-110991591D01*
X204319345Y-111086829D01*
X204319345Y-111324924D01*
X204366964Y-111420162D01*
X204414583Y-111467781D01*
X204509821Y-111515400D01*
X204747916Y-111515400D01*
X204843154Y-111467781D01*
X204890773Y-111420162D01*
G04 #@! TO.C,D34*
X187745535Y-110435400D02*
X187745535Y-109435400D01*
X187507440Y-109435400D01*
X187364583Y-109483020D01*
X187269345Y-109578258D01*
X187221726Y-109673496D01*
X187174107Y-109863972D01*
X187174107Y-110006829D01*
X187221726Y-110197305D01*
X187269345Y-110292543D01*
X187364583Y-110387781D01*
X187507440Y-110435400D01*
X187745535Y-110435400D01*
X186840773Y-109435400D02*
X186221726Y-109435400D01*
X186555059Y-109816353D01*
X186412202Y-109816353D01*
X186316964Y-109863972D01*
X186269345Y-109911591D01*
X186221726Y-110006829D01*
X186221726Y-110244924D01*
X186269345Y-110340162D01*
X186316964Y-110387781D01*
X186412202Y-110435400D01*
X186697916Y-110435400D01*
X186793154Y-110387781D01*
X186840773Y-110340162D01*
X185364583Y-109768734D02*
X185364583Y-110435400D01*
X185602678Y-109387781D02*
X185840773Y-110102067D01*
X185221726Y-110102067D01*
G04 #@! TO.C,D33*
X168695535Y-105639880D02*
X168695535Y-104639880D01*
X168457440Y-104639880D01*
X168314583Y-104687500D01*
X168219345Y-104782738D01*
X168171726Y-104877976D01*
X168124107Y-105068452D01*
X168124107Y-105211309D01*
X168171726Y-105401785D01*
X168219345Y-105497023D01*
X168314583Y-105592261D01*
X168457440Y-105639880D01*
X168695535Y-105639880D01*
X167790773Y-104639880D02*
X167171726Y-104639880D01*
X167505059Y-105020833D01*
X167362202Y-105020833D01*
X167266964Y-105068452D01*
X167219345Y-105116071D01*
X167171726Y-105211309D01*
X167171726Y-105449404D01*
X167219345Y-105544642D01*
X167266964Y-105592261D01*
X167362202Y-105639880D01*
X167647916Y-105639880D01*
X167743154Y-105592261D01*
X167790773Y-105544642D01*
X166838392Y-104639880D02*
X166219345Y-104639880D01*
X166552678Y-105020833D01*
X166409821Y-105020833D01*
X166314583Y-105068452D01*
X166266964Y-105116071D01*
X166219345Y-105211309D01*
X166219345Y-105449404D01*
X166266964Y-105544642D01*
X166314583Y-105592261D01*
X166409821Y-105639880D01*
X166695535Y-105639880D01*
X166790773Y-105592261D01*
X166838392Y-105544642D01*
G04 #@! TO.C,D32*
X149645535Y-108814880D02*
X149645535Y-107814880D01*
X149407440Y-107814880D01*
X149264583Y-107862500D01*
X149169345Y-107957738D01*
X149121726Y-108052976D01*
X149074107Y-108243452D01*
X149074107Y-108386309D01*
X149121726Y-108576785D01*
X149169345Y-108672023D01*
X149264583Y-108767261D01*
X149407440Y-108814880D01*
X149645535Y-108814880D01*
X148740773Y-107814880D02*
X148121726Y-107814880D01*
X148455059Y-108195833D01*
X148312202Y-108195833D01*
X148216964Y-108243452D01*
X148169345Y-108291071D01*
X148121726Y-108386309D01*
X148121726Y-108624404D01*
X148169345Y-108719642D01*
X148216964Y-108767261D01*
X148312202Y-108814880D01*
X148597916Y-108814880D01*
X148693154Y-108767261D01*
X148740773Y-108719642D01*
X147740773Y-107910119D02*
X147693154Y-107862500D01*
X147597916Y-107814880D01*
X147359821Y-107814880D01*
X147264583Y-107862500D01*
X147216964Y-107910119D01*
X147169345Y-108005357D01*
X147169345Y-108100595D01*
X147216964Y-108243452D01*
X147788392Y-108814880D01*
X147169345Y-108814880D01*
G04 #@! TO.C,D31*
X130582835Y-123905020D02*
X130582835Y-122905020D01*
X130344740Y-122905020D01*
X130201883Y-122952640D01*
X130106645Y-123047878D01*
X130059026Y-123143116D01*
X130011407Y-123333592D01*
X130011407Y-123476449D01*
X130059026Y-123666925D01*
X130106645Y-123762163D01*
X130201883Y-123857401D01*
X130344740Y-123905020D01*
X130582835Y-123905020D01*
X129678073Y-122905020D02*
X129059026Y-122905020D01*
X129392359Y-123285973D01*
X129249502Y-123285973D01*
X129154264Y-123333592D01*
X129106645Y-123381211D01*
X129059026Y-123476449D01*
X129059026Y-123714544D01*
X129106645Y-123809782D01*
X129154264Y-123857401D01*
X129249502Y-123905020D01*
X129535216Y-123905020D01*
X129630454Y-123857401D01*
X129678073Y-123809782D01*
X128106645Y-123905020D02*
X128678073Y-123905020D01*
X128392359Y-123905020D02*
X128392359Y-122905020D01*
X128487597Y-123047878D01*
X128582835Y-123143116D01*
X128678073Y-123190735D01*
G04 #@! TO.C,D30*
X111532835Y-123905020D02*
X111532835Y-122905020D01*
X111294740Y-122905020D01*
X111151883Y-122952640D01*
X111056645Y-123047878D01*
X111009026Y-123143116D01*
X110961407Y-123333592D01*
X110961407Y-123476449D01*
X111009026Y-123666925D01*
X111056645Y-123762163D01*
X111151883Y-123857401D01*
X111294740Y-123905020D01*
X111532835Y-123905020D01*
X110628073Y-122905020D02*
X110009026Y-122905020D01*
X110342359Y-123285973D01*
X110199502Y-123285973D01*
X110104264Y-123333592D01*
X110056645Y-123381211D01*
X110009026Y-123476449D01*
X110009026Y-123714544D01*
X110056645Y-123809782D01*
X110104264Y-123857401D01*
X110199502Y-123905020D01*
X110485216Y-123905020D01*
X110580454Y-123857401D01*
X110628073Y-123809782D01*
X109389978Y-122905020D02*
X109294740Y-122905020D01*
X109199502Y-122952640D01*
X109151883Y-123000259D01*
X109104264Y-123095497D01*
X109056645Y-123285973D01*
X109056645Y-123524068D01*
X109104264Y-123714544D01*
X109151883Y-123809782D01*
X109199502Y-123857401D01*
X109294740Y-123905020D01*
X109389978Y-123905020D01*
X109485216Y-123857401D01*
X109532835Y-123809782D01*
X109580454Y-123714544D01*
X109628073Y-123524068D01*
X109628073Y-123285973D01*
X109580454Y-123095497D01*
X109532835Y-123000259D01*
X109485216Y-122952640D01*
X109389978Y-122905020D01*
G04 #@! TO.C,D25*
X206795535Y-92465400D02*
X206795535Y-91465400D01*
X206557440Y-91465400D01*
X206414583Y-91513020D01*
X206319345Y-91608258D01*
X206271726Y-91703496D01*
X206224107Y-91893972D01*
X206224107Y-92036829D01*
X206271726Y-92227305D01*
X206319345Y-92322543D01*
X206414583Y-92417781D01*
X206557440Y-92465400D01*
X206795535Y-92465400D01*
X205843154Y-91560639D02*
X205795535Y-91513020D01*
X205700297Y-91465400D01*
X205462202Y-91465400D01*
X205366964Y-91513020D01*
X205319345Y-91560639D01*
X205271726Y-91655877D01*
X205271726Y-91751115D01*
X205319345Y-91893972D01*
X205890773Y-92465400D01*
X205271726Y-92465400D01*
X204366964Y-91465400D02*
X204843154Y-91465400D01*
X204890773Y-91941591D01*
X204843154Y-91893972D01*
X204747916Y-91846353D01*
X204509821Y-91846353D01*
X204414583Y-91893972D01*
X204366964Y-91941591D01*
X204319345Y-92036829D01*
X204319345Y-92274924D01*
X204366964Y-92370162D01*
X204414583Y-92417781D01*
X204509821Y-92465400D01*
X204747916Y-92465400D01*
X204843154Y-92417781D01*
X204890773Y-92370162D01*
G04 #@! TO.C,D24*
X187745535Y-91385400D02*
X187745535Y-90385400D01*
X187507440Y-90385400D01*
X187364583Y-90433020D01*
X187269345Y-90528258D01*
X187221726Y-90623496D01*
X187174107Y-90813972D01*
X187174107Y-90956829D01*
X187221726Y-91147305D01*
X187269345Y-91242543D01*
X187364583Y-91337781D01*
X187507440Y-91385400D01*
X187745535Y-91385400D01*
X186793154Y-90480639D02*
X186745535Y-90433020D01*
X186650297Y-90385400D01*
X186412202Y-90385400D01*
X186316964Y-90433020D01*
X186269345Y-90480639D01*
X186221726Y-90575877D01*
X186221726Y-90671115D01*
X186269345Y-90813972D01*
X186840773Y-91385400D01*
X186221726Y-91385400D01*
X185364583Y-90718734D02*
X185364583Y-91385400D01*
X185602678Y-90337781D02*
X185840773Y-91052067D01*
X185221726Y-91052067D01*
G04 #@! TO.C,D23*
X168695535Y-86589880D02*
X168695535Y-85589880D01*
X168457440Y-85589880D01*
X168314583Y-85637500D01*
X168219345Y-85732738D01*
X168171726Y-85827976D01*
X168124107Y-86018452D01*
X168124107Y-86161309D01*
X168171726Y-86351785D01*
X168219345Y-86447023D01*
X168314583Y-86542261D01*
X168457440Y-86589880D01*
X168695535Y-86589880D01*
X167743154Y-85685119D02*
X167695535Y-85637500D01*
X167600297Y-85589880D01*
X167362202Y-85589880D01*
X167266964Y-85637500D01*
X167219345Y-85685119D01*
X167171726Y-85780357D01*
X167171726Y-85875595D01*
X167219345Y-86018452D01*
X167790773Y-86589880D01*
X167171726Y-86589880D01*
X166838392Y-85589880D02*
X166219345Y-85589880D01*
X166552678Y-85970833D01*
X166409821Y-85970833D01*
X166314583Y-86018452D01*
X166266964Y-86066071D01*
X166219345Y-86161309D01*
X166219345Y-86399404D01*
X166266964Y-86494642D01*
X166314583Y-86542261D01*
X166409821Y-86589880D01*
X166695535Y-86589880D01*
X166790773Y-86542261D01*
X166838392Y-86494642D01*
G04 #@! TO.C,D22*
X149645535Y-89764880D02*
X149645535Y-88764880D01*
X149407440Y-88764880D01*
X149264583Y-88812500D01*
X149169345Y-88907738D01*
X149121726Y-89002976D01*
X149074107Y-89193452D01*
X149074107Y-89336309D01*
X149121726Y-89526785D01*
X149169345Y-89622023D01*
X149264583Y-89717261D01*
X149407440Y-89764880D01*
X149645535Y-89764880D01*
X148693154Y-88860119D02*
X148645535Y-88812500D01*
X148550297Y-88764880D01*
X148312202Y-88764880D01*
X148216964Y-88812500D01*
X148169345Y-88860119D01*
X148121726Y-88955357D01*
X148121726Y-89050595D01*
X148169345Y-89193452D01*
X148740773Y-89764880D01*
X148121726Y-89764880D01*
X147740773Y-88860119D02*
X147693154Y-88812500D01*
X147597916Y-88764880D01*
X147359821Y-88764880D01*
X147264583Y-88812500D01*
X147216964Y-88860119D01*
X147169345Y-88955357D01*
X147169345Y-89050595D01*
X147216964Y-89193452D01*
X147788392Y-89764880D01*
X147169345Y-89764880D01*
G04 #@! TO.C,D21*
X130582835Y-104855020D02*
X130582835Y-103855020D01*
X130344740Y-103855020D01*
X130201883Y-103902640D01*
X130106645Y-103997878D01*
X130059026Y-104093116D01*
X130011407Y-104283592D01*
X130011407Y-104426449D01*
X130059026Y-104616925D01*
X130106645Y-104712163D01*
X130201883Y-104807401D01*
X130344740Y-104855020D01*
X130582835Y-104855020D01*
X129630454Y-103950259D02*
X129582835Y-103902640D01*
X129487597Y-103855020D01*
X129249502Y-103855020D01*
X129154264Y-103902640D01*
X129106645Y-103950259D01*
X129059026Y-104045497D01*
X129059026Y-104140735D01*
X129106645Y-104283592D01*
X129678073Y-104855020D01*
X129059026Y-104855020D01*
X128106645Y-104855020D02*
X128678073Y-104855020D01*
X128392359Y-104855020D02*
X128392359Y-103855020D01*
X128487597Y-103997878D01*
X128582835Y-104093116D01*
X128678073Y-104140735D01*
G04 #@! TO.C,D20*
X111532835Y-104855020D02*
X111532835Y-103855020D01*
X111294740Y-103855020D01*
X111151883Y-103902640D01*
X111056645Y-103997878D01*
X111009026Y-104093116D01*
X110961407Y-104283592D01*
X110961407Y-104426449D01*
X111009026Y-104616925D01*
X111056645Y-104712163D01*
X111151883Y-104807401D01*
X111294740Y-104855020D01*
X111532835Y-104855020D01*
X110580454Y-103950259D02*
X110532835Y-103902640D01*
X110437597Y-103855020D01*
X110199502Y-103855020D01*
X110104264Y-103902640D01*
X110056645Y-103950259D01*
X110009026Y-104045497D01*
X110009026Y-104140735D01*
X110056645Y-104283592D01*
X110628073Y-104855020D01*
X110009026Y-104855020D01*
X109389978Y-103855020D02*
X109294740Y-103855020D01*
X109199502Y-103902640D01*
X109151883Y-103950259D01*
X109104264Y-104045497D01*
X109056645Y-104235973D01*
X109056645Y-104474068D01*
X109104264Y-104664544D01*
X109151883Y-104759782D01*
X109199502Y-104807401D01*
X109294740Y-104855020D01*
X109389978Y-104855020D01*
X109485216Y-104807401D01*
X109532835Y-104759782D01*
X109580454Y-104664544D01*
X109628073Y-104474068D01*
X109628073Y-104235973D01*
X109580454Y-104045497D01*
X109532835Y-103950259D01*
X109485216Y-103902640D01*
X109389978Y-103855020D01*
G04 #@! TO.C,D15*
X206795535Y-73415400D02*
X206795535Y-72415400D01*
X206557440Y-72415400D01*
X206414583Y-72463020D01*
X206319345Y-72558258D01*
X206271726Y-72653496D01*
X206224107Y-72843972D01*
X206224107Y-72986829D01*
X206271726Y-73177305D01*
X206319345Y-73272543D01*
X206414583Y-73367781D01*
X206557440Y-73415400D01*
X206795535Y-73415400D01*
X205271726Y-73415400D02*
X205843154Y-73415400D01*
X205557440Y-73415400D02*
X205557440Y-72415400D01*
X205652678Y-72558258D01*
X205747916Y-72653496D01*
X205843154Y-72701115D01*
X204366964Y-72415400D02*
X204843154Y-72415400D01*
X204890773Y-72891591D01*
X204843154Y-72843972D01*
X204747916Y-72796353D01*
X204509821Y-72796353D01*
X204414583Y-72843972D01*
X204366964Y-72891591D01*
X204319345Y-72986829D01*
X204319345Y-73224924D01*
X204366964Y-73320162D01*
X204414583Y-73367781D01*
X204509821Y-73415400D01*
X204747916Y-73415400D01*
X204843154Y-73367781D01*
X204890773Y-73320162D01*
G04 #@! TO.C,D14*
X187745535Y-72335400D02*
X187745535Y-71335400D01*
X187507440Y-71335400D01*
X187364583Y-71383020D01*
X187269345Y-71478258D01*
X187221726Y-71573496D01*
X187174107Y-71763972D01*
X187174107Y-71906829D01*
X187221726Y-72097305D01*
X187269345Y-72192543D01*
X187364583Y-72287781D01*
X187507440Y-72335400D01*
X187745535Y-72335400D01*
X186221726Y-72335400D02*
X186793154Y-72335400D01*
X186507440Y-72335400D02*
X186507440Y-71335400D01*
X186602678Y-71478258D01*
X186697916Y-71573496D01*
X186793154Y-71621115D01*
X185364583Y-71668734D02*
X185364583Y-72335400D01*
X185602678Y-71287781D02*
X185840773Y-72002067D01*
X185221726Y-72002067D01*
G04 #@! TO.C,D13*
X168695535Y-67539880D02*
X168695535Y-66539880D01*
X168457440Y-66539880D01*
X168314583Y-66587500D01*
X168219345Y-66682738D01*
X168171726Y-66777976D01*
X168124107Y-66968452D01*
X168124107Y-67111309D01*
X168171726Y-67301785D01*
X168219345Y-67397023D01*
X168314583Y-67492261D01*
X168457440Y-67539880D01*
X168695535Y-67539880D01*
X167171726Y-67539880D02*
X167743154Y-67539880D01*
X167457440Y-67539880D02*
X167457440Y-66539880D01*
X167552678Y-66682738D01*
X167647916Y-66777976D01*
X167743154Y-66825595D01*
X166838392Y-66539880D02*
X166219345Y-66539880D01*
X166552678Y-66920833D01*
X166409821Y-66920833D01*
X166314583Y-66968452D01*
X166266964Y-67016071D01*
X166219345Y-67111309D01*
X166219345Y-67349404D01*
X166266964Y-67444642D01*
X166314583Y-67492261D01*
X166409821Y-67539880D01*
X166695535Y-67539880D01*
X166790773Y-67492261D01*
X166838392Y-67444642D01*
G04 #@! TO.C,D12*
X149645535Y-70714880D02*
X149645535Y-69714880D01*
X149407440Y-69714880D01*
X149264583Y-69762500D01*
X149169345Y-69857738D01*
X149121726Y-69952976D01*
X149074107Y-70143452D01*
X149074107Y-70286309D01*
X149121726Y-70476785D01*
X149169345Y-70572023D01*
X149264583Y-70667261D01*
X149407440Y-70714880D01*
X149645535Y-70714880D01*
X148121726Y-70714880D02*
X148693154Y-70714880D01*
X148407440Y-70714880D02*
X148407440Y-69714880D01*
X148502678Y-69857738D01*
X148597916Y-69952976D01*
X148693154Y-70000595D01*
X147740773Y-69810119D02*
X147693154Y-69762500D01*
X147597916Y-69714880D01*
X147359821Y-69714880D01*
X147264583Y-69762500D01*
X147216964Y-69810119D01*
X147169345Y-69905357D01*
X147169345Y-70000595D01*
X147216964Y-70143452D01*
X147788392Y-70714880D01*
X147169345Y-70714880D01*
G04 #@! TO.C,D11*
X130582835Y-85805020D02*
X130582835Y-84805020D01*
X130344740Y-84805020D01*
X130201883Y-84852640D01*
X130106645Y-84947878D01*
X130059026Y-85043116D01*
X130011407Y-85233592D01*
X130011407Y-85376449D01*
X130059026Y-85566925D01*
X130106645Y-85662163D01*
X130201883Y-85757401D01*
X130344740Y-85805020D01*
X130582835Y-85805020D01*
X129059026Y-85805020D02*
X129630454Y-85805020D01*
X129344740Y-85805020D02*
X129344740Y-84805020D01*
X129439978Y-84947878D01*
X129535216Y-85043116D01*
X129630454Y-85090735D01*
X128106645Y-85805020D02*
X128678073Y-85805020D01*
X128392359Y-85805020D02*
X128392359Y-84805020D01*
X128487597Y-84947878D01*
X128582835Y-85043116D01*
X128678073Y-85090735D01*
G04 #@! TO.C,D10*
X111532835Y-85805020D02*
X111532835Y-84805020D01*
X111294740Y-84805020D01*
X111151883Y-84852640D01*
X111056645Y-84947878D01*
X111009026Y-85043116D01*
X110961407Y-85233592D01*
X110961407Y-85376449D01*
X111009026Y-85566925D01*
X111056645Y-85662163D01*
X111151883Y-85757401D01*
X111294740Y-85805020D01*
X111532835Y-85805020D01*
X110009026Y-85805020D02*
X110580454Y-85805020D01*
X110294740Y-85805020D02*
X110294740Y-84805020D01*
X110389978Y-84947878D01*
X110485216Y-85043116D01*
X110580454Y-85090735D01*
X109389978Y-84805020D02*
X109294740Y-84805020D01*
X109199502Y-84852640D01*
X109151883Y-84900259D01*
X109104264Y-84995497D01*
X109056645Y-85185973D01*
X109056645Y-85424068D01*
X109104264Y-85614544D01*
X109151883Y-85709782D01*
X109199502Y-85757401D01*
X109294740Y-85805020D01*
X109389978Y-85805020D01*
X109485216Y-85757401D01*
X109532835Y-85709782D01*
X109580454Y-85614544D01*
X109628073Y-85424068D01*
X109628073Y-85185973D01*
X109580454Y-84995497D01*
X109532835Y-84900259D01*
X109485216Y-84852640D01*
X109389978Y-84805020D01*
G04 #@! TO.C,D05*
X206795535Y-43727380D02*
X206795535Y-42727380D01*
X206557440Y-42727380D01*
X206414583Y-42775000D01*
X206319345Y-42870238D01*
X206271726Y-42965476D01*
X206224107Y-43155952D01*
X206224107Y-43298809D01*
X206271726Y-43489285D01*
X206319345Y-43584523D01*
X206414583Y-43679761D01*
X206557440Y-43727380D01*
X206795535Y-43727380D01*
X205605059Y-42727380D02*
X205509821Y-42727380D01*
X205414583Y-42775000D01*
X205366964Y-42822619D01*
X205319345Y-42917857D01*
X205271726Y-43108333D01*
X205271726Y-43346428D01*
X205319345Y-43536904D01*
X205366964Y-43632142D01*
X205414583Y-43679761D01*
X205509821Y-43727380D01*
X205605059Y-43727380D01*
X205700297Y-43679761D01*
X205747916Y-43632142D01*
X205795535Y-43536904D01*
X205843154Y-43346428D01*
X205843154Y-43108333D01*
X205795535Y-42917857D01*
X205747916Y-42822619D01*
X205700297Y-42775000D01*
X205605059Y-42727380D01*
X204366964Y-42727380D02*
X204843154Y-42727380D01*
X204890773Y-43203571D01*
X204843154Y-43155952D01*
X204747916Y-43108333D01*
X204509821Y-43108333D01*
X204414583Y-43155952D01*
X204366964Y-43203571D01*
X204319345Y-43298809D01*
X204319345Y-43536904D01*
X204366964Y-43632142D01*
X204414583Y-43679761D01*
X204509821Y-43727380D01*
X204747916Y-43727380D01*
X204843154Y-43679761D01*
X204890773Y-43632142D01*
G04 #@! TO.C,D04*
X187745535Y-43727380D02*
X187745535Y-42727380D01*
X187507440Y-42727380D01*
X187364583Y-42775000D01*
X187269345Y-42870238D01*
X187221726Y-42965476D01*
X187174107Y-43155952D01*
X187174107Y-43298809D01*
X187221726Y-43489285D01*
X187269345Y-43584523D01*
X187364583Y-43679761D01*
X187507440Y-43727380D01*
X187745535Y-43727380D01*
X186555059Y-42727380D02*
X186459821Y-42727380D01*
X186364583Y-42775000D01*
X186316964Y-42822619D01*
X186269345Y-42917857D01*
X186221726Y-43108333D01*
X186221726Y-43346428D01*
X186269345Y-43536904D01*
X186316964Y-43632142D01*
X186364583Y-43679761D01*
X186459821Y-43727380D01*
X186555059Y-43727380D01*
X186650297Y-43679761D01*
X186697916Y-43632142D01*
X186745535Y-43536904D01*
X186793154Y-43346428D01*
X186793154Y-43108333D01*
X186745535Y-42917857D01*
X186697916Y-42822619D01*
X186650297Y-42775000D01*
X186555059Y-42727380D01*
X185364583Y-43060714D02*
X185364583Y-43727380D01*
X185602678Y-42679761D02*
X185840773Y-43394047D01*
X185221726Y-43394047D01*
G04 #@! TO.C,D03*
X168695535Y-43727380D02*
X168695535Y-42727380D01*
X168457440Y-42727380D01*
X168314583Y-42775000D01*
X168219345Y-42870238D01*
X168171726Y-42965476D01*
X168124107Y-43155952D01*
X168124107Y-43298809D01*
X168171726Y-43489285D01*
X168219345Y-43584523D01*
X168314583Y-43679761D01*
X168457440Y-43727380D01*
X168695535Y-43727380D01*
X167505059Y-42727380D02*
X167409821Y-42727380D01*
X167314583Y-42775000D01*
X167266964Y-42822619D01*
X167219345Y-42917857D01*
X167171726Y-43108333D01*
X167171726Y-43346428D01*
X167219345Y-43536904D01*
X167266964Y-43632142D01*
X167314583Y-43679761D01*
X167409821Y-43727380D01*
X167505059Y-43727380D01*
X167600297Y-43679761D01*
X167647916Y-43632142D01*
X167695535Y-43536904D01*
X167743154Y-43346428D01*
X167743154Y-43108333D01*
X167695535Y-42917857D01*
X167647916Y-42822619D01*
X167600297Y-42775000D01*
X167505059Y-42727380D01*
X166838392Y-42727380D02*
X166219345Y-42727380D01*
X166552678Y-43108333D01*
X166409821Y-43108333D01*
X166314583Y-43155952D01*
X166266964Y-43203571D01*
X166219345Y-43298809D01*
X166219345Y-43536904D01*
X166266964Y-43632142D01*
X166314583Y-43679761D01*
X166409821Y-43727380D01*
X166695535Y-43727380D01*
X166790773Y-43679761D01*
X166838392Y-43632142D01*
G04 #@! TD*
M02*
