M48
; DRILL file {KiCad 5.1.10} date Wed Mar  9 15:21:44 2022
; FORMAT={-:-/ absolute / inch / decimal}
; #@! TF.CreationDate,2022-03-09T15:21:44-05:00
; #@! TF.GenerationSoftware,Kicad,Pcbnew,5.1.10
; #@! TF.FileFunction,Plated,1,2,PTH
FMAT,2
INCH
T1C0.0157
T2C0.0320
T3C0.0390
T4C0.0394
T5C0.0430
T6C0.0512
T7C0.0579
%
G90
G05
T1
X6.9375Y-1.7812
X7.5625Y-1.9062
X8.1875Y-1.7812
X8.2812Y-1.9062
X9.0312Y-2.1562
T2
X8.9062Y-2.25
X9.0062Y-2.25
X9.1062Y-2.25
X9.2062Y-2.25
T3
X9.2188Y-2.6562
X9.2188Y-2.8531
T5
X8.7469Y-0.8875
X8.7469Y-0.9875
X8.7469Y-1.0875
X8.7469Y-1.1875
X8.7469Y-1.2875
X8.7469Y-1.3875
X8.7469Y-1.4875
X8.7469Y-1.5875
X8.7469Y-1.6875
X8.7469Y-1.7875
X8.7469Y-1.8875
X8.7469Y-1.9875
X9.3469Y-0.8875
X9.3469Y-0.9875
X9.3469Y-1.0875
X9.3469Y-1.1875
X9.3469Y-1.2875
X9.3469Y-1.3875
X9.3469Y-1.4875
X9.3469Y-1.5875
X9.3469Y-1.6875
X9.3469Y-1.7875
X9.3469Y-1.8875
X9.3469Y-1.9875
T6
X9.1207Y-2.6169
X9.1207Y-2.8929
T7
X3.6931Y-5.1189
X3.8807Y-4.3691
X3.9431Y-5.0189
X3.9745Y-2.8691
X4.1307Y-4.2691
X4.1618Y-5.1189
X4.162Y-3.6191
X4.162Y-4.3691
X4.212Y-3.1691
X4.2245Y-2.7691
X4.4118Y-5.0189
X4.412Y-3.5191
X4.412Y-4.2691
X4.462Y-3.0691
X4.6306Y-5.1189
X4.8806Y-5.0189
X4.9118Y-5.1189
X4.912Y-2.8691
X4.912Y-3.6191
X4.912Y-4.3691
X5.1618Y-5.0189
X5.162Y-2.7691
X5.162Y-3.5191
X5.162Y-4.2691
X5.5681Y-5.1189
X5.6625Y-2.275
X5.6625Y-3.025
X5.6625Y-3.775
X5.7118Y-5.4189
X5.8181Y-5.0189
X5.9125Y-2.175
X5.9125Y-2.925
X5.9125Y-3.675
X5.9618Y-5.3189
X6.4125Y-1.2125
X6.4125Y-2.15
X6.4125Y-2.9
X6.4125Y-3.65
X6.5993Y-5.1189
X6.6625Y-1.1125
X6.6625Y-2.05
X6.6625Y-2.8
X6.6625Y-3.55
X6.8493Y-5.0189
X7.1625Y-1.2125
X7.1625Y-2.3388
X7.1625Y-3.0888
X7.1625Y-3.8388
X7.4125Y-1.1125
X7.4125Y-2.2388
X7.4125Y-2.9888
X7.4125Y-3.7388
X7.9125Y-1.2125
X7.9125Y-2.3813
X7.9125Y-3.1313
X7.9125Y-3.8813
X8.1625Y-1.1125
X8.1625Y-2.2813
X8.1625Y-3.0313
X8.1625Y-3.7813
X8.6996Y-5.4395
X8.738Y-5.173
X9.3491Y-5.8145
X9.3875Y-5.548
T4
G00X9.5111Y-1.1735
M15
G01X9.5111Y-1.1932
M16
G05
G00X9.6764Y-0.8388
M15
G01X9.6764Y-0.8585
M16
G05
G00X9.6764Y-0.9569
M15
G01X9.6764Y-0.9766
M16
G05
G00X9.6764Y-1.1144
M15
G01X9.6764Y-1.1341
M16
G05
T0
M30
