G04 #@! TF.GenerationSoftware,KiCad,Pcbnew,5.1.10*
G04 #@! TF.CreationDate,2021-08-07T14:45:30-04:00*
G04 #@! TF.ProjectId,v05_right,7630355f-7269-4676-9874-2e6b69636164,rev?*
G04 #@! TF.SameCoordinates,Original*
G04 #@! TF.FileFunction,Copper,L2,Bot*
G04 #@! TF.FilePolarity,Positive*
%FSLAX46Y46*%
G04 Gerber Fmt 4.6, Leading zero omitted, Abs format (unit mm)*
G04 Created by KiCad (PCBNEW 5.1.10) date 2021-08-07 14:45:30*
%MOMM*%
%LPD*%
G01*
G04 APERTURE LIST*
G04 #@! TA.AperFunction,ComponentPad*
%ADD10C,2.250000*%
G04 #@! TD*
G04 #@! TA.AperFunction,SMDPad,CuDef*
%ADD11C,0.100000*%
G04 #@! TD*
G04 #@! TA.AperFunction,SMDPad,CuDef*
%ADD12R,0.900000X1.200000*%
G04 #@! TD*
G04 #@! TA.AperFunction,ComponentPad*
%ADD13O,1.700000X2.500000*%
G04 #@! TD*
G04 #@! TA.AperFunction,ComponentPad*
%ADD14C,2.100000*%
G04 #@! TD*
G04 #@! TA.AperFunction,ComponentPad*
%ADD15C,1.750000*%
G04 #@! TD*
G04 #@! TA.AperFunction,SMDPad,CuDef*
%ADD16R,1.200000X0.900000*%
G04 #@! TD*
G04 #@! TA.AperFunction,ComponentPad*
%ADD17C,1.397000*%
G04 #@! TD*
G04 #@! TA.AperFunction,ComponentPad*
%ADD18R,1.752600X1.752600*%
G04 #@! TD*
G04 #@! TA.AperFunction,ComponentPad*
%ADD19C,1.752600*%
G04 #@! TD*
G04 #@! TA.AperFunction,ViaPad*
%ADD20C,0.800000*%
G04 #@! TD*
G04 #@! TA.AperFunction,Conductor*
%ADD21C,0.250000*%
G04 #@! TD*
G04 APERTURE END LIST*
D10*
X-27622500Y-130651250D03*
X-33972500Y-133191250D03*
X-25558750Y-121761250D03*
X-19208750Y-119221250D03*
X-160450659Y-140040295D03*
X-155075955Y-144269557D03*
X-139541250Y-54451250D03*
X-145891250Y-56991250D03*
G04 #@! TA.AperFunction,SMDPad,CuDef*
D11*
G36*
X-155823269Y-126125865D02*
G01*
X-156423269Y-125086635D01*
X-155643847Y-124636635D01*
X-155043847Y-125675865D01*
X-155823269Y-126125865D01*
G37*
G04 #@! TD.AperFunction*
G04 #@! TA.AperFunction,SMDPad,CuDef*
G36*
X-158681153Y-127775865D02*
G01*
X-159281153Y-126736635D01*
X-158501731Y-126286635D01*
X-157901731Y-127325865D01*
X-158681153Y-127775865D01*
G37*
G04 #@! TD.AperFunction*
D12*
X-139700000Y-67468750D03*
X-143000000Y-67468750D03*
D13*
X-184662500Y-35612500D03*
X-180462500Y-34112500D03*
X-180462500Y-30112500D03*
X-180462500Y-27112500D03*
D14*
X-164100000Y-67360000D03*
D15*
X-165100000Y-69850000D03*
X-170100000Y-69850000D03*
D14*
X-171110000Y-67360000D03*
D10*
X-101490000Y-73197500D03*
X-107840000Y-75737500D03*
X-101435000Y-130651250D03*
X-107785000Y-133191250D03*
X-82385000Y-111601250D03*
X-88735000Y-114141250D03*
X-63335000Y-130651250D03*
X-69685000Y-133191250D03*
X-63303750Y-95578000D03*
X-69653750Y-98118000D03*
X-63303750Y-76528000D03*
X-69653750Y-79068000D03*
X-63303750Y-38428000D03*
X-69653750Y-40968000D03*
X-25241250Y-111601250D03*
X-31591250Y-114141250D03*
G04 #@! TA.AperFunction,SMDPad,CuDef*
D11*
G36*
X-138360769Y-115807115D02*
G01*
X-138960769Y-114767885D01*
X-138181347Y-114317885D01*
X-137581347Y-115357115D01*
X-138360769Y-115807115D01*
G37*
G04 #@! TD.AperFunction*
G04 #@! TA.AperFunction,SMDPad,CuDef*
G36*
X-141218653Y-117457115D02*
G01*
X-141818653Y-116417885D01*
X-141039231Y-115967885D01*
X-140439231Y-117007115D01*
X-141218653Y-117457115D01*
G37*
G04 #@! TD.AperFunction*
D16*
X-96043750Y-139637500D03*
X-96043750Y-142937500D03*
X-77787500Y-139637500D03*
X-77787500Y-142937500D03*
X-73818750Y-114237500D03*
X-73818750Y-117537500D03*
X-54768750Y-133287500D03*
X-54768750Y-136587500D03*
X-40481250Y-133287500D03*
X-40481250Y-136587500D03*
G04 #@! TA.AperFunction,SMDPad,CuDef*
D11*
G36*
X-164554519Y-109457115D02*
G01*
X-165154519Y-108417885D01*
X-164375097Y-107967885D01*
X-163775097Y-109007115D01*
X-164554519Y-109457115D01*
G37*
G04 #@! TD.AperFunction*
G04 #@! TA.AperFunction,SMDPad,CuDef*
G36*
X-167412403Y-111107115D02*
G01*
X-168012403Y-110067885D01*
X-167232981Y-109617885D01*
X-166632981Y-110657115D01*
X-167412403Y-111107115D01*
G37*
G04 #@! TD.AperFunction*
D12*
X-121381250Y-104775000D03*
X-124681250Y-104775000D03*
X-102380000Y-105265000D03*
X-105680000Y-105265000D03*
X-83230000Y-102040000D03*
X-86530000Y-102040000D03*
X-64230000Y-108640000D03*
X-67530000Y-108640000D03*
X-45181250Y-124618750D03*
X-48481250Y-124618750D03*
X-26131250Y-124618750D03*
X-29431250Y-124618750D03*
X-144400000Y-95250000D03*
X-147700000Y-95250000D03*
X-121381250Y-86518750D03*
X-124681250Y-86518750D03*
X-102380000Y-86215000D03*
X-105680000Y-86215000D03*
X-83230000Y-82990000D03*
X-86530000Y-82990000D03*
X-64230000Y-89590000D03*
X-67530000Y-89590000D03*
X-45181250Y-105568750D03*
X-48481250Y-105568750D03*
X-26131250Y-105568750D03*
X-29431250Y-105568750D03*
X-121381250Y-67468750D03*
X-124681250Y-67468750D03*
X-102380000Y-67165000D03*
X-105680000Y-67165000D03*
X-83230000Y-63940000D03*
X-86530000Y-63940000D03*
X-64230000Y-70540000D03*
X-67530000Y-70540000D03*
X-45181250Y-86518750D03*
X-48481250Y-86518750D03*
X-26131250Y-86518750D03*
X-29431250Y-86518750D03*
X-140431250Y-48418750D03*
X-143731250Y-48418750D03*
X-121381250Y-48418750D03*
X-124681250Y-48418750D03*
X-102380000Y-48115000D03*
X-105680000Y-48115000D03*
X-83230000Y-44890000D03*
X-86530000Y-44890000D03*
X-64230000Y-51490000D03*
X-67530000Y-51490000D03*
X-45181250Y-67468750D03*
X-48481250Y-67468750D03*
X-26131250Y-67468750D03*
X-29431250Y-67468750D03*
D10*
X-147161250Y-80803750D03*
X-144621250Y-87153750D03*
X-120590000Y-54451250D03*
X-126940000Y-56991250D03*
X-63303750Y-57478000D03*
X-69653750Y-60018000D03*
X-120590000Y-35401250D03*
X-126940000Y-37941250D03*
D17*
X-177800000Y-70802500D03*
X-177800000Y-65722500D03*
X-175418750Y-65722500D03*
X-175418750Y-70802500D03*
X-165417500Y-61118750D03*
X-167957500Y-61118750D03*
X-170497500Y-61118750D03*
X-173037500Y-61118750D03*
D18*
X-176688750Y-27305000D03*
D19*
X-176688750Y-29845000D03*
X-176688750Y-32385000D03*
X-176688750Y-34925000D03*
X-176688750Y-37465000D03*
X-176688750Y-40005000D03*
X-176688750Y-42545000D03*
X-176688750Y-45085000D03*
X-176688750Y-47625000D03*
X-176688750Y-50165000D03*
X-176688750Y-52705000D03*
X-161448750Y-55245000D03*
X-161448750Y-52705000D03*
X-161448750Y-50165000D03*
X-161448750Y-47625000D03*
X-161448750Y-45085000D03*
X-161448750Y-42545000D03*
X-161448750Y-40005000D03*
X-161448750Y-37465000D03*
X-161448750Y-34925000D03*
X-161448750Y-32385000D03*
X-161448750Y-29845000D03*
X-176688750Y-55245000D03*
X-161448750Y-27305000D03*
D10*
X-143781909Y-130515295D03*
X-138407205Y-134744557D03*
X-82321500Y-130663250D03*
X-88671500Y-133203250D03*
X-157502795Y-107836841D03*
X-161732057Y-113211545D03*
X-120590000Y-92551250D03*
X-126940000Y-95091250D03*
X-101490000Y-92247500D03*
X-107840000Y-94787500D03*
X-82340000Y-88990750D03*
X-88690000Y-91530750D03*
X-44291250Y-111601250D03*
X-50641250Y-114141250D03*
X-120590000Y-73501250D03*
X-126940000Y-76041250D03*
X-82340000Y-69940750D03*
X-88690000Y-72480750D03*
X-44291250Y-92551250D03*
X-50641250Y-95091250D03*
X-25241250Y-92551250D03*
X-31591250Y-95091250D03*
X-101490000Y-54147500D03*
X-107840000Y-56687500D03*
X-82340000Y-50890750D03*
X-88690000Y-53430750D03*
X-44291250Y-73501250D03*
X-50641250Y-76041250D03*
X-25241250Y-73501250D03*
X-31591250Y-76041250D03*
X-139541250Y-35401250D03*
X-145891250Y-37941250D03*
X-101490000Y-35097500D03*
X-107840000Y-37637500D03*
X-82340000Y-31840750D03*
X-88690000Y-34380750D03*
X-44291250Y-54451250D03*
X-50641250Y-56991250D03*
X-25241250Y-54451250D03*
X-31591250Y-56991250D03*
D20*
X-167957500Y-38576250D03*
X-170497500Y-43021250D03*
D21*
X-25241250Y-54451250D02*
X-25241250Y-57308750D01*
X-25241250Y-57308750D02*
X-24606250Y-57943750D01*
X-26131250Y-66612500D02*
X-24606250Y-65087500D01*
X-26131250Y-67468750D02*
X-26131250Y-66612500D01*
X-24606250Y-65087500D02*
X-24606250Y-65150000D01*
X-24606250Y-57943750D02*
X-24606250Y-65087500D01*
X-46100000Y-69850000D02*
X-48481250Y-67468750D01*
X-30162500Y-69850000D02*
X-46100000Y-69850000D01*
X-29431250Y-69118750D02*
X-30162500Y-69850000D01*
X-29431250Y-67468750D02*
X-29431250Y-69118750D01*
X-65045000Y-53975000D02*
X-67530000Y-51490000D01*
X-48481250Y-67468750D02*
X-51593750Y-67468750D01*
X-67530000Y-51490000D02*
X-73922500Y-51490000D01*
X-73922500Y-51490000D02*
X-78581250Y-46831250D01*
X-84588750Y-46831250D02*
X-86530000Y-44890000D01*
X-78581250Y-46831250D02*
X-84588750Y-46831250D01*
X-86530000Y-44890000D02*
X-86530000Y-45255000D01*
X-86530000Y-45255000D02*
X-88900000Y-47625000D01*
X-103981250Y-49813750D02*
X-105680000Y-48115000D01*
X-53817660Y-67468750D02*
X-56806260Y-64480150D01*
X-51593750Y-67468750D02*
X-53817660Y-67468750D01*
X-56806260Y-64480150D02*
X-56806260Y-55906240D01*
X-56806260Y-55906240D02*
X-58737500Y-53975000D01*
X-58737500Y-53975000D02*
X-65087500Y-53975000D01*
X-88900000Y-47625000D02*
X-95250000Y-47625000D01*
X-97438750Y-49813750D02*
X-103981250Y-49813750D01*
X-95250000Y-47625000D02*
X-97438750Y-49813750D01*
X-105680000Y-48115000D02*
X-105680000Y-48530000D01*
X-105680000Y-48530000D02*
X-107950000Y-50800000D01*
X-122300000Y-50800000D02*
X-124681250Y-48418750D01*
X-107950000Y-50800000D02*
X-122300000Y-50800000D01*
X-175350051Y-46423699D02*
X-176688750Y-45085000D01*
X-148901301Y-46423699D02*
X-175350051Y-46423699D01*
X-143731250Y-49943750D02*
X-143731250Y-48418750D01*
X-142875000Y-50800000D02*
X-143731250Y-49943750D01*
X-135731250Y-50800000D02*
X-142875000Y-50800000D01*
X-133350000Y-48418750D02*
X-135731250Y-50800000D01*
X-124681250Y-48418750D02*
X-133350000Y-48418750D01*
X-146906250Y-48418750D02*
X-148901301Y-46423699D01*
X-143731250Y-48418750D02*
X-146906250Y-48418750D01*
X-44291250Y-54451250D02*
X-44291250Y-57308750D01*
X-44291250Y-57308750D02*
X-43656250Y-57943750D01*
X-45181250Y-66612500D02*
X-43656250Y-65087500D01*
X-45181250Y-67468750D02*
X-45181250Y-66612500D01*
X-43656250Y-65087500D02*
X-43656250Y-65150000D01*
X-43656250Y-57943750D02*
X-43656250Y-65087500D01*
X-62668750Y-49928750D02*
X-64230000Y-51490000D01*
X-62668750Y-41730000D02*
X-62668750Y-49928750D01*
X-63303750Y-41095000D02*
X-62668750Y-41730000D01*
X-63303750Y-38428000D02*
X-63303750Y-41095000D01*
X-81705000Y-43365000D02*
X-83230000Y-44890000D01*
X-82340000Y-34730000D02*
X-81705000Y-35365000D01*
X-81705000Y-35365000D02*
X-81705000Y-43365000D01*
X-82340000Y-31840750D02*
X-82340000Y-34730000D01*
X-101490000Y-35097500D02*
X-101490000Y-37161250D01*
X-101490000Y-37161250D02*
X-100855000Y-37796250D01*
X-102380000Y-47258750D02*
X-100855000Y-45733750D01*
X-102380000Y-48115000D02*
X-102380000Y-47258750D01*
X-100855000Y-45733750D02*
X-100855000Y-45796250D01*
X-100855000Y-37796250D02*
X-100855000Y-45733750D01*
X-120590000Y-37465000D02*
X-119955000Y-38100000D01*
X-120590000Y-35718750D02*
X-120590000Y-37560250D01*
X-119955000Y-46992500D02*
X-121381250Y-48418750D01*
X-119955000Y-38100000D02*
X-119955000Y-46992500D01*
X-139541250Y-35401250D02*
X-139541250Y-37465000D01*
X-139541250Y-37465000D02*
X-138906250Y-38100000D01*
X-138906250Y-46893750D02*
X-140431250Y-48418750D01*
X-138906250Y-38100000D02*
X-138906250Y-46893750D01*
X-25241250Y-73501250D02*
X-25241250Y-75565000D01*
X-25241250Y-75565000D02*
X-24606250Y-76200000D01*
X-26131250Y-85662500D02*
X-24606250Y-84137500D01*
X-26131250Y-86518750D02*
X-26131250Y-85662500D01*
X-24606250Y-84137500D02*
X-24606250Y-84200000D01*
X-24606250Y-76200000D02*
X-24606250Y-84137500D01*
X-29431250Y-86518750D02*
X-29431250Y-87375000D01*
X-29431250Y-87375000D02*
X-30956250Y-88900000D01*
X-46100000Y-88900000D02*
X-48481250Y-86518750D01*
X-30956250Y-88900000D02*
X-46100000Y-88900000D01*
X-67530000Y-70540000D02*
X-73128750Y-70540000D01*
X-73128750Y-70540000D02*
X-76993750Y-66675000D01*
X-83795000Y-66675000D02*
X-86530000Y-63940000D01*
X-76993750Y-66675000D02*
X-83795000Y-66675000D01*
X-67530000Y-72170000D02*
X-67530000Y-70540000D01*
X-66675000Y-73025000D02*
X-67530000Y-72170000D01*
X-59531250Y-73025000D02*
X-66675000Y-73025000D01*
X-57943750Y-80962500D02*
X-57943750Y-74612500D01*
X-52387500Y-86518750D02*
X-57943750Y-80962500D01*
X-57943750Y-74612500D02*
X-59531250Y-73025000D01*
X-48481250Y-86518750D02*
X-52387500Y-86518750D01*
X-86530000Y-63940000D02*
X-92515000Y-63940000D01*
X-92515000Y-63940000D02*
X-95250000Y-66675000D01*
X-95250000Y-66675000D02*
X-95250000Y-69056250D01*
X-95250000Y-69056250D02*
X-96043750Y-69850000D01*
X-96043750Y-69850000D02*
X-102995000Y-69850000D01*
X-102995000Y-69850000D02*
X-103091250Y-69753750D01*
X-103091250Y-69753750D02*
X-105680000Y-67165000D01*
X-123031250Y-69850000D02*
X-124681250Y-68200000D01*
X-124681250Y-68200000D02*
X-124681250Y-67468750D01*
X-115887500Y-69850000D02*
X-123031250Y-69850000D01*
X-113202500Y-67165000D02*
X-115887500Y-69850000D01*
X-105680000Y-67165000D02*
X-113202500Y-67165000D01*
X-175350051Y-48963699D02*
X-176688750Y-47625000D01*
X-158750000Y-51085824D02*
X-160872125Y-48963699D01*
X-158750000Y-52387500D02*
X-158750000Y-51085824D01*
X-154691199Y-56446301D02*
X-158750000Y-52387500D01*
X-160872125Y-48963699D02*
X-175350051Y-48963699D01*
X-141287500Y-70643750D02*
X-143000000Y-68931250D01*
X-143000000Y-68931250D02*
X-143000000Y-67468750D01*
X-134143750Y-70643750D02*
X-141287500Y-70643750D01*
X-130968750Y-67468750D02*
X-134143750Y-70643750D01*
X-124681250Y-67468750D02*
X-130968750Y-67468750D01*
X-143000000Y-67468750D02*
X-143668750Y-67468750D01*
X-143668750Y-67468750D02*
X-154781250Y-56356250D01*
X-44291250Y-73501250D02*
X-44291250Y-75565000D01*
X-44291250Y-75565000D02*
X-43656250Y-76200000D01*
X-45181250Y-85662500D02*
X-43656250Y-84137500D01*
X-45181250Y-86518750D02*
X-45181250Y-85662500D01*
X-43656250Y-84137500D02*
X-43656250Y-84200000D01*
X-43656250Y-76200000D02*
X-43656250Y-84137500D01*
X-62668750Y-59986250D02*
X-62668750Y-68978750D01*
X-63303750Y-59351250D02*
X-62668750Y-59986250D01*
X-62668750Y-68978750D02*
X-64230000Y-70540000D01*
X-63303750Y-57478000D02*
X-63303750Y-59351250D01*
X-81705000Y-62415000D02*
X-83230000Y-63940000D01*
X-81705000Y-53621250D02*
X-81705000Y-62415000D01*
X-82340000Y-52986250D02*
X-81705000Y-53621250D01*
X-82340000Y-50890750D02*
X-82340000Y-52986250D01*
X-101490000Y-54147500D02*
X-101490000Y-56211250D01*
X-101490000Y-56211250D02*
X-100855000Y-56846250D01*
X-102380000Y-67165000D02*
X-102380000Y-66308750D01*
X-102380000Y-66308750D02*
X-100855000Y-64783750D01*
X-100855000Y-64783750D02*
X-100855000Y-64846250D01*
X-100855000Y-56846250D02*
X-100855000Y-64783750D01*
X-120590000Y-54768750D02*
X-120590000Y-57404000D01*
X-119955000Y-57943750D02*
X-119955000Y-66042500D01*
X-119955000Y-66042500D02*
X-121381250Y-67468750D01*
X-120590000Y-57308750D02*
X-119955000Y-57943750D01*
X-25241250Y-92551250D02*
X-25241250Y-94615000D01*
X-25241250Y-94615000D02*
X-24606250Y-95250000D01*
X-26131250Y-104712500D02*
X-24606250Y-103187500D01*
X-26131250Y-105568750D02*
X-26131250Y-104712500D01*
X-24606250Y-103187500D02*
X-24606250Y-103250000D01*
X-24606250Y-95250000D02*
X-24606250Y-103187500D01*
X-48481250Y-107093750D02*
X-48481250Y-105568750D01*
X-47625000Y-107950000D02*
X-48481250Y-107093750D01*
X-30162500Y-107950000D02*
X-47625000Y-107950000D01*
X-29431250Y-107218750D02*
X-30162500Y-107950000D01*
X-29431250Y-105568750D02*
X-29431250Y-107218750D01*
X-48481250Y-105568750D02*
X-56356250Y-105568750D01*
X-56356250Y-105568750D02*
X-57150000Y-104775000D01*
X-67530000Y-92013750D02*
X-67530000Y-89590000D01*
X-66675000Y-92868750D02*
X-67530000Y-92013750D01*
X-57150000Y-104775000D02*
X-57150000Y-94456250D01*
X-57150000Y-94456250D02*
X-58737500Y-92868750D01*
X-58737500Y-92868750D02*
X-66675000Y-92868750D01*
X-86530000Y-84920000D02*
X-86530000Y-82990000D01*
X-85725000Y-85725000D02*
X-86530000Y-84920000D01*
X-79375000Y-85725000D02*
X-85725000Y-85725000D01*
X-75510000Y-89590000D02*
X-79375000Y-85725000D01*
X-67530000Y-89590000D02*
X-75510000Y-89590000D01*
X-105680000Y-87995000D02*
X-105680000Y-86215000D01*
X-104775000Y-88900000D02*
X-105680000Y-87995000D01*
X-95250000Y-88900000D02*
X-104775000Y-88900000D01*
X-89340000Y-82990000D02*
X-95250000Y-88900000D01*
X-86530000Y-82990000D02*
X-89340000Y-82990000D01*
X-124681250Y-88043750D02*
X-124681250Y-86518750D01*
X-123825000Y-88900000D02*
X-124681250Y-88043750D01*
X-118268750Y-88900000D02*
X-123825000Y-88900000D01*
X-115583750Y-86215000D02*
X-118268750Y-88900000D01*
X-105680000Y-86215000D02*
X-115583750Y-86215000D01*
X-124681250Y-88043750D02*
X-124681250Y-88168750D01*
X-124681250Y-88168750D02*
X-125412500Y-88900000D01*
X-125412500Y-88900000D02*
X-130175000Y-88900000D01*
X-130175000Y-88900000D02*
X-138906250Y-97631250D01*
X-147700000Y-96100000D02*
X-147700000Y-95250000D01*
X-146168750Y-97631250D02*
X-147700000Y-96100000D01*
X-138906250Y-97631250D02*
X-146168750Y-97631250D01*
X-159543750Y-52832074D02*
X-160872125Y-51503699D01*
X-159543750Y-53181250D02*
X-159543750Y-52832074D01*
X-154781250Y-57943750D02*
X-159543750Y-53181250D01*
X-154781250Y-72231250D02*
X-154781250Y-57943750D01*
X-160872125Y-51503699D02*
X-175350051Y-51503699D01*
X-150081250Y-76931250D02*
X-154781250Y-72231250D01*
X-150081250Y-93600000D02*
X-150081250Y-76931250D01*
X-148431250Y-95250000D02*
X-150081250Y-93600000D01*
X-175350051Y-51503699D02*
X-176688750Y-50165000D01*
X-147700000Y-95250000D02*
X-148431250Y-95250000D01*
X-44291250Y-92551250D02*
X-44291250Y-95408750D01*
X-44291250Y-95408750D02*
X-43656250Y-96043750D01*
X-45181250Y-104712500D02*
X-43656250Y-103187500D01*
X-45181250Y-105568750D02*
X-45181250Y-104712500D01*
X-43656250Y-103187500D02*
X-43656250Y-103250000D01*
X-43656250Y-96043750D02*
X-43656250Y-103187500D01*
X-62668750Y-88028750D02*
X-64230000Y-89590000D01*
X-62668750Y-79830000D02*
X-62668750Y-88028750D01*
X-63303750Y-79195000D02*
X-62668750Y-79830000D01*
X-63303750Y-76528000D02*
X-63303750Y-79195000D01*
X-81705000Y-81465000D02*
X-83230000Y-82990000D01*
X-81705000Y-72671250D02*
X-81705000Y-81465000D01*
X-82340000Y-72036250D02*
X-81705000Y-72671250D01*
X-82340000Y-69940750D02*
X-82340000Y-72036250D01*
X-101490000Y-73197500D02*
X-101490000Y-75261250D01*
X-101490000Y-75261250D02*
X-100855000Y-75896250D01*
X-102380000Y-85358750D02*
X-100855000Y-83833750D01*
X-102380000Y-86215000D02*
X-102380000Y-85358750D01*
X-100855000Y-83833750D02*
X-100855000Y-83896250D01*
X-100855000Y-75896250D02*
X-100855000Y-83833750D01*
X-121381250Y-84770000D02*
X-119955000Y-83343750D01*
X-120590000Y-76457500D02*
X-119955000Y-77092500D01*
X-120590000Y-73818750D02*
X-120590000Y-76457500D01*
X-119955000Y-77092500D02*
X-119955000Y-83615000D01*
X-119955000Y-76993750D02*
X-119955000Y-77092500D01*
X-121381250Y-84770000D02*
X-121381250Y-86518750D01*
X-147161250Y-92488750D02*
X-144400000Y-95250000D01*
X-147161250Y-80803750D02*
X-147161250Y-92488750D01*
X-25241250Y-111601250D02*
X-16986250Y-111601250D01*
X-16986250Y-111601250D02*
X-14287500Y-114300000D01*
X-14287500Y-114300000D02*
X-14287500Y-119062500D01*
X-14287500Y-119062500D02*
X-16986250Y-121761250D01*
X-20320000Y-121761250D02*
X-20955000Y-121761250D01*
X-16986250Y-121761250D02*
X-20320000Y-121761250D01*
X-20320000Y-121761250D02*
X-25558750Y-121761250D01*
X-23812500Y-124618750D02*
X-26131250Y-124618750D01*
X-20955000Y-121761250D02*
X-23812500Y-124618750D01*
X-48481250Y-124618750D02*
X-53975000Y-124618750D01*
X-53975000Y-124618750D02*
X-67530000Y-111063750D01*
X-102995000Y-107950000D02*
X-105680000Y-105265000D01*
X-67530000Y-111063750D02*
X-67530000Y-108640000D01*
X-67530000Y-108640000D02*
X-73128750Y-108640000D01*
X-73128750Y-108640000D02*
X-76200000Y-105568750D01*
X-83001250Y-105568750D02*
X-86530000Y-102040000D01*
X-76200000Y-105568750D02*
X-83001250Y-105568750D01*
X-86530000Y-102040000D02*
X-86530000Y-103992500D01*
X-90487500Y-107950000D02*
X-102995000Y-107950000D01*
X-86530000Y-103992500D02*
X-90487500Y-107950000D01*
X-124681250Y-106300000D02*
X-124681250Y-104775000D01*
X-123031250Y-107950000D02*
X-124681250Y-106300000D01*
X-109537500Y-107950000D02*
X-123031250Y-107950000D01*
X-106852500Y-105265000D02*
X-109537500Y-107950000D01*
X-105680000Y-105265000D02*
X-106852500Y-105265000D01*
X-165100000Y-119856250D02*
X-167322692Y-117633558D01*
X-151652520Y-119856250D02*
X-165100000Y-119856250D01*
X-167322692Y-117633558D02*
X-167322692Y-110362500D01*
X-144508770Y-112712500D02*
X-151652520Y-119856250D01*
X-138112500Y-112712500D02*
X-144508770Y-112712500D01*
X-130175000Y-104775000D02*
X-138112500Y-112712500D01*
X-124681250Y-104775000D02*
X-130175000Y-104775000D01*
X-175487449Y-53906301D02*
X-176688750Y-52705000D01*
X-160406199Y-53906301D02*
X-175487449Y-53906301D01*
X-155575000Y-58737500D02*
X-160406199Y-53906301D01*
X-155575000Y-95250000D02*
X-155575000Y-58737500D01*
X-167322692Y-106997692D02*
X-155575000Y-95250000D01*
X-167322692Y-110362500D02*
X-167322692Y-106997692D01*
X-29431250Y-124618750D02*
X-29431250Y-125475000D01*
X-29431250Y-125475000D02*
X-30162500Y-126206250D01*
X-46893750Y-126206250D02*
X-48481250Y-124618750D01*
X-30162500Y-126206250D02*
X-46893750Y-126206250D01*
X-44291250Y-111601250D02*
X-44291250Y-113665000D01*
X-44291250Y-113665000D02*
X-43656250Y-114300000D01*
X-45181250Y-123762500D02*
X-43656250Y-122237500D01*
X-45181250Y-124618750D02*
X-45181250Y-123762500D01*
X-43656250Y-122237500D02*
X-43656250Y-122300000D01*
X-43656250Y-114300000D02*
X-43656250Y-122237500D01*
X-62668750Y-98880000D02*
X-62668750Y-107078750D01*
X-63303750Y-98245000D02*
X-62668750Y-98880000D01*
X-62668750Y-107078750D02*
X-64230000Y-108640000D01*
X-63303750Y-95578000D02*
X-63303750Y-98245000D01*
X-81705000Y-100515000D02*
X-83230000Y-102040000D01*
X-81705000Y-91721250D02*
X-81705000Y-100515000D01*
X-82340000Y-91086250D02*
X-81705000Y-91721250D01*
X-82340000Y-88990750D02*
X-82340000Y-91086250D01*
X-101490000Y-92247500D02*
X-101490000Y-94311250D01*
X-101490000Y-94311250D02*
X-100855000Y-94946250D01*
X-102380000Y-105265000D02*
X-102380000Y-104408750D01*
X-100855000Y-102883750D02*
X-100855000Y-102946250D01*
X-102380000Y-104408750D02*
X-100855000Y-102883750D01*
X-100855000Y-94946250D02*
X-100855000Y-102883750D01*
X-120590000Y-92868750D02*
X-120590000Y-95504000D01*
X-120590000Y-95408750D02*
X-119955000Y-96043750D01*
X-119856250Y-103250000D02*
X-121381250Y-104775000D01*
X-119856250Y-96043750D02*
X-119856250Y-103250000D01*
X-163589149Y-107836841D02*
X-164464808Y-108712500D01*
X-157502795Y-107836841D02*
X-163589149Y-107836841D01*
X-37845000Y-130651250D02*
X-40481250Y-133287500D01*
X-27622500Y-130651250D02*
X-37845000Y-130651250D01*
X-40481250Y-136587500D02*
X-54768750Y-136587500D01*
X-54768750Y-136587500D02*
X-54768750Y-141287500D01*
X-54768750Y-141287500D02*
X-71437500Y-141287500D01*
X-71437500Y-141287500D02*
X-73818750Y-138906250D01*
X-73818750Y-138906250D02*
X-73818750Y-117537500D01*
X-77787500Y-142937500D02*
X-96043750Y-142937500D01*
X-73818750Y-138968750D02*
X-77787500Y-142937500D01*
X-73818750Y-138906250D02*
X-73818750Y-138968750D01*
X-96043750Y-142937500D02*
X-118331250Y-142937500D01*
X-118331250Y-142937500D02*
X-118610192Y-142937500D01*
X-140493750Y-113506250D02*
X-141128942Y-114141442D01*
X-132556250Y-113506250D02*
X-140493750Y-113506250D01*
X-127000000Y-134937500D02*
X-127000000Y-119062500D01*
X-119000000Y-142937500D02*
X-127000000Y-134937500D01*
X-141128942Y-114141442D02*
X-141128942Y-116712500D01*
X-127000000Y-119062500D02*
X-132556250Y-113506250D01*
X-118331250Y-142937500D02*
X-119000000Y-142937500D01*
X-141128942Y-116712500D02*
X-146081250Y-116712500D01*
X-146081250Y-116712500D02*
X-150812500Y-121443750D01*
X-150812500Y-121443750D02*
X-156368750Y-121443750D01*
X-158591442Y-123666442D02*
X-158591442Y-127031250D01*
X-156368750Y-121443750D02*
X-158591442Y-123666442D01*
X-173990000Y-57943750D02*
X-176688750Y-55245000D01*
X-158750000Y-57943750D02*
X-173990000Y-57943750D01*
X-169862500Y-105568750D02*
X-157162500Y-92868750D01*
X-169862500Y-116681250D02*
X-169862500Y-105568750D01*
X-159512500Y-127031250D02*
X-169862500Y-116681250D01*
X-157162500Y-59531250D02*
X-158750000Y-57943750D01*
X-157162500Y-92868750D02*
X-157162500Y-59531250D01*
X-158591442Y-127031250D02*
X-159512500Y-127031250D01*
X-57405000Y-130651250D02*
X-54768750Y-133287500D01*
X-63335000Y-130651250D02*
X-57405000Y-130651250D01*
X-76455000Y-111601250D02*
X-73818750Y-114237500D01*
X-82385000Y-111601250D02*
X-76455000Y-111601250D01*
X-82321500Y-130663250D02*
X-82321500Y-132778500D01*
X-82321500Y-132778500D02*
X-81750000Y-133350000D01*
X-81750000Y-133350000D02*
X-81750000Y-138118750D01*
X-80231250Y-139637500D02*
X-77787500Y-139637500D01*
X-81750000Y-138118750D02*
X-80231250Y-139637500D01*
X-101435000Y-130651250D02*
X-98742500Y-130651250D01*
X-96043750Y-133350000D02*
X-96043750Y-139637500D01*
X-98742500Y-130651250D02*
X-96043750Y-133350000D01*
X-136525000Y-116808558D02*
X-138271058Y-115062500D01*
X-136525000Y-116808558D02*
X-136525000Y-118268750D01*
X-143781909Y-125525659D02*
X-143781909Y-130515295D01*
X-136525000Y-118268750D02*
X-143781909Y-125525659D01*
X-175418750Y-68421250D02*
X-177800000Y-70802500D01*
X-175418750Y-65722500D02*
X-175418750Y-68421250D01*
X-175418750Y-65722500D02*
X-175418750Y-66710328D01*
X-165100000Y-38576250D02*
X-161448750Y-34925000D01*
X-167957500Y-38576250D02*
X-165100000Y-38576250D01*
X-173196250Y-61118750D02*
X-173037500Y-61118750D01*
X-177800000Y-65722500D02*
X-173196250Y-61118750D01*
X-175418750Y-70802500D02*
X-173990000Y-70802500D01*
X-173990000Y-70802500D02*
X-173037500Y-69850000D01*
X-173037500Y-69850000D02*
X-173037500Y-65087500D01*
X-170497500Y-62547500D02*
X-170497500Y-61118750D01*
X-173037500Y-65087500D02*
X-170497500Y-62547500D01*
X-173672500Y-43021250D02*
X-176688750Y-40005000D01*
X-170497500Y-43021250D02*
X-173672500Y-43021250D01*
X-165417500Y-65167500D02*
X-165417500Y-61118750D01*
X-170100000Y-69850000D02*
X-165417500Y-65167500D01*
X-178961250Y-30112500D02*
X-176688750Y-32385000D01*
X-180462500Y-30112500D02*
X-178961250Y-30112500D01*
X-176688750Y-32385000D02*
X-176688750Y-34925000D01*
X-179421250Y-27112500D02*
X-176688750Y-29845000D01*
X-180462500Y-27112500D02*
X-179421250Y-27112500D01*
X-139541250Y-54451250D02*
X-139541250Y-56515000D01*
X-139541250Y-56515000D02*
X-138906250Y-57150000D01*
X-138906250Y-66675000D02*
X-139700000Y-67468750D01*
X-138906250Y-57150000D02*
X-138906250Y-66675000D01*
X-160450659Y-140040295D02*
X-160450659Y-133463159D01*
X-155733558Y-128746058D02*
X-155733558Y-125381250D01*
X-160450659Y-133463159D02*
X-155733558Y-128746058D01*
M02*
