M48
; DRILL file {KiCad 5.1.10} date Sat Aug  7 14:45:38 2021
; FORMAT={-:-/ absolute / inch / decimal}
; #@! TF.CreationDate,2021-08-07T14:45:38-04:00
; #@! TF.GenerationSoftware,Kicad,Pcbnew,5.1.10
; #@! TF.FileFunction,NonPlated,1,2,NPTH
FMAT,2
INCH
T1C0.0472
T2C0.0689
T3C0.0866
T4C0.1200
T5C0.1570
%
G90
G05
T1
X-7.1875Y-0.9966
X-7.1875Y-1.2721
X-6.5984Y-2.7976
T2
X-6.3607Y-4.5687
X-6.1937Y-5.3268
X-6.0143Y-4.3687
X-5.9937Y-5.6732
X-5.7938Y-1.5938
X-5.7938Y-2.3438
X-5.5938Y-3.0812
X-5.5938Y-3.4812
X-5.5375Y-4.9518
X-5.3937Y-1.5938
X-5.3937Y-2.3438
X-5.3375Y-5.2982
X-5.0476Y-1.5938
X-5.0476Y-2.3438
X-5.0476Y-3.0938
X-5.0476Y-3.8438
X-4.6476Y-1.5938
X-4.6476Y-2.3438
X-4.6476Y-3.0938
X-4.6476Y-3.8438
X-4.2957Y-1.5818
X-4.2957Y-2.3318
X-4.2957Y-3.0818
X-4.2957Y-3.8318
X-4.2935Y-5.3438
X-3.8957Y-1.5818
X-3.8957Y-2.3318
X-3.8957Y-3.0818
X-3.8957Y-3.8318
X-3.8935Y-5.3438
X-3.5435Y-4.5938
X-3.5417Y-1.4536
X-3.5417Y-2.2036
X-3.5417Y-2.9536
X-3.5417Y-3.7036
X-3.541Y-5.3442
X-3.1435Y-4.5938
X-3.1417Y-1.4536
X-3.1417Y-2.2036
X-3.1417Y-2.9536
X-3.1417Y-3.7036
X-3.141Y-5.3442
X-2.7935Y-5.3438
X-2.7923Y-1.7129
X-2.7923Y-2.4629
X-2.7923Y-3.2129
X-2.7923Y-3.9629
X-2.3935Y-5.3438
X-2.3923Y-1.7129
X-2.3923Y-2.4629
X-2.3923Y-3.2129
X-2.3923Y-3.9629
X-2.0437Y-2.3438
X-2.0437Y-3.0938
X-2.0437Y-3.8438
X-2.0437Y-4.5938
X-1.6438Y-2.3438
X-1.6438Y-3.0938
X-1.6438Y-3.8438
X-1.6438Y-4.5938
X-1.3875Y-5.3438
X-1.2937Y-2.3438
X-1.2937Y-3.0938
X-1.2937Y-3.8438
X-1.2937Y-4.5938
X-1.1062Y-4.5938
X-0.9875Y-5.3438
X-0.8937Y-2.3438
X-0.8937Y-3.0938
X-0.8937Y-3.8438
X-0.8937Y-4.5938
X-0.7062Y-4.5938
T3
X-7.1555Y-2.75
X-6.2992Y-2.75
T4
X-1.6562Y-5.0687
X-0.7188Y-5.0687
T5
X-6.1875Y-4.4688
X-6.0938Y-5.5
X-5.5938Y-1.5938
X-5.5938Y-2.3438
X-5.5938Y-3.2812
X-5.4375Y-5.125
X-4.8476Y-1.5938
X-4.8476Y-2.3438
X-4.8476Y-3.0938
X-4.8476Y-3.8438
X-4.0957Y-1.5818
X-4.0957Y-2.3318
X-4.0957Y-3.0818
X-4.0957Y-3.8318
X-4.0935Y-5.3438
X-3.3435Y-4.5938
X-3.3417Y-1.4536
X-3.3417Y-2.2036
X-3.3417Y-2.9536
X-3.3417Y-3.7036
X-3.341Y-5.3442
X-2.5935Y-5.3438
X-2.5923Y-1.7129
X-2.5923Y-2.4629
X-2.5923Y-3.2129
X-2.5923Y-3.9629
X-1.8438Y-2.3438
X-1.8438Y-3.0938
X-1.8438Y-3.8438
X-1.8438Y-4.5938
X-1.6562Y-5.6688
X-1.1875Y-5.3438
X-1.0938Y-2.3438
X-1.0938Y-3.0938
X-1.0938Y-3.8438
X-1.0938Y-4.5938
X-0.9062Y-4.5938
X-0.7188Y-5.6688
T0
M30
