M48
; DRILL file {KiCad 5.1.10} date Sat Aug  7 14:45:38 2021
; FORMAT={-:-/ absolute / inch / decimal}
; #@! TF.CreationDate,2021-08-07T14:45:38-04:00
; #@! TF.GenerationSoftware,Kicad,Pcbnew,5.1.10
; #@! TF.FileFunction,Plated,1,2,PTH
FMAT,2
INCH
T1C0.0157
T2C0.0320
T3C0.0390
T4C0.0394
T5C0.0430
T6C0.0512
T7C0.0579
%
G90
G05
T1
X-6.7125Y-1.6937
X-6.6125Y-1.5188
T2
X-7.0Y-2.5875
X-7.0Y-2.7875
X-6.9062Y-2.5875
X-6.9062Y-2.7875
X-6.8125Y-2.4062
X-6.7125Y-2.4062
X-6.6125Y-2.4062
X-6.5125Y-2.4062
T3
X-6.6969Y-2.75
X-6.5Y-2.75
T5
X-6.9562Y-1.075
X-6.9562Y-1.175
X-6.9562Y-1.275
X-6.9562Y-1.375
X-6.9562Y-1.475
X-6.9562Y-1.575
X-6.9562Y-1.675
X-6.9562Y-1.775
X-6.9562Y-1.875
X-6.9562Y-1.975
X-6.9562Y-2.075
X-6.9562Y-2.175
X-6.3563Y-1.075
X-6.3563Y-1.175
X-6.3563Y-1.275
X-6.3563Y-1.375
X-6.3563Y-1.475
X-6.3563Y-1.575
X-6.3563Y-1.675
X-6.3563Y-1.775
X-6.3563Y-1.875
X-6.3563Y-1.975
X-6.3563Y-2.075
X-6.3563Y-2.175
T6
X-6.7366Y-2.652
X-6.4606Y-2.652
T7
X-6.3674Y-4.4571
X-6.317Y-5.5134
X-6.2009Y-4.2455
X-6.1054Y-5.6799
X-5.7938Y-3.1812
X-5.7437Y-1.4937
X-5.7437Y-2.2437
X-5.6937Y-3.4312
X-5.6607Y-5.1384
X-5.4937Y-1.3938
X-5.4937Y-2.1437
X-5.4491Y-5.3049
X-4.9976Y-1.4937
X-4.9976Y-2.2437
X-4.9976Y-2.9937
X-4.9976Y-3.7437
X-4.7476Y-1.3938
X-4.7476Y-2.1437
X-4.7476Y-2.8937
X-4.7476Y-3.6437
X-4.2457Y-1.4818
X-4.2457Y-2.2318
X-4.2457Y-2.9818
X-4.2457Y-3.7318
X-4.2435Y-5.2437
X-3.9957Y-1.3818
X-3.9957Y-2.1318
X-3.9957Y-2.8818
X-3.9957Y-3.6318
X-3.9935Y-5.1437
X-3.4935Y-4.4937
X-3.4917Y-1.3536
X-3.4917Y-2.1036
X-3.4917Y-2.8536
X-3.4917Y-3.6036
X-3.491Y-5.2442
X-3.2435Y-4.3937
X-3.2417Y-1.2536
X-3.2417Y-2.0036
X-3.2417Y-2.7536
X-3.2417Y-3.5036
X-3.241Y-5.1442
X-2.7435Y-5.2437
X-2.7423Y-1.6129
X-2.7423Y-2.3629
X-2.7423Y-3.1129
X-2.7423Y-3.8629
X-2.4935Y-5.1437
X-2.4923Y-1.5129
X-2.4923Y-2.2629
X-2.4923Y-3.0129
X-2.4923Y-3.7629
X-1.9937Y-2.2437
X-1.9937Y-2.9937
X-1.9937Y-3.7437
X-1.9937Y-4.4937
X-1.7437Y-2.1437
X-1.7437Y-2.8937
X-1.7437Y-3.6437
X-1.7437Y-4.3937
X-1.3375Y-5.2437
X-1.2437Y-2.2437
X-1.2437Y-2.9937
X-1.2437Y-3.7437
X-1.2437Y-4.4937
X-1.0875Y-5.1437
X-1.0062Y-4.7938
X-0.9938Y-2.1437
X-0.9938Y-2.8937
X-0.9938Y-3.6437
X-0.9938Y-4.3937
X-0.7562Y-4.6937
T4
G00X-7.2702Y-1.3922
M15
G01X-7.2702Y-1.4119
M16
G05
G00X-7.1048Y-1.0576
M15
G01X-7.1048Y-1.0773
M16
G05
G00X-7.1048Y-1.1757
M15
G01X-7.1048Y-1.1954
M16
G05
G00X-7.1048Y-1.3332
M15
G01X-7.1048Y-1.3529
M16
G05
T0
M30
