G04 #@! TF.GenerationSoftware,KiCad,Pcbnew,5.1.10*
G04 #@! TF.CreationDate,2021-08-07T14:45:30-04:00*
G04 #@! TF.ProjectId,v05_right,7630355f-7269-4676-9874-2e6b69636164,rev?*
G04 #@! TF.SameCoordinates,Original*
G04 #@! TF.FileFunction,Legend,Bot*
G04 #@! TF.FilePolarity,Positive*
%FSLAX46Y46*%
G04 Gerber Fmt 4.6, Leading zero omitted, Abs format (unit mm)*
G04 Created by KiCad (PCBNEW 5.1.10) date 2021-08-07 14:45:30*
%MOMM*%
%LPD*%
G01*
G04 APERTURE LIST*
%ADD10C,0.300000*%
%ADD11C,0.150000*%
%ADD12C,0.100000*%
%ADD13C,0.381000*%
%ADD14C,2.250000*%
%ADD15C,3.987800*%
%ADD16C,1.750000*%
%ADD17C,3.048000*%
%ADD18R,0.900000X1.200000*%
%ADD19O,1.700000X2.500000*%
%ADD20C,1.200000*%
%ADD21C,2.100000*%
%ADD22C,2.200000*%
%ADD23R,1.200000X0.900000*%
%ADD24C,1.397000*%
%ADD25R,1.752600X1.752600*%
%ADD26C,1.752600*%
G04 APERTURE END LIST*
D10*
X-108434821Y-119741071D02*
X-107934821Y-119026785D01*
X-107577678Y-119741071D02*
X-107577678Y-118241071D01*
X-108149107Y-118241071D01*
X-108291964Y-118312500D01*
X-108363392Y-118383928D01*
X-108434821Y-118526785D01*
X-108434821Y-118741071D01*
X-108363392Y-118883928D01*
X-108291964Y-118955357D01*
X-108149107Y-119026785D01*
X-107577678Y-119026785D01*
X-109077678Y-119741071D02*
X-109077678Y-118241071D01*
X-110577678Y-118312500D02*
X-110434821Y-118241071D01*
X-110220535Y-118241071D01*
X-110006250Y-118312500D01*
X-109863392Y-118455357D01*
X-109791964Y-118598214D01*
X-109720535Y-118883928D01*
X-109720535Y-119098214D01*
X-109791964Y-119383928D01*
X-109863392Y-119526785D01*
X-110006250Y-119669642D01*
X-110220535Y-119741071D01*
X-110363392Y-119741071D01*
X-110577678Y-119669642D01*
X-110649107Y-119598214D01*
X-110649107Y-119098214D01*
X-110363392Y-119098214D01*
X-111291964Y-119741071D02*
X-111291964Y-118241071D01*
X-111291964Y-118955357D02*
X-112149107Y-118955357D01*
X-112149107Y-119741071D02*
X-112149107Y-118241071D01*
X-112649107Y-118241071D02*
X-113506250Y-118241071D01*
X-113077678Y-119741071D02*
X-113077678Y-118241071D01*
X-115077678Y-119669642D02*
X-115291964Y-119741071D01*
X-115649107Y-119741071D01*
X-115791964Y-119669642D01*
X-115863392Y-119598214D01*
X-115934821Y-119455357D01*
X-115934821Y-119312500D01*
X-115863392Y-119169642D01*
X-115791964Y-119098214D01*
X-115649107Y-119026785D01*
X-115363392Y-118955357D01*
X-115220535Y-118883928D01*
X-115149107Y-118812500D01*
X-115077678Y-118669642D01*
X-115077678Y-118526785D01*
X-115149107Y-118383928D01*
X-115220535Y-118312500D01*
X-115363392Y-118241071D01*
X-115720535Y-118241071D01*
X-115934821Y-118312500D01*
X-116577678Y-119741071D02*
X-116577678Y-118241071D01*
X-117291964Y-119741071D02*
X-117291964Y-118241071D01*
X-117649107Y-118241071D01*
X-117863392Y-118312500D01*
X-118006250Y-118455357D01*
X-118077678Y-118598214D01*
X-118149107Y-118883928D01*
X-118149107Y-119098214D01*
X-118077678Y-119383928D01*
X-118006250Y-119526785D01*
X-117863392Y-119669642D01*
X-117649107Y-119741071D01*
X-117291964Y-119741071D01*
X-118791964Y-118955357D02*
X-119291964Y-118955357D01*
X-119506250Y-119741071D02*
X-118791964Y-119741071D01*
X-118791964Y-118241071D01*
X-119506250Y-118241071D01*
D11*
X-106149107Y-116244642D02*
X-106101488Y-116292261D01*
X-105958630Y-116339880D01*
X-105863392Y-116339880D01*
X-105720535Y-116292261D01*
X-105625297Y-116197023D01*
X-105577678Y-116101785D01*
X-105530059Y-115911309D01*
X-105530059Y-115768452D01*
X-105577678Y-115577976D01*
X-105625297Y-115482738D01*
X-105720535Y-115387500D01*
X-105863392Y-115339880D01*
X-105958630Y-115339880D01*
X-106101488Y-115387500D01*
X-106149107Y-115435119D01*
X-107006250Y-115673214D02*
X-107006250Y-116339880D01*
X-106577678Y-115673214D02*
X-106577678Y-116197023D01*
X-106625297Y-116292261D01*
X-106720535Y-116339880D01*
X-106863392Y-116339880D01*
X-106958630Y-116292261D01*
X-107006250Y-116244642D01*
X-107434821Y-116292261D02*
X-107530059Y-116339880D01*
X-107720535Y-116339880D01*
X-107815773Y-116292261D01*
X-107863392Y-116197023D01*
X-107863392Y-116149404D01*
X-107815773Y-116054166D01*
X-107720535Y-116006547D01*
X-107577678Y-116006547D01*
X-107482440Y-115958928D01*
X-107434821Y-115863690D01*
X-107434821Y-115816071D01*
X-107482440Y-115720833D01*
X-107577678Y-115673214D01*
X-107720535Y-115673214D01*
X-107815773Y-115720833D01*
X-108149107Y-115673214D02*
X-108530059Y-115673214D01*
X-108291964Y-115339880D02*
X-108291964Y-116197023D01*
X-108339583Y-116292261D01*
X-108434821Y-116339880D01*
X-108530059Y-116339880D01*
X-109006250Y-116339880D02*
X-108911011Y-116292261D01*
X-108863392Y-116244642D01*
X-108815773Y-116149404D01*
X-108815773Y-115863690D01*
X-108863392Y-115768452D01*
X-108911011Y-115720833D01*
X-109006250Y-115673214D01*
X-109149107Y-115673214D01*
X-109244345Y-115720833D01*
X-109291964Y-115768452D01*
X-109339583Y-115863690D01*
X-109339583Y-116149404D01*
X-109291964Y-116244642D01*
X-109244345Y-116292261D01*
X-109149107Y-116339880D01*
X-109006250Y-116339880D01*
X-109768154Y-116339880D02*
X-109768154Y-115673214D01*
X-109768154Y-115768452D02*
X-109815773Y-115720833D01*
X-109911011Y-115673214D01*
X-110053869Y-115673214D01*
X-110149107Y-115720833D01*
X-110196726Y-115816071D01*
X-110196726Y-116339880D01*
X-110196726Y-115816071D02*
X-110244345Y-115720833D01*
X-110339583Y-115673214D01*
X-110482440Y-115673214D01*
X-110577678Y-115720833D01*
X-110625297Y-115816071D01*
X-110625297Y-116339880D01*
X-112196726Y-115816071D02*
X-112339583Y-115863690D01*
X-112387202Y-115911309D01*
X-112434821Y-116006547D01*
X-112434821Y-116149404D01*
X-112387202Y-116244642D01*
X-112339583Y-116292261D01*
X-112244345Y-116339880D01*
X-111863392Y-116339880D01*
X-111863392Y-115339880D01*
X-112196726Y-115339880D01*
X-112291964Y-115387500D01*
X-112339583Y-115435119D01*
X-112387202Y-115530357D01*
X-112387202Y-115625595D01*
X-112339583Y-115720833D01*
X-112291964Y-115768452D01*
X-112196726Y-115816071D01*
X-111863392Y-115816071D01*
X-113006250Y-116339880D02*
X-112911011Y-116292261D01*
X-112863392Y-116244642D01*
X-112815773Y-116149404D01*
X-112815773Y-115863690D01*
X-112863392Y-115768452D01*
X-112911011Y-115720833D01*
X-113006250Y-115673214D01*
X-113149107Y-115673214D01*
X-113244345Y-115720833D01*
X-113291964Y-115768452D01*
X-113339583Y-115863690D01*
X-113339583Y-116149404D01*
X-113291964Y-116244642D01*
X-113244345Y-116292261D01*
X-113149107Y-116339880D01*
X-113006250Y-116339880D01*
X-114196726Y-115673214D02*
X-114196726Y-116339880D01*
X-113768154Y-115673214D02*
X-113768154Y-116197023D01*
X-113815773Y-116292261D01*
X-113911011Y-116339880D01*
X-114053869Y-116339880D01*
X-114149107Y-116292261D01*
X-114196726Y-116244642D01*
X-114672916Y-116339880D02*
X-114672916Y-115673214D01*
X-114672916Y-115863690D02*
X-114720535Y-115768452D01*
X-114768154Y-115720833D01*
X-114863392Y-115673214D01*
X-114958630Y-115673214D01*
X-115291964Y-116339880D02*
X-115291964Y-115339880D01*
X-115291964Y-115720833D02*
X-115387202Y-115673214D01*
X-115577678Y-115673214D01*
X-115672916Y-115720833D01*
X-115720535Y-115768452D01*
X-115768154Y-115863690D01*
X-115768154Y-116149404D01*
X-115720535Y-116244642D01*
X-115672916Y-116292261D01*
X-115577678Y-116339880D01*
X-115387202Y-116339880D01*
X-115291964Y-116292261D01*
X-116339583Y-116339880D02*
X-116244345Y-116292261D01*
X-116196726Y-116244642D01*
X-116149107Y-116149404D01*
X-116149107Y-115863690D01*
X-116196726Y-115768452D01*
X-116244345Y-115720833D01*
X-116339583Y-115673214D01*
X-116482440Y-115673214D01*
X-116577678Y-115720833D01*
X-116625297Y-115768452D01*
X-116672916Y-115863690D01*
X-116672916Y-116149404D01*
X-116625297Y-116244642D01*
X-116577678Y-116292261D01*
X-116482440Y-116339880D01*
X-116339583Y-116339880D01*
X-117101488Y-115673214D02*
X-117101488Y-116339880D01*
X-117101488Y-115768452D02*
X-117149107Y-115720833D01*
X-117244345Y-115673214D01*
X-117387202Y-115673214D01*
X-117482440Y-115720833D01*
X-117530059Y-115816071D01*
X-117530059Y-116339880D01*
X-118672916Y-115673214D02*
X-118911011Y-116339880D01*
X-119149107Y-115673214D01*
X-120053869Y-116339880D02*
X-119482440Y-116339880D01*
X-119768154Y-116339880D02*
X-119768154Y-115339880D01*
X-119672916Y-115482738D01*
X-119577678Y-115577976D01*
X-119482440Y-115625595D01*
X-120482440Y-116244642D02*
X-120530059Y-116292261D01*
X-120482440Y-116339880D01*
X-120434821Y-116292261D01*
X-120482440Y-116244642D01*
X-120482440Y-116339880D01*
X-121149107Y-115339880D02*
X-121244345Y-115339880D01*
X-121339583Y-115387500D01*
X-121387202Y-115435119D01*
X-121434821Y-115530357D01*
X-121482440Y-115720833D01*
X-121482440Y-115958928D01*
X-121434821Y-116149404D01*
X-121387202Y-116244642D01*
X-121339583Y-116292261D01*
X-121244345Y-116339880D01*
X-121149107Y-116339880D01*
X-121053869Y-116292261D01*
X-121006250Y-116244642D01*
X-120958630Y-116149404D01*
X-120911011Y-115958928D01*
X-120911011Y-115720833D01*
X-120958630Y-115530357D01*
X-121006250Y-115435119D01*
X-121053869Y-115387500D01*
X-121149107Y-115339880D01*
D12*
X-156945994Y-126081250D02*
X-156512981Y-125831250D01*
X-157145994Y-125734840D02*
X-157465609Y-126381250D01*
X-156745994Y-126427660D02*
X-157145994Y-125734840D01*
X-157465609Y-126381250D02*
X-156745994Y-126427660D01*
X-157465609Y-126381250D02*
X-157740609Y-125904936D01*
X-157465609Y-126381250D02*
X-157190609Y-126857564D01*
X-157812019Y-126581250D02*
X-157465609Y-126381250D01*
X-158824936Y-126126827D02*
X-157924936Y-127685673D01*
X-156400064Y-124726827D02*
X-158824936Y-126126827D01*
X-155500064Y-126285673D02*
X-156400064Y-124726827D01*
X-157924936Y-127685673D02*
X-155500064Y-126285673D01*
X-141100000Y-67468750D02*
X-140600000Y-67468750D01*
X-141100000Y-67068750D02*
X-141700000Y-67468750D01*
X-141100000Y-67868750D02*
X-141100000Y-67068750D01*
X-141700000Y-67468750D02*
X-141100000Y-67868750D01*
X-141700000Y-67468750D02*
X-141700000Y-66918750D01*
X-141700000Y-67468750D02*
X-141700000Y-68018750D01*
X-142100000Y-67468750D02*
X-141700000Y-67468750D01*
X-142750000Y-66568750D02*
X-142750000Y-68368750D01*
X-139950000Y-66568750D02*
X-142750000Y-66568750D01*
X-139950000Y-68368750D02*
X-139950000Y-66568750D01*
X-142750000Y-68368750D02*
X-139950000Y-68368750D01*
X-140462436Y-117366923D02*
X-138037564Y-115966923D01*
X-138037564Y-115966923D02*
X-138937564Y-114408077D01*
X-138937564Y-114408077D02*
X-141362436Y-115808077D01*
X-141362436Y-115808077D02*
X-140462436Y-117366923D01*
X-140349519Y-116262500D02*
X-140003109Y-116062500D01*
X-140003109Y-116062500D02*
X-139728109Y-116538814D01*
X-140003109Y-116062500D02*
X-140278109Y-115586186D01*
X-140003109Y-116062500D02*
X-139283494Y-116108910D01*
X-139283494Y-116108910D02*
X-139683494Y-115416090D01*
X-139683494Y-115416090D02*
X-140003109Y-116062500D01*
X-139483494Y-115762500D02*
X-139050481Y-115512500D01*
X-95143750Y-142687500D02*
X-95143750Y-139887500D01*
X-95143750Y-139887500D02*
X-96943750Y-139887500D01*
X-96943750Y-139887500D02*
X-96943750Y-142687500D01*
X-96943750Y-142687500D02*
X-95143750Y-142687500D01*
X-96043750Y-142037500D02*
X-96043750Y-141637500D01*
X-96043750Y-141637500D02*
X-95493750Y-141637500D01*
X-96043750Y-141637500D02*
X-96593750Y-141637500D01*
X-96043750Y-141637500D02*
X-95643750Y-141037500D01*
X-95643750Y-141037500D02*
X-96443750Y-141037500D01*
X-96443750Y-141037500D02*
X-96043750Y-141637500D01*
X-96043750Y-141037500D02*
X-96043750Y-140537500D01*
X-76887500Y-142687500D02*
X-76887500Y-139887500D01*
X-76887500Y-139887500D02*
X-78687500Y-139887500D01*
X-78687500Y-139887500D02*
X-78687500Y-142687500D01*
X-78687500Y-142687500D02*
X-76887500Y-142687500D01*
X-77787500Y-142037500D02*
X-77787500Y-141637500D01*
X-77787500Y-141637500D02*
X-77237500Y-141637500D01*
X-77787500Y-141637500D02*
X-78337500Y-141637500D01*
X-77787500Y-141637500D02*
X-77387500Y-141037500D01*
X-77387500Y-141037500D02*
X-78187500Y-141037500D01*
X-78187500Y-141037500D02*
X-77787500Y-141637500D01*
X-77787500Y-141037500D02*
X-77787500Y-140537500D01*
X-72918750Y-117287500D02*
X-72918750Y-114487500D01*
X-72918750Y-114487500D02*
X-74718750Y-114487500D01*
X-74718750Y-114487500D02*
X-74718750Y-117287500D01*
X-74718750Y-117287500D02*
X-72918750Y-117287500D01*
X-73818750Y-116637500D02*
X-73818750Y-116237500D01*
X-73818750Y-116237500D02*
X-73268750Y-116237500D01*
X-73818750Y-116237500D02*
X-74368750Y-116237500D01*
X-73818750Y-116237500D02*
X-73418750Y-115637500D01*
X-73418750Y-115637500D02*
X-74218750Y-115637500D01*
X-74218750Y-115637500D02*
X-73818750Y-116237500D01*
X-73818750Y-115637500D02*
X-73818750Y-115137500D01*
X-53868750Y-136337500D02*
X-53868750Y-133537500D01*
X-53868750Y-133537500D02*
X-55668750Y-133537500D01*
X-55668750Y-133537500D02*
X-55668750Y-136337500D01*
X-55668750Y-136337500D02*
X-53868750Y-136337500D01*
X-54768750Y-135687500D02*
X-54768750Y-135287500D01*
X-54768750Y-135287500D02*
X-54218750Y-135287500D01*
X-54768750Y-135287500D02*
X-55318750Y-135287500D01*
X-54768750Y-135287500D02*
X-54368750Y-134687500D01*
X-54368750Y-134687500D02*
X-55168750Y-134687500D01*
X-55168750Y-134687500D02*
X-54768750Y-135287500D01*
X-54768750Y-134687500D02*
X-54768750Y-134187500D01*
X-39581250Y-136337500D02*
X-39581250Y-133537500D01*
X-39581250Y-133537500D02*
X-41381250Y-133537500D01*
X-41381250Y-133537500D02*
X-41381250Y-136337500D01*
X-41381250Y-136337500D02*
X-39581250Y-136337500D01*
X-40481250Y-135687500D02*
X-40481250Y-135287500D01*
X-40481250Y-135287500D02*
X-39931250Y-135287500D01*
X-40481250Y-135287500D02*
X-41031250Y-135287500D01*
X-40481250Y-135287500D02*
X-40081250Y-134687500D01*
X-40081250Y-134687500D02*
X-40881250Y-134687500D01*
X-40881250Y-134687500D02*
X-40481250Y-135287500D01*
X-40481250Y-134687500D02*
X-40481250Y-134187500D01*
X-166656186Y-111016923D02*
X-164231314Y-109616923D01*
X-164231314Y-109616923D02*
X-165131314Y-108058077D01*
X-165131314Y-108058077D02*
X-167556186Y-109458077D01*
X-167556186Y-109458077D02*
X-166656186Y-111016923D01*
X-166543269Y-109912500D02*
X-166196859Y-109712500D01*
X-166196859Y-109712500D02*
X-165921859Y-110188814D01*
X-166196859Y-109712500D02*
X-166471859Y-109236186D01*
X-166196859Y-109712500D02*
X-165477244Y-109758910D01*
X-165477244Y-109758910D02*
X-165877244Y-109066090D01*
X-165877244Y-109066090D02*
X-166196859Y-109712500D01*
X-165677244Y-109412500D02*
X-165244231Y-109162500D01*
X-124431250Y-105675000D02*
X-121631250Y-105675000D01*
X-121631250Y-105675000D02*
X-121631250Y-103875000D01*
X-121631250Y-103875000D02*
X-124431250Y-103875000D01*
X-124431250Y-103875000D02*
X-124431250Y-105675000D01*
X-123781250Y-104775000D02*
X-123381250Y-104775000D01*
X-123381250Y-104775000D02*
X-123381250Y-105325000D01*
X-123381250Y-104775000D02*
X-123381250Y-104225000D01*
X-123381250Y-104775000D02*
X-122781250Y-105175000D01*
X-122781250Y-105175000D02*
X-122781250Y-104375000D01*
X-122781250Y-104375000D02*
X-123381250Y-104775000D01*
X-122781250Y-104775000D02*
X-122281250Y-104775000D01*
X-105430000Y-106165000D02*
X-102630000Y-106165000D01*
X-102630000Y-106165000D02*
X-102630000Y-104365000D01*
X-102630000Y-104365000D02*
X-105430000Y-104365000D01*
X-105430000Y-104365000D02*
X-105430000Y-106165000D01*
X-104780000Y-105265000D02*
X-104380000Y-105265000D01*
X-104380000Y-105265000D02*
X-104380000Y-105815000D01*
X-104380000Y-105265000D02*
X-104380000Y-104715000D01*
X-104380000Y-105265000D02*
X-103780000Y-105665000D01*
X-103780000Y-105665000D02*
X-103780000Y-104865000D01*
X-103780000Y-104865000D02*
X-104380000Y-105265000D01*
X-103780000Y-105265000D02*
X-103280000Y-105265000D01*
X-86280000Y-102940000D02*
X-83480000Y-102940000D01*
X-83480000Y-102940000D02*
X-83480000Y-101140000D01*
X-83480000Y-101140000D02*
X-86280000Y-101140000D01*
X-86280000Y-101140000D02*
X-86280000Y-102940000D01*
X-85630000Y-102040000D02*
X-85230000Y-102040000D01*
X-85230000Y-102040000D02*
X-85230000Y-102590000D01*
X-85230000Y-102040000D02*
X-85230000Y-101490000D01*
X-85230000Y-102040000D02*
X-84630000Y-102440000D01*
X-84630000Y-102440000D02*
X-84630000Y-101640000D01*
X-84630000Y-101640000D02*
X-85230000Y-102040000D01*
X-84630000Y-102040000D02*
X-84130000Y-102040000D01*
X-67280000Y-109540000D02*
X-64480000Y-109540000D01*
X-64480000Y-109540000D02*
X-64480000Y-107740000D01*
X-64480000Y-107740000D02*
X-67280000Y-107740000D01*
X-67280000Y-107740000D02*
X-67280000Y-109540000D01*
X-66630000Y-108640000D02*
X-66230000Y-108640000D01*
X-66230000Y-108640000D02*
X-66230000Y-109190000D01*
X-66230000Y-108640000D02*
X-66230000Y-108090000D01*
X-66230000Y-108640000D02*
X-65630000Y-109040000D01*
X-65630000Y-109040000D02*
X-65630000Y-108240000D01*
X-65630000Y-108240000D02*
X-66230000Y-108640000D01*
X-65630000Y-108640000D02*
X-65130000Y-108640000D01*
X-48231250Y-125518750D02*
X-45431250Y-125518750D01*
X-45431250Y-125518750D02*
X-45431250Y-123718750D01*
X-45431250Y-123718750D02*
X-48231250Y-123718750D01*
X-48231250Y-123718750D02*
X-48231250Y-125518750D01*
X-47581250Y-124618750D02*
X-47181250Y-124618750D01*
X-47181250Y-124618750D02*
X-47181250Y-125168750D01*
X-47181250Y-124618750D02*
X-47181250Y-124068750D01*
X-47181250Y-124618750D02*
X-46581250Y-125018750D01*
X-46581250Y-125018750D02*
X-46581250Y-124218750D01*
X-46581250Y-124218750D02*
X-47181250Y-124618750D01*
X-46581250Y-124618750D02*
X-46081250Y-124618750D01*
X-29181250Y-125518750D02*
X-26381250Y-125518750D01*
X-26381250Y-125518750D02*
X-26381250Y-123718750D01*
X-26381250Y-123718750D02*
X-29181250Y-123718750D01*
X-29181250Y-123718750D02*
X-29181250Y-125518750D01*
X-28531250Y-124618750D02*
X-28131250Y-124618750D01*
X-28131250Y-124618750D02*
X-28131250Y-125168750D01*
X-28131250Y-124618750D02*
X-28131250Y-124068750D01*
X-28131250Y-124618750D02*
X-27531250Y-125018750D01*
X-27531250Y-125018750D02*
X-27531250Y-124218750D01*
X-27531250Y-124218750D02*
X-28131250Y-124618750D01*
X-27531250Y-124618750D02*
X-27031250Y-124618750D01*
X-147450000Y-96150000D02*
X-144650000Y-96150000D01*
X-144650000Y-96150000D02*
X-144650000Y-94350000D01*
X-144650000Y-94350000D02*
X-147450000Y-94350000D01*
X-147450000Y-94350000D02*
X-147450000Y-96150000D01*
X-146800000Y-95250000D02*
X-146400000Y-95250000D01*
X-146400000Y-95250000D02*
X-146400000Y-95800000D01*
X-146400000Y-95250000D02*
X-146400000Y-94700000D01*
X-146400000Y-95250000D02*
X-145800000Y-95650000D01*
X-145800000Y-95650000D02*
X-145800000Y-94850000D01*
X-145800000Y-94850000D02*
X-146400000Y-95250000D01*
X-145800000Y-95250000D02*
X-145300000Y-95250000D01*
X-124431250Y-87418750D02*
X-121631250Y-87418750D01*
X-121631250Y-87418750D02*
X-121631250Y-85618750D01*
X-121631250Y-85618750D02*
X-124431250Y-85618750D01*
X-124431250Y-85618750D02*
X-124431250Y-87418750D01*
X-123781250Y-86518750D02*
X-123381250Y-86518750D01*
X-123381250Y-86518750D02*
X-123381250Y-87068750D01*
X-123381250Y-86518750D02*
X-123381250Y-85968750D01*
X-123381250Y-86518750D02*
X-122781250Y-86918750D01*
X-122781250Y-86918750D02*
X-122781250Y-86118750D01*
X-122781250Y-86118750D02*
X-123381250Y-86518750D01*
X-122781250Y-86518750D02*
X-122281250Y-86518750D01*
X-105430000Y-87115000D02*
X-102630000Y-87115000D01*
X-102630000Y-87115000D02*
X-102630000Y-85315000D01*
X-102630000Y-85315000D02*
X-105430000Y-85315000D01*
X-105430000Y-85315000D02*
X-105430000Y-87115000D01*
X-104780000Y-86215000D02*
X-104380000Y-86215000D01*
X-104380000Y-86215000D02*
X-104380000Y-86765000D01*
X-104380000Y-86215000D02*
X-104380000Y-85665000D01*
X-104380000Y-86215000D02*
X-103780000Y-86615000D01*
X-103780000Y-86615000D02*
X-103780000Y-85815000D01*
X-103780000Y-85815000D02*
X-104380000Y-86215000D01*
X-103780000Y-86215000D02*
X-103280000Y-86215000D01*
X-86280000Y-83890000D02*
X-83480000Y-83890000D01*
X-83480000Y-83890000D02*
X-83480000Y-82090000D01*
X-83480000Y-82090000D02*
X-86280000Y-82090000D01*
X-86280000Y-82090000D02*
X-86280000Y-83890000D01*
X-85630000Y-82990000D02*
X-85230000Y-82990000D01*
X-85230000Y-82990000D02*
X-85230000Y-83540000D01*
X-85230000Y-82990000D02*
X-85230000Y-82440000D01*
X-85230000Y-82990000D02*
X-84630000Y-83390000D01*
X-84630000Y-83390000D02*
X-84630000Y-82590000D01*
X-84630000Y-82590000D02*
X-85230000Y-82990000D01*
X-84630000Y-82990000D02*
X-84130000Y-82990000D01*
X-67280000Y-90490000D02*
X-64480000Y-90490000D01*
X-64480000Y-90490000D02*
X-64480000Y-88690000D01*
X-64480000Y-88690000D02*
X-67280000Y-88690000D01*
X-67280000Y-88690000D02*
X-67280000Y-90490000D01*
X-66630000Y-89590000D02*
X-66230000Y-89590000D01*
X-66230000Y-89590000D02*
X-66230000Y-90140000D01*
X-66230000Y-89590000D02*
X-66230000Y-89040000D01*
X-66230000Y-89590000D02*
X-65630000Y-89990000D01*
X-65630000Y-89990000D02*
X-65630000Y-89190000D01*
X-65630000Y-89190000D02*
X-66230000Y-89590000D01*
X-65630000Y-89590000D02*
X-65130000Y-89590000D01*
X-48231250Y-106468750D02*
X-45431250Y-106468750D01*
X-45431250Y-106468750D02*
X-45431250Y-104668750D01*
X-45431250Y-104668750D02*
X-48231250Y-104668750D01*
X-48231250Y-104668750D02*
X-48231250Y-106468750D01*
X-47581250Y-105568750D02*
X-47181250Y-105568750D01*
X-47181250Y-105568750D02*
X-47181250Y-106118750D01*
X-47181250Y-105568750D02*
X-47181250Y-105018750D01*
X-47181250Y-105568750D02*
X-46581250Y-105968750D01*
X-46581250Y-105968750D02*
X-46581250Y-105168750D01*
X-46581250Y-105168750D02*
X-47181250Y-105568750D01*
X-46581250Y-105568750D02*
X-46081250Y-105568750D01*
X-29181250Y-106468750D02*
X-26381250Y-106468750D01*
X-26381250Y-106468750D02*
X-26381250Y-104668750D01*
X-26381250Y-104668750D02*
X-29181250Y-104668750D01*
X-29181250Y-104668750D02*
X-29181250Y-106468750D01*
X-28531250Y-105568750D02*
X-28131250Y-105568750D01*
X-28131250Y-105568750D02*
X-28131250Y-106118750D01*
X-28131250Y-105568750D02*
X-28131250Y-105018750D01*
X-28131250Y-105568750D02*
X-27531250Y-105968750D01*
X-27531250Y-105968750D02*
X-27531250Y-105168750D01*
X-27531250Y-105168750D02*
X-28131250Y-105568750D01*
X-27531250Y-105568750D02*
X-27031250Y-105568750D01*
X-124431250Y-68368750D02*
X-121631250Y-68368750D01*
X-121631250Y-68368750D02*
X-121631250Y-66568750D01*
X-121631250Y-66568750D02*
X-124431250Y-66568750D01*
X-124431250Y-66568750D02*
X-124431250Y-68368750D01*
X-123781250Y-67468750D02*
X-123381250Y-67468750D01*
X-123381250Y-67468750D02*
X-123381250Y-68018750D01*
X-123381250Y-67468750D02*
X-123381250Y-66918750D01*
X-123381250Y-67468750D02*
X-122781250Y-67868750D01*
X-122781250Y-67868750D02*
X-122781250Y-67068750D01*
X-122781250Y-67068750D02*
X-123381250Y-67468750D01*
X-122781250Y-67468750D02*
X-122281250Y-67468750D01*
X-105430000Y-68065000D02*
X-102630000Y-68065000D01*
X-102630000Y-68065000D02*
X-102630000Y-66265000D01*
X-102630000Y-66265000D02*
X-105430000Y-66265000D01*
X-105430000Y-66265000D02*
X-105430000Y-68065000D01*
X-104780000Y-67165000D02*
X-104380000Y-67165000D01*
X-104380000Y-67165000D02*
X-104380000Y-67715000D01*
X-104380000Y-67165000D02*
X-104380000Y-66615000D01*
X-104380000Y-67165000D02*
X-103780000Y-67565000D01*
X-103780000Y-67565000D02*
X-103780000Y-66765000D01*
X-103780000Y-66765000D02*
X-104380000Y-67165000D01*
X-103780000Y-67165000D02*
X-103280000Y-67165000D01*
X-86280000Y-64840000D02*
X-83480000Y-64840000D01*
X-83480000Y-64840000D02*
X-83480000Y-63040000D01*
X-83480000Y-63040000D02*
X-86280000Y-63040000D01*
X-86280000Y-63040000D02*
X-86280000Y-64840000D01*
X-85630000Y-63940000D02*
X-85230000Y-63940000D01*
X-85230000Y-63940000D02*
X-85230000Y-64490000D01*
X-85230000Y-63940000D02*
X-85230000Y-63390000D01*
X-85230000Y-63940000D02*
X-84630000Y-64340000D01*
X-84630000Y-64340000D02*
X-84630000Y-63540000D01*
X-84630000Y-63540000D02*
X-85230000Y-63940000D01*
X-84630000Y-63940000D02*
X-84130000Y-63940000D01*
X-67280000Y-71440000D02*
X-64480000Y-71440000D01*
X-64480000Y-71440000D02*
X-64480000Y-69640000D01*
X-64480000Y-69640000D02*
X-67280000Y-69640000D01*
X-67280000Y-69640000D02*
X-67280000Y-71440000D01*
X-66630000Y-70540000D02*
X-66230000Y-70540000D01*
X-66230000Y-70540000D02*
X-66230000Y-71090000D01*
X-66230000Y-70540000D02*
X-66230000Y-69990000D01*
X-66230000Y-70540000D02*
X-65630000Y-70940000D01*
X-65630000Y-70940000D02*
X-65630000Y-70140000D01*
X-65630000Y-70140000D02*
X-66230000Y-70540000D01*
X-65630000Y-70540000D02*
X-65130000Y-70540000D01*
X-48231250Y-87418750D02*
X-45431250Y-87418750D01*
X-45431250Y-87418750D02*
X-45431250Y-85618750D01*
X-45431250Y-85618750D02*
X-48231250Y-85618750D01*
X-48231250Y-85618750D02*
X-48231250Y-87418750D01*
X-47581250Y-86518750D02*
X-47181250Y-86518750D01*
X-47181250Y-86518750D02*
X-47181250Y-87068750D01*
X-47181250Y-86518750D02*
X-47181250Y-85968750D01*
X-47181250Y-86518750D02*
X-46581250Y-86918750D01*
X-46581250Y-86918750D02*
X-46581250Y-86118750D01*
X-46581250Y-86118750D02*
X-47181250Y-86518750D01*
X-46581250Y-86518750D02*
X-46081250Y-86518750D01*
X-29181250Y-87418750D02*
X-26381250Y-87418750D01*
X-26381250Y-87418750D02*
X-26381250Y-85618750D01*
X-26381250Y-85618750D02*
X-29181250Y-85618750D01*
X-29181250Y-85618750D02*
X-29181250Y-87418750D01*
X-28531250Y-86518750D02*
X-28131250Y-86518750D01*
X-28131250Y-86518750D02*
X-28131250Y-87068750D01*
X-28131250Y-86518750D02*
X-28131250Y-85968750D01*
X-28131250Y-86518750D02*
X-27531250Y-86918750D01*
X-27531250Y-86918750D02*
X-27531250Y-86118750D01*
X-27531250Y-86118750D02*
X-28131250Y-86518750D01*
X-27531250Y-86518750D02*
X-27031250Y-86518750D01*
X-143481250Y-49318750D02*
X-140681250Y-49318750D01*
X-140681250Y-49318750D02*
X-140681250Y-47518750D01*
X-140681250Y-47518750D02*
X-143481250Y-47518750D01*
X-143481250Y-47518750D02*
X-143481250Y-49318750D01*
X-142831250Y-48418750D02*
X-142431250Y-48418750D01*
X-142431250Y-48418750D02*
X-142431250Y-48968750D01*
X-142431250Y-48418750D02*
X-142431250Y-47868750D01*
X-142431250Y-48418750D02*
X-141831250Y-48818750D01*
X-141831250Y-48818750D02*
X-141831250Y-48018750D01*
X-141831250Y-48018750D02*
X-142431250Y-48418750D01*
X-141831250Y-48418750D02*
X-141331250Y-48418750D01*
X-124431250Y-49318750D02*
X-121631250Y-49318750D01*
X-121631250Y-49318750D02*
X-121631250Y-47518750D01*
X-121631250Y-47518750D02*
X-124431250Y-47518750D01*
X-124431250Y-47518750D02*
X-124431250Y-49318750D01*
X-123781250Y-48418750D02*
X-123381250Y-48418750D01*
X-123381250Y-48418750D02*
X-123381250Y-48968750D01*
X-123381250Y-48418750D02*
X-123381250Y-47868750D01*
X-123381250Y-48418750D02*
X-122781250Y-48818750D01*
X-122781250Y-48818750D02*
X-122781250Y-48018750D01*
X-122781250Y-48018750D02*
X-123381250Y-48418750D01*
X-122781250Y-48418750D02*
X-122281250Y-48418750D01*
X-105430000Y-49015000D02*
X-102630000Y-49015000D01*
X-102630000Y-49015000D02*
X-102630000Y-47215000D01*
X-102630000Y-47215000D02*
X-105430000Y-47215000D01*
X-105430000Y-47215000D02*
X-105430000Y-49015000D01*
X-104780000Y-48115000D02*
X-104380000Y-48115000D01*
X-104380000Y-48115000D02*
X-104380000Y-48665000D01*
X-104380000Y-48115000D02*
X-104380000Y-47565000D01*
X-104380000Y-48115000D02*
X-103780000Y-48515000D01*
X-103780000Y-48515000D02*
X-103780000Y-47715000D01*
X-103780000Y-47715000D02*
X-104380000Y-48115000D01*
X-103780000Y-48115000D02*
X-103280000Y-48115000D01*
X-86280000Y-45790000D02*
X-83480000Y-45790000D01*
X-83480000Y-45790000D02*
X-83480000Y-43990000D01*
X-83480000Y-43990000D02*
X-86280000Y-43990000D01*
X-86280000Y-43990000D02*
X-86280000Y-45790000D01*
X-85630000Y-44890000D02*
X-85230000Y-44890000D01*
X-85230000Y-44890000D02*
X-85230000Y-45440000D01*
X-85230000Y-44890000D02*
X-85230000Y-44340000D01*
X-85230000Y-44890000D02*
X-84630000Y-45290000D01*
X-84630000Y-45290000D02*
X-84630000Y-44490000D01*
X-84630000Y-44490000D02*
X-85230000Y-44890000D01*
X-84630000Y-44890000D02*
X-84130000Y-44890000D01*
X-67280000Y-52390000D02*
X-64480000Y-52390000D01*
X-64480000Y-52390000D02*
X-64480000Y-50590000D01*
X-64480000Y-50590000D02*
X-67280000Y-50590000D01*
X-67280000Y-50590000D02*
X-67280000Y-52390000D01*
X-66630000Y-51490000D02*
X-66230000Y-51490000D01*
X-66230000Y-51490000D02*
X-66230000Y-52040000D01*
X-66230000Y-51490000D02*
X-66230000Y-50940000D01*
X-66230000Y-51490000D02*
X-65630000Y-51890000D01*
X-65630000Y-51890000D02*
X-65630000Y-51090000D01*
X-65630000Y-51090000D02*
X-66230000Y-51490000D01*
X-65630000Y-51490000D02*
X-65130000Y-51490000D01*
X-48231250Y-68368750D02*
X-45431250Y-68368750D01*
X-45431250Y-68368750D02*
X-45431250Y-66568750D01*
X-45431250Y-66568750D02*
X-48231250Y-66568750D01*
X-48231250Y-66568750D02*
X-48231250Y-68368750D01*
X-47581250Y-67468750D02*
X-47181250Y-67468750D01*
X-47181250Y-67468750D02*
X-47181250Y-68018750D01*
X-47181250Y-67468750D02*
X-47181250Y-66918750D01*
X-47181250Y-67468750D02*
X-46581250Y-67868750D01*
X-46581250Y-67868750D02*
X-46581250Y-67068750D01*
X-46581250Y-67068750D02*
X-47181250Y-67468750D01*
X-46581250Y-67468750D02*
X-46081250Y-67468750D01*
X-29181250Y-68368750D02*
X-26381250Y-68368750D01*
X-26381250Y-68368750D02*
X-26381250Y-66568750D01*
X-26381250Y-66568750D02*
X-29181250Y-66568750D01*
X-29181250Y-66568750D02*
X-29181250Y-68368750D01*
X-28531250Y-67468750D02*
X-28131250Y-67468750D01*
X-28131250Y-67468750D02*
X-28131250Y-68018750D01*
X-28131250Y-67468750D02*
X-28131250Y-66918750D01*
X-28131250Y-67468750D02*
X-27531250Y-67868750D01*
X-27531250Y-67868750D02*
X-27531250Y-67068750D01*
X-27531250Y-67068750D02*
X-28131250Y-67468750D01*
X-27531250Y-67468750D02*
X-27031250Y-67468750D01*
D11*
X-176800000Y-66762500D02*
X-176800000Y-69762500D01*
X-176800000Y-69762500D02*
X-178800000Y-69762500D01*
X-178800000Y-69762500D02*
X-178800000Y-66762500D01*
X-178800000Y-66762500D02*
X-176800000Y-66762500D01*
X-176418750Y-69762500D02*
X-176418750Y-66762500D01*
X-176418750Y-66762500D02*
X-174418750Y-66762500D01*
X-174418750Y-66762500D02*
X-174418750Y-69762500D01*
X-174418750Y-69762500D02*
X-176418750Y-69762500D01*
X-174307500Y-59848750D02*
X-164147500Y-59848750D01*
X-164147500Y-59848750D02*
X-164147500Y-62388750D01*
X-164147500Y-62388750D02*
X-174307500Y-62388750D01*
X-174307500Y-62388750D02*
X-174307500Y-59848750D01*
D13*
X-175418750Y-28575000D02*
X-177958750Y-28575000D01*
X-175418750Y-26035000D02*
X-175418750Y-28575000D01*
D11*
G36*
X-163024115Y-32324030D02*
G01*
X-163024115Y-32424030D01*
X-162924115Y-32424030D01*
X-162924115Y-32324030D01*
X-163024115Y-32324030D01*
G37*
X-163024115Y-32324030D02*
X-163024115Y-32424030D01*
X-162924115Y-32424030D01*
X-162924115Y-32324030D01*
X-163024115Y-32324030D01*
G36*
X-162824115Y-31924030D02*
G01*
X-162824115Y-32724030D01*
X-162724115Y-32724030D01*
X-162724115Y-31924030D01*
X-162824115Y-31924030D01*
G37*
X-162824115Y-31924030D02*
X-162824115Y-32724030D01*
X-162724115Y-32724030D01*
X-162724115Y-31924030D01*
X-162824115Y-31924030D01*
G36*
X-163224115Y-32524030D02*
G01*
X-163224115Y-32724030D01*
X-163124115Y-32724030D01*
X-163124115Y-32524030D01*
X-163224115Y-32524030D01*
G37*
X-163224115Y-32524030D02*
X-163224115Y-32724030D01*
X-163124115Y-32724030D01*
X-163124115Y-32524030D01*
X-163224115Y-32524030D01*
G36*
X-163224115Y-31924030D02*
G01*
X-163224115Y-32224030D01*
X-163124115Y-32224030D01*
X-163124115Y-31924030D01*
X-163224115Y-31924030D01*
G37*
X-163224115Y-31924030D02*
X-163224115Y-32224030D01*
X-163124115Y-32224030D01*
X-163124115Y-31924030D01*
X-163224115Y-31924030D01*
G36*
X-163224115Y-31924030D02*
G01*
X-163224115Y-32024030D01*
X-162724115Y-32024030D01*
X-162724115Y-31924030D01*
X-163224115Y-31924030D01*
G37*
X-163224115Y-31924030D02*
X-163224115Y-32024030D01*
X-162724115Y-32024030D01*
X-162724115Y-31924030D01*
X-163224115Y-31924030D01*
D13*
X-160178750Y-56515000D02*
X-160178750Y-23495000D01*
X-177958750Y-56515000D02*
X-160178750Y-56515000D01*
X-177958750Y-23495000D02*
X-177958750Y-56515000D01*
X-160178750Y-23495000D02*
X-177958750Y-23495000D01*
X-175418750Y-26035000D02*
X-177958750Y-26035000D01*
D11*
X-154884707Y-127722931D02*
X-155384707Y-126856906D01*
X-155590903Y-126975953D01*
X-155690812Y-127088621D01*
X-155725671Y-127218719D01*
X-155719291Y-127325007D01*
X-155665293Y-127513774D01*
X-155593864Y-127637492D01*
X-155457387Y-127778639D01*
X-155368528Y-127837308D01*
X-155238431Y-127872168D01*
X-155090903Y-127841979D01*
X-154884707Y-127722931D01*
X-156455219Y-127859866D02*
X-156121886Y-128437217D01*
X-156439499Y-127410904D02*
X-155876160Y-127910446D01*
X-156412270Y-128219970D01*
X-157446672Y-128047382D02*
X-157281715Y-127952144D01*
X-157175427Y-127945764D01*
X-157110378Y-127963194D01*
X-156956471Y-128039293D01*
X-156819993Y-128180440D01*
X-156629517Y-128510355D01*
X-156623137Y-128616643D01*
X-156640567Y-128681692D01*
X-156699236Y-128770550D01*
X-156864193Y-128865788D01*
X-156970482Y-128872168D01*
X-157035530Y-128854738D01*
X-157124389Y-128796069D01*
X-157243436Y-128589873D01*
X-157249816Y-128483584D01*
X-157232386Y-128418536D01*
X-157173717Y-128329677D01*
X-157008760Y-128234439D01*
X-156902472Y-128228059D01*
X-156837423Y-128245489D01*
X-156748565Y-128304158D01*
X-140135714Y-69921130D02*
X-140135714Y-68921130D01*
X-140373809Y-68921130D01*
X-140516666Y-68968750D01*
X-140611904Y-69063988D01*
X-140659523Y-69159226D01*
X-140707142Y-69349702D01*
X-140707142Y-69492559D01*
X-140659523Y-69683035D01*
X-140611904Y-69778273D01*
X-140516666Y-69873511D01*
X-140373809Y-69921130D01*
X-140135714Y-69921130D01*
X-141659523Y-69921130D02*
X-141088095Y-69921130D01*
X-141373809Y-69921130D02*
X-141373809Y-68921130D01*
X-141278571Y-69063988D01*
X-141183333Y-69159226D01*
X-141088095Y-69206845D01*
X-142516666Y-68921130D02*
X-142326190Y-68921130D01*
X-142230952Y-68968750D01*
X-142183333Y-69016369D01*
X-142088095Y-69159226D01*
X-142040476Y-69349702D01*
X-142040476Y-69730654D01*
X-142088095Y-69825892D01*
X-142135714Y-69873511D01*
X-142230952Y-69921130D01*
X-142421428Y-69921130D01*
X-142516666Y-69873511D01*
X-142564285Y-69825892D01*
X-142611904Y-69730654D01*
X-142611904Y-69492559D01*
X-142564285Y-69397321D01*
X-142516666Y-69349702D01*
X-142421428Y-69302083D01*
X-142230952Y-69302083D01*
X-142135714Y-69349702D01*
X-142088095Y-69397321D01*
X-142040476Y-69492559D01*
X-137422207Y-117404181D02*
X-137922207Y-116538156D01*
X-138128403Y-116657203D01*
X-138228312Y-116769871D01*
X-138263171Y-116899969D01*
X-138256791Y-117006257D01*
X-138202793Y-117195024D01*
X-138131364Y-117318742D01*
X-137994887Y-117459889D01*
X-137906028Y-117518558D01*
X-137775931Y-117553418D01*
X-137628403Y-117523229D01*
X-137422207Y-117404181D01*
X-138992719Y-117541116D02*
X-138659386Y-118118467D01*
X-138976999Y-117092154D02*
X-138413660Y-117591696D01*
X-138949770Y-117901220D01*
X-140025411Y-117752441D02*
X-139613018Y-117514346D01*
X-139333684Y-117902930D01*
X-139398733Y-117885500D01*
X-139505021Y-117891880D01*
X-139711217Y-118010927D01*
X-139769886Y-118099786D01*
X-139787316Y-118164834D01*
X-139780936Y-118271123D01*
X-139661889Y-118477319D01*
X-139573030Y-118535988D01*
X-139507982Y-118553418D01*
X-139401693Y-118547038D01*
X-139195497Y-118427991D01*
X-139136828Y-118339132D01*
X-139119398Y-118274083D01*
X-93591369Y-140073214D02*
X-94591369Y-140073214D01*
X-94591369Y-140311309D01*
X-94543750Y-140454166D01*
X-94448511Y-140549404D01*
X-94353273Y-140597023D01*
X-94162797Y-140644642D01*
X-94019940Y-140644642D01*
X-93829464Y-140597023D01*
X-93734226Y-140549404D01*
X-93638988Y-140454166D01*
X-93591369Y-140311309D01*
X-93591369Y-140073214D01*
X-94258035Y-141501785D02*
X-93591369Y-141501785D01*
X-94638988Y-141263690D02*
X-93924702Y-141025595D01*
X-93924702Y-141644642D01*
X-94258035Y-142454166D02*
X-93591369Y-142454166D01*
X-94638988Y-142216071D02*
X-93924702Y-141977976D01*
X-93924702Y-142597023D01*
X-75335119Y-140073214D02*
X-76335119Y-140073214D01*
X-76335119Y-140311309D01*
X-76287500Y-140454166D01*
X-76192261Y-140549404D01*
X-76097023Y-140597023D01*
X-75906547Y-140644642D01*
X-75763690Y-140644642D01*
X-75573214Y-140597023D01*
X-75477976Y-140549404D01*
X-75382738Y-140454166D01*
X-75335119Y-140311309D01*
X-75335119Y-140073214D01*
X-76001785Y-141501785D02*
X-75335119Y-141501785D01*
X-76382738Y-141263690D02*
X-75668452Y-141025595D01*
X-75668452Y-141644642D01*
X-76335119Y-141930357D02*
X-76335119Y-142549404D01*
X-75954166Y-142216071D01*
X-75954166Y-142358928D01*
X-75906547Y-142454166D01*
X-75858928Y-142501785D01*
X-75763690Y-142549404D01*
X-75525595Y-142549404D01*
X-75430357Y-142501785D01*
X-75382738Y-142454166D01*
X-75335119Y-142358928D01*
X-75335119Y-142073214D01*
X-75382738Y-141977976D01*
X-75430357Y-141930357D01*
X-71366369Y-114673214D02*
X-72366369Y-114673214D01*
X-72366369Y-114911309D01*
X-72318750Y-115054166D01*
X-72223511Y-115149404D01*
X-72128273Y-115197023D01*
X-71937797Y-115244642D01*
X-71794940Y-115244642D01*
X-71604464Y-115197023D01*
X-71509226Y-115149404D01*
X-71413988Y-115054166D01*
X-71366369Y-114911309D01*
X-71366369Y-114673214D01*
X-72033035Y-116101785D02*
X-71366369Y-116101785D01*
X-72413988Y-115863690D02*
X-71699702Y-115625595D01*
X-71699702Y-116244642D01*
X-72271130Y-116577976D02*
X-72318750Y-116625595D01*
X-72366369Y-116720833D01*
X-72366369Y-116958928D01*
X-72318750Y-117054166D01*
X-72271130Y-117101785D01*
X-72175892Y-117149404D01*
X-72080654Y-117149404D01*
X-71937797Y-117101785D01*
X-71366369Y-116530357D01*
X-71366369Y-117149404D01*
X-52316369Y-133723214D02*
X-53316369Y-133723214D01*
X-53316369Y-133961309D01*
X-53268750Y-134104166D01*
X-53173511Y-134199404D01*
X-53078273Y-134247023D01*
X-52887797Y-134294642D01*
X-52744940Y-134294642D01*
X-52554464Y-134247023D01*
X-52459226Y-134199404D01*
X-52363988Y-134104166D01*
X-52316369Y-133961309D01*
X-52316369Y-133723214D01*
X-52983035Y-135151785D02*
X-52316369Y-135151785D01*
X-53363988Y-134913690D02*
X-52649702Y-134675595D01*
X-52649702Y-135294642D01*
X-52316369Y-136199404D02*
X-52316369Y-135627976D01*
X-52316369Y-135913690D02*
X-53316369Y-135913690D01*
X-53173511Y-135818452D01*
X-53078273Y-135723214D01*
X-53030654Y-135627976D01*
X-38028869Y-133723214D02*
X-39028869Y-133723214D01*
X-39028869Y-133961309D01*
X-38981250Y-134104166D01*
X-38886011Y-134199404D01*
X-38790773Y-134247023D01*
X-38600297Y-134294642D01*
X-38457440Y-134294642D01*
X-38266964Y-134247023D01*
X-38171726Y-134199404D01*
X-38076488Y-134104166D01*
X-38028869Y-133961309D01*
X-38028869Y-133723214D01*
X-38695535Y-135151785D02*
X-38028869Y-135151785D01*
X-39076488Y-134913690D02*
X-38362202Y-134675595D01*
X-38362202Y-135294642D01*
X-39028869Y-135866071D02*
X-39028869Y-135961309D01*
X-38981250Y-136056547D01*
X-38933630Y-136104166D01*
X-38838392Y-136151785D01*
X-38647916Y-136199404D01*
X-38409821Y-136199404D01*
X-38219345Y-136151785D01*
X-38124107Y-136104166D01*
X-38076488Y-136056547D01*
X-38028869Y-135961309D01*
X-38028869Y-135866071D01*
X-38076488Y-135770833D01*
X-38124107Y-135723214D01*
X-38219345Y-135675595D01*
X-38409821Y-135627976D01*
X-38647916Y-135627976D01*
X-38838392Y-135675595D01*
X-38933630Y-135723214D01*
X-38981250Y-135770833D01*
X-39028869Y-135866071D01*
X-163615957Y-111054181D02*
X-164115957Y-110188156D01*
X-164322153Y-110307203D01*
X-164422062Y-110419871D01*
X-164456921Y-110549969D01*
X-164450541Y-110656257D01*
X-164396543Y-110845024D01*
X-164325114Y-110968742D01*
X-164188637Y-111109889D01*
X-164099778Y-111168558D01*
X-163969681Y-111203418D01*
X-163822153Y-111173229D01*
X-163615957Y-111054181D01*
X-164899504Y-110640537D02*
X-165435615Y-110950060D01*
X-164956463Y-111113308D01*
X-165080181Y-111184737D01*
X-165138850Y-111273595D01*
X-165156280Y-111338644D01*
X-165149900Y-111444932D01*
X-165030853Y-111651129D01*
X-164941994Y-111709798D01*
X-164876945Y-111727227D01*
X-164770657Y-111720848D01*
X-164523221Y-111577991D01*
X-164464552Y-111489132D01*
X-164447123Y-111424083D01*
X-166177922Y-111378632D02*
X-166012965Y-111283394D01*
X-165906677Y-111277014D01*
X-165841628Y-111294444D01*
X-165687721Y-111370543D01*
X-165551243Y-111511690D01*
X-165360767Y-111841605D01*
X-165354387Y-111947893D01*
X-165371817Y-112012942D01*
X-165430486Y-112101800D01*
X-165595443Y-112197038D01*
X-165701732Y-112203418D01*
X-165766780Y-112185988D01*
X-165855639Y-112127319D01*
X-165974686Y-111921123D01*
X-165981066Y-111814834D01*
X-165963636Y-111749786D01*
X-165904967Y-111660927D01*
X-165740010Y-111565689D01*
X-165633722Y-111559309D01*
X-165568673Y-111576739D01*
X-165479815Y-111635408D01*
X-121816964Y-107227380D02*
X-121816964Y-106227380D01*
X-122055059Y-106227380D01*
X-122197916Y-106275000D01*
X-122293154Y-106370238D01*
X-122340773Y-106465476D01*
X-122388392Y-106655952D01*
X-122388392Y-106798809D01*
X-122340773Y-106989285D01*
X-122293154Y-107084523D01*
X-122197916Y-107179761D01*
X-122055059Y-107227380D01*
X-121816964Y-107227380D01*
X-122721726Y-106227380D02*
X-123340773Y-106227380D01*
X-123007440Y-106608333D01*
X-123150297Y-106608333D01*
X-123245535Y-106655952D01*
X-123293154Y-106703571D01*
X-123340773Y-106798809D01*
X-123340773Y-107036904D01*
X-123293154Y-107132142D01*
X-123245535Y-107179761D01*
X-123150297Y-107227380D01*
X-122864583Y-107227380D01*
X-122769345Y-107179761D01*
X-122721726Y-107132142D01*
X-124245535Y-106227380D02*
X-123769345Y-106227380D01*
X-123721726Y-106703571D01*
X-123769345Y-106655952D01*
X-123864583Y-106608333D01*
X-124102678Y-106608333D01*
X-124197916Y-106655952D01*
X-124245535Y-106703571D01*
X-124293154Y-106798809D01*
X-124293154Y-107036904D01*
X-124245535Y-107132142D01*
X-124197916Y-107179761D01*
X-124102678Y-107227380D01*
X-123864583Y-107227380D01*
X-123769345Y-107179761D01*
X-123721726Y-107132142D01*
X-102815714Y-107717380D02*
X-102815714Y-106717380D01*
X-103053809Y-106717380D01*
X-103196666Y-106765000D01*
X-103291904Y-106860238D01*
X-103339523Y-106955476D01*
X-103387142Y-107145952D01*
X-103387142Y-107288809D01*
X-103339523Y-107479285D01*
X-103291904Y-107574523D01*
X-103196666Y-107669761D01*
X-103053809Y-107717380D01*
X-102815714Y-107717380D01*
X-103720476Y-106717380D02*
X-104339523Y-106717380D01*
X-104006190Y-107098333D01*
X-104149047Y-107098333D01*
X-104244285Y-107145952D01*
X-104291904Y-107193571D01*
X-104339523Y-107288809D01*
X-104339523Y-107526904D01*
X-104291904Y-107622142D01*
X-104244285Y-107669761D01*
X-104149047Y-107717380D01*
X-103863333Y-107717380D01*
X-103768095Y-107669761D01*
X-103720476Y-107622142D01*
X-105196666Y-107050714D02*
X-105196666Y-107717380D01*
X-104958571Y-106669761D02*
X-104720476Y-107384047D01*
X-105339523Y-107384047D01*
X-83665714Y-104492380D02*
X-83665714Y-103492380D01*
X-83903809Y-103492380D01*
X-84046666Y-103540000D01*
X-84141904Y-103635238D01*
X-84189523Y-103730476D01*
X-84237142Y-103920952D01*
X-84237142Y-104063809D01*
X-84189523Y-104254285D01*
X-84141904Y-104349523D01*
X-84046666Y-104444761D01*
X-83903809Y-104492380D01*
X-83665714Y-104492380D01*
X-84570476Y-103492380D02*
X-85189523Y-103492380D01*
X-84856190Y-103873333D01*
X-84999047Y-103873333D01*
X-85094285Y-103920952D01*
X-85141904Y-103968571D01*
X-85189523Y-104063809D01*
X-85189523Y-104301904D01*
X-85141904Y-104397142D01*
X-85094285Y-104444761D01*
X-84999047Y-104492380D01*
X-84713333Y-104492380D01*
X-84618095Y-104444761D01*
X-84570476Y-104397142D01*
X-85522857Y-103492380D02*
X-86141904Y-103492380D01*
X-85808571Y-103873333D01*
X-85951428Y-103873333D01*
X-86046666Y-103920952D01*
X-86094285Y-103968571D01*
X-86141904Y-104063809D01*
X-86141904Y-104301904D01*
X-86094285Y-104397142D01*
X-86046666Y-104444761D01*
X-85951428Y-104492380D01*
X-85665714Y-104492380D01*
X-85570476Y-104444761D01*
X-85522857Y-104397142D01*
X-64665714Y-111092380D02*
X-64665714Y-110092380D01*
X-64903809Y-110092380D01*
X-65046666Y-110140000D01*
X-65141904Y-110235238D01*
X-65189523Y-110330476D01*
X-65237142Y-110520952D01*
X-65237142Y-110663809D01*
X-65189523Y-110854285D01*
X-65141904Y-110949523D01*
X-65046666Y-111044761D01*
X-64903809Y-111092380D01*
X-64665714Y-111092380D01*
X-65570476Y-110092380D02*
X-66189523Y-110092380D01*
X-65856190Y-110473333D01*
X-65999047Y-110473333D01*
X-66094285Y-110520952D01*
X-66141904Y-110568571D01*
X-66189523Y-110663809D01*
X-66189523Y-110901904D01*
X-66141904Y-110997142D01*
X-66094285Y-111044761D01*
X-65999047Y-111092380D01*
X-65713333Y-111092380D01*
X-65618095Y-111044761D01*
X-65570476Y-110997142D01*
X-66570476Y-110187619D02*
X-66618095Y-110140000D01*
X-66713333Y-110092380D01*
X-66951428Y-110092380D01*
X-67046666Y-110140000D01*
X-67094285Y-110187619D01*
X-67141904Y-110282857D01*
X-67141904Y-110378095D01*
X-67094285Y-110520952D01*
X-66522857Y-111092380D01*
X-67141904Y-111092380D01*
X-45616964Y-127071130D02*
X-45616964Y-126071130D01*
X-45855059Y-126071130D01*
X-45997916Y-126118750D01*
X-46093154Y-126213988D01*
X-46140773Y-126309226D01*
X-46188392Y-126499702D01*
X-46188392Y-126642559D01*
X-46140773Y-126833035D01*
X-46093154Y-126928273D01*
X-45997916Y-127023511D01*
X-45855059Y-127071130D01*
X-45616964Y-127071130D01*
X-46521726Y-126071130D02*
X-47140773Y-126071130D01*
X-46807440Y-126452083D01*
X-46950297Y-126452083D01*
X-47045535Y-126499702D01*
X-47093154Y-126547321D01*
X-47140773Y-126642559D01*
X-47140773Y-126880654D01*
X-47093154Y-126975892D01*
X-47045535Y-127023511D01*
X-46950297Y-127071130D01*
X-46664583Y-127071130D01*
X-46569345Y-127023511D01*
X-46521726Y-126975892D01*
X-48093154Y-127071130D02*
X-47521726Y-127071130D01*
X-47807440Y-127071130D02*
X-47807440Y-126071130D01*
X-47712202Y-126213988D01*
X-47616964Y-126309226D01*
X-47521726Y-126356845D01*
X-26566964Y-127071130D02*
X-26566964Y-126071130D01*
X-26805059Y-126071130D01*
X-26947916Y-126118750D01*
X-27043154Y-126213988D01*
X-27090773Y-126309226D01*
X-27138392Y-126499702D01*
X-27138392Y-126642559D01*
X-27090773Y-126833035D01*
X-27043154Y-126928273D01*
X-26947916Y-127023511D01*
X-26805059Y-127071130D01*
X-26566964Y-127071130D01*
X-27471726Y-126071130D02*
X-28090773Y-126071130D01*
X-27757440Y-126452083D01*
X-27900297Y-126452083D01*
X-27995535Y-126499702D01*
X-28043154Y-126547321D01*
X-28090773Y-126642559D01*
X-28090773Y-126880654D01*
X-28043154Y-126975892D01*
X-27995535Y-127023511D01*
X-27900297Y-127071130D01*
X-27614583Y-127071130D01*
X-27519345Y-127023511D01*
X-27471726Y-126975892D01*
X-28709821Y-126071130D02*
X-28805059Y-126071130D01*
X-28900297Y-126118750D01*
X-28947916Y-126166369D01*
X-28995535Y-126261607D01*
X-29043154Y-126452083D01*
X-29043154Y-126690178D01*
X-28995535Y-126880654D01*
X-28947916Y-126975892D01*
X-28900297Y-127023511D01*
X-28805059Y-127071130D01*
X-28709821Y-127071130D01*
X-28614583Y-127023511D01*
X-28566964Y-126975892D01*
X-28519345Y-126880654D01*
X-28471726Y-126690178D01*
X-28471726Y-126452083D01*
X-28519345Y-126261607D01*
X-28566964Y-126166369D01*
X-28614583Y-126118750D01*
X-28709821Y-126071130D01*
X-144835714Y-97702380D02*
X-144835714Y-96702380D01*
X-145073809Y-96702380D01*
X-145216666Y-96750000D01*
X-145311904Y-96845238D01*
X-145359523Y-96940476D01*
X-145407142Y-97130952D01*
X-145407142Y-97273809D01*
X-145359523Y-97464285D01*
X-145311904Y-97559523D01*
X-145216666Y-97654761D01*
X-145073809Y-97702380D01*
X-144835714Y-97702380D01*
X-145788095Y-96797619D02*
X-145835714Y-96750000D01*
X-145930952Y-96702380D01*
X-146169047Y-96702380D01*
X-146264285Y-96750000D01*
X-146311904Y-96797619D01*
X-146359523Y-96892857D01*
X-146359523Y-96988095D01*
X-146311904Y-97130952D01*
X-145740476Y-97702380D01*
X-146359523Y-97702380D01*
X-147216666Y-96702380D02*
X-147026190Y-96702380D01*
X-146930952Y-96750000D01*
X-146883333Y-96797619D01*
X-146788095Y-96940476D01*
X-146740476Y-97130952D01*
X-146740476Y-97511904D01*
X-146788095Y-97607142D01*
X-146835714Y-97654761D01*
X-146930952Y-97702380D01*
X-147121428Y-97702380D01*
X-147216666Y-97654761D01*
X-147264285Y-97607142D01*
X-147311904Y-97511904D01*
X-147311904Y-97273809D01*
X-147264285Y-97178571D01*
X-147216666Y-97130952D01*
X-147121428Y-97083333D01*
X-146930952Y-97083333D01*
X-146835714Y-97130952D01*
X-146788095Y-97178571D01*
X-146740476Y-97273809D01*
X-121816964Y-88971130D02*
X-121816964Y-87971130D01*
X-122055059Y-87971130D01*
X-122197916Y-88018750D01*
X-122293154Y-88113988D01*
X-122340773Y-88209226D01*
X-122388392Y-88399702D01*
X-122388392Y-88542559D01*
X-122340773Y-88733035D01*
X-122293154Y-88828273D01*
X-122197916Y-88923511D01*
X-122055059Y-88971130D01*
X-121816964Y-88971130D01*
X-122769345Y-88066369D02*
X-122816964Y-88018750D01*
X-122912202Y-87971130D01*
X-123150297Y-87971130D01*
X-123245535Y-88018750D01*
X-123293154Y-88066369D01*
X-123340773Y-88161607D01*
X-123340773Y-88256845D01*
X-123293154Y-88399702D01*
X-122721726Y-88971130D01*
X-123340773Y-88971130D01*
X-124245535Y-87971130D02*
X-123769345Y-87971130D01*
X-123721726Y-88447321D01*
X-123769345Y-88399702D01*
X-123864583Y-88352083D01*
X-124102678Y-88352083D01*
X-124197916Y-88399702D01*
X-124245535Y-88447321D01*
X-124293154Y-88542559D01*
X-124293154Y-88780654D01*
X-124245535Y-88875892D01*
X-124197916Y-88923511D01*
X-124102678Y-88971130D01*
X-123864583Y-88971130D01*
X-123769345Y-88923511D01*
X-123721726Y-88875892D01*
X-102815714Y-88667380D02*
X-102815714Y-87667380D01*
X-103053809Y-87667380D01*
X-103196666Y-87715000D01*
X-103291904Y-87810238D01*
X-103339523Y-87905476D01*
X-103387142Y-88095952D01*
X-103387142Y-88238809D01*
X-103339523Y-88429285D01*
X-103291904Y-88524523D01*
X-103196666Y-88619761D01*
X-103053809Y-88667380D01*
X-102815714Y-88667380D01*
X-103768095Y-87762619D02*
X-103815714Y-87715000D01*
X-103910952Y-87667380D01*
X-104149047Y-87667380D01*
X-104244285Y-87715000D01*
X-104291904Y-87762619D01*
X-104339523Y-87857857D01*
X-104339523Y-87953095D01*
X-104291904Y-88095952D01*
X-103720476Y-88667380D01*
X-104339523Y-88667380D01*
X-105196666Y-88000714D02*
X-105196666Y-88667380D01*
X-104958571Y-87619761D02*
X-104720476Y-88334047D01*
X-105339523Y-88334047D01*
X-83665714Y-85442380D02*
X-83665714Y-84442380D01*
X-83903809Y-84442380D01*
X-84046666Y-84490000D01*
X-84141904Y-84585238D01*
X-84189523Y-84680476D01*
X-84237142Y-84870952D01*
X-84237142Y-85013809D01*
X-84189523Y-85204285D01*
X-84141904Y-85299523D01*
X-84046666Y-85394761D01*
X-83903809Y-85442380D01*
X-83665714Y-85442380D01*
X-84618095Y-84537619D02*
X-84665714Y-84490000D01*
X-84760952Y-84442380D01*
X-84999047Y-84442380D01*
X-85094285Y-84490000D01*
X-85141904Y-84537619D01*
X-85189523Y-84632857D01*
X-85189523Y-84728095D01*
X-85141904Y-84870952D01*
X-84570476Y-85442380D01*
X-85189523Y-85442380D01*
X-85522857Y-84442380D02*
X-86141904Y-84442380D01*
X-85808571Y-84823333D01*
X-85951428Y-84823333D01*
X-86046666Y-84870952D01*
X-86094285Y-84918571D01*
X-86141904Y-85013809D01*
X-86141904Y-85251904D01*
X-86094285Y-85347142D01*
X-86046666Y-85394761D01*
X-85951428Y-85442380D01*
X-85665714Y-85442380D01*
X-85570476Y-85394761D01*
X-85522857Y-85347142D01*
X-64665714Y-92042380D02*
X-64665714Y-91042380D01*
X-64903809Y-91042380D01*
X-65046666Y-91090000D01*
X-65141904Y-91185238D01*
X-65189523Y-91280476D01*
X-65237142Y-91470952D01*
X-65237142Y-91613809D01*
X-65189523Y-91804285D01*
X-65141904Y-91899523D01*
X-65046666Y-91994761D01*
X-64903809Y-92042380D01*
X-64665714Y-92042380D01*
X-65618095Y-91137619D02*
X-65665714Y-91090000D01*
X-65760952Y-91042380D01*
X-65999047Y-91042380D01*
X-66094285Y-91090000D01*
X-66141904Y-91137619D01*
X-66189523Y-91232857D01*
X-66189523Y-91328095D01*
X-66141904Y-91470952D01*
X-65570476Y-92042380D01*
X-66189523Y-92042380D01*
X-66570476Y-91137619D02*
X-66618095Y-91090000D01*
X-66713333Y-91042380D01*
X-66951428Y-91042380D01*
X-67046666Y-91090000D01*
X-67094285Y-91137619D01*
X-67141904Y-91232857D01*
X-67141904Y-91328095D01*
X-67094285Y-91470952D01*
X-66522857Y-92042380D01*
X-67141904Y-92042380D01*
X-45616964Y-108021130D02*
X-45616964Y-107021130D01*
X-45855059Y-107021130D01*
X-45997916Y-107068750D01*
X-46093154Y-107163988D01*
X-46140773Y-107259226D01*
X-46188392Y-107449702D01*
X-46188392Y-107592559D01*
X-46140773Y-107783035D01*
X-46093154Y-107878273D01*
X-45997916Y-107973511D01*
X-45855059Y-108021130D01*
X-45616964Y-108021130D01*
X-46569345Y-107116369D02*
X-46616964Y-107068750D01*
X-46712202Y-107021130D01*
X-46950297Y-107021130D01*
X-47045535Y-107068750D01*
X-47093154Y-107116369D01*
X-47140773Y-107211607D01*
X-47140773Y-107306845D01*
X-47093154Y-107449702D01*
X-46521726Y-108021130D01*
X-47140773Y-108021130D01*
X-48093154Y-108021130D02*
X-47521726Y-108021130D01*
X-47807440Y-108021130D02*
X-47807440Y-107021130D01*
X-47712202Y-107163988D01*
X-47616964Y-107259226D01*
X-47521726Y-107306845D01*
X-26566964Y-108021130D02*
X-26566964Y-107021130D01*
X-26805059Y-107021130D01*
X-26947916Y-107068750D01*
X-27043154Y-107163988D01*
X-27090773Y-107259226D01*
X-27138392Y-107449702D01*
X-27138392Y-107592559D01*
X-27090773Y-107783035D01*
X-27043154Y-107878273D01*
X-26947916Y-107973511D01*
X-26805059Y-108021130D01*
X-26566964Y-108021130D01*
X-27519345Y-107116369D02*
X-27566964Y-107068750D01*
X-27662202Y-107021130D01*
X-27900297Y-107021130D01*
X-27995535Y-107068750D01*
X-28043154Y-107116369D01*
X-28090773Y-107211607D01*
X-28090773Y-107306845D01*
X-28043154Y-107449702D01*
X-27471726Y-108021130D01*
X-28090773Y-108021130D01*
X-28709821Y-107021130D02*
X-28805059Y-107021130D01*
X-28900297Y-107068750D01*
X-28947916Y-107116369D01*
X-28995535Y-107211607D01*
X-29043154Y-107402083D01*
X-29043154Y-107640178D01*
X-28995535Y-107830654D01*
X-28947916Y-107925892D01*
X-28900297Y-107973511D01*
X-28805059Y-108021130D01*
X-28709821Y-108021130D01*
X-28614583Y-107973511D01*
X-28566964Y-107925892D01*
X-28519345Y-107830654D01*
X-28471726Y-107640178D01*
X-28471726Y-107402083D01*
X-28519345Y-107211607D01*
X-28566964Y-107116369D01*
X-28614583Y-107068750D01*
X-28709821Y-107021130D01*
X-121816964Y-69921130D02*
X-121816964Y-68921130D01*
X-122055059Y-68921130D01*
X-122197916Y-68968750D01*
X-122293154Y-69063988D01*
X-122340773Y-69159226D01*
X-122388392Y-69349702D01*
X-122388392Y-69492559D01*
X-122340773Y-69683035D01*
X-122293154Y-69778273D01*
X-122197916Y-69873511D01*
X-122055059Y-69921130D01*
X-121816964Y-69921130D01*
X-123340773Y-69921130D02*
X-122769345Y-69921130D01*
X-123055059Y-69921130D02*
X-123055059Y-68921130D01*
X-122959821Y-69063988D01*
X-122864583Y-69159226D01*
X-122769345Y-69206845D01*
X-124245535Y-68921130D02*
X-123769345Y-68921130D01*
X-123721726Y-69397321D01*
X-123769345Y-69349702D01*
X-123864583Y-69302083D01*
X-124102678Y-69302083D01*
X-124197916Y-69349702D01*
X-124245535Y-69397321D01*
X-124293154Y-69492559D01*
X-124293154Y-69730654D01*
X-124245535Y-69825892D01*
X-124197916Y-69873511D01*
X-124102678Y-69921130D01*
X-123864583Y-69921130D01*
X-123769345Y-69873511D01*
X-123721726Y-69825892D01*
X-102815714Y-69617380D02*
X-102815714Y-68617380D01*
X-103053809Y-68617380D01*
X-103196666Y-68665000D01*
X-103291904Y-68760238D01*
X-103339523Y-68855476D01*
X-103387142Y-69045952D01*
X-103387142Y-69188809D01*
X-103339523Y-69379285D01*
X-103291904Y-69474523D01*
X-103196666Y-69569761D01*
X-103053809Y-69617380D01*
X-102815714Y-69617380D01*
X-104339523Y-69617380D02*
X-103768095Y-69617380D01*
X-104053809Y-69617380D02*
X-104053809Y-68617380D01*
X-103958571Y-68760238D01*
X-103863333Y-68855476D01*
X-103768095Y-68903095D01*
X-105196666Y-68950714D02*
X-105196666Y-69617380D01*
X-104958571Y-68569761D02*
X-104720476Y-69284047D01*
X-105339523Y-69284047D01*
X-83665714Y-66392380D02*
X-83665714Y-65392380D01*
X-83903809Y-65392380D01*
X-84046666Y-65440000D01*
X-84141904Y-65535238D01*
X-84189523Y-65630476D01*
X-84237142Y-65820952D01*
X-84237142Y-65963809D01*
X-84189523Y-66154285D01*
X-84141904Y-66249523D01*
X-84046666Y-66344761D01*
X-83903809Y-66392380D01*
X-83665714Y-66392380D01*
X-85189523Y-66392380D02*
X-84618095Y-66392380D01*
X-84903809Y-66392380D02*
X-84903809Y-65392380D01*
X-84808571Y-65535238D01*
X-84713333Y-65630476D01*
X-84618095Y-65678095D01*
X-85522857Y-65392380D02*
X-86141904Y-65392380D01*
X-85808571Y-65773333D01*
X-85951428Y-65773333D01*
X-86046666Y-65820952D01*
X-86094285Y-65868571D01*
X-86141904Y-65963809D01*
X-86141904Y-66201904D01*
X-86094285Y-66297142D01*
X-86046666Y-66344761D01*
X-85951428Y-66392380D01*
X-85665714Y-66392380D01*
X-85570476Y-66344761D01*
X-85522857Y-66297142D01*
X-64665714Y-72992380D02*
X-64665714Y-71992380D01*
X-64903809Y-71992380D01*
X-65046666Y-72040000D01*
X-65141904Y-72135238D01*
X-65189523Y-72230476D01*
X-65237142Y-72420952D01*
X-65237142Y-72563809D01*
X-65189523Y-72754285D01*
X-65141904Y-72849523D01*
X-65046666Y-72944761D01*
X-64903809Y-72992380D01*
X-64665714Y-72992380D01*
X-66189523Y-72992380D02*
X-65618095Y-72992380D01*
X-65903809Y-72992380D02*
X-65903809Y-71992380D01*
X-65808571Y-72135238D01*
X-65713333Y-72230476D01*
X-65618095Y-72278095D01*
X-66570476Y-72087619D02*
X-66618095Y-72040000D01*
X-66713333Y-71992380D01*
X-66951428Y-71992380D01*
X-67046666Y-72040000D01*
X-67094285Y-72087619D01*
X-67141904Y-72182857D01*
X-67141904Y-72278095D01*
X-67094285Y-72420952D01*
X-66522857Y-72992380D01*
X-67141904Y-72992380D01*
X-45616964Y-88971130D02*
X-45616964Y-87971130D01*
X-45855059Y-87971130D01*
X-45997916Y-88018750D01*
X-46093154Y-88113988D01*
X-46140773Y-88209226D01*
X-46188392Y-88399702D01*
X-46188392Y-88542559D01*
X-46140773Y-88733035D01*
X-46093154Y-88828273D01*
X-45997916Y-88923511D01*
X-45855059Y-88971130D01*
X-45616964Y-88971130D01*
X-47140773Y-88971130D02*
X-46569345Y-88971130D01*
X-46855059Y-88971130D02*
X-46855059Y-87971130D01*
X-46759821Y-88113988D01*
X-46664583Y-88209226D01*
X-46569345Y-88256845D01*
X-48093154Y-88971130D02*
X-47521726Y-88971130D01*
X-47807440Y-88971130D02*
X-47807440Y-87971130D01*
X-47712202Y-88113988D01*
X-47616964Y-88209226D01*
X-47521726Y-88256845D01*
X-26566964Y-88971130D02*
X-26566964Y-87971130D01*
X-26805059Y-87971130D01*
X-26947916Y-88018750D01*
X-27043154Y-88113988D01*
X-27090773Y-88209226D01*
X-27138392Y-88399702D01*
X-27138392Y-88542559D01*
X-27090773Y-88733035D01*
X-27043154Y-88828273D01*
X-26947916Y-88923511D01*
X-26805059Y-88971130D01*
X-26566964Y-88971130D01*
X-28090773Y-88971130D02*
X-27519345Y-88971130D01*
X-27805059Y-88971130D02*
X-27805059Y-87971130D01*
X-27709821Y-88113988D01*
X-27614583Y-88209226D01*
X-27519345Y-88256845D01*
X-28709821Y-87971130D02*
X-28805059Y-87971130D01*
X-28900297Y-88018750D01*
X-28947916Y-88066369D01*
X-28995535Y-88161607D01*
X-29043154Y-88352083D01*
X-29043154Y-88590178D01*
X-28995535Y-88780654D01*
X-28947916Y-88875892D01*
X-28900297Y-88923511D01*
X-28805059Y-88971130D01*
X-28709821Y-88971130D01*
X-28614583Y-88923511D01*
X-28566964Y-88875892D01*
X-28519345Y-88780654D01*
X-28471726Y-88590178D01*
X-28471726Y-88352083D01*
X-28519345Y-88161607D01*
X-28566964Y-88066369D01*
X-28614583Y-88018750D01*
X-28709821Y-87971130D01*
X-140866964Y-50871130D02*
X-140866964Y-49871130D01*
X-141105059Y-49871130D01*
X-141247916Y-49918750D01*
X-141343154Y-50013988D01*
X-141390773Y-50109226D01*
X-141438392Y-50299702D01*
X-141438392Y-50442559D01*
X-141390773Y-50633035D01*
X-141343154Y-50728273D01*
X-141247916Y-50823511D01*
X-141105059Y-50871130D01*
X-140866964Y-50871130D01*
X-142057440Y-49871130D02*
X-142152678Y-49871130D01*
X-142247916Y-49918750D01*
X-142295535Y-49966369D01*
X-142343154Y-50061607D01*
X-142390773Y-50252083D01*
X-142390773Y-50490178D01*
X-142343154Y-50680654D01*
X-142295535Y-50775892D01*
X-142247916Y-50823511D01*
X-142152678Y-50871130D01*
X-142057440Y-50871130D01*
X-141962202Y-50823511D01*
X-141914583Y-50775892D01*
X-141866964Y-50680654D01*
X-141819345Y-50490178D01*
X-141819345Y-50252083D01*
X-141866964Y-50061607D01*
X-141914583Y-49966369D01*
X-141962202Y-49918750D01*
X-142057440Y-49871130D01*
X-143247916Y-49871130D02*
X-143057440Y-49871130D01*
X-142962202Y-49918750D01*
X-142914583Y-49966369D01*
X-142819345Y-50109226D01*
X-142771726Y-50299702D01*
X-142771726Y-50680654D01*
X-142819345Y-50775892D01*
X-142866964Y-50823511D01*
X-142962202Y-50871130D01*
X-143152678Y-50871130D01*
X-143247916Y-50823511D01*
X-143295535Y-50775892D01*
X-143343154Y-50680654D01*
X-143343154Y-50442559D01*
X-143295535Y-50347321D01*
X-143247916Y-50299702D01*
X-143152678Y-50252083D01*
X-142962202Y-50252083D01*
X-142866964Y-50299702D01*
X-142819345Y-50347321D01*
X-142771726Y-50442559D01*
X-121816964Y-50871130D02*
X-121816964Y-49871130D01*
X-122055059Y-49871130D01*
X-122197916Y-49918750D01*
X-122293154Y-50013988D01*
X-122340773Y-50109226D01*
X-122388392Y-50299702D01*
X-122388392Y-50442559D01*
X-122340773Y-50633035D01*
X-122293154Y-50728273D01*
X-122197916Y-50823511D01*
X-122055059Y-50871130D01*
X-121816964Y-50871130D01*
X-123007440Y-49871130D02*
X-123102678Y-49871130D01*
X-123197916Y-49918750D01*
X-123245535Y-49966369D01*
X-123293154Y-50061607D01*
X-123340773Y-50252083D01*
X-123340773Y-50490178D01*
X-123293154Y-50680654D01*
X-123245535Y-50775892D01*
X-123197916Y-50823511D01*
X-123102678Y-50871130D01*
X-123007440Y-50871130D01*
X-122912202Y-50823511D01*
X-122864583Y-50775892D01*
X-122816964Y-50680654D01*
X-122769345Y-50490178D01*
X-122769345Y-50252083D01*
X-122816964Y-50061607D01*
X-122864583Y-49966369D01*
X-122912202Y-49918750D01*
X-123007440Y-49871130D01*
X-124245535Y-49871130D02*
X-123769345Y-49871130D01*
X-123721726Y-50347321D01*
X-123769345Y-50299702D01*
X-123864583Y-50252083D01*
X-124102678Y-50252083D01*
X-124197916Y-50299702D01*
X-124245535Y-50347321D01*
X-124293154Y-50442559D01*
X-124293154Y-50680654D01*
X-124245535Y-50775892D01*
X-124197916Y-50823511D01*
X-124102678Y-50871130D01*
X-123864583Y-50871130D01*
X-123769345Y-50823511D01*
X-123721726Y-50775892D01*
X-102815714Y-50567380D02*
X-102815714Y-49567380D01*
X-103053809Y-49567380D01*
X-103196666Y-49615000D01*
X-103291904Y-49710238D01*
X-103339523Y-49805476D01*
X-103387142Y-49995952D01*
X-103387142Y-50138809D01*
X-103339523Y-50329285D01*
X-103291904Y-50424523D01*
X-103196666Y-50519761D01*
X-103053809Y-50567380D01*
X-102815714Y-50567380D01*
X-104006190Y-49567380D02*
X-104101428Y-49567380D01*
X-104196666Y-49615000D01*
X-104244285Y-49662619D01*
X-104291904Y-49757857D01*
X-104339523Y-49948333D01*
X-104339523Y-50186428D01*
X-104291904Y-50376904D01*
X-104244285Y-50472142D01*
X-104196666Y-50519761D01*
X-104101428Y-50567380D01*
X-104006190Y-50567380D01*
X-103910952Y-50519761D01*
X-103863333Y-50472142D01*
X-103815714Y-50376904D01*
X-103768095Y-50186428D01*
X-103768095Y-49948333D01*
X-103815714Y-49757857D01*
X-103863333Y-49662619D01*
X-103910952Y-49615000D01*
X-104006190Y-49567380D01*
X-105196666Y-49900714D02*
X-105196666Y-50567380D01*
X-104958571Y-49519761D02*
X-104720476Y-50234047D01*
X-105339523Y-50234047D01*
X-83665714Y-47342380D02*
X-83665714Y-46342380D01*
X-83903809Y-46342380D01*
X-84046666Y-46390000D01*
X-84141904Y-46485238D01*
X-84189523Y-46580476D01*
X-84237142Y-46770952D01*
X-84237142Y-46913809D01*
X-84189523Y-47104285D01*
X-84141904Y-47199523D01*
X-84046666Y-47294761D01*
X-83903809Y-47342380D01*
X-83665714Y-47342380D01*
X-84856190Y-46342380D02*
X-84951428Y-46342380D01*
X-85046666Y-46390000D01*
X-85094285Y-46437619D01*
X-85141904Y-46532857D01*
X-85189523Y-46723333D01*
X-85189523Y-46961428D01*
X-85141904Y-47151904D01*
X-85094285Y-47247142D01*
X-85046666Y-47294761D01*
X-84951428Y-47342380D01*
X-84856190Y-47342380D01*
X-84760952Y-47294761D01*
X-84713333Y-47247142D01*
X-84665714Y-47151904D01*
X-84618095Y-46961428D01*
X-84618095Y-46723333D01*
X-84665714Y-46532857D01*
X-84713333Y-46437619D01*
X-84760952Y-46390000D01*
X-84856190Y-46342380D01*
X-85522857Y-46342380D02*
X-86141904Y-46342380D01*
X-85808571Y-46723333D01*
X-85951428Y-46723333D01*
X-86046666Y-46770952D01*
X-86094285Y-46818571D01*
X-86141904Y-46913809D01*
X-86141904Y-47151904D01*
X-86094285Y-47247142D01*
X-86046666Y-47294761D01*
X-85951428Y-47342380D01*
X-85665714Y-47342380D01*
X-85570476Y-47294761D01*
X-85522857Y-47247142D01*
X-64665714Y-53942380D02*
X-64665714Y-52942380D01*
X-64903809Y-52942380D01*
X-65046666Y-52990000D01*
X-65141904Y-53085238D01*
X-65189523Y-53180476D01*
X-65237142Y-53370952D01*
X-65237142Y-53513809D01*
X-65189523Y-53704285D01*
X-65141904Y-53799523D01*
X-65046666Y-53894761D01*
X-64903809Y-53942380D01*
X-64665714Y-53942380D01*
X-65856190Y-52942380D02*
X-65951428Y-52942380D01*
X-66046666Y-52990000D01*
X-66094285Y-53037619D01*
X-66141904Y-53132857D01*
X-66189523Y-53323333D01*
X-66189523Y-53561428D01*
X-66141904Y-53751904D01*
X-66094285Y-53847142D01*
X-66046666Y-53894761D01*
X-65951428Y-53942380D01*
X-65856190Y-53942380D01*
X-65760952Y-53894761D01*
X-65713333Y-53847142D01*
X-65665714Y-53751904D01*
X-65618095Y-53561428D01*
X-65618095Y-53323333D01*
X-65665714Y-53132857D01*
X-65713333Y-53037619D01*
X-65760952Y-52990000D01*
X-65856190Y-52942380D01*
X-66570476Y-53037619D02*
X-66618095Y-52990000D01*
X-66713333Y-52942380D01*
X-66951428Y-52942380D01*
X-67046666Y-52990000D01*
X-67094285Y-53037619D01*
X-67141904Y-53132857D01*
X-67141904Y-53228095D01*
X-67094285Y-53370952D01*
X-66522857Y-53942380D01*
X-67141904Y-53942380D01*
X-45616964Y-69921130D02*
X-45616964Y-68921130D01*
X-45855059Y-68921130D01*
X-45997916Y-68968750D01*
X-46093154Y-69063988D01*
X-46140773Y-69159226D01*
X-46188392Y-69349702D01*
X-46188392Y-69492559D01*
X-46140773Y-69683035D01*
X-46093154Y-69778273D01*
X-45997916Y-69873511D01*
X-45855059Y-69921130D01*
X-45616964Y-69921130D01*
X-46807440Y-68921130D02*
X-46902678Y-68921130D01*
X-46997916Y-68968750D01*
X-47045535Y-69016369D01*
X-47093154Y-69111607D01*
X-47140773Y-69302083D01*
X-47140773Y-69540178D01*
X-47093154Y-69730654D01*
X-47045535Y-69825892D01*
X-46997916Y-69873511D01*
X-46902678Y-69921130D01*
X-46807440Y-69921130D01*
X-46712202Y-69873511D01*
X-46664583Y-69825892D01*
X-46616964Y-69730654D01*
X-46569345Y-69540178D01*
X-46569345Y-69302083D01*
X-46616964Y-69111607D01*
X-46664583Y-69016369D01*
X-46712202Y-68968750D01*
X-46807440Y-68921130D01*
X-48093154Y-69921130D02*
X-47521726Y-69921130D01*
X-47807440Y-69921130D02*
X-47807440Y-68921130D01*
X-47712202Y-69063988D01*
X-47616964Y-69159226D01*
X-47521726Y-69206845D01*
X-26566964Y-69921130D02*
X-26566964Y-68921130D01*
X-26805059Y-68921130D01*
X-26947916Y-68968750D01*
X-27043154Y-69063988D01*
X-27090773Y-69159226D01*
X-27138392Y-69349702D01*
X-27138392Y-69492559D01*
X-27090773Y-69683035D01*
X-27043154Y-69778273D01*
X-26947916Y-69873511D01*
X-26805059Y-69921130D01*
X-26566964Y-69921130D01*
X-27757440Y-68921130D02*
X-27852678Y-68921130D01*
X-27947916Y-68968750D01*
X-27995535Y-69016369D01*
X-28043154Y-69111607D01*
X-28090773Y-69302083D01*
X-28090773Y-69540178D01*
X-28043154Y-69730654D01*
X-27995535Y-69825892D01*
X-27947916Y-69873511D01*
X-27852678Y-69921130D01*
X-27757440Y-69921130D01*
X-27662202Y-69873511D01*
X-27614583Y-69825892D01*
X-27566964Y-69730654D01*
X-27519345Y-69540178D01*
X-27519345Y-69302083D01*
X-27566964Y-69111607D01*
X-27614583Y-69016369D01*
X-27662202Y-68968750D01*
X-27757440Y-68921130D01*
X-28709821Y-68921130D02*
X-28805059Y-68921130D01*
X-28900297Y-68968750D01*
X-28947916Y-69016369D01*
X-28995535Y-69111607D01*
X-29043154Y-69302083D01*
X-29043154Y-69540178D01*
X-28995535Y-69730654D01*
X-28947916Y-69825892D01*
X-28900297Y-69873511D01*
X-28805059Y-69921130D01*
X-28709821Y-69921130D01*
X-28614583Y-69873511D01*
X-28566964Y-69825892D01*
X-28519345Y-69730654D01*
X-28471726Y-69540178D01*
X-28471726Y-69302083D01*
X-28519345Y-69111607D01*
X-28566964Y-69016369D01*
X-28614583Y-68968750D01*
X-28709821Y-68921130D01*
X-177438095Y-68129166D02*
X-177819047Y-67862500D01*
X-177438095Y-67672023D02*
X-178238095Y-67672023D01*
X-178238095Y-67976785D01*
X-178200000Y-68052976D01*
X-178161904Y-68091071D01*
X-178085714Y-68129166D01*
X-177971428Y-68129166D01*
X-177895238Y-68091071D01*
X-177857142Y-68052976D01*
X-177819047Y-67976785D01*
X-177819047Y-67672023D01*
X-177438095Y-68891071D02*
X-177438095Y-68433928D01*
X-177438095Y-68662500D02*
X-178238095Y-68662500D01*
X-178123809Y-68586309D01*
X-178047619Y-68510119D01*
X-178009523Y-68433928D01*
X-175056845Y-68129166D02*
X-175437797Y-67862500D01*
X-175056845Y-67672023D02*
X-175856845Y-67672023D01*
X-175856845Y-67976785D01*
X-175818750Y-68052976D01*
X-175780654Y-68091071D01*
X-175704464Y-68129166D01*
X-175590178Y-68129166D01*
X-175513988Y-68091071D01*
X-175475892Y-68052976D01*
X-175437797Y-67976785D01*
X-175437797Y-67672023D01*
X-175056845Y-68891071D02*
X-175056845Y-68433928D01*
X-175056845Y-68662500D02*
X-175856845Y-68662500D01*
X-175742559Y-68586309D01*
X-175666369Y-68510119D01*
X-175628273Y-68433928D01*
X-173939273Y-30206904D02*
X-173939273Y-29406904D01*
X-174129750Y-29406904D01*
X-174244035Y-29445000D01*
X-174320226Y-29521190D01*
X-174358321Y-29597380D01*
X-174396416Y-29749761D01*
X-174396416Y-29864047D01*
X-174358321Y-30016428D01*
X-174320226Y-30092619D01*
X-174244035Y-30168809D01*
X-174129750Y-30206904D01*
X-173939273Y-30206904D01*
X-174701178Y-29483095D02*
X-174739273Y-29445000D01*
X-174815464Y-29406904D01*
X-175005940Y-29406904D01*
X-175082130Y-29445000D01*
X-175120226Y-29483095D01*
X-175158321Y-29559285D01*
X-175158321Y-29635476D01*
X-175120226Y-29749761D01*
X-174663083Y-30206904D01*
X-175158321Y-30206904D01*
X-173939273Y-40366904D02*
X-173939273Y-39566904D01*
X-174129750Y-39566904D01*
X-174244035Y-39605000D01*
X-174320226Y-39681190D01*
X-174358321Y-39757380D01*
X-174396416Y-39909761D01*
X-174396416Y-40024047D01*
X-174358321Y-40176428D01*
X-174320226Y-40252619D01*
X-174244035Y-40328809D01*
X-174129750Y-40366904D01*
X-173939273Y-40366904D01*
X-174891654Y-39566904D02*
X-174967845Y-39566904D01*
X-175044035Y-39605000D01*
X-175082130Y-39643095D01*
X-175120226Y-39719285D01*
X-175158321Y-39871666D01*
X-175158321Y-40062142D01*
X-175120226Y-40214523D01*
X-175082130Y-40290714D01*
X-175044035Y-40328809D01*
X-174967845Y-40366904D01*
X-174891654Y-40366904D01*
X-174815464Y-40328809D01*
X-174777369Y-40290714D01*
X-174739273Y-40214523D01*
X-174701178Y-40062142D01*
X-174701178Y-39871666D01*
X-174739273Y-39719285D01*
X-174777369Y-39643095D01*
X-174815464Y-39605000D01*
X-174891654Y-39566904D01*
X-173939273Y-37826904D02*
X-173939273Y-37026904D01*
X-174129750Y-37026904D01*
X-174244035Y-37065000D01*
X-174320226Y-37141190D01*
X-174358321Y-37217380D01*
X-174396416Y-37369761D01*
X-174396416Y-37484047D01*
X-174358321Y-37636428D01*
X-174320226Y-37712619D01*
X-174244035Y-37788809D01*
X-174129750Y-37826904D01*
X-173939273Y-37826904D01*
X-175158321Y-37826904D02*
X-174701178Y-37826904D01*
X-174929750Y-37826904D02*
X-174929750Y-37026904D01*
X-174853559Y-37141190D01*
X-174777369Y-37217380D01*
X-174701178Y-37255476D01*
X-173920226Y-34525000D02*
X-173844035Y-34486904D01*
X-173729750Y-34486904D01*
X-173615464Y-34525000D01*
X-173539273Y-34601190D01*
X-173501178Y-34677380D01*
X-173463083Y-34829761D01*
X-173463083Y-34944047D01*
X-173501178Y-35096428D01*
X-173539273Y-35172619D01*
X-173615464Y-35248809D01*
X-173729750Y-35286904D01*
X-173805940Y-35286904D01*
X-173920226Y-35248809D01*
X-173958321Y-35210714D01*
X-173958321Y-34944047D01*
X-173805940Y-34944047D01*
X-174301178Y-35286904D02*
X-174301178Y-34486904D01*
X-174758321Y-35286904D01*
X-174758321Y-34486904D01*
X-175139273Y-35286904D02*
X-175139273Y-34486904D01*
X-175329750Y-34486904D01*
X-175444035Y-34525000D01*
X-175520226Y-34601190D01*
X-175558321Y-34677380D01*
X-175596416Y-34829761D01*
X-175596416Y-34944047D01*
X-175558321Y-35096428D01*
X-175520226Y-35172619D01*
X-175444035Y-35248809D01*
X-175329750Y-35286904D01*
X-175139273Y-35286904D01*
X-173920226Y-31985000D02*
X-173844035Y-31946904D01*
X-173729750Y-31946904D01*
X-173615464Y-31985000D01*
X-173539273Y-32061190D01*
X-173501178Y-32137380D01*
X-173463083Y-32289761D01*
X-173463083Y-32404047D01*
X-173501178Y-32556428D01*
X-173539273Y-32632619D01*
X-173615464Y-32708809D01*
X-173729750Y-32746904D01*
X-173805940Y-32746904D01*
X-173920226Y-32708809D01*
X-173958321Y-32670714D01*
X-173958321Y-32404047D01*
X-173805940Y-32404047D01*
X-174301178Y-32746904D02*
X-174301178Y-31946904D01*
X-174758321Y-32746904D01*
X-174758321Y-31946904D01*
X-175139273Y-32746904D02*
X-175139273Y-31946904D01*
X-175329750Y-31946904D01*
X-175444035Y-31985000D01*
X-175520226Y-32061190D01*
X-175558321Y-32137380D01*
X-175596416Y-32289761D01*
X-175596416Y-32404047D01*
X-175558321Y-32556428D01*
X-175520226Y-32632619D01*
X-175444035Y-32708809D01*
X-175329750Y-32746904D01*
X-175139273Y-32746904D01*
X-173939273Y-42906904D02*
X-173939273Y-42106904D01*
X-174129750Y-42106904D01*
X-174244035Y-42145000D01*
X-174320226Y-42221190D01*
X-174358321Y-42297380D01*
X-174396416Y-42449761D01*
X-174396416Y-42564047D01*
X-174358321Y-42716428D01*
X-174320226Y-42792619D01*
X-174244035Y-42868809D01*
X-174129750Y-42906904D01*
X-173939273Y-42906904D01*
X-175082130Y-42373571D02*
X-175082130Y-42906904D01*
X-174891654Y-42068809D02*
X-174701178Y-42640238D01*
X-175196416Y-42640238D01*
X-174396416Y-45370714D02*
X-174358321Y-45408809D01*
X-174244035Y-45446904D01*
X-174167845Y-45446904D01*
X-174053559Y-45408809D01*
X-173977369Y-45332619D01*
X-173939273Y-45256428D01*
X-173901178Y-45104047D01*
X-173901178Y-44989761D01*
X-173939273Y-44837380D01*
X-173977369Y-44761190D01*
X-174053559Y-44685000D01*
X-174167845Y-44646904D01*
X-174244035Y-44646904D01*
X-174358321Y-44685000D01*
X-174396416Y-44723095D01*
X-175082130Y-44646904D02*
X-174929750Y-44646904D01*
X-174853559Y-44685000D01*
X-174815464Y-44723095D01*
X-174739273Y-44837380D01*
X-174701178Y-44989761D01*
X-174701178Y-45294523D01*
X-174739273Y-45370714D01*
X-174777369Y-45408809D01*
X-174853559Y-45446904D01*
X-175005940Y-45446904D01*
X-175082130Y-45408809D01*
X-175120226Y-45370714D01*
X-175158321Y-45294523D01*
X-175158321Y-45104047D01*
X-175120226Y-45027857D01*
X-175082130Y-44989761D01*
X-175005940Y-44951666D01*
X-174853559Y-44951666D01*
X-174777369Y-44989761D01*
X-174739273Y-45027857D01*
X-174701178Y-45104047D01*
X-173939273Y-47986904D02*
X-173939273Y-47186904D01*
X-174129750Y-47186904D01*
X-174244035Y-47225000D01*
X-174320226Y-47301190D01*
X-174358321Y-47377380D01*
X-174396416Y-47529761D01*
X-174396416Y-47644047D01*
X-174358321Y-47796428D01*
X-174320226Y-47872619D01*
X-174244035Y-47948809D01*
X-174129750Y-47986904D01*
X-173939273Y-47986904D01*
X-174663083Y-47186904D02*
X-175196416Y-47186904D01*
X-174853559Y-47986904D01*
X-173977369Y-50107857D02*
X-174244035Y-50107857D01*
X-174358321Y-50526904D02*
X-173977369Y-50526904D01*
X-173977369Y-49726904D01*
X-174358321Y-49726904D01*
X-175044035Y-49726904D02*
X-174891654Y-49726904D01*
X-174815464Y-49765000D01*
X-174777369Y-49803095D01*
X-174701178Y-49917380D01*
X-174663083Y-50069761D01*
X-174663083Y-50374523D01*
X-174701178Y-50450714D01*
X-174739273Y-50488809D01*
X-174815464Y-50526904D01*
X-174967845Y-50526904D01*
X-175044035Y-50488809D01*
X-175082130Y-50450714D01*
X-175120226Y-50374523D01*
X-175120226Y-50184047D01*
X-175082130Y-50107857D01*
X-175044035Y-50069761D01*
X-174967845Y-50031666D01*
X-174815464Y-50031666D01*
X-174739273Y-50069761D01*
X-174701178Y-50107857D01*
X-174663083Y-50184047D01*
X-174205940Y-52647857D02*
X-174320226Y-52685952D01*
X-174358321Y-52724047D01*
X-174396416Y-52800238D01*
X-174396416Y-52914523D01*
X-174358321Y-52990714D01*
X-174320226Y-53028809D01*
X-174244035Y-53066904D01*
X-173939273Y-53066904D01*
X-173939273Y-52266904D01*
X-174205940Y-52266904D01*
X-174282130Y-52305000D01*
X-174320226Y-52343095D01*
X-174358321Y-52419285D01*
X-174358321Y-52495476D01*
X-174320226Y-52571666D01*
X-174282130Y-52609761D01*
X-174205940Y-52647857D01*
X-173939273Y-52647857D01*
X-175082130Y-52533571D02*
X-175082130Y-53066904D01*
X-174891654Y-52228809D02*
X-174701178Y-52800238D01*
X-175196416Y-52800238D01*
X-174205940Y-55187857D02*
X-174320226Y-55225952D01*
X-174358321Y-55264047D01*
X-174396416Y-55340238D01*
X-174396416Y-55454523D01*
X-174358321Y-55530714D01*
X-174320226Y-55568809D01*
X-174244035Y-55606904D01*
X-173939273Y-55606904D01*
X-173939273Y-54806904D01*
X-174205940Y-54806904D01*
X-174282130Y-54845000D01*
X-174320226Y-54883095D01*
X-174358321Y-54959285D01*
X-174358321Y-55035476D01*
X-174320226Y-55111666D01*
X-174282130Y-55149761D01*
X-174205940Y-55187857D01*
X-173939273Y-55187857D01*
X-175120226Y-54806904D02*
X-174739273Y-54806904D01*
X-174701178Y-55187857D01*
X-174739273Y-55149761D01*
X-174815464Y-55111666D01*
X-175005940Y-55111666D01*
X-175082130Y-55149761D01*
X-175120226Y-55187857D01*
X-175158321Y-55264047D01*
X-175158321Y-55454523D01*
X-175120226Y-55530714D01*
X-175082130Y-55568809D01*
X-175005940Y-55606904D01*
X-174815464Y-55606904D01*
X-174739273Y-55568809D01*
X-174701178Y-55530714D01*
X-163283940Y-55187857D02*
X-163398226Y-55225952D01*
X-163436321Y-55264047D01*
X-163474416Y-55340238D01*
X-163474416Y-55454523D01*
X-163436321Y-55530714D01*
X-163398226Y-55568809D01*
X-163322035Y-55606904D01*
X-163017273Y-55606904D01*
X-163017273Y-54806904D01*
X-163283940Y-54806904D01*
X-163360130Y-54845000D01*
X-163398226Y-54883095D01*
X-163436321Y-54959285D01*
X-163436321Y-55035476D01*
X-163398226Y-55111666D01*
X-163360130Y-55149761D01*
X-163283940Y-55187857D01*
X-163017273Y-55187857D01*
X-164160130Y-54806904D02*
X-164007750Y-54806904D01*
X-163931559Y-54845000D01*
X-163893464Y-54883095D01*
X-163817273Y-54997380D01*
X-163779178Y-55149761D01*
X-163779178Y-55454523D01*
X-163817273Y-55530714D01*
X-163855369Y-55568809D01*
X-163931559Y-55606904D01*
X-164083940Y-55606904D01*
X-164160130Y-55568809D01*
X-164198226Y-55530714D01*
X-164236321Y-55454523D01*
X-164236321Y-55264047D01*
X-164198226Y-55187857D01*
X-164160130Y-55149761D01*
X-164083940Y-55111666D01*
X-163931559Y-55111666D01*
X-163855369Y-55149761D01*
X-163817273Y-55187857D01*
X-163779178Y-55264047D01*
X-163283940Y-50107857D02*
X-163398226Y-50145952D01*
X-163436321Y-50184047D01*
X-163474416Y-50260238D01*
X-163474416Y-50374523D01*
X-163436321Y-50450714D01*
X-163398226Y-50488809D01*
X-163322035Y-50526904D01*
X-163017273Y-50526904D01*
X-163017273Y-49726904D01*
X-163283940Y-49726904D01*
X-163360130Y-49765000D01*
X-163398226Y-49803095D01*
X-163436321Y-49879285D01*
X-163436321Y-49955476D01*
X-163398226Y-50031666D01*
X-163360130Y-50069761D01*
X-163283940Y-50107857D01*
X-163017273Y-50107857D01*
X-163741083Y-49726904D02*
X-164236321Y-49726904D01*
X-163969654Y-50031666D01*
X-164083940Y-50031666D01*
X-164160130Y-50069761D01*
X-164198226Y-50107857D01*
X-164236321Y-50184047D01*
X-164236321Y-50374523D01*
X-164198226Y-50450714D01*
X-164160130Y-50488809D01*
X-164083940Y-50526904D01*
X-163855369Y-50526904D01*
X-163779178Y-50488809D01*
X-163741083Y-50450714D01*
X-163283940Y-47567857D02*
X-163398226Y-47605952D01*
X-163436321Y-47644047D01*
X-163474416Y-47720238D01*
X-163474416Y-47834523D01*
X-163436321Y-47910714D01*
X-163398226Y-47948809D01*
X-163322035Y-47986904D01*
X-163017273Y-47986904D01*
X-163017273Y-47186904D01*
X-163283940Y-47186904D01*
X-163360130Y-47225000D01*
X-163398226Y-47263095D01*
X-163436321Y-47339285D01*
X-163436321Y-47415476D01*
X-163398226Y-47491666D01*
X-163360130Y-47529761D01*
X-163283940Y-47567857D01*
X-163017273Y-47567857D01*
X-164236321Y-47986904D02*
X-163779178Y-47986904D01*
X-164007750Y-47986904D02*
X-164007750Y-47186904D01*
X-163931559Y-47301190D01*
X-163855369Y-47377380D01*
X-163779178Y-47415476D01*
X-163341083Y-37407857D02*
X-163074416Y-37407857D01*
X-163074416Y-37826904D02*
X-163074416Y-37026904D01*
X-163455369Y-37026904D01*
X-164102988Y-37293571D02*
X-164102988Y-37826904D01*
X-163912511Y-36988809D02*
X-163722035Y-37560238D01*
X-164217273Y-37560238D01*
X-162541083Y-34486904D02*
X-162807750Y-35286904D01*
X-163074416Y-34486904D01*
X-163798226Y-35210714D02*
X-163760130Y-35248809D01*
X-163645845Y-35286904D01*
X-163569654Y-35286904D01*
X-163455369Y-35248809D01*
X-163379178Y-35172619D01*
X-163341083Y-35096428D01*
X-163302988Y-34944047D01*
X-163302988Y-34829761D01*
X-163341083Y-34677380D01*
X-163379178Y-34601190D01*
X-163455369Y-34525000D01*
X-163569654Y-34486904D01*
X-163645845Y-34486904D01*
X-163760130Y-34525000D01*
X-163798226Y-34563095D01*
X-164598226Y-35210714D02*
X-164560130Y-35248809D01*
X-164445845Y-35286904D01*
X-164369654Y-35286904D01*
X-164255369Y-35248809D01*
X-164179178Y-35172619D01*
X-164141083Y-35096428D01*
X-164102988Y-34944047D01*
X-164102988Y-34829761D01*
X-164141083Y-34677380D01*
X-164179178Y-34601190D01*
X-164255369Y-34525000D01*
X-164369654Y-34486904D01*
X-164445845Y-34486904D01*
X-164560130Y-34525000D01*
X-164598226Y-34563095D01*
X-162998226Y-29445000D02*
X-162922035Y-29406904D01*
X-162807750Y-29406904D01*
X-162693464Y-29445000D01*
X-162617273Y-29521190D01*
X-162579178Y-29597380D01*
X-162541083Y-29749761D01*
X-162541083Y-29864047D01*
X-162579178Y-30016428D01*
X-162617273Y-30092619D01*
X-162693464Y-30168809D01*
X-162807750Y-30206904D01*
X-162883940Y-30206904D01*
X-162998226Y-30168809D01*
X-163036321Y-30130714D01*
X-163036321Y-29864047D01*
X-162883940Y-29864047D01*
X-163379178Y-30206904D02*
X-163379178Y-29406904D01*
X-163836321Y-30206904D01*
X-163836321Y-29406904D01*
X-164217273Y-30206904D02*
X-164217273Y-29406904D01*
X-164407750Y-29406904D01*
X-164522035Y-29445000D01*
X-164598226Y-29521190D01*
X-164636321Y-29597380D01*
X-164674416Y-29749761D01*
X-164674416Y-29864047D01*
X-164636321Y-30016428D01*
X-164598226Y-30092619D01*
X-164522035Y-30168809D01*
X-164407750Y-30206904D01*
X-164217273Y-30206904D01*
X-163055369Y-27666904D02*
X-162788702Y-27285952D01*
X-162598226Y-27666904D02*
X-162598226Y-26866904D01*
X-162902988Y-26866904D01*
X-162979178Y-26905000D01*
X-163017273Y-26943095D01*
X-163055369Y-27019285D01*
X-163055369Y-27133571D01*
X-163017273Y-27209761D01*
X-162979178Y-27247857D01*
X-162902988Y-27285952D01*
X-162598226Y-27285952D01*
X-163360130Y-27438333D02*
X-163741083Y-27438333D01*
X-163283940Y-27666904D02*
X-163550607Y-26866904D01*
X-163817273Y-27666904D01*
X-164007750Y-26866904D02*
X-164198226Y-27666904D01*
X-164350607Y-27095476D01*
X-164502988Y-27666904D01*
X-164693464Y-26866904D01*
X-163341083Y-39947857D02*
X-163074416Y-39947857D01*
X-163074416Y-40366904D02*
X-163074416Y-39566904D01*
X-163455369Y-39566904D01*
X-164141083Y-39566904D02*
X-163760130Y-39566904D01*
X-163722035Y-39947857D01*
X-163760130Y-39909761D01*
X-163836321Y-39871666D01*
X-164026797Y-39871666D01*
X-164102988Y-39909761D01*
X-164141083Y-39947857D01*
X-164179178Y-40024047D01*
X-164179178Y-40214523D01*
X-164141083Y-40290714D01*
X-164102988Y-40328809D01*
X-164026797Y-40366904D01*
X-163836321Y-40366904D01*
X-163760130Y-40328809D01*
X-163722035Y-40290714D01*
X-163341083Y-42487857D02*
X-163074416Y-42487857D01*
X-163074416Y-42906904D02*
X-163074416Y-42106904D01*
X-163455369Y-42106904D01*
X-164102988Y-42106904D02*
X-163950607Y-42106904D01*
X-163874416Y-42145000D01*
X-163836321Y-42183095D01*
X-163760130Y-42297380D01*
X-163722035Y-42449761D01*
X-163722035Y-42754523D01*
X-163760130Y-42830714D01*
X-163798226Y-42868809D01*
X-163874416Y-42906904D01*
X-164026797Y-42906904D01*
X-164102988Y-42868809D01*
X-164141083Y-42830714D01*
X-164179178Y-42754523D01*
X-164179178Y-42564047D01*
X-164141083Y-42487857D01*
X-164102988Y-42449761D01*
X-164026797Y-42411666D01*
X-163874416Y-42411666D01*
X-163798226Y-42449761D01*
X-163760130Y-42487857D01*
X-163722035Y-42564047D01*
X-163341083Y-45027857D02*
X-163074416Y-45027857D01*
X-163074416Y-45446904D02*
X-163074416Y-44646904D01*
X-163455369Y-44646904D01*
X-163683940Y-44646904D02*
X-164217273Y-44646904D01*
X-163874416Y-45446904D01*
X-163283940Y-52647857D02*
X-163398226Y-52685952D01*
X-163436321Y-52724047D01*
X-163474416Y-52800238D01*
X-163474416Y-52914523D01*
X-163436321Y-52990714D01*
X-163398226Y-53028809D01*
X-163322035Y-53066904D01*
X-163017273Y-53066904D01*
X-163017273Y-52266904D01*
X-163283940Y-52266904D01*
X-163360130Y-52305000D01*
X-163398226Y-52343095D01*
X-163436321Y-52419285D01*
X-163436321Y-52495476D01*
X-163398226Y-52571666D01*
X-163360130Y-52609761D01*
X-163283940Y-52647857D01*
X-163017273Y-52647857D01*
X-163779178Y-52343095D02*
X-163817273Y-52305000D01*
X-163893464Y-52266904D01*
X-164083940Y-52266904D01*
X-164160130Y-52305000D01*
X-164198226Y-52343095D01*
X-164236321Y-52419285D01*
X-164236321Y-52495476D01*
X-164198226Y-52609761D01*
X-163741083Y-53066904D01*
X-164236321Y-53066904D01*
X-170450145Y-26866904D02*
X-170907288Y-26866904D01*
X-170678717Y-27666904D02*
X-170678717Y-26866904D01*
X-171097764Y-26866904D02*
X-171631098Y-27666904D01*
X-171631098Y-26866904D02*
X-171097764Y-27666904D01*
X-172088241Y-26866904D02*
X-172164431Y-26866904D01*
X-172240622Y-26905000D01*
X-172278717Y-26943095D01*
X-172316812Y-27019285D01*
X-172354907Y-27171666D01*
X-172354907Y-27362142D01*
X-172316812Y-27514523D01*
X-172278717Y-27590714D01*
X-172240622Y-27628809D01*
X-172164431Y-27666904D01*
X-172088241Y-27666904D01*
X-172012050Y-27628809D01*
X-171973955Y-27590714D01*
X-171935860Y-27514523D01*
X-171897764Y-27362142D01*
X-171897764Y-27171666D01*
X-171935860Y-27019285D01*
X-171973955Y-26943095D01*
X-172012050Y-26905000D01*
X-172088241Y-26866904D01*
X-173269193Y-26828809D02*
X-172583479Y-27857380D01*
X-173535860Y-27666904D02*
X-173535860Y-26866904D01*
X-173726336Y-26866904D01*
X-173840622Y-26905000D01*
X-173916812Y-26981190D01*
X-173954907Y-27057380D01*
X-173993002Y-27209761D01*
X-173993002Y-27324047D01*
X-173954907Y-27476428D01*
X-173916812Y-27552619D01*
X-173840622Y-27628809D01*
X-173726336Y-27666904D01*
X-173535860Y-27666904D01*
X-174259669Y-26866904D02*
X-174754907Y-26866904D01*
X-174488241Y-27171666D01*
X-174602526Y-27171666D01*
X-174678717Y-27209761D01*
X-174716812Y-27247857D01*
X-174754907Y-27324047D01*
X-174754907Y-27514523D01*
X-174716812Y-27590714D01*
X-174678717Y-27628809D01*
X-174602526Y-27666904D01*
X-174373955Y-27666904D01*
X-174297764Y-27628809D01*
X-174259669Y-27590714D01*
X-163495416Y-32688809D02*
X-163609702Y-32726904D01*
X-163800178Y-32726904D01*
X-163876369Y-32688809D01*
X-163914464Y-32650714D01*
X-163952559Y-32574523D01*
X-163952559Y-32498333D01*
X-163914464Y-32422142D01*
X-163876369Y-32384047D01*
X-163800178Y-32345952D01*
X-163647797Y-32307857D01*
X-163571607Y-32269761D01*
X-163533511Y-32231666D01*
X-163495416Y-32155476D01*
X-163495416Y-32079285D01*
X-163533511Y-32003095D01*
X-163571607Y-31965000D01*
X-163647797Y-31926904D01*
X-163838273Y-31926904D01*
X-163952559Y-31965000D01*
X-164181130Y-31926904D02*
X-164638273Y-31926904D01*
X-164409702Y-32726904D02*
X-164409702Y-31926904D01*
%LPC*%
D14*
X-27622500Y-130651250D03*
D15*
X-30162500Y-135731250D03*
D14*
X-33972500Y-133191250D03*
D16*
X-35242500Y-135731250D03*
X-25082500Y-135731250D03*
D17*
X-42068750Y-128746250D03*
X-18256250Y-128746250D03*
D15*
X-42068750Y-143986250D03*
X-18256250Y-143986250D03*
D14*
X-25558750Y-121761250D03*
D15*
X-23018750Y-116681250D03*
D14*
X-19208750Y-119221250D03*
D16*
X-17938750Y-116681250D03*
X-28098750Y-116681250D03*
D14*
X-160450659Y-140040295D03*
D15*
X-154781250Y-139700000D03*
D14*
X-155075955Y-144269557D03*
D16*
X-152241250Y-144099409D03*
X-157321250Y-135300591D03*
D14*
X-139541250Y-54451250D03*
D15*
X-142081250Y-59531250D03*
D14*
X-145891250Y-56991250D03*
D16*
X-147161250Y-59531250D03*
X-137001250Y-59531250D03*
D12*
G36*
X-155823269Y-126125865D02*
G01*
X-156423269Y-125086635D01*
X-155643847Y-124636635D01*
X-155043847Y-125675865D01*
X-155823269Y-126125865D01*
G37*
G36*
X-158681153Y-127775865D02*
G01*
X-159281153Y-126736635D01*
X-158501731Y-126286635D01*
X-157901731Y-127325865D01*
X-158681153Y-127775865D01*
G37*
D18*
X-139700000Y-67468750D03*
X-143000000Y-67468750D03*
D19*
X-184662500Y-35612500D03*
X-180462500Y-34112500D03*
X-180462500Y-30112500D03*
X-180462500Y-27112500D03*
D20*
X-182562500Y-32312500D03*
X-182562500Y-25312500D03*
X-167600000Y-71060000D03*
D21*
X-164100000Y-67360000D03*
D16*
X-165100000Y-69850000D03*
X-170100000Y-69850000D03*
D21*
X-171110000Y-67360000D03*
D22*
X-160000000Y-69850000D03*
X-181750000Y-69850000D03*
D14*
X-101490000Y-73197500D03*
D15*
X-104030000Y-78277500D03*
D14*
X-107840000Y-75737500D03*
D16*
X-109110000Y-78277500D03*
X-98950000Y-78277500D03*
D14*
X-101435000Y-130651250D03*
D15*
X-103975000Y-135731250D03*
D14*
X-107785000Y-133191250D03*
D16*
X-109055000Y-135731250D03*
X-98895000Y-135731250D03*
D14*
X-82385000Y-111601250D03*
D15*
X-84925000Y-116681250D03*
D14*
X-88735000Y-114141250D03*
D16*
X-90005000Y-116681250D03*
X-79845000Y-116681250D03*
D14*
X-63335000Y-130651250D03*
D15*
X-65875000Y-135731250D03*
D14*
X-69685000Y-133191250D03*
D16*
X-70955000Y-135731250D03*
X-60795000Y-135731250D03*
D14*
X-63303750Y-95578000D03*
D15*
X-65843750Y-100658000D03*
D14*
X-69653750Y-98118000D03*
D16*
X-70923750Y-100658000D03*
X-60763750Y-100658000D03*
D14*
X-63303750Y-76528000D03*
D15*
X-65843750Y-81608000D03*
D14*
X-69653750Y-79068000D03*
D16*
X-70923750Y-81608000D03*
X-60763750Y-81608000D03*
D14*
X-63303750Y-38428000D03*
D15*
X-65843750Y-43508000D03*
D14*
X-69653750Y-40968000D03*
D16*
X-70923750Y-43508000D03*
X-60763750Y-43508000D03*
D14*
X-25241250Y-111601250D03*
D15*
X-27781250Y-116681250D03*
D14*
X-31591250Y-114141250D03*
D16*
X-32861250Y-116681250D03*
X-22701250Y-116681250D03*
D12*
G36*
X-138360769Y-115807115D02*
G01*
X-138960769Y-114767885D01*
X-138181347Y-114317885D01*
X-137581347Y-115357115D01*
X-138360769Y-115807115D01*
G37*
G36*
X-141218653Y-117457115D02*
G01*
X-141818653Y-116417885D01*
X-141039231Y-115967885D01*
X-140439231Y-117007115D01*
X-141218653Y-117457115D01*
G37*
D23*
X-96043750Y-139637500D03*
X-96043750Y-142937500D03*
X-77787500Y-139637500D03*
X-77787500Y-142937500D03*
X-73818750Y-114237500D03*
X-73818750Y-117537500D03*
X-54768750Y-133287500D03*
X-54768750Y-136587500D03*
X-40481250Y-133287500D03*
X-40481250Y-136587500D03*
D12*
G36*
X-164554519Y-109457115D02*
G01*
X-165154519Y-108417885D01*
X-164375097Y-107967885D01*
X-163775097Y-109007115D01*
X-164554519Y-109457115D01*
G37*
G36*
X-167412403Y-111107115D02*
G01*
X-168012403Y-110067885D01*
X-167232981Y-109617885D01*
X-166632981Y-110657115D01*
X-167412403Y-111107115D01*
G37*
D18*
X-121381250Y-104775000D03*
X-124681250Y-104775000D03*
X-102380000Y-105265000D03*
X-105680000Y-105265000D03*
X-83230000Y-102040000D03*
X-86530000Y-102040000D03*
X-64230000Y-108640000D03*
X-67530000Y-108640000D03*
X-45181250Y-124618750D03*
X-48481250Y-124618750D03*
X-26131250Y-124618750D03*
X-29431250Y-124618750D03*
X-144400000Y-95250000D03*
X-147700000Y-95250000D03*
X-121381250Y-86518750D03*
X-124681250Y-86518750D03*
X-102380000Y-86215000D03*
X-105680000Y-86215000D03*
X-83230000Y-82990000D03*
X-86530000Y-82990000D03*
X-64230000Y-89590000D03*
X-67530000Y-89590000D03*
X-45181250Y-105568750D03*
X-48481250Y-105568750D03*
X-26131250Y-105568750D03*
X-29431250Y-105568750D03*
X-121381250Y-67468750D03*
X-124681250Y-67468750D03*
X-102380000Y-67165000D03*
X-105680000Y-67165000D03*
X-83230000Y-63940000D03*
X-86530000Y-63940000D03*
X-64230000Y-70540000D03*
X-67530000Y-70540000D03*
X-45181250Y-86518750D03*
X-48481250Y-86518750D03*
X-26131250Y-86518750D03*
X-29431250Y-86518750D03*
X-140431250Y-48418750D03*
X-143731250Y-48418750D03*
X-121381250Y-48418750D03*
X-124681250Y-48418750D03*
X-102380000Y-48115000D03*
X-105680000Y-48115000D03*
X-83230000Y-44890000D03*
X-86530000Y-44890000D03*
X-64230000Y-51490000D03*
X-67530000Y-51490000D03*
X-45181250Y-67468750D03*
X-48481250Y-67468750D03*
X-26131250Y-67468750D03*
X-29431250Y-67468750D03*
D14*
X-147161250Y-80803750D03*
D15*
X-142081250Y-83343750D03*
D14*
X-144621250Y-87153750D03*
D16*
X-142081250Y-88423750D03*
X-142081250Y-78263750D03*
D14*
X-120590000Y-54451250D03*
D15*
X-123130000Y-59531250D03*
D14*
X-126940000Y-56991250D03*
D16*
X-128210000Y-59531250D03*
X-118050000Y-59531250D03*
D14*
X-63303750Y-57478000D03*
D15*
X-65843750Y-62558000D03*
D14*
X-69653750Y-60018000D03*
D16*
X-70923750Y-62558000D03*
X-60763750Y-62558000D03*
D14*
X-120590000Y-35401250D03*
D15*
X-123130000Y-40481250D03*
D14*
X-126940000Y-37941250D03*
D16*
X-128210000Y-40481250D03*
X-118050000Y-40481250D03*
D24*
X-177800000Y-70802500D03*
X-177800000Y-65722500D03*
X-175418750Y-65722500D03*
X-175418750Y-70802500D03*
X-165417500Y-61118750D03*
X-167957500Y-61118750D03*
X-170497500Y-61118750D03*
X-173037500Y-61118750D03*
D25*
X-176688750Y-27305000D03*
D26*
X-176688750Y-29845000D03*
X-176688750Y-32385000D03*
X-176688750Y-34925000D03*
X-176688750Y-37465000D03*
X-176688750Y-40005000D03*
X-176688750Y-42545000D03*
X-176688750Y-45085000D03*
X-176688750Y-47625000D03*
X-176688750Y-50165000D03*
X-176688750Y-52705000D03*
X-161448750Y-55245000D03*
X-161448750Y-52705000D03*
X-161448750Y-50165000D03*
X-161448750Y-47625000D03*
X-161448750Y-45085000D03*
X-161448750Y-42545000D03*
X-161448750Y-40005000D03*
X-161448750Y-37465000D03*
X-161448750Y-34925000D03*
X-161448750Y-32385000D03*
X-161448750Y-29845000D03*
X-176688750Y-55245000D03*
X-161448750Y-27305000D03*
D14*
X-143781909Y-130515295D03*
D15*
X-138112500Y-130175000D03*
D14*
X-138407205Y-134744557D03*
D16*
X-135572500Y-134574409D03*
X-140652500Y-125775591D03*
D14*
X-82321500Y-130663250D03*
D15*
X-84861500Y-135743250D03*
D14*
X-88671500Y-133203250D03*
D16*
X-89941500Y-135743250D03*
X-79781500Y-135743250D03*
D14*
X-157502795Y-107836841D03*
D15*
X-157162500Y-113506250D03*
D14*
X-161732057Y-113211545D03*
D16*
X-161561909Y-116046250D03*
X-152763091Y-110966250D03*
D14*
X-120590000Y-92551250D03*
D15*
X-123130000Y-97631250D03*
D14*
X-126940000Y-95091250D03*
D16*
X-128210000Y-97631250D03*
X-118050000Y-97631250D03*
D14*
X-101490000Y-92247500D03*
D15*
X-104030000Y-97327500D03*
D14*
X-107840000Y-94787500D03*
D16*
X-109110000Y-97327500D03*
X-98950000Y-97327500D03*
D14*
X-82340000Y-88990750D03*
D15*
X-84880000Y-94070750D03*
D14*
X-88690000Y-91530750D03*
D16*
X-89960000Y-94070750D03*
X-79800000Y-94070750D03*
D14*
X-44291250Y-111601250D03*
D15*
X-46831250Y-116681250D03*
D14*
X-50641250Y-114141250D03*
D16*
X-51911250Y-116681250D03*
X-41751250Y-116681250D03*
D14*
X-120590000Y-73501250D03*
D15*
X-123130000Y-78581250D03*
D14*
X-126940000Y-76041250D03*
D16*
X-128210000Y-78581250D03*
X-118050000Y-78581250D03*
D14*
X-82340000Y-69940750D03*
D15*
X-84880000Y-75020750D03*
D14*
X-88690000Y-72480750D03*
D16*
X-89960000Y-75020750D03*
X-79800000Y-75020750D03*
D14*
X-44291250Y-92551250D03*
D15*
X-46831250Y-97631250D03*
D14*
X-50641250Y-95091250D03*
D16*
X-51911250Y-97631250D03*
X-41751250Y-97631250D03*
D14*
X-25241250Y-92551250D03*
D15*
X-27781250Y-97631250D03*
D14*
X-31591250Y-95091250D03*
D16*
X-32861250Y-97631250D03*
X-22701250Y-97631250D03*
D14*
X-101490000Y-54147500D03*
D15*
X-104030000Y-59227500D03*
D14*
X-107840000Y-56687500D03*
D16*
X-109110000Y-59227500D03*
X-98950000Y-59227500D03*
D14*
X-82340000Y-50890750D03*
D15*
X-84880000Y-55970750D03*
D14*
X-88690000Y-53430750D03*
D16*
X-89960000Y-55970750D03*
X-79800000Y-55970750D03*
D14*
X-44291250Y-73501250D03*
D15*
X-46831250Y-78581250D03*
D14*
X-50641250Y-76041250D03*
D16*
X-51911250Y-78581250D03*
X-41751250Y-78581250D03*
D14*
X-25241250Y-73501250D03*
D15*
X-27781250Y-78581250D03*
D14*
X-31591250Y-76041250D03*
D16*
X-32861250Y-78581250D03*
X-22701250Y-78581250D03*
D14*
X-139541250Y-35401250D03*
D15*
X-142081250Y-40481250D03*
D14*
X-145891250Y-37941250D03*
D16*
X-147161250Y-40481250D03*
X-137001250Y-40481250D03*
D14*
X-101490000Y-35097500D03*
D15*
X-104030000Y-40177500D03*
D14*
X-107840000Y-37637500D03*
D16*
X-109110000Y-40177500D03*
X-98950000Y-40177500D03*
D14*
X-82340000Y-31840750D03*
D15*
X-84880000Y-36920750D03*
D14*
X-88690000Y-34380750D03*
D16*
X-89960000Y-36920750D03*
X-79800000Y-36920750D03*
D14*
X-44291250Y-54451250D03*
D15*
X-46831250Y-59531250D03*
D14*
X-50641250Y-56991250D03*
D16*
X-51911250Y-59531250D03*
X-41751250Y-59531250D03*
D14*
X-25241250Y-54451250D03*
D15*
X-27781250Y-59531250D03*
D14*
X-31591250Y-56991250D03*
D16*
X-32861250Y-59531250D03*
X-22701250Y-59531250D03*
M02*
