G04 #@! TF.GenerationSoftware,KiCad,Pcbnew,5.1.10*
G04 #@! TF.CreationDate,2021-08-07T14:45:30-04:00*
G04 #@! TF.ProjectId,v05_right,7630355f-7269-4676-9874-2e6b69636164,rev?*
G04 #@! TF.SameCoordinates,Original*
G04 #@! TF.FileFunction,Legend,Top*
G04 #@! TF.FilePolarity,Positive*
%FSLAX46Y46*%
G04 Gerber Fmt 4.6, Leading zero omitted, Abs format (unit mm)*
G04 Created by KiCad (PCBNEW 5.1.10) date 2021-08-07 14:45:30*
%MOMM*%
%LPD*%
G01*
G04 APERTURE LIST*
%ADD10C,0.300000*%
%ADD11C,0.150000*%
%ADD12C,0.120000*%
%ADD13C,0.381000*%
%ADD14C,3.987800*%
%ADD15C,1.750000*%
%ADD16C,3.048000*%
%ADD17C,1.200000*%
%ADD18C,2.100000*%
%ADD19C,2.200000*%
%ADD20C,1.397000*%
%ADD21R,1.752600X1.752600*%
%ADD22C,1.752600*%
G04 APERTURE END LIST*
D10*
X-118577678Y-119741071D02*
X-119077678Y-119026785D01*
X-119434821Y-119741071D02*
X-119434821Y-118241071D01*
X-118863392Y-118241071D01*
X-118720535Y-118312500D01*
X-118649107Y-118383928D01*
X-118577678Y-118526785D01*
X-118577678Y-118741071D01*
X-118649107Y-118883928D01*
X-118720535Y-118955357D01*
X-118863392Y-119026785D01*
X-119434821Y-119026785D01*
X-117934821Y-119741071D02*
X-117934821Y-118241071D01*
X-116434821Y-118312500D02*
X-116577678Y-118241071D01*
X-116791964Y-118241071D01*
X-117006250Y-118312500D01*
X-117149107Y-118455357D01*
X-117220535Y-118598214D01*
X-117291964Y-118883928D01*
X-117291964Y-119098214D01*
X-117220535Y-119383928D01*
X-117149107Y-119526785D01*
X-117006250Y-119669642D01*
X-116791964Y-119741071D01*
X-116649107Y-119741071D01*
X-116434821Y-119669642D01*
X-116363392Y-119598214D01*
X-116363392Y-119098214D01*
X-116649107Y-119098214D01*
X-115720535Y-119741071D02*
X-115720535Y-118241071D01*
X-115720535Y-118955357D02*
X-114863392Y-118955357D01*
X-114863392Y-119741071D02*
X-114863392Y-118241071D01*
X-114363392Y-118241071D02*
X-113506250Y-118241071D01*
X-113934821Y-119741071D02*
X-113934821Y-118241071D01*
X-111934821Y-119669642D02*
X-111720535Y-119741071D01*
X-111363392Y-119741071D01*
X-111220535Y-119669642D01*
X-111149107Y-119598214D01*
X-111077678Y-119455357D01*
X-111077678Y-119312500D01*
X-111149107Y-119169642D01*
X-111220535Y-119098214D01*
X-111363392Y-119026785D01*
X-111649107Y-118955357D01*
X-111791964Y-118883928D01*
X-111863392Y-118812500D01*
X-111934821Y-118669642D01*
X-111934821Y-118526785D01*
X-111863392Y-118383928D01*
X-111791964Y-118312500D01*
X-111649107Y-118241071D01*
X-111291964Y-118241071D01*
X-111077678Y-118312500D01*
X-110434821Y-119741071D02*
X-110434821Y-118241071D01*
X-109720535Y-119741071D02*
X-109720535Y-118241071D01*
X-109363392Y-118241071D01*
X-109149107Y-118312500D01*
X-109006250Y-118455357D01*
X-108934821Y-118598214D01*
X-108863392Y-118883928D01*
X-108863392Y-119098214D01*
X-108934821Y-119383928D01*
X-109006250Y-119526785D01*
X-109149107Y-119669642D01*
X-109363392Y-119741071D01*
X-109720535Y-119741071D01*
X-108220535Y-118955357D02*
X-107720535Y-118955357D01*
X-107506250Y-119741071D02*
X-108220535Y-119741071D01*
X-108220535Y-118241071D01*
X-107506250Y-118241071D01*
D11*
X-120863392Y-116244642D02*
X-120911011Y-116292261D01*
X-121053869Y-116339880D01*
X-121149107Y-116339880D01*
X-121291964Y-116292261D01*
X-121387202Y-116197023D01*
X-121434821Y-116101785D01*
X-121482440Y-115911309D01*
X-121482440Y-115768452D01*
X-121434821Y-115577976D01*
X-121387202Y-115482738D01*
X-121291964Y-115387500D01*
X-121149107Y-115339880D01*
X-121053869Y-115339880D01*
X-120911011Y-115387500D01*
X-120863392Y-115435119D01*
X-120006250Y-115673214D02*
X-120006250Y-116339880D01*
X-120434821Y-115673214D02*
X-120434821Y-116197023D01*
X-120387202Y-116292261D01*
X-120291964Y-116339880D01*
X-120149107Y-116339880D01*
X-120053869Y-116292261D01*
X-120006250Y-116244642D01*
X-119577678Y-116292261D02*
X-119482440Y-116339880D01*
X-119291964Y-116339880D01*
X-119196726Y-116292261D01*
X-119149107Y-116197023D01*
X-119149107Y-116149404D01*
X-119196726Y-116054166D01*
X-119291964Y-116006547D01*
X-119434821Y-116006547D01*
X-119530059Y-115958928D01*
X-119577678Y-115863690D01*
X-119577678Y-115816071D01*
X-119530059Y-115720833D01*
X-119434821Y-115673214D01*
X-119291964Y-115673214D01*
X-119196726Y-115720833D01*
X-118863392Y-115673214D02*
X-118482440Y-115673214D01*
X-118720535Y-115339880D02*
X-118720535Y-116197023D01*
X-118672916Y-116292261D01*
X-118577678Y-116339880D01*
X-118482440Y-116339880D01*
X-118006250Y-116339880D02*
X-118101488Y-116292261D01*
X-118149107Y-116244642D01*
X-118196726Y-116149404D01*
X-118196726Y-115863690D01*
X-118149107Y-115768452D01*
X-118101488Y-115720833D01*
X-118006250Y-115673214D01*
X-117863392Y-115673214D01*
X-117768154Y-115720833D01*
X-117720535Y-115768452D01*
X-117672916Y-115863690D01*
X-117672916Y-116149404D01*
X-117720535Y-116244642D01*
X-117768154Y-116292261D01*
X-117863392Y-116339880D01*
X-118006250Y-116339880D01*
X-117244345Y-116339880D02*
X-117244345Y-115673214D01*
X-117244345Y-115768452D02*
X-117196726Y-115720833D01*
X-117101488Y-115673214D01*
X-116958630Y-115673214D01*
X-116863392Y-115720833D01*
X-116815773Y-115816071D01*
X-116815773Y-116339880D01*
X-116815773Y-115816071D02*
X-116768154Y-115720833D01*
X-116672916Y-115673214D01*
X-116530059Y-115673214D01*
X-116434821Y-115720833D01*
X-116387202Y-115816071D01*
X-116387202Y-116339880D01*
X-114815773Y-115816071D02*
X-114672916Y-115863690D01*
X-114625297Y-115911309D01*
X-114577678Y-116006547D01*
X-114577678Y-116149404D01*
X-114625297Y-116244642D01*
X-114672916Y-116292261D01*
X-114768154Y-116339880D01*
X-115149107Y-116339880D01*
X-115149107Y-115339880D01*
X-114815773Y-115339880D01*
X-114720535Y-115387500D01*
X-114672916Y-115435119D01*
X-114625297Y-115530357D01*
X-114625297Y-115625595D01*
X-114672916Y-115720833D01*
X-114720535Y-115768452D01*
X-114815773Y-115816071D01*
X-115149107Y-115816071D01*
X-114006250Y-116339880D02*
X-114101488Y-116292261D01*
X-114149107Y-116244642D01*
X-114196726Y-116149404D01*
X-114196726Y-115863690D01*
X-114149107Y-115768452D01*
X-114101488Y-115720833D01*
X-114006250Y-115673214D01*
X-113863392Y-115673214D01*
X-113768154Y-115720833D01*
X-113720535Y-115768452D01*
X-113672916Y-115863690D01*
X-113672916Y-116149404D01*
X-113720535Y-116244642D01*
X-113768154Y-116292261D01*
X-113863392Y-116339880D01*
X-114006250Y-116339880D01*
X-112815773Y-115673214D02*
X-112815773Y-116339880D01*
X-113244345Y-115673214D02*
X-113244345Y-116197023D01*
X-113196726Y-116292261D01*
X-113101488Y-116339880D01*
X-112958630Y-116339880D01*
X-112863392Y-116292261D01*
X-112815773Y-116244642D01*
X-112339583Y-116339880D02*
X-112339583Y-115673214D01*
X-112339583Y-115863690D02*
X-112291964Y-115768452D01*
X-112244345Y-115720833D01*
X-112149107Y-115673214D01*
X-112053869Y-115673214D01*
X-111720535Y-116339880D02*
X-111720535Y-115339880D01*
X-111720535Y-115720833D02*
X-111625297Y-115673214D01*
X-111434821Y-115673214D01*
X-111339583Y-115720833D01*
X-111291964Y-115768452D01*
X-111244345Y-115863690D01*
X-111244345Y-116149404D01*
X-111291964Y-116244642D01*
X-111339583Y-116292261D01*
X-111434821Y-116339880D01*
X-111625297Y-116339880D01*
X-111720535Y-116292261D01*
X-110672916Y-116339880D02*
X-110768154Y-116292261D01*
X-110815773Y-116244642D01*
X-110863392Y-116149404D01*
X-110863392Y-115863690D01*
X-110815773Y-115768452D01*
X-110768154Y-115720833D01*
X-110672916Y-115673214D01*
X-110530059Y-115673214D01*
X-110434821Y-115720833D01*
X-110387202Y-115768452D01*
X-110339583Y-115863690D01*
X-110339583Y-116149404D01*
X-110387202Y-116244642D01*
X-110434821Y-116292261D01*
X-110530059Y-116339880D01*
X-110672916Y-116339880D01*
X-109911011Y-115673214D02*
X-109911011Y-116339880D01*
X-109911011Y-115768452D02*
X-109863392Y-115720833D01*
X-109768154Y-115673214D01*
X-109625297Y-115673214D01*
X-109530059Y-115720833D01*
X-109482440Y-115816071D01*
X-109482440Y-116339880D01*
X-108339583Y-115673214D02*
X-108101488Y-116339880D01*
X-107863392Y-115673214D01*
X-106958630Y-116339880D02*
X-107530059Y-116339880D01*
X-107244345Y-116339880D02*
X-107244345Y-115339880D01*
X-107339583Y-115482738D01*
X-107434821Y-115577976D01*
X-107530059Y-115625595D01*
X-106530059Y-116244642D02*
X-106482440Y-116292261D01*
X-106530059Y-116339880D01*
X-106577678Y-116292261D01*
X-106530059Y-116244642D01*
X-106530059Y-116339880D01*
X-105863392Y-115339880D02*
X-105768154Y-115339880D01*
X-105672916Y-115387500D01*
X-105625297Y-115435119D01*
X-105577678Y-115530357D01*
X-105530059Y-115720833D01*
X-105530059Y-115958928D01*
X-105577678Y-116149404D01*
X-105625297Y-116244642D01*
X-105672916Y-116292261D01*
X-105768154Y-116339880D01*
X-105863392Y-116339880D01*
X-105958630Y-116292261D01*
X-106006250Y-116244642D01*
X-106053869Y-116149404D01*
X-106101488Y-115958928D01*
X-106101488Y-115720833D01*
X-106053869Y-115530357D01*
X-106006250Y-115435119D01*
X-105958630Y-115387500D01*
X-105863392Y-115339880D01*
X-185462500Y-23962500D02*
X-179662500Y-23962500D01*
X-179662500Y-23962500D02*
X-179662500Y-35712500D01*
X-179662500Y-35712500D02*
X-185462500Y-35712500D01*
X-185462500Y-35712500D02*
X-185462500Y-23962500D01*
D12*
X-164260000Y-68880000D02*
X-164260000Y-68650000D01*
X-163740000Y-72550000D02*
X-171460000Y-72550000D01*
X-171460000Y-72550000D02*
X-171460000Y-68650000D01*
X-163740000Y-72550000D02*
X-163740000Y-68650000D01*
X-170940000Y-68880000D02*
X-170940000Y-68650000D01*
X-170400000Y-68880000D02*
X-170940000Y-68880000D01*
X-164260000Y-68880000D02*
X-164800000Y-68880000D01*
X-165900000Y-68880000D02*
X-169300000Y-68880000D01*
D11*
X-176799240Y-66761360D02*
X-178800760Y-66761360D01*
X-178800760Y-66761360D02*
X-178800760Y-69763640D01*
X-178800760Y-69763640D02*
X-176799240Y-69763640D01*
X-176799240Y-69763640D02*
X-176799240Y-66761360D01*
X-176419510Y-69763640D02*
X-174417990Y-69763640D01*
X-174417990Y-69763640D02*
X-174417990Y-66761360D01*
X-174417990Y-66761360D02*
X-176419510Y-66761360D01*
X-176419510Y-66761360D02*
X-176419510Y-69763640D01*
X-174307500Y-62388750D02*
X-164147500Y-62388750D01*
X-174307500Y-59848750D02*
X-164147500Y-59848750D01*
X-164147500Y-59848750D02*
X-164147500Y-62388750D01*
X-174307500Y-62388750D02*
X-174307500Y-59848750D01*
D13*
X-177958750Y-26035000D02*
X-177958750Y-56515000D01*
X-177958750Y-56515000D02*
X-160178750Y-56515000D01*
X-160178750Y-56515000D02*
X-160178750Y-26035000D01*
X-175418750Y-26035000D02*
X-175418750Y-28575000D01*
X-175418750Y-28575000D02*
X-177958750Y-28575000D01*
D11*
G36*
X-164137182Y-31914360D02*
G01*
X-164137182Y-32214360D01*
X-164237182Y-32214360D01*
X-164237182Y-31914360D01*
X-164137182Y-31914360D01*
G37*
X-164137182Y-31914360D02*
X-164137182Y-32214360D01*
X-164237182Y-32214360D01*
X-164237182Y-31914360D01*
X-164137182Y-31914360D01*
G36*
X-164337182Y-32314360D02*
G01*
X-164337182Y-32414360D01*
X-164437182Y-32414360D01*
X-164437182Y-32314360D01*
X-164337182Y-32314360D01*
G37*
X-164337182Y-32314360D02*
X-164337182Y-32414360D01*
X-164437182Y-32414360D01*
X-164437182Y-32314360D01*
X-164337182Y-32314360D01*
G36*
X-164137182Y-31914360D02*
G01*
X-164137182Y-32014360D01*
X-164637182Y-32014360D01*
X-164637182Y-31914360D01*
X-164137182Y-31914360D01*
G37*
X-164137182Y-31914360D02*
X-164137182Y-32014360D01*
X-164637182Y-32014360D01*
X-164637182Y-31914360D01*
X-164137182Y-31914360D01*
G36*
X-164537182Y-31914360D02*
G01*
X-164537182Y-32714360D01*
X-164637182Y-32714360D01*
X-164637182Y-31914360D01*
X-164537182Y-31914360D01*
G37*
X-164537182Y-31914360D02*
X-164537182Y-32714360D01*
X-164637182Y-32714360D01*
X-164637182Y-31914360D01*
X-164537182Y-31914360D01*
G36*
X-164137182Y-32514360D02*
G01*
X-164137182Y-32714360D01*
X-164237182Y-32714360D01*
X-164237182Y-32514360D01*
X-164137182Y-32514360D01*
G37*
X-164137182Y-32514360D02*
X-164137182Y-32714360D01*
X-164237182Y-32714360D01*
X-164237182Y-32514360D01*
X-164137182Y-32514360D01*
D13*
X-160178750Y-26035000D02*
X-160178750Y-23495000D01*
X-160178750Y-23495000D02*
X-177958750Y-23495000D01*
X-177958750Y-23495000D02*
X-177958750Y-26035000D01*
X-175418750Y-26035000D02*
X-177958750Y-26035000D01*
D11*
X-185074404Y-29714880D02*
X-184502976Y-29714880D01*
X-184788690Y-30714880D02*
X-184788690Y-29714880D01*
X-183598214Y-30714880D02*
X-183931547Y-30238690D01*
X-184169642Y-30714880D02*
X-184169642Y-29714880D01*
X-183788690Y-29714880D01*
X-183693452Y-29762500D01*
X-183645833Y-29810119D01*
X-183598214Y-29905357D01*
X-183598214Y-30048214D01*
X-183645833Y-30143452D01*
X-183693452Y-30191071D01*
X-183788690Y-30238690D01*
X-184169642Y-30238690D01*
X-182598214Y-30714880D02*
X-182931547Y-30238690D01*
X-183169642Y-30714880D02*
X-183169642Y-29714880D01*
X-182788690Y-29714880D01*
X-182693452Y-29762500D01*
X-182645833Y-29810119D01*
X-182598214Y-29905357D01*
X-182598214Y-30048214D01*
X-182645833Y-30143452D01*
X-182693452Y-30191071D01*
X-182788690Y-30238690D01*
X-183169642Y-30238690D01*
X-182217261Y-30667261D02*
X-182074404Y-30714880D01*
X-181836309Y-30714880D01*
X-181741071Y-30667261D01*
X-181693452Y-30619642D01*
X-181645833Y-30524404D01*
X-181645833Y-30429166D01*
X-181693452Y-30333928D01*
X-181741071Y-30286309D01*
X-181836309Y-30238690D01*
X-182026785Y-30191071D01*
X-182122023Y-30143452D01*
X-182169642Y-30095833D01*
X-182217261Y-30000595D01*
X-182217261Y-29905357D01*
X-182169642Y-29810119D01*
X-182122023Y-29762500D01*
X-182026785Y-29714880D01*
X-181788690Y-29714880D01*
X-181645833Y-29762500D01*
X-168933333Y-68574761D02*
X-168790476Y-68622380D01*
X-168552380Y-68622380D01*
X-168457142Y-68574761D01*
X-168409523Y-68527142D01*
X-168361904Y-68431904D01*
X-168361904Y-68336666D01*
X-168409523Y-68241428D01*
X-168457142Y-68193809D01*
X-168552380Y-68146190D01*
X-168742857Y-68098571D01*
X-168838095Y-68050952D01*
X-168885714Y-68003333D01*
X-168933333Y-67908095D01*
X-168933333Y-67812857D01*
X-168885714Y-67717619D01*
X-168838095Y-67670000D01*
X-168742857Y-67622380D01*
X-168504761Y-67622380D01*
X-168361904Y-67670000D01*
X-168028571Y-67622380D02*
X-167790476Y-68622380D01*
X-167600000Y-67908095D01*
X-167409523Y-68622380D01*
X-167171428Y-67622380D01*
X-166266666Y-68622380D02*
X-166838095Y-68622380D01*
X-166552380Y-68622380D02*
X-166552380Y-67622380D01*
X-166647619Y-67765238D01*
X-166742857Y-67860476D01*
X-166838095Y-67908095D01*
X-177438095Y-68395833D02*
X-177819047Y-68662500D01*
X-177438095Y-68852976D02*
X-178238095Y-68852976D01*
X-178238095Y-68548214D01*
X-178200000Y-68472023D01*
X-178161904Y-68433928D01*
X-178085714Y-68395833D01*
X-177971428Y-68395833D01*
X-177895238Y-68433928D01*
X-177857142Y-68472023D01*
X-177819047Y-68548214D01*
X-177819047Y-68852976D01*
X-178161904Y-68091071D02*
X-178200000Y-68052976D01*
X-178238095Y-67976785D01*
X-178238095Y-67786309D01*
X-178200000Y-67710119D01*
X-178161904Y-67672023D01*
X-178085714Y-67633928D01*
X-178009523Y-67633928D01*
X-177895238Y-67672023D01*
X-177438095Y-68129166D01*
X-177438095Y-67633928D01*
X-175056845Y-68395833D02*
X-175437797Y-68662500D01*
X-175056845Y-68852976D02*
X-175856845Y-68852976D01*
X-175856845Y-68548214D01*
X-175818750Y-68472023D01*
X-175780654Y-68433928D01*
X-175704464Y-68395833D01*
X-175590178Y-68395833D01*
X-175513988Y-68433928D01*
X-175475892Y-68472023D01*
X-175437797Y-68548214D01*
X-175437797Y-68852976D01*
X-175056845Y-67633928D02*
X-175056845Y-68091071D01*
X-175056845Y-67862500D02*
X-175856845Y-67862500D01*
X-175742559Y-67938690D01*
X-175666369Y-68014880D01*
X-175628273Y-68091071D01*
X-163931559Y-52647857D02*
X-163817273Y-52685952D01*
X-163779178Y-52724047D01*
X-163741083Y-52800238D01*
X-163741083Y-52914523D01*
X-163779178Y-52990714D01*
X-163817273Y-53028809D01*
X-163893464Y-53066904D01*
X-164198226Y-53066904D01*
X-164198226Y-52266904D01*
X-163931559Y-52266904D01*
X-163855369Y-52305000D01*
X-163817273Y-52343095D01*
X-163779178Y-52419285D01*
X-163779178Y-52495476D01*
X-163817273Y-52571666D01*
X-163855369Y-52609761D01*
X-163931559Y-52647857D01*
X-164198226Y-52647857D01*
X-163436321Y-52343095D02*
X-163398226Y-52305000D01*
X-163322035Y-52266904D01*
X-163131559Y-52266904D01*
X-163055369Y-52305000D01*
X-163017273Y-52343095D01*
X-162979178Y-52419285D01*
X-162979178Y-52495476D01*
X-163017273Y-52609761D01*
X-163474416Y-53066904D01*
X-162979178Y-53066904D01*
X-163874416Y-45027857D02*
X-164141083Y-45027857D01*
X-164141083Y-45446904D02*
X-164141083Y-44646904D01*
X-163760130Y-44646904D01*
X-163531559Y-44646904D02*
X-162998226Y-44646904D01*
X-163341083Y-45446904D01*
X-163874416Y-42487857D02*
X-164141083Y-42487857D01*
X-164141083Y-42906904D02*
X-164141083Y-42106904D01*
X-163760130Y-42106904D01*
X-163112511Y-42106904D02*
X-163264892Y-42106904D01*
X-163341083Y-42145000D01*
X-163379178Y-42183095D01*
X-163455369Y-42297380D01*
X-163493464Y-42449761D01*
X-163493464Y-42754523D01*
X-163455369Y-42830714D01*
X-163417273Y-42868809D01*
X-163341083Y-42906904D01*
X-163188702Y-42906904D01*
X-163112511Y-42868809D01*
X-163074416Y-42830714D01*
X-163036321Y-42754523D01*
X-163036321Y-42564047D01*
X-163074416Y-42487857D01*
X-163112511Y-42449761D01*
X-163188702Y-42411666D01*
X-163341083Y-42411666D01*
X-163417273Y-42449761D01*
X-163455369Y-42487857D01*
X-163493464Y-42564047D01*
X-163874416Y-39947857D02*
X-164141083Y-39947857D01*
X-164141083Y-40366904D02*
X-164141083Y-39566904D01*
X-163760130Y-39566904D01*
X-163074416Y-39566904D02*
X-163455369Y-39566904D01*
X-163493464Y-39947857D01*
X-163455369Y-39909761D01*
X-163379178Y-39871666D01*
X-163188702Y-39871666D01*
X-163112511Y-39909761D01*
X-163074416Y-39947857D01*
X-163036321Y-40024047D01*
X-163036321Y-40214523D01*
X-163074416Y-40290714D01*
X-163112511Y-40328809D01*
X-163188702Y-40366904D01*
X-163379178Y-40366904D01*
X-163455369Y-40328809D01*
X-163493464Y-40290714D01*
X-164160130Y-27666904D02*
X-164426797Y-27285952D01*
X-164617273Y-27666904D02*
X-164617273Y-26866904D01*
X-164312511Y-26866904D01*
X-164236321Y-26905000D01*
X-164198226Y-26943095D01*
X-164160130Y-27019285D01*
X-164160130Y-27133571D01*
X-164198226Y-27209761D01*
X-164236321Y-27247857D01*
X-164312511Y-27285952D01*
X-164617273Y-27285952D01*
X-163855369Y-27438333D02*
X-163474416Y-27438333D01*
X-163931559Y-27666904D02*
X-163664892Y-26866904D01*
X-163398226Y-27666904D01*
X-163207750Y-26866904D02*
X-163017273Y-27666904D01*
X-162864892Y-27095476D01*
X-162712511Y-27666904D01*
X-162522035Y-26866904D01*
X-164217273Y-29445000D02*
X-164293464Y-29406904D01*
X-164407750Y-29406904D01*
X-164522035Y-29445000D01*
X-164598226Y-29521190D01*
X-164636321Y-29597380D01*
X-164674416Y-29749761D01*
X-164674416Y-29864047D01*
X-164636321Y-30016428D01*
X-164598226Y-30092619D01*
X-164522035Y-30168809D01*
X-164407750Y-30206904D01*
X-164331559Y-30206904D01*
X-164217273Y-30168809D01*
X-164179178Y-30130714D01*
X-164179178Y-29864047D01*
X-164331559Y-29864047D01*
X-163836321Y-30206904D02*
X-163836321Y-29406904D01*
X-163379178Y-30206904D01*
X-163379178Y-29406904D01*
X-162998226Y-30206904D02*
X-162998226Y-29406904D01*
X-162807750Y-29406904D01*
X-162693464Y-29445000D01*
X-162617273Y-29521190D01*
X-162579178Y-29597380D01*
X-162541083Y-29749761D01*
X-162541083Y-29864047D01*
X-162579178Y-30016428D01*
X-162617273Y-30092619D01*
X-162693464Y-30168809D01*
X-162807750Y-30206904D01*
X-162998226Y-30206904D01*
X-163868963Y-32678809D02*
X-163754677Y-32716904D01*
X-163564201Y-32716904D01*
X-163488010Y-32678809D01*
X-163449915Y-32640714D01*
X-163411820Y-32564523D01*
X-163411820Y-32488333D01*
X-163449915Y-32412142D01*
X-163488010Y-32374047D01*
X-163564201Y-32335952D01*
X-163716582Y-32297857D01*
X-163792772Y-32259761D01*
X-163830868Y-32221666D01*
X-163868963Y-32145476D01*
X-163868963Y-32069285D01*
X-163830868Y-31993095D01*
X-163792772Y-31955000D01*
X-163716582Y-31916904D01*
X-163526106Y-31916904D01*
X-163411820Y-31955000D01*
X-163183249Y-31916904D02*
X-162726106Y-31916904D01*
X-162954677Y-32716904D02*
X-162954677Y-31916904D01*
X-164674416Y-34486904D02*
X-164407750Y-35286904D01*
X-164141083Y-34486904D01*
X-163417273Y-35210714D02*
X-163455369Y-35248809D01*
X-163569654Y-35286904D01*
X-163645845Y-35286904D01*
X-163760130Y-35248809D01*
X-163836321Y-35172619D01*
X-163874416Y-35096428D01*
X-163912511Y-34944047D01*
X-163912511Y-34829761D01*
X-163874416Y-34677380D01*
X-163836321Y-34601190D01*
X-163760130Y-34525000D01*
X-163645845Y-34486904D01*
X-163569654Y-34486904D01*
X-163455369Y-34525000D01*
X-163417273Y-34563095D01*
X-162617273Y-35210714D02*
X-162655369Y-35248809D01*
X-162769654Y-35286904D01*
X-162845845Y-35286904D01*
X-162960130Y-35248809D01*
X-163036321Y-35172619D01*
X-163074416Y-35096428D01*
X-163112511Y-34944047D01*
X-163112511Y-34829761D01*
X-163074416Y-34677380D01*
X-163036321Y-34601190D01*
X-162960130Y-34525000D01*
X-162845845Y-34486904D01*
X-162769654Y-34486904D01*
X-162655369Y-34525000D01*
X-162617273Y-34563095D01*
X-163874416Y-37407857D02*
X-164141083Y-37407857D01*
X-164141083Y-37826904D02*
X-164141083Y-37026904D01*
X-163760130Y-37026904D01*
X-163112511Y-37293571D02*
X-163112511Y-37826904D01*
X-163302988Y-36988809D02*
X-163493464Y-37560238D01*
X-162998226Y-37560238D01*
X-163931559Y-47567857D02*
X-163817273Y-47605952D01*
X-163779178Y-47644047D01*
X-163741083Y-47720238D01*
X-163741083Y-47834523D01*
X-163779178Y-47910714D01*
X-163817273Y-47948809D01*
X-163893464Y-47986904D01*
X-164198226Y-47986904D01*
X-164198226Y-47186904D01*
X-163931559Y-47186904D01*
X-163855369Y-47225000D01*
X-163817273Y-47263095D01*
X-163779178Y-47339285D01*
X-163779178Y-47415476D01*
X-163817273Y-47491666D01*
X-163855369Y-47529761D01*
X-163931559Y-47567857D01*
X-164198226Y-47567857D01*
X-162979178Y-47986904D02*
X-163436321Y-47986904D01*
X-163207750Y-47986904D02*
X-163207750Y-47186904D01*
X-163283940Y-47301190D01*
X-163360130Y-47377380D01*
X-163436321Y-47415476D01*
X-163931559Y-50107857D02*
X-163817273Y-50145952D01*
X-163779178Y-50184047D01*
X-163741083Y-50260238D01*
X-163741083Y-50374523D01*
X-163779178Y-50450714D01*
X-163817273Y-50488809D01*
X-163893464Y-50526904D01*
X-164198226Y-50526904D01*
X-164198226Y-49726904D01*
X-163931559Y-49726904D01*
X-163855369Y-49765000D01*
X-163817273Y-49803095D01*
X-163779178Y-49879285D01*
X-163779178Y-49955476D01*
X-163817273Y-50031666D01*
X-163855369Y-50069761D01*
X-163931559Y-50107857D01*
X-164198226Y-50107857D01*
X-163474416Y-49726904D02*
X-162979178Y-49726904D01*
X-163245845Y-50031666D01*
X-163131559Y-50031666D01*
X-163055369Y-50069761D01*
X-163017273Y-50107857D01*
X-162979178Y-50184047D01*
X-162979178Y-50374523D01*
X-163017273Y-50450714D01*
X-163055369Y-50488809D01*
X-163131559Y-50526904D01*
X-163360130Y-50526904D01*
X-163436321Y-50488809D01*
X-163474416Y-50450714D01*
X-163931559Y-55187857D02*
X-163817273Y-55225952D01*
X-163779178Y-55264047D01*
X-163741083Y-55340238D01*
X-163741083Y-55454523D01*
X-163779178Y-55530714D01*
X-163817273Y-55568809D01*
X-163893464Y-55606904D01*
X-164198226Y-55606904D01*
X-164198226Y-54806904D01*
X-163931559Y-54806904D01*
X-163855369Y-54845000D01*
X-163817273Y-54883095D01*
X-163779178Y-54959285D01*
X-163779178Y-55035476D01*
X-163817273Y-55111666D01*
X-163855369Y-55149761D01*
X-163931559Y-55187857D01*
X-164198226Y-55187857D01*
X-163055369Y-54806904D02*
X-163207750Y-54806904D01*
X-163283940Y-54845000D01*
X-163322035Y-54883095D01*
X-163398226Y-54997380D01*
X-163436321Y-55149761D01*
X-163436321Y-55454523D01*
X-163398226Y-55530714D01*
X-163360130Y-55568809D01*
X-163283940Y-55606904D01*
X-163131559Y-55606904D01*
X-163055369Y-55568809D01*
X-163017273Y-55530714D01*
X-162979178Y-55454523D01*
X-162979178Y-55264047D01*
X-163017273Y-55187857D01*
X-163055369Y-55149761D01*
X-163131559Y-55111666D01*
X-163283940Y-55111666D01*
X-163360130Y-55149761D01*
X-163398226Y-55187857D01*
X-163436321Y-55264047D01*
X-174853559Y-55187857D02*
X-174739273Y-55225952D01*
X-174701178Y-55264047D01*
X-174663083Y-55340238D01*
X-174663083Y-55454523D01*
X-174701178Y-55530714D01*
X-174739273Y-55568809D01*
X-174815464Y-55606904D01*
X-175120226Y-55606904D01*
X-175120226Y-54806904D01*
X-174853559Y-54806904D01*
X-174777369Y-54845000D01*
X-174739273Y-54883095D01*
X-174701178Y-54959285D01*
X-174701178Y-55035476D01*
X-174739273Y-55111666D01*
X-174777369Y-55149761D01*
X-174853559Y-55187857D01*
X-175120226Y-55187857D01*
X-173939273Y-54806904D02*
X-174320226Y-54806904D01*
X-174358321Y-55187857D01*
X-174320226Y-55149761D01*
X-174244035Y-55111666D01*
X-174053559Y-55111666D01*
X-173977369Y-55149761D01*
X-173939273Y-55187857D01*
X-173901178Y-55264047D01*
X-173901178Y-55454523D01*
X-173939273Y-55530714D01*
X-173977369Y-55568809D01*
X-174053559Y-55606904D01*
X-174244035Y-55606904D01*
X-174320226Y-55568809D01*
X-174358321Y-55530714D01*
X-174853559Y-52647857D02*
X-174739273Y-52685952D01*
X-174701178Y-52724047D01*
X-174663083Y-52800238D01*
X-174663083Y-52914523D01*
X-174701178Y-52990714D01*
X-174739273Y-53028809D01*
X-174815464Y-53066904D01*
X-175120226Y-53066904D01*
X-175120226Y-52266904D01*
X-174853559Y-52266904D01*
X-174777369Y-52305000D01*
X-174739273Y-52343095D01*
X-174701178Y-52419285D01*
X-174701178Y-52495476D01*
X-174739273Y-52571666D01*
X-174777369Y-52609761D01*
X-174853559Y-52647857D01*
X-175120226Y-52647857D01*
X-173977369Y-52533571D02*
X-173977369Y-53066904D01*
X-174167845Y-52228809D02*
X-174358321Y-52800238D01*
X-173863083Y-52800238D01*
X-175082130Y-50107857D02*
X-174815464Y-50107857D01*
X-174701178Y-50526904D02*
X-175082130Y-50526904D01*
X-175082130Y-49726904D01*
X-174701178Y-49726904D01*
X-174015464Y-49726904D02*
X-174167845Y-49726904D01*
X-174244035Y-49765000D01*
X-174282130Y-49803095D01*
X-174358321Y-49917380D01*
X-174396416Y-50069761D01*
X-174396416Y-50374523D01*
X-174358321Y-50450714D01*
X-174320226Y-50488809D01*
X-174244035Y-50526904D01*
X-174091654Y-50526904D01*
X-174015464Y-50488809D01*
X-173977369Y-50450714D01*
X-173939273Y-50374523D01*
X-173939273Y-50184047D01*
X-173977369Y-50107857D01*
X-174015464Y-50069761D01*
X-174091654Y-50031666D01*
X-174244035Y-50031666D01*
X-174320226Y-50069761D01*
X-174358321Y-50107857D01*
X-174396416Y-50184047D01*
X-175120226Y-47986904D02*
X-175120226Y-47186904D01*
X-174929750Y-47186904D01*
X-174815464Y-47225000D01*
X-174739273Y-47301190D01*
X-174701178Y-47377380D01*
X-174663083Y-47529761D01*
X-174663083Y-47644047D01*
X-174701178Y-47796428D01*
X-174739273Y-47872619D01*
X-174815464Y-47948809D01*
X-174929750Y-47986904D01*
X-175120226Y-47986904D01*
X-174396416Y-47186904D02*
X-173863083Y-47186904D01*
X-174205940Y-47986904D01*
X-174663083Y-45370714D02*
X-174701178Y-45408809D01*
X-174815464Y-45446904D01*
X-174891654Y-45446904D01*
X-175005940Y-45408809D01*
X-175082130Y-45332619D01*
X-175120226Y-45256428D01*
X-175158321Y-45104047D01*
X-175158321Y-44989761D01*
X-175120226Y-44837380D01*
X-175082130Y-44761190D01*
X-175005940Y-44685000D01*
X-174891654Y-44646904D01*
X-174815464Y-44646904D01*
X-174701178Y-44685000D01*
X-174663083Y-44723095D01*
X-173977369Y-44646904D02*
X-174129750Y-44646904D01*
X-174205940Y-44685000D01*
X-174244035Y-44723095D01*
X-174320226Y-44837380D01*
X-174358321Y-44989761D01*
X-174358321Y-45294523D01*
X-174320226Y-45370714D01*
X-174282130Y-45408809D01*
X-174205940Y-45446904D01*
X-174053559Y-45446904D01*
X-173977369Y-45408809D01*
X-173939273Y-45370714D01*
X-173901178Y-45294523D01*
X-173901178Y-45104047D01*
X-173939273Y-45027857D01*
X-173977369Y-44989761D01*
X-174053559Y-44951666D01*
X-174205940Y-44951666D01*
X-174282130Y-44989761D01*
X-174320226Y-45027857D01*
X-174358321Y-45104047D01*
X-175120226Y-42906904D02*
X-175120226Y-42106904D01*
X-174929750Y-42106904D01*
X-174815464Y-42145000D01*
X-174739273Y-42221190D01*
X-174701178Y-42297380D01*
X-174663083Y-42449761D01*
X-174663083Y-42564047D01*
X-174701178Y-42716428D01*
X-174739273Y-42792619D01*
X-174815464Y-42868809D01*
X-174929750Y-42906904D01*
X-175120226Y-42906904D01*
X-173977369Y-42373571D02*
X-173977369Y-42906904D01*
X-174167845Y-42068809D02*
X-174358321Y-42640238D01*
X-173863083Y-42640238D01*
X-175139273Y-31985000D02*
X-175215464Y-31946904D01*
X-175329750Y-31946904D01*
X-175444035Y-31985000D01*
X-175520226Y-32061190D01*
X-175558321Y-32137380D01*
X-175596416Y-32289761D01*
X-175596416Y-32404047D01*
X-175558321Y-32556428D01*
X-175520226Y-32632619D01*
X-175444035Y-32708809D01*
X-175329750Y-32746904D01*
X-175253559Y-32746904D01*
X-175139273Y-32708809D01*
X-175101178Y-32670714D01*
X-175101178Y-32404047D01*
X-175253559Y-32404047D01*
X-174758321Y-32746904D02*
X-174758321Y-31946904D01*
X-174301178Y-32746904D01*
X-174301178Y-31946904D01*
X-173920226Y-32746904D02*
X-173920226Y-31946904D01*
X-173729750Y-31946904D01*
X-173615464Y-31985000D01*
X-173539273Y-32061190D01*
X-173501178Y-32137380D01*
X-173463083Y-32289761D01*
X-173463083Y-32404047D01*
X-173501178Y-32556428D01*
X-173539273Y-32632619D01*
X-173615464Y-32708809D01*
X-173729750Y-32746904D01*
X-173920226Y-32746904D01*
X-175139273Y-34525000D02*
X-175215464Y-34486904D01*
X-175329750Y-34486904D01*
X-175444035Y-34525000D01*
X-175520226Y-34601190D01*
X-175558321Y-34677380D01*
X-175596416Y-34829761D01*
X-175596416Y-34944047D01*
X-175558321Y-35096428D01*
X-175520226Y-35172619D01*
X-175444035Y-35248809D01*
X-175329750Y-35286904D01*
X-175253559Y-35286904D01*
X-175139273Y-35248809D01*
X-175101178Y-35210714D01*
X-175101178Y-34944047D01*
X-175253559Y-34944047D01*
X-174758321Y-35286904D02*
X-174758321Y-34486904D01*
X-174301178Y-35286904D01*
X-174301178Y-34486904D01*
X-173920226Y-35286904D02*
X-173920226Y-34486904D01*
X-173729750Y-34486904D01*
X-173615464Y-34525000D01*
X-173539273Y-34601190D01*
X-173501178Y-34677380D01*
X-173463083Y-34829761D01*
X-173463083Y-34944047D01*
X-173501178Y-35096428D01*
X-173539273Y-35172619D01*
X-173615464Y-35248809D01*
X-173729750Y-35286904D01*
X-173920226Y-35286904D01*
X-175120226Y-37826904D02*
X-175120226Y-37026904D01*
X-174929750Y-37026904D01*
X-174815464Y-37065000D01*
X-174739273Y-37141190D01*
X-174701178Y-37217380D01*
X-174663083Y-37369761D01*
X-174663083Y-37484047D01*
X-174701178Y-37636428D01*
X-174739273Y-37712619D01*
X-174815464Y-37788809D01*
X-174929750Y-37826904D01*
X-175120226Y-37826904D01*
X-173901178Y-37826904D02*
X-174358321Y-37826904D01*
X-174129750Y-37826904D02*
X-174129750Y-37026904D01*
X-174205940Y-37141190D01*
X-174282130Y-37217380D01*
X-174358321Y-37255476D01*
X-175120226Y-40366904D02*
X-175120226Y-39566904D01*
X-174929750Y-39566904D01*
X-174815464Y-39605000D01*
X-174739273Y-39681190D01*
X-174701178Y-39757380D01*
X-174663083Y-39909761D01*
X-174663083Y-40024047D01*
X-174701178Y-40176428D01*
X-174739273Y-40252619D01*
X-174815464Y-40328809D01*
X-174929750Y-40366904D01*
X-175120226Y-40366904D01*
X-174167845Y-39566904D02*
X-174091654Y-39566904D01*
X-174015464Y-39605000D01*
X-173977369Y-39643095D01*
X-173939273Y-39719285D01*
X-173901178Y-39871666D01*
X-173901178Y-40062142D01*
X-173939273Y-40214523D01*
X-173977369Y-40290714D01*
X-174015464Y-40328809D01*
X-174091654Y-40366904D01*
X-174167845Y-40366904D01*
X-174244035Y-40328809D01*
X-174282130Y-40290714D01*
X-174320226Y-40214523D01*
X-174358321Y-40062142D01*
X-174358321Y-39871666D01*
X-174320226Y-39719285D01*
X-174282130Y-39643095D01*
X-174244035Y-39605000D01*
X-174167845Y-39566904D01*
X-175120226Y-30206904D02*
X-175120226Y-29406904D01*
X-174929750Y-29406904D01*
X-174815464Y-29445000D01*
X-174739273Y-29521190D01*
X-174701178Y-29597380D01*
X-174663083Y-29749761D01*
X-174663083Y-29864047D01*
X-174701178Y-30016428D01*
X-174739273Y-30092619D01*
X-174815464Y-30168809D01*
X-174929750Y-30206904D01*
X-175120226Y-30206904D01*
X-174358321Y-29483095D02*
X-174320226Y-29445000D01*
X-174244035Y-29406904D01*
X-174053559Y-29406904D01*
X-173977369Y-29445000D01*
X-173939273Y-29483095D01*
X-173901178Y-29559285D01*
X-173901178Y-29635476D01*
X-173939273Y-29749761D01*
X-174396416Y-30206904D01*
X-173901178Y-30206904D01*
X-174831098Y-26866904D02*
X-174373955Y-26866904D01*
X-174602526Y-27666904D02*
X-174602526Y-26866904D01*
X-174183479Y-26866904D02*
X-173650145Y-27666904D01*
X-173650145Y-26866904D02*
X-174183479Y-27666904D01*
X-173193002Y-26866904D02*
X-173116812Y-26866904D01*
X-173040622Y-26905000D01*
X-173002526Y-26943095D01*
X-172964431Y-27019285D01*
X-172926336Y-27171666D01*
X-172926336Y-27362142D01*
X-172964431Y-27514523D01*
X-173002526Y-27590714D01*
X-173040622Y-27628809D01*
X-173116812Y-27666904D01*
X-173193002Y-27666904D01*
X-173269193Y-27628809D01*
X-173307288Y-27590714D01*
X-173345383Y-27514523D01*
X-173383479Y-27362142D01*
X-173383479Y-27171666D01*
X-173345383Y-27019285D01*
X-173307288Y-26943095D01*
X-173269193Y-26905000D01*
X-173193002Y-26866904D01*
X-172012050Y-26828809D02*
X-172697764Y-27857380D01*
X-171745383Y-27666904D02*
X-171745383Y-26866904D01*
X-171554907Y-26866904D01*
X-171440622Y-26905000D01*
X-171364431Y-26981190D01*
X-171326336Y-27057380D01*
X-171288241Y-27209761D01*
X-171288241Y-27324047D01*
X-171326336Y-27476428D01*
X-171364431Y-27552619D01*
X-171440622Y-27628809D01*
X-171554907Y-27666904D01*
X-171745383Y-27666904D01*
X-171021574Y-26866904D02*
X-170526336Y-26866904D01*
X-170793002Y-27171666D01*
X-170678717Y-27171666D01*
X-170602526Y-27209761D01*
X-170564431Y-27247857D01*
X-170526336Y-27324047D01*
X-170526336Y-27514523D01*
X-170564431Y-27590714D01*
X-170602526Y-27628809D01*
X-170678717Y-27666904D01*
X-170907288Y-27666904D01*
X-170983479Y-27628809D01*
X-171021574Y-27590714D01*
%LPC*%
D14*
X-30162500Y-135731250D03*
D15*
X-35242500Y-135731250D03*
X-25082500Y-135731250D03*
D16*
X-42068750Y-128746250D03*
X-18256250Y-128746250D03*
D14*
X-42068750Y-143986250D03*
X-18256250Y-143986250D03*
X-23018750Y-116681250D03*
D15*
X-17938750Y-116681250D03*
X-28098750Y-116681250D03*
D14*
X-154781250Y-139700000D03*
D15*
X-152241250Y-144099409D03*
X-157321250Y-135300591D03*
D14*
X-142081250Y-59531250D03*
D15*
X-147161250Y-59531250D03*
X-137001250Y-59531250D03*
D17*
X-182562500Y-32312500D03*
X-182562500Y-25312500D03*
X-167600000Y-71060000D03*
D18*
X-164100000Y-67360000D03*
D15*
X-165100000Y-69850000D03*
X-170100000Y-69850000D03*
D18*
X-171110000Y-67360000D03*
D19*
X-160000000Y-69850000D03*
X-181750000Y-69850000D03*
D14*
X-104030000Y-78277500D03*
D15*
X-109110000Y-78277500D03*
X-98950000Y-78277500D03*
D14*
X-103975000Y-135731250D03*
D15*
X-109055000Y-135731250D03*
X-98895000Y-135731250D03*
D14*
X-84925000Y-116681250D03*
D15*
X-90005000Y-116681250D03*
X-79845000Y-116681250D03*
D14*
X-65875000Y-135731250D03*
D15*
X-70955000Y-135731250D03*
X-60795000Y-135731250D03*
D14*
X-65843750Y-100658000D03*
D15*
X-70923750Y-100658000D03*
X-60763750Y-100658000D03*
D14*
X-65843750Y-81608000D03*
D15*
X-70923750Y-81608000D03*
X-60763750Y-81608000D03*
D14*
X-65843750Y-43508000D03*
D15*
X-70923750Y-43508000D03*
X-60763750Y-43508000D03*
D14*
X-27781250Y-116681250D03*
D15*
X-32861250Y-116681250D03*
X-22701250Y-116681250D03*
D14*
X-142081250Y-83343750D03*
D15*
X-142081250Y-88423750D03*
X-142081250Y-78263750D03*
D14*
X-123130000Y-59531250D03*
D15*
X-128210000Y-59531250D03*
X-118050000Y-59531250D03*
D14*
X-65843750Y-62558000D03*
D15*
X-70923750Y-62558000D03*
X-60763750Y-62558000D03*
D14*
X-123130000Y-40481250D03*
D15*
X-128210000Y-40481250D03*
X-118050000Y-40481250D03*
D20*
X-177800000Y-70802500D03*
X-177800000Y-65722500D03*
X-175418750Y-65722500D03*
X-175418750Y-70802500D03*
X-165417500Y-61118750D03*
X-167957500Y-61118750D03*
X-170497500Y-61118750D03*
X-173037500Y-61118750D03*
D21*
X-176688750Y-27305000D03*
D22*
X-176688750Y-29845000D03*
X-176688750Y-32385000D03*
X-176688750Y-34925000D03*
X-176688750Y-37465000D03*
X-176688750Y-40005000D03*
X-176688750Y-42545000D03*
X-176688750Y-45085000D03*
X-176688750Y-47625000D03*
X-176688750Y-50165000D03*
X-176688750Y-52705000D03*
X-161448750Y-55245000D03*
X-161448750Y-52705000D03*
X-161448750Y-50165000D03*
X-161448750Y-47625000D03*
X-161448750Y-45085000D03*
X-161448750Y-42545000D03*
X-161448750Y-40005000D03*
X-161448750Y-37465000D03*
X-161448750Y-34925000D03*
X-161448750Y-32385000D03*
X-161448750Y-29845000D03*
X-176688750Y-55245000D03*
X-161448750Y-27305000D03*
D14*
X-138112500Y-130175000D03*
D15*
X-135572500Y-134574409D03*
X-140652500Y-125775591D03*
D14*
X-84861500Y-135743250D03*
D15*
X-89941500Y-135743250D03*
X-79781500Y-135743250D03*
D14*
X-157162500Y-113506250D03*
D15*
X-161561909Y-116046250D03*
X-152763091Y-110966250D03*
D14*
X-123130000Y-97631250D03*
D15*
X-128210000Y-97631250D03*
X-118050000Y-97631250D03*
D14*
X-104030000Y-97327500D03*
D15*
X-109110000Y-97327500D03*
X-98950000Y-97327500D03*
D14*
X-84880000Y-94070750D03*
D15*
X-89960000Y-94070750D03*
X-79800000Y-94070750D03*
D14*
X-46831250Y-116681250D03*
D15*
X-51911250Y-116681250D03*
X-41751250Y-116681250D03*
D14*
X-123130000Y-78581250D03*
D15*
X-128210000Y-78581250D03*
X-118050000Y-78581250D03*
D14*
X-84880000Y-75020750D03*
D15*
X-89960000Y-75020750D03*
X-79800000Y-75020750D03*
D14*
X-46831250Y-97631250D03*
D15*
X-51911250Y-97631250D03*
X-41751250Y-97631250D03*
D14*
X-27781250Y-97631250D03*
D15*
X-32861250Y-97631250D03*
X-22701250Y-97631250D03*
D14*
X-104030000Y-59227500D03*
D15*
X-109110000Y-59227500D03*
X-98950000Y-59227500D03*
D14*
X-84880000Y-55970750D03*
D15*
X-89960000Y-55970750D03*
X-79800000Y-55970750D03*
D14*
X-46831250Y-78581250D03*
D15*
X-51911250Y-78581250D03*
X-41751250Y-78581250D03*
D14*
X-27781250Y-78581250D03*
D15*
X-32861250Y-78581250D03*
X-22701250Y-78581250D03*
D14*
X-142081250Y-40481250D03*
D15*
X-147161250Y-40481250D03*
X-137001250Y-40481250D03*
D14*
X-104030000Y-40177500D03*
D15*
X-109110000Y-40177500D03*
X-98950000Y-40177500D03*
D14*
X-84880000Y-36920750D03*
D15*
X-89960000Y-36920750D03*
X-79800000Y-36920750D03*
D14*
X-46831250Y-59531250D03*
D15*
X-51911250Y-59531250D03*
X-41751250Y-59531250D03*
D14*
X-27781250Y-59531250D03*
D15*
X-32861250Y-59531250D03*
X-22701250Y-59531250D03*
M02*
