G04 #@! TF.GenerationSoftware,KiCad,Pcbnew,5.1.10*
G04 #@! TF.CreationDate,2021-08-07T14:45:30-04:00*
G04 #@! TF.ProjectId,v05_right,7630355f-7269-4676-9874-2e6b69636164,rev?*
G04 #@! TF.SameCoordinates,Original*
G04 #@! TF.FileFunction,Soldermask,Top*
G04 #@! TF.FilePolarity,Negative*
%FSLAX46Y46*%
G04 Gerber Fmt 4.6, Leading zero omitted, Abs format (unit mm)*
G04 Created by KiCad (PCBNEW 5.1.10) date 2021-08-07 14:45:30*
%MOMM*%
%LPD*%
G01*
G04 APERTURE LIST*
%ADD10C,3.987800*%
%ADD11C,1.750000*%
%ADD12C,3.048000*%
%ADD13C,1.200000*%
%ADD14C,2.100000*%
%ADD15C,2.200000*%
%ADD16C,1.397000*%
%ADD17R,1.752600X1.752600*%
%ADD18C,1.752600*%
G04 APERTURE END LIST*
D10*
X-30162500Y-135731250D03*
D11*
X-35242500Y-135731250D03*
X-25082500Y-135731250D03*
D12*
X-42068750Y-128746250D03*
X-18256250Y-128746250D03*
D10*
X-42068750Y-143986250D03*
X-18256250Y-143986250D03*
X-23018750Y-116681250D03*
D11*
X-17938750Y-116681250D03*
X-28098750Y-116681250D03*
D10*
X-154781250Y-139700000D03*
D11*
X-152241250Y-144099409D03*
X-157321250Y-135300591D03*
D10*
X-142081250Y-59531250D03*
D11*
X-147161250Y-59531250D03*
X-137001250Y-59531250D03*
D13*
X-182562500Y-32312500D03*
X-182562500Y-25312500D03*
X-167600000Y-71060000D03*
D14*
X-164100000Y-67360000D03*
D11*
X-165100000Y-69850000D03*
X-170100000Y-69850000D03*
D14*
X-171110000Y-67360000D03*
D15*
X-160000000Y-69850000D03*
X-181750000Y-69850000D03*
D10*
X-104030000Y-78277500D03*
D11*
X-109110000Y-78277500D03*
X-98950000Y-78277500D03*
D10*
X-103975000Y-135731250D03*
D11*
X-109055000Y-135731250D03*
X-98895000Y-135731250D03*
D10*
X-84925000Y-116681250D03*
D11*
X-90005000Y-116681250D03*
X-79845000Y-116681250D03*
D10*
X-65875000Y-135731250D03*
D11*
X-70955000Y-135731250D03*
X-60795000Y-135731250D03*
D10*
X-65843750Y-100658000D03*
D11*
X-70923750Y-100658000D03*
X-60763750Y-100658000D03*
D10*
X-65843750Y-81608000D03*
D11*
X-70923750Y-81608000D03*
X-60763750Y-81608000D03*
D10*
X-65843750Y-43508000D03*
D11*
X-70923750Y-43508000D03*
X-60763750Y-43508000D03*
D10*
X-27781250Y-116681250D03*
D11*
X-32861250Y-116681250D03*
X-22701250Y-116681250D03*
D10*
X-142081250Y-83343750D03*
D11*
X-142081250Y-88423750D03*
X-142081250Y-78263750D03*
D10*
X-123130000Y-59531250D03*
D11*
X-128210000Y-59531250D03*
X-118050000Y-59531250D03*
D10*
X-65843750Y-62558000D03*
D11*
X-70923750Y-62558000D03*
X-60763750Y-62558000D03*
D10*
X-123130000Y-40481250D03*
D11*
X-128210000Y-40481250D03*
X-118050000Y-40481250D03*
D16*
X-177800000Y-70802500D03*
X-177800000Y-65722500D03*
X-175418750Y-65722500D03*
X-175418750Y-70802500D03*
X-165417500Y-61118750D03*
X-167957500Y-61118750D03*
X-170497500Y-61118750D03*
X-173037500Y-61118750D03*
D17*
X-176688750Y-27305000D03*
D18*
X-176688750Y-29845000D03*
X-176688750Y-32385000D03*
X-176688750Y-34925000D03*
X-176688750Y-37465000D03*
X-176688750Y-40005000D03*
X-176688750Y-42545000D03*
X-176688750Y-45085000D03*
X-176688750Y-47625000D03*
X-176688750Y-50165000D03*
X-176688750Y-52705000D03*
X-161448750Y-55245000D03*
X-161448750Y-52705000D03*
X-161448750Y-50165000D03*
X-161448750Y-47625000D03*
X-161448750Y-45085000D03*
X-161448750Y-42545000D03*
X-161448750Y-40005000D03*
X-161448750Y-37465000D03*
X-161448750Y-34925000D03*
X-161448750Y-32385000D03*
X-161448750Y-29845000D03*
X-176688750Y-55245000D03*
X-161448750Y-27305000D03*
D10*
X-138112500Y-130175000D03*
D11*
X-135572500Y-134574409D03*
X-140652500Y-125775591D03*
D10*
X-84861500Y-135743250D03*
D11*
X-89941500Y-135743250D03*
X-79781500Y-135743250D03*
D10*
X-157162500Y-113506250D03*
D11*
X-161561909Y-116046250D03*
X-152763091Y-110966250D03*
D10*
X-123130000Y-97631250D03*
D11*
X-128210000Y-97631250D03*
X-118050000Y-97631250D03*
D10*
X-104030000Y-97327500D03*
D11*
X-109110000Y-97327500D03*
X-98950000Y-97327500D03*
D10*
X-84880000Y-94070750D03*
D11*
X-89960000Y-94070750D03*
X-79800000Y-94070750D03*
D10*
X-46831250Y-116681250D03*
D11*
X-51911250Y-116681250D03*
X-41751250Y-116681250D03*
D10*
X-123130000Y-78581250D03*
D11*
X-128210000Y-78581250D03*
X-118050000Y-78581250D03*
D10*
X-84880000Y-75020750D03*
D11*
X-89960000Y-75020750D03*
X-79800000Y-75020750D03*
D10*
X-46831250Y-97631250D03*
D11*
X-51911250Y-97631250D03*
X-41751250Y-97631250D03*
D10*
X-27781250Y-97631250D03*
D11*
X-32861250Y-97631250D03*
X-22701250Y-97631250D03*
D10*
X-104030000Y-59227500D03*
D11*
X-109110000Y-59227500D03*
X-98950000Y-59227500D03*
D10*
X-84880000Y-55970750D03*
D11*
X-89960000Y-55970750D03*
X-79800000Y-55970750D03*
D10*
X-46831250Y-78581250D03*
D11*
X-51911250Y-78581250D03*
X-41751250Y-78581250D03*
D10*
X-27781250Y-78581250D03*
D11*
X-32861250Y-78581250D03*
X-22701250Y-78581250D03*
D10*
X-142081250Y-40481250D03*
D11*
X-147161250Y-40481250D03*
X-137001250Y-40481250D03*
D10*
X-104030000Y-40177500D03*
D11*
X-109110000Y-40177500D03*
X-98950000Y-40177500D03*
D10*
X-84880000Y-36920750D03*
D11*
X-89960000Y-36920750D03*
X-79800000Y-36920750D03*
D10*
X-46831250Y-59531250D03*
D11*
X-51911250Y-59531250D03*
X-41751250Y-59531250D03*
D10*
X-27781250Y-59531250D03*
D11*
X-32861250Y-59531250D03*
X-22701250Y-59531250D03*
M02*
