M48
; DRILL file {KiCad 5.1.10} date Sun Jul 11 16:17:43 2021
; FORMAT={-:-/ absolute / inch / decimal}
; #@! TF.CreationDate,2021-07-11T16:17:43-04:00
; #@! TF.GenerationSoftware,Kicad,Pcbnew,5.1.10
; #@! TF.FileFunction,Plated,1,2,PTH
FMAT,2
INCH
T1C0.0157
T2C0.0320
T3C0.0354
T4C0.0390
T5C0.0430
T6C0.0512
T7C0.0579
%
G90
G05
T1
X-4.5312Y-1.1875
X-4.4688Y-1.25
X-4.1562Y-1.0625
X-4.0938Y-1.0625
X-2.1562Y-0.4688
X-2.0938Y-0.4062
X-0.3632Y-1.157
X-0.2695Y-1.3133
X-0.1757Y-1.3133
T2
X-0.6068Y-3.0461
X-0.6068Y-3.1398
X-0.4068Y-3.0461
X-0.4068Y-3.1398
X-0.3632Y-1.657
X-0.2632Y-1.657
X-0.1632Y-1.657
X-0.0632Y-1.657
T4
X-0.1303Y-3.1287
X0.0665Y-3.1287
T5
X-0.5382Y-0.3258
X-0.5382Y-0.4258
X-0.5382Y-0.5258
X-0.5382Y-0.6258
X-0.5382Y-0.7258
X-0.5382Y-0.8258
X-0.5382Y-0.9258
X-0.5382Y-1.0258
X-0.5382Y-1.1258
X-0.5382Y-1.2258
X-0.5382Y-1.3258
X-0.5382Y-1.4258
X0.0618Y-0.3258
X0.0618Y-0.4258
X0.0618Y-0.5258
X0.0618Y-0.6258
X0.0618Y-0.7258
X0.0618Y-0.8258
X0.0618Y-0.9258
X0.0618Y-1.0258
X0.0618Y-1.1258
X0.0618Y-1.2258
X0.0618Y-1.3258
X0.0618Y-1.4258
T6
X-0.1701Y-3.0307
X0.1059Y-3.0307
T7
X-6.1187Y-1.4937
X-6.1187Y-2.2437
X-6.1187Y-2.9937
X-6.1187Y-3.7437
X-6.025Y-4.4937
X-5.8687Y-1.3938
X-5.8687Y-2.1437
X-5.8687Y-2.8937
X-5.8687Y-3.6437
X-5.775Y-4.3937
X-5.3687Y-1.4937
X-5.3687Y-2.2437
X-5.3687Y-2.9937
X-5.3687Y-3.8375
X-5.1187Y-1.3938
X-5.1187Y-2.1437
X-5.1187Y-2.8937
X-5.1187Y-3.7375
X-5.0875Y-4.4937
X-4.8375Y-4.3937
X-4.6187Y-0.845
X-4.6187Y-1.595
X-4.6187Y-2.345
X-4.6187Y-3.095
X-4.3687Y-0.745
X-4.3687Y-1.495
X-4.3687Y-2.245
X-4.3687Y-2.995
X-4.15Y-4.4937
X-3.9Y-4.3937
X-3.8687Y-0.555
X-3.8687Y-1.305
X-3.8687Y-2.055
X-3.8687Y-2.805
X-3.8662Y-3.7437
X-3.6187Y-0.455
X-3.6187Y-1.205
X-3.6187Y-1.955
X-3.6187Y-2.705
X-3.6162Y-3.6437
X-3.1187Y-0.9
X-3.1187Y-1.65
X-3.1187Y-2.4
X-3.1187Y-3.15
X-3.1187Y-4.4937
X-2.8687Y-0.8
X-2.8687Y-1.55
X-2.8687Y-2.3
X-2.8687Y-3.05
X-2.8687Y-4.3937
X-2.3687Y-0.94
X-2.3687Y-1.69
X-2.3687Y-2.44
X-2.3687Y-3.19
X-2.1187Y-0.84
X-2.1187Y-1.59
X-2.1187Y-2.34
X-2.1187Y-3.09
X-1.6687Y-1.8775
X-1.6187Y-0.94
X-1.5687Y-2.1275
X-1.4999Y-4.5084
X-1.3687Y-0.84
X-1.2334Y-4.5468
X-1.1249Y-3.8584
X-0.8584Y-3.8968
T3
G00X-0.2065Y-2.5977
M15
G01X-0.2222Y-2.5977
M16
G05
G00X-0.1632Y-2.7788
M15
G01X-0.1789Y-2.7788
M16
G05
G00X-0.0057Y-2.7788
M15
G01X-0.0215Y-2.7788
M16
G05
G00X0.1124Y-2.7788
M15
G01X0.0967Y-2.7788
M16
G05
T0
M30
