G04 #@! TF.GenerationSoftware,KiCad,Pcbnew,5.1.10*
G04 #@! TF.CreationDate,2021-07-11T16:17:35-04:00*
G04 #@! TF.ProjectId,v02_left,7630325f-6c65-4667-942e-6b696361645f,rev?*
G04 #@! TF.SameCoordinates,Original*
G04 #@! TF.FileFunction,Soldermask,Top*
G04 #@! TF.FilePolarity,Negative*
%FSLAX46Y46*%
G04 Gerber Fmt 4.6, Leading zero omitted, Abs format (unit mm)*
G04 Created by KiCad (PCBNEW 5.1.10) date 2021-07-11 16:17:35*
%MOMM*%
%LPD*%
G01*
G04 APERTURE LIST*
%ADD10C,2.200000*%
%ADD11C,1.200000*%
%ADD12C,2.100000*%
%ADD13C,1.750000*%
%ADD14O,2.000000X1.600000*%
%ADD15C,0.800000*%
%ADD16C,3.987800*%
%ADD17C,1.397000*%
%ADD18R,1.752600X1.752600*%
%ADD19C,1.752600*%
G04 APERTURE END LIST*
D10*
X-19560000Y-50800000D03*
X2381250Y-50800000D03*
D11*
X-810000Y-80680000D03*
D12*
X2690000Y-76980000D03*
D13*
X1690000Y-79470000D03*
X-3310000Y-79470000D03*
D12*
X-4320000Y-76980000D03*
D14*
X-345000Y-70582500D03*
D15*
X4255000Y-68282500D03*
X-2745000Y-68282500D03*
D14*
X2655000Y-70582500D03*
X-4345000Y-70582500D03*
X-5445000Y-65982500D03*
D16*
X-125412500Y-116681250D03*
D13*
X-130492500Y-116681250D03*
X-120332500Y-116681250D03*
D16*
X-113506250Y-24003000D03*
D13*
X-118586250Y-24003000D03*
X-108426250Y-24003000D03*
D16*
X-37306250Y-50228500D03*
D13*
X-37306250Y-55308500D03*
X-37306250Y-45148500D03*
D16*
X-56356250Y-45466000D03*
D13*
X-61436250Y-45466000D03*
X-51276250Y-45466000D03*
D16*
X-113506250Y-43053000D03*
D13*
X-118586250Y-43053000D03*
X-108426250Y-43053000D03*
D16*
X-56356250Y-26416000D03*
D13*
X-61436250Y-26416000D03*
X-51276250Y-26416000D03*
D17*
X-15413750Y-77370000D03*
X-10333750Y-77370000D03*
X-10333750Y-79751250D03*
X-15413750Y-79751250D03*
X-1606250Y-42088750D03*
X-4146250Y-42088750D03*
X-6686250Y-42088750D03*
X-9226250Y-42088750D03*
D18*
X-13671250Y-8275000D03*
D19*
X-13671250Y-10815000D03*
X-13671250Y-13355000D03*
X-13671250Y-15895000D03*
X-13671250Y-18435000D03*
X-13671250Y-20975000D03*
X-13671250Y-23515000D03*
X-13671250Y-26055000D03*
X-13671250Y-28595000D03*
X-13671250Y-31135000D03*
X-13671250Y-33675000D03*
X1568750Y-36215000D03*
X1568750Y-33675000D03*
X1568750Y-31135000D03*
X1568750Y-28595000D03*
X1568750Y-26055000D03*
X1568750Y-23515000D03*
X1568750Y-20975000D03*
X1568750Y-18435000D03*
X1568750Y-15895000D03*
X1568750Y-13355000D03*
X1568750Y-10815000D03*
X-13671250Y-36215000D03*
X1568750Y-8275000D03*
D16*
X-36068000Y-118618000D03*
D13*
X-40467409Y-116078000D03*
X-31668591Y-121158000D03*
D16*
X-75406250Y-116681250D03*
D13*
X-80486250Y-116681250D03*
X-70326250Y-116681250D03*
D16*
X-94392750Y-97631250D03*
D13*
X-99472750Y-97631250D03*
X-89312750Y-97631250D03*
D16*
X-101600000Y-116681250D03*
D13*
X-106680000Y-116681250D03*
X-96520000Y-116681250D03*
D16*
X-149225000Y-116681250D03*
D13*
X-154305000Y-116681250D03*
X-144145000Y-116681250D03*
D16*
X-26543000Y-102108000D03*
D13*
X-30942409Y-99568000D03*
X-22143591Y-104648000D03*
D16*
X-56356250Y-83566000D03*
D13*
X-61436250Y-83566000D03*
X-51276250Y-83566000D03*
D16*
X-75406250Y-82550000D03*
D13*
X-80486250Y-82550000D03*
X-70326250Y-82550000D03*
D16*
X-94456250Y-73787000D03*
D13*
X-99536250Y-73787000D03*
X-89376250Y-73787000D03*
D16*
X-113506250Y-81153000D03*
D13*
X-118586250Y-81153000D03*
X-108426250Y-81153000D03*
D16*
X-132556250Y-100012500D03*
D13*
X-137636250Y-100012500D03*
X-127476250Y-100012500D03*
D16*
X-151606250Y-97631250D03*
D13*
X-156686250Y-97631250D03*
X-146526250Y-97631250D03*
D16*
X-56356250Y-64516000D03*
D13*
X-61436250Y-64516000D03*
X-51276250Y-64516000D03*
D16*
X-75406250Y-63500000D03*
D13*
X-80486250Y-63500000D03*
X-70326250Y-63500000D03*
D16*
X-94456250Y-54737000D03*
D13*
X-99536250Y-54737000D03*
X-89376250Y-54737000D03*
D16*
X-113506250Y-62103000D03*
D13*
X-118586250Y-62103000D03*
X-108426250Y-62103000D03*
D16*
X-132556250Y-78581250D03*
D13*
X-137636250Y-78581250D03*
X-127476250Y-78581250D03*
D16*
X-151606250Y-78581250D03*
D13*
X-156686250Y-78581250D03*
X-146526250Y-78581250D03*
D16*
X-75406250Y-44450000D03*
D13*
X-80486250Y-44450000D03*
X-70326250Y-44450000D03*
D16*
X-94456250Y-35687000D03*
D13*
X-99536250Y-35687000D03*
X-89376250Y-35687000D03*
D16*
X-132556250Y-59531250D03*
D13*
X-137636250Y-59531250D03*
X-127476250Y-59531250D03*
D16*
X-151606250Y-59531250D03*
D13*
X-156686250Y-59531250D03*
X-146526250Y-59531250D03*
D16*
X-37306250Y-26416000D03*
D13*
X-42386250Y-26416000D03*
X-32226250Y-26416000D03*
D16*
X-75406250Y-25400000D03*
D13*
X-80486250Y-25400000D03*
X-70326250Y-25400000D03*
D16*
X-94456250Y-16637000D03*
D13*
X-99536250Y-16637000D03*
X-89376250Y-16637000D03*
D16*
X-132556250Y-40481250D03*
D13*
X-137636250Y-40481250D03*
X-127476250Y-40481250D03*
D16*
X-151606250Y-40481250D03*
D13*
X-156686250Y-40481250D03*
X-146526250Y-40481250D03*
M02*
