G04 #@! TF.GenerationSoftware,KiCad,Pcbnew,5.1.10*
G04 #@! TF.CreationDate,2021-07-11T16:17:35-04:00*
G04 #@! TF.ProjectId,v02_left,7630325f-6c65-4667-942e-6b696361645f,rev?*
G04 #@! TF.SameCoordinates,Original*
G04 #@! TF.FileFunction,Copper,L1,Top*
G04 #@! TF.FilePolarity,Positive*
%FSLAX46Y46*%
G04 Gerber Fmt 4.6, Leading zero omitted, Abs format (unit mm)*
G04 Created by KiCad (PCBNEW 5.1.10) date 2021-07-11 16:17:35*
%MOMM*%
%LPD*%
G01*
G04 APERTURE LIST*
G04 #@! TA.AperFunction,ComponentPad*
%ADD10C,2.100000*%
G04 #@! TD*
G04 #@! TA.AperFunction,ComponentPad*
%ADD11C,1.750000*%
G04 #@! TD*
G04 #@! TA.AperFunction,ComponentPad*
%ADD12O,2.000000X1.600000*%
G04 #@! TD*
G04 #@! TA.AperFunction,ComponentPad*
%ADD13C,2.250000*%
G04 #@! TD*
G04 #@! TA.AperFunction,ComponentPad*
%ADD14C,1.397000*%
G04 #@! TD*
G04 #@! TA.AperFunction,ComponentPad*
%ADD15R,1.752600X1.752600*%
G04 #@! TD*
G04 #@! TA.AperFunction,ComponentPad*
%ADD16C,1.752600*%
G04 #@! TD*
G04 #@! TA.AperFunction,ViaPad*
%ADD17C,0.800000*%
G04 #@! TD*
G04 #@! TA.AperFunction,Conductor*
%ADD18C,0.250000*%
G04 #@! TD*
G04 APERTURE END LIST*
D10*
X2690000Y-76980000D03*
D11*
X1690000Y-79470000D03*
X-3310000Y-79470000D03*
D10*
X-4320000Y-76980000D03*
D12*
X-345000Y-70582500D03*
X2655000Y-70582500D03*
X-4345000Y-70582500D03*
X-5445000Y-65982500D03*
D13*
X-122872500Y-111601250D03*
X-129222500Y-114141250D03*
X-110966250Y-18923000D03*
X-117316250Y-21463000D03*
X-42386250Y-47688500D03*
X-39846250Y-54038500D03*
X-53816250Y-40386000D03*
X-60166250Y-42926000D03*
X-110966250Y-37973000D03*
X-117316250Y-40513000D03*
X-53816250Y-21336000D03*
X-60166250Y-23876000D03*
D14*
X-15413750Y-77370000D03*
X-10333750Y-77370000D03*
X-10333750Y-79751250D03*
X-15413750Y-79751250D03*
X-1606250Y-42088750D03*
X-4146250Y-42088750D03*
X-6686250Y-42088750D03*
X-9226250Y-42088750D03*
D15*
X-13671250Y-8275000D03*
D16*
X-13671250Y-10815000D03*
X-13671250Y-13355000D03*
X-13671250Y-15895000D03*
X-13671250Y-18435000D03*
X-13671250Y-20975000D03*
X-13671250Y-23515000D03*
X-13671250Y-26055000D03*
X-13671250Y-28595000D03*
X-13671250Y-31135000D03*
X-13671250Y-33675000D03*
X1568750Y-36215000D03*
X1568750Y-33675000D03*
X1568750Y-31135000D03*
X1568750Y-28595000D03*
X1568750Y-26055000D03*
X1568750Y-23515000D03*
X1568750Y-20975000D03*
X1568750Y-18435000D03*
X1568750Y-15895000D03*
X1568750Y-13355000D03*
X1568750Y-10815000D03*
X-13671250Y-36215000D03*
X1568750Y-8275000D03*
D13*
X-31328295Y-115488591D03*
X-38097557Y-114513295D03*
X-72866250Y-111601250D03*
X-79216250Y-114141250D03*
X-91852750Y-92551250D03*
X-98202750Y-95091250D03*
X-99060000Y-111601250D03*
X-105410000Y-114141250D03*
X-146685000Y-111601250D03*
X-153035000Y-114141250D03*
X-21803295Y-98978591D03*
X-28572557Y-98003295D03*
X-53816250Y-78486000D03*
X-60166250Y-81026000D03*
X-72866250Y-77470000D03*
X-79216250Y-80010000D03*
X-91916250Y-68707000D03*
X-98266250Y-71247000D03*
X-110966250Y-76073000D03*
X-117316250Y-78613000D03*
X-130016250Y-94932500D03*
X-136366250Y-97472500D03*
X-149066250Y-92551250D03*
X-155416250Y-95091250D03*
X-53816250Y-59436000D03*
X-60166250Y-61976000D03*
X-72866250Y-58420000D03*
X-79216250Y-60960000D03*
X-91916250Y-49657000D03*
X-98266250Y-52197000D03*
X-110966250Y-57023000D03*
X-117316250Y-59563000D03*
X-130016250Y-73501250D03*
X-136366250Y-76041250D03*
X-149066250Y-73501250D03*
X-155416250Y-76041250D03*
X-72866250Y-39370000D03*
X-79216250Y-41910000D03*
X-91916250Y-30607000D03*
X-98266250Y-33147000D03*
X-130016250Y-54451250D03*
X-136366250Y-56991250D03*
X-149066250Y-54451250D03*
X-155416250Y-56991250D03*
X-34766250Y-21336000D03*
X-41116250Y-23876000D03*
X-72866250Y-20320000D03*
X-79216250Y-22860000D03*
X-91916250Y-11557000D03*
X-98266250Y-14097000D03*
X-130016250Y-35401250D03*
X-136366250Y-37941250D03*
X-149066250Y-35401250D03*
X-155416250Y-37941250D03*
D17*
X-115093750Y-30162500D03*
X-105568750Y-26987500D03*
X-53181250Y-10318750D03*
X-113506250Y-31750000D03*
X-103981250Y-26987500D03*
X-54768750Y-11906250D03*
X-4463750Y-33357500D03*
X-9226250Y-29388750D03*
X-6845000Y-33357500D03*
D18*
X-130016250Y-71120000D02*
X-130016250Y-72390000D01*
X-155416250Y-37941250D02*
X-158591250Y-37941250D01*
X-158591250Y-37941250D02*
X-158750000Y-38100000D01*
X-156051250Y-111125000D02*
X-153035000Y-114141250D01*
X-158750000Y-111125000D02*
X-156051250Y-111125000D01*
X-157638750Y-92868750D02*
X-158750000Y-92868750D01*
X-155416250Y-95091250D02*
X-157638750Y-92868750D01*
X-158750000Y-92868750D02*
X-158750000Y-111125000D01*
X-158432500Y-73025000D02*
X-158750000Y-73025000D01*
X-155416250Y-76041250D02*
X-158432500Y-73025000D01*
X-158750000Y-73025000D02*
X-158750000Y-92868750D01*
X-155416250Y-56991250D02*
X-157638750Y-54768750D01*
X-157638750Y-54768750D02*
X-158750000Y-54768750D01*
X-158750000Y-54768750D02*
X-158750000Y-73025000D01*
X-158750000Y-38100000D02*
X-158750000Y-54768750D01*
X-115093750Y-30162500D02*
X-113506250Y-30162500D01*
X-113506250Y-30162500D02*
X-111918750Y-28575000D01*
X-111918750Y-28575000D02*
X-110331250Y-26987500D01*
X-110331250Y-26987500D02*
X-105568750Y-26987500D01*
X-105568750Y-26987500D02*
X-105568750Y-26987500D01*
X-10267391Y-7073699D02*
X-2082500Y-15258590D01*
X-53181250Y-10318750D02*
X-49916199Y-7053699D01*
X-2082500Y-17323750D02*
X1568750Y-20975000D01*
X-2082500Y-15258590D02*
X-2082500Y-17323750D01*
X-40571301Y-7053699D02*
X-40551301Y-7073699D01*
X-49916199Y-7053699D02*
X-40571301Y-7053699D01*
X-40551301Y-7073699D02*
X-10267391Y-7073699D01*
X-40886199Y-7073699D02*
X-40551301Y-7073699D01*
X-140493750Y-50482500D02*
X-136366250Y-54610000D01*
X-140493750Y-69532500D02*
X-136366250Y-73660000D01*
X-140493750Y-50006250D02*
X-140493750Y-50482500D01*
X-140493750Y-88582500D02*
X-136366250Y-92710000D01*
X-140493750Y-50006250D02*
X-140493750Y-69056250D01*
X-140493750Y-69056250D02*
X-140493750Y-69532500D01*
X-140493750Y-69056250D02*
X-140493750Y-88106250D01*
X-140493750Y-88106250D02*
X-140493750Y-88582500D01*
X-103981250Y-26987500D02*
X-103981250Y-26987500D01*
X-14247875Y-9613699D02*
X-8363801Y-9613699D01*
X-16560426Y-11926250D02*
X-14247875Y-9613699D01*
X-45738750Y-11926250D02*
X-16560426Y-11926250D01*
X-8363801Y-9613699D02*
X-2876250Y-15101250D01*
X-2876250Y-19070000D02*
X1568750Y-23515000D01*
X-2876250Y-15101250D02*
X-2876250Y-19070000D01*
X-140493750Y-40477760D02*
X-140493750Y-50006250D01*
X-137957240Y-37941250D02*
X-140493750Y-40477760D01*
X-136366250Y-37941250D02*
X-137957240Y-37941250D01*
X-136366250Y-92710000D02*
X-136366250Y-97472500D01*
X-140493750Y-105251250D02*
X-140335000Y-105410000D01*
X-140493750Y-88106250D02*
X-140493750Y-105251250D01*
X-137953750Y-105410000D02*
X-129222500Y-114141250D01*
X-140335000Y-105410000D02*
X-137953750Y-105410000D01*
X-136366250Y-73660000D02*
X-136366250Y-76041250D01*
X-136366250Y-54610000D02*
X-136366250Y-56991250D01*
X-106362500Y-29368750D02*
X-103981250Y-26987500D01*
X-111125000Y-29368750D02*
X-106362500Y-29368750D01*
X-113506250Y-31750000D02*
X-111125000Y-29368750D01*
X-45758750Y-11906250D02*
X-45738750Y-11926250D01*
X-54768750Y-11906250D02*
X-45758750Y-11906250D01*
X-117316250Y-21463000D02*
X-122205750Y-21463000D01*
X-122205750Y-35623500D02*
X-117316250Y-40513000D01*
X-122205750Y-21463000D02*
X-122205750Y-35623500D01*
X-122205750Y-54673500D02*
X-117316250Y-59563000D01*
X-122205750Y-35623500D02*
X-122205750Y-54673500D01*
X-122205750Y-54673500D02*
X-122205750Y-73723500D01*
X-122205750Y-73723500D02*
X-121380250Y-74549000D01*
X-121380250Y-74549000D02*
X-117316250Y-78613000D01*
X-109696250Y-114141250D02*
X-105410000Y-114141250D01*
X-121380250Y-102457250D02*
X-109696250Y-114141250D01*
X-121380250Y-74549000D02*
X-121380250Y-102457250D01*
X-117316250Y-21463000D02*
X-117316250Y-14446250D01*
X-96387491Y-9074991D02*
X-76650009Y-9074991D01*
X-117316250Y-14446250D02*
X-113982500Y-11112500D01*
X-64273750Y-13513750D02*
X-15576250Y-13513750D01*
X-98425000Y-11112500D02*
X-96387491Y-9074991D01*
X-3670000Y-20816250D02*
X1568750Y-26055000D01*
X-113982500Y-11112500D02*
X-98425000Y-11112500D01*
X-76650009Y-9074991D02*
X-72231250Y-13493750D01*
X-72231250Y-13493750D02*
X-64293750Y-13493750D01*
X-64293750Y-13493750D02*
X-64273750Y-13513750D01*
X-15576250Y-13513750D02*
X-14078801Y-12016301D01*
X-14078801Y-12016301D02*
X-6616141Y-12016301D01*
X-6616141Y-12016301D02*
X-3670000Y-14962442D01*
X-3670000Y-14962442D02*
X-3670000Y-20816250D01*
X-98266250Y-14097000D02*
X-102203250Y-14097000D01*
X-102203250Y-14097000D02*
X-103187500Y-15081250D01*
X-103187500Y-15081250D02*
X-103187500Y-28225750D01*
X-100996750Y-52197000D02*
X-98266250Y-52197000D01*
X-102219125Y-50974625D02*
X-100996750Y-52197000D01*
X-103187500Y-28225750D02*
X-102219125Y-29194125D01*
X-102219125Y-29194125D02*
X-98266250Y-33147000D01*
X-102219125Y-67294125D02*
X-98266250Y-71247000D01*
X-102219125Y-50180875D02*
X-102219125Y-67294125D01*
X-102219125Y-29194125D02*
X-102219125Y-50180875D01*
X-102219125Y-50180875D02*
X-102219125Y-50974625D01*
X-101758750Y-95091250D02*
X-98202750Y-95091250D01*
X-102219125Y-94630875D02*
X-101758750Y-95091250D01*
X-102219125Y-67294125D02*
X-102219125Y-94630875D01*
X-6051250Y-20975000D02*
X-4712551Y-22313699D01*
X-4712551Y-22313699D02*
X1568750Y-28595000D01*
X-6051250Y-15101250D02*
X-6051250Y-20975000D01*
X-6596199Y-14556301D02*
X-6051250Y-15101250D01*
X-71962449Y-14556301D02*
X-6596199Y-14556301D01*
X-71982449Y-14536301D02*
X-71962449Y-14556301D01*
X-72776199Y-14536301D02*
X-71982449Y-14536301D01*
X-77787500Y-9525000D02*
X-72776199Y-14536301D01*
X-96043750Y-9525000D02*
X-77787500Y-9525000D01*
X-98266250Y-11747500D02*
X-96043750Y-9525000D01*
X-98266250Y-14097000D02*
X-98266250Y-11747500D01*
X-79216250Y-22860000D02*
X-82391250Y-22860000D01*
X-82391250Y-22860000D02*
X-83343750Y-23812500D01*
X-83343750Y-37782500D02*
X-79216250Y-41910000D01*
X-83343750Y-56832500D02*
X-79216250Y-60960000D01*
X-83343750Y-23812500D02*
X-83343750Y-37306250D01*
X-83343750Y-37306250D02*
X-83343750Y-37782500D01*
X-83343750Y-75882500D02*
X-79216250Y-80010000D01*
X-83343750Y-37306250D02*
X-83343750Y-56356250D01*
X-83343750Y-56356250D02*
X-83343750Y-56832500D01*
X-83343750Y-110013750D02*
X-79216250Y-114141250D01*
X-83343750Y-73025000D02*
X-83343750Y-110013750D01*
X-83343750Y-56356250D02*
X-83343750Y-75406250D01*
X-83343750Y-75406250D02*
X-83343750Y-75882500D01*
X-12469949Y-17096301D02*
X1568750Y-31135000D01*
X-15168699Y-17096301D02*
X-12469949Y-17096301D01*
X-21411250Y-15101250D02*
X-17163750Y-15101250D01*
X-21431250Y-15081250D02*
X-21411250Y-15101250D01*
X-76200000Y-15081250D02*
X-21431250Y-15081250D01*
X-17163750Y-15101250D02*
X-15168699Y-17096301D01*
X-79216250Y-18097500D02*
X-76200000Y-15081250D01*
X-79216250Y-22860000D02*
X-79216250Y-18097500D01*
X-60166250Y-23876000D02*
X-63436500Y-23876000D01*
X-63436500Y-23876000D02*
X-63500000Y-23939500D01*
X-63404750Y-77787500D02*
X-60166250Y-81026000D01*
X-63500000Y-77787500D02*
X-63404750Y-77787500D01*
X-63404750Y-58737500D02*
X-63500000Y-58737500D01*
X-60166250Y-61976000D02*
X-63404750Y-58737500D01*
X-60166250Y-39052500D02*
X-63500000Y-35718750D01*
X-60166250Y-42926000D02*
X-60166250Y-39052500D01*
X-63500000Y-35718750D02*
X-63500000Y-58737500D01*
X-63500000Y-23939500D02*
X-63500000Y-35718750D01*
X-38097557Y-114513295D02*
X-53394545Y-114513295D01*
X-63500000Y-104407840D02*
X-63500000Y-72231250D01*
X-63500000Y-72231250D02*
X-63500000Y-77787500D01*
X-53394545Y-114513295D02*
X-63500000Y-104407840D01*
X-63500000Y-58737500D02*
X-63500000Y-72231250D01*
X-12469949Y-19636301D02*
X1568750Y-33675000D01*
X-20358750Y-15875000D02*
X-16597449Y-19636301D01*
X-59531250Y-15875000D02*
X-20358750Y-15875000D01*
X-16597449Y-19636301D02*
X-12469949Y-19636301D01*
X-60166250Y-16510000D02*
X-59531250Y-15875000D01*
X-60166250Y-23876000D02*
X-60166250Y-16510000D01*
X-40481250Y-25400000D02*
X-40481250Y-53403500D01*
X-40481250Y-53403500D02*
X-39846250Y-54038500D01*
X-41116250Y-24765000D02*
X-40481250Y-25400000D01*
X-41116250Y-23876000D02*
X-41116250Y-24765000D01*
X-39846250Y-54038500D02*
X-39846250Y-80803750D01*
X-28572557Y-92077443D02*
X-28572557Y-98003295D01*
X-39846250Y-80803750D02*
X-28572557Y-92077443D01*
X-9792551Y-24853699D02*
X1568750Y-36215000D01*
X-14110477Y-24853699D02*
X-9792551Y-24853699D01*
X-22295426Y-16668750D02*
X-14110477Y-24853699D01*
X-39687500Y-16668750D02*
X-22295426Y-16668750D01*
X-41116250Y-18097500D02*
X-39687500Y-16668750D01*
X-41116250Y-23876000D02*
X-41116250Y-18097500D01*
X-4463750Y-33357500D02*
X-4463750Y-33357500D01*
X-4146250Y-42088750D02*
X-4146250Y-37350380D01*
X-4463750Y-37032880D02*
X-4146250Y-37350380D01*
X-4463750Y-35738750D02*
X-4463750Y-37032880D01*
X-4463750Y-36032120D02*
X-4463750Y-35738750D01*
X-4463750Y-35738750D02*
X-4463750Y-33357500D01*
X-15413750Y-75951250D02*
X-5445000Y-65982500D01*
X-15413750Y-77370000D02*
X-15413750Y-75951250D01*
X-5445000Y-65982500D02*
X-5445000Y-56245000D01*
X-5445000Y-56245000D02*
X-3968750Y-54768750D01*
X-4146250Y-54591250D02*
X-4146250Y-42088750D01*
X-3968750Y-54768750D02*
X-4146250Y-54591250D01*
X-9226250Y-33357500D02*
X-9226250Y-33357500D01*
X-9226250Y-33357500D02*
X-9226250Y-29388750D01*
X-9226250Y-29388750D02*
X-9226250Y-29388750D01*
X-9226250Y-35738750D02*
X-9226250Y-42088750D01*
X-9226250Y-36032120D02*
X-9226250Y-35738750D01*
X-9226250Y-35738750D02*
X-9226250Y-33357500D01*
X-10333750Y-77370000D02*
X-9107500Y-77370000D01*
X-9107500Y-77370000D02*
X-4762500Y-73025000D01*
X-2787500Y-73025000D02*
X-345000Y-70582500D01*
X-4762500Y-73025000D02*
X-2787500Y-73025000D01*
X-6845000Y-33357500D02*
X-6845000Y-33357500D01*
X-6845000Y-41930000D02*
X-6686250Y-42088750D01*
X-6845000Y-33357500D02*
X-6845000Y-41930000D01*
X-6245000Y-70582500D02*
X-4345000Y-70582500D01*
X-15413750Y-79751250D02*
X-6245000Y-70582500D01*
X-6686250Y-44786250D02*
X-6686250Y-42088750D01*
X-9525000Y-47625000D02*
X-6686250Y-44786250D01*
X-19050000Y-74612500D02*
X-9525000Y-65087500D01*
X-9525000Y-65087500D02*
X-9525000Y-47625000D01*
X-19050000Y-76115000D02*
X-19050000Y-74612500D01*
X-15413750Y-79751250D02*
X-19050000Y-76115000D01*
X2655000Y-73505000D02*
X2655000Y-70582500D01*
X-3310000Y-79470000D02*
X2655000Y-73505000D01*
X-1606250Y-46812500D02*
X-1606250Y-42088750D01*
X-1587500Y-46831250D02*
X-1606250Y-46812500D01*
X-3175000Y-48418750D02*
X-1587500Y-46831250D01*
X2655000Y-60598750D02*
X-3175000Y-54768750D01*
X-3175000Y-54768750D02*
X-3175000Y-48418750D01*
X2655000Y-70582500D02*
X2655000Y-60598750D01*
X-1606250Y-42088750D02*
X-20000Y-42088750D01*
X-20000Y-42088750D02*
X3175000Y-38893750D01*
X3175000Y-12421250D02*
X1568750Y-10815000D01*
X3175000Y-38893750D02*
X3175000Y-12421250D01*
M02*
