G04 #@! TF.GenerationSoftware,KiCad,Pcbnew,5.1.10*
G04 #@! TF.CreationDate,2021-07-25T23:07:30-04:00*
G04 #@! TF.ProjectId,v04_right,7630345f-7269-4676-9874-2e6b69636164,rev?*
G04 #@! TF.SameCoordinates,Original*
G04 #@! TF.FileFunction,Legend,Bot*
G04 #@! TF.FilePolarity,Positive*
%FSLAX46Y46*%
G04 Gerber Fmt 4.6, Leading zero omitted, Abs format (unit mm)*
G04 Created by KiCad (PCBNEW 5.1.10) date 2021-07-25 23:07:30*
%MOMM*%
%LPD*%
G01*
G04 APERTURE LIST*
%ADD10C,0.300000*%
%ADD11C,0.150000*%
%ADD12C,0.100000*%
%ADD13C,0.381000*%
%ADD14O,2.500000X1.700000*%
%ADD15C,1.200000*%
%ADD16C,2.100000*%
%ADD17C,1.750000*%
%ADD18C,2.200000*%
%ADD19C,2.250000*%
%ADD20C,3.987800*%
%ADD21R,1.200000X0.900000*%
%ADD22R,0.900000X1.200000*%
%ADD23C,1.397000*%
%ADD24R,1.752600X1.752600*%
%ADD25C,1.752600*%
G04 APERTURE END LIST*
D10*
X-108434821Y-119741071D02*
X-107934821Y-119026785D01*
X-107577678Y-119741071D02*
X-107577678Y-118241071D01*
X-108149107Y-118241071D01*
X-108291964Y-118312500D01*
X-108363392Y-118383928D01*
X-108434821Y-118526785D01*
X-108434821Y-118741071D01*
X-108363392Y-118883928D01*
X-108291964Y-118955357D01*
X-108149107Y-119026785D01*
X-107577678Y-119026785D01*
X-109077678Y-119741071D02*
X-109077678Y-118241071D01*
X-110577678Y-118312500D02*
X-110434821Y-118241071D01*
X-110220535Y-118241071D01*
X-110006250Y-118312500D01*
X-109863392Y-118455357D01*
X-109791964Y-118598214D01*
X-109720535Y-118883928D01*
X-109720535Y-119098214D01*
X-109791964Y-119383928D01*
X-109863392Y-119526785D01*
X-110006250Y-119669642D01*
X-110220535Y-119741071D01*
X-110363392Y-119741071D01*
X-110577678Y-119669642D01*
X-110649107Y-119598214D01*
X-110649107Y-119098214D01*
X-110363392Y-119098214D01*
X-111291964Y-119741071D02*
X-111291964Y-118241071D01*
X-111291964Y-118955357D02*
X-112149107Y-118955357D01*
X-112149107Y-119741071D02*
X-112149107Y-118241071D01*
X-112649107Y-118241071D02*
X-113506250Y-118241071D01*
X-113077678Y-119741071D02*
X-113077678Y-118241071D01*
X-115077678Y-119669642D02*
X-115291964Y-119741071D01*
X-115649107Y-119741071D01*
X-115791964Y-119669642D01*
X-115863392Y-119598214D01*
X-115934821Y-119455357D01*
X-115934821Y-119312500D01*
X-115863392Y-119169642D01*
X-115791964Y-119098214D01*
X-115649107Y-119026785D01*
X-115363392Y-118955357D01*
X-115220535Y-118883928D01*
X-115149107Y-118812500D01*
X-115077678Y-118669642D01*
X-115077678Y-118526785D01*
X-115149107Y-118383928D01*
X-115220535Y-118312500D01*
X-115363392Y-118241071D01*
X-115720535Y-118241071D01*
X-115934821Y-118312500D01*
X-116577678Y-119741071D02*
X-116577678Y-118241071D01*
X-117291964Y-119741071D02*
X-117291964Y-118241071D01*
X-117649107Y-118241071D01*
X-117863392Y-118312500D01*
X-118006250Y-118455357D01*
X-118077678Y-118598214D01*
X-118149107Y-118883928D01*
X-118149107Y-119098214D01*
X-118077678Y-119383928D01*
X-118006250Y-119526785D01*
X-117863392Y-119669642D01*
X-117649107Y-119741071D01*
X-117291964Y-119741071D01*
X-118791964Y-118955357D02*
X-119291964Y-118955357D01*
X-119506250Y-119741071D02*
X-118791964Y-119741071D01*
X-118791964Y-118241071D01*
X-119506250Y-118241071D01*
D11*
X-106149107Y-116244642D02*
X-106101488Y-116292261D01*
X-105958630Y-116339880D01*
X-105863392Y-116339880D01*
X-105720535Y-116292261D01*
X-105625297Y-116197023D01*
X-105577678Y-116101785D01*
X-105530059Y-115911309D01*
X-105530059Y-115768452D01*
X-105577678Y-115577976D01*
X-105625297Y-115482738D01*
X-105720535Y-115387500D01*
X-105863392Y-115339880D01*
X-105958630Y-115339880D01*
X-106101488Y-115387500D01*
X-106149107Y-115435119D01*
X-107006250Y-115673214D02*
X-107006250Y-116339880D01*
X-106577678Y-115673214D02*
X-106577678Y-116197023D01*
X-106625297Y-116292261D01*
X-106720535Y-116339880D01*
X-106863392Y-116339880D01*
X-106958630Y-116292261D01*
X-107006250Y-116244642D01*
X-107434821Y-116292261D02*
X-107530059Y-116339880D01*
X-107720535Y-116339880D01*
X-107815773Y-116292261D01*
X-107863392Y-116197023D01*
X-107863392Y-116149404D01*
X-107815773Y-116054166D01*
X-107720535Y-116006547D01*
X-107577678Y-116006547D01*
X-107482440Y-115958928D01*
X-107434821Y-115863690D01*
X-107434821Y-115816071D01*
X-107482440Y-115720833D01*
X-107577678Y-115673214D01*
X-107720535Y-115673214D01*
X-107815773Y-115720833D01*
X-108149107Y-115673214D02*
X-108530059Y-115673214D01*
X-108291964Y-115339880D02*
X-108291964Y-116197023D01*
X-108339583Y-116292261D01*
X-108434821Y-116339880D01*
X-108530059Y-116339880D01*
X-109006250Y-116339880D02*
X-108911011Y-116292261D01*
X-108863392Y-116244642D01*
X-108815773Y-116149404D01*
X-108815773Y-115863690D01*
X-108863392Y-115768452D01*
X-108911011Y-115720833D01*
X-109006250Y-115673214D01*
X-109149107Y-115673214D01*
X-109244345Y-115720833D01*
X-109291964Y-115768452D01*
X-109339583Y-115863690D01*
X-109339583Y-116149404D01*
X-109291964Y-116244642D01*
X-109244345Y-116292261D01*
X-109149107Y-116339880D01*
X-109006250Y-116339880D01*
X-109768154Y-116339880D02*
X-109768154Y-115673214D01*
X-109768154Y-115768452D02*
X-109815773Y-115720833D01*
X-109911011Y-115673214D01*
X-110053869Y-115673214D01*
X-110149107Y-115720833D01*
X-110196726Y-115816071D01*
X-110196726Y-116339880D01*
X-110196726Y-115816071D02*
X-110244345Y-115720833D01*
X-110339583Y-115673214D01*
X-110482440Y-115673214D01*
X-110577678Y-115720833D01*
X-110625297Y-115816071D01*
X-110625297Y-116339880D01*
X-112196726Y-115816071D02*
X-112339583Y-115863690D01*
X-112387202Y-115911309D01*
X-112434821Y-116006547D01*
X-112434821Y-116149404D01*
X-112387202Y-116244642D01*
X-112339583Y-116292261D01*
X-112244345Y-116339880D01*
X-111863392Y-116339880D01*
X-111863392Y-115339880D01*
X-112196726Y-115339880D01*
X-112291964Y-115387500D01*
X-112339583Y-115435119D01*
X-112387202Y-115530357D01*
X-112387202Y-115625595D01*
X-112339583Y-115720833D01*
X-112291964Y-115768452D01*
X-112196726Y-115816071D01*
X-111863392Y-115816071D01*
X-113006250Y-116339880D02*
X-112911011Y-116292261D01*
X-112863392Y-116244642D01*
X-112815773Y-116149404D01*
X-112815773Y-115863690D01*
X-112863392Y-115768452D01*
X-112911011Y-115720833D01*
X-113006250Y-115673214D01*
X-113149107Y-115673214D01*
X-113244345Y-115720833D01*
X-113291964Y-115768452D01*
X-113339583Y-115863690D01*
X-113339583Y-116149404D01*
X-113291964Y-116244642D01*
X-113244345Y-116292261D01*
X-113149107Y-116339880D01*
X-113006250Y-116339880D01*
X-114196726Y-115673214D02*
X-114196726Y-116339880D01*
X-113768154Y-115673214D02*
X-113768154Y-116197023D01*
X-113815773Y-116292261D01*
X-113911011Y-116339880D01*
X-114053869Y-116339880D01*
X-114149107Y-116292261D01*
X-114196726Y-116244642D01*
X-114672916Y-116339880D02*
X-114672916Y-115673214D01*
X-114672916Y-115863690D02*
X-114720535Y-115768452D01*
X-114768154Y-115720833D01*
X-114863392Y-115673214D01*
X-114958630Y-115673214D01*
X-115291964Y-116339880D02*
X-115291964Y-115339880D01*
X-115291964Y-115720833D02*
X-115387202Y-115673214D01*
X-115577678Y-115673214D01*
X-115672916Y-115720833D01*
X-115720535Y-115768452D01*
X-115768154Y-115863690D01*
X-115768154Y-116149404D01*
X-115720535Y-116244642D01*
X-115672916Y-116292261D01*
X-115577678Y-116339880D01*
X-115387202Y-116339880D01*
X-115291964Y-116292261D01*
X-116339583Y-116339880D02*
X-116244345Y-116292261D01*
X-116196726Y-116244642D01*
X-116149107Y-116149404D01*
X-116149107Y-115863690D01*
X-116196726Y-115768452D01*
X-116244345Y-115720833D01*
X-116339583Y-115673214D01*
X-116482440Y-115673214D01*
X-116577678Y-115720833D01*
X-116625297Y-115768452D01*
X-116672916Y-115863690D01*
X-116672916Y-116149404D01*
X-116625297Y-116244642D01*
X-116577678Y-116292261D01*
X-116482440Y-116339880D01*
X-116339583Y-116339880D01*
X-117101488Y-115673214D02*
X-117101488Y-116339880D01*
X-117101488Y-115768452D02*
X-117149107Y-115720833D01*
X-117244345Y-115673214D01*
X-117387202Y-115673214D01*
X-117482440Y-115720833D01*
X-117530059Y-115816071D01*
X-117530059Y-116339880D01*
X-118672916Y-115673214D02*
X-118911011Y-116339880D01*
X-119149107Y-115673214D01*
X-119720535Y-115339880D02*
X-119815773Y-115339880D01*
X-119911011Y-115387500D01*
X-119958630Y-115435119D01*
X-120006250Y-115530357D01*
X-120053869Y-115720833D01*
X-120053869Y-115958928D01*
X-120006250Y-116149404D01*
X-119958630Y-116244642D01*
X-119911011Y-116292261D01*
X-119815773Y-116339880D01*
X-119720535Y-116339880D01*
X-119625297Y-116292261D01*
X-119577678Y-116244642D01*
X-119530059Y-116149404D01*
X-119482440Y-115958928D01*
X-119482440Y-115720833D01*
X-119530059Y-115530357D01*
X-119577678Y-115435119D01*
X-119625297Y-115387500D01*
X-119720535Y-115339880D01*
X-120482440Y-116244642D02*
X-120530059Y-116292261D01*
X-120482440Y-116339880D01*
X-120434821Y-116292261D01*
X-120482440Y-116244642D01*
X-120482440Y-116339880D01*
X-121387202Y-115673214D02*
X-121387202Y-116339880D01*
X-121149107Y-115292261D02*
X-120911011Y-116006547D01*
X-121530059Y-116006547D01*
D12*
X-140462436Y-117366923D02*
X-138037564Y-115966923D01*
X-138037564Y-115966923D02*
X-138937564Y-114408077D01*
X-138937564Y-114408077D02*
X-141362436Y-115808077D01*
X-141362436Y-115808077D02*
X-140462436Y-117366923D01*
X-140349519Y-116262500D02*
X-140003109Y-116062500D01*
X-140003109Y-116062500D02*
X-139728109Y-116538814D01*
X-140003109Y-116062500D02*
X-140278109Y-115586186D01*
X-140003109Y-116062500D02*
X-139283494Y-116108910D01*
X-139283494Y-116108910D02*
X-139683494Y-115416090D01*
X-139683494Y-115416090D02*
X-140003109Y-116062500D01*
X-139483494Y-115762500D02*
X-139050481Y-115512500D01*
X-95143750Y-142687500D02*
X-95143750Y-139887500D01*
X-95143750Y-139887500D02*
X-96943750Y-139887500D01*
X-96943750Y-139887500D02*
X-96943750Y-142687500D01*
X-96943750Y-142687500D02*
X-95143750Y-142687500D01*
X-96043750Y-142037500D02*
X-96043750Y-141637500D01*
X-96043750Y-141637500D02*
X-95493750Y-141637500D01*
X-96043750Y-141637500D02*
X-96593750Y-141637500D01*
X-96043750Y-141637500D02*
X-95643750Y-141037500D01*
X-95643750Y-141037500D02*
X-96443750Y-141037500D01*
X-96443750Y-141037500D02*
X-96043750Y-141637500D01*
X-96043750Y-141037500D02*
X-96043750Y-140537500D01*
X-76887500Y-142687500D02*
X-76887500Y-139887500D01*
X-76887500Y-139887500D02*
X-78687500Y-139887500D01*
X-78687500Y-139887500D02*
X-78687500Y-142687500D01*
X-78687500Y-142687500D02*
X-76887500Y-142687500D01*
X-77787500Y-142037500D02*
X-77787500Y-141637500D01*
X-77787500Y-141637500D02*
X-77237500Y-141637500D01*
X-77787500Y-141637500D02*
X-78337500Y-141637500D01*
X-77787500Y-141637500D02*
X-77387500Y-141037500D01*
X-77387500Y-141037500D02*
X-78187500Y-141037500D01*
X-78187500Y-141037500D02*
X-77787500Y-141637500D01*
X-77787500Y-141037500D02*
X-77787500Y-140537500D01*
X-72918750Y-117287500D02*
X-72918750Y-114487500D01*
X-72918750Y-114487500D02*
X-74718750Y-114487500D01*
X-74718750Y-114487500D02*
X-74718750Y-117287500D01*
X-74718750Y-117287500D02*
X-72918750Y-117287500D01*
X-73818750Y-116637500D02*
X-73818750Y-116237500D01*
X-73818750Y-116237500D02*
X-73268750Y-116237500D01*
X-73818750Y-116237500D02*
X-74368750Y-116237500D01*
X-73818750Y-116237500D02*
X-73418750Y-115637500D01*
X-73418750Y-115637500D02*
X-74218750Y-115637500D01*
X-74218750Y-115637500D02*
X-73818750Y-116237500D01*
X-73818750Y-115637500D02*
X-73818750Y-115137500D01*
X-53868750Y-136337500D02*
X-53868750Y-133537500D01*
X-53868750Y-133537500D02*
X-55668750Y-133537500D01*
X-55668750Y-133537500D02*
X-55668750Y-136337500D01*
X-55668750Y-136337500D02*
X-53868750Y-136337500D01*
X-54768750Y-135687500D02*
X-54768750Y-135287500D01*
X-54768750Y-135287500D02*
X-54218750Y-135287500D01*
X-54768750Y-135287500D02*
X-55318750Y-135287500D01*
X-54768750Y-135287500D02*
X-54368750Y-134687500D01*
X-54368750Y-134687500D02*
X-55168750Y-134687500D01*
X-55168750Y-134687500D02*
X-54768750Y-135287500D01*
X-54768750Y-134687500D02*
X-54768750Y-134187500D01*
X-39581250Y-136337500D02*
X-39581250Y-133537500D01*
X-39581250Y-133537500D02*
X-41381250Y-133537500D01*
X-41381250Y-133537500D02*
X-41381250Y-136337500D01*
X-41381250Y-136337500D02*
X-39581250Y-136337500D01*
X-40481250Y-135687500D02*
X-40481250Y-135287500D01*
X-40481250Y-135287500D02*
X-39931250Y-135287500D01*
X-40481250Y-135287500D02*
X-41031250Y-135287500D01*
X-40481250Y-135287500D02*
X-40081250Y-134687500D01*
X-40081250Y-134687500D02*
X-40881250Y-134687500D01*
X-40881250Y-134687500D02*
X-40481250Y-135287500D01*
X-40481250Y-134687500D02*
X-40481250Y-134187500D01*
X-157924936Y-127685673D02*
X-155500064Y-126285673D01*
X-155500064Y-126285673D02*
X-156400064Y-124726827D01*
X-156400064Y-124726827D02*
X-158824936Y-126126827D01*
X-158824936Y-126126827D02*
X-157924936Y-127685673D01*
X-157812019Y-126581250D02*
X-157465609Y-126381250D01*
X-157465609Y-126381250D02*
X-157190609Y-126857564D01*
X-157465609Y-126381250D02*
X-157740609Y-125904936D01*
X-157465609Y-126381250D02*
X-156745994Y-126427660D01*
X-156745994Y-126427660D02*
X-157145994Y-125734840D01*
X-157145994Y-125734840D02*
X-157465609Y-126381250D01*
X-156945994Y-126081250D02*
X-156512981Y-125831250D01*
X-124431250Y-108850000D02*
X-121631250Y-108850000D01*
X-121631250Y-108850000D02*
X-121631250Y-107050000D01*
X-121631250Y-107050000D02*
X-124431250Y-107050000D01*
X-124431250Y-107050000D02*
X-124431250Y-108850000D01*
X-123781250Y-107950000D02*
X-123381250Y-107950000D01*
X-123381250Y-107950000D02*
X-123381250Y-108500000D01*
X-123381250Y-107950000D02*
X-123381250Y-107400000D01*
X-123381250Y-107950000D02*
X-122781250Y-108350000D01*
X-122781250Y-108350000D02*
X-122781250Y-107550000D01*
X-122781250Y-107550000D02*
X-123381250Y-107950000D01*
X-122781250Y-107950000D02*
X-122281250Y-107950000D01*
X-105430000Y-106165000D02*
X-102630000Y-106165000D01*
X-102630000Y-106165000D02*
X-102630000Y-104365000D01*
X-102630000Y-104365000D02*
X-105430000Y-104365000D01*
X-105430000Y-104365000D02*
X-105430000Y-106165000D01*
X-104780000Y-105265000D02*
X-104380000Y-105265000D01*
X-104380000Y-105265000D02*
X-104380000Y-105815000D01*
X-104380000Y-105265000D02*
X-104380000Y-104715000D01*
X-104380000Y-105265000D02*
X-103780000Y-105665000D01*
X-103780000Y-105665000D02*
X-103780000Y-104865000D01*
X-103780000Y-104865000D02*
X-104380000Y-105265000D01*
X-103780000Y-105265000D02*
X-103280000Y-105265000D01*
X-86280000Y-102940000D02*
X-83480000Y-102940000D01*
X-83480000Y-102940000D02*
X-83480000Y-101140000D01*
X-83480000Y-101140000D02*
X-86280000Y-101140000D01*
X-86280000Y-101140000D02*
X-86280000Y-102940000D01*
X-85630000Y-102040000D02*
X-85230000Y-102040000D01*
X-85230000Y-102040000D02*
X-85230000Y-102590000D01*
X-85230000Y-102040000D02*
X-85230000Y-101490000D01*
X-85230000Y-102040000D02*
X-84630000Y-102440000D01*
X-84630000Y-102440000D02*
X-84630000Y-101640000D01*
X-84630000Y-101640000D02*
X-85230000Y-102040000D01*
X-84630000Y-102040000D02*
X-84130000Y-102040000D01*
X-67280000Y-109540000D02*
X-64480000Y-109540000D01*
X-64480000Y-109540000D02*
X-64480000Y-107740000D01*
X-64480000Y-107740000D02*
X-67280000Y-107740000D01*
X-67280000Y-107740000D02*
X-67280000Y-109540000D01*
X-66630000Y-108640000D02*
X-66230000Y-108640000D01*
X-66230000Y-108640000D02*
X-66230000Y-109190000D01*
X-66230000Y-108640000D02*
X-66230000Y-108090000D01*
X-66230000Y-108640000D02*
X-65630000Y-109040000D01*
X-65630000Y-109040000D02*
X-65630000Y-108240000D01*
X-65630000Y-108240000D02*
X-66230000Y-108640000D01*
X-65630000Y-108640000D02*
X-65130000Y-108640000D01*
X-48231250Y-125518750D02*
X-45431250Y-125518750D01*
X-45431250Y-125518750D02*
X-45431250Y-123718750D01*
X-45431250Y-123718750D02*
X-48231250Y-123718750D01*
X-48231250Y-123718750D02*
X-48231250Y-125518750D01*
X-47581250Y-124618750D02*
X-47181250Y-124618750D01*
X-47181250Y-124618750D02*
X-47181250Y-125168750D01*
X-47181250Y-124618750D02*
X-47181250Y-124068750D01*
X-47181250Y-124618750D02*
X-46581250Y-125018750D01*
X-46581250Y-125018750D02*
X-46581250Y-124218750D01*
X-46581250Y-124218750D02*
X-47181250Y-124618750D01*
X-46581250Y-124618750D02*
X-46081250Y-124618750D01*
X-29181250Y-125518750D02*
X-26381250Y-125518750D01*
X-26381250Y-125518750D02*
X-26381250Y-123718750D01*
X-26381250Y-123718750D02*
X-29181250Y-123718750D01*
X-29181250Y-123718750D02*
X-29181250Y-125518750D01*
X-28531250Y-124618750D02*
X-28131250Y-124618750D01*
X-28131250Y-124618750D02*
X-28131250Y-125168750D01*
X-28131250Y-124618750D02*
X-28131250Y-124068750D01*
X-28131250Y-124618750D02*
X-27531250Y-125018750D01*
X-27531250Y-125018750D02*
X-27531250Y-124218750D01*
X-27531250Y-124218750D02*
X-28131250Y-124618750D01*
X-27531250Y-124618750D02*
X-27031250Y-124618750D01*
X-149831250Y-84243750D02*
X-147031250Y-84243750D01*
X-147031250Y-84243750D02*
X-147031250Y-82443750D01*
X-147031250Y-82443750D02*
X-149831250Y-82443750D01*
X-149831250Y-82443750D02*
X-149831250Y-84243750D01*
X-149181250Y-83343750D02*
X-148781250Y-83343750D01*
X-148781250Y-83343750D02*
X-148781250Y-83893750D01*
X-148781250Y-83343750D02*
X-148781250Y-82793750D01*
X-148781250Y-83343750D02*
X-148181250Y-83743750D01*
X-148181250Y-83743750D02*
X-148181250Y-82943750D01*
X-148181250Y-82943750D02*
X-148781250Y-83343750D01*
X-148181250Y-83343750D02*
X-147681250Y-83343750D01*
X-124431250Y-90593750D02*
X-121631250Y-90593750D01*
X-121631250Y-90593750D02*
X-121631250Y-88793750D01*
X-121631250Y-88793750D02*
X-124431250Y-88793750D01*
X-124431250Y-88793750D02*
X-124431250Y-90593750D01*
X-123781250Y-89693750D02*
X-123381250Y-89693750D01*
X-123381250Y-89693750D02*
X-123381250Y-90243750D01*
X-123381250Y-89693750D02*
X-123381250Y-89143750D01*
X-123381250Y-89693750D02*
X-122781250Y-90093750D01*
X-122781250Y-90093750D02*
X-122781250Y-89293750D01*
X-122781250Y-89293750D02*
X-123381250Y-89693750D01*
X-122781250Y-89693750D02*
X-122281250Y-89693750D01*
X-105430000Y-87115000D02*
X-102630000Y-87115000D01*
X-102630000Y-87115000D02*
X-102630000Y-85315000D01*
X-102630000Y-85315000D02*
X-105430000Y-85315000D01*
X-105430000Y-85315000D02*
X-105430000Y-87115000D01*
X-104780000Y-86215000D02*
X-104380000Y-86215000D01*
X-104380000Y-86215000D02*
X-104380000Y-86765000D01*
X-104380000Y-86215000D02*
X-104380000Y-85665000D01*
X-104380000Y-86215000D02*
X-103780000Y-86615000D01*
X-103780000Y-86615000D02*
X-103780000Y-85815000D01*
X-103780000Y-85815000D02*
X-104380000Y-86215000D01*
X-103780000Y-86215000D02*
X-103280000Y-86215000D01*
X-86280000Y-83890000D02*
X-83480000Y-83890000D01*
X-83480000Y-83890000D02*
X-83480000Y-82090000D01*
X-83480000Y-82090000D02*
X-86280000Y-82090000D01*
X-86280000Y-82090000D02*
X-86280000Y-83890000D01*
X-85630000Y-82990000D02*
X-85230000Y-82990000D01*
X-85230000Y-82990000D02*
X-85230000Y-83540000D01*
X-85230000Y-82990000D02*
X-85230000Y-82440000D01*
X-85230000Y-82990000D02*
X-84630000Y-83390000D01*
X-84630000Y-83390000D02*
X-84630000Y-82590000D01*
X-84630000Y-82590000D02*
X-85230000Y-82990000D01*
X-84630000Y-82990000D02*
X-84130000Y-82990000D01*
X-67280000Y-90490000D02*
X-64480000Y-90490000D01*
X-64480000Y-90490000D02*
X-64480000Y-88690000D01*
X-64480000Y-88690000D02*
X-67280000Y-88690000D01*
X-67280000Y-88690000D02*
X-67280000Y-90490000D01*
X-66630000Y-89590000D02*
X-66230000Y-89590000D01*
X-66230000Y-89590000D02*
X-66230000Y-90140000D01*
X-66230000Y-89590000D02*
X-66230000Y-89040000D01*
X-66230000Y-89590000D02*
X-65630000Y-89990000D01*
X-65630000Y-89990000D02*
X-65630000Y-89190000D01*
X-65630000Y-89190000D02*
X-66230000Y-89590000D01*
X-65630000Y-89590000D02*
X-65130000Y-89590000D01*
X-48231250Y-106468750D02*
X-45431250Y-106468750D01*
X-45431250Y-106468750D02*
X-45431250Y-104668750D01*
X-45431250Y-104668750D02*
X-48231250Y-104668750D01*
X-48231250Y-104668750D02*
X-48231250Y-106468750D01*
X-47581250Y-105568750D02*
X-47181250Y-105568750D01*
X-47181250Y-105568750D02*
X-47181250Y-106118750D01*
X-47181250Y-105568750D02*
X-47181250Y-105018750D01*
X-47181250Y-105568750D02*
X-46581250Y-105968750D01*
X-46581250Y-105968750D02*
X-46581250Y-105168750D01*
X-46581250Y-105168750D02*
X-47181250Y-105568750D01*
X-46581250Y-105568750D02*
X-46081250Y-105568750D01*
X-29181250Y-106468750D02*
X-26381250Y-106468750D01*
X-26381250Y-106468750D02*
X-26381250Y-104668750D01*
X-26381250Y-104668750D02*
X-29181250Y-104668750D01*
X-29181250Y-104668750D02*
X-29181250Y-106468750D01*
X-28531250Y-105568750D02*
X-28131250Y-105568750D01*
X-28131250Y-105568750D02*
X-28131250Y-106118750D01*
X-28131250Y-105568750D02*
X-28131250Y-105018750D01*
X-28131250Y-105568750D02*
X-27531250Y-105968750D01*
X-27531250Y-105968750D02*
X-27531250Y-105168750D01*
X-27531250Y-105168750D02*
X-28131250Y-105568750D01*
X-27531250Y-105568750D02*
X-27031250Y-105568750D01*
X-124431250Y-71543750D02*
X-121631250Y-71543750D01*
X-121631250Y-71543750D02*
X-121631250Y-69743750D01*
X-121631250Y-69743750D02*
X-124431250Y-69743750D01*
X-124431250Y-69743750D02*
X-124431250Y-71543750D01*
X-123781250Y-70643750D02*
X-123381250Y-70643750D01*
X-123381250Y-70643750D02*
X-123381250Y-71193750D01*
X-123381250Y-70643750D02*
X-123381250Y-70093750D01*
X-123381250Y-70643750D02*
X-122781250Y-71043750D01*
X-122781250Y-71043750D02*
X-122781250Y-70243750D01*
X-122781250Y-70243750D02*
X-123381250Y-70643750D01*
X-122781250Y-70643750D02*
X-122281250Y-70643750D01*
X-105430000Y-68065000D02*
X-102630000Y-68065000D01*
X-102630000Y-68065000D02*
X-102630000Y-66265000D01*
X-102630000Y-66265000D02*
X-105430000Y-66265000D01*
X-105430000Y-66265000D02*
X-105430000Y-68065000D01*
X-104780000Y-67165000D02*
X-104380000Y-67165000D01*
X-104380000Y-67165000D02*
X-104380000Y-67715000D01*
X-104380000Y-67165000D02*
X-104380000Y-66615000D01*
X-104380000Y-67165000D02*
X-103780000Y-67565000D01*
X-103780000Y-67565000D02*
X-103780000Y-66765000D01*
X-103780000Y-66765000D02*
X-104380000Y-67165000D01*
X-103780000Y-67165000D02*
X-103280000Y-67165000D01*
X-86280000Y-64840000D02*
X-83480000Y-64840000D01*
X-83480000Y-64840000D02*
X-83480000Y-63040000D01*
X-83480000Y-63040000D02*
X-86280000Y-63040000D01*
X-86280000Y-63040000D02*
X-86280000Y-64840000D01*
X-85630000Y-63940000D02*
X-85230000Y-63940000D01*
X-85230000Y-63940000D02*
X-85230000Y-64490000D01*
X-85230000Y-63940000D02*
X-85230000Y-63390000D01*
X-85230000Y-63940000D02*
X-84630000Y-64340000D01*
X-84630000Y-64340000D02*
X-84630000Y-63540000D01*
X-84630000Y-63540000D02*
X-85230000Y-63940000D01*
X-84630000Y-63940000D02*
X-84130000Y-63940000D01*
X-67280000Y-71440000D02*
X-64480000Y-71440000D01*
X-64480000Y-71440000D02*
X-64480000Y-69640000D01*
X-64480000Y-69640000D02*
X-67280000Y-69640000D01*
X-67280000Y-69640000D02*
X-67280000Y-71440000D01*
X-66630000Y-70540000D02*
X-66230000Y-70540000D01*
X-66230000Y-70540000D02*
X-66230000Y-71090000D01*
X-66230000Y-70540000D02*
X-66230000Y-69990000D01*
X-66230000Y-70540000D02*
X-65630000Y-70940000D01*
X-65630000Y-70940000D02*
X-65630000Y-70140000D01*
X-65630000Y-70140000D02*
X-66230000Y-70540000D01*
X-65630000Y-70540000D02*
X-65130000Y-70540000D01*
X-48231250Y-87418750D02*
X-45431250Y-87418750D01*
X-45431250Y-87418750D02*
X-45431250Y-85618750D01*
X-45431250Y-85618750D02*
X-48231250Y-85618750D01*
X-48231250Y-85618750D02*
X-48231250Y-87418750D01*
X-47581250Y-86518750D02*
X-47181250Y-86518750D01*
X-47181250Y-86518750D02*
X-47181250Y-87068750D01*
X-47181250Y-86518750D02*
X-47181250Y-85968750D01*
X-47181250Y-86518750D02*
X-46581250Y-86918750D01*
X-46581250Y-86918750D02*
X-46581250Y-86118750D01*
X-46581250Y-86118750D02*
X-47181250Y-86518750D01*
X-46581250Y-86518750D02*
X-46081250Y-86518750D01*
X-29181250Y-87418750D02*
X-26381250Y-87418750D01*
X-26381250Y-87418750D02*
X-26381250Y-85618750D01*
X-26381250Y-85618750D02*
X-29181250Y-85618750D01*
X-29181250Y-85618750D02*
X-29181250Y-87418750D01*
X-28531250Y-86518750D02*
X-28131250Y-86518750D01*
X-28131250Y-86518750D02*
X-28131250Y-87068750D01*
X-28131250Y-86518750D02*
X-28131250Y-85968750D01*
X-28131250Y-86518750D02*
X-27531250Y-86918750D01*
X-27531250Y-86918750D02*
X-27531250Y-86118750D01*
X-27531250Y-86118750D02*
X-28131250Y-86518750D01*
X-27531250Y-86518750D02*
X-27031250Y-86518750D01*
X-143481250Y-52493750D02*
X-140681250Y-52493750D01*
X-140681250Y-52493750D02*
X-140681250Y-50693750D01*
X-140681250Y-50693750D02*
X-143481250Y-50693750D01*
X-143481250Y-50693750D02*
X-143481250Y-52493750D01*
X-142831250Y-51593750D02*
X-142431250Y-51593750D01*
X-142431250Y-51593750D02*
X-142431250Y-52143750D01*
X-142431250Y-51593750D02*
X-142431250Y-51043750D01*
X-142431250Y-51593750D02*
X-141831250Y-51993750D01*
X-141831250Y-51993750D02*
X-141831250Y-51193750D01*
X-141831250Y-51193750D02*
X-142431250Y-51593750D01*
X-141831250Y-51593750D02*
X-141331250Y-51593750D01*
X-124431250Y-52493750D02*
X-121631250Y-52493750D01*
X-121631250Y-52493750D02*
X-121631250Y-50693750D01*
X-121631250Y-50693750D02*
X-124431250Y-50693750D01*
X-124431250Y-50693750D02*
X-124431250Y-52493750D01*
X-123781250Y-51593750D02*
X-123381250Y-51593750D01*
X-123381250Y-51593750D02*
X-123381250Y-52143750D01*
X-123381250Y-51593750D02*
X-123381250Y-51043750D01*
X-123381250Y-51593750D02*
X-122781250Y-51993750D01*
X-122781250Y-51993750D02*
X-122781250Y-51193750D01*
X-122781250Y-51193750D02*
X-123381250Y-51593750D01*
X-122781250Y-51593750D02*
X-122281250Y-51593750D01*
X-105430000Y-49015000D02*
X-102630000Y-49015000D01*
X-102630000Y-49015000D02*
X-102630000Y-47215000D01*
X-102630000Y-47215000D02*
X-105430000Y-47215000D01*
X-105430000Y-47215000D02*
X-105430000Y-49015000D01*
X-104780000Y-48115000D02*
X-104380000Y-48115000D01*
X-104380000Y-48115000D02*
X-104380000Y-48665000D01*
X-104380000Y-48115000D02*
X-104380000Y-47565000D01*
X-104380000Y-48115000D02*
X-103780000Y-48515000D01*
X-103780000Y-48515000D02*
X-103780000Y-47715000D01*
X-103780000Y-47715000D02*
X-104380000Y-48115000D01*
X-103780000Y-48115000D02*
X-103280000Y-48115000D01*
X-86280000Y-45790000D02*
X-83480000Y-45790000D01*
X-83480000Y-45790000D02*
X-83480000Y-43990000D01*
X-83480000Y-43990000D02*
X-86280000Y-43990000D01*
X-86280000Y-43990000D02*
X-86280000Y-45790000D01*
X-85630000Y-44890000D02*
X-85230000Y-44890000D01*
X-85230000Y-44890000D02*
X-85230000Y-45440000D01*
X-85230000Y-44890000D02*
X-85230000Y-44340000D01*
X-85230000Y-44890000D02*
X-84630000Y-45290000D01*
X-84630000Y-45290000D02*
X-84630000Y-44490000D01*
X-84630000Y-44490000D02*
X-85230000Y-44890000D01*
X-84630000Y-44890000D02*
X-84130000Y-44890000D01*
X-67280000Y-52390000D02*
X-64480000Y-52390000D01*
X-64480000Y-52390000D02*
X-64480000Y-50590000D01*
X-64480000Y-50590000D02*
X-67280000Y-50590000D01*
X-67280000Y-50590000D02*
X-67280000Y-52390000D01*
X-66630000Y-51490000D02*
X-66230000Y-51490000D01*
X-66230000Y-51490000D02*
X-66230000Y-52040000D01*
X-66230000Y-51490000D02*
X-66230000Y-50940000D01*
X-66230000Y-51490000D02*
X-65630000Y-51890000D01*
X-65630000Y-51890000D02*
X-65630000Y-51090000D01*
X-65630000Y-51090000D02*
X-66230000Y-51490000D01*
X-65630000Y-51490000D02*
X-65130000Y-51490000D01*
X-48231250Y-68368750D02*
X-45431250Y-68368750D01*
X-45431250Y-68368750D02*
X-45431250Y-66568750D01*
X-45431250Y-66568750D02*
X-48231250Y-66568750D01*
X-48231250Y-66568750D02*
X-48231250Y-68368750D01*
X-47581250Y-67468750D02*
X-47181250Y-67468750D01*
X-47181250Y-67468750D02*
X-47181250Y-68018750D01*
X-47181250Y-67468750D02*
X-47181250Y-66918750D01*
X-47181250Y-67468750D02*
X-46581250Y-67868750D01*
X-46581250Y-67868750D02*
X-46581250Y-67068750D01*
X-46581250Y-67068750D02*
X-47181250Y-67468750D01*
X-46581250Y-67468750D02*
X-46081250Y-67468750D01*
X-29181250Y-68368750D02*
X-26381250Y-68368750D01*
X-26381250Y-68368750D02*
X-26381250Y-66568750D01*
X-26381250Y-66568750D02*
X-29181250Y-66568750D01*
X-29181250Y-66568750D02*
X-29181250Y-68368750D01*
X-28531250Y-67468750D02*
X-28131250Y-67468750D01*
X-28131250Y-67468750D02*
X-28131250Y-68018750D01*
X-28131250Y-67468750D02*
X-28131250Y-66918750D01*
X-28131250Y-67468750D02*
X-27531250Y-67868750D01*
X-27531250Y-67868750D02*
X-27531250Y-67068750D01*
X-27531250Y-67068750D02*
X-28131250Y-67468750D01*
X-27531250Y-67468750D02*
X-27031250Y-67468750D01*
D11*
X-176800000Y-66762500D02*
X-176800000Y-69762500D01*
X-176800000Y-69762500D02*
X-178800000Y-69762500D01*
X-178800000Y-69762500D02*
X-178800000Y-66762500D01*
X-178800000Y-66762500D02*
X-176800000Y-66762500D01*
X-176418750Y-69762500D02*
X-176418750Y-66762500D01*
X-176418750Y-66762500D02*
X-174418750Y-66762500D01*
X-174418750Y-66762500D02*
X-174418750Y-69762500D01*
X-174418750Y-69762500D02*
X-176418750Y-69762500D01*
X-179070000Y-59848750D02*
X-168910000Y-59848750D01*
X-168910000Y-59848750D02*
X-168910000Y-62388750D01*
X-168910000Y-62388750D02*
X-179070000Y-62388750D01*
X-179070000Y-62388750D02*
X-179070000Y-59848750D01*
D13*
X-180975000Y-28575000D02*
X-183515000Y-28575000D01*
X-180975000Y-26035000D02*
X-180975000Y-28575000D01*
D11*
G36*
X-168580365Y-32324030D02*
G01*
X-168580365Y-32424030D01*
X-168480365Y-32424030D01*
X-168480365Y-32324030D01*
X-168580365Y-32324030D01*
G37*
X-168580365Y-32324030D02*
X-168580365Y-32424030D01*
X-168480365Y-32424030D01*
X-168480365Y-32324030D01*
X-168580365Y-32324030D01*
G36*
X-168380365Y-31924030D02*
G01*
X-168380365Y-32724030D01*
X-168280365Y-32724030D01*
X-168280365Y-31924030D01*
X-168380365Y-31924030D01*
G37*
X-168380365Y-31924030D02*
X-168380365Y-32724030D01*
X-168280365Y-32724030D01*
X-168280365Y-31924030D01*
X-168380365Y-31924030D01*
G36*
X-168780365Y-32524030D02*
G01*
X-168780365Y-32724030D01*
X-168680365Y-32724030D01*
X-168680365Y-32524030D01*
X-168780365Y-32524030D01*
G37*
X-168780365Y-32524030D02*
X-168780365Y-32724030D01*
X-168680365Y-32724030D01*
X-168680365Y-32524030D01*
X-168780365Y-32524030D01*
G36*
X-168780365Y-31924030D02*
G01*
X-168780365Y-32224030D01*
X-168680365Y-32224030D01*
X-168680365Y-31924030D01*
X-168780365Y-31924030D01*
G37*
X-168780365Y-31924030D02*
X-168780365Y-32224030D01*
X-168680365Y-32224030D01*
X-168680365Y-31924030D01*
X-168780365Y-31924030D01*
G36*
X-168780365Y-31924030D02*
G01*
X-168780365Y-32024030D01*
X-168280365Y-32024030D01*
X-168280365Y-31924030D01*
X-168780365Y-31924030D01*
G37*
X-168780365Y-31924030D02*
X-168780365Y-32024030D01*
X-168280365Y-32024030D01*
X-168280365Y-31924030D01*
X-168780365Y-31924030D01*
D13*
X-165735000Y-56515000D02*
X-165735000Y-23495000D01*
X-183515000Y-56515000D02*
X-165735000Y-56515000D01*
X-183515000Y-23495000D02*
X-183515000Y-56515000D01*
X-165735000Y-23495000D02*
X-183515000Y-23495000D01*
X-180975000Y-26035000D02*
X-183515000Y-26035000D01*
D11*
X-137422207Y-117404181D02*
X-137922207Y-116538156D01*
X-138128403Y-116657203D01*
X-138228312Y-116769871D01*
X-138263171Y-116899969D01*
X-138256791Y-117006257D01*
X-138202793Y-117195024D01*
X-138131364Y-117318742D01*
X-137994887Y-117459889D01*
X-137906028Y-117518558D01*
X-137775931Y-117553418D01*
X-137628403Y-117523229D01*
X-137422207Y-117404181D01*
X-138992719Y-117541116D02*
X-138659386Y-118118467D01*
X-138976999Y-117092154D02*
X-138413660Y-117591696D01*
X-138949770Y-117901220D01*
X-140025411Y-117752441D02*
X-139613018Y-117514346D01*
X-139333684Y-117902930D01*
X-139398733Y-117885500D01*
X-139505021Y-117891880D01*
X-139711217Y-118010927D01*
X-139769886Y-118099786D01*
X-139787316Y-118164834D01*
X-139780936Y-118271123D01*
X-139661889Y-118477319D01*
X-139573030Y-118535988D01*
X-139507982Y-118553418D01*
X-139401693Y-118547038D01*
X-139195497Y-118427991D01*
X-139136828Y-118339132D01*
X-139119398Y-118274083D01*
X-93591369Y-140073214D02*
X-94591369Y-140073214D01*
X-94591369Y-140311309D01*
X-94543750Y-140454166D01*
X-94448511Y-140549404D01*
X-94353273Y-140597023D01*
X-94162797Y-140644642D01*
X-94019940Y-140644642D01*
X-93829464Y-140597023D01*
X-93734226Y-140549404D01*
X-93638988Y-140454166D01*
X-93591369Y-140311309D01*
X-93591369Y-140073214D01*
X-94258035Y-141501785D02*
X-93591369Y-141501785D01*
X-94638988Y-141263690D02*
X-93924702Y-141025595D01*
X-93924702Y-141644642D01*
X-94258035Y-142454166D02*
X-93591369Y-142454166D01*
X-94638988Y-142216071D02*
X-93924702Y-141977976D01*
X-93924702Y-142597023D01*
X-75335119Y-140073214D02*
X-76335119Y-140073214D01*
X-76335119Y-140311309D01*
X-76287500Y-140454166D01*
X-76192261Y-140549404D01*
X-76097023Y-140597023D01*
X-75906547Y-140644642D01*
X-75763690Y-140644642D01*
X-75573214Y-140597023D01*
X-75477976Y-140549404D01*
X-75382738Y-140454166D01*
X-75335119Y-140311309D01*
X-75335119Y-140073214D01*
X-76001785Y-141501785D02*
X-75335119Y-141501785D01*
X-76382738Y-141263690D02*
X-75668452Y-141025595D01*
X-75668452Y-141644642D01*
X-76335119Y-141930357D02*
X-76335119Y-142549404D01*
X-75954166Y-142216071D01*
X-75954166Y-142358928D01*
X-75906547Y-142454166D01*
X-75858928Y-142501785D01*
X-75763690Y-142549404D01*
X-75525595Y-142549404D01*
X-75430357Y-142501785D01*
X-75382738Y-142454166D01*
X-75335119Y-142358928D01*
X-75335119Y-142073214D01*
X-75382738Y-141977976D01*
X-75430357Y-141930357D01*
X-71366369Y-114673214D02*
X-72366369Y-114673214D01*
X-72366369Y-114911309D01*
X-72318750Y-115054166D01*
X-72223511Y-115149404D01*
X-72128273Y-115197023D01*
X-71937797Y-115244642D01*
X-71794940Y-115244642D01*
X-71604464Y-115197023D01*
X-71509226Y-115149404D01*
X-71413988Y-115054166D01*
X-71366369Y-114911309D01*
X-71366369Y-114673214D01*
X-72033035Y-116101785D02*
X-71366369Y-116101785D01*
X-72413988Y-115863690D02*
X-71699702Y-115625595D01*
X-71699702Y-116244642D01*
X-72271130Y-116577976D02*
X-72318750Y-116625595D01*
X-72366369Y-116720833D01*
X-72366369Y-116958928D01*
X-72318750Y-117054166D01*
X-72271130Y-117101785D01*
X-72175892Y-117149404D01*
X-72080654Y-117149404D01*
X-71937797Y-117101785D01*
X-71366369Y-116530357D01*
X-71366369Y-117149404D01*
X-52316369Y-133723214D02*
X-53316369Y-133723214D01*
X-53316369Y-133961309D01*
X-53268750Y-134104166D01*
X-53173511Y-134199404D01*
X-53078273Y-134247023D01*
X-52887797Y-134294642D01*
X-52744940Y-134294642D01*
X-52554464Y-134247023D01*
X-52459226Y-134199404D01*
X-52363988Y-134104166D01*
X-52316369Y-133961309D01*
X-52316369Y-133723214D01*
X-52983035Y-135151785D02*
X-52316369Y-135151785D01*
X-53363988Y-134913690D02*
X-52649702Y-134675595D01*
X-52649702Y-135294642D01*
X-52316369Y-136199404D02*
X-52316369Y-135627976D01*
X-52316369Y-135913690D02*
X-53316369Y-135913690D01*
X-53173511Y-135818452D01*
X-53078273Y-135723214D01*
X-53030654Y-135627976D01*
X-38028869Y-133723214D02*
X-39028869Y-133723214D01*
X-39028869Y-133961309D01*
X-38981250Y-134104166D01*
X-38886011Y-134199404D01*
X-38790773Y-134247023D01*
X-38600297Y-134294642D01*
X-38457440Y-134294642D01*
X-38266964Y-134247023D01*
X-38171726Y-134199404D01*
X-38076488Y-134104166D01*
X-38028869Y-133961309D01*
X-38028869Y-133723214D01*
X-38695535Y-135151785D02*
X-38028869Y-135151785D01*
X-39076488Y-134913690D02*
X-38362202Y-134675595D01*
X-38362202Y-135294642D01*
X-39028869Y-135866071D02*
X-39028869Y-135961309D01*
X-38981250Y-136056547D01*
X-38933630Y-136104166D01*
X-38838392Y-136151785D01*
X-38647916Y-136199404D01*
X-38409821Y-136199404D01*
X-38219345Y-136151785D01*
X-38124107Y-136104166D01*
X-38076488Y-136056547D01*
X-38028869Y-135961309D01*
X-38028869Y-135866071D01*
X-38076488Y-135770833D01*
X-38124107Y-135723214D01*
X-38219345Y-135675595D01*
X-38409821Y-135627976D01*
X-38647916Y-135627976D01*
X-38838392Y-135675595D01*
X-38933630Y-135723214D01*
X-38981250Y-135770833D01*
X-39028869Y-135866071D01*
X-154884707Y-127722931D02*
X-155384707Y-126856906D01*
X-155590903Y-126975953D01*
X-155690812Y-127088621D01*
X-155725671Y-127218719D01*
X-155719291Y-127325007D01*
X-155665293Y-127513774D01*
X-155593864Y-127637492D01*
X-155457387Y-127778639D01*
X-155368528Y-127837308D01*
X-155238431Y-127872168D01*
X-155090903Y-127841979D01*
X-154884707Y-127722931D01*
X-156168254Y-127309287D02*
X-156704365Y-127618810D01*
X-156225213Y-127782058D01*
X-156348931Y-127853487D01*
X-156407600Y-127942345D01*
X-156425030Y-128007394D01*
X-156418650Y-128113682D01*
X-156299603Y-128319879D01*
X-156210744Y-128378548D01*
X-156145695Y-128395977D01*
X-156039407Y-128389598D01*
X-155791971Y-128246741D01*
X-155733302Y-128157882D01*
X-155715873Y-128092833D01*
X-157446672Y-128047382D02*
X-157281715Y-127952144D01*
X-157175427Y-127945764D01*
X-157110378Y-127963194D01*
X-156956471Y-128039293D01*
X-156819993Y-128180440D01*
X-156629517Y-128510355D01*
X-156623137Y-128616643D01*
X-156640567Y-128681692D01*
X-156699236Y-128770550D01*
X-156864193Y-128865788D01*
X-156970482Y-128872168D01*
X-157035530Y-128854738D01*
X-157124389Y-128796069D01*
X-157243436Y-128589873D01*
X-157249816Y-128483584D01*
X-157232386Y-128418536D01*
X-157173717Y-128329677D01*
X-157008760Y-128234439D01*
X-156902472Y-128228059D01*
X-156837423Y-128245489D01*
X-156748565Y-128304158D01*
X-121816964Y-110402380D02*
X-121816964Y-109402380D01*
X-122055059Y-109402380D01*
X-122197916Y-109450000D01*
X-122293154Y-109545238D01*
X-122340773Y-109640476D01*
X-122388392Y-109830952D01*
X-122388392Y-109973809D01*
X-122340773Y-110164285D01*
X-122293154Y-110259523D01*
X-122197916Y-110354761D01*
X-122055059Y-110402380D01*
X-121816964Y-110402380D01*
X-122721726Y-109402380D02*
X-123340773Y-109402380D01*
X-123007440Y-109783333D01*
X-123150297Y-109783333D01*
X-123245535Y-109830952D01*
X-123293154Y-109878571D01*
X-123340773Y-109973809D01*
X-123340773Y-110211904D01*
X-123293154Y-110307142D01*
X-123245535Y-110354761D01*
X-123150297Y-110402380D01*
X-122864583Y-110402380D01*
X-122769345Y-110354761D01*
X-122721726Y-110307142D01*
X-124245535Y-109402380D02*
X-123769345Y-109402380D01*
X-123721726Y-109878571D01*
X-123769345Y-109830952D01*
X-123864583Y-109783333D01*
X-124102678Y-109783333D01*
X-124197916Y-109830952D01*
X-124245535Y-109878571D01*
X-124293154Y-109973809D01*
X-124293154Y-110211904D01*
X-124245535Y-110307142D01*
X-124197916Y-110354761D01*
X-124102678Y-110402380D01*
X-123864583Y-110402380D01*
X-123769345Y-110354761D01*
X-123721726Y-110307142D01*
X-102815714Y-107717380D02*
X-102815714Y-106717380D01*
X-103053809Y-106717380D01*
X-103196666Y-106765000D01*
X-103291904Y-106860238D01*
X-103339523Y-106955476D01*
X-103387142Y-107145952D01*
X-103387142Y-107288809D01*
X-103339523Y-107479285D01*
X-103291904Y-107574523D01*
X-103196666Y-107669761D01*
X-103053809Y-107717380D01*
X-102815714Y-107717380D01*
X-103720476Y-106717380D02*
X-104339523Y-106717380D01*
X-104006190Y-107098333D01*
X-104149047Y-107098333D01*
X-104244285Y-107145952D01*
X-104291904Y-107193571D01*
X-104339523Y-107288809D01*
X-104339523Y-107526904D01*
X-104291904Y-107622142D01*
X-104244285Y-107669761D01*
X-104149047Y-107717380D01*
X-103863333Y-107717380D01*
X-103768095Y-107669761D01*
X-103720476Y-107622142D01*
X-105196666Y-107050714D02*
X-105196666Y-107717380D01*
X-104958571Y-106669761D02*
X-104720476Y-107384047D01*
X-105339523Y-107384047D01*
X-83665714Y-104492380D02*
X-83665714Y-103492380D01*
X-83903809Y-103492380D01*
X-84046666Y-103540000D01*
X-84141904Y-103635238D01*
X-84189523Y-103730476D01*
X-84237142Y-103920952D01*
X-84237142Y-104063809D01*
X-84189523Y-104254285D01*
X-84141904Y-104349523D01*
X-84046666Y-104444761D01*
X-83903809Y-104492380D01*
X-83665714Y-104492380D01*
X-84570476Y-103492380D02*
X-85189523Y-103492380D01*
X-84856190Y-103873333D01*
X-84999047Y-103873333D01*
X-85094285Y-103920952D01*
X-85141904Y-103968571D01*
X-85189523Y-104063809D01*
X-85189523Y-104301904D01*
X-85141904Y-104397142D01*
X-85094285Y-104444761D01*
X-84999047Y-104492380D01*
X-84713333Y-104492380D01*
X-84618095Y-104444761D01*
X-84570476Y-104397142D01*
X-85522857Y-103492380D02*
X-86141904Y-103492380D01*
X-85808571Y-103873333D01*
X-85951428Y-103873333D01*
X-86046666Y-103920952D01*
X-86094285Y-103968571D01*
X-86141904Y-104063809D01*
X-86141904Y-104301904D01*
X-86094285Y-104397142D01*
X-86046666Y-104444761D01*
X-85951428Y-104492380D01*
X-85665714Y-104492380D01*
X-85570476Y-104444761D01*
X-85522857Y-104397142D01*
X-64665714Y-111092380D02*
X-64665714Y-110092380D01*
X-64903809Y-110092380D01*
X-65046666Y-110140000D01*
X-65141904Y-110235238D01*
X-65189523Y-110330476D01*
X-65237142Y-110520952D01*
X-65237142Y-110663809D01*
X-65189523Y-110854285D01*
X-65141904Y-110949523D01*
X-65046666Y-111044761D01*
X-64903809Y-111092380D01*
X-64665714Y-111092380D01*
X-65570476Y-110092380D02*
X-66189523Y-110092380D01*
X-65856190Y-110473333D01*
X-65999047Y-110473333D01*
X-66094285Y-110520952D01*
X-66141904Y-110568571D01*
X-66189523Y-110663809D01*
X-66189523Y-110901904D01*
X-66141904Y-110997142D01*
X-66094285Y-111044761D01*
X-65999047Y-111092380D01*
X-65713333Y-111092380D01*
X-65618095Y-111044761D01*
X-65570476Y-110997142D01*
X-66570476Y-110187619D02*
X-66618095Y-110140000D01*
X-66713333Y-110092380D01*
X-66951428Y-110092380D01*
X-67046666Y-110140000D01*
X-67094285Y-110187619D01*
X-67141904Y-110282857D01*
X-67141904Y-110378095D01*
X-67094285Y-110520952D01*
X-66522857Y-111092380D01*
X-67141904Y-111092380D01*
X-45616964Y-127071130D02*
X-45616964Y-126071130D01*
X-45855059Y-126071130D01*
X-45997916Y-126118750D01*
X-46093154Y-126213988D01*
X-46140773Y-126309226D01*
X-46188392Y-126499702D01*
X-46188392Y-126642559D01*
X-46140773Y-126833035D01*
X-46093154Y-126928273D01*
X-45997916Y-127023511D01*
X-45855059Y-127071130D01*
X-45616964Y-127071130D01*
X-46521726Y-126071130D02*
X-47140773Y-126071130D01*
X-46807440Y-126452083D01*
X-46950297Y-126452083D01*
X-47045535Y-126499702D01*
X-47093154Y-126547321D01*
X-47140773Y-126642559D01*
X-47140773Y-126880654D01*
X-47093154Y-126975892D01*
X-47045535Y-127023511D01*
X-46950297Y-127071130D01*
X-46664583Y-127071130D01*
X-46569345Y-127023511D01*
X-46521726Y-126975892D01*
X-48093154Y-127071130D02*
X-47521726Y-127071130D01*
X-47807440Y-127071130D02*
X-47807440Y-126071130D01*
X-47712202Y-126213988D01*
X-47616964Y-126309226D01*
X-47521726Y-126356845D01*
X-26566964Y-127071130D02*
X-26566964Y-126071130D01*
X-26805059Y-126071130D01*
X-26947916Y-126118750D01*
X-27043154Y-126213988D01*
X-27090773Y-126309226D01*
X-27138392Y-126499702D01*
X-27138392Y-126642559D01*
X-27090773Y-126833035D01*
X-27043154Y-126928273D01*
X-26947916Y-127023511D01*
X-26805059Y-127071130D01*
X-26566964Y-127071130D01*
X-27471726Y-126071130D02*
X-28090773Y-126071130D01*
X-27757440Y-126452083D01*
X-27900297Y-126452083D01*
X-27995535Y-126499702D01*
X-28043154Y-126547321D01*
X-28090773Y-126642559D01*
X-28090773Y-126880654D01*
X-28043154Y-126975892D01*
X-27995535Y-127023511D01*
X-27900297Y-127071130D01*
X-27614583Y-127071130D01*
X-27519345Y-127023511D01*
X-27471726Y-126975892D01*
X-28709821Y-126071130D02*
X-28805059Y-126071130D01*
X-28900297Y-126118750D01*
X-28947916Y-126166369D01*
X-28995535Y-126261607D01*
X-29043154Y-126452083D01*
X-29043154Y-126690178D01*
X-28995535Y-126880654D01*
X-28947916Y-126975892D01*
X-28900297Y-127023511D01*
X-28805059Y-127071130D01*
X-28709821Y-127071130D01*
X-28614583Y-127023511D01*
X-28566964Y-126975892D01*
X-28519345Y-126880654D01*
X-28471726Y-126690178D01*
X-28471726Y-126452083D01*
X-28519345Y-126261607D01*
X-28566964Y-126166369D01*
X-28614583Y-126118750D01*
X-28709821Y-126071130D01*
X-147216964Y-85796130D02*
X-147216964Y-84796130D01*
X-147455059Y-84796130D01*
X-147597916Y-84843750D01*
X-147693154Y-84938988D01*
X-147740773Y-85034226D01*
X-147788392Y-85224702D01*
X-147788392Y-85367559D01*
X-147740773Y-85558035D01*
X-147693154Y-85653273D01*
X-147597916Y-85748511D01*
X-147455059Y-85796130D01*
X-147216964Y-85796130D01*
X-148169345Y-84891369D02*
X-148216964Y-84843750D01*
X-148312202Y-84796130D01*
X-148550297Y-84796130D01*
X-148645535Y-84843750D01*
X-148693154Y-84891369D01*
X-148740773Y-84986607D01*
X-148740773Y-85081845D01*
X-148693154Y-85224702D01*
X-148121726Y-85796130D01*
X-148740773Y-85796130D01*
X-149597916Y-84796130D02*
X-149407440Y-84796130D01*
X-149312202Y-84843750D01*
X-149264583Y-84891369D01*
X-149169345Y-85034226D01*
X-149121726Y-85224702D01*
X-149121726Y-85605654D01*
X-149169345Y-85700892D01*
X-149216964Y-85748511D01*
X-149312202Y-85796130D01*
X-149502678Y-85796130D01*
X-149597916Y-85748511D01*
X-149645535Y-85700892D01*
X-149693154Y-85605654D01*
X-149693154Y-85367559D01*
X-149645535Y-85272321D01*
X-149597916Y-85224702D01*
X-149502678Y-85177083D01*
X-149312202Y-85177083D01*
X-149216964Y-85224702D01*
X-149169345Y-85272321D01*
X-149121726Y-85367559D01*
X-121816964Y-92146130D02*
X-121816964Y-91146130D01*
X-122055059Y-91146130D01*
X-122197916Y-91193750D01*
X-122293154Y-91288988D01*
X-122340773Y-91384226D01*
X-122388392Y-91574702D01*
X-122388392Y-91717559D01*
X-122340773Y-91908035D01*
X-122293154Y-92003273D01*
X-122197916Y-92098511D01*
X-122055059Y-92146130D01*
X-121816964Y-92146130D01*
X-122769345Y-91241369D02*
X-122816964Y-91193750D01*
X-122912202Y-91146130D01*
X-123150297Y-91146130D01*
X-123245535Y-91193750D01*
X-123293154Y-91241369D01*
X-123340773Y-91336607D01*
X-123340773Y-91431845D01*
X-123293154Y-91574702D01*
X-122721726Y-92146130D01*
X-123340773Y-92146130D01*
X-124245535Y-91146130D02*
X-123769345Y-91146130D01*
X-123721726Y-91622321D01*
X-123769345Y-91574702D01*
X-123864583Y-91527083D01*
X-124102678Y-91527083D01*
X-124197916Y-91574702D01*
X-124245535Y-91622321D01*
X-124293154Y-91717559D01*
X-124293154Y-91955654D01*
X-124245535Y-92050892D01*
X-124197916Y-92098511D01*
X-124102678Y-92146130D01*
X-123864583Y-92146130D01*
X-123769345Y-92098511D01*
X-123721726Y-92050892D01*
X-102815714Y-88667380D02*
X-102815714Y-87667380D01*
X-103053809Y-87667380D01*
X-103196666Y-87715000D01*
X-103291904Y-87810238D01*
X-103339523Y-87905476D01*
X-103387142Y-88095952D01*
X-103387142Y-88238809D01*
X-103339523Y-88429285D01*
X-103291904Y-88524523D01*
X-103196666Y-88619761D01*
X-103053809Y-88667380D01*
X-102815714Y-88667380D01*
X-103768095Y-87762619D02*
X-103815714Y-87715000D01*
X-103910952Y-87667380D01*
X-104149047Y-87667380D01*
X-104244285Y-87715000D01*
X-104291904Y-87762619D01*
X-104339523Y-87857857D01*
X-104339523Y-87953095D01*
X-104291904Y-88095952D01*
X-103720476Y-88667380D01*
X-104339523Y-88667380D01*
X-105196666Y-88000714D02*
X-105196666Y-88667380D01*
X-104958571Y-87619761D02*
X-104720476Y-88334047D01*
X-105339523Y-88334047D01*
X-83665714Y-85442380D02*
X-83665714Y-84442380D01*
X-83903809Y-84442380D01*
X-84046666Y-84490000D01*
X-84141904Y-84585238D01*
X-84189523Y-84680476D01*
X-84237142Y-84870952D01*
X-84237142Y-85013809D01*
X-84189523Y-85204285D01*
X-84141904Y-85299523D01*
X-84046666Y-85394761D01*
X-83903809Y-85442380D01*
X-83665714Y-85442380D01*
X-84618095Y-84537619D02*
X-84665714Y-84490000D01*
X-84760952Y-84442380D01*
X-84999047Y-84442380D01*
X-85094285Y-84490000D01*
X-85141904Y-84537619D01*
X-85189523Y-84632857D01*
X-85189523Y-84728095D01*
X-85141904Y-84870952D01*
X-84570476Y-85442380D01*
X-85189523Y-85442380D01*
X-85522857Y-84442380D02*
X-86141904Y-84442380D01*
X-85808571Y-84823333D01*
X-85951428Y-84823333D01*
X-86046666Y-84870952D01*
X-86094285Y-84918571D01*
X-86141904Y-85013809D01*
X-86141904Y-85251904D01*
X-86094285Y-85347142D01*
X-86046666Y-85394761D01*
X-85951428Y-85442380D01*
X-85665714Y-85442380D01*
X-85570476Y-85394761D01*
X-85522857Y-85347142D01*
X-64665714Y-92042380D02*
X-64665714Y-91042380D01*
X-64903809Y-91042380D01*
X-65046666Y-91090000D01*
X-65141904Y-91185238D01*
X-65189523Y-91280476D01*
X-65237142Y-91470952D01*
X-65237142Y-91613809D01*
X-65189523Y-91804285D01*
X-65141904Y-91899523D01*
X-65046666Y-91994761D01*
X-64903809Y-92042380D01*
X-64665714Y-92042380D01*
X-65618095Y-91137619D02*
X-65665714Y-91090000D01*
X-65760952Y-91042380D01*
X-65999047Y-91042380D01*
X-66094285Y-91090000D01*
X-66141904Y-91137619D01*
X-66189523Y-91232857D01*
X-66189523Y-91328095D01*
X-66141904Y-91470952D01*
X-65570476Y-92042380D01*
X-66189523Y-92042380D01*
X-66570476Y-91137619D02*
X-66618095Y-91090000D01*
X-66713333Y-91042380D01*
X-66951428Y-91042380D01*
X-67046666Y-91090000D01*
X-67094285Y-91137619D01*
X-67141904Y-91232857D01*
X-67141904Y-91328095D01*
X-67094285Y-91470952D01*
X-66522857Y-92042380D01*
X-67141904Y-92042380D01*
X-45616964Y-108021130D02*
X-45616964Y-107021130D01*
X-45855059Y-107021130D01*
X-45997916Y-107068750D01*
X-46093154Y-107163988D01*
X-46140773Y-107259226D01*
X-46188392Y-107449702D01*
X-46188392Y-107592559D01*
X-46140773Y-107783035D01*
X-46093154Y-107878273D01*
X-45997916Y-107973511D01*
X-45855059Y-108021130D01*
X-45616964Y-108021130D01*
X-46569345Y-107116369D02*
X-46616964Y-107068750D01*
X-46712202Y-107021130D01*
X-46950297Y-107021130D01*
X-47045535Y-107068750D01*
X-47093154Y-107116369D01*
X-47140773Y-107211607D01*
X-47140773Y-107306845D01*
X-47093154Y-107449702D01*
X-46521726Y-108021130D01*
X-47140773Y-108021130D01*
X-48093154Y-108021130D02*
X-47521726Y-108021130D01*
X-47807440Y-108021130D02*
X-47807440Y-107021130D01*
X-47712202Y-107163988D01*
X-47616964Y-107259226D01*
X-47521726Y-107306845D01*
X-26566964Y-108021130D02*
X-26566964Y-107021130D01*
X-26805059Y-107021130D01*
X-26947916Y-107068750D01*
X-27043154Y-107163988D01*
X-27090773Y-107259226D01*
X-27138392Y-107449702D01*
X-27138392Y-107592559D01*
X-27090773Y-107783035D01*
X-27043154Y-107878273D01*
X-26947916Y-107973511D01*
X-26805059Y-108021130D01*
X-26566964Y-108021130D01*
X-27519345Y-107116369D02*
X-27566964Y-107068750D01*
X-27662202Y-107021130D01*
X-27900297Y-107021130D01*
X-27995535Y-107068750D01*
X-28043154Y-107116369D01*
X-28090773Y-107211607D01*
X-28090773Y-107306845D01*
X-28043154Y-107449702D01*
X-27471726Y-108021130D01*
X-28090773Y-108021130D01*
X-28709821Y-107021130D02*
X-28805059Y-107021130D01*
X-28900297Y-107068750D01*
X-28947916Y-107116369D01*
X-28995535Y-107211607D01*
X-29043154Y-107402083D01*
X-29043154Y-107640178D01*
X-28995535Y-107830654D01*
X-28947916Y-107925892D01*
X-28900297Y-107973511D01*
X-28805059Y-108021130D01*
X-28709821Y-108021130D01*
X-28614583Y-107973511D01*
X-28566964Y-107925892D01*
X-28519345Y-107830654D01*
X-28471726Y-107640178D01*
X-28471726Y-107402083D01*
X-28519345Y-107211607D01*
X-28566964Y-107116369D01*
X-28614583Y-107068750D01*
X-28709821Y-107021130D01*
X-121816964Y-73096130D02*
X-121816964Y-72096130D01*
X-122055059Y-72096130D01*
X-122197916Y-72143750D01*
X-122293154Y-72238988D01*
X-122340773Y-72334226D01*
X-122388392Y-72524702D01*
X-122388392Y-72667559D01*
X-122340773Y-72858035D01*
X-122293154Y-72953273D01*
X-122197916Y-73048511D01*
X-122055059Y-73096130D01*
X-121816964Y-73096130D01*
X-123340773Y-73096130D02*
X-122769345Y-73096130D01*
X-123055059Y-73096130D02*
X-123055059Y-72096130D01*
X-122959821Y-72238988D01*
X-122864583Y-72334226D01*
X-122769345Y-72381845D01*
X-124245535Y-72096130D02*
X-123769345Y-72096130D01*
X-123721726Y-72572321D01*
X-123769345Y-72524702D01*
X-123864583Y-72477083D01*
X-124102678Y-72477083D01*
X-124197916Y-72524702D01*
X-124245535Y-72572321D01*
X-124293154Y-72667559D01*
X-124293154Y-72905654D01*
X-124245535Y-73000892D01*
X-124197916Y-73048511D01*
X-124102678Y-73096130D01*
X-123864583Y-73096130D01*
X-123769345Y-73048511D01*
X-123721726Y-73000892D01*
X-102815714Y-69617380D02*
X-102815714Y-68617380D01*
X-103053809Y-68617380D01*
X-103196666Y-68665000D01*
X-103291904Y-68760238D01*
X-103339523Y-68855476D01*
X-103387142Y-69045952D01*
X-103387142Y-69188809D01*
X-103339523Y-69379285D01*
X-103291904Y-69474523D01*
X-103196666Y-69569761D01*
X-103053809Y-69617380D01*
X-102815714Y-69617380D01*
X-104339523Y-69617380D02*
X-103768095Y-69617380D01*
X-104053809Y-69617380D02*
X-104053809Y-68617380D01*
X-103958571Y-68760238D01*
X-103863333Y-68855476D01*
X-103768095Y-68903095D01*
X-105196666Y-68950714D02*
X-105196666Y-69617380D01*
X-104958571Y-68569761D02*
X-104720476Y-69284047D01*
X-105339523Y-69284047D01*
X-83665714Y-66392380D02*
X-83665714Y-65392380D01*
X-83903809Y-65392380D01*
X-84046666Y-65440000D01*
X-84141904Y-65535238D01*
X-84189523Y-65630476D01*
X-84237142Y-65820952D01*
X-84237142Y-65963809D01*
X-84189523Y-66154285D01*
X-84141904Y-66249523D01*
X-84046666Y-66344761D01*
X-83903809Y-66392380D01*
X-83665714Y-66392380D01*
X-85189523Y-66392380D02*
X-84618095Y-66392380D01*
X-84903809Y-66392380D02*
X-84903809Y-65392380D01*
X-84808571Y-65535238D01*
X-84713333Y-65630476D01*
X-84618095Y-65678095D01*
X-85522857Y-65392380D02*
X-86141904Y-65392380D01*
X-85808571Y-65773333D01*
X-85951428Y-65773333D01*
X-86046666Y-65820952D01*
X-86094285Y-65868571D01*
X-86141904Y-65963809D01*
X-86141904Y-66201904D01*
X-86094285Y-66297142D01*
X-86046666Y-66344761D01*
X-85951428Y-66392380D01*
X-85665714Y-66392380D01*
X-85570476Y-66344761D01*
X-85522857Y-66297142D01*
X-64665714Y-72992380D02*
X-64665714Y-71992380D01*
X-64903809Y-71992380D01*
X-65046666Y-72040000D01*
X-65141904Y-72135238D01*
X-65189523Y-72230476D01*
X-65237142Y-72420952D01*
X-65237142Y-72563809D01*
X-65189523Y-72754285D01*
X-65141904Y-72849523D01*
X-65046666Y-72944761D01*
X-64903809Y-72992380D01*
X-64665714Y-72992380D01*
X-66189523Y-72992380D02*
X-65618095Y-72992380D01*
X-65903809Y-72992380D02*
X-65903809Y-71992380D01*
X-65808571Y-72135238D01*
X-65713333Y-72230476D01*
X-65618095Y-72278095D01*
X-66570476Y-72087619D02*
X-66618095Y-72040000D01*
X-66713333Y-71992380D01*
X-66951428Y-71992380D01*
X-67046666Y-72040000D01*
X-67094285Y-72087619D01*
X-67141904Y-72182857D01*
X-67141904Y-72278095D01*
X-67094285Y-72420952D01*
X-66522857Y-72992380D01*
X-67141904Y-72992380D01*
X-45616964Y-88971130D02*
X-45616964Y-87971130D01*
X-45855059Y-87971130D01*
X-45997916Y-88018750D01*
X-46093154Y-88113988D01*
X-46140773Y-88209226D01*
X-46188392Y-88399702D01*
X-46188392Y-88542559D01*
X-46140773Y-88733035D01*
X-46093154Y-88828273D01*
X-45997916Y-88923511D01*
X-45855059Y-88971130D01*
X-45616964Y-88971130D01*
X-47140773Y-88971130D02*
X-46569345Y-88971130D01*
X-46855059Y-88971130D02*
X-46855059Y-87971130D01*
X-46759821Y-88113988D01*
X-46664583Y-88209226D01*
X-46569345Y-88256845D01*
X-48093154Y-88971130D02*
X-47521726Y-88971130D01*
X-47807440Y-88971130D02*
X-47807440Y-87971130D01*
X-47712202Y-88113988D01*
X-47616964Y-88209226D01*
X-47521726Y-88256845D01*
X-26566964Y-88971130D02*
X-26566964Y-87971130D01*
X-26805059Y-87971130D01*
X-26947916Y-88018750D01*
X-27043154Y-88113988D01*
X-27090773Y-88209226D01*
X-27138392Y-88399702D01*
X-27138392Y-88542559D01*
X-27090773Y-88733035D01*
X-27043154Y-88828273D01*
X-26947916Y-88923511D01*
X-26805059Y-88971130D01*
X-26566964Y-88971130D01*
X-28090773Y-88971130D02*
X-27519345Y-88971130D01*
X-27805059Y-88971130D02*
X-27805059Y-87971130D01*
X-27709821Y-88113988D01*
X-27614583Y-88209226D01*
X-27519345Y-88256845D01*
X-28709821Y-87971130D02*
X-28805059Y-87971130D01*
X-28900297Y-88018750D01*
X-28947916Y-88066369D01*
X-28995535Y-88161607D01*
X-29043154Y-88352083D01*
X-29043154Y-88590178D01*
X-28995535Y-88780654D01*
X-28947916Y-88875892D01*
X-28900297Y-88923511D01*
X-28805059Y-88971130D01*
X-28709821Y-88971130D01*
X-28614583Y-88923511D01*
X-28566964Y-88875892D01*
X-28519345Y-88780654D01*
X-28471726Y-88590178D01*
X-28471726Y-88352083D01*
X-28519345Y-88161607D01*
X-28566964Y-88066369D01*
X-28614583Y-88018750D01*
X-28709821Y-87971130D01*
X-140866964Y-54046130D02*
X-140866964Y-53046130D01*
X-141105059Y-53046130D01*
X-141247916Y-53093750D01*
X-141343154Y-53188988D01*
X-141390773Y-53284226D01*
X-141438392Y-53474702D01*
X-141438392Y-53617559D01*
X-141390773Y-53808035D01*
X-141343154Y-53903273D01*
X-141247916Y-53998511D01*
X-141105059Y-54046130D01*
X-140866964Y-54046130D01*
X-142057440Y-53046130D02*
X-142152678Y-53046130D01*
X-142247916Y-53093750D01*
X-142295535Y-53141369D01*
X-142343154Y-53236607D01*
X-142390773Y-53427083D01*
X-142390773Y-53665178D01*
X-142343154Y-53855654D01*
X-142295535Y-53950892D01*
X-142247916Y-53998511D01*
X-142152678Y-54046130D01*
X-142057440Y-54046130D01*
X-141962202Y-53998511D01*
X-141914583Y-53950892D01*
X-141866964Y-53855654D01*
X-141819345Y-53665178D01*
X-141819345Y-53427083D01*
X-141866964Y-53236607D01*
X-141914583Y-53141369D01*
X-141962202Y-53093750D01*
X-142057440Y-53046130D01*
X-143247916Y-53046130D02*
X-143057440Y-53046130D01*
X-142962202Y-53093750D01*
X-142914583Y-53141369D01*
X-142819345Y-53284226D01*
X-142771726Y-53474702D01*
X-142771726Y-53855654D01*
X-142819345Y-53950892D01*
X-142866964Y-53998511D01*
X-142962202Y-54046130D01*
X-143152678Y-54046130D01*
X-143247916Y-53998511D01*
X-143295535Y-53950892D01*
X-143343154Y-53855654D01*
X-143343154Y-53617559D01*
X-143295535Y-53522321D01*
X-143247916Y-53474702D01*
X-143152678Y-53427083D01*
X-142962202Y-53427083D01*
X-142866964Y-53474702D01*
X-142819345Y-53522321D01*
X-142771726Y-53617559D01*
X-121816964Y-54046130D02*
X-121816964Y-53046130D01*
X-122055059Y-53046130D01*
X-122197916Y-53093750D01*
X-122293154Y-53188988D01*
X-122340773Y-53284226D01*
X-122388392Y-53474702D01*
X-122388392Y-53617559D01*
X-122340773Y-53808035D01*
X-122293154Y-53903273D01*
X-122197916Y-53998511D01*
X-122055059Y-54046130D01*
X-121816964Y-54046130D01*
X-123007440Y-53046130D02*
X-123102678Y-53046130D01*
X-123197916Y-53093750D01*
X-123245535Y-53141369D01*
X-123293154Y-53236607D01*
X-123340773Y-53427083D01*
X-123340773Y-53665178D01*
X-123293154Y-53855654D01*
X-123245535Y-53950892D01*
X-123197916Y-53998511D01*
X-123102678Y-54046130D01*
X-123007440Y-54046130D01*
X-122912202Y-53998511D01*
X-122864583Y-53950892D01*
X-122816964Y-53855654D01*
X-122769345Y-53665178D01*
X-122769345Y-53427083D01*
X-122816964Y-53236607D01*
X-122864583Y-53141369D01*
X-122912202Y-53093750D01*
X-123007440Y-53046130D01*
X-124245535Y-53046130D02*
X-123769345Y-53046130D01*
X-123721726Y-53522321D01*
X-123769345Y-53474702D01*
X-123864583Y-53427083D01*
X-124102678Y-53427083D01*
X-124197916Y-53474702D01*
X-124245535Y-53522321D01*
X-124293154Y-53617559D01*
X-124293154Y-53855654D01*
X-124245535Y-53950892D01*
X-124197916Y-53998511D01*
X-124102678Y-54046130D01*
X-123864583Y-54046130D01*
X-123769345Y-53998511D01*
X-123721726Y-53950892D01*
X-102815714Y-50567380D02*
X-102815714Y-49567380D01*
X-103053809Y-49567380D01*
X-103196666Y-49615000D01*
X-103291904Y-49710238D01*
X-103339523Y-49805476D01*
X-103387142Y-49995952D01*
X-103387142Y-50138809D01*
X-103339523Y-50329285D01*
X-103291904Y-50424523D01*
X-103196666Y-50519761D01*
X-103053809Y-50567380D01*
X-102815714Y-50567380D01*
X-104006190Y-49567380D02*
X-104101428Y-49567380D01*
X-104196666Y-49615000D01*
X-104244285Y-49662619D01*
X-104291904Y-49757857D01*
X-104339523Y-49948333D01*
X-104339523Y-50186428D01*
X-104291904Y-50376904D01*
X-104244285Y-50472142D01*
X-104196666Y-50519761D01*
X-104101428Y-50567380D01*
X-104006190Y-50567380D01*
X-103910952Y-50519761D01*
X-103863333Y-50472142D01*
X-103815714Y-50376904D01*
X-103768095Y-50186428D01*
X-103768095Y-49948333D01*
X-103815714Y-49757857D01*
X-103863333Y-49662619D01*
X-103910952Y-49615000D01*
X-104006190Y-49567380D01*
X-105196666Y-49900714D02*
X-105196666Y-50567380D01*
X-104958571Y-49519761D02*
X-104720476Y-50234047D01*
X-105339523Y-50234047D01*
X-83665714Y-47342380D02*
X-83665714Y-46342380D01*
X-83903809Y-46342380D01*
X-84046666Y-46390000D01*
X-84141904Y-46485238D01*
X-84189523Y-46580476D01*
X-84237142Y-46770952D01*
X-84237142Y-46913809D01*
X-84189523Y-47104285D01*
X-84141904Y-47199523D01*
X-84046666Y-47294761D01*
X-83903809Y-47342380D01*
X-83665714Y-47342380D01*
X-84856190Y-46342380D02*
X-84951428Y-46342380D01*
X-85046666Y-46390000D01*
X-85094285Y-46437619D01*
X-85141904Y-46532857D01*
X-85189523Y-46723333D01*
X-85189523Y-46961428D01*
X-85141904Y-47151904D01*
X-85094285Y-47247142D01*
X-85046666Y-47294761D01*
X-84951428Y-47342380D01*
X-84856190Y-47342380D01*
X-84760952Y-47294761D01*
X-84713333Y-47247142D01*
X-84665714Y-47151904D01*
X-84618095Y-46961428D01*
X-84618095Y-46723333D01*
X-84665714Y-46532857D01*
X-84713333Y-46437619D01*
X-84760952Y-46390000D01*
X-84856190Y-46342380D01*
X-85522857Y-46342380D02*
X-86141904Y-46342380D01*
X-85808571Y-46723333D01*
X-85951428Y-46723333D01*
X-86046666Y-46770952D01*
X-86094285Y-46818571D01*
X-86141904Y-46913809D01*
X-86141904Y-47151904D01*
X-86094285Y-47247142D01*
X-86046666Y-47294761D01*
X-85951428Y-47342380D01*
X-85665714Y-47342380D01*
X-85570476Y-47294761D01*
X-85522857Y-47247142D01*
X-64665714Y-53942380D02*
X-64665714Y-52942380D01*
X-64903809Y-52942380D01*
X-65046666Y-52990000D01*
X-65141904Y-53085238D01*
X-65189523Y-53180476D01*
X-65237142Y-53370952D01*
X-65237142Y-53513809D01*
X-65189523Y-53704285D01*
X-65141904Y-53799523D01*
X-65046666Y-53894761D01*
X-64903809Y-53942380D01*
X-64665714Y-53942380D01*
X-65856190Y-52942380D02*
X-65951428Y-52942380D01*
X-66046666Y-52990000D01*
X-66094285Y-53037619D01*
X-66141904Y-53132857D01*
X-66189523Y-53323333D01*
X-66189523Y-53561428D01*
X-66141904Y-53751904D01*
X-66094285Y-53847142D01*
X-66046666Y-53894761D01*
X-65951428Y-53942380D01*
X-65856190Y-53942380D01*
X-65760952Y-53894761D01*
X-65713333Y-53847142D01*
X-65665714Y-53751904D01*
X-65618095Y-53561428D01*
X-65618095Y-53323333D01*
X-65665714Y-53132857D01*
X-65713333Y-53037619D01*
X-65760952Y-52990000D01*
X-65856190Y-52942380D01*
X-66570476Y-53037619D02*
X-66618095Y-52990000D01*
X-66713333Y-52942380D01*
X-66951428Y-52942380D01*
X-67046666Y-52990000D01*
X-67094285Y-53037619D01*
X-67141904Y-53132857D01*
X-67141904Y-53228095D01*
X-67094285Y-53370952D01*
X-66522857Y-53942380D01*
X-67141904Y-53942380D01*
X-45616964Y-69921130D02*
X-45616964Y-68921130D01*
X-45855059Y-68921130D01*
X-45997916Y-68968750D01*
X-46093154Y-69063988D01*
X-46140773Y-69159226D01*
X-46188392Y-69349702D01*
X-46188392Y-69492559D01*
X-46140773Y-69683035D01*
X-46093154Y-69778273D01*
X-45997916Y-69873511D01*
X-45855059Y-69921130D01*
X-45616964Y-69921130D01*
X-46807440Y-68921130D02*
X-46902678Y-68921130D01*
X-46997916Y-68968750D01*
X-47045535Y-69016369D01*
X-47093154Y-69111607D01*
X-47140773Y-69302083D01*
X-47140773Y-69540178D01*
X-47093154Y-69730654D01*
X-47045535Y-69825892D01*
X-46997916Y-69873511D01*
X-46902678Y-69921130D01*
X-46807440Y-69921130D01*
X-46712202Y-69873511D01*
X-46664583Y-69825892D01*
X-46616964Y-69730654D01*
X-46569345Y-69540178D01*
X-46569345Y-69302083D01*
X-46616964Y-69111607D01*
X-46664583Y-69016369D01*
X-46712202Y-68968750D01*
X-46807440Y-68921130D01*
X-48093154Y-69921130D02*
X-47521726Y-69921130D01*
X-47807440Y-69921130D02*
X-47807440Y-68921130D01*
X-47712202Y-69063988D01*
X-47616964Y-69159226D01*
X-47521726Y-69206845D01*
X-26566964Y-69921130D02*
X-26566964Y-68921130D01*
X-26805059Y-68921130D01*
X-26947916Y-68968750D01*
X-27043154Y-69063988D01*
X-27090773Y-69159226D01*
X-27138392Y-69349702D01*
X-27138392Y-69492559D01*
X-27090773Y-69683035D01*
X-27043154Y-69778273D01*
X-26947916Y-69873511D01*
X-26805059Y-69921130D01*
X-26566964Y-69921130D01*
X-27757440Y-68921130D02*
X-27852678Y-68921130D01*
X-27947916Y-68968750D01*
X-27995535Y-69016369D01*
X-28043154Y-69111607D01*
X-28090773Y-69302083D01*
X-28090773Y-69540178D01*
X-28043154Y-69730654D01*
X-27995535Y-69825892D01*
X-27947916Y-69873511D01*
X-27852678Y-69921130D01*
X-27757440Y-69921130D01*
X-27662202Y-69873511D01*
X-27614583Y-69825892D01*
X-27566964Y-69730654D01*
X-27519345Y-69540178D01*
X-27519345Y-69302083D01*
X-27566964Y-69111607D01*
X-27614583Y-69016369D01*
X-27662202Y-68968750D01*
X-27757440Y-68921130D01*
X-28709821Y-68921130D02*
X-28805059Y-68921130D01*
X-28900297Y-68968750D01*
X-28947916Y-69016369D01*
X-28995535Y-69111607D01*
X-29043154Y-69302083D01*
X-29043154Y-69540178D01*
X-28995535Y-69730654D01*
X-28947916Y-69825892D01*
X-28900297Y-69873511D01*
X-28805059Y-69921130D01*
X-28709821Y-69921130D01*
X-28614583Y-69873511D01*
X-28566964Y-69825892D01*
X-28519345Y-69730654D01*
X-28471726Y-69540178D01*
X-28471726Y-69302083D01*
X-28519345Y-69111607D01*
X-28566964Y-69016369D01*
X-28614583Y-68968750D01*
X-28709821Y-68921130D01*
X-177438095Y-68129166D02*
X-177819047Y-67862500D01*
X-177438095Y-67672023D02*
X-178238095Y-67672023D01*
X-178238095Y-67976785D01*
X-178200000Y-68052976D01*
X-178161904Y-68091071D01*
X-178085714Y-68129166D01*
X-177971428Y-68129166D01*
X-177895238Y-68091071D01*
X-177857142Y-68052976D01*
X-177819047Y-67976785D01*
X-177819047Y-67672023D01*
X-177438095Y-68891071D02*
X-177438095Y-68433928D01*
X-177438095Y-68662500D02*
X-178238095Y-68662500D01*
X-178123809Y-68586309D01*
X-178047619Y-68510119D01*
X-178009523Y-68433928D01*
X-175056845Y-68129166D02*
X-175437797Y-67862500D01*
X-175056845Y-67672023D02*
X-175856845Y-67672023D01*
X-175856845Y-67976785D01*
X-175818750Y-68052976D01*
X-175780654Y-68091071D01*
X-175704464Y-68129166D01*
X-175590178Y-68129166D01*
X-175513988Y-68091071D01*
X-175475892Y-68052976D01*
X-175437797Y-67976785D01*
X-175437797Y-67672023D01*
X-175056845Y-68891071D02*
X-175056845Y-68433928D01*
X-175056845Y-68662500D02*
X-175856845Y-68662500D01*
X-175742559Y-68586309D01*
X-175666369Y-68510119D01*
X-175628273Y-68433928D01*
X-179495523Y-30206904D02*
X-179495523Y-29406904D01*
X-179686000Y-29406904D01*
X-179800285Y-29445000D01*
X-179876476Y-29521190D01*
X-179914571Y-29597380D01*
X-179952666Y-29749761D01*
X-179952666Y-29864047D01*
X-179914571Y-30016428D01*
X-179876476Y-30092619D01*
X-179800285Y-30168809D01*
X-179686000Y-30206904D01*
X-179495523Y-30206904D01*
X-180257428Y-29483095D02*
X-180295523Y-29445000D01*
X-180371714Y-29406904D01*
X-180562190Y-29406904D01*
X-180638380Y-29445000D01*
X-180676476Y-29483095D01*
X-180714571Y-29559285D01*
X-180714571Y-29635476D01*
X-180676476Y-29749761D01*
X-180219333Y-30206904D01*
X-180714571Y-30206904D01*
X-179495523Y-40366904D02*
X-179495523Y-39566904D01*
X-179686000Y-39566904D01*
X-179800285Y-39605000D01*
X-179876476Y-39681190D01*
X-179914571Y-39757380D01*
X-179952666Y-39909761D01*
X-179952666Y-40024047D01*
X-179914571Y-40176428D01*
X-179876476Y-40252619D01*
X-179800285Y-40328809D01*
X-179686000Y-40366904D01*
X-179495523Y-40366904D01*
X-180447904Y-39566904D02*
X-180524095Y-39566904D01*
X-180600285Y-39605000D01*
X-180638380Y-39643095D01*
X-180676476Y-39719285D01*
X-180714571Y-39871666D01*
X-180714571Y-40062142D01*
X-180676476Y-40214523D01*
X-180638380Y-40290714D01*
X-180600285Y-40328809D01*
X-180524095Y-40366904D01*
X-180447904Y-40366904D01*
X-180371714Y-40328809D01*
X-180333619Y-40290714D01*
X-180295523Y-40214523D01*
X-180257428Y-40062142D01*
X-180257428Y-39871666D01*
X-180295523Y-39719285D01*
X-180333619Y-39643095D01*
X-180371714Y-39605000D01*
X-180447904Y-39566904D01*
X-179495523Y-37826904D02*
X-179495523Y-37026904D01*
X-179686000Y-37026904D01*
X-179800285Y-37065000D01*
X-179876476Y-37141190D01*
X-179914571Y-37217380D01*
X-179952666Y-37369761D01*
X-179952666Y-37484047D01*
X-179914571Y-37636428D01*
X-179876476Y-37712619D01*
X-179800285Y-37788809D01*
X-179686000Y-37826904D01*
X-179495523Y-37826904D01*
X-180714571Y-37826904D02*
X-180257428Y-37826904D01*
X-180486000Y-37826904D02*
X-180486000Y-37026904D01*
X-180409809Y-37141190D01*
X-180333619Y-37217380D01*
X-180257428Y-37255476D01*
X-179476476Y-34525000D02*
X-179400285Y-34486904D01*
X-179286000Y-34486904D01*
X-179171714Y-34525000D01*
X-179095523Y-34601190D01*
X-179057428Y-34677380D01*
X-179019333Y-34829761D01*
X-179019333Y-34944047D01*
X-179057428Y-35096428D01*
X-179095523Y-35172619D01*
X-179171714Y-35248809D01*
X-179286000Y-35286904D01*
X-179362190Y-35286904D01*
X-179476476Y-35248809D01*
X-179514571Y-35210714D01*
X-179514571Y-34944047D01*
X-179362190Y-34944047D01*
X-179857428Y-35286904D02*
X-179857428Y-34486904D01*
X-180314571Y-35286904D01*
X-180314571Y-34486904D01*
X-180695523Y-35286904D02*
X-180695523Y-34486904D01*
X-180886000Y-34486904D01*
X-181000285Y-34525000D01*
X-181076476Y-34601190D01*
X-181114571Y-34677380D01*
X-181152666Y-34829761D01*
X-181152666Y-34944047D01*
X-181114571Y-35096428D01*
X-181076476Y-35172619D01*
X-181000285Y-35248809D01*
X-180886000Y-35286904D01*
X-180695523Y-35286904D01*
X-179476476Y-31985000D02*
X-179400285Y-31946904D01*
X-179286000Y-31946904D01*
X-179171714Y-31985000D01*
X-179095523Y-32061190D01*
X-179057428Y-32137380D01*
X-179019333Y-32289761D01*
X-179019333Y-32404047D01*
X-179057428Y-32556428D01*
X-179095523Y-32632619D01*
X-179171714Y-32708809D01*
X-179286000Y-32746904D01*
X-179362190Y-32746904D01*
X-179476476Y-32708809D01*
X-179514571Y-32670714D01*
X-179514571Y-32404047D01*
X-179362190Y-32404047D01*
X-179857428Y-32746904D02*
X-179857428Y-31946904D01*
X-180314571Y-32746904D01*
X-180314571Y-31946904D01*
X-180695523Y-32746904D02*
X-180695523Y-31946904D01*
X-180886000Y-31946904D01*
X-181000285Y-31985000D01*
X-181076476Y-32061190D01*
X-181114571Y-32137380D01*
X-181152666Y-32289761D01*
X-181152666Y-32404047D01*
X-181114571Y-32556428D01*
X-181076476Y-32632619D01*
X-181000285Y-32708809D01*
X-180886000Y-32746904D01*
X-180695523Y-32746904D01*
X-179495523Y-42906904D02*
X-179495523Y-42106904D01*
X-179686000Y-42106904D01*
X-179800285Y-42145000D01*
X-179876476Y-42221190D01*
X-179914571Y-42297380D01*
X-179952666Y-42449761D01*
X-179952666Y-42564047D01*
X-179914571Y-42716428D01*
X-179876476Y-42792619D01*
X-179800285Y-42868809D01*
X-179686000Y-42906904D01*
X-179495523Y-42906904D01*
X-180638380Y-42373571D02*
X-180638380Y-42906904D01*
X-180447904Y-42068809D02*
X-180257428Y-42640238D01*
X-180752666Y-42640238D01*
X-179952666Y-45370714D02*
X-179914571Y-45408809D01*
X-179800285Y-45446904D01*
X-179724095Y-45446904D01*
X-179609809Y-45408809D01*
X-179533619Y-45332619D01*
X-179495523Y-45256428D01*
X-179457428Y-45104047D01*
X-179457428Y-44989761D01*
X-179495523Y-44837380D01*
X-179533619Y-44761190D01*
X-179609809Y-44685000D01*
X-179724095Y-44646904D01*
X-179800285Y-44646904D01*
X-179914571Y-44685000D01*
X-179952666Y-44723095D01*
X-180638380Y-44646904D02*
X-180486000Y-44646904D01*
X-180409809Y-44685000D01*
X-180371714Y-44723095D01*
X-180295523Y-44837380D01*
X-180257428Y-44989761D01*
X-180257428Y-45294523D01*
X-180295523Y-45370714D01*
X-180333619Y-45408809D01*
X-180409809Y-45446904D01*
X-180562190Y-45446904D01*
X-180638380Y-45408809D01*
X-180676476Y-45370714D01*
X-180714571Y-45294523D01*
X-180714571Y-45104047D01*
X-180676476Y-45027857D01*
X-180638380Y-44989761D01*
X-180562190Y-44951666D01*
X-180409809Y-44951666D01*
X-180333619Y-44989761D01*
X-180295523Y-45027857D01*
X-180257428Y-45104047D01*
X-179495523Y-47986904D02*
X-179495523Y-47186904D01*
X-179686000Y-47186904D01*
X-179800285Y-47225000D01*
X-179876476Y-47301190D01*
X-179914571Y-47377380D01*
X-179952666Y-47529761D01*
X-179952666Y-47644047D01*
X-179914571Y-47796428D01*
X-179876476Y-47872619D01*
X-179800285Y-47948809D01*
X-179686000Y-47986904D01*
X-179495523Y-47986904D01*
X-180219333Y-47186904D02*
X-180752666Y-47186904D01*
X-180409809Y-47986904D01*
X-179533619Y-50107857D02*
X-179800285Y-50107857D01*
X-179914571Y-50526904D02*
X-179533619Y-50526904D01*
X-179533619Y-49726904D01*
X-179914571Y-49726904D01*
X-180600285Y-49726904D02*
X-180447904Y-49726904D01*
X-180371714Y-49765000D01*
X-180333619Y-49803095D01*
X-180257428Y-49917380D01*
X-180219333Y-50069761D01*
X-180219333Y-50374523D01*
X-180257428Y-50450714D01*
X-180295523Y-50488809D01*
X-180371714Y-50526904D01*
X-180524095Y-50526904D01*
X-180600285Y-50488809D01*
X-180638380Y-50450714D01*
X-180676476Y-50374523D01*
X-180676476Y-50184047D01*
X-180638380Y-50107857D01*
X-180600285Y-50069761D01*
X-180524095Y-50031666D01*
X-180371714Y-50031666D01*
X-180295523Y-50069761D01*
X-180257428Y-50107857D01*
X-180219333Y-50184047D01*
X-179762190Y-52647857D02*
X-179876476Y-52685952D01*
X-179914571Y-52724047D01*
X-179952666Y-52800238D01*
X-179952666Y-52914523D01*
X-179914571Y-52990714D01*
X-179876476Y-53028809D01*
X-179800285Y-53066904D01*
X-179495523Y-53066904D01*
X-179495523Y-52266904D01*
X-179762190Y-52266904D01*
X-179838380Y-52305000D01*
X-179876476Y-52343095D01*
X-179914571Y-52419285D01*
X-179914571Y-52495476D01*
X-179876476Y-52571666D01*
X-179838380Y-52609761D01*
X-179762190Y-52647857D01*
X-179495523Y-52647857D01*
X-180638380Y-52533571D02*
X-180638380Y-53066904D01*
X-180447904Y-52228809D02*
X-180257428Y-52800238D01*
X-180752666Y-52800238D01*
X-179762190Y-55187857D02*
X-179876476Y-55225952D01*
X-179914571Y-55264047D01*
X-179952666Y-55340238D01*
X-179952666Y-55454523D01*
X-179914571Y-55530714D01*
X-179876476Y-55568809D01*
X-179800285Y-55606904D01*
X-179495523Y-55606904D01*
X-179495523Y-54806904D01*
X-179762190Y-54806904D01*
X-179838380Y-54845000D01*
X-179876476Y-54883095D01*
X-179914571Y-54959285D01*
X-179914571Y-55035476D01*
X-179876476Y-55111666D01*
X-179838380Y-55149761D01*
X-179762190Y-55187857D01*
X-179495523Y-55187857D01*
X-180676476Y-54806904D02*
X-180295523Y-54806904D01*
X-180257428Y-55187857D01*
X-180295523Y-55149761D01*
X-180371714Y-55111666D01*
X-180562190Y-55111666D01*
X-180638380Y-55149761D01*
X-180676476Y-55187857D01*
X-180714571Y-55264047D01*
X-180714571Y-55454523D01*
X-180676476Y-55530714D01*
X-180638380Y-55568809D01*
X-180562190Y-55606904D01*
X-180371714Y-55606904D01*
X-180295523Y-55568809D01*
X-180257428Y-55530714D01*
X-168840190Y-55187857D02*
X-168954476Y-55225952D01*
X-168992571Y-55264047D01*
X-169030666Y-55340238D01*
X-169030666Y-55454523D01*
X-168992571Y-55530714D01*
X-168954476Y-55568809D01*
X-168878285Y-55606904D01*
X-168573523Y-55606904D01*
X-168573523Y-54806904D01*
X-168840190Y-54806904D01*
X-168916380Y-54845000D01*
X-168954476Y-54883095D01*
X-168992571Y-54959285D01*
X-168992571Y-55035476D01*
X-168954476Y-55111666D01*
X-168916380Y-55149761D01*
X-168840190Y-55187857D01*
X-168573523Y-55187857D01*
X-169716380Y-54806904D02*
X-169564000Y-54806904D01*
X-169487809Y-54845000D01*
X-169449714Y-54883095D01*
X-169373523Y-54997380D01*
X-169335428Y-55149761D01*
X-169335428Y-55454523D01*
X-169373523Y-55530714D01*
X-169411619Y-55568809D01*
X-169487809Y-55606904D01*
X-169640190Y-55606904D01*
X-169716380Y-55568809D01*
X-169754476Y-55530714D01*
X-169792571Y-55454523D01*
X-169792571Y-55264047D01*
X-169754476Y-55187857D01*
X-169716380Y-55149761D01*
X-169640190Y-55111666D01*
X-169487809Y-55111666D01*
X-169411619Y-55149761D01*
X-169373523Y-55187857D01*
X-169335428Y-55264047D01*
X-168840190Y-50107857D02*
X-168954476Y-50145952D01*
X-168992571Y-50184047D01*
X-169030666Y-50260238D01*
X-169030666Y-50374523D01*
X-168992571Y-50450714D01*
X-168954476Y-50488809D01*
X-168878285Y-50526904D01*
X-168573523Y-50526904D01*
X-168573523Y-49726904D01*
X-168840190Y-49726904D01*
X-168916380Y-49765000D01*
X-168954476Y-49803095D01*
X-168992571Y-49879285D01*
X-168992571Y-49955476D01*
X-168954476Y-50031666D01*
X-168916380Y-50069761D01*
X-168840190Y-50107857D01*
X-168573523Y-50107857D01*
X-169297333Y-49726904D02*
X-169792571Y-49726904D01*
X-169525904Y-50031666D01*
X-169640190Y-50031666D01*
X-169716380Y-50069761D01*
X-169754476Y-50107857D01*
X-169792571Y-50184047D01*
X-169792571Y-50374523D01*
X-169754476Y-50450714D01*
X-169716380Y-50488809D01*
X-169640190Y-50526904D01*
X-169411619Y-50526904D01*
X-169335428Y-50488809D01*
X-169297333Y-50450714D01*
X-168840190Y-47567857D02*
X-168954476Y-47605952D01*
X-168992571Y-47644047D01*
X-169030666Y-47720238D01*
X-169030666Y-47834523D01*
X-168992571Y-47910714D01*
X-168954476Y-47948809D01*
X-168878285Y-47986904D01*
X-168573523Y-47986904D01*
X-168573523Y-47186904D01*
X-168840190Y-47186904D01*
X-168916380Y-47225000D01*
X-168954476Y-47263095D01*
X-168992571Y-47339285D01*
X-168992571Y-47415476D01*
X-168954476Y-47491666D01*
X-168916380Y-47529761D01*
X-168840190Y-47567857D01*
X-168573523Y-47567857D01*
X-169792571Y-47986904D02*
X-169335428Y-47986904D01*
X-169564000Y-47986904D02*
X-169564000Y-47186904D01*
X-169487809Y-47301190D01*
X-169411619Y-47377380D01*
X-169335428Y-47415476D01*
X-168897333Y-37407857D02*
X-168630666Y-37407857D01*
X-168630666Y-37826904D02*
X-168630666Y-37026904D01*
X-169011619Y-37026904D01*
X-169659238Y-37293571D02*
X-169659238Y-37826904D01*
X-169468761Y-36988809D02*
X-169278285Y-37560238D01*
X-169773523Y-37560238D01*
X-168097333Y-34486904D02*
X-168364000Y-35286904D01*
X-168630666Y-34486904D01*
X-169354476Y-35210714D02*
X-169316380Y-35248809D01*
X-169202095Y-35286904D01*
X-169125904Y-35286904D01*
X-169011619Y-35248809D01*
X-168935428Y-35172619D01*
X-168897333Y-35096428D01*
X-168859238Y-34944047D01*
X-168859238Y-34829761D01*
X-168897333Y-34677380D01*
X-168935428Y-34601190D01*
X-169011619Y-34525000D01*
X-169125904Y-34486904D01*
X-169202095Y-34486904D01*
X-169316380Y-34525000D01*
X-169354476Y-34563095D01*
X-170154476Y-35210714D02*
X-170116380Y-35248809D01*
X-170002095Y-35286904D01*
X-169925904Y-35286904D01*
X-169811619Y-35248809D01*
X-169735428Y-35172619D01*
X-169697333Y-35096428D01*
X-169659238Y-34944047D01*
X-169659238Y-34829761D01*
X-169697333Y-34677380D01*
X-169735428Y-34601190D01*
X-169811619Y-34525000D01*
X-169925904Y-34486904D01*
X-170002095Y-34486904D01*
X-170116380Y-34525000D01*
X-170154476Y-34563095D01*
X-168554476Y-29445000D02*
X-168478285Y-29406904D01*
X-168364000Y-29406904D01*
X-168249714Y-29445000D01*
X-168173523Y-29521190D01*
X-168135428Y-29597380D01*
X-168097333Y-29749761D01*
X-168097333Y-29864047D01*
X-168135428Y-30016428D01*
X-168173523Y-30092619D01*
X-168249714Y-30168809D01*
X-168364000Y-30206904D01*
X-168440190Y-30206904D01*
X-168554476Y-30168809D01*
X-168592571Y-30130714D01*
X-168592571Y-29864047D01*
X-168440190Y-29864047D01*
X-168935428Y-30206904D02*
X-168935428Y-29406904D01*
X-169392571Y-30206904D01*
X-169392571Y-29406904D01*
X-169773523Y-30206904D02*
X-169773523Y-29406904D01*
X-169964000Y-29406904D01*
X-170078285Y-29445000D01*
X-170154476Y-29521190D01*
X-170192571Y-29597380D01*
X-170230666Y-29749761D01*
X-170230666Y-29864047D01*
X-170192571Y-30016428D01*
X-170154476Y-30092619D01*
X-170078285Y-30168809D01*
X-169964000Y-30206904D01*
X-169773523Y-30206904D01*
X-168611619Y-27666904D02*
X-168344952Y-27285952D01*
X-168154476Y-27666904D02*
X-168154476Y-26866904D01*
X-168459238Y-26866904D01*
X-168535428Y-26905000D01*
X-168573523Y-26943095D01*
X-168611619Y-27019285D01*
X-168611619Y-27133571D01*
X-168573523Y-27209761D01*
X-168535428Y-27247857D01*
X-168459238Y-27285952D01*
X-168154476Y-27285952D01*
X-168916380Y-27438333D02*
X-169297333Y-27438333D01*
X-168840190Y-27666904D02*
X-169106857Y-26866904D01*
X-169373523Y-27666904D01*
X-169564000Y-26866904D02*
X-169754476Y-27666904D01*
X-169906857Y-27095476D01*
X-170059238Y-27666904D01*
X-170249714Y-26866904D01*
X-168897333Y-39947857D02*
X-168630666Y-39947857D01*
X-168630666Y-40366904D02*
X-168630666Y-39566904D01*
X-169011619Y-39566904D01*
X-169697333Y-39566904D02*
X-169316380Y-39566904D01*
X-169278285Y-39947857D01*
X-169316380Y-39909761D01*
X-169392571Y-39871666D01*
X-169583047Y-39871666D01*
X-169659238Y-39909761D01*
X-169697333Y-39947857D01*
X-169735428Y-40024047D01*
X-169735428Y-40214523D01*
X-169697333Y-40290714D01*
X-169659238Y-40328809D01*
X-169583047Y-40366904D01*
X-169392571Y-40366904D01*
X-169316380Y-40328809D01*
X-169278285Y-40290714D01*
X-168897333Y-42487857D02*
X-168630666Y-42487857D01*
X-168630666Y-42906904D02*
X-168630666Y-42106904D01*
X-169011619Y-42106904D01*
X-169659238Y-42106904D02*
X-169506857Y-42106904D01*
X-169430666Y-42145000D01*
X-169392571Y-42183095D01*
X-169316380Y-42297380D01*
X-169278285Y-42449761D01*
X-169278285Y-42754523D01*
X-169316380Y-42830714D01*
X-169354476Y-42868809D01*
X-169430666Y-42906904D01*
X-169583047Y-42906904D01*
X-169659238Y-42868809D01*
X-169697333Y-42830714D01*
X-169735428Y-42754523D01*
X-169735428Y-42564047D01*
X-169697333Y-42487857D01*
X-169659238Y-42449761D01*
X-169583047Y-42411666D01*
X-169430666Y-42411666D01*
X-169354476Y-42449761D01*
X-169316380Y-42487857D01*
X-169278285Y-42564047D01*
X-168897333Y-45027857D02*
X-168630666Y-45027857D01*
X-168630666Y-45446904D02*
X-168630666Y-44646904D01*
X-169011619Y-44646904D01*
X-169240190Y-44646904D02*
X-169773523Y-44646904D01*
X-169430666Y-45446904D01*
X-168840190Y-52647857D02*
X-168954476Y-52685952D01*
X-168992571Y-52724047D01*
X-169030666Y-52800238D01*
X-169030666Y-52914523D01*
X-168992571Y-52990714D01*
X-168954476Y-53028809D01*
X-168878285Y-53066904D01*
X-168573523Y-53066904D01*
X-168573523Y-52266904D01*
X-168840190Y-52266904D01*
X-168916380Y-52305000D01*
X-168954476Y-52343095D01*
X-168992571Y-52419285D01*
X-168992571Y-52495476D01*
X-168954476Y-52571666D01*
X-168916380Y-52609761D01*
X-168840190Y-52647857D01*
X-168573523Y-52647857D01*
X-169335428Y-52343095D02*
X-169373523Y-52305000D01*
X-169449714Y-52266904D01*
X-169640190Y-52266904D01*
X-169716380Y-52305000D01*
X-169754476Y-52343095D01*
X-169792571Y-52419285D01*
X-169792571Y-52495476D01*
X-169754476Y-52609761D01*
X-169297333Y-53066904D01*
X-169792571Y-53066904D01*
X-176006395Y-26866904D02*
X-176463538Y-26866904D01*
X-176234967Y-27666904D02*
X-176234967Y-26866904D01*
X-176654014Y-26866904D02*
X-177187348Y-27666904D01*
X-177187348Y-26866904D02*
X-176654014Y-27666904D01*
X-177644491Y-26866904D02*
X-177720681Y-26866904D01*
X-177796872Y-26905000D01*
X-177834967Y-26943095D01*
X-177873062Y-27019285D01*
X-177911157Y-27171666D01*
X-177911157Y-27362142D01*
X-177873062Y-27514523D01*
X-177834967Y-27590714D01*
X-177796872Y-27628809D01*
X-177720681Y-27666904D01*
X-177644491Y-27666904D01*
X-177568300Y-27628809D01*
X-177530205Y-27590714D01*
X-177492110Y-27514523D01*
X-177454014Y-27362142D01*
X-177454014Y-27171666D01*
X-177492110Y-27019285D01*
X-177530205Y-26943095D01*
X-177568300Y-26905000D01*
X-177644491Y-26866904D01*
X-178825443Y-26828809D02*
X-178139729Y-27857380D01*
X-179092110Y-27666904D02*
X-179092110Y-26866904D01*
X-179282586Y-26866904D01*
X-179396872Y-26905000D01*
X-179473062Y-26981190D01*
X-179511157Y-27057380D01*
X-179549252Y-27209761D01*
X-179549252Y-27324047D01*
X-179511157Y-27476428D01*
X-179473062Y-27552619D01*
X-179396872Y-27628809D01*
X-179282586Y-27666904D01*
X-179092110Y-27666904D01*
X-179815919Y-26866904D02*
X-180311157Y-26866904D01*
X-180044491Y-27171666D01*
X-180158776Y-27171666D01*
X-180234967Y-27209761D01*
X-180273062Y-27247857D01*
X-180311157Y-27324047D01*
X-180311157Y-27514523D01*
X-180273062Y-27590714D01*
X-180234967Y-27628809D01*
X-180158776Y-27666904D01*
X-179930205Y-27666904D01*
X-179854014Y-27628809D01*
X-179815919Y-27590714D01*
X-169051666Y-32688809D02*
X-169165952Y-32726904D01*
X-169356428Y-32726904D01*
X-169432619Y-32688809D01*
X-169470714Y-32650714D01*
X-169508809Y-32574523D01*
X-169508809Y-32498333D01*
X-169470714Y-32422142D01*
X-169432619Y-32384047D01*
X-169356428Y-32345952D01*
X-169204047Y-32307857D01*
X-169127857Y-32269761D01*
X-169089761Y-32231666D01*
X-169051666Y-32155476D01*
X-169051666Y-32079285D01*
X-169089761Y-32003095D01*
X-169127857Y-31965000D01*
X-169204047Y-31926904D01*
X-169394523Y-31926904D01*
X-169508809Y-31965000D01*
X-169737380Y-31926904D02*
X-170194523Y-31926904D01*
X-169965952Y-32726904D02*
X-169965952Y-31926904D01*
%LPC*%
D14*
X-174731250Y-82268750D03*
X-176231250Y-78068750D03*
X-180231250Y-78068750D03*
X-183231250Y-78068750D03*
D15*
X-178031250Y-80168750D03*
X-185031250Y-80168750D03*
X-177918750Y-91697500D03*
D16*
X-174418750Y-87997500D03*
D17*
X-175418750Y-90487500D03*
X-180418750Y-90487500D03*
D16*
X-181428750Y-87997500D03*
D18*
X-160000000Y-69850000D03*
X-181750000Y-69850000D03*
D19*
X-101490000Y-73197500D03*
D20*
X-104030000Y-78277500D03*
D19*
X-107840000Y-75737500D03*
D17*
X-109110000Y-78277500D03*
X-98950000Y-78277500D03*
D19*
X-101435000Y-130651250D03*
D20*
X-103975000Y-135731250D03*
D19*
X-107785000Y-133191250D03*
D17*
X-109055000Y-135731250D03*
X-98895000Y-135731250D03*
D19*
X-82385000Y-111601250D03*
D20*
X-84925000Y-116681250D03*
D19*
X-88735000Y-114141250D03*
D17*
X-90005000Y-116681250D03*
X-79845000Y-116681250D03*
D19*
X-63335000Y-130651250D03*
D20*
X-65875000Y-135731250D03*
D19*
X-69685000Y-133191250D03*
D17*
X-70955000Y-135731250D03*
X-60795000Y-135731250D03*
D19*
X-63303750Y-95578000D03*
D20*
X-65843750Y-100658000D03*
D19*
X-69653750Y-98118000D03*
D17*
X-70923750Y-100658000D03*
X-60763750Y-100658000D03*
D19*
X-63303750Y-76528000D03*
D20*
X-65843750Y-81608000D03*
D19*
X-69653750Y-79068000D03*
D17*
X-70923750Y-81608000D03*
X-60763750Y-81608000D03*
D19*
X-63303750Y-38428000D03*
D20*
X-65843750Y-43508000D03*
D19*
X-69653750Y-40968000D03*
D17*
X-70923750Y-43508000D03*
X-60763750Y-43508000D03*
D19*
X-25241250Y-111601250D03*
D20*
X-27781250Y-116681250D03*
D19*
X-31591250Y-114141250D03*
D17*
X-32861250Y-116681250D03*
X-22701250Y-116681250D03*
D19*
X-27622500Y-130651250D03*
D20*
X-30162500Y-135731250D03*
D19*
X-33972500Y-133191250D03*
D17*
X-35242500Y-135731250D03*
X-25082500Y-135731250D03*
D12*
G36*
X-138360769Y-115807115D02*
G01*
X-138960769Y-114767885D01*
X-138181347Y-114317885D01*
X-137581347Y-115357115D01*
X-138360769Y-115807115D01*
G37*
G36*
X-141218653Y-117457115D02*
G01*
X-141818653Y-116417885D01*
X-141039231Y-115967885D01*
X-140439231Y-117007115D01*
X-141218653Y-117457115D01*
G37*
D21*
X-96043750Y-139637500D03*
X-96043750Y-142937500D03*
X-77787500Y-139637500D03*
X-77787500Y-142937500D03*
X-73818750Y-114237500D03*
X-73818750Y-117537500D03*
X-54768750Y-133287500D03*
X-54768750Y-136587500D03*
X-40481250Y-133287500D03*
X-40481250Y-136587500D03*
D12*
G36*
X-155823269Y-126125865D02*
G01*
X-156423269Y-125086635D01*
X-155643847Y-124636635D01*
X-155043847Y-125675865D01*
X-155823269Y-126125865D01*
G37*
G36*
X-158681153Y-127775865D02*
G01*
X-159281153Y-126736635D01*
X-158501731Y-126286635D01*
X-157901731Y-127325865D01*
X-158681153Y-127775865D01*
G37*
D22*
X-121381250Y-107950000D03*
X-124681250Y-107950000D03*
X-102380000Y-105265000D03*
X-105680000Y-105265000D03*
X-83230000Y-102040000D03*
X-86530000Y-102040000D03*
X-64230000Y-108640000D03*
X-67530000Y-108640000D03*
X-45181250Y-124618750D03*
X-48481250Y-124618750D03*
X-26131250Y-124618750D03*
X-29431250Y-124618750D03*
X-146781250Y-83343750D03*
X-150081250Y-83343750D03*
X-121381250Y-89693750D03*
X-124681250Y-89693750D03*
X-102380000Y-86215000D03*
X-105680000Y-86215000D03*
X-83230000Y-82990000D03*
X-86530000Y-82990000D03*
X-64230000Y-89590000D03*
X-67530000Y-89590000D03*
X-45181250Y-105568750D03*
X-48481250Y-105568750D03*
X-26131250Y-105568750D03*
X-29431250Y-105568750D03*
X-121381250Y-70643750D03*
X-124681250Y-70643750D03*
X-102380000Y-67165000D03*
X-105680000Y-67165000D03*
X-83230000Y-63940000D03*
X-86530000Y-63940000D03*
X-64230000Y-70540000D03*
X-67530000Y-70540000D03*
X-45181250Y-86518750D03*
X-48481250Y-86518750D03*
X-26131250Y-86518750D03*
X-29431250Y-86518750D03*
X-140431250Y-51593750D03*
X-143731250Y-51593750D03*
X-121381250Y-51593750D03*
X-124681250Y-51593750D03*
X-102380000Y-48115000D03*
X-105680000Y-48115000D03*
X-83230000Y-44890000D03*
X-86530000Y-44890000D03*
X-64230000Y-51490000D03*
X-67530000Y-51490000D03*
X-45181250Y-67468750D03*
X-48481250Y-67468750D03*
X-26131250Y-67468750D03*
X-29431250Y-67468750D03*
D19*
X-147260000Y-64991000D03*
D20*
X-142180000Y-67531000D03*
D19*
X-144720000Y-71341000D03*
D17*
X-142180000Y-72611000D03*
X-142180000Y-62451000D03*
D19*
X-120590000Y-57676000D03*
D20*
X-123130000Y-62756000D03*
D19*
X-126940000Y-60216000D03*
D17*
X-128210000Y-62756000D03*
X-118050000Y-62756000D03*
D19*
X-63303750Y-57478000D03*
D20*
X-65843750Y-62558000D03*
D19*
X-69653750Y-60018000D03*
D17*
X-70923750Y-62558000D03*
X-60763750Y-62558000D03*
D19*
X-120590000Y-38626000D03*
D20*
X-123130000Y-43706000D03*
D19*
X-126940000Y-41166000D03*
D17*
X-128210000Y-43706000D03*
X-118050000Y-43706000D03*
D23*
X-177800000Y-70802500D03*
X-177800000Y-65722500D03*
X-175418750Y-65722500D03*
X-175418750Y-70802500D03*
X-170180000Y-61118750D03*
X-172720000Y-61118750D03*
X-175260000Y-61118750D03*
X-177800000Y-61118750D03*
D24*
X-182245000Y-27305000D03*
D25*
X-182245000Y-29845000D03*
X-182245000Y-32385000D03*
X-182245000Y-34925000D03*
X-182245000Y-37465000D03*
X-182245000Y-40005000D03*
X-182245000Y-42545000D03*
X-182245000Y-45085000D03*
X-182245000Y-47625000D03*
X-182245000Y-50165000D03*
X-182245000Y-52705000D03*
X-167005000Y-55245000D03*
X-167005000Y-52705000D03*
X-167005000Y-50165000D03*
X-167005000Y-47625000D03*
X-167005000Y-45085000D03*
X-167005000Y-42545000D03*
X-167005000Y-40005000D03*
X-167005000Y-37465000D03*
X-167005000Y-34925000D03*
X-167005000Y-32385000D03*
X-167005000Y-29845000D03*
X-182245000Y-55245000D03*
X-167005000Y-27305000D03*
D19*
X-143781909Y-130515295D03*
D20*
X-138112500Y-130175000D03*
D19*
X-138407205Y-134744557D03*
D17*
X-135572500Y-134574409D03*
X-140652500Y-125775591D03*
D19*
X-82321500Y-130663250D03*
D20*
X-84861500Y-135743250D03*
D19*
X-88671500Y-133203250D03*
D17*
X-89941500Y-135743250D03*
X-79781500Y-135743250D03*
D19*
X-160450659Y-140040295D03*
D20*
X-154781250Y-139700000D03*
D19*
X-155075955Y-144269557D03*
D17*
X-152241250Y-144099409D03*
X-157321250Y-135300591D03*
D19*
X-120590000Y-95776000D03*
D20*
X-123130000Y-100856000D03*
D19*
X-126940000Y-98316000D03*
D17*
X-128210000Y-100856000D03*
X-118050000Y-100856000D03*
D19*
X-101490000Y-92247500D03*
D20*
X-104030000Y-97327500D03*
D19*
X-107840000Y-94787500D03*
D17*
X-109110000Y-97327500D03*
X-98950000Y-97327500D03*
D19*
X-82340000Y-88990750D03*
D20*
X-84880000Y-94070750D03*
D19*
X-88690000Y-91530750D03*
D17*
X-89960000Y-94070750D03*
X-79800000Y-94070750D03*
D19*
X-44291250Y-111601250D03*
D20*
X-46831250Y-116681250D03*
D19*
X-50641250Y-114141250D03*
D17*
X-51911250Y-116681250D03*
X-41751250Y-116681250D03*
D19*
X-120590000Y-76726000D03*
D20*
X-123130000Y-81806000D03*
D19*
X-126940000Y-79266000D03*
D17*
X-128210000Y-81806000D03*
X-118050000Y-81806000D03*
D19*
X-82340000Y-69940750D03*
D20*
X-84880000Y-75020750D03*
D19*
X-88690000Y-72480750D03*
D17*
X-89960000Y-75020750D03*
X-79800000Y-75020750D03*
D19*
X-44291250Y-92551250D03*
D20*
X-46831250Y-97631250D03*
D19*
X-50641250Y-95091250D03*
D17*
X-51911250Y-97631250D03*
X-41751250Y-97631250D03*
D19*
X-25241250Y-92551250D03*
D20*
X-27781250Y-97631250D03*
D19*
X-31591250Y-95091250D03*
D17*
X-32861250Y-97631250D03*
X-22701250Y-97631250D03*
D19*
X-101490000Y-54147500D03*
D20*
X-104030000Y-59227500D03*
D19*
X-107840000Y-56687500D03*
D17*
X-109110000Y-59227500D03*
X-98950000Y-59227500D03*
D19*
X-82340000Y-50890750D03*
D20*
X-84880000Y-55970750D03*
D19*
X-88690000Y-53430750D03*
D17*
X-89960000Y-55970750D03*
X-79800000Y-55970750D03*
D19*
X-44291250Y-73501250D03*
D20*
X-46831250Y-78581250D03*
D19*
X-50641250Y-76041250D03*
D17*
X-51911250Y-78581250D03*
X-41751250Y-78581250D03*
D19*
X-25241250Y-73501250D03*
D20*
X-27781250Y-78581250D03*
D19*
X-31591250Y-76041250D03*
D17*
X-32861250Y-78581250D03*
X-22701250Y-78581250D03*
D19*
X-139640000Y-38638500D03*
D20*
X-142180000Y-43718500D03*
D19*
X-145990000Y-41178500D03*
D17*
X-147260000Y-43718500D03*
X-137100000Y-43718500D03*
D19*
X-101490000Y-35097500D03*
D20*
X-104030000Y-40177500D03*
D19*
X-107840000Y-37637500D03*
D17*
X-109110000Y-40177500D03*
X-98950000Y-40177500D03*
D19*
X-82340000Y-31840750D03*
D20*
X-84880000Y-36920750D03*
D19*
X-88690000Y-34380750D03*
D17*
X-89960000Y-36920750D03*
X-79800000Y-36920750D03*
D19*
X-44291250Y-54451250D03*
D20*
X-46831250Y-59531250D03*
D19*
X-50641250Y-56991250D03*
D17*
X-51911250Y-59531250D03*
X-41751250Y-59531250D03*
D19*
X-25241250Y-54451250D03*
D20*
X-27781250Y-59531250D03*
D19*
X-31591250Y-56991250D03*
D17*
X-32861250Y-59531250D03*
X-22701250Y-59531250D03*
M02*
