M48
; DRILL file {KiCad 5.1.10} date Sun Jul 11 16:17:04 2021
; FORMAT={-:-/ absolute / inch / decimal}
; #@! TF.CreationDate,2021-07-11T16:17:04-04:00
; #@! TF.GenerationSoftware,Kicad,Pcbnew,5.1.10
; #@! TF.FileFunction,Plated,1,2,PTH
FMAT,2
INCH
T1C0.0157
T2C0.0320
T3C0.0354
T4C0.0390
T5C0.0430
T6C0.0512
T7C0.0579
%
G90
G05
T1
X-6.7Y-1.7063
T2
X-7.0Y-2.4062
X-6.9Y-2.4062
X-6.8Y-2.4062
X-6.7Y-2.4062
X-6.6312Y-3.4688
X-6.6312Y-3.5625
X-6.4312Y-3.4688
X-6.4312Y-3.5625
T4
X-7.1031Y-3.5625
X-6.9062Y-3.5625
T5
X-7.175Y-1.075
X-7.175Y-1.175
X-7.175Y-1.275
X-7.175Y-1.375
X-7.175Y-1.475
X-7.175Y-1.575
X-7.175Y-1.675
X-7.175Y-1.775
X-7.175Y-1.875
X-7.175Y-1.975
X-7.175Y-2.075
X-7.175Y-2.175
X-6.575Y-1.075
X-6.575Y-1.175
X-6.575Y-1.275
X-6.575Y-1.375
X-6.575Y-1.475
X-6.575Y-1.575
X-6.575Y-1.675
X-6.575Y-1.775
X-6.575Y-1.875
X-6.575Y-1.975
X-6.575Y-2.075
X-6.575Y-2.175
T6
X-7.1429Y-3.4645
X-6.8669Y-3.4645
T7
X-6.1302Y-4.6865
X-5.9637Y-4.4749
X-5.7976Y-2.5587
X-5.7552Y-5.3427
X-5.7476Y-1.6212
X-5.6976Y-2.8087
X-5.5887Y-5.1311
X-5.4976Y-1.5212
X-4.9976Y-1.6207
X-4.9976Y-2.3707
X-4.9976Y-3.1207
X-4.9976Y-3.8707
X-4.7476Y-1.5207
X-4.7476Y-2.2707
X-4.7476Y-3.0207
X-4.7476Y-3.7707
X-4.2457Y-1.4818
X-4.2457Y-2.2318
X-4.2457Y-2.9818
X-4.2457Y-3.7318
X-4.2435Y-5.2437
X-3.9957Y-1.3818
X-3.9957Y-2.1318
X-3.9957Y-2.8818
X-3.9957Y-3.6318
X-3.9935Y-5.1437
X-3.4935Y-4.4937
X-3.4917Y-1.3536
X-3.4917Y-2.1036
X-3.4917Y-2.8536
X-3.4917Y-3.6036
X-3.491Y-5.2442
X-3.2435Y-4.3937
X-3.2417Y-1.2536
X-3.2417Y-2.0036
X-3.2417Y-2.7536
X-3.2417Y-3.5036
X-3.241Y-5.1442
X-2.7435Y-5.2437
X-2.7423Y-1.6129
X-2.7423Y-2.3629
X-2.7423Y-3.1129
X-2.7423Y-3.8629
X-2.4935Y-5.1437
X-2.4923Y-1.5129
X-2.4923Y-2.2629
X-2.4923Y-3.0129
X-2.4923Y-3.7629
X-1.9937Y-2.2437
X-1.9937Y-2.9937
X-1.9937Y-3.7437
X-1.9937Y-4.4937
X-1.7437Y-2.1437
X-1.7437Y-2.8937
X-1.7437Y-3.6437
X-1.7437Y-4.3937
X-1.3375Y-5.2437
X-1.2437Y-2.2437
X-1.2437Y-2.9937
X-1.2437Y-3.7437
X-1.2437Y-4.4937
X-1.0875Y-5.1437
X-0.9938Y-2.1437
X-0.9938Y-2.8937
X-0.9938Y-3.6437
X-0.9938Y-4.3937
T3
G00X-7.2256Y-3.0344
M15
G01X-7.2099Y-3.0344
M16
G05
G00X-7.1075Y-3.0344
M15
G01X-7.0918Y-3.0344
M16
G05
G00X-6.95Y-3.0344
M15
G01X-6.9343Y-3.0344
M16
G05
G00X-6.9067Y-3.2156
M15
G01X-6.891Y-3.2156
M16
G05
T0
M30
