G04 #@! TF.GenerationSoftware,KiCad,Pcbnew,5.1.10*
G04 #@! TF.CreationDate,2021-07-11T16:16:24-04:00*
G04 #@! TF.ProjectId,v02_right,7630325f-7269-4676-9874-2e6b69636164,rev?*
G04 #@! TF.SameCoordinates,Original*
G04 #@! TF.FileFunction,Soldermask,Bot*
G04 #@! TF.FilePolarity,Negative*
%FSLAX46Y46*%
G04 Gerber Fmt 4.6, Leading zero omitted, Abs format (unit mm)*
G04 Created by KiCad (PCBNEW 5.1.10) date 2021-07-11 16:16:24*
%MOMM*%
%LPD*%
G01*
G04 APERTURE LIST*
%ADD10C,1.200000*%
%ADD11C,2.100000*%
%ADD12C,1.750000*%
%ADD13O,2.000000X1.600000*%
%ADD14C,0.800000*%
%ADD15C,2.200000*%
%ADD16C,2.250000*%
%ADD17C,3.987800*%
%ADD18C,0.100000*%
%ADD19R,1.200000X0.900000*%
%ADD20R,0.900000X1.200000*%
%ADD21C,1.397000*%
%ADD22R,1.752600X1.752600*%
%ADD23C,1.752600*%
G04 APERTURE END LIST*
D10*
X-177918750Y-91697500D03*
D11*
X-174418750Y-87997500D03*
D12*
X-175418750Y-90487500D03*
X-180418750Y-90487500D03*
D11*
X-181428750Y-87997500D03*
D13*
X-180331250Y-77075000D03*
D14*
X-184931250Y-79375000D03*
X-177931250Y-79375000D03*
D13*
X-183331250Y-77075000D03*
X-176331250Y-77075000D03*
X-175231250Y-81675000D03*
D15*
X-159800000Y-69850000D03*
X-181750000Y-69850000D03*
D16*
X-101490000Y-73197500D03*
D17*
X-104030000Y-78277500D03*
D16*
X-107840000Y-75737500D03*
D12*
X-109110000Y-78277500D03*
X-98950000Y-78277500D03*
D16*
X-101435000Y-130651250D03*
D17*
X-103975000Y-135731250D03*
D16*
X-107785000Y-133191250D03*
D12*
X-109055000Y-135731250D03*
X-98895000Y-135731250D03*
D16*
X-82385000Y-111601250D03*
D17*
X-84925000Y-116681250D03*
D16*
X-88735000Y-114141250D03*
D12*
X-90005000Y-116681250D03*
X-79845000Y-116681250D03*
D16*
X-63335000Y-130651250D03*
D17*
X-65875000Y-135731250D03*
D16*
X-69685000Y-133191250D03*
D12*
X-70955000Y-135731250D03*
X-60795000Y-135731250D03*
D16*
X-63303750Y-95578000D03*
D17*
X-65843750Y-100658000D03*
D16*
X-69653750Y-98118000D03*
D12*
X-70923750Y-100658000D03*
X-60763750Y-100658000D03*
D16*
X-63303750Y-76528000D03*
D17*
X-65843750Y-81608000D03*
D16*
X-69653750Y-79068000D03*
D12*
X-70923750Y-81608000D03*
X-60763750Y-81608000D03*
D16*
X-63303750Y-38428000D03*
D17*
X-65843750Y-43508000D03*
D16*
X-69653750Y-40968000D03*
D12*
X-70923750Y-43508000D03*
X-60763750Y-43508000D03*
D16*
X-25241250Y-111601250D03*
D17*
X-27781250Y-116681250D03*
D16*
X-31591250Y-114141250D03*
D12*
X-32861250Y-116681250D03*
X-22701250Y-116681250D03*
D16*
X-27622500Y-130651250D03*
D17*
X-30162500Y-135731250D03*
D16*
X-33972500Y-133191250D03*
D12*
X-35242500Y-135731250D03*
X-25082500Y-135731250D03*
D18*
G36*
X-130580385Y-129104519D02*
G01*
X-131619615Y-129704519D01*
X-132069615Y-128925097D01*
X-131030385Y-128325097D01*
X-130580385Y-129104519D01*
G37*
G36*
X-128930385Y-131962403D02*
G01*
X-129969615Y-132562403D01*
X-130419615Y-131782981D01*
X-129380385Y-131182981D01*
X-128930385Y-131962403D01*
G37*
D19*
X-96043750Y-139637500D03*
X-96043750Y-142937500D03*
X-77787500Y-139637500D03*
X-77787500Y-142937500D03*
X-73818750Y-114237500D03*
X-73818750Y-117537500D03*
X-54768750Y-133287500D03*
X-54768750Y-136587500D03*
X-40481250Y-133287500D03*
X-40481250Y-136587500D03*
D18*
G36*
X-140899135Y-112435769D02*
G01*
X-141938365Y-113035769D01*
X-142388365Y-112256347D01*
X-141349135Y-111656347D01*
X-140899135Y-112435769D01*
G37*
G36*
X-139249135Y-115293653D02*
G01*
X-140288365Y-115893653D01*
X-140738365Y-115114231D01*
X-139699135Y-114514231D01*
X-139249135Y-115293653D01*
G37*
D20*
X-121381250Y-107950000D03*
X-124681250Y-107950000D03*
X-102380000Y-105265000D03*
X-105680000Y-105265000D03*
X-83230000Y-102040000D03*
X-86530000Y-102040000D03*
X-64230000Y-108640000D03*
X-67530000Y-108640000D03*
X-45181250Y-124618750D03*
X-48481250Y-124618750D03*
X-26131250Y-124618750D03*
X-29431250Y-124618750D03*
X-146781250Y-83343750D03*
X-150081250Y-83343750D03*
X-121381250Y-89693750D03*
X-124681250Y-89693750D03*
X-102380000Y-86215000D03*
X-105680000Y-86215000D03*
X-83230000Y-82990000D03*
X-86530000Y-82990000D03*
X-64230000Y-89590000D03*
X-67530000Y-89590000D03*
X-45181250Y-105568750D03*
X-48481250Y-105568750D03*
X-26131250Y-105568750D03*
X-29431250Y-105568750D03*
X-121381250Y-70643750D03*
X-124681250Y-70643750D03*
X-102380000Y-67165000D03*
X-105680000Y-67165000D03*
X-83230000Y-63940000D03*
X-86530000Y-63940000D03*
X-64230000Y-70540000D03*
X-67530000Y-70540000D03*
X-45181250Y-86518750D03*
X-48481250Y-86518750D03*
X-26131250Y-86518750D03*
X-29431250Y-86518750D03*
X-140431250Y-51593750D03*
X-143731250Y-51593750D03*
X-121381250Y-51593750D03*
X-124681250Y-51593750D03*
X-102380000Y-48115000D03*
X-105680000Y-48115000D03*
X-83230000Y-44890000D03*
X-86530000Y-44890000D03*
X-64230000Y-51490000D03*
X-67530000Y-51490000D03*
X-45181250Y-67468750D03*
X-48481250Y-67468750D03*
X-26131250Y-67468750D03*
X-29431250Y-67468750D03*
D16*
X-147260000Y-64991000D03*
D17*
X-142180000Y-67531000D03*
D16*
X-144720000Y-71341000D03*
D12*
X-142180000Y-72611000D03*
X-142180000Y-62451000D03*
D16*
X-120590000Y-57676000D03*
D17*
X-123130000Y-62756000D03*
D16*
X-126940000Y-60216000D03*
D12*
X-128210000Y-62756000D03*
X-118050000Y-62756000D03*
D16*
X-63303750Y-57478000D03*
D17*
X-65843750Y-62558000D03*
D16*
X-69653750Y-60018000D03*
D12*
X-70923750Y-62558000D03*
X-60763750Y-62558000D03*
D16*
X-120590000Y-38626000D03*
D17*
X-123130000Y-43706000D03*
D16*
X-126940000Y-41166000D03*
D12*
X-128210000Y-43706000D03*
X-118050000Y-43706000D03*
D21*
X-168433750Y-88106250D03*
X-163353750Y-88106250D03*
X-163353750Y-90487500D03*
X-168433750Y-90487500D03*
X-170180000Y-61118750D03*
X-172720000Y-61118750D03*
X-175260000Y-61118750D03*
X-177800000Y-61118750D03*
D22*
X-182245000Y-27305000D03*
D23*
X-182245000Y-29845000D03*
X-182245000Y-32385000D03*
X-182245000Y-34925000D03*
X-182245000Y-37465000D03*
X-182245000Y-40005000D03*
X-182245000Y-42545000D03*
X-182245000Y-45085000D03*
X-182245000Y-47625000D03*
X-182245000Y-50165000D03*
X-182245000Y-52705000D03*
X-167005000Y-55245000D03*
X-167005000Y-52705000D03*
X-167005000Y-50165000D03*
X-167005000Y-47625000D03*
X-167005000Y-45085000D03*
X-167005000Y-42545000D03*
X-167005000Y-40005000D03*
X-167005000Y-37465000D03*
X-167005000Y-34925000D03*
X-167005000Y-32385000D03*
X-167005000Y-29845000D03*
X-182245000Y-55245000D03*
X-167005000Y-27305000D03*
D16*
X-141952795Y-130330591D03*
D17*
X-141612500Y-136000000D03*
D16*
X-146182057Y-135705295D03*
D12*
X-146011909Y-138540000D03*
X-137213091Y-133460000D03*
D16*
X-82321500Y-130663250D03*
D17*
X-84861500Y-135743250D03*
D16*
X-88671500Y-133203250D03*
D12*
X-89941500Y-135743250D03*
X-79781500Y-135743250D03*
D16*
X-151477795Y-113661841D03*
D17*
X-151137500Y-119331250D03*
D16*
X-155707057Y-119036545D03*
D12*
X-155536909Y-121871250D03*
X-146738091Y-116791250D03*
D16*
X-120590000Y-95776000D03*
D17*
X-123130000Y-100856000D03*
D16*
X-126940000Y-98316000D03*
D12*
X-128210000Y-100856000D03*
X-118050000Y-100856000D03*
D16*
X-101490000Y-92247500D03*
D17*
X-104030000Y-97327500D03*
D16*
X-107840000Y-94787500D03*
D12*
X-109110000Y-97327500D03*
X-98950000Y-97327500D03*
D16*
X-82340000Y-88990750D03*
D17*
X-84880000Y-94070750D03*
D16*
X-88690000Y-91530750D03*
D12*
X-89960000Y-94070750D03*
X-79800000Y-94070750D03*
D16*
X-44291250Y-111601250D03*
D17*
X-46831250Y-116681250D03*
D16*
X-50641250Y-114141250D03*
D12*
X-51911250Y-116681250D03*
X-41751250Y-116681250D03*
D16*
X-120590000Y-76726000D03*
D17*
X-123130000Y-81806000D03*
D16*
X-126940000Y-79266000D03*
D12*
X-128210000Y-81806000D03*
X-118050000Y-81806000D03*
D16*
X-82340000Y-69940750D03*
D17*
X-84880000Y-75020750D03*
D16*
X-88690000Y-72480750D03*
D12*
X-89960000Y-75020750D03*
X-79800000Y-75020750D03*
D16*
X-44291250Y-92551250D03*
D17*
X-46831250Y-97631250D03*
D16*
X-50641250Y-95091250D03*
D12*
X-51911250Y-97631250D03*
X-41751250Y-97631250D03*
D16*
X-25241250Y-92551250D03*
D17*
X-27781250Y-97631250D03*
D16*
X-31591250Y-95091250D03*
D12*
X-32861250Y-97631250D03*
X-22701250Y-97631250D03*
D16*
X-101490000Y-54147500D03*
D17*
X-104030000Y-59227500D03*
D16*
X-107840000Y-56687500D03*
D12*
X-109110000Y-59227500D03*
X-98950000Y-59227500D03*
D16*
X-82340000Y-50890750D03*
D17*
X-84880000Y-55970750D03*
D16*
X-88690000Y-53430750D03*
D12*
X-89960000Y-55970750D03*
X-79800000Y-55970750D03*
D16*
X-44291250Y-73501250D03*
D17*
X-46831250Y-78581250D03*
D16*
X-50641250Y-76041250D03*
D12*
X-51911250Y-78581250D03*
X-41751250Y-78581250D03*
D16*
X-25241250Y-73501250D03*
D17*
X-27781250Y-78581250D03*
D16*
X-31591250Y-76041250D03*
D12*
X-32861250Y-78581250D03*
X-22701250Y-78581250D03*
D16*
X-139640000Y-38638500D03*
D17*
X-142180000Y-43718500D03*
D16*
X-145990000Y-41178500D03*
D12*
X-147260000Y-43718500D03*
X-137100000Y-43718500D03*
D16*
X-101490000Y-35097500D03*
D17*
X-104030000Y-40177500D03*
D16*
X-107840000Y-37637500D03*
D12*
X-109110000Y-40177500D03*
X-98950000Y-40177500D03*
D16*
X-82340000Y-31840750D03*
D17*
X-84880000Y-36920750D03*
D16*
X-88690000Y-34380750D03*
D12*
X-89960000Y-36920750D03*
X-79800000Y-36920750D03*
D16*
X-44291250Y-54451250D03*
D17*
X-46831250Y-59531250D03*
D16*
X-50641250Y-56991250D03*
D12*
X-51911250Y-59531250D03*
X-41751250Y-59531250D03*
D16*
X-25241250Y-54451250D03*
D17*
X-27781250Y-59531250D03*
D16*
X-31591250Y-56991250D03*
D12*
X-32861250Y-59531250D03*
X-22701250Y-59531250D03*
M02*
