G04 #@! TF.GenerationSoftware,KiCad,Pcbnew,5.1.10*
G04 #@! TF.CreationDate,2021-07-11T16:16:24-04:00*
G04 #@! TF.ProjectId,v02_right,7630325f-7269-4676-9874-2e6b69636164,rev?*
G04 #@! TF.SameCoordinates,Original*
G04 #@! TF.FileFunction,Copper,L1,Top*
G04 #@! TF.FilePolarity,Positive*
%FSLAX46Y46*%
G04 Gerber Fmt 4.6, Leading zero omitted, Abs format (unit mm)*
G04 Created by KiCad (PCBNEW 5.1.10) date 2021-07-11 16:16:24*
%MOMM*%
%LPD*%
G01*
G04 APERTURE LIST*
G04 #@! TA.AperFunction,ComponentPad*
%ADD10C,2.100000*%
G04 #@! TD*
G04 #@! TA.AperFunction,ComponentPad*
%ADD11C,1.750000*%
G04 #@! TD*
G04 #@! TA.AperFunction,ComponentPad*
%ADD12O,2.000000X1.600000*%
G04 #@! TD*
G04 #@! TA.AperFunction,ComponentPad*
%ADD13C,2.250000*%
G04 #@! TD*
G04 #@! TA.AperFunction,ComponentPad*
%ADD14C,1.397000*%
G04 #@! TD*
G04 #@! TA.AperFunction,ComponentPad*
%ADD15R,1.752600X1.752600*%
G04 #@! TD*
G04 #@! TA.AperFunction,ComponentPad*
%ADD16C,1.752600*%
G04 #@! TD*
G04 #@! TA.AperFunction,ViaPad*
%ADD17C,0.800000*%
G04 #@! TD*
G04 #@! TA.AperFunction,Conductor*
%ADD18C,0.250000*%
G04 #@! TD*
G04 APERTURE END LIST*
D10*
X-174418750Y-87997500D03*
D11*
X-175418750Y-90487500D03*
X-180418750Y-90487500D03*
D10*
X-181428750Y-87997500D03*
D12*
X-180331250Y-77075000D03*
X-183331250Y-77075000D03*
X-176331250Y-77075000D03*
X-175231250Y-81675000D03*
D13*
X-101490000Y-73197500D03*
X-107840000Y-75737500D03*
X-101435000Y-130651250D03*
X-107785000Y-133191250D03*
X-82385000Y-111601250D03*
X-88735000Y-114141250D03*
X-63335000Y-130651250D03*
X-69685000Y-133191250D03*
X-63303750Y-95578000D03*
X-69653750Y-98118000D03*
X-63303750Y-76528000D03*
X-69653750Y-79068000D03*
X-63303750Y-38428000D03*
X-69653750Y-40968000D03*
X-25241250Y-111601250D03*
X-31591250Y-114141250D03*
X-27622500Y-130651250D03*
X-33972500Y-133191250D03*
X-147260000Y-64991000D03*
X-144720000Y-71341000D03*
X-120590000Y-57676000D03*
X-126940000Y-60216000D03*
X-63303750Y-57478000D03*
X-69653750Y-60018000D03*
X-120590000Y-38626000D03*
X-126940000Y-41166000D03*
D14*
X-168433750Y-88106250D03*
X-163353750Y-88106250D03*
X-163353750Y-90487500D03*
X-168433750Y-90487500D03*
X-170180000Y-61118750D03*
X-172720000Y-61118750D03*
X-175260000Y-61118750D03*
X-177800000Y-61118750D03*
D15*
X-182245000Y-27305000D03*
D16*
X-182245000Y-29845000D03*
X-182245000Y-32385000D03*
X-182245000Y-34925000D03*
X-182245000Y-37465000D03*
X-182245000Y-40005000D03*
X-182245000Y-42545000D03*
X-182245000Y-45085000D03*
X-182245000Y-47625000D03*
X-182245000Y-50165000D03*
X-182245000Y-52705000D03*
X-167005000Y-55245000D03*
X-167005000Y-52705000D03*
X-167005000Y-50165000D03*
X-167005000Y-47625000D03*
X-167005000Y-45085000D03*
X-167005000Y-42545000D03*
X-167005000Y-40005000D03*
X-167005000Y-37465000D03*
X-167005000Y-34925000D03*
X-167005000Y-32385000D03*
X-167005000Y-29845000D03*
X-182245000Y-55245000D03*
X-167005000Y-27305000D03*
D13*
X-141952795Y-130330591D03*
X-146182057Y-135705295D03*
X-82321500Y-130663250D03*
X-88671500Y-133203250D03*
X-151477795Y-113661841D03*
X-155707057Y-119036545D03*
X-120590000Y-95776000D03*
X-126940000Y-98316000D03*
X-101490000Y-92247500D03*
X-107840000Y-94787500D03*
X-82340000Y-88990750D03*
X-88690000Y-91530750D03*
X-44291250Y-111601250D03*
X-50641250Y-114141250D03*
X-120590000Y-76726000D03*
X-126940000Y-79266000D03*
X-82340000Y-69940750D03*
X-88690000Y-72480750D03*
X-44291250Y-92551250D03*
X-50641250Y-95091250D03*
X-25241250Y-92551250D03*
X-31591250Y-95091250D03*
X-101490000Y-54147500D03*
X-107840000Y-56687500D03*
X-82340000Y-50890750D03*
X-88690000Y-53430750D03*
X-44291250Y-73501250D03*
X-50641250Y-76041250D03*
X-25241250Y-73501250D03*
X-31591250Y-76041250D03*
X-139640000Y-38638500D03*
X-145990000Y-41178500D03*
X-101490000Y-35097500D03*
X-107840000Y-37637500D03*
X-82340000Y-31840750D03*
X-88690000Y-34380750D03*
X-44291250Y-54451250D03*
X-50641250Y-56991250D03*
X-25241250Y-54451250D03*
X-31591250Y-56991250D03*
D17*
X-170180000Y-43338750D03*
D18*
X-44291250Y-92551250D02*
X-44291250Y-93821250D01*
X-31591250Y-56991250D02*
X-34766250Y-56991250D01*
X-34766250Y-56991250D02*
X-34925000Y-57150000D01*
X-33813750Y-111918750D02*
X-34925000Y-111918750D01*
X-31591250Y-114141250D02*
X-33813750Y-111918750D01*
X-34607500Y-92075000D02*
X-34925000Y-92075000D01*
X-31591250Y-95091250D02*
X-34607500Y-92075000D01*
X-34925000Y-92075000D02*
X-34925000Y-111918750D01*
X-31591250Y-76041250D02*
X-33813750Y-73818750D01*
X-33813750Y-73818750D02*
X-34925000Y-73818750D01*
X-34925000Y-73818750D02*
X-34925000Y-92075000D01*
X-34925000Y-57150000D02*
X-34925000Y-73818750D01*
X-34925000Y-132238750D02*
X-33972500Y-133191250D01*
X-34925000Y-111918750D02*
X-34925000Y-132238750D01*
X-69056250Y-26193750D02*
X-153193750Y-26193750D01*
X-55562500Y-39687500D02*
X-69056250Y-26193750D01*
X-55562500Y-49212500D02*
X-55562500Y-39687500D01*
X-53975000Y-50800000D02*
X-55562500Y-49212500D01*
X-153193750Y-26193750D02*
X-167005000Y-40005000D01*
X-37782500Y-50800000D02*
X-53975000Y-50800000D01*
X-31591250Y-56991250D02*
X-37782500Y-50800000D01*
X-50641250Y-56991250D02*
X-54610000Y-56991250D01*
X-54610000Y-56991250D02*
X-54768750Y-57150000D01*
X-54768750Y-71913750D02*
X-50641250Y-76041250D01*
X-54768750Y-90963750D02*
X-50641250Y-95091250D01*
X-54768750Y-57150000D02*
X-54768750Y-71437500D01*
X-54768750Y-71437500D02*
X-54768750Y-71913750D01*
X-54768750Y-110013750D02*
X-50641250Y-114141250D01*
X-54768750Y-71437500D02*
X-54768750Y-90487500D01*
X-54768750Y-90487500D02*
X-54768750Y-90963750D01*
X-54768750Y-109537500D02*
X-54768750Y-119856250D01*
X-54768750Y-90487500D02*
X-54768750Y-109537500D01*
X-54768750Y-109537500D02*
X-54768750Y-110013750D01*
X-56350000Y-119856250D02*
X-69685000Y-133191250D01*
X-54768750Y-119856250D02*
X-56350000Y-119856250D01*
X-163512500Y-39052500D02*
X-167005000Y-42545000D01*
X-163512500Y-38893750D02*
X-163512500Y-39052500D01*
X-69850000Y-26987500D02*
X-151606250Y-26987500D01*
X-151606250Y-26987500D02*
X-163512500Y-38893750D01*
X-57150000Y-39687500D02*
X-69850000Y-26987500D01*
X-54768750Y-53975000D02*
X-57150000Y-51593750D01*
X-53657500Y-53975000D02*
X-54768750Y-53975000D01*
X-57150000Y-51593750D02*
X-57150000Y-39687500D01*
X-50641250Y-56991250D02*
X-53657500Y-53975000D01*
X-69653750Y-40968000D02*
X-74543250Y-40968000D01*
X-74543250Y-55128500D02*
X-69653750Y-60018000D01*
X-74543250Y-74178500D02*
X-69653750Y-79068000D01*
X-74543250Y-40968000D02*
X-74543250Y-54597000D01*
X-74543250Y-54597000D02*
X-74543250Y-55128500D01*
X-74543250Y-93228500D02*
X-69653750Y-98118000D01*
X-74543250Y-54597000D02*
X-74543250Y-73647000D01*
X-74543250Y-73647000D02*
X-74543250Y-74178500D01*
X-74543250Y-92799500D02*
X-74543250Y-101530750D01*
X-74543250Y-73647000D02*
X-74543250Y-92799500D01*
X-74543250Y-92799500D02*
X-74543250Y-93228500D01*
X-76124500Y-101530750D02*
X-88735000Y-114141250D01*
X-74543250Y-101530750D02*
X-76124500Y-101530750D01*
X-162718750Y-43656250D02*
X-164147500Y-45085000D01*
X-150655160Y-27781250D02*
X-162718750Y-39844840D01*
X-75406250Y-27781250D02*
X-150655160Y-27781250D01*
X-164147500Y-45085000D02*
X-167005000Y-45085000D01*
X-162718750Y-39844840D02*
X-162718750Y-43656250D01*
X-69653750Y-33533750D02*
X-75406250Y-27781250D01*
X-69653750Y-40968000D02*
X-69653750Y-33533750D01*
X-88690000Y-34380750D02*
X-92627000Y-34380750D01*
X-92627000Y-34380750D02*
X-93611250Y-35365000D01*
X-93611250Y-35365000D02*
X-93611250Y-48509500D01*
X-91420500Y-72480750D02*
X-88690000Y-72480750D01*
X-92642875Y-71258375D02*
X-91420500Y-72480750D01*
X-93611250Y-48509500D02*
X-92642875Y-49477875D01*
X-92642875Y-49477875D02*
X-88690000Y-53430750D01*
X-92642875Y-87577875D02*
X-88690000Y-91530750D01*
X-92642875Y-70464625D02*
X-92642875Y-87577875D01*
X-92642875Y-49477875D02*
X-92642875Y-70464625D01*
X-92642875Y-70464625D02*
X-92642875Y-71258375D01*
X-92642875Y-129231875D02*
X-88671500Y-133203250D01*
X-92642875Y-87577875D02*
X-92642875Y-129231875D01*
X-161131250Y-46831250D02*
X-161925000Y-47625000D01*
X-161925000Y-47625000D02*
X-167005000Y-47625000D01*
X-88690000Y-31960000D02*
X-92075000Y-28575000D01*
X-88690000Y-34380750D02*
X-88690000Y-31960000D01*
X-92075000Y-28575000D02*
X-150018750Y-28575000D01*
X-150018750Y-28575000D02*
X-158750000Y-37306250D01*
X-158750000Y-37306250D02*
X-160337500Y-38893750D01*
X-160337500Y-38893750D02*
X-160337500Y-46037500D01*
X-160337500Y-46037500D02*
X-161131250Y-46831250D01*
X-107840000Y-37637500D02*
X-111015000Y-37637500D01*
X-111015000Y-37637500D02*
X-111967500Y-38590000D01*
X-111967500Y-52560000D02*
X-107840000Y-56687500D01*
X-111967500Y-71610000D02*
X-107840000Y-75737500D01*
X-111967500Y-38590000D02*
X-111967500Y-52083750D01*
X-111967500Y-52083750D02*
X-111967500Y-52560000D01*
X-111967500Y-90660000D02*
X-107840000Y-94787500D01*
X-111967500Y-52083750D02*
X-111967500Y-71133750D01*
X-111967500Y-71133750D02*
X-111967500Y-71610000D01*
X-111967500Y-90183750D02*
X-111967500Y-90660000D01*
X-111967500Y-129008750D02*
X-107785000Y-133191250D01*
X-111967500Y-89742500D02*
X-111967500Y-129008750D01*
X-111967500Y-71133750D02*
X-111967500Y-89742500D01*
X-111967500Y-89742500D02*
X-111967500Y-90183750D01*
X-162083750Y-50165000D02*
X-167005000Y-50165000D01*
X-158750000Y-46831250D02*
X-162083750Y-50165000D01*
X-107840000Y-37637500D02*
X-116108750Y-29368750D01*
X-116108750Y-29368750D02*
X-148431250Y-29368750D01*
X-148431250Y-29368750D02*
X-153193750Y-34131250D01*
X-153193750Y-34131250D02*
X-153987500Y-34131250D01*
X-158750000Y-38893750D02*
X-158750000Y-46831250D01*
X-153987500Y-34131250D02*
X-158750000Y-38893750D01*
X-126940000Y-41166000D02*
X-130210250Y-41166000D01*
X-130210250Y-41166000D02*
X-130273750Y-41229500D01*
X-130178500Y-95077500D02*
X-126940000Y-98316000D01*
X-130273750Y-95077500D02*
X-130178500Y-95077500D01*
X-130178500Y-76027500D02*
X-130273750Y-76027500D01*
X-126940000Y-79266000D02*
X-130178500Y-76027500D01*
X-126940000Y-56342500D02*
X-130273750Y-53008750D01*
X-126940000Y-60216000D02*
X-126940000Y-56342500D01*
X-130273750Y-53008750D02*
X-130273750Y-76027500D01*
X-130273750Y-41229500D02*
X-130273750Y-53008750D01*
X-130273750Y-76027500D02*
X-130273750Y-89521250D01*
X-130273750Y-94555000D02*
X-130273750Y-99913750D01*
X-130273750Y-99913750D02*
X-130175000Y-100012500D01*
X-130273750Y-89521250D02*
X-130273750Y-94555000D01*
X-130273750Y-94555000D02*
X-130273750Y-95077500D01*
X-130175000Y-100012500D02*
X-130175000Y-110331250D01*
X-146182057Y-126338307D02*
X-146182057Y-135705295D01*
X-130175000Y-110331250D02*
X-146182057Y-126338307D01*
X-126940000Y-41166000D02*
X-126940000Y-35778750D01*
X-126940000Y-35778750D02*
X-127793750Y-34925000D01*
X-127793750Y-34925000D02*
X-153193750Y-34925000D01*
X-153193750Y-34925000D02*
X-157162500Y-38893750D01*
X-157162500Y-38893750D02*
X-157162500Y-47625000D01*
X-162242500Y-52705000D02*
X-167005000Y-52705000D01*
X-157162500Y-47625000D02*
X-162242500Y-52705000D01*
X-145990000Y-41178500D02*
X-145990000Y-42067500D01*
X-144720000Y-71341000D02*
X-144720000Y-88642500D01*
X-155707057Y-99629557D02*
X-155707057Y-119036545D01*
X-144720000Y-88642500D02*
X-155707057Y-99629557D01*
X-145355000Y-41813500D02*
X-145990000Y-41178500D01*
X-144720000Y-71341000D02*
X-145355000Y-70706000D01*
X-162620000Y-59630000D02*
X-167005000Y-55245000D01*
X-145355000Y-59630000D02*
X-162620000Y-59630000D01*
X-145355000Y-70706000D02*
X-145355000Y-59630000D01*
X-145355000Y-59630000D02*
X-145355000Y-41813500D01*
X-174865000Y-81675000D02*
X-175231250Y-81675000D01*
X-168433750Y-88106250D02*
X-174865000Y-81675000D01*
X-172720000Y-40640000D02*
X-167005000Y-34925000D01*
X-172720000Y-61118750D02*
X-172720000Y-40640000D01*
X-163353750Y-88106250D02*
X-165100000Y-88106250D01*
X-174556251Y-78649999D02*
X-176937501Y-78649999D01*
X-165100000Y-88106250D02*
X-174556251Y-78649999D01*
X-178512500Y-77075000D02*
X-180331250Y-77075000D01*
X-176937501Y-78649999D02*
X-178512500Y-77075000D01*
X-177800000Y-61118750D02*
X-180975000Y-61118750D01*
X-180975000Y-61118750D02*
X-184150000Y-57943750D01*
X-184150000Y-39370000D02*
X-182245000Y-37465000D01*
X-184150000Y-57943750D02*
X-184150000Y-39370000D01*
X-175418750Y-60960000D02*
X-175260000Y-61118750D01*
X-175260000Y-46990000D02*
X-182245000Y-40005000D01*
X-175260000Y-61118750D02*
X-175260000Y-46990000D01*
X-179705000Y-29845000D02*
X-182245000Y-32385000D01*
X-167005000Y-29845000D02*
X-179705000Y-29845000D01*
X-183331250Y-77075000D02*
X-183331250Y-76175000D01*
X-183331250Y-76175000D02*
X-179387500Y-72231250D01*
X-179387500Y-72231250D02*
X-170656250Y-72231250D01*
X-170180000Y-71755000D02*
X-170180000Y-61118750D01*
X-170656250Y-72231250D02*
X-170180000Y-71755000D01*
X-170180000Y-61118750D02*
X-170180000Y-43338750D01*
X-170180000Y-43338750D02*
X-170180000Y-43338750D01*
X-168206301Y-33586301D02*
X-167005000Y-32385000D01*
X-184943750Y-34925000D02*
X-183605051Y-33586301D01*
X-183356250Y-79375000D02*
X-184943750Y-77787500D01*
X-183356250Y-80962500D02*
X-183356250Y-79375000D01*
X-184943750Y-92075000D02*
X-184943750Y-82550000D01*
X-184943750Y-77787500D02*
X-184943750Y-34925000D01*
X-176212500Y-96043750D02*
X-180975000Y-96043750D01*
X-183605051Y-33586301D02*
X-168206301Y-33586301D01*
X-184943750Y-82550000D02*
X-183356250Y-80962500D01*
X-180975000Y-96043750D02*
X-184943750Y-92075000D01*
X-175418750Y-95250000D02*
X-176212500Y-96043750D01*
X-175418750Y-90487500D02*
X-175418750Y-95250000D01*
M02*
