M48
; DRILL file {KiCad 5.1.10} date Sat Aug  7 14:46:01 2021
; FORMAT={-:-/ absolute / inch / decimal}
; #@! TF.CreationDate,2021-08-07T14:46:01-04:00
; #@! TF.GenerationSoftware,Kicad,Pcbnew,5.1.10
; #@! TF.FileFunction,NonPlated,1,2,NPTH
FMAT,2
INCH
T1C0.0472
T2C0.0689
T3C0.0866
T4C0.1200
T5C0.1570
%
G90
G05
T1
X-0.4734Y-2.0789
X0.0625Y-0.3091
X0.0625Y-0.5846
T2
X-6.6375Y-4.5312
X-6.45Y-3.7812
X-6.3563Y-2.2812
X-6.2375Y-4.5312
X-6.1688Y-1.5312
X-6.1688Y-2.2812
X-6.1688Y-3.0312
X-6.1688Y-3.7812
X-6.075Y-4.5312
X-6.05Y-3.7812
X-5.9562Y-2.2812
X-5.7687Y-1.5312
X-5.7687Y-2.2812
X-5.7687Y-3.0312
X-5.7687Y-3.7812
X-5.7Y-4.5312
X-5.675Y-4.5312
X-5.4188Y-1.5312
X-5.4188Y-2.2812
X-5.4188Y-3.0312
X-5.4188Y-3.7812
X-5.3Y-4.5312
X-5.1375Y-4.5312
X-5.0187Y-1.5312
X-5.0187Y-2.2812
X-5.0187Y-3.0312
X-5.0187Y-3.7812
X-4.7625Y-4.5312
X-4.7375Y-4.5312
X-4.6688Y-0.945
X-4.6688Y-1.695
X-4.6688Y-2.445
X-4.6688Y-3.195
X-4.3625Y-4.5312
X-4.2687Y-0.945
X-4.2687Y-1.695
X-4.2687Y-2.445
X-4.2687Y-3.195
X-4.2Y-4.5312
X-3.9187Y-0.8083
X-3.9187Y-1.5583
X-3.9187Y-2.3083
X-3.9187Y-3.0583
X-3.8Y-4.5312
X-3.7312Y-4.5312
X-3.5187Y-0.8083
X-3.5187Y-1.5583
X-3.5187Y-2.3083
X-3.5187Y-3.0583
X-3.3312Y-4.5312
X-3.1687Y-1.0
X-3.1687Y-1.75
X-3.1687Y-2.5
X-3.1687Y-3.25
X-3.1687Y-4.5312
X-2.7687Y-1.0
X-2.7687Y-1.75
X-2.7687Y-2.5
X-2.7687Y-3.25
X-2.7687Y-4.5312
X-2.4187Y-1.04
X-2.4187Y-1.79
X-2.4187Y-2.54
X-2.4187Y-3.29
X-2.0187Y-1.04
X-2.0187Y-1.79
X-2.0187Y-2.54
X-2.0187Y-3.29
X-1.6687Y-1.0625
X-1.6687Y-1.8125
X-1.5932Y-4.57
X-1.4688Y-2.55
X-1.4688Y-2.95
X-1.2688Y-1.0625
X-1.2688Y-1.8125
X-1.2468Y-4.77
T3
X-0.7776Y-1.998
X0.0938Y-2.0
T4
X-1.6884Y-4.1975
X-0.8766Y-4.6662
T5
X-6.4375Y-4.5312
X-6.25Y-3.7812
X-6.1562Y-2.2812
X-5.9688Y-1.5312
X-5.9688Y-2.2812
X-5.9688Y-3.0312
X-5.9688Y-3.7812
X-5.875Y-4.5312
X-5.5Y-4.5312
X-5.2188Y-1.5312
X-5.2188Y-2.2812
X-5.2188Y-3.0312
X-5.2188Y-3.7812
X-4.9375Y-4.5312
X-4.5625Y-4.5312
X-4.4688Y-0.945
X-4.4688Y-1.695
X-4.4688Y-2.445
X-4.4688Y-3.195
X-4.0Y-4.5312
X-3.7188Y-0.8083
X-3.7188Y-1.5583
X-3.7188Y-2.3083
X-3.7188Y-3.0583
X-3.5312Y-4.5312
X-2.9688Y-1.0
X-2.9688Y-1.75
X-2.9688Y-2.5
X-2.9688Y-3.25
X-2.9688Y-4.5312
X-2.2188Y-1.04
X-2.2188Y-1.79
X-2.2188Y-2.54
X-2.2188Y-3.29
X-1.9884Y-4.7171
X-1.4688Y-1.0625
X-1.4688Y-1.8125
X-1.4688Y-2.75
X-1.42Y-4.67
X-1.1766Y-5.1858
T0
M30
