G04 #@! TF.GenerationSoftware,KiCad,Pcbnew,5.1.10*
G04 #@! TF.CreationDate,2021-08-07T14:45:58-04:00*
G04 #@! TF.ProjectId,v05_left,7630355f-6c65-4667-942e-6b696361645f,rev?*
G04 #@! TF.SameCoordinates,Original*
G04 #@! TF.FileFunction,Copper,L1,Top*
G04 #@! TF.FilePolarity,Positive*
%FSLAX46Y46*%
G04 Gerber Fmt 4.6, Leading zero omitted, Abs format (unit mm)*
G04 Created by KiCad (PCBNEW 5.1.10) date 2021-08-07 14:45:58*
%MOMM*%
%LPD*%
G01*
G04 APERTURE LIST*
G04 #@! TA.AperFunction,ComponentPad*
%ADD10C,2.250000*%
G04 #@! TD*
G04 #@! TA.AperFunction,ComponentPad*
%ADD11R,1.752600X1.752600*%
G04 #@! TD*
G04 #@! TA.AperFunction,ComponentPad*
%ADD12C,1.752600*%
G04 #@! TD*
G04 #@! TA.AperFunction,ComponentPad*
%ADD13O,1.700000X2.500000*%
G04 #@! TD*
G04 #@! TA.AperFunction,ComponentPad*
%ADD14C,2.100000*%
G04 #@! TD*
G04 #@! TA.AperFunction,ComponentPad*
%ADD15C,1.750000*%
G04 #@! TD*
G04 #@! TA.AperFunction,ComponentPad*
%ADD16C,1.397000*%
G04 #@! TD*
G04 #@! TA.AperFunction,ViaPad*
%ADD17C,0.800000*%
G04 #@! TD*
G04 #@! TA.AperFunction,Conductor*
%ADD18C,0.250000*%
G04 #@! TD*
G04 APERTURE END LIST*
D10*
X-87153750Y-110013750D03*
X-93503750Y-112553750D03*
X-113347500Y-110013750D03*
X-119697500Y-112553750D03*
X-137160000Y-110013750D03*
X-143510000Y-112553750D03*
X-160972500Y-110013750D03*
X-167322500Y-112553750D03*
X-156210000Y-90963750D03*
X-162560000Y-93503750D03*
X-153828750Y-52863750D03*
X-160178750Y-55403750D03*
X-31328295Y-115488591D03*
X-38097557Y-114513295D03*
X-72866250Y-110013750D03*
X-79216250Y-112553750D03*
X-34766250Y-40957500D03*
X-41116250Y-43497500D03*
D11*
X-19526250Y-9842500D03*
D12*
X-19526250Y-12382500D03*
X-19526250Y-14922500D03*
X-19526250Y-17462500D03*
X-19526250Y-20002500D03*
X-19526250Y-22542500D03*
X-19526250Y-25082500D03*
X-19526250Y-27622500D03*
X-19526250Y-30162500D03*
X-19526250Y-32702500D03*
X-19526250Y-35242500D03*
X-4286250Y-37782500D03*
X-4286250Y-35242500D03*
X-4286250Y-32702500D03*
X-4286250Y-30162500D03*
X-4286250Y-27622500D03*
X-4286250Y-25082500D03*
X-4286250Y-22542500D03*
X-4286250Y-20002500D03*
X-4286250Y-17462500D03*
X-4286250Y-14922500D03*
X-4286250Y-12382500D03*
X-19526250Y-37782500D03*
X-4286250Y-9842500D03*
D13*
X-512500Y-18150000D03*
X3687500Y-16650000D03*
X3687500Y-12650000D03*
X3687500Y-9650000D03*
D14*
X-8525000Y-49103750D03*
D15*
X-9525000Y-51593750D03*
X-14525000Y-51593750D03*
D14*
X-15535000Y-49103750D03*
D10*
X-122872500Y-110013750D03*
X-129222500Y-112553750D03*
X-110966250Y-18923000D03*
X-117316250Y-21463000D03*
X-42386250Y-67310000D03*
X-39846250Y-73660000D03*
X-53816250Y-40386000D03*
X-60166250Y-42926000D03*
X-110966250Y-37973000D03*
X-117316250Y-40513000D03*
X-53816250Y-21336000D03*
X-60166250Y-23876000D03*
D16*
X-2757500Y-48086250D03*
X-2757500Y-53166250D03*
X-5138750Y-53166250D03*
X-5138750Y-48086250D03*
X-8255000Y-42862500D03*
X-10795000Y-42862500D03*
X-13335000Y-42862500D03*
X-15875000Y-42862500D03*
D10*
X-99060000Y-110013750D03*
X-105410000Y-112553750D03*
X-146685000Y-110013750D03*
X-153035000Y-112553750D03*
X-53816250Y-78486000D03*
X-60166250Y-81026000D03*
X-72866250Y-77470000D03*
X-79216250Y-80010000D03*
X-91916250Y-72600750D03*
X-98266250Y-75140750D03*
X-110966250Y-76073000D03*
X-117316250Y-78613000D03*
X-130016250Y-90963750D03*
X-136366250Y-93503750D03*
X-149066250Y-90963750D03*
X-155416250Y-93503750D03*
X-53816250Y-59436000D03*
X-60166250Y-61976000D03*
X-72866250Y-58420000D03*
X-79216250Y-60960000D03*
X-91916250Y-53550750D03*
X-98266250Y-56090750D03*
X-110966250Y-57023000D03*
X-117316250Y-59563000D03*
X-130016250Y-71913750D03*
X-136366250Y-74453750D03*
X-149066250Y-71913750D03*
X-155416250Y-74453750D03*
X-72866250Y-39370000D03*
X-79216250Y-41910000D03*
X-91916250Y-34500750D03*
X-98266250Y-37040750D03*
X-130016250Y-52863750D03*
X-136366250Y-55403750D03*
X-154146250Y-63023750D03*
X-147796250Y-60483750D03*
X-34766250Y-21907500D03*
X-41116250Y-24447500D03*
X-72866250Y-20320000D03*
X-79216250Y-22860000D03*
X-91916250Y-15450750D03*
X-98266250Y-17990750D03*
X-130016250Y-33813750D03*
X-136366250Y-36353750D03*
X-149066250Y-33813750D03*
X-155416250Y-36353750D03*
D17*
X-14287500Y-22225000D03*
X-8255000Y-34607500D03*
X-11906250Y-31750000D03*
D18*
X-159543750Y-70326250D02*
X-155416250Y-74453750D01*
X-159543750Y-69850000D02*
X-159543750Y-70326250D01*
X-13107551Y-13721199D02*
X-4286250Y-22542500D01*
X-118268750Y-9525000D02*
X-24606250Y-9525000D01*
X-126206250Y-30162500D02*
X-125412500Y-29368750D01*
X-125412500Y-29368750D02*
X-125412500Y-16668750D01*
X-151606250Y-30162500D02*
X-126206250Y-30162500D01*
X-155416250Y-33972500D02*
X-151606250Y-30162500D01*
X-20410051Y-13721199D02*
X-13107551Y-13721199D01*
X-24606250Y-9525000D02*
X-20410051Y-13721199D01*
X-125412500Y-16668750D02*
X-118268750Y-9525000D01*
X-155416250Y-36353750D02*
X-155416250Y-33972500D01*
X-155416250Y-93503750D02*
X-162560000Y-93503750D01*
X-159385000Y-106203750D02*
X-153035000Y-112553750D01*
X-159543750Y-106045000D02*
X-159385000Y-106203750D01*
X-153035000Y-112553750D02*
X-167322500Y-112553750D01*
X-167481250Y-92075000D02*
X-167481250Y-98107500D01*
X-167481250Y-98107500D02*
X-159385000Y-106203750D01*
X-164782500Y-89376250D02*
X-167481250Y-92075000D01*
X-159543750Y-88106250D02*
X-160813750Y-89376250D01*
X-159543750Y-69850000D02*
X-159543750Y-88106250D01*
X-162560000Y-93503750D02*
X-162560000Y-90328750D01*
X-162560000Y-90328750D02*
X-161607500Y-89376250D01*
X-161607500Y-89376250D02*
X-164782500Y-89376250D01*
X-160813750Y-89376250D02*
X-161607500Y-89376250D01*
X-164306250Y-65087500D02*
X-159543750Y-69850000D01*
X-163195000Y-51276250D02*
X-164306250Y-52387500D01*
X-160813750Y-51276250D02*
X-163195000Y-51276250D01*
X-159543750Y-37306250D02*
X-159543750Y-50006250D01*
X-158591250Y-36353750D02*
X-159543750Y-37306250D01*
X-159543750Y-50006250D02*
X-160813750Y-51276250D01*
X-155416250Y-36353750D02*
X-158591250Y-36353750D01*
X-164306250Y-53181250D02*
X-164306250Y-53975000D01*
X-164306250Y-52387500D02*
X-164306250Y-53181250D01*
X-164306250Y-53181250D02*
X-164306250Y-65087500D01*
X-162877500Y-55403750D02*
X-160178750Y-55403750D01*
X-164306250Y-53975000D02*
X-162877500Y-55403750D01*
X-148431250Y-61118750D02*
X-147796250Y-60483750D01*
X-158750000Y-61118750D02*
X-148431250Y-61118750D01*
X-159543750Y-60325000D02*
X-158750000Y-61118750D01*
X-159543750Y-57150000D02*
X-159543750Y-60325000D01*
X-160178750Y-56515000D02*
X-159543750Y-57150000D01*
X-160178750Y-55403750D02*
X-160178750Y-56515000D01*
X-136366250Y-36353750D02*
X-139541250Y-36353750D01*
X-139541250Y-36353750D02*
X-140493750Y-37306250D01*
X-140493750Y-101441250D02*
X-129222500Y-112712500D01*
X-140493750Y-89376250D02*
X-136366250Y-93503750D01*
X-140493750Y-87312500D02*
X-140493750Y-89376250D01*
X-140493750Y-87630000D02*
X-140493750Y-101600000D01*
X-140493750Y-70326250D02*
X-136366250Y-74453750D01*
X-140493750Y-69056250D02*
X-140493750Y-70326250D01*
X-140493750Y-69056250D02*
X-140493750Y-87312500D01*
X-140493750Y-51276250D02*
X-136366250Y-55403750D01*
X-140493750Y-37306250D02*
X-140493750Y-49212500D01*
X-140493750Y-49212500D02*
X-140493750Y-51276250D01*
X-140493750Y-49212500D02*
X-140493750Y-69056250D01*
X-25400000Y-11112500D02*
X-20251301Y-16261199D01*
X-20251301Y-16261199D02*
X-13107551Y-16261199D01*
X-117475000Y-11112500D02*
X-25400000Y-11112500D01*
X-123825000Y-17462500D02*
X-117475000Y-11112500D01*
X-13107551Y-16261199D02*
X-4286250Y-25082500D01*
X-125412500Y-31750000D02*
X-123825000Y-30162500D01*
X-135731250Y-31750000D02*
X-125412500Y-31750000D01*
X-136366250Y-32385000D02*
X-135731250Y-31750000D01*
X-123825000Y-30162500D02*
X-123825000Y-17462500D01*
X-136366250Y-36353750D02*
X-136366250Y-32385000D01*
X-129222500Y-112553750D02*
X-143510000Y-112553750D01*
X-117316250Y-21463000D02*
X-119888000Y-21463000D01*
X-119888000Y-21463000D02*
X-122237500Y-23812500D01*
X-122237500Y-95885000D02*
X-105410000Y-112712500D01*
X-122237500Y-73691750D02*
X-117316250Y-78613000D01*
X-122237500Y-67468750D02*
X-122237500Y-73691750D01*
X-122237500Y-66198750D02*
X-122237500Y-96043750D01*
X-122237500Y-54641750D02*
X-117316250Y-59563000D01*
X-122237500Y-53181250D02*
X-122237500Y-54641750D01*
X-122237500Y-53181250D02*
X-122237500Y-67468750D01*
X-122237500Y-35591750D02*
X-117316250Y-40513000D01*
X-122237500Y-34131250D02*
X-122237500Y-35591750D01*
X-122237500Y-23812500D02*
X-122237500Y-34131250D01*
X-122237500Y-34131250D02*
X-122237500Y-53181250D01*
X-26193750Y-11906250D02*
X-21976199Y-16123801D01*
X-112712500Y-11906250D02*
X-26193750Y-11906250D01*
X-117316250Y-16510000D02*
X-112712500Y-11906250D01*
X-117316250Y-21463000D02*
X-117316250Y-16510000D01*
X-8027551Y-23881199D02*
X-4286250Y-27622500D01*
X-19965477Y-23881199D02*
X-8027551Y-23881199D01*
X-20727551Y-23119125D02*
X-19965477Y-23881199D01*
X-20727551Y-18039125D02*
X-20727551Y-23119125D01*
X-21976199Y-16790477D02*
X-20727551Y-18039125D01*
X-21976199Y-16123801D02*
X-21976199Y-16790477D01*
X-105410000Y-112553750D02*
X-119697500Y-112553750D01*
X-98266250Y-17990750D02*
X-101409500Y-17990750D01*
X-101409500Y-17990750D02*
X-102393750Y-18975000D01*
X-102393750Y-88031250D02*
X-100806250Y-89618750D01*
X-100806250Y-89618750D02*
X-85725000Y-89618750D01*
X-85725000Y-89693750D02*
X-79216250Y-96202500D01*
X-102393750Y-71013250D02*
X-98266250Y-75140750D01*
X-102393750Y-68187500D02*
X-102393750Y-71013250D01*
X-102393750Y-68187500D02*
X-102393750Y-88031250D01*
X-102393750Y-51963250D02*
X-98266250Y-56090750D01*
X-102393750Y-48343750D02*
X-102393750Y-51963250D01*
X-102393750Y-48343750D02*
X-102393750Y-68187500D01*
X-102393750Y-32913250D02*
X-98266250Y-37040750D01*
X-102393750Y-30087500D02*
X-102393750Y-32913250D01*
X-102393750Y-18975000D02*
X-102393750Y-30087500D01*
X-102393750Y-30087500D02*
X-102393750Y-48343750D01*
X-79216250Y-96202500D02*
X-79216250Y-112553750D01*
X-96837500Y-12700000D02*
X-26987500Y-12700000D01*
X-98266250Y-14128750D02*
X-96837500Y-12700000D01*
X-98266250Y-17990750D02*
X-98266250Y-14128750D01*
X-26987500Y-12700000D02*
X-21431250Y-18256250D01*
X-19965477Y-26421199D02*
X-8027551Y-26421199D01*
X-8027551Y-26421199D02*
X-4286250Y-30162500D01*
X-21431250Y-24955426D02*
X-19965477Y-26421199D01*
X-21431250Y-18256250D02*
X-21431250Y-24955426D01*
X-79216250Y-112553750D02*
X-93503750Y-112553750D01*
X-38097557Y-102396193D02*
X-38097557Y-114513295D01*
X-83343750Y-85725000D02*
X-72231250Y-96837500D01*
X-43656250Y-96837500D02*
X-38097557Y-102396193D01*
X-72231250Y-96837500D02*
X-43656250Y-96837500D01*
X-82391250Y-22860000D02*
X-83343750Y-23812500D01*
X-79216250Y-22860000D02*
X-82391250Y-22860000D01*
X-83343750Y-75882500D02*
X-79216250Y-80010000D01*
X-83343750Y-70643750D02*
X-83343750Y-75882500D01*
X-83343750Y-70643750D02*
X-83343750Y-85725000D01*
X-83343750Y-56832500D02*
X-79216250Y-60960000D01*
X-83343750Y-53181250D02*
X-83343750Y-56832500D01*
X-83343750Y-53181250D02*
X-83343750Y-70643750D01*
X-83343750Y-37782500D02*
X-79216250Y-41910000D01*
X-83343750Y-34925000D02*
X-83343750Y-37782500D01*
X-83343750Y-23812500D02*
X-83343750Y-34925000D01*
X-83343750Y-34925000D02*
X-83343750Y-53181250D01*
X-21838801Y-28961199D02*
X-8027551Y-28961199D01*
X-22225000Y-19843750D02*
X-22225000Y-28575000D01*
X-78581250Y-15081250D02*
X-26987500Y-15081250D01*
X-26987500Y-15081250D02*
X-22225000Y-19843750D01*
X-79216250Y-15716250D02*
X-78581250Y-15081250D01*
X-8027551Y-28961199D02*
X-4286250Y-32702500D01*
X-22225000Y-28575000D02*
X-21838801Y-28961199D01*
X-79216250Y-22860000D02*
X-79216250Y-15716250D01*
X-60166250Y-23876000D02*
X-63563500Y-23876000D01*
X-63563500Y-23876000D02*
X-64293750Y-24606250D01*
X-64293750Y-76898500D02*
X-60166250Y-81026000D01*
X-64293750Y-57848500D02*
X-60166250Y-61976000D01*
X-64293750Y-54768750D02*
X-64293750Y-57848500D01*
X-64293750Y-54768750D02*
X-64293750Y-76898500D01*
X-64198500Y-38893750D02*
X-60166250Y-42926000D01*
X-64293750Y-38893750D02*
X-64198500Y-38893750D01*
X-64293750Y-24606250D02*
X-64293750Y-38893750D01*
X-64293750Y-38893750D02*
X-64293750Y-54768750D01*
X-60166250Y-23876000D02*
X-60166250Y-22066250D01*
X-60166250Y-22066250D02*
X-53975000Y-15875000D01*
X-53975000Y-15875000D02*
X-28575000Y-15875000D01*
X-28575000Y-15875000D02*
X-23812500Y-20637500D01*
X-23812500Y-20637500D02*
X-23812500Y-38893750D01*
X-8731250Y-39687500D02*
X-4286250Y-35242500D01*
X-23018750Y-39687500D02*
X-8731250Y-39687500D01*
X-23812500Y-38893750D02*
X-23018750Y-39687500D01*
X-41116250Y-24447500D02*
X-43497500Y-24447500D01*
X-43497500Y-24447500D02*
X-45243750Y-26193750D01*
X-45243750Y-68262500D02*
X-39846250Y-73660000D01*
X-45243750Y-39370000D02*
X-41116250Y-43497500D01*
X-45243750Y-26193750D02*
X-45243750Y-35718750D01*
X-45243750Y-35718750D02*
X-45243750Y-39370000D01*
X-45243750Y-35718750D02*
X-45243750Y-68262500D01*
X-41116250Y-24447500D02*
X-41116250Y-19208750D01*
X-41116250Y-19208750D02*
X-39370000Y-17462500D01*
X-39370000Y-17462500D02*
X-29368750Y-17462500D01*
X-29368750Y-17462500D02*
X-25400000Y-21431250D01*
X-25400000Y-21431250D02*
X-25400000Y-38893750D01*
X-25400000Y-38893750D02*
X-23018750Y-41275000D01*
X-7778750Y-41275000D02*
X-4286250Y-37782500D01*
X-23018750Y-41275000D02*
X-7778750Y-41275000D01*
X-2757500Y-48086250D02*
X-5600000Y-45243750D01*
X-8413750Y-45243750D02*
X-10795000Y-42862500D01*
X-5600000Y-45243750D02*
X-8413750Y-45243750D01*
X3687500Y-16650000D02*
X775000Y-16650000D01*
X-4862875Y-13721199D02*
X-6350000Y-15208324D01*
X-2153801Y-13721199D02*
X-4862875Y-13721199D01*
X775000Y-16650000D02*
X-2153801Y-13721199D01*
X-6350000Y-15398750D02*
X-4286250Y-17462500D01*
X-6350000Y-15208324D02*
X-6350000Y-15398750D01*
X-2757500Y-53166250D02*
X-2757500Y-55145000D01*
X-2757500Y-55145000D02*
X-4762500Y-57150000D01*
X-4762500Y-57150000D02*
X-19843750Y-57150000D01*
X-19843750Y-57150000D02*
X-23812500Y-53181250D01*
X-23812500Y-50800000D02*
X-15875000Y-42862500D01*
X-23812500Y-53181250D02*
X-23812500Y-50800000D01*
X-5138750Y-48086250D02*
X-7187500Y-46037500D01*
X-10160000Y-46037500D02*
X-13335000Y-42862500D01*
X-7187500Y-46037500D02*
X-10160000Y-46037500D01*
X-19208750Y-22225000D02*
X-19526250Y-22542500D01*
X-14287500Y-22225000D02*
X-19208750Y-22225000D01*
X-4018750Y-12650000D02*
X-4286250Y-12382500D01*
X3687500Y-12650000D02*
X-4018750Y-12650000D01*
X-8255000Y-34607500D02*
X-9048750Y-34607500D01*
X-9048750Y-34607500D02*
X-11906250Y-31750000D01*
X-11906250Y-31750000D02*
X-11906250Y-31750000D01*
X-793750Y-24606250D02*
X-2381250Y-23018750D01*
X-793750Y-49212500D02*
X-793750Y-24606250D01*
X-9525000Y-51593750D02*
X-3175000Y-51593750D01*
X-2381250Y-23018750D02*
X-2381250Y-16827500D01*
X-3175000Y-51593750D02*
X-793750Y-49212500D01*
X-2381250Y-16827500D02*
X-4286250Y-14922500D01*
X-18187551Y-11043801D02*
X-19526250Y-12382500D01*
X2293699Y-11043801D02*
X-18187551Y-11043801D01*
X3687500Y-9650000D02*
X2293699Y-11043801D01*
M02*
