G04 #@! TF.GenerationSoftware,KiCad,Pcbnew,5.1.10*
G04 #@! TF.CreationDate,2021-08-07T14:45:58-04:00*
G04 #@! TF.ProjectId,v05_left,7630355f-6c65-4667-942e-6b696361645f,rev?*
G04 #@! TF.SameCoordinates,Original*
G04 #@! TF.FileFunction,Soldermask,Bot*
G04 #@! TF.FilePolarity,Negative*
%FSLAX46Y46*%
G04 Gerber Fmt 4.6, Leading zero omitted, Abs format (unit mm)*
G04 Created by KiCad (PCBNEW 5.1.10) date 2021-08-07 14:45:58*
%MOMM*%
%LPD*%
G01*
G04 APERTURE LIST*
%ADD10C,2.250000*%
%ADD11C,3.987800*%
%ADD12C,1.750000*%
%ADD13C,3.048000*%
%ADD14R,0.900000X1.200000*%
%ADD15R,1.752600X1.752600*%
%ADD16C,1.752600*%
%ADD17O,1.700000X2.500000*%
%ADD18C,1.200000*%
%ADD19C,2.200000*%
%ADD20C,2.100000*%
%ADD21C,0.100000*%
%ADD22R,1.200000X0.900000*%
%ADD23C,1.397000*%
G04 APERTURE END LIST*
D10*
X-87153750Y-110013750D03*
D11*
X-89693750Y-115093750D03*
D10*
X-93503750Y-112553750D03*
D12*
X-94773750Y-115093750D03*
X-84613750Y-115093750D03*
D10*
X-113347500Y-110013750D03*
D11*
X-115887500Y-115093750D03*
D10*
X-119697500Y-112553750D03*
D12*
X-120967500Y-115093750D03*
X-110807500Y-115093750D03*
D10*
X-137160000Y-110013750D03*
D11*
X-139700000Y-115093750D03*
D10*
X-143510000Y-112553750D03*
D12*
X-144780000Y-115093750D03*
X-134620000Y-115093750D03*
D10*
X-160972500Y-110013750D03*
D11*
X-163512500Y-115093750D03*
D10*
X-167322500Y-112553750D03*
D12*
X-168592500Y-115093750D03*
X-158432500Y-115093750D03*
D10*
X-156210000Y-90963750D03*
D11*
X-158750000Y-96043750D03*
D10*
X-162560000Y-93503750D03*
D12*
X-163830000Y-96043750D03*
X-153670000Y-96043750D03*
D10*
X-153828750Y-52863750D03*
D11*
X-156368750Y-57943750D03*
D10*
X-160178750Y-55403750D03*
D12*
X-161448750Y-57943750D03*
X-151288750Y-57943750D03*
D10*
X-31328295Y-115488591D03*
D11*
X-36068000Y-118618000D03*
D10*
X-38097557Y-114513295D03*
D12*
X-40467409Y-116078000D03*
X-31668591Y-121158000D03*
D13*
X-42886615Y-106615688D03*
X-22264385Y-118521938D03*
D11*
X-50506615Y-119813915D03*
X-29884385Y-131720165D03*
D10*
X-72866250Y-110013750D03*
D11*
X-75406250Y-115093750D03*
D10*
X-79216250Y-112553750D03*
D12*
X-80486250Y-115093750D03*
X-70326250Y-115093750D03*
D10*
X-34766250Y-40957500D03*
D11*
X-37306250Y-46037500D03*
D10*
X-41116250Y-43497500D03*
D12*
X-42386250Y-46037500D03*
X-32226250Y-46037500D03*
D14*
X-33400000Y-53975000D03*
X-30100000Y-53975000D03*
D15*
X-19526250Y-9842500D03*
D16*
X-19526250Y-12382500D03*
X-19526250Y-14922500D03*
X-19526250Y-17462500D03*
X-19526250Y-20002500D03*
X-19526250Y-22542500D03*
X-19526250Y-25082500D03*
X-19526250Y-27622500D03*
X-19526250Y-30162500D03*
X-19526250Y-32702500D03*
X-19526250Y-35242500D03*
X-4286250Y-37782500D03*
X-4286250Y-35242500D03*
X-4286250Y-32702500D03*
X-4286250Y-30162500D03*
X-4286250Y-27622500D03*
X-4286250Y-25082500D03*
X-4286250Y-22542500D03*
X-4286250Y-20002500D03*
X-4286250Y-17462500D03*
X-4286250Y-14922500D03*
X-4286250Y-12382500D03*
X-19526250Y-37782500D03*
X-4286250Y-9842500D03*
D17*
X-512500Y-18150000D03*
X3687500Y-16650000D03*
X3687500Y-12650000D03*
X3687500Y-9650000D03*
D18*
X1587500Y-14850000D03*
X1587500Y-7850000D03*
D19*
X-19750000Y-50750000D03*
X2381250Y-50800000D03*
D18*
X-12025000Y-52803750D03*
D20*
X-8525000Y-49103750D03*
D12*
X-9525000Y-51593750D03*
X-14525000Y-51593750D03*
D20*
X-15535000Y-49103750D03*
D21*
G36*
X-50474135Y-104035769D02*
G01*
X-51513365Y-103435769D01*
X-51063365Y-102656347D01*
X-50024135Y-103256347D01*
X-50474135Y-104035769D01*
G37*
G36*
X-52124135Y-106893653D02*
G01*
X-53163365Y-106293653D01*
X-52713365Y-105514231D01*
X-51674135Y-106114231D01*
X-52124135Y-106893653D01*
G37*
D22*
X-62706250Y-119000000D03*
X-62706250Y-122300000D03*
X-104775000Y-119000000D03*
X-104775000Y-122300000D03*
X-129381250Y-119000000D03*
X-129381250Y-122300000D03*
X-152400000Y-119000000D03*
X-152400000Y-122300000D03*
D14*
X-50862500Y-91281250D03*
X-47562500Y-91281250D03*
X-69912500Y-90487500D03*
X-66612500Y-90487500D03*
X-88962500Y-85650000D03*
X-85662500Y-85650000D03*
X-108012500Y-88900000D03*
X-104712500Y-88900000D03*
X-127062500Y-103981250D03*
X-123762500Y-103981250D03*
X-146112500Y-103981250D03*
X-142812500Y-103981250D03*
X-33400000Y-81756250D03*
X-30100000Y-81756250D03*
X-50862500Y-72231250D03*
X-47562500Y-72231250D03*
X-69912500Y-71437500D03*
X-66612500Y-71437500D03*
X-88962500Y-66600000D03*
X-85662500Y-66600000D03*
X-108012500Y-69850000D03*
X-104712500Y-69850000D03*
X-127062500Y-84931250D03*
X-123762500Y-84931250D03*
X-146112500Y-84931250D03*
X-142812500Y-84931250D03*
X-50862500Y-53181250D03*
X-47562500Y-53181250D03*
X-69912500Y-52387500D03*
X-66612500Y-52387500D03*
X-88962500Y-47550000D03*
X-85662500Y-47550000D03*
X-108012500Y-50800000D03*
X-104712500Y-50800000D03*
X-127062500Y-65881250D03*
X-123762500Y-65881250D03*
X-146112500Y-65881250D03*
X-142812500Y-65881250D03*
X-33400000Y-34925000D03*
X-30100000Y-34925000D03*
X-50862500Y-34131250D03*
X-47562500Y-34131250D03*
X-69912500Y-33337500D03*
X-66612500Y-33337500D03*
X-88962500Y-28500000D03*
X-85662500Y-28500000D03*
X-108012500Y-31750000D03*
X-104712500Y-31750000D03*
X-127062500Y-46831250D03*
X-123762500Y-46831250D03*
X-146112500Y-46831250D03*
X-142812500Y-46831250D03*
D10*
X-122872500Y-110013750D03*
D11*
X-125412500Y-115093750D03*
D10*
X-129222500Y-112553750D03*
D12*
X-130492500Y-115093750D03*
X-120332500Y-115093750D03*
D10*
X-110966250Y-18923000D03*
D11*
X-113506250Y-24003000D03*
D10*
X-117316250Y-21463000D03*
D12*
X-118586250Y-24003000D03*
X-108426250Y-24003000D03*
D10*
X-42386250Y-67310000D03*
D11*
X-37306250Y-69850000D03*
D10*
X-39846250Y-73660000D03*
D12*
X-37306250Y-74930000D03*
X-37306250Y-64770000D03*
D10*
X-53816250Y-40386000D03*
D11*
X-56356250Y-45466000D03*
D10*
X-60166250Y-42926000D03*
D12*
X-61436250Y-45466000D03*
X-51276250Y-45466000D03*
D10*
X-110966250Y-37973000D03*
D11*
X-113506250Y-43053000D03*
D10*
X-117316250Y-40513000D03*
D12*
X-118586250Y-43053000D03*
X-108426250Y-43053000D03*
D10*
X-53816250Y-21336000D03*
D11*
X-56356250Y-26416000D03*
D10*
X-60166250Y-23876000D03*
D12*
X-61436250Y-26416000D03*
X-51276250Y-26416000D03*
D23*
X-2757500Y-48086250D03*
X-2757500Y-53166250D03*
X-5138750Y-53166250D03*
X-5138750Y-48086250D03*
X-8255000Y-42862500D03*
X-10795000Y-42862500D03*
X-13335000Y-42862500D03*
X-15875000Y-42862500D03*
D10*
X-99060000Y-110013750D03*
D11*
X-101600000Y-115093750D03*
D10*
X-105410000Y-112553750D03*
D12*
X-106680000Y-115093750D03*
X-96520000Y-115093750D03*
D10*
X-146685000Y-110013750D03*
D11*
X-149225000Y-115093750D03*
D10*
X-153035000Y-112553750D03*
D12*
X-154305000Y-115093750D03*
X-144145000Y-115093750D03*
D10*
X-53816250Y-78486000D03*
D11*
X-56356250Y-83566000D03*
D10*
X-60166250Y-81026000D03*
D12*
X-61436250Y-83566000D03*
X-51276250Y-83566000D03*
D10*
X-72866250Y-77470000D03*
D11*
X-75406250Y-82550000D03*
D10*
X-79216250Y-80010000D03*
D12*
X-80486250Y-82550000D03*
X-70326250Y-82550000D03*
D10*
X-91916250Y-72600750D03*
D11*
X-94456250Y-77680750D03*
D10*
X-98266250Y-75140750D03*
D12*
X-99536250Y-77680750D03*
X-89376250Y-77680750D03*
D10*
X-110966250Y-76073000D03*
D11*
X-113506250Y-81153000D03*
D10*
X-117316250Y-78613000D03*
D12*
X-118586250Y-81153000D03*
X-108426250Y-81153000D03*
D10*
X-130016250Y-90963750D03*
D11*
X-132556250Y-96043750D03*
D10*
X-136366250Y-93503750D03*
D12*
X-137636250Y-96043750D03*
X-127476250Y-96043750D03*
D10*
X-149066250Y-90963750D03*
D11*
X-151606250Y-96043750D03*
D10*
X-155416250Y-93503750D03*
D12*
X-156686250Y-96043750D03*
X-146526250Y-96043750D03*
D10*
X-53816250Y-59436000D03*
D11*
X-56356250Y-64516000D03*
D10*
X-60166250Y-61976000D03*
D12*
X-61436250Y-64516000D03*
X-51276250Y-64516000D03*
D10*
X-72866250Y-58420000D03*
D11*
X-75406250Y-63500000D03*
D10*
X-79216250Y-60960000D03*
D12*
X-80486250Y-63500000D03*
X-70326250Y-63500000D03*
D10*
X-91916250Y-53550750D03*
D11*
X-94456250Y-58630750D03*
D10*
X-98266250Y-56090750D03*
D12*
X-99536250Y-58630750D03*
X-89376250Y-58630750D03*
D10*
X-110966250Y-57023000D03*
D11*
X-113506250Y-62103000D03*
D10*
X-117316250Y-59563000D03*
D12*
X-118586250Y-62103000D03*
X-108426250Y-62103000D03*
D10*
X-130016250Y-71913750D03*
D11*
X-132556250Y-76993750D03*
D10*
X-136366250Y-74453750D03*
D12*
X-137636250Y-76993750D03*
X-127476250Y-76993750D03*
D10*
X-149066250Y-71913750D03*
D11*
X-151606250Y-76993750D03*
D10*
X-155416250Y-74453750D03*
D12*
X-156686250Y-76993750D03*
X-146526250Y-76993750D03*
D10*
X-72866250Y-39370000D03*
D11*
X-75406250Y-44450000D03*
D10*
X-79216250Y-41910000D03*
D12*
X-80486250Y-44450000D03*
X-70326250Y-44450000D03*
D10*
X-91916250Y-34500750D03*
D11*
X-94456250Y-39580750D03*
D10*
X-98266250Y-37040750D03*
D12*
X-99536250Y-39580750D03*
X-89376250Y-39580750D03*
D10*
X-130016250Y-52863750D03*
D11*
X-132556250Y-57943750D03*
D10*
X-136366250Y-55403750D03*
D12*
X-137636250Y-57943750D03*
X-127476250Y-57943750D03*
D10*
X-154146250Y-63023750D03*
D11*
X-151606250Y-57943750D03*
D10*
X-147796250Y-60483750D03*
D12*
X-146526250Y-57943750D03*
X-156686250Y-57943750D03*
D10*
X-34766250Y-21907500D03*
D11*
X-37306250Y-26987500D03*
D10*
X-41116250Y-24447500D03*
D12*
X-42386250Y-26987500D03*
X-32226250Y-26987500D03*
D10*
X-72866250Y-20320000D03*
D11*
X-75406250Y-25400000D03*
D10*
X-79216250Y-22860000D03*
D12*
X-80486250Y-25400000D03*
X-70326250Y-25400000D03*
D10*
X-91916250Y-15450750D03*
D11*
X-94456250Y-20530750D03*
D10*
X-98266250Y-17990750D03*
D12*
X-99536250Y-20530750D03*
X-89376250Y-20530750D03*
D10*
X-130016250Y-33813750D03*
D11*
X-132556250Y-38893750D03*
D10*
X-136366250Y-36353750D03*
D12*
X-137636250Y-38893750D03*
X-127476250Y-38893750D03*
D10*
X-149066250Y-33813750D03*
D11*
X-151606250Y-38893750D03*
D10*
X-155416250Y-36353750D03*
D12*
X-156686250Y-38893750D03*
X-146526250Y-38893750D03*
M02*
