M48
; DRILL file {KiCad 5.1.10} date Sat Aug  7 14:46:01 2021
; FORMAT={-:-/ absolute / inch / decimal}
; #@! TF.CreationDate,2021-08-07T14:46:01-04:00
; #@! TF.GenerationSoftware,Kicad,Pcbnew,5.1.10
; #@! TF.FileFunction,Plated,1,2,PTH
FMAT,2
INCH
T1C0.0157
T2C0.0320
T3C0.0390
T4C0.0394
T5C0.0430
T6C0.0512
T7C0.0579
%
G90
G05
T1
X-0.5625Y-0.875
X-0.4688Y-1.25
X-0.325Y-1.3625
T2
X-0.625Y-1.6875
X-0.525Y-1.6875
X-0.425Y-1.6875
X-0.325Y-1.6875
X-0.2023Y-1.8932
X-0.2023Y-2.0932
X-0.1086Y-1.8932
X-0.1086Y-2.0932
T3
X-0.5719Y-2.0312
X-0.375Y-2.0312
T5
X-0.7687Y-0.3875
X-0.7687Y-0.4875
X-0.7687Y-0.5875
X-0.7687Y-0.6875
X-0.7687Y-0.7875
X-0.7687Y-0.8875
X-0.7687Y-0.9875
X-0.7687Y-1.0875
X-0.7687Y-1.1875
X-0.7687Y-1.2875
X-0.7687Y-1.3875
X-0.7687Y-1.4875
X-0.1687Y-0.3875
X-0.1687Y-0.4875
X-0.1687Y-0.5875
X-0.1687Y-0.6875
X-0.1687Y-0.7875
X-0.1687Y-0.8875
X-0.1687Y-0.9875
X-0.1687Y-1.0875
X-0.1687Y-1.1875
X-0.1687Y-1.2875
X-0.1687Y-1.3875
X-0.1687Y-1.4875
T6
X-0.6116Y-1.9332
X-0.3356Y-1.9332
T7
X-6.5875Y-4.4312
X-6.4Y-3.6812
X-6.3375Y-4.3312
X-6.3062Y-2.1812
X-6.15Y-3.5812
X-6.1187Y-1.4312
X-6.1187Y-2.9312
X-6.1187Y-3.6812
X-6.0687Y-2.4812
X-6.0562Y-2.0812
X-6.025Y-4.4312
X-5.8687Y-1.3313
X-5.8687Y-2.8312
X-5.8687Y-3.5812
X-5.8187Y-2.3813
X-5.775Y-4.3312
X-5.65Y-4.4312
X-5.4Y-4.3312
X-5.3687Y-1.4312
X-5.3687Y-2.1812
X-5.3687Y-2.9312
X-5.3687Y-3.6812
X-5.1187Y-1.3313
X-5.1187Y-2.0812
X-5.1187Y-2.8312
X-5.1187Y-3.5812
X-5.0875Y-4.4312
X-4.8375Y-4.3312
X-4.7125Y-4.4312
X-4.6187Y-0.845
X-4.6187Y-1.595
X-4.6187Y-2.345
X-4.6187Y-3.095
X-4.4625Y-4.3312
X-4.3687Y-0.745
X-4.3687Y-1.495
X-4.3687Y-2.245
X-4.3687Y-2.995
X-4.15Y-4.4312
X-3.9Y-4.3312
X-3.8687Y-0.7083
X-3.8687Y-1.4583
X-3.8687Y-2.2083
X-3.8687Y-2.9583
X-3.6812Y-4.4312
X-3.6187Y-0.6083
X-3.6187Y-1.3583
X-3.6187Y-2.1083
X-3.6187Y-2.8583
X-3.4312Y-4.3312
X-3.1187Y-0.9
X-3.1187Y-1.65
X-3.1187Y-2.4
X-3.1187Y-3.15
X-3.1187Y-4.4312
X-2.8687Y-0.8
X-2.8687Y-1.55
X-2.8687Y-2.3
X-2.8687Y-3.05
X-2.8687Y-4.3312
X-2.3687Y-0.94
X-2.3687Y-1.69
X-2.3687Y-2.44
X-2.3687Y-3.19
X-2.1187Y-0.84
X-2.1187Y-1.59
X-2.1187Y-2.34
X-2.1187Y-3.09
X-1.6687Y-2.65
X-1.6187Y-0.9625
X-1.6187Y-1.7125
X-1.5687Y-2.9
X-1.4999Y-4.5084
X-1.3687Y-0.8625
X-1.3687Y-1.6125
X-1.2334Y-4.5468
T4
G00X-0.0202Y-0.7047
M15
G01X-0.0202Y-0.7244
M16
G05
G00X0.1452Y-0.3701
M15
G01X0.1452Y-0.3898
M16
G05
G00X0.1452Y-0.4882
M15
G01X0.1452Y-0.5079
M16
G05
G00X0.1452Y-0.6457
M15
G01X0.1452Y-0.6654
M16
G05
T0
M30
