M48
; DRILL file {KiCad 5.1.10} date Wed Mar  9 15:20:49 2022
; FORMAT={-:-/ absolute / inch / decimal}
; #@! TF.CreationDate,2022-03-09T15:20:49-05:00
; #@! TF.GenerationSoftware,Kicad,Pcbnew,5.1.10
; #@! TF.FileFunction,Plated,1,2,PTH
FMAT,2
INCH
T1C0.0157
T2C0.0320
T3C0.0390
T4C0.0394
T5C0.0430
T6C0.0512
T7C0.0579
%
G90
G05
T1
X2.0938Y-1.7812
X2.625Y-2.4062
X2.6875Y-1.625
X2.8Y-1.8313
X3.25Y-2.3125
X3.2812Y-2.1562
X3.2812Y-2.25
X3.8438Y-2.3125
X4.7188Y-2.25
X5.3125Y-2.1875
T2
X2.5Y-2.625
X2.6Y-2.625
X2.7Y-2.625
X2.75Y-2.8858
X2.75Y-3.0858
X2.8Y-2.625
X2.8986Y-2.8858
X2.8986Y-3.0858
T3
X2.3438Y-2.9281
X2.3438Y-3.125
T5
X2.325Y-1.2625
X2.325Y-1.3625
X2.325Y-1.4625
X2.325Y-1.5625
X2.325Y-1.6625
X2.325Y-1.7625
X2.325Y-1.8625
X2.325Y-1.9625
X2.325Y-2.0625
X2.325Y-2.1625
X2.325Y-2.2625
X2.325Y-2.3625
X2.925Y-1.2625
X2.925Y-1.3625
X2.925Y-1.4625
X2.925Y-1.5625
X2.925Y-1.6625
X2.925Y-1.7625
X2.925Y-1.8625
X2.925Y-1.9625
X2.925Y-2.0625
X2.925Y-2.1625
X2.925Y-2.2625
X2.925Y-2.3625
T6
X2.4418Y-2.8884
X2.4418Y-3.1644
T7
X2.3565Y-6.3237
X2.523Y-6.1121
X3.006Y-5.9487
X3.1725Y-5.7371
X3.35Y-1.525
X3.35Y-2.6023
X3.35Y-3.3523
X3.35Y-4.1023
X3.6Y-1.425
X3.6Y-2.5023
X3.6Y-3.2523
X3.6Y-4.0023
X4.1Y-1.525
X4.1Y-2.5905
X4.1Y-3.3405
X4.1Y-4.0905
X4.1Y-5.6187
X4.35Y-1.425
X4.35Y-2.4905
X4.35Y-3.2405
X4.35Y-3.9905
X4.35Y-5.5187
X4.85Y-1.525
X4.85Y-2.4625
X4.85Y-3.2125
X4.85Y-3.9625
X4.85Y-4.8687
X4.85Y-5.6187
X5.1Y-1.425
X5.1Y-2.3625
X5.1Y-3.1125
X5.1Y-3.8625
X5.1Y-4.7687
X5.1Y-5.5187
X5.6Y-1.525
X5.6Y-2.7214
X5.6Y-3.4714
X5.6Y-4.2214
X5.6Y-5.6187
X5.85Y-1.425
X5.85Y-2.6214
X5.85Y-3.3714
X5.85Y-4.1214
X5.85Y-5.5187
X6.35Y-3.3513
X6.35Y-4.1013
X6.35Y-4.8513
X6.6Y-3.2513
X6.6Y-4.0013
X6.6Y-4.7513
X7.1Y-3.3513
X7.1Y-4.1013
X7.1Y-4.8513
X7.3375Y-3.6513
X7.3375Y-4.4013
X7.3375Y-5.1513
X7.35Y-3.2513
X7.35Y-4.0013
X7.35Y-4.7513
X7.5875Y-3.5513
X7.5875Y-4.3013
X7.5875Y-5.0513
T4
G00X1.9798Y-1.5797
M15
G01X1.9798Y-1.5994
M16
G05
G00X2.1452Y-1.2451
M15
G01X2.1452Y-1.2648
M16
G05
G00X2.1452Y-1.3632
M15
G01X2.1452Y-1.3829
M16
G05
G00X2.1452Y-1.5207
M15
G01X2.1452Y-1.5404
M16
G05
T0
M30
