G04 #@! TF.GenerationSoftware,KiCad,Pcbnew,5.1.10*
G04 #@! TF.CreationDate,2022-03-09T15:20:40-05:00*
G04 #@! TF.ProjectId,bourbondox2_right,626f7572-626f-46e6-946f-78325f726967,rev?*
G04 #@! TF.SameCoordinates,Original*
G04 #@! TF.FileFunction,Legend,Top*
G04 #@! TF.FilePolarity,Positive*
%FSLAX46Y46*%
G04 Gerber Fmt 4.6, Leading zero omitted, Abs format (unit mm)*
G04 Created by KiCad (PCBNEW 5.1.10) date 2022-03-09 15:20:40*
%MOMM*%
%LPD*%
G01*
G04 APERTURE LIST*
%ADD10C,0.150000*%
%ADD11C,0.381000*%
%ADD12C,0.120000*%
G04 APERTURE END LIST*
D10*
X61706845Y-125309821D02*
X61849702Y-125357440D01*
X61897321Y-125405059D01*
X61944940Y-125500297D01*
X61944940Y-125643154D01*
X61897321Y-125738392D01*
X61849702Y-125786011D01*
X61754464Y-125833630D01*
X61373511Y-125833630D01*
X61373511Y-124833630D01*
X61706845Y-124833630D01*
X61802083Y-124881250D01*
X61849702Y-124928869D01*
X61897321Y-125024107D01*
X61897321Y-125119345D01*
X61849702Y-125214583D01*
X61802083Y-125262202D01*
X61706845Y-125309821D01*
X61373511Y-125309821D01*
X62516369Y-125833630D02*
X62421130Y-125786011D01*
X62373511Y-125738392D01*
X62325892Y-125643154D01*
X62325892Y-125357440D01*
X62373511Y-125262202D01*
X62421130Y-125214583D01*
X62516369Y-125166964D01*
X62659226Y-125166964D01*
X62754464Y-125214583D01*
X62802083Y-125262202D01*
X62849702Y-125357440D01*
X62849702Y-125643154D01*
X62802083Y-125738392D01*
X62754464Y-125786011D01*
X62659226Y-125833630D01*
X62516369Y-125833630D01*
X63706845Y-125166964D02*
X63706845Y-125833630D01*
X63278273Y-125166964D02*
X63278273Y-125690773D01*
X63325892Y-125786011D01*
X63421130Y-125833630D01*
X63563988Y-125833630D01*
X63659226Y-125786011D01*
X63706845Y-125738392D01*
X64183035Y-125833630D02*
X64183035Y-125166964D01*
X64183035Y-125357440D02*
X64230654Y-125262202D01*
X64278273Y-125214583D01*
X64373511Y-125166964D01*
X64468750Y-125166964D01*
X64802083Y-125833630D02*
X64802083Y-124833630D01*
X64802083Y-125214583D02*
X64897321Y-125166964D01*
X65087797Y-125166964D01*
X65183035Y-125214583D01*
X65230654Y-125262202D01*
X65278273Y-125357440D01*
X65278273Y-125643154D01*
X65230654Y-125738392D01*
X65183035Y-125786011D01*
X65087797Y-125833630D01*
X64897321Y-125833630D01*
X64802083Y-125786011D01*
X65849702Y-125833630D02*
X65754464Y-125786011D01*
X65706845Y-125738392D01*
X65659226Y-125643154D01*
X65659226Y-125357440D01*
X65706845Y-125262202D01*
X65754464Y-125214583D01*
X65849702Y-125166964D01*
X65992559Y-125166964D01*
X66087797Y-125214583D01*
X66135416Y-125262202D01*
X66183035Y-125357440D01*
X66183035Y-125643154D01*
X66135416Y-125738392D01*
X66087797Y-125786011D01*
X65992559Y-125833630D01*
X65849702Y-125833630D01*
X66611607Y-125166964D02*
X66611607Y-125833630D01*
X66611607Y-125262202D02*
X66659226Y-125214583D01*
X66754464Y-125166964D01*
X66897321Y-125166964D01*
X66992559Y-125214583D01*
X67040178Y-125309821D01*
X67040178Y-125833630D01*
X67944940Y-125833630D02*
X67944940Y-124833630D01*
X67944940Y-125786011D02*
X67849702Y-125833630D01*
X67659226Y-125833630D01*
X67563988Y-125786011D01*
X67516369Y-125738392D01*
X67468750Y-125643154D01*
X67468750Y-125357440D01*
X67516369Y-125262202D01*
X67563988Y-125214583D01*
X67659226Y-125166964D01*
X67849702Y-125166964D01*
X67944940Y-125214583D01*
X68563988Y-125833630D02*
X68468750Y-125786011D01*
X68421130Y-125738392D01*
X68373511Y-125643154D01*
X68373511Y-125357440D01*
X68421130Y-125262202D01*
X68468750Y-125214583D01*
X68563988Y-125166964D01*
X68706845Y-125166964D01*
X68802083Y-125214583D01*
X68849702Y-125262202D01*
X68897321Y-125357440D01*
X68897321Y-125643154D01*
X68849702Y-125738392D01*
X68802083Y-125786011D01*
X68706845Y-125833630D01*
X68563988Y-125833630D01*
X69230654Y-125833630D02*
X69754464Y-125166964D01*
X69230654Y-125166964D02*
X69754464Y-125833630D01*
X70802083Y-125166964D02*
X71040178Y-125833630D01*
X71278273Y-125166964D01*
X71611607Y-124928869D02*
X71659226Y-124881250D01*
X71754464Y-124833630D01*
X71992559Y-124833630D01*
X72087797Y-124881250D01*
X72135416Y-124928869D01*
X72183035Y-125024107D01*
X72183035Y-125119345D01*
X72135416Y-125262202D01*
X71563988Y-125833630D01*
X72183035Y-125833630D01*
X72611607Y-125738392D02*
X72659226Y-125786011D01*
X72611607Y-125833630D01*
X72563988Y-125786011D01*
X72611607Y-125738392D01*
X72611607Y-125833630D01*
X73278273Y-124833630D02*
X73373511Y-124833630D01*
X73468750Y-124881250D01*
X73516369Y-124928869D01*
X73563988Y-125024107D01*
X73611607Y-125214583D01*
X73611607Y-125452678D01*
X73563988Y-125643154D01*
X73516369Y-125738392D01*
X73468750Y-125786011D01*
X73373511Y-125833630D01*
X73278273Y-125833630D01*
X73183035Y-125786011D01*
X73135416Y-125738392D01*
X73087797Y-125643154D01*
X73040178Y-125452678D01*
X73040178Y-125214583D01*
X73087797Y-125024107D01*
X73135416Y-124928869D01*
X73183035Y-124881250D01*
X73278273Y-124833630D01*
X64087797Y-127483630D02*
X63754464Y-127007440D01*
X63516369Y-127483630D02*
X63516369Y-126483630D01*
X63897321Y-126483630D01*
X63992559Y-126531250D01*
X64040178Y-126578869D01*
X64087797Y-126674107D01*
X64087797Y-126816964D01*
X64040178Y-126912202D01*
X63992559Y-126959821D01*
X63897321Y-127007440D01*
X63516369Y-127007440D01*
X64516369Y-127483630D02*
X64516369Y-126483630D01*
X65516369Y-126531250D02*
X65421130Y-126483630D01*
X65278273Y-126483630D01*
X65135416Y-126531250D01*
X65040178Y-126626488D01*
X64992559Y-126721726D01*
X64944940Y-126912202D01*
X64944940Y-127055059D01*
X64992559Y-127245535D01*
X65040178Y-127340773D01*
X65135416Y-127436011D01*
X65278273Y-127483630D01*
X65373511Y-127483630D01*
X65516369Y-127436011D01*
X65563988Y-127388392D01*
X65563988Y-127055059D01*
X65373511Y-127055059D01*
X65992559Y-127483630D02*
X65992559Y-126483630D01*
X65992559Y-126959821D02*
X66563988Y-126959821D01*
X66563988Y-127483630D02*
X66563988Y-126483630D01*
X66897321Y-126483630D02*
X67468750Y-126483630D01*
X67183035Y-127483630D02*
X67183035Y-126483630D01*
X68516369Y-127436011D02*
X68659226Y-127483630D01*
X68897321Y-127483630D01*
X68992559Y-127436011D01*
X69040178Y-127388392D01*
X69087797Y-127293154D01*
X69087797Y-127197916D01*
X69040178Y-127102678D01*
X68992559Y-127055059D01*
X68897321Y-127007440D01*
X68706845Y-126959821D01*
X68611607Y-126912202D01*
X68563988Y-126864583D01*
X68516369Y-126769345D01*
X68516369Y-126674107D01*
X68563988Y-126578869D01*
X68611607Y-126531250D01*
X68706845Y-126483630D01*
X68944940Y-126483630D01*
X69087797Y-126531250D01*
X69516369Y-127483630D02*
X69516369Y-126483630D01*
X69992559Y-127483630D02*
X69992559Y-126483630D01*
X70230654Y-126483630D01*
X70373511Y-126531250D01*
X70468750Y-126626488D01*
X70516369Y-126721726D01*
X70563988Y-126912202D01*
X70563988Y-127055059D01*
X70516369Y-127245535D01*
X70468750Y-127340773D01*
X70373511Y-127436011D01*
X70230654Y-127483630D01*
X69992559Y-127483630D01*
X70992559Y-126959821D02*
X71325892Y-126959821D01*
X71468750Y-127483630D02*
X70992559Y-127483630D01*
X70992559Y-126483630D01*
X71468750Y-126483630D01*
D11*
G04 #@! TO.C,U1*
X57785000Y-30797500D02*
X57785000Y-61277500D01*
X57785000Y-61277500D02*
X75565000Y-61277500D01*
X75565000Y-61277500D02*
X75565000Y-30797500D01*
X60325000Y-30797500D02*
X60325000Y-33337500D01*
X60325000Y-33337500D02*
X57785000Y-33337500D01*
D10*
G36*
X71606568Y-36676860D02*
G01*
X71606568Y-36976860D01*
X71506568Y-36976860D01*
X71506568Y-36676860D01*
X71606568Y-36676860D01*
G37*
X71606568Y-36676860D02*
X71606568Y-36976860D01*
X71506568Y-36976860D01*
X71506568Y-36676860D01*
X71606568Y-36676860D01*
G36*
X71406568Y-37076860D02*
G01*
X71406568Y-37176860D01*
X71306568Y-37176860D01*
X71306568Y-37076860D01*
X71406568Y-37076860D01*
G37*
X71406568Y-37076860D02*
X71406568Y-37176860D01*
X71306568Y-37176860D01*
X71306568Y-37076860D01*
X71406568Y-37076860D01*
G36*
X71606568Y-36676860D02*
G01*
X71606568Y-36776860D01*
X71106568Y-36776860D01*
X71106568Y-36676860D01*
X71606568Y-36676860D01*
G37*
X71606568Y-36676860D02*
X71606568Y-36776860D01*
X71106568Y-36776860D01*
X71106568Y-36676860D01*
X71606568Y-36676860D01*
G36*
X71206568Y-36676860D02*
G01*
X71206568Y-37476860D01*
X71106568Y-37476860D01*
X71106568Y-36676860D01*
X71206568Y-36676860D01*
G37*
X71206568Y-36676860D02*
X71206568Y-37476860D01*
X71106568Y-37476860D01*
X71106568Y-36676860D01*
X71206568Y-36676860D01*
G36*
X71606568Y-37276860D02*
G01*
X71606568Y-37476860D01*
X71506568Y-37476860D01*
X71506568Y-37276860D01*
X71606568Y-37276860D01*
G37*
X71606568Y-37276860D02*
X71606568Y-37476860D01*
X71506568Y-37476860D01*
X71506568Y-37276860D01*
X71606568Y-37276860D01*
D11*
X75565000Y-30797500D02*
X75565000Y-28257500D01*
X75565000Y-28257500D02*
X57785000Y-28257500D01*
X57785000Y-28257500D02*
X57785000Y-30797500D01*
X60325000Y-30797500D02*
X57785000Y-30797500D01*
D12*
G04 #@! TO.C,SW1*
X60501250Y-80215000D02*
X60731250Y-80215000D01*
X56831250Y-80735000D02*
X56831250Y-73015000D01*
X56831250Y-73015000D02*
X60731250Y-73015000D01*
X56831250Y-80735000D02*
X60731250Y-80735000D01*
X60501250Y-73535000D02*
X60731250Y-73535000D01*
X60501250Y-74075000D02*
X60501250Y-73535000D01*
X60501250Y-80215000D02*
X60501250Y-79675000D01*
X60501250Y-78575000D02*
X60501250Y-75175000D01*
D10*
G04 #@! TO.C,R2*
X74625000Y-74337359D02*
X72623480Y-74337359D01*
X72623480Y-74337359D02*
X72623480Y-77339639D01*
X72623480Y-77339639D02*
X74625000Y-77339639D01*
X74625000Y-77339639D02*
X74625000Y-74337359D01*
G04 #@! TO.C,R1*
X70850760Y-74337359D02*
X68849240Y-74337359D01*
X68849240Y-74337359D02*
X68849240Y-77339639D01*
X68849240Y-77339639D02*
X70850760Y-77339639D01*
X70850760Y-77339639D02*
X70850760Y-74337359D01*
G04 #@! TO.C,OL1*
X62230000Y-67945000D02*
X72390000Y-67945000D01*
X62230000Y-65405000D02*
X72390000Y-65405000D01*
X72390000Y-65405000D02*
X72390000Y-67945000D01*
X62230000Y-67945000D02*
X62230000Y-65405000D01*
G04 #@! TO.C,J1*
X49487500Y-28725000D02*
X55287500Y-28725000D01*
X55287500Y-28725000D02*
X55287500Y-40475000D01*
X55287500Y-40475000D02*
X49487500Y-40475000D01*
X49487500Y-40475000D02*
X49487500Y-28725000D01*
G04 #@! TO.C,U1*
X60912651Y-31629404D02*
X61369794Y-31629404D01*
X61141223Y-32429404D02*
X61141223Y-31629404D01*
X61560270Y-31629404D02*
X62093604Y-32429404D01*
X62093604Y-31629404D02*
X61560270Y-32429404D01*
X62550747Y-31629404D02*
X62626937Y-31629404D01*
X62703128Y-31667500D01*
X62741223Y-31705595D01*
X62779318Y-31781785D01*
X62817413Y-31934166D01*
X62817413Y-32124642D01*
X62779318Y-32277023D01*
X62741223Y-32353214D01*
X62703128Y-32391309D01*
X62626937Y-32429404D01*
X62550747Y-32429404D01*
X62474556Y-32391309D01*
X62436461Y-32353214D01*
X62398366Y-32277023D01*
X62360270Y-32124642D01*
X62360270Y-31934166D01*
X62398366Y-31781785D01*
X62436461Y-31705595D01*
X62474556Y-31667500D01*
X62550747Y-31629404D01*
X63731699Y-31591309D02*
X63045985Y-32619880D01*
X63998366Y-32429404D02*
X63998366Y-31629404D01*
X64188842Y-31629404D01*
X64303128Y-31667500D01*
X64379318Y-31743690D01*
X64417413Y-31819880D01*
X64455508Y-31972261D01*
X64455508Y-32086547D01*
X64417413Y-32238928D01*
X64379318Y-32315119D01*
X64303128Y-32391309D01*
X64188842Y-32429404D01*
X63998366Y-32429404D01*
X64722175Y-31629404D02*
X65217413Y-31629404D01*
X64950747Y-31934166D01*
X65065032Y-31934166D01*
X65141223Y-31972261D01*
X65179318Y-32010357D01*
X65217413Y-32086547D01*
X65217413Y-32277023D01*
X65179318Y-32353214D01*
X65141223Y-32391309D01*
X65065032Y-32429404D01*
X64836461Y-32429404D01*
X64760270Y-32391309D01*
X64722175Y-32353214D01*
X60623523Y-34969404D02*
X60623523Y-34169404D01*
X60814000Y-34169404D01*
X60928285Y-34207500D01*
X61004476Y-34283690D01*
X61042571Y-34359880D01*
X61080666Y-34512261D01*
X61080666Y-34626547D01*
X61042571Y-34778928D01*
X61004476Y-34855119D01*
X60928285Y-34931309D01*
X60814000Y-34969404D01*
X60623523Y-34969404D01*
X61385428Y-34245595D02*
X61423523Y-34207500D01*
X61499714Y-34169404D01*
X61690190Y-34169404D01*
X61766380Y-34207500D01*
X61804476Y-34245595D01*
X61842571Y-34321785D01*
X61842571Y-34397976D01*
X61804476Y-34512261D01*
X61347333Y-34969404D01*
X61842571Y-34969404D01*
X60623523Y-45129404D02*
X60623523Y-44329404D01*
X60814000Y-44329404D01*
X60928285Y-44367500D01*
X61004476Y-44443690D01*
X61042571Y-44519880D01*
X61080666Y-44672261D01*
X61080666Y-44786547D01*
X61042571Y-44938928D01*
X61004476Y-45015119D01*
X60928285Y-45091309D01*
X60814000Y-45129404D01*
X60623523Y-45129404D01*
X61575904Y-44329404D02*
X61652095Y-44329404D01*
X61728285Y-44367500D01*
X61766380Y-44405595D01*
X61804476Y-44481785D01*
X61842571Y-44634166D01*
X61842571Y-44824642D01*
X61804476Y-44977023D01*
X61766380Y-45053214D01*
X61728285Y-45091309D01*
X61652095Y-45129404D01*
X61575904Y-45129404D01*
X61499714Y-45091309D01*
X61461619Y-45053214D01*
X61423523Y-44977023D01*
X61385428Y-44824642D01*
X61385428Y-44634166D01*
X61423523Y-44481785D01*
X61461619Y-44405595D01*
X61499714Y-44367500D01*
X61575904Y-44329404D01*
X60623523Y-42589404D02*
X60623523Y-41789404D01*
X60814000Y-41789404D01*
X60928285Y-41827500D01*
X61004476Y-41903690D01*
X61042571Y-41979880D01*
X61080666Y-42132261D01*
X61080666Y-42246547D01*
X61042571Y-42398928D01*
X61004476Y-42475119D01*
X60928285Y-42551309D01*
X60814000Y-42589404D01*
X60623523Y-42589404D01*
X61842571Y-42589404D02*
X61385428Y-42589404D01*
X61614000Y-42589404D02*
X61614000Y-41789404D01*
X61537809Y-41903690D01*
X61461619Y-41979880D01*
X61385428Y-42017976D01*
X60604476Y-39287500D02*
X60528285Y-39249404D01*
X60414000Y-39249404D01*
X60299714Y-39287500D01*
X60223523Y-39363690D01*
X60185428Y-39439880D01*
X60147333Y-39592261D01*
X60147333Y-39706547D01*
X60185428Y-39858928D01*
X60223523Y-39935119D01*
X60299714Y-40011309D01*
X60414000Y-40049404D01*
X60490190Y-40049404D01*
X60604476Y-40011309D01*
X60642571Y-39973214D01*
X60642571Y-39706547D01*
X60490190Y-39706547D01*
X60985428Y-40049404D02*
X60985428Y-39249404D01*
X61442571Y-40049404D01*
X61442571Y-39249404D01*
X61823523Y-40049404D02*
X61823523Y-39249404D01*
X62014000Y-39249404D01*
X62128285Y-39287500D01*
X62204476Y-39363690D01*
X62242571Y-39439880D01*
X62280666Y-39592261D01*
X62280666Y-39706547D01*
X62242571Y-39858928D01*
X62204476Y-39935119D01*
X62128285Y-40011309D01*
X62014000Y-40049404D01*
X61823523Y-40049404D01*
X60604476Y-36747500D02*
X60528285Y-36709404D01*
X60414000Y-36709404D01*
X60299714Y-36747500D01*
X60223523Y-36823690D01*
X60185428Y-36899880D01*
X60147333Y-37052261D01*
X60147333Y-37166547D01*
X60185428Y-37318928D01*
X60223523Y-37395119D01*
X60299714Y-37471309D01*
X60414000Y-37509404D01*
X60490190Y-37509404D01*
X60604476Y-37471309D01*
X60642571Y-37433214D01*
X60642571Y-37166547D01*
X60490190Y-37166547D01*
X60985428Y-37509404D02*
X60985428Y-36709404D01*
X61442571Y-37509404D01*
X61442571Y-36709404D01*
X61823523Y-37509404D02*
X61823523Y-36709404D01*
X62014000Y-36709404D01*
X62128285Y-36747500D01*
X62204476Y-36823690D01*
X62242571Y-36899880D01*
X62280666Y-37052261D01*
X62280666Y-37166547D01*
X62242571Y-37318928D01*
X62204476Y-37395119D01*
X62128285Y-37471309D01*
X62014000Y-37509404D01*
X61823523Y-37509404D01*
X60623523Y-47669404D02*
X60623523Y-46869404D01*
X60814000Y-46869404D01*
X60928285Y-46907500D01*
X61004476Y-46983690D01*
X61042571Y-47059880D01*
X61080666Y-47212261D01*
X61080666Y-47326547D01*
X61042571Y-47478928D01*
X61004476Y-47555119D01*
X60928285Y-47631309D01*
X60814000Y-47669404D01*
X60623523Y-47669404D01*
X61766380Y-47136071D02*
X61766380Y-47669404D01*
X61575904Y-46831309D02*
X61385428Y-47402738D01*
X61880666Y-47402738D01*
X61080666Y-50133214D02*
X61042571Y-50171309D01*
X60928285Y-50209404D01*
X60852095Y-50209404D01*
X60737809Y-50171309D01*
X60661619Y-50095119D01*
X60623523Y-50018928D01*
X60585428Y-49866547D01*
X60585428Y-49752261D01*
X60623523Y-49599880D01*
X60661619Y-49523690D01*
X60737809Y-49447500D01*
X60852095Y-49409404D01*
X60928285Y-49409404D01*
X61042571Y-49447500D01*
X61080666Y-49485595D01*
X61766380Y-49409404D02*
X61614000Y-49409404D01*
X61537809Y-49447500D01*
X61499714Y-49485595D01*
X61423523Y-49599880D01*
X61385428Y-49752261D01*
X61385428Y-50057023D01*
X61423523Y-50133214D01*
X61461619Y-50171309D01*
X61537809Y-50209404D01*
X61690190Y-50209404D01*
X61766380Y-50171309D01*
X61804476Y-50133214D01*
X61842571Y-50057023D01*
X61842571Y-49866547D01*
X61804476Y-49790357D01*
X61766380Y-49752261D01*
X61690190Y-49714166D01*
X61537809Y-49714166D01*
X61461619Y-49752261D01*
X61423523Y-49790357D01*
X61385428Y-49866547D01*
X60623523Y-52749404D02*
X60623523Y-51949404D01*
X60814000Y-51949404D01*
X60928285Y-51987500D01*
X61004476Y-52063690D01*
X61042571Y-52139880D01*
X61080666Y-52292261D01*
X61080666Y-52406547D01*
X61042571Y-52558928D01*
X61004476Y-52635119D01*
X60928285Y-52711309D01*
X60814000Y-52749404D01*
X60623523Y-52749404D01*
X61347333Y-51949404D02*
X61880666Y-51949404D01*
X61537809Y-52749404D01*
X60661619Y-54870357D02*
X60928285Y-54870357D01*
X61042571Y-55289404D02*
X60661619Y-55289404D01*
X60661619Y-54489404D01*
X61042571Y-54489404D01*
X61728285Y-54489404D02*
X61575904Y-54489404D01*
X61499714Y-54527500D01*
X61461619Y-54565595D01*
X61385428Y-54679880D01*
X61347333Y-54832261D01*
X61347333Y-55137023D01*
X61385428Y-55213214D01*
X61423523Y-55251309D01*
X61499714Y-55289404D01*
X61652095Y-55289404D01*
X61728285Y-55251309D01*
X61766380Y-55213214D01*
X61804476Y-55137023D01*
X61804476Y-54946547D01*
X61766380Y-54870357D01*
X61728285Y-54832261D01*
X61652095Y-54794166D01*
X61499714Y-54794166D01*
X61423523Y-54832261D01*
X61385428Y-54870357D01*
X61347333Y-54946547D01*
X60890190Y-57410357D02*
X61004476Y-57448452D01*
X61042571Y-57486547D01*
X61080666Y-57562738D01*
X61080666Y-57677023D01*
X61042571Y-57753214D01*
X61004476Y-57791309D01*
X60928285Y-57829404D01*
X60623523Y-57829404D01*
X60623523Y-57029404D01*
X60890190Y-57029404D01*
X60966380Y-57067500D01*
X61004476Y-57105595D01*
X61042571Y-57181785D01*
X61042571Y-57257976D01*
X61004476Y-57334166D01*
X60966380Y-57372261D01*
X60890190Y-57410357D01*
X60623523Y-57410357D01*
X61766380Y-57296071D02*
X61766380Y-57829404D01*
X61575904Y-56991309D02*
X61385428Y-57562738D01*
X61880666Y-57562738D01*
X60890190Y-59950357D02*
X61004476Y-59988452D01*
X61042571Y-60026547D01*
X61080666Y-60102738D01*
X61080666Y-60217023D01*
X61042571Y-60293214D01*
X61004476Y-60331309D01*
X60928285Y-60369404D01*
X60623523Y-60369404D01*
X60623523Y-59569404D01*
X60890190Y-59569404D01*
X60966380Y-59607500D01*
X61004476Y-59645595D01*
X61042571Y-59721785D01*
X61042571Y-59797976D01*
X61004476Y-59874166D01*
X60966380Y-59912261D01*
X60890190Y-59950357D01*
X60623523Y-59950357D01*
X61804476Y-59569404D02*
X61423523Y-59569404D01*
X61385428Y-59950357D01*
X61423523Y-59912261D01*
X61499714Y-59874166D01*
X61690190Y-59874166D01*
X61766380Y-59912261D01*
X61804476Y-59950357D01*
X61842571Y-60026547D01*
X61842571Y-60217023D01*
X61804476Y-60293214D01*
X61766380Y-60331309D01*
X61690190Y-60369404D01*
X61499714Y-60369404D01*
X61423523Y-60331309D01*
X61385428Y-60293214D01*
X71812190Y-59950357D02*
X71926476Y-59988452D01*
X71964571Y-60026547D01*
X72002666Y-60102738D01*
X72002666Y-60217023D01*
X71964571Y-60293214D01*
X71926476Y-60331309D01*
X71850285Y-60369404D01*
X71545523Y-60369404D01*
X71545523Y-59569404D01*
X71812190Y-59569404D01*
X71888380Y-59607500D01*
X71926476Y-59645595D01*
X71964571Y-59721785D01*
X71964571Y-59797976D01*
X71926476Y-59874166D01*
X71888380Y-59912261D01*
X71812190Y-59950357D01*
X71545523Y-59950357D01*
X72688380Y-59569404D02*
X72536000Y-59569404D01*
X72459809Y-59607500D01*
X72421714Y-59645595D01*
X72345523Y-59759880D01*
X72307428Y-59912261D01*
X72307428Y-60217023D01*
X72345523Y-60293214D01*
X72383619Y-60331309D01*
X72459809Y-60369404D01*
X72612190Y-60369404D01*
X72688380Y-60331309D01*
X72726476Y-60293214D01*
X72764571Y-60217023D01*
X72764571Y-60026547D01*
X72726476Y-59950357D01*
X72688380Y-59912261D01*
X72612190Y-59874166D01*
X72459809Y-59874166D01*
X72383619Y-59912261D01*
X72345523Y-59950357D01*
X72307428Y-60026547D01*
X71812190Y-54870357D02*
X71926476Y-54908452D01*
X71964571Y-54946547D01*
X72002666Y-55022738D01*
X72002666Y-55137023D01*
X71964571Y-55213214D01*
X71926476Y-55251309D01*
X71850285Y-55289404D01*
X71545523Y-55289404D01*
X71545523Y-54489404D01*
X71812190Y-54489404D01*
X71888380Y-54527500D01*
X71926476Y-54565595D01*
X71964571Y-54641785D01*
X71964571Y-54717976D01*
X71926476Y-54794166D01*
X71888380Y-54832261D01*
X71812190Y-54870357D01*
X71545523Y-54870357D01*
X72269333Y-54489404D02*
X72764571Y-54489404D01*
X72497904Y-54794166D01*
X72612190Y-54794166D01*
X72688380Y-54832261D01*
X72726476Y-54870357D01*
X72764571Y-54946547D01*
X72764571Y-55137023D01*
X72726476Y-55213214D01*
X72688380Y-55251309D01*
X72612190Y-55289404D01*
X72383619Y-55289404D01*
X72307428Y-55251309D01*
X72269333Y-55213214D01*
X71812190Y-52330357D02*
X71926476Y-52368452D01*
X71964571Y-52406547D01*
X72002666Y-52482738D01*
X72002666Y-52597023D01*
X71964571Y-52673214D01*
X71926476Y-52711309D01*
X71850285Y-52749404D01*
X71545523Y-52749404D01*
X71545523Y-51949404D01*
X71812190Y-51949404D01*
X71888380Y-51987500D01*
X71926476Y-52025595D01*
X71964571Y-52101785D01*
X71964571Y-52177976D01*
X71926476Y-52254166D01*
X71888380Y-52292261D01*
X71812190Y-52330357D01*
X71545523Y-52330357D01*
X72764571Y-52749404D02*
X72307428Y-52749404D01*
X72536000Y-52749404D02*
X72536000Y-51949404D01*
X72459809Y-52063690D01*
X72383619Y-52139880D01*
X72307428Y-52177976D01*
X71869333Y-42170357D02*
X71602666Y-42170357D01*
X71602666Y-42589404D02*
X71602666Y-41789404D01*
X71983619Y-41789404D01*
X72631238Y-42056071D02*
X72631238Y-42589404D01*
X72440761Y-41751309D02*
X72250285Y-42322738D01*
X72745523Y-42322738D01*
X71069333Y-39249404D02*
X71336000Y-40049404D01*
X71602666Y-39249404D01*
X72326476Y-39973214D02*
X72288380Y-40011309D01*
X72174095Y-40049404D01*
X72097904Y-40049404D01*
X71983619Y-40011309D01*
X71907428Y-39935119D01*
X71869333Y-39858928D01*
X71831238Y-39706547D01*
X71831238Y-39592261D01*
X71869333Y-39439880D01*
X71907428Y-39363690D01*
X71983619Y-39287500D01*
X72097904Y-39249404D01*
X72174095Y-39249404D01*
X72288380Y-39287500D01*
X72326476Y-39325595D01*
X73126476Y-39973214D02*
X73088380Y-40011309D01*
X72974095Y-40049404D01*
X72897904Y-40049404D01*
X72783619Y-40011309D01*
X72707428Y-39935119D01*
X72669333Y-39858928D01*
X72631238Y-39706547D01*
X72631238Y-39592261D01*
X72669333Y-39439880D01*
X72707428Y-39363690D01*
X72783619Y-39287500D01*
X72897904Y-39249404D01*
X72974095Y-39249404D01*
X73088380Y-39287500D01*
X73126476Y-39325595D01*
X71874786Y-37441309D02*
X71989072Y-37479404D01*
X72179548Y-37479404D01*
X72255739Y-37441309D01*
X72293834Y-37403214D01*
X72331929Y-37327023D01*
X72331929Y-37250833D01*
X72293834Y-37174642D01*
X72255739Y-37136547D01*
X72179548Y-37098452D01*
X72027167Y-37060357D01*
X71950977Y-37022261D01*
X71912881Y-36984166D01*
X71874786Y-36907976D01*
X71874786Y-36831785D01*
X71912881Y-36755595D01*
X71950977Y-36717500D01*
X72027167Y-36679404D01*
X72217643Y-36679404D01*
X72331929Y-36717500D01*
X72560500Y-36679404D02*
X73017643Y-36679404D01*
X72789072Y-37479404D02*
X72789072Y-36679404D01*
X71526476Y-34207500D02*
X71450285Y-34169404D01*
X71336000Y-34169404D01*
X71221714Y-34207500D01*
X71145523Y-34283690D01*
X71107428Y-34359880D01*
X71069333Y-34512261D01*
X71069333Y-34626547D01*
X71107428Y-34778928D01*
X71145523Y-34855119D01*
X71221714Y-34931309D01*
X71336000Y-34969404D01*
X71412190Y-34969404D01*
X71526476Y-34931309D01*
X71564571Y-34893214D01*
X71564571Y-34626547D01*
X71412190Y-34626547D01*
X71907428Y-34969404D02*
X71907428Y-34169404D01*
X72364571Y-34969404D01*
X72364571Y-34169404D01*
X72745523Y-34969404D02*
X72745523Y-34169404D01*
X72936000Y-34169404D01*
X73050285Y-34207500D01*
X73126476Y-34283690D01*
X73164571Y-34359880D01*
X73202666Y-34512261D01*
X73202666Y-34626547D01*
X73164571Y-34778928D01*
X73126476Y-34855119D01*
X73050285Y-34931309D01*
X72936000Y-34969404D01*
X72745523Y-34969404D01*
X71583619Y-32429404D02*
X71316952Y-32048452D01*
X71126476Y-32429404D02*
X71126476Y-31629404D01*
X71431238Y-31629404D01*
X71507428Y-31667500D01*
X71545523Y-31705595D01*
X71583619Y-31781785D01*
X71583619Y-31896071D01*
X71545523Y-31972261D01*
X71507428Y-32010357D01*
X71431238Y-32048452D01*
X71126476Y-32048452D01*
X71888380Y-32200833D02*
X72269333Y-32200833D01*
X71812190Y-32429404D02*
X72078857Y-31629404D01*
X72345523Y-32429404D01*
X72536000Y-31629404D02*
X72726476Y-32429404D01*
X72878857Y-31857976D01*
X73031238Y-32429404D01*
X73221714Y-31629404D01*
X71869333Y-44710357D02*
X71602666Y-44710357D01*
X71602666Y-45129404D02*
X71602666Y-44329404D01*
X71983619Y-44329404D01*
X72669333Y-44329404D02*
X72288380Y-44329404D01*
X72250285Y-44710357D01*
X72288380Y-44672261D01*
X72364571Y-44634166D01*
X72555047Y-44634166D01*
X72631238Y-44672261D01*
X72669333Y-44710357D01*
X72707428Y-44786547D01*
X72707428Y-44977023D01*
X72669333Y-45053214D01*
X72631238Y-45091309D01*
X72555047Y-45129404D01*
X72364571Y-45129404D01*
X72288380Y-45091309D01*
X72250285Y-45053214D01*
X71869333Y-47250357D02*
X71602666Y-47250357D01*
X71602666Y-47669404D02*
X71602666Y-46869404D01*
X71983619Y-46869404D01*
X72631238Y-46869404D02*
X72478857Y-46869404D01*
X72402666Y-46907500D01*
X72364571Y-46945595D01*
X72288380Y-47059880D01*
X72250285Y-47212261D01*
X72250285Y-47517023D01*
X72288380Y-47593214D01*
X72326476Y-47631309D01*
X72402666Y-47669404D01*
X72555047Y-47669404D01*
X72631238Y-47631309D01*
X72669333Y-47593214D01*
X72707428Y-47517023D01*
X72707428Y-47326547D01*
X72669333Y-47250357D01*
X72631238Y-47212261D01*
X72555047Y-47174166D01*
X72402666Y-47174166D01*
X72326476Y-47212261D01*
X72288380Y-47250357D01*
X72250285Y-47326547D01*
X71869333Y-49790357D02*
X71602666Y-49790357D01*
X71602666Y-50209404D02*
X71602666Y-49409404D01*
X71983619Y-49409404D01*
X72212190Y-49409404D02*
X72745523Y-49409404D01*
X72402666Y-50209404D01*
X71812190Y-57410357D02*
X71926476Y-57448452D01*
X71964571Y-57486547D01*
X72002666Y-57562738D01*
X72002666Y-57677023D01*
X71964571Y-57753214D01*
X71926476Y-57791309D01*
X71850285Y-57829404D01*
X71545523Y-57829404D01*
X71545523Y-57029404D01*
X71812190Y-57029404D01*
X71888380Y-57067500D01*
X71926476Y-57105595D01*
X71964571Y-57181785D01*
X71964571Y-57257976D01*
X71926476Y-57334166D01*
X71888380Y-57372261D01*
X71812190Y-57410357D01*
X71545523Y-57410357D01*
X72307428Y-57105595D02*
X72345523Y-57067500D01*
X72421714Y-57029404D01*
X72612190Y-57029404D01*
X72688380Y-57067500D01*
X72726476Y-57105595D01*
X72764571Y-57181785D01*
X72764571Y-57257976D01*
X72726476Y-57372261D01*
X72269333Y-57829404D01*
X72764571Y-57829404D01*
G04 #@! TO.C,SW1*
X61616011Y-78208333D02*
X61663630Y-78065476D01*
X61663630Y-77827380D01*
X61616011Y-77732142D01*
X61568392Y-77684523D01*
X61473154Y-77636904D01*
X61377916Y-77636904D01*
X61282678Y-77684523D01*
X61235059Y-77732142D01*
X61187440Y-77827380D01*
X61139821Y-78017857D01*
X61092202Y-78113095D01*
X61044583Y-78160714D01*
X60949345Y-78208333D01*
X60854107Y-78208333D01*
X60758869Y-78160714D01*
X60711250Y-78113095D01*
X60663630Y-78017857D01*
X60663630Y-77779761D01*
X60711250Y-77636904D01*
X60663630Y-77303571D02*
X61663630Y-77065476D01*
X60949345Y-76875000D01*
X61663630Y-76684523D01*
X60663630Y-76446428D01*
X61663630Y-75541666D02*
X61663630Y-76113095D01*
X61663630Y-75827380D02*
X60663630Y-75827380D01*
X60806488Y-75922619D01*
X60901726Y-76017857D01*
X60949345Y-76113095D01*
G04 #@! TO.C,R2*
X73986144Y-75971832D02*
X73605192Y-76238499D01*
X73986144Y-76428975D02*
X73186144Y-76428975D01*
X73186144Y-76124213D01*
X73224240Y-76048022D01*
X73262335Y-76009927D01*
X73338525Y-75971832D01*
X73452811Y-75971832D01*
X73529001Y-76009927D01*
X73567097Y-76048022D01*
X73605192Y-76124213D01*
X73605192Y-76428975D01*
X73262335Y-75667070D02*
X73224240Y-75628975D01*
X73186144Y-75552784D01*
X73186144Y-75362308D01*
X73224240Y-75286118D01*
X73262335Y-75248022D01*
X73338525Y-75209927D01*
X73414716Y-75209927D01*
X73529001Y-75248022D01*
X73986144Y-75705165D01*
X73986144Y-75209927D01*
G04 #@! TO.C,R1*
X70211904Y-75971832D02*
X69830952Y-76238499D01*
X70211904Y-76428975D02*
X69411904Y-76428975D01*
X69411904Y-76124213D01*
X69450000Y-76048022D01*
X69488095Y-76009927D01*
X69564285Y-75971832D01*
X69678571Y-75971832D01*
X69754761Y-76009927D01*
X69792857Y-76048022D01*
X69830952Y-76124213D01*
X69830952Y-76428975D01*
X70211904Y-75209927D02*
X70211904Y-75667070D01*
X70211904Y-75438499D02*
X69411904Y-75438499D01*
X69526190Y-75514689D01*
X69602380Y-75590879D01*
X69640476Y-75667070D01*
G04 #@! TO.C,OL1*
X61139895Y-69398447D02*
X61139895Y-69243628D01*
X61178600Y-69166219D01*
X61256009Y-69088809D01*
X61410828Y-69050104D01*
X61681761Y-69050104D01*
X61836580Y-69088809D01*
X61913990Y-69166219D01*
X61952695Y-69243628D01*
X61952695Y-69398447D01*
X61913990Y-69475857D01*
X61836580Y-69553266D01*
X61681761Y-69591971D01*
X61410828Y-69591971D01*
X61256009Y-69553266D01*
X61178600Y-69475857D01*
X61139895Y-69398447D01*
X61952695Y-68314714D02*
X61952695Y-68701761D01*
X61139895Y-68701761D01*
X61952695Y-67618028D02*
X61952695Y-68082485D01*
X61952695Y-67850257D02*
X61139895Y-67850257D01*
X61256009Y-67927666D01*
X61333419Y-68005076D01*
X61372123Y-68082485D01*
G04 #@! TO.C,J1*
X49875595Y-34477380D02*
X50447023Y-34477380D01*
X50161309Y-35477380D02*
X50161309Y-34477380D01*
X51351785Y-35477380D02*
X51018452Y-35001190D01*
X50780357Y-35477380D02*
X50780357Y-34477380D01*
X51161309Y-34477380D01*
X51256547Y-34525000D01*
X51304166Y-34572619D01*
X51351785Y-34667857D01*
X51351785Y-34810714D01*
X51304166Y-34905952D01*
X51256547Y-34953571D01*
X51161309Y-35001190D01*
X50780357Y-35001190D01*
X52351785Y-35477380D02*
X52018452Y-35001190D01*
X51780357Y-35477380D02*
X51780357Y-34477380D01*
X52161309Y-34477380D01*
X52256547Y-34525000D01*
X52304166Y-34572619D01*
X52351785Y-34667857D01*
X52351785Y-34810714D01*
X52304166Y-34905952D01*
X52256547Y-34953571D01*
X52161309Y-35001190D01*
X51780357Y-35001190D01*
X52732738Y-35429761D02*
X52875595Y-35477380D01*
X53113690Y-35477380D01*
X53208928Y-35429761D01*
X53256547Y-35382142D01*
X53304166Y-35286904D01*
X53304166Y-35191666D01*
X53256547Y-35096428D01*
X53208928Y-35048809D01*
X53113690Y-35001190D01*
X52923214Y-34953571D01*
X52827976Y-34905952D01*
X52780357Y-34858333D01*
X52732738Y-34763095D01*
X52732738Y-34667857D01*
X52780357Y-34572619D01*
X52827976Y-34525000D01*
X52923214Y-34477380D01*
X53161309Y-34477380D01*
X53304166Y-34525000D01*
G04 #@! TD*
M02*
