G04 #@! TF.GenerationSoftware,KiCad,Pcbnew,5.1.10*
G04 #@! TF.CreationDate,2022-03-09T15:20:40-05:00*
G04 #@! TF.ProjectId,bourbondox2_right,626f7572-626f-46e6-946f-78325f726967,rev?*
G04 #@! TF.SameCoordinates,Original*
G04 #@! TF.FileFunction,Copper,L2,Bot*
G04 #@! TF.FilePolarity,Positive*
%FSLAX46Y46*%
G04 Gerber Fmt 4.6, Leading zero omitted, Abs format (unit mm)*
G04 Created by KiCad (PCBNEW 5.1.10) date 2022-03-09 15:20:40*
%MOMM*%
%LPD*%
G01*
G04 APERTURE LIST*
G04 #@! TA.AperFunction,ComponentPad*
%ADD10C,1.752600*%
G04 #@! TD*
G04 #@! TA.AperFunction,ComponentPad*
%ADD11R,1.752600X1.752600*%
G04 #@! TD*
G04 #@! TA.AperFunction,ComponentPad*
%ADD12C,2.100000*%
G04 #@! TD*
G04 #@! TA.AperFunction,ComponentPad*
%ADD13C,1.750000*%
G04 #@! TD*
G04 #@! TA.AperFunction,ComponentPad*
%ADD14C,1.397000*%
G04 #@! TD*
G04 #@! TA.AperFunction,ComponentPad*
%ADD15C,2.250000*%
G04 #@! TD*
G04 #@! TA.AperFunction,ComponentPad*
%ADD16O,1.700000X2.500000*%
G04 #@! TD*
G04 #@! TA.AperFunction,SMDPad,CuDef*
%ADD17R,1.200000X0.900000*%
G04 #@! TD*
G04 #@! TA.AperFunction,SMDPad,CuDef*
%ADD18R,0.900000X1.200000*%
G04 #@! TD*
G04 #@! TA.AperFunction,ViaPad*
%ADD19C,0.800000*%
G04 #@! TD*
G04 #@! TA.AperFunction,Conductor*
%ADD20C,0.250000*%
G04 #@! TD*
G04 APERTURE END LIST*
D10*
G04 #@! TO.P,U1,24*
G04 #@! TO.N,Net-(U1-Pad24)*
X74295000Y-32067500D03*
G04 #@! TO.P,U1,12*
G04 #@! TO.N,row4*
X59055000Y-60007500D03*
G04 #@! TO.P,U1,23*
G04 #@! TO.N,GND*
X74295000Y-34607500D03*
G04 #@! TO.P,U1,22*
G04 #@! TO.N,RESET*
X74295000Y-37147500D03*
G04 #@! TO.P,U1,21*
G04 #@! TO.N,VCC*
X74295000Y-39687500D03*
G04 #@! TO.P,U1,20*
G04 #@! TO.N,Net-(U1-Pad20)*
X74295000Y-42227500D03*
G04 #@! TO.P,U1,19*
G04 #@! TO.N,Net-(U1-Pad19)*
X74295000Y-44767500D03*
G04 #@! TO.P,U1,18*
G04 #@! TO.N,col0*
X74295000Y-47307500D03*
G04 #@! TO.P,U1,17*
G04 #@! TO.N,col1*
X74295000Y-49847500D03*
G04 #@! TO.P,U1,16*
G04 #@! TO.N,col2*
X74295000Y-52387500D03*
G04 #@! TO.P,U1,15*
G04 #@! TO.N,col3*
X74295000Y-54927500D03*
G04 #@! TO.P,U1,14*
G04 #@! TO.N,col4*
X74295000Y-57467500D03*
G04 #@! TO.P,U1,13*
G04 #@! TO.N,col5*
X74295000Y-60007500D03*
G04 #@! TO.P,U1,11*
G04 #@! TO.N,row3*
X59055000Y-57467500D03*
G04 #@! TO.P,U1,10*
G04 #@! TO.N,row2*
X59055000Y-54927500D03*
G04 #@! TO.P,U1,9*
G04 #@! TO.N,row1*
X59055000Y-52387500D03*
G04 #@! TO.P,U1,8*
G04 #@! TO.N,row0*
X59055000Y-49847500D03*
G04 #@! TO.P,U1,7*
G04 #@! TO.N,Net-(U1-Pad7)*
X59055000Y-47307500D03*
G04 #@! TO.P,U1,6*
G04 #@! TO.N,SCL*
X59055000Y-44767500D03*
G04 #@! TO.P,U1,5*
G04 #@! TO.N,SDA*
X59055000Y-42227500D03*
G04 #@! TO.P,U1,4*
G04 #@! TO.N,GND*
X59055000Y-39687500D03*
G04 #@! TO.P,U1,3*
X59055000Y-37147500D03*
G04 #@! TO.P,U1,2*
G04 #@! TO.N,DATA*
X59055000Y-34607500D03*
D11*
G04 #@! TO.P,U1,1*
G04 #@! TO.N,Net-(U1-Pad1)*
X59055000Y-32067500D03*
G04 #@! TD*
D12*
G04 #@! TO.P,SW1,*
G04 #@! TO.N,*
X62021250Y-80375000D03*
D13*
G04 #@! TO.P,SW1,1*
G04 #@! TO.N,RESET*
X59531250Y-79375000D03*
G04 #@! TO.P,SW1,2*
G04 #@! TO.N,GND*
X59531250Y-74375000D03*
D12*
G04 #@! TO.P,SW1,*
G04 #@! TO.N,*
X62021250Y-73365000D03*
G04 #@! TD*
D14*
G04 #@! TO.P,R2,2*
G04 #@! TO.N,VCC*
X73624240Y-78378499D03*
G04 #@! TO.P,R2,1*
G04 #@! TO.N,SCL*
X73624240Y-73298499D03*
G04 #@! TD*
G04 #@! TO.P,R1,2*
G04 #@! TO.N,VCC*
X69850000Y-78378499D03*
G04 #@! TO.P,R1,1*
G04 #@! TO.N,SDA*
X69850000Y-73298499D03*
G04 #@! TD*
G04 #@! TO.P,OL1,4*
G04 #@! TO.N,GND*
X71120000Y-66675000D03*
G04 #@! TO.P,OL1,3*
G04 #@! TO.N,VCC*
X68580000Y-66675000D03*
G04 #@! TO.P,OL1,2*
G04 #@! TO.N,SCL*
X66040000Y-66675000D03*
G04 #@! TO.P,OL1,1*
G04 #@! TO.N,SDA*
X63500000Y-66675000D03*
G04 #@! TD*
D15*
G04 #@! TO.P,MX30_2,2*
G04 #@! TO.N,Net-(D30-Pad2)*
X186372500Y-130842500D03*
G04 #@! TO.P,MX30_2,1*
G04 #@! TO.N,col0*
X192722500Y-128302500D03*
G04 #@! TD*
G04 #@! TO.P,MX20_2,2*
G04 #@! TO.N,Net-(D20-Pad2)*
X186372500Y-111792500D03*
G04 #@! TO.P,MX20_2,1*
G04 #@! TO.N,col0*
X192722500Y-109252500D03*
G04 #@! TD*
G04 #@! TO.P,MX10_2,2*
G04 #@! TO.N,Net-(D10-Pad2)*
X186372500Y-92742500D03*
G04 #@! TO.P,MX10_2,1*
G04 #@! TO.N,col0*
X192722500Y-90202500D03*
G04 #@! TD*
G04 #@! TO.P,MX45,1*
G04 #@! TO.N,col5*
X59855301Y-160621545D03*
G04 #@! TO.P,MX45,2*
G04 #@! TO.N,Net-(D45-Pad2)*
X64084563Y-155246841D03*
G04 #@! TD*
G04 #@! TO.P,MX44,1*
G04 #@! TO.N,col4*
X76353085Y-151096545D03*
G04 #@! TO.P,MX44,2*
G04 #@! TO.N,Net-(D44-Pad2)*
X80582347Y-145721841D03*
G04 #@! TD*
G04 #@! TO.P,MX43,2*
G04 #@! TO.N,Net-(D43-Pad2)*
X110490000Y-140176250D03*
G04 #@! TO.P,MX43,1*
G04 #@! TO.N,col3*
X104140000Y-142716250D03*
G04 #@! TD*
G04 #@! TO.P,MX42,2*
G04 #@! TO.N,Net-(D42-Pad2)*
X129540000Y-140176250D03*
G04 #@! TO.P,MX42,1*
G04 #@! TO.N,col2*
X123190000Y-142716250D03*
G04 #@! TD*
G04 #@! TO.P,MX41,2*
G04 #@! TO.N,Net-(D41-Pad2)*
X129540000Y-121126250D03*
G04 #@! TO.P,MX41,1*
G04 #@! TO.N,col1*
X123190000Y-123666250D03*
G04 #@! TD*
G04 #@! TO.P,MX40,2*
G04 #@! TO.N,Net-(D40-Pad2)*
X148590000Y-140176250D03*
G04 #@! TO.P,MX40,1*
G04 #@! TO.N,col0*
X142240000Y-142716250D03*
G04 #@! TD*
G04 #@! TO.P,MX35,2*
G04 #@! TO.N,Net-(D35-Pad2)*
X91440000Y-101657500D03*
G04 #@! TO.P,MX35,1*
G04 #@! TO.N,col5*
X85090000Y-104197500D03*
G04 #@! TD*
G04 #@! TO.P,MX34,2*
G04 #@! TO.N,Net-(D34-Pad2)*
X110490000Y-101357500D03*
G04 #@! TO.P,MX34,1*
G04 #@! TO.N,col4*
X104140000Y-103897500D03*
G04 #@! TD*
G04 #@! TO.P,MX33,2*
G04 #@! TO.N,Net-(D33-Pad2)*
X129540000Y-98107500D03*
G04 #@! TO.P,MX33,1*
G04 #@! TO.N,col3*
X123190000Y-100647500D03*
G04 #@! TD*
G04 #@! TO.P,MX32,2*
G04 #@! TO.N,Net-(D32-Pad2)*
X148590000Y-104682500D03*
G04 #@! TO.P,MX32,1*
G04 #@! TO.N,col2*
X142240000Y-107222500D03*
G04 #@! TD*
G04 #@! TO.P,MX31,2*
G04 #@! TO.N,Net-(D31-Pad2)*
X167640000Y-120682500D03*
G04 #@! TO.P,MX31,1*
G04 #@! TO.N,col1*
X161290000Y-123222500D03*
G04 #@! TD*
G04 #@! TO.P,MX30,2*
G04 #@! TO.N,Net-(D30-Pad2)*
X186690000Y-120682500D03*
G04 #@! TO.P,MX30,1*
G04 #@! TO.N,col0*
X180340000Y-123222500D03*
G04 #@! TD*
G04 #@! TO.P,MX25,2*
G04 #@! TO.N,Net-(D25-Pad2)*
X91440000Y-82607500D03*
G04 #@! TO.P,MX25,1*
G04 #@! TO.N,col5*
X85090000Y-85147500D03*
G04 #@! TD*
G04 #@! TO.P,MX24,2*
G04 #@! TO.N,Net-(D24-Pad2)*
X110490000Y-82307500D03*
G04 #@! TO.P,MX24,1*
G04 #@! TO.N,col4*
X104140000Y-84847500D03*
G04 #@! TD*
G04 #@! TO.P,MX23,2*
G04 #@! TO.N,Net-(D23-Pad2)*
X129540000Y-79057500D03*
G04 #@! TO.P,MX23,1*
G04 #@! TO.N,col3*
X123190000Y-81597500D03*
G04 #@! TD*
G04 #@! TO.P,MX22,2*
G04 #@! TO.N,Net-(D22-Pad2)*
X148590000Y-85632500D03*
G04 #@! TO.P,MX22,1*
G04 #@! TO.N,col2*
X142240000Y-88172500D03*
G04 #@! TD*
G04 #@! TO.P,MX21,2*
G04 #@! TO.N,Net-(D21-Pad2)*
X167640000Y-101632500D03*
G04 #@! TO.P,MX21,1*
G04 #@! TO.N,col1*
X161290000Y-104172500D03*
G04 #@! TD*
G04 #@! TO.P,MX20,2*
G04 #@! TO.N,Net-(D20-Pad2)*
X186690000Y-101632500D03*
G04 #@! TO.P,MX20,1*
G04 #@! TO.N,col0*
X180340000Y-104172500D03*
G04 #@! TD*
G04 #@! TO.P,MX15,2*
G04 #@! TO.N,Net-(D15-Pad2)*
X91440000Y-63557500D03*
G04 #@! TO.P,MX15,1*
G04 #@! TO.N,col5*
X85090000Y-66097500D03*
G04 #@! TD*
G04 #@! TO.P,MX14,2*
G04 #@! TO.N,Net-(D14-Pad2)*
X110490000Y-63257500D03*
G04 #@! TO.P,MX14,1*
G04 #@! TO.N,col4*
X104140000Y-65797500D03*
G04 #@! TD*
G04 #@! TO.P,MX13,2*
G04 #@! TO.N,Net-(D13-Pad2)*
X129540000Y-60007500D03*
G04 #@! TO.P,MX13,1*
G04 #@! TO.N,col3*
X123190000Y-62547500D03*
G04 #@! TD*
G04 #@! TO.P,MX12,2*
G04 #@! TO.N,Net-(D12-Pad2)*
X148590000Y-66582500D03*
G04 #@! TO.P,MX12,1*
G04 #@! TO.N,col2*
X142240000Y-69122500D03*
G04 #@! TD*
G04 #@! TO.P,MX11,2*
G04 #@! TO.N,Net-(D11-Pad2)*
X167640000Y-82582500D03*
G04 #@! TO.P,MX11,1*
G04 #@! TO.N,col1*
X161290000Y-85122500D03*
G04 #@! TD*
G04 #@! TO.P,MX10,2*
G04 #@! TO.N,Net-(D10-Pad2)*
X186690000Y-82582500D03*
G04 #@! TO.P,MX10,1*
G04 #@! TO.N,col0*
X180340000Y-85122500D03*
G04 #@! TD*
G04 #@! TO.P,MX5,2*
G04 #@! TO.N,Net-(D5-Pad2)*
X91440000Y-36195000D03*
G04 #@! TO.P,MX5,1*
G04 #@! TO.N,col5*
X85090000Y-38735000D03*
G04 #@! TD*
G04 #@! TO.P,MX4,2*
G04 #@! TO.N,Net-(D4-Pad2)*
X110490000Y-36195000D03*
G04 #@! TO.P,MX4,1*
G04 #@! TO.N,col4*
X104140000Y-38735000D03*
G04 #@! TD*
G04 #@! TO.P,MX3,2*
G04 #@! TO.N,Net-(D3-Pad2)*
X129540000Y-36195000D03*
G04 #@! TO.P,MX3,1*
G04 #@! TO.N,col3*
X123190000Y-38735000D03*
G04 #@! TD*
G04 #@! TO.P,MX2,2*
G04 #@! TO.N,Net-(D2-Pad2)*
X148590000Y-36195000D03*
G04 #@! TO.P,MX2,1*
G04 #@! TO.N,col2*
X142240000Y-38735000D03*
G04 #@! TD*
D16*
G04 #@! TO.P,J1,A*
G04 #@! TO.N,Net-(J1-PadA)*
X50287500Y-40375000D03*
G04 #@! TO.P,J1,D*
G04 #@! TO.N,VCC*
X54487500Y-38875000D03*
G04 #@! TO.P,J1,C*
G04 #@! TO.N,GND*
X54487500Y-34875000D03*
G04 #@! TO.P,J1,B*
G04 #@! TO.N,DATA*
X54487500Y-31875000D03*
G04 #@! TD*
D17*
G04 #@! TO.P,D45,2*
G04 #@! TO.N,Net-(D45-Pad2)*
X70643750Y-165037500D03*
G04 #@! TO.P,D45,1*
G04 #@! TO.N,row4*
X70643750Y-168337500D03*
G04 #@! TD*
G04 #@! TO.P,D44,2*
G04 #@! TO.N,Net-(D44-Pad2)*
X88900000Y-157893750D03*
G04 #@! TO.P,D44,1*
G04 #@! TO.N,row4*
X88900000Y-161193750D03*
G04 #@! TD*
D18*
G04 #@! TO.P,D43,2*
G04 #@! TO.N,Net-(D43-Pad2)*
X110393750Y-152400000D03*
G04 #@! TO.P,D43,1*
G04 #@! TO.N,row4*
X107093750Y-152400000D03*
G04 #@! TD*
G04 #@! TO.P,D42,2*
G04 #@! TO.N,Net-(D42-Pad2)*
X129443750Y-153193750D03*
G04 #@! TO.P,D42,1*
G04 #@! TO.N,row4*
X126143750Y-153193750D03*
G04 #@! TD*
G04 #@! TO.P,D41,2*
G04 #@! TO.N,Net-(D41-Pad2)*
X129443750Y-134143750D03*
G04 #@! TO.P,D41,1*
G04 #@! TO.N,row4*
X126143750Y-134143750D03*
G04 #@! TD*
G04 #@! TO.P,D40,2*
G04 #@! TO.N,Net-(D40-Pad2)*
X148493750Y-153193750D03*
G04 #@! TO.P,D40,1*
G04 #@! TO.N,row4*
X145193750Y-153193750D03*
G04 #@! TD*
G04 #@! TO.P,D35,2*
G04 #@! TO.N,Net-(D35-Pad2)*
X91343750Y-114675000D03*
G04 #@! TO.P,D35,1*
G04 #@! TO.N,row3*
X88043750Y-114675000D03*
G04 #@! TD*
G04 #@! TO.P,D34,2*
G04 #@! TO.N,Net-(D34-Pad2)*
X110393750Y-114375000D03*
G04 #@! TO.P,D34,1*
G04 #@! TO.N,row3*
X107093750Y-114375000D03*
G04 #@! TD*
G04 #@! TO.P,D33,2*
G04 #@! TO.N,Net-(D33-Pad2)*
X129443750Y-111125000D03*
G04 #@! TO.P,D33,1*
G04 #@! TO.N,row3*
X126143750Y-111125000D03*
G04 #@! TD*
G04 #@! TO.P,D32,2*
G04 #@! TO.N,Net-(D32-Pad2)*
X148493750Y-117700000D03*
G04 #@! TO.P,D32,1*
G04 #@! TO.N,row3*
X145193750Y-117700000D03*
G04 #@! TD*
G04 #@! TO.P,D31,2*
G04 #@! TO.N,Net-(D31-Pad2)*
X167543750Y-133700000D03*
G04 #@! TO.P,D31,1*
G04 #@! TO.N,row3*
X164243750Y-133700000D03*
G04 #@! TD*
G04 #@! TO.P,D30,2*
G04 #@! TO.N,Net-(D30-Pad2)*
X179450000Y-133700000D03*
G04 #@! TO.P,D30,1*
G04 #@! TO.N,row3*
X176150000Y-133700000D03*
G04 #@! TD*
G04 #@! TO.P,D25,2*
G04 #@! TO.N,Net-(D25-Pad2)*
X91343750Y-95625000D03*
G04 #@! TO.P,D25,1*
G04 #@! TO.N,row2*
X88043750Y-95625000D03*
G04 #@! TD*
G04 #@! TO.P,D24,2*
G04 #@! TO.N,Net-(D24-Pad2)*
X110393750Y-95325000D03*
G04 #@! TO.P,D24,1*
G04 #@! TO.N,row2*
X107093750Y-95325000D03*
G04 #@! TD*
G04 #@! TO.P,D23,2*
G04 #@! TO.N,Net-(D23-Pad2)*
X129443750Y-92075000D03*
G04 #@! TO.P,D23,1*
G04 #@! TO.N,row2*
X126143750Y-92075000D03*
G04 #@! TD*
G04 #@! TO.P,D22,2*
G04 #@! TO.N,Net-(D22-Pad2)*
X148493750Y-98650000D03*
G04 #@! TO.P,D22,1*
G04 #@! TO.N,row2*
X145193750Y-98650000D03*
G04 #@! TD*
G04 #@! TO.P,D21,2*
G04 #@! TO.N,Net-(D21-Pad2)*
X167543750Y-114650000D03*
G04 #@! TO.P,D21,1*
G04 #@! TO.N,row2*
X164243750Y-114650000D03*
G04 #@! TD*
G04 #@! TO.P,D20,2*
G04 #@! TO.N,Net-(D20-Pad2)*
X179450000Y-114650000D03*
G04 #@! TO.P,D20,1*
G04 #@! TO.N,row2*
X176150000Y-114650000D03*
G04 #@! TD*
G04 #@! TO.P,D15,2*
G04 #@! TO.N,Net-(D15-Pad2)*
X91343750Y-76575000D03*
G04 #@! TO.P,D15,1*
G04 #@! TO.N,row1*
X88043750Y-76575000D03*
G04 #@! TD*
G04 #@! TO.P,D14,2*
G04 #@! TO.N,Net-(D14-Pad2)*
X110393750Y-76275000D03*
G04 #@! TO.P,D14,1*
G04 #@! TO.N,row1*
X107093750Y-76275000D03*
G04 #@! TD*
G04 #@! TO.P,D13,2*
G04 #@! TO.N,Net-(D13-Pad2)*
X129443750Y-72231250D03*
G04 #@! TO.P,D13,1*
G04 #@! TO.N,row1*
X126143750Y-72231250D03*
G04 #@! TD*
G04 #@! TO.P,D12,2*
G04 #@! TO.N,Net-(D12-Pad2)*
X148493750Y-78806250D03*
G04 #@! TO.P,D12,1*
G04 #@! TO.N,row1*
X145193750Y-78806250D03*
G04 #@! TD*
G04 #@! TO.P,D11,2*
G04 #@! TO.N,Net-(D11-Pad2)*
X167543750Y-95600000D03*
G04 #@! TO.P,D11,1*
G04 #@! TO.N,row1*
X164243750Y-95600000D03*
G04 #@! TD*
G04 #@! TO.P,D10,2*
G04 #@! TO.N,Net-(D10-Pad2)*
X179450000Y-95600000D03*
G04 #@! TO.P,D10,1*
G04 #@! TO.N,row1*
X176150000Y-95600000D03*
G04 #@! TD*
G04 #@! TO.P,D5,2*
G04 #@! TO.N,Net-(D5-Pad2)*
X91343750Y-49212500D03*
G04 #@! TO.P,D5,1*
G04 #@! TO.N,row0*
X88043750Y-49212500D03*
G04 #@! TD*
G04 #@! TO.P,D4,2*
G04 #@! TO.N,Net-(D4-Pad2)*
X110393750Y-49212500D03*
G04 #@! TO.P,D4,1*
G04 #@! TO.N,row0*
X107093750Y-49212500D03*
G04 #@! TD*
G04 #@! TO.P,D3,2*
G04 #@! TO.N,Net-(D3-Pad2)*
X129443750Y-49212500D03*
G04 #@! TO.P,D3,1*
G04 #@! TO.N,row0*
X126143750Y-49212500D03*
G04 #@! TD*
G04 #@! TO.P,D2,2*
G04 #@! TO.N,Net-(D2-Pad2)*
X148493750Y-49212500D03*
G04 #@! TO.P,D2,1*
G04 #@! TO.N,row0*
X145193750Y-49212500D03*
G04 #@! TD*
D19*
G04 #@! TO.N,GND*
X71120000Y-46513750D03*
G04 #@! TO.N,col2*
X134937500Y-55562500D03*
X83343750Y-54768750D03*
G04 #@! TO.N,col3*
X119856250Y-57150000D03*
X83343750Y-57150000D03*
G04 #@! TO.N,col4*
X97631250Y-58737500D03*
X82550000Y-58737500D03*
G04 #@! TO.N,SDA*
X66675000Y-61118750D03*
G04 #@! TO.N,RESET*
X53181250Y-45243750D03*
X68262500Y-41275000D03*
G04 #@! TD*
D20*
G04 #@! TO.N,row0*
X145193750Y-49212500D02*
X145193750Y-50068750D01*
X145193750Y-50068750D02*
X143668750Y-51593750D01*
X128525000Y-51593750D02*
X126143750Y-49212500D01*
X143668750Y-51593750D02*
X128525000Y-51593750D01*
X126143750Y-49212500D02*
X126143750Y-50862500D01*
X126143750Y-50862500D02*
X125412500Y-51593750D01*
X109475000Y-51593750D02*
X107093750Y-49212500D01*
X125412500Y-51593750D02*
X109475000Y-51593750D01*
X107093750Y-49212500D02*
X107093750Y-50862500D01*
X107093750Y-50862500D02*
X106362500Y-51593750D01*
X90425000Y-51593750D02*
X88043750Y-49212500D01*
X106362500Y-51593750D02*
X90425000Y-51593750D01*
X60256301Y-48646199D02*
X59055000Y-49847500D01*
X87477449Y-48646199D02*
X60256301Y-48646199D01*
X88043750Y-49212500D02*
X87477449Y-48646199D01*
G04 #@! TO.N,row1*
X88043750Y-76575000D02*
X88043750Y-77725000D01*
X88043750Y-77725000D02*
X88900000Y-78581250D01*
X104787500Y-78581250D02*
X107093750Y-76275000D01*
X88900000Y-78581250D02*
X104787500Y-78581250D01*
X107093750Y-76275000D02*
X107093750Y-77725000D01*
X107093750Y-77725000D02*
X107950000Y-78581250D01*
X119793750Y-78581250D02*
X126143750Y-72231250D01*
X107950000Y-78581250D02*
X119793750Y-78581250D01*
X126143750Y-72231250D02*
X126143750Y-73756250D01*
X126143750Y-73756250D02*
X127793750Y-75406250D01*
X141793750Y-75406250D02*
X145193750Y-78806250D01*
X127793750Y-75406250D02*
X141793750Y-75406250D01*
X145193750Y-78806250D02*
X145193750Y-79312500D01*
X145193750Y-79312500D02*
X146843750Y-80962500D01*
X146843750Y-80962500D02*
X154781250Y-80962500D01*
X154781250Y-80962500D02*
X156368750Y-82550000D01*
X156368750Y-82550000D02*
X156368750Y-92868750D01*
X159100000Y-95600000D02*
X164243750Y-95600000D01*
X156368750Y-92868750D02*
X159100000Y-95600000D01*
X164243750Y-95600000D02*
X164243750Y-96775000D01*
X164243750Y-96775000D02*
X165100000Y-97631250D01*
X174118750Y-97631250D02*
X176150000Y-95600000D01*
X165100000Y-97631250D02*
X174118750Y-97631250D01*
X88043750Y-76575000D02*
X86893750Y-76575000D01*
X86893750Y-76575000D02*
X79375000Y-69056250D01*
X60256301Y-51186199D02*
X59055000Y-52387500D01*
X74998699Y-51186199D02*
X60256301Y-51186199D01*
X79375000Y-55562500D02*
X74998699Y-51186199D01*
X79375000Y-69056250D02*
X79375000Y-55562500D01*
G04 #@! TO.N,Net-(D10-Pad2)*
X186593599Y-92521401D02*
X186372500Y-92742500D01*
X186593599Y-82678901D02*
X186593599Y-92521401D01*
X186690000Y-82582500D02*
X186593599Y-82678901D01*
X182307500Y-92742500D02*
X179450000Y-95600000D01*
X186372500Y-92742500D02*
X182307500Y-92742500D01*
G04 #@! TO.N,Net-(D11-Pad2)*
X167640000Y-95503750D02*
X167543750Y-95600000D01*
X167640000Y-82582500D02*
X167640000Y-95503750D01*
G04 #@! TO.N,Net-(D12-Pad2)*
X148590000Y-78710000D02*
X148493750Y-78806250D01*
X148590000Y-66582500D02*
X148590000Y-78710000D01*
G04 #@! TO.N,Net-(D13-Pad2)*
X129540000Y-72135000D02*
X129443750Y-72231250D01*
X129540000Y-60007500D02*
X129540000Y-72135000D01*
G04 #@! TO.N,row2*
X88043750Y-95625000D02*
X88043750Y-96775000D01*
X88043750Y-96775000D02*
X88900000Y-97631250D01*
X104787500Y-97631250D02*
X107093750Y-95325000D01*
X88900000Y-97631250D02*
X104787500Y-97631250D01*
X107093750Y-95325000D02*
X107093750Y-95981250D01*
X107093750Y-95981250D02*
X108743750Y-97631250D01*
X120587500Y-97631250D02*
X126143750Y-92075000D01*
X108743750Y-97631250D02*
X120587500Y-97631250D01*
X126143750Y-92075000D02*
X126143750Y-92806250D01*
X126384752Y-92806250D02*
X128034752Y-94456250D01*
X126143750Y-92806250D02*
X126384752Y-92806250D01*
X141000000Y-94456250D02*
X145193750Y-98650000D01*
X128034752Y-94456250D02*
X141000000Y-94456250D01*
X145193750Y-98650000D02*
X145193750Y-99156250D01*
X145193750Y-99156250D02*
X146843750Y-100806250D01*
X146843750Y-100806250D02*
X153987500Y-100806250D01*
X153987500Y-100806250D02*
X156368750Y-103187500D01*
X156368750Y-103187500D02*
X156368750Y-111918750D01*
X159100000Y-114650000D02*
X164243750Y-114650000D01*
X156368750Y-111918750D02*
X159100000Y-114650000D01*
X164243750Y-114650000D02*
X164243750Y-115825000D01*
X164243750Y-115825000D02*
X165100000Y-116681250D01*
X174118750Y-116681250D02*
X176150000Y-114650000D01*
X165100000Y-116681250D02*
X174118750Y-116681250D01*
X88043750Y-95625000D02*
X84512500Y-95625000D01*
X84512500Y-95625000D02*
X79375000Y-90487500D01*
X79375000Y-90487500D02*
X79375000Y-71437500D01*
X79375000Y-71437500D02*
X76993750Y-69056250D01*
X60256301Y-53726199D02*
X59055000Y-54927500D01*
X74871625Y-53726199D02*
X60256301Y-53726199D01*
X76993750Y-55848324D02*
X74871625Y-53726199D01*
X76993750Y-69056250D02*
X76993750Y-55848324D01*
G04 #@! TO.N,Net-(D14-Pad2)*
X110490000Y-76178750D02*
X110393750Y-76275000D01*
X110490000Y-63257500D02*
X110490000Y-76178750D01*
G04 #@! TO.N,Net-(D15-Pad2)*
X91440000Y-76478750D02*
X91343750Y-76575000D01*
X91440000Y-63557500D02*
X91440000Y-76478750D01*
G04 #@! TO.N,row3*
X88043750Y-114675000D02*
X88043750Y-115825000D01*
X88043750Y-115825000D02*
X88900000Y-116681250D01*
X104787500Y-116681250D02*
X107093750Y-114375000D01*
X88900000Y-116681250D02*
X104787500Y-116681250D01*
X107093750Y-114375000D02*
X107093750Y-115031250D01*
X107093750Y-115031250D02*
X107950000Y-115887500D01*
X121381250Y-115887500D02*
X126143750Y-111125000D01*
X107950000Y-115887500D02*
X121381250Y-115887500D01*
X126143750Y-111125000D02*
X126143750Y-111856250D01*
X126143750Y-111856250D02*
X127793750Y-113506250D01*
X141000000Y-113506250D02*
X145193750Y-117700000D01*
X127793750Y-113506250D02*
X141000000Y-113506250D01*
X157512500Y-133700000D02*
X164243750Y-133700000D01*
X156368750Y-132556250D02*
X157512500Y-133700000D01*
X156368750Y-122237500D02*
X156368750Y-132556250D01*
X153987500Y-119856250D02*
X156368750Y-122237500D01*
X145193750Y-119000000D02*
X146050000Y-119856250D01*
X146050000Y-119856250D02*
X153987500Y-119856250D01*
X145193750Y-117700000D02*
X145193750Y-119000000D01*
X164243750Y-133700000D02*
X164243750Y-134875000D01*
X164243750Y-134875000D02*
X165100000Y-135731250D01*
X174118750Y-135731250D02*
X176150000Y-133700000D01*
X165100000Y-135731250D02*
X174118750Y-135731250D01*
X88043750Y-114675000D02*
X85306250Y-114675000D01*
X85306250Y-114675000D02*
X77787500Y-107156250D01*
X77787500Y-107156250D02*
X77787500Y-71437500D01*
X77787500Y-71437500D02*
X75406250Y-69056250D01*
X75406250Y-69056250D02*
X75406250Y-65881250D01*
X74871625Y-56128801D02*
X60393699Y-56128801D01*
X75496301Y-56753477D02*
X74871625Y-56128801D01*
X75496301Y-65791199D02*
X75496301Y-56753477D01*
X60393699Y-56128801D02*
X59055000Y-57467500D01*
X75406250Y-65881250D02*
X75496301Y-65791199D01*
G04 #@! TO.N,Net-(D20-Pad2)*
X186690000Y-101632500D02*
X176973750Y-101632500D01*
X176973750Y-101632500D02*
X176212500Y-102393750D01*
X176212500Y-111412500D02*
X179450000Y-114650000D01*
X176212500Y-102393750D02*
X176212500Y-111412500D01*
X182307500Y-111792500D02*
X179450000Y-114650000D01*
X186372500Y-111792500D02*
X182307500Y-111792500D01*
G04 #@! TO.N,Net-(D21-Pad2)*
X167640000Y-114553750D02*
X167543750Y-114650000D01*
X167640000Y-101632500D02*
X167640000Y-114553750D01*
G04 #@! TO.N,Net-(D22-Pad2)*
X148590000Y-98553750D02*
X148493750Y-98650000D01*
X148590000Y-85632500D02*
X148590000Y-98553750D01*
G04 #@! TO.N,Net-(D23-Pad2)*
X129540000Y-91978750D02*
X129443750Y-92075000D01*
X129540000Y-79057500D02*
X129540000Y-91978750D01*
G04 #@! TO.N,Net-(D24-Pad2)*
X110490000Y-95228750D02*
X110393750Y-95325000D01*
X110490000Y-82307500D02*
X110490000Y-95228750D01*
G04 #@! TO.N,Net-(D25-Pad2)*
X91440000Y-95528750D02*
X91343750Y-95625000D01*
X91440000Y-82607500D02*
X91440000Y-95528750D01*
G04 #@! TO.N,row4*
X126143750Y-153193750D02*
X126143750Y-154843750D01*
X126143750Y-154843750D02*
X125412500Y-155575000D01*
X110268750Y-155575000D02*
X107093750Y-152400000D01*
X125412500Y-155575000D02*
X110268750Y-155575000D01*
X107093750Y-152400000D02*
X100806250Y-152400000D01*
X93662500Y-159543750D02*
X93662500Y-160337500D01*
X92806250Y-161193750D02*
X88900000Y-161193750D01*
X93662500Y-160337500D02*
X92806250Y-161193750D01*
X88900000Y-161193750D02*
X80231250Y-161193750D01*
X73087500Y-168337500D02*
X70643750Y-168337500D01*
X80231250Y-161193750D02*
X73087500Y-168337500D01*
X126143750Y-134143750D02*
X122237500Y-134143750D01*
X122237500Y-134143750D02*
X118268750Y-138112500D01*
X118268750Y-138112500D02*
X118268750Y-146843750D01*
X124618750Y-153193750D02*
X126143750Y-153193750D01*
X118268750Y-146843750D02*
X124618750Y-153193750D01*
X145193750Y-153193750D02*
X141287500Y-153193750D01*
X141287500Y-153193750D02*
X134937500Y-146843750D01*
X134937500Y-146843750D02*
X134937500Y-138112500D01*
X134937500Y-138112500D02*
X133350000Y-136525000D01*
X128525000Y-136525000D02*
X126143750Y-134143750D01*
X133350000Y-136525000D02*
X128525000Y-136525000D01*
X76200000Y-118268750D02*
X100012500Y-142081250D01*
X76200000Y-102393750D02*
X76200000Y-118268750D01*
X100012500Y-142081250D02*
X100012500Y-153193750D01*
X54768750Y-68262500D02*
X54768750Y-80962500D01*
X59055000Y-63976250D02*
X54768750Y-68262500D01*
X54768750Y-80962500D02*
X76200000Y-102393750D01*
X59055000Y-60007500D02*
X59055000Y-63976250D01*
X100012500Y-153193750D02*
X93662500Y-159543750D01*
X100806250Y-152400000D02*
X100012500Y-153193750D01*
G04 #@! TO.N,Net-(D30-Pad2)*
X186690000Y-120682500D02*
X177767500Y-120682500D01*
X177767500Y-120682500D02*
X176212500Y-122237500D01*
X176212500Y-130462500D02*
X179450000Y-133700000D01*
X176212500Y-122237500D02*
X176212500Y-130462500D01*
X182307500Y-130842500D02*
X179450000Y-133700000D01*
X186372500Y-130842500D02*
X182307500Y-130842500D01*
G04 #@! TO.N,GND*
X59531250Y-74375000D02*
X61356250Y-76200000D01*
X61356250Y-76200000D02*
X62706250Y-76200000D01*
X62706250Y-76200000D02*
X68262500Y-81756250D01*
X68262500Y-81756250D02*
X74612500Y-81756250D01*
X74612500Y-81756250D02*
X76200000Y-80168750D01*
X76200000Y-71755000D02*
X71120000Y-66675000D01*
X76200000Y-80168750D02*
X76200000Y-71755000D01*
X71120000Y-37782500D02*
X74295000Y-34607500D01*
X59055000Y-39687500D02*
X59055000Y-37147500D01*
X69056250Y-37147500D02*
X71120000Y-39211250D01*
X59055000Y-37147500D02*
X69056250Y-37147500D01*
X71120000Y-39211250D02*
X71120000Y-37782500D01*
X71120000Y-46513750D02*
X71120000Y-39211250D01*
G04 #@! TO.N,col2*
X134233801Y-56266199D02*
X84841199Y-56266199D01*
X134937500Y-55562500D02*
X134233801Y-56266199D01*
X84841199Y-56266199D02*
X83343750Y-54768750D01*
X83343750Y-54768750D02*
X83343750Y-54768750D01*
G04 #@! TO.N,col3*
X119856250Y-57150000D02*
X83343750Y-57150000D01*
X83343750Y-57150000D02*
X83343750Y-57150000D01*
G04 #@! TO.N,col4*
X97631250Y-58737500D02*
X82550000Y-58737500D01*
X82550000Y-58737500D02*
X82550000Y-58737500D01*
G04 #@! TO.N,SCL*
X73624240Y-73298499D02*
X72504749Y-73298499D01*
X72504749Y-73298499D02*
X69850000Y-70643750D01*
X69850000Y-70643750D02*
X67468750Y-70643750D01*
X66040000Y-69215000D02*
X66040000Y-66675000D01*
X67468750Y-70643750D02*
X66040000Y-69215000D01*
G04 #@! TO.N,SDA*
X69850000Y-73298499D02*
X66154749Y-73298499D01*
X63500000Y-70643750D02*
X63500000Y-66675000D01*
X66154749Y-73298499D02*
X63500000Y-70643750D01*
X63500000Y-66675000D02*
X63500000Y-65087500D01*
X63500000Y-65087500D02*
X63500000Y-64293750D01*
X63500000Y-64293750D02*
X66675000Y-61118750D01*
X66675000Y-61118750D02*
X66675000Y-61118750D01*
G04 #@! TO.N,RESET*
X54996199Y-43428801D02*
X66108699Y-43428801D01*
X53181250Y-45243750D02*
X54996199Y-43428801D01*
X66108699Y-43428801D02*
X68262500Y-41275000D01*
X68262500Y-41275000D02*
X68262500Y-41275000D01*
G04 #@! TO.N,Net-(D31-Pad2)*
X167640000Y-133603750D02*
X167543750Y-133700000D01*
X167640000Y-120682500D02*
X167640000Y-133603750D01*
G04 #@! TO.N,Net-(D32-Pad2)*
X148590000Y-117603750D02*
X148493750Y-117700000D01*
X148590000Y-104682500D02*
X148590000Y-117603750D01*
G04 #@! TO.N,Net-(D33-Pad2)*
X129540000Y-111028750D02*
X129443750Y-111125000D01*
X129540000Y-98107500D02*
X129540000Y-111028750D01*
G04 #@! TO.N,Net-(D34-Pad2)*
X110490000Y-114278750D02*
X110393750Y-114375000D01*
X110490000Y-101357500D02*
X110490000Y-114278750D01*
G04 #@! TO.N,Net-(D35-Pad2)*
X91440000Y-114578750D02*
X91343750Y-114675000D01*
X91440000Y-101657500D02*
X91440000Y-114578750D01*
G04 #@! TO.N,Net-(D40-Pad2)*
X148590000Y-153097500D02*
X148493750Y-153193750D01*
X148590000Y-140176250D02*
X148590000Y-153097500D01*
G04 #@! TO.N,Net-(D41-Pad2)*
X129540000Y-134047500D02*
X129443750Y-134143750D01*
X129540000Y-121126250D02*
X129540000Y-134047500D01*
G04 #@! TO.N,Net-(D42-Pad2)*
X129540000Y-153097500D02*
X129443750Y-153193750D01*
X129540000Y-140176250D02*
X129540000Y-153097500D01*
G04 #@! TO.N,Net-(D43-Pad2)*
X110490000Y-152303750D02*
X110393750Y-152400000D01*
X110490000Y-140176250D02*
X110490000Y-152303750D01*
G04 #@! TO.N,Net-(D44-Pad2)*
X80582347Y-145721841D02*
X86190591Y-145721841D01*
X88900000Y-148431250D02*
X88900000Y-157893750D01*
X86190591Y-145721841D02*
X88900000Y-148431250D01*
G04 #@! TO.N,Net-(D45-Pad2)*
X64084563Y-155246841D02*
X70315591Y-155246841D01*
X70643750Y-155575000D02*
X70643750Y-165037500D01*
X70315591Y-155246841D02*
X70643750Y-155575000D01*
G04 #@! TO.N,Net-(D2-Pad2)*
X148590000Y-49116250D02*
X148493750Y-49212500D01*
X148590000Y-36195000D02*
X148590000Y-49116250D01*
G04 #@! TO.N,Net-(D3-Pad2)*
X129540000Y-49116250D02*
X129443750Y-49212500D01*
X129540000Y-36195000D02*
X129540000Y-49116250D01*
G04 #@! TO.N,Net-(D4-Pad2)*
X110490000Y-49116250D02*
X110393750Y-49212500D01*
X110490000Y-36195000D02*
X110490000Y-49116250D01*
G04 #@! TO.N,Net-(D5-Pad2)*
X91440000Y-49116250D02*
X91343750Y-49212500D01*
X91440000Y-36195000D02*
X91440000Y-49116250D01*
G04 #@! TD*
M02*
