G04 #@! TF.GenerationSoftware,KiCad,Pcbnew,5.1.10*
G04 #@! TF.CreationDate,2021-07-11T16:17:35-04:00*
G04 #@! TF.ProjectId,v02_left,7630325f-6c65-4667-942e-6b696361645f,rev?*
G04 #@! TF.SameCoordinates,Original*
G04 #@! TF.FileFunction,Legend,Top*
G04 #@! TF.FilePolarity,Positive*
%FSLAX46Y46*%
G04 Gerber Fmt 4.6, Leading zero omitted, Abs format (unit mm)*
G04 Created by KiCad (PCBNEW 5.1.10) date 2021-07-11 16:17:35*
%MOMM*%
%LPD*%
G01*
G04 APERTURE LIST*
%ADD10C,0.300000*%
%ADD11C,0.150000*%
%ADD12C,0.120000*%
%ADD13C,0.381000*%
%ADD14C,2.200000*%
%ADD15C,1.200000*%
%ADD16C,2.100000*%
%ADD17C,1.750000*%
%ADD18O,2.000000X1.600000*%
%ADD19C,0.800000*%
%ADD20C,3.987800*%
%ADD21C,1.397000*%
%ADD22R,1.752600X1.752600*%
%ADD23C,1.752600*%
G04 APERTURE END LIST*
D10*
X-77525000Y-103866071D02*
X-78239285Y-103866071D01*
X-78239285Y-102366071D01*
X-77025000Y-103080357D02*
X-76525000Y-103080357D01*
X-76310714Y-103866071D02*
X-77025000Y-103866071D01*
X-77025000Y-102366071D01*
X-76310714Y-102366071D01*
X-75167857Y-103080357D02*
X-75667857Y-103080357D01*
X-75667857Y-103866071D02*
X-75667857Y-102366071D01*
X-74953571Y-102366071D01*
X-74596428Y-102366071D02*
X-73739285Y-102366071D01*
X-74167857Y-103866071D02*
X-74167857Y-102366071D01*
X-72167857Y-103794642D02*
X-71953571Y-103866071D01*
X-71596428Y-103866071D01*
X-71453571Y-103794642D01*
X-71382142Y-103723214D01*
X-71310714Y-103580357D01*
X-71310714Y-103437500D01*
X-71382142Y-103294642D01*
X-71453571Y-103223214D01*
X-71596428Y-103151785D01*
X-71882142Y-103080357D01*
X-72025000Y-103008928D01*
X-72096428Y-102937500D01*
X-72167857Y-102794642D01*
X-72167857Y-102651785D01*
X-72096428Y-102508928D01*
X-72025000Y-102437500D01*
X-71882142Y-102366071D01*
X-71525000Y-102366071D01*
X-71310714Y-102437500D01*
X-70667857Y-103866071D02*
X-70667857Y-102366071D01*
X-69953571Y-103866071D02*
X-69953571Y-102366071D01*
X-69596428Y-102366071D01*
X-69382142Y-102437500D01*
X-69239285Y-102580357D01*
X-69167857Y-102723214D01*
X-69096428Y-103008928D01*
X-69096428Y-103223214D01*
X-69167857Y-103508928D01*
X-69239285Y-103651785D01*
X-69382142Y-103794642D01*
X-69596428Y-103866071D01*
X-69953571Y-103866071D01*
X-68453571Y-103080357D02*
X-67953571Y-103080357D01*
X-67739285Y-103866071D02*
X-68453571Y-103866071D01*
X-68453571Y-102366071D01*
X-67739285Y-102366071D01*
D11*
X-80382142Y-100369642D02*
X-80429761Y-100417261D01*
X-80572619Y-100464880D01*
X-80667857Y-100464880D01*
X-80810714Y-100417261D01*
X-80905952Y-100322023D01*
X-80953571Y-100226785D01*
X-81001190Y-100036309D01*
X-81001190Y-99893452D01*
X-80953571Y-99702976D01*
X-80905952Y-99607738D01*
X-80810714Y-99512500D01*
X-80667857Y-99464880D01*
X-80572619Y-99464880D01*
X-80429761Y-99512500D01*
X-80382142Y-99560119D01*
X-79525000Y-99798214D02*
X-79525000Y-100464880D01*
X-79953571Y-99798214D02*
X-79953571Y-100322023D01*
X-79905952Y-100417261D01*
X-79810714Y-100464880D01*
X-79667857Y-100464880D01*
X-79572619Y-100417261D01*
X-79525000Y-100369642D01*
X-79096428Y-100417261D02*
X-79001190Y-100464880D01*
X-78810714Y-100464880D01*
X-78715476Y-100417261D01*
X-78667857Y-100322023D01*
X-78667857Y-100274404D01*
X-78715476Y-100179166D01*
X-78810714Y-100131547D01*
X-78953571Y-100131547D01*
X-79048809Y-100083928D01*
X-79096428Y-99988690D01*
X-79096428Y-99941071D01*
X-79048809Y-99845833D01*
X-78953571Y-99798214D01*
X-78810714Y-99798214D01*
X-78715476Y-99845833D01*
X-78382142Y-99798214D02*
X-78001190Y-99798214D01*
X-78239285Y-99464880D02*
X-78239285Y-100322023D01*
X-78191666Y-100417261D01*
X-78096428Y-100464880D01*
X-78001190Y-100464880D01*
X-77525000Y-100464880D02*
X-77620238Y-100417261D01*
X-77667857Y-100369642D01*
X-77715476Y-100274404D01*
X-77715476Y-99988690D01*
X-77667857Y-99893452D01*
X-77620238Y-99845833D01*
X-77525000Y-99798214D01*
X-77382142Y-99798214D01*
X-77286904Y-99845833D01*
X-77239285Y-99893452D01*
X-77191666Y-99988690D01*
X-77191666Y-100274404D01*
X-77239285Y-100369642D01*
X-77286904Y-100417261D01*
X-77382142Y-100464880D01*
X-77525000Y-100464880D01*
X-76763095Y-100464880D02*
X-76763095Y-99798214D01*
X-76763095Y-99893452D02*
X-76715476Y-99845833D01*
X-76620238Y-99798214D01*
X-76477380Y-99798214D01*
X-76382142Y-99845833D01*
X-76334523Y-99941071D01*
X-76334523Y-100464880D01*
X-76334523Y-99941071D02*
X-76286904Y-99845833D01*
X-76191666Y-99798214D01*
X-76048809Y-99798214D01*
X-75953571Y-99845833D01*
X-75905952Y-99941071D01*
X-75905952Y-100464880D01*
X-74334523Y-99941071D02*
X-74191666Y-99988690D01*
X-74144047Y-100036309D01*
X-74096428Y-100131547D01*
X-74096428Y-100274404D01*
X-74144047Y-100369642D01*
X-74191666Y-100417261D01*
X-74286904Y-100464880D01*
X-74667857Y-100464880D01*
X-74667857Y-99464880D01*
X-74334523Y-99464880D01*
X-74239285Y-99512500D01*
X-74191666Y-99560119D01*
X-74144047Y-99655357D01*
X-74144047Y-99750595D01*
X-74191666Y-99845833D01*
X-74239285Y-99893452D01*
X-74334523Y-99941071D01*
X-74667857Y-99941071D01*
X-73525000Y-100464880D02*
X-73620238Y-100417261D01*
X-73667857Y-100369642D01*
X-73715476Y-100274404D01*
X-73715476Y-99988690D01*
X-73667857Y-99893452D01*
X-73620238Y-99845833D01*
X-73525000Y-99798214D01*
X-73382142Y-99798214D01*
X-73286904Y-99845833D01*
X-73239285Y-99893452D01*
X-73191666Y-99988690D01*
X-73191666Y-100274404D01*
X-73239285Y-100369642D01*
X-73286904Y-100417261D01*
X-73382142Y-100464880D01*
X-73525000Y-100464880D01*
X-72334523Y-99798214D02*
X-72334523Y-100464880D01*
X-72763095Y-99798214D02*
X-72763095Y-100322023D01*
X-72715476Y-100417261D01*
X-72620238Y-100464880D01*
X-72477380Y-100464880D01*
X-72382142Y-100417261D01*
X-72334523Y-100369642D01*
X-71858333Y-100464880D02*
X-71858333Y-99798214D01*
X-71858333Y-99988690D02*
X-71810714Y-99893452D01*
X-71763095Y-99845833D01*
X-71667857Y-99798214D01*
X-71572619Y-99798214D01*
X-71239285Y-100464880D02*
X-71239285Y-99464880D01*
X-71239285Y-99845833D02*
X-71144047Y-99798214D01*
X-70953571Y-99798214D01*
X-70858333Y-99845833D01*
X-70810714Y-99893452D01*
X-70763095Y-99988690D01*
X-70763095Y-100274404D01*
X-70810714Y-100369642D01*
X-70858333Y-100417261D01*
X-70953571Y-100464880D01*
X-71144047Y-100464880D01*
X-71239285Y-100417261D01*
X-70191666Y-100464880D02*
X-70286904Y-100417261D01*
X-70334523Y-100369642D01*
X-70382142Y-100274404D01*
X-70382142Y-99988690D01*
X-70334523Y-99893452D01*
X-70286904Y-99845833D01*
X-70191666Y-99798214D01*
X-70048809Y-99798214D01*
X-69953571Y-99845833D01*
X-69905952Y-99893452D01*
X-69858333Y-99988690D01*
X-69858333Y-100274404D01*
X-69905952Y-100369642D01*
X-69953571Y-100417261D01*
X-70048809Y-100464880D01*
X-70191666Y-100464880D01*
X-69429761Y-99798214D02*
X-69429761Y-100464880D01*
X-69429761Y-99893452D02*
X-69382142Y-99845833D01*
X-69286904Y-99798214D01*
X-69144047Y-99798214D01*
X-69048809Y-99845833D01*
X-69001190Y-99941071D01*
X-69001190Y-100464880D01*
X-67858333Y-99798214D02*
X-67620238Y-100464880D01*
X-67382142Y-99798214D01*
X-66810714Y-99464880D02*
X-66715476Y-99464880D01*
X-66620238Y-99512500D01*
X-66572619Y-99560119D01*
X-66525000Y-99655357D01*
X-66477380Y-99845833D01*
X-66477380Y-100083928D01*
X-66525000Y-100274404D01*
X-66572619Y-100369642D01*
X-66620238Y-100417261D01*
X-66715476Y-100464880D01*
X-66810714Y-100464880D01*
X-66905952Y-100417261D01*
X-66953571Y-100369642D01*
X-67001190Y-100274404D01*
X-67048809Y-100083928D01*
X-67048809Y-99845833D01*
X-67001190Y-99655357D01*
X-66953571Y-99560119D01*
X-66905952Y-99512500D01*
X-66810714Y-99464880D01*
X-66048809Y-100369642D02*
X-66001190Y-100417261D01*
X-66048809Y-100464880D01*
X-66096428Y-100417261D01*
X-66048809Y-100369642D01*
X-66048809Y-100464880D01*
X-65667857Y-99464880D02*
X-65048809Y-99464880D01*
X-65382142Y-99845833D01*
X-65239285Y-99845833D01*
X-65144047Y-99893452D01*
X-65096428Y-99941071D01*
X-65048809Y-100036309D01*
X-65048809Y-100274404D01*
X-65096428Y-100369642D01*
X-65144047Y-100417261D01*
X-65239285Y-100464880D01*
X-65525000Y-100464880D01*
X-65620238Y-100417261D01*
X-65667857Y-100369642D01*
D12*
X890000Y-78500000D02*
X-2510000Y-78500000D01*
X2530000Y-78500000D02*
X1990000Y-78500000D01*
X-3610000Y-78500000D02*
X-4150000Y-78500000D01*
X-4150000Y-78500000D02*
X-4150000Y-78270000D01*
X3050000Y-82170000D02*
X3050000Y-78270000D01*
X-4670000Y-82170000D02*
X-4670000Y-78270000D01*
X3050000Y-82170000D02*
X-4670000Y-82170000D01*
X2530000Y-78500000D02*
X2530000Y-78270000D01*
D11*
X7855000Y-71082500D02*
X7855000Y-65482500D01*
X5855000Y-65482500D02*
X7855000Y-65482500D01*
X5855000Y-71082500D02*
X7855000Y-71082500D01*
X5855000Y-65232500D02*
X-6245000Y-65232500D01*
X5855000Y-71332500D02*
X-6245000Y-71332500D01*
X-6245000Y-71332500D02*
X-6245000Y-65232500D01*
X5855000Y-71332500D02*
X5855000Y-65232500D01*
X-14374890Y-78370760D02*
X-11372610Y-78370760D01*
X-14374890Y-76369240D02*
X-14374890Y-78370760D01*
X-11372610Y-76369240D02*
X-14374890Y-76369240D01*
X-11372610Y-78370760D02*
X-11372610Y-76369240D01*
X-11372610Y-78750490D02*
X-14374890Y-78750490D01*
X-11372610Y-80752010D02*
X-11372610Y-78750490D01*
X-14374890Y-80752010D02*
X-11372610Y-80752010D01*
X-14374890Y-78750490D02*
X-14374890Y-80752010D01*
X-10496250Y-43358750D02*
X-10496250Y-40818750D01*
X-336250Y-40818750D02*
X-336250Y-43358750D01*
X-10496250Y-40818750D02*
X-336250Y-40818750D01*
X-10496250Y-43358750D02*
X-336250Y-43358750D01*
D13*
X-12401250Y-7005000D02*
X-14941250Y-7005000D01*
X-14941250Y-4465000D02*
X-14941250Y-7005000D01*
X2838750Y-4465000D02*
X-14941250Y-4465000D01*
X2838750Y-7005000D02*
X2838750Y-4465000D01*
D11*
G36*
X-1119682Y-13484360D02*
G01*
X-1119682Y-13684360D01*
X-1219682Y-13684360D01*
X-1219682Y-13484360D01*
X-1119682Y-13484360D01*
G37*
X-1119682Y-13484360D02*
X-1119682Y-13684360D01*
X-1219682Y-13684360D01*
X-1219682Y-13484360D01*
X-1119682Y-13484360D01*
G36*
X-1519682Y-12884360D02*
G01*
X-1519682Y-13684360D01*
X-1619682Y-13684360D01*
X-1619682Y-12884360D01*
X-1519682Y-12884360D01*
G37*
X-1519682Y-12884360D02*
X-1519682Y-13684360D01*
X-1619682Y-13684360D01*
X-1619682Y-12884360D01*
X-1519682Y-12884360D01*
G36*
X-1119682Y-12884360D02*
G01*
X-1119682Y-12984360D01*
X-1619682Y-12984360D01*
X-1619682Y-12884360D01*
X-1119682Y-12884360D01*
G37*
X-1119682Y-12884360D02*
X-1119682Y-12984360D01*
X-1619682Y-12984360D01*
X-1619682Y-12884360D01*
X-1119682Y-12884360D01*
G36*
X-1319682Y-13284360D02*
G01*
X-1319682Y-13384360D01*
X-1419682Y-13384360D01*
X-1419682Y-13284360D01*
X-1319682Y-13284360D01*
G37*
X-1319682Y-13284360D02*
X-1319682Y-13384360D01*
X-1419682Y-13384360D01*
X-1419682Y-13284360D01*
X-1319682Y-13284360D01*
G36*
X-1119682Y-12884360D02*
G01*
X-1119682Y-13184360D01*
X-1219682Y-13184360D01*
X-1219682Y-12884360D01*
X-1119682Y-12884360D01*
G37*
X-1119682Y-12884360D02*
X-1119682Y-13184360D01*
X-1219682Y-13184360D01*
X-1219682Y-12884360D01*
X-1119682Y-12884360D01*
D13*
X-12401250Y-9545000D02*
X-14941250Y-9545000D01*
X-12401250Y-7005000D02*
X-12401250Y-9545000D01*
X2838750Y-37485000D02*
X2838750Y-7005000D01*
X-14941250Y-37485000D02*
X2838750Y-37485000D01*
X-14941250Y-7005000D02*
X-14941250Y-37485000D01*
D11*
X-2143333Y-78194761D02*
X-2000476Y-78242380D01*
X-1762380Y-78242380D01*
X-1667142Y-78194761D01*
X-1619523Y-78147142D01*
X-1571904Y-78051904D01*
X-1571904Y-77956666D01*
X-1619523Y-77861428D01*
X-1667142Y-77813809D01*
X-1762380Y-77766190D01*
X-1952857Y-77718571D01*
X-2048095Y-77670952D01*
X-2095714Y-77623333D01*
X-2143333Y-77528095D01*
X-2143333Y-77432857D01*
X-2095714Y-77337619D01*
X-2048095Y-77290000D01*
X-1952857Y-77242380D01*
X-1714761Y-77242380D01*
X-1571904Y-77290000D01*
X-1238571Y-77242380D02*
X-1000476Y-78242380D01*
X-810000Y-77528095D01*
X-619523Y-78242380D01*
X-381428Y-77242380D01*
X523333Y-78242380D02*
X-48095Y-78242380D01*
X237619Y-78242380D02*
X237619Y-77242380D01*
X142380Y-77385238D01*
X47142Y-77480476D01*
X-48095Y-77528095D01*
X-13007083Y-77731904D02*
X-13273750Y-77350952D01*
X-13464226Y-77731904D02*
X-13464226Y-76931904D01*
X-13159464Y-76931904D01*
X-13083273Y-76970000D01*
X-13045178Y-77008095D01*
X-13007083Y-77084285D01*
X-13007083Y-77198571D01*
X-13045178Y-77274761D01*
X-13083273Y-77312857D01*
X-13159464Y-77350952D01*
X-13464226Y-77350952D01*
X-12702321Y-77008095D02*
X-12664226Y-76970000D01*
X-12588035Y-76931904D01*
X-12397559Y-76931904D01*
X-12321369Y-76970000D01*
X-12283273Y-77008095D01*
X-12245178Y-77084285D01*
X-12245178Y-77160476D01*
X-12283273Y-77274761D01*
X-12740416Y-77731904D01*
X-12245178Y-77731904D01*
X-13007083Y-80113154D02*
X-13273750Y-79732202D01*
X-13464226Y-80113154D02*
X-13464226Y-79313154D01*
X-13159464Y-79313154D01*
X-13083273Y-79351250D01*
X-13045178Y-79389345D01*
X-13007083Y-79465535D01*
X-13007083Y-79579821D01*
X-13045178Y-79656011D01*
X-13083273Y-79694107D01*
X-13159464Y-79732202D01*
X-13464226Y-79732202D01*
X-12245178Y-80113154D02*
X-12702321Y-80113154D01*
X-12473750Y-80113154D02*
X-12473750Y-79313154D01*
X-12549940Y-79427440D01*
X-12626130Y-79503630D01*
X-12702321Y-79541726D01*
X-914059Y-33617857D02*
X-799773Y-33655952D01*
X-761678Y-33694047D01*
X-723583Y-33770238D01*
X-723583Y-33884523D01*
X-761678Y-33960714D01*
X-799773Y-33998809D01*
X-875964Y-34036904D01*
X-1180726Y-34036904D01*
X-1180726Y-33236904D01*
X-914059Y-33236904D01*
X-837869Y-33275000D01*
X-799773Y-33313095D01*
X-761678Y-33389285D01*
X-761678Y-33465476D01*
X-799773Y-33541666D01*
X-837869Y-33579761D01*
X-914059Y-33617857D01*
X-1180726Y-33617857D01*
X-418821Y-33313095D02*
X-380726Y-33275000D01*
X-304535Y-33236904D01*
X-114059Y-33236904D01*
X-37869Y-33275000D01*
X226Y-33313095D01*
X38321Y-33389285D01*
X38321Y-33465476D01*
X226Y-33579761D01*
X-456916Y-34036904D01*
X38321Y-34036904D01*
X-856916Y-25997857D02*
X-1123583Y-25997857D01*
X-1123583Y-26416904D02*
X-1123583Y-25616904D01*
X-742630Y-25616904D01*
X-514059Y-25616904D02*
X19273Y-25616904D01*
X-323583Y-26416904D01*
X-856916Y-23457857D02*
X-1123583Y-23457857D01*
X-1123583Y-23876904D02*
X-1123583Y-23076904D01*
X-742630Y-23076904D01*
X-95011Y-23076904D02*
X-247392Y-23076904D01*
X-323583Y-23115000D01*
X-361678Y-23153095D01*
X-437869Y-23267380D01*
X-475964Y-23419761D01*
X-475964Y-23724523D01*
X-437869Y-23800714D01*
X-399773Y-23838809D01*
X-323583Y-23876904D01*
X-171202Y-23876904D01*
X-95011Y-23838809D01*
X-56916Y-23800714D01*
X-18821Y-23724523D01*
X-18821Y-23534047D01*
X-56916Y-23457857D01*
X-95011Y-23419761D01*
X-171202Y-23381666D01*
X-323583Y-23381666D01*
X-399773Y-23419761D01*
X-437869Y-23457857D01*
X-475964Y-23534047D01*
X-856916Y-20917857D02*
X-1123583Y-20917857D01*
X-1123583Y-21336904D02*
X-1123583Y-20536904D01*
X-742630Y-20536904D01*
X-56916Y-20536904D02*
X-437869Y-20536904D01*
X-475964Y-20917857D01*
X-437869Y-20879761D01*
X-361678Y-20841666D01*
X-171202Y-20841666D01*
X-95011Y-20879761D01*
X-56916Y-20917857D01*
X-18821Y-20994047D01*
X-18821Y-21184523D01*
X-56916Y-21260714D01*
X-95011Y-21298809D01*
X-171202Y-21336904D01*
X-361678Y-21336904D01*
X-437869Y-21298809D01*
X-475964Y-21260714D01*
X-1142630Y-8636904D02*
X-1409297Y-8255952D01*
X-1599773Y-8636904D02*
X-1599773Y-7836904D01*
X-1295011Y-7836904D01*
X-1218821Y-7875000D01*
X-1180726Y-7913095D01*
X-1142630Y-7989285D01*
X-1142630Y-8103571D01*
X-1180726Y-8179761D01*
X-1218821Y-8217857D01*
X-1295011Y-8255952D01*
X-1599773Y-8255952D01*
X-837869Y-8408333D02*
X-456916Y-8408333D01*
X-914059Y-8636904D02*
X-647392Y-7836904D01*
X-380726Y-8636904D01*
X-190250Y-7836904D02*
X226Y-8636904D01*
X152607Y-8065476D01*
X304988Y-8636904D01*
X495464Y-7836904D01*
X-1199773Y-10415000D02*
X-1275964Y-10376904D01*
X-1390250Y-10376904D01*
X-1504535Y-10415000D01*
X-1580726Y-10491190D01*
X-1618821Y-10567380D01*
X-1656916Y-10719761D01*
X-1656916Y-10834047D01*
X-1618821Y-10986428D01*
X-1580726Y-11062619D01*
X-1504535Y-11138809D01*
X-1390250Y-11176904D01*
X-1314059Y-11176904D01*
X-1199773Y-11138809D01*
X-1161678Y-11100714D01*
X-1161678Y-10834047D01*
X-1314059Y-10834047D01*
X-818821Y-11176904D02*
X-818821Y-10376904D01*
X-361678Y-11176904D01*
X-361678Y-10376904D01*
X19273Y-11176904D02*
X19273Y-10376904D01*
X209749Y-10376904D01*
X324035Y-10415000D01*
X400226Y-10491190D01*
X438321Y-10567380D01*
X476416Y-10719761D01*
X476416Y-10834047D01*
X438321Y-10986428D01*
X400226Y-11062619D01*
X324035Y-11138809D01*
X209749Y-11176904D01*
X19273Y-11176904D01*
X-851463Y-13648809D02*
X-737177Y-13686904D01*
X-546701Y-13686904D01*
X-470510Y-13648809D01*
X-432415Y-13610714D01*
X-394320Y-13534523D01*
X-394320Y-13458333D01*
X-432415Y-13382142D01*
X-470510Y-13344047D01*
X-546701Y-13305952D01*
X-699082Y-13267857D01*
X-775272Y-13229761D01*
X-813368Y-13191666D01*
X-851463Y-13115476D01*
X-851463Y-13039285D01*
X-813368Y-12963095D01*
X-775272Y-12925000D01*
X-699082Y-12886904D01*
X-508606Y-12886904D01*
X-394320Y-12925000D01*
X-165749Y-12886904D02*
X291393Y-12886904D01*
X62822Y-13686904D02*
X62822Y-12886904D01*
X-1656916Y-15456904D02*
X-1390250Y-16256904D01*
X-1123583Y-15456904D01*
X-399773Y-16180714D02*
X-437869Y-16218809D01*
X-552154Y-16256904D01*
X-628345Y-16256904D01*
X-742630Y-16218809D01*
X-818821Y-16142619D01*
X-856916Y-16066428D01*
X-895011Y-15914047D01*
X-895011Y-15799761D01*
X-856916Y-15647380D01*
X-818821Y-15571190D01*
X-742630Y-15495000D01*
X-628345Y-15456904D01*
X-552154Y-15456904D01*
X-437869Y-15495000D01*
X-399773Y-15533095D01*
X400226Y-16180714D02*
X362130Y-16218809D01*
X247845Y-16256904D01*
X171654Y-16256904D01*
X57369Y-16218809D01*
X-18821Y-16142619D01*
X-56916Y-16066428D01*
X-95011Y-15914047D01*
X-95011Y-15799761D01*
X-56916Y-15647380D01*
X-18821Y-15571190D01*
X57369Y-15495000D01*
X171654Y-15456904D01*
X247845Y-15456904D01*
X362130Y-15495000D01*
X400226Y-15533095D01*
X-856916Y-18377857D02*
X-1123583Y-18377857D01*
X-1123583Y-18796904D02*
X-1123583Y-17996904D01*
X-742630Y-17996904D01*
X-95011Y-18263571D02*
X-95011Y-18796904D01*
X-285488Y-17958809D02*
X-475964Y-18530238D01*
X19273Y-18530238D01*
X-914059Y-28537857D02*
X-799773Y-28575952D01*
X-761678Y-28614047D01*
X-723583Y-28690238D01*
X-723583Y-28804523D01*
X-761678Y-28880714D01*
X-799773Y-28918809D01*
X-875964Y-28956904D01*
X-1180726Y-28956904D01*
X-1180726Y-28156904D01*
X-914059Y-28156904D01*
X-837869Y-28195000D01*
X-799773Y-28233095D01*
X-761678Y-28309285D01*
X-761678Y-28385476D01*
X-799773Y-28461666D01*
X-837869Y-28499761D01*
X-914059Y-28537857D01*
X-1180726Y-28537857D01*
X38321Y-28956904D02*
X-418821Y-28956904D01*
X-190250Y-28956904D02*
X-190250Y-28156904D01*
X-266440Y-28271190D01*
X-342630Y-28347380D01*
X-418821Y-28385476D01*
X-914059Y-31077857D02*
X-799773Y-31115952D01*
X-761678Y-31154047D01*
X-723583Y-31230238D01*
X-723583Y-31344523D01*
X-761678Y-31420714D01*
X-799773Y-31458809D01*
X-875964Y-31496904D01*
X-1180726Y-31496904D01*
X-1180726Y-30696904D01*
X-914059Y-30696904D01*
X-837869Y-30735000D01*
X-799773Y-30773095D01*
X-761678Y-30849285D01*
X-761678Y-30925476D01*
X-799773Y-31001666D01*
X-837869Y-31039761D01*
X-914059Y-31077857D01*
X-1180726Y-31077857D01*
X-456916Y-30696904D02*
X38321Y-30696904D01*
X-228345Y-31001666D01*
X-114059Y-31001666D01*
X-37869Y-31039761D01*
X226Y-31077857D01*
X38321Y-31154047D01*
X38321Y-31344523D01*
X226Y-31420714D01*
X-37869Y-31458809D01*
X-114059Y-31496904D01*
X-342630Y-31496904D01*
X-418821Y-31458809D01*
X-456916Y-31420714D01*
X-914059Y-36157857D02*
X-799773Y-36195952D01*
X-761678Y-36234047D01*
X-723583Y-36310238D01*
X-723583Y-36424523D01*
X-761678Y-36500714D01*
X-799773Y-36538809D01*
X-875964Y-36576904D01*
X-1180726Y-36576904D01*
X-1180726Y-35776904D01*
X-914059Y-35776904D01*
X-837869Y-35815000D01*
X-799773Y-35853095D01*
X-761678Y-35929285D01*
X-761678Y-36005476D01*
X-799773Y-36081666D01*
X-837869Y-36119761D01*
X-914059Y-36157857D01*
X-1180726Y-36157857D01*
X-37869Y-35776904D02*
X-190250Y-35776904D01*
X-266440Y-35815000D01*
X-304535Y-35853095D01*
X-380726Y-35967380D01*
X-418821Y-36119761D01*
X-418821Y-36424523D01*
X-380726Y-36500714D01*
X-342630Y-36538809D01*
X-266440Y-36576904D01*
X-114059Y-36576904D01*
X-37869Y-36538809D01*
X226Y-36500714D01*
X38321Y-36424523D01*
X38321Y-36234047D01*
X226Y-36157857D01*
X-37869Y-36119761D01*
X-114059Y-36081666D01*
X-266440Y-36081666D01*
X-342630Y-36119761D01*
X-380726Y-36157857D01*
X-418821Y-36234047D01*
X-11836059Y-36157857D02*
X-11721773Y-36195952D01*
X-11683678Y-36234047D01*
X-11645583Y-36310238D01*
X-11645583Y-36424523D01*
X-11683678Y-36500714D01*
X-11721773Y-36538809D01*
X-11797964Y-36576904D01*
X-12102726Y-36576904D01*
X-12102726Y-35776904D01*
X-11836059Y-35776904D01*
X-11759869Y-35815000D01*
X-11721773Y-35853095D01*
X-11683678Y-35929285D01*
X-11683678Y-36005476D01*
X-11721773Y-36081666D01*
X-11759869Y-36119761D01*
X-11836059Y-36157857D01*
X-12102726Y-36157857D01*
X-10921773Y-35776904D02*
X-11302726Y-35776904D01*
X-11340821Y-36157857D01*
X-11302726Y-36119761D01*
X-11226535Y-36081666D01*
X-11036059Y-36081666D01*
X-10959869Y-36119761D01*
X-10921773Y-36157857D01*
X-10883678Y-36234047D01*
X-10883678Y-36424523D01*
X-10921773Y-36500714D01*
X-10959869Y-36538809D01*
X-11036059Y-36576904D01*
X-11226535Y-36576904D01*
X-11302726Y-36538809D01*
X-11340821Y-36500714D01*
X-11836059Y-33617857D02*
X-11721773Y-33655952D01*
X-11683678Y-33694047D01*
X-11645583Y-33770238D01*
X-11645583Y-33884523D01*
X-11683678Y-33960714D01*
X-11721773Y-33998809D01*
X-11797964Y-34036904D01*
X-12102726Y-34036904D01*
X-12102726Y-33236904D01*
X-11836059Y-33236904D01*
X-11759869Y-33275000D01*
X-11721773Y-33313095D01*
X-11683678Y-33389285D01*
X-11683678Y-33465476D01*
X-11721773Y-33541666D01*
X-11759869Y-33579761D01*
X-11836059Y-33617857D01*
X-12102726Y-33617857D01*
X-10959869Y-33503571D02*
X-10959869Y-34036904D01*
X-11150345Y-33198809D02*
X-11340821Y-33770238D01*
X-10845583Y-33770238D01*
X-12064630Y-31077857D02*
X-11797964Y-31077857D01*
X-11683678Y-31496904D02*
X-12064630Y-31496904D01*
X-12064630Y-30696904D01*
X-11683678Y-30696904D01*
X-10997964Y-30696904D02*
X-11150345Y-30696904D01*
X-11226535Y-30735000D01*
X-11264630Y-30773095D01*
X-11340821Y-30887380D01*
X-11378916Y-31039761D01*
X-11378916Y-31344523D01*
X-11340821Y-31420714D01*
X-11302726Y-31458809D01*
X-11226535Y-31496904D01*
X-11074154Y-31496904D01*
X-10997964Y-31458809D01*
X-10959869Y-31420714D01*
X-10921773Y-31344523D01*
X-10921773Y-31154047D01*
X-10959869Y-31077857D01*
X-10997964Y-31039761D01*
X-11074154Y-31001666D01*
X-11226535Y-31001666D01*
X-11302726Y-31039761D01*
X-11340821Y-31077857D01*
X-11378916Y-31154047D01*
X-12102726Y-28956904D02*
X-12102726Y-28156904D01*
X-11912250Y-28156904D01*
X-11797964Y-28195000D01*
X-11721773Y-28271190D01*
X-11683678Y-28347380D01*
X-11645583Y-28499761D01*
X-11645583Y-28614047D01*
X-11683678Y-28766428D01*
X-11721773Y-28842619D01*
X-11797964Y-28918809D01*
X-11912250Y-28956904D01*
X-12102726Y-28956904D01*
X-11378916Y-28156904D02*
X-10845583Y-28156904D01*
X-11188440Y-28956904D01*
X-11645583Y-26340714D02*
X-11683678Y-26378809D01*
X-11797964Y-26416904D01*
X-11874154Y-26416904D01*
X-11988440Y-26378809D01*
X-12064630Y-26302619D01*
X-12102726Y-26226428D01*
X-12140821Y-26074047D01*
X-12140821Y-25959761D01*
X-12102726Y-25807380D01*
X-12064630Y-25731190D01*
X-11988440Y-25655000D01*
X-11874154Y-25616904D01*
X-11797964Y-25616904D01*
X-11683678Y-25655000D01*
X-11645583Y-25693095D01*
X-10959869Y-25616904D02*
X-11112250Y-25616904D01*
X-11188440Y-25655000D01*
X-11226535Y-25693095D01*
X-11302726Y-25807380D01*
X-11340821Y-25959761D01*
X-11340821Y-26264523D01*
X-11302726Y-26340714D01*
X-11264630Y-26378809D01*
X-11188440Y-26416904D01*
X-11036059Y-26416904D01*
X-10959869Y-26378809D01*
X-10921773Y-26340714D01*
X-10883678Y-26264523D01*
X-10883678Y-26074047D01*
X-10921773Y-25997857D01*
X-10959869Y-25959761D01*
X-11036059Y-25921666D01*
X-11188440Y-25921666D01*
X-11264630Y-25959761D01*
X-11302726Y-25997857D01*
X-11340821Y-26074047D01*
X-12102726Y-23876904D02*
X-12102726Y-23076904D01*
X-11912250Y-23076904D01*
X-11797964Y-23115000D01*
X-11721773Y-23191190D01*
X-11683678Y-23267380D01*
X-11645583Y-23419761D01*
X-11645583Y-23534047D01*
X-11683678Y-23686428D01*
X-11721773Y-23762619D01*
X-11797964Y-23838809D01*
X-11912250Y-23876904D01*
X-12102726Y-23876904D01*
X-10959869Y-23343571D02*
X-10959869Y-23876904D01*
X-11150345Y-23038809D02*
X-11340821Y-23610238D01*
X-10845583Y-23610238D01*
X-12121773Y-12955000D02*
X-12197964Y-12916904D01*
X-12312250Y-12916904D01*
X-12426535Y-12955000D01*
X-12502726Y-13031190D01*
X-12540821Y-13107380D01*
X-12578916Y-13259761D01*
X-12578916Y-13374047D01*
X-12540821Y-13526428D01*
X-12502726Y-13602619D01*
X-12426535Y-13678809D01*
X-12312250Y-13716904D01*
X-12236059Y-13716904D01*
X-12121773Y-13678809D01*
X-12083678Y-13640714D01*
X-12083678Y-13374047D01*
X-12236059Y-13374047D01*
X-11740821Y-13716904D02*
X-11740821Y-12916904D01*
X-11283678Y-13716904D01*
X-11283678Y-12916904D01*
X-10902726Y-13716904D02*
X-10902726Y-12916904D01*
X-10712250Y-12916904D01*
X-10597964Y-12955000D01*
X-10521773Y-13031190D01*
X-10483678Y-13107380D01*
X-10445583Y-13259761D01*
X-10445583Y-13374047D01*
X-10483678Y-13526428D01*
X-10521773Y-13602619D01*
X-10597964Y-13678809D01*
X-10712250Y-13716904D01*
X-10902726Y-13716904D01*
X-12121773Y-15495000D02*
X-12197964Y-15456904D01*
X-12312250Y-15456904D01*
X-12426535Y-15495000D01*
X-12502726Y-15571190D01*
X-12540821Y-15647380D01*
X-12578916Y-15799761D01*
X-12578916Y-15914047D01*
X-12540821Y-16066428D01*
X-12502726Y-16142619D01*
X-12426535Y-16218809D01*
X-12312250Y-16256904D01*
X-12236059Y-16256904D01*
X-12121773Y-16218809D01*
X-12083678Y-16180714D01*
X-12083678Y-15914047D01*
X-12236059Y-15914047D01*
X-11740821Y-16256904D02*
X-11740821Y-15456904D01*
X-11283678Y-16256904D01*
X-11283678Y-15456904D01*
X-10902726Y-16256904D02*
X-10902726Y-15456904D01*
X-10712250Y-15456904D01*
X-10597964Y-15495000D01*
X-10521773Y-15571190D01*
X-10483678Y-15647380D01*
X-10445583Y-15799761D01*
X-10445583Y-15914047D01*
X-10483678Y-16066428D01*
X-10521773Y-16142619D01*
X-10597964Y-16218809D01*
X-10712250Y-16256904D01*
X-10902726Y-16256904D01*
X-12102726Y-18796904D02*
X-12102726Y-17996904D01*
X-11912250Y-17996904D01*
X-11797964Y-18035000D01*
X-11721773Y-18111190D01*
X-11683678Y-18187380D01*
X-11645583Y-18339761D01*
X-11645583Y-18454047D01*
X-11683678Y-18606428D01*
X-11721773Y-18682619D01*
X-11797964Y-18758809D01*
X-11912250Y-18796904D01*
X-12102726Y-18796904D01*
X-10883678Y-18796904D02*
X-11340821Y-18796904D01*
X-11112250Y-18796904D02*
X-11112250Y-17996904D01*
X-11188440Y-18111190D01*
X-11264630Y-18187380D01*
X-11340821Y-18225476D01*
X-12102726Y-21336904D02*
X-12102726Y-20536904D01*
X-11912250Y-20536904D01*
X-11797964Y-20575000D01*
X-11721773Y-20651190D01*
X-11683678Y-20727380D01*
X-11645583Y-20879761D01*
X-11645583Y-20994047D01*
X-11683678Y-21146428D01*
X-11721773Y-21222619D01*
X-11797964Y-21298809D01*
X-11912250Y-21336904D01*
X-12102726Y-21336904D01*
X-11150345Y-20536904D02*
X-11074154Y-20536904D01*
X-10997964Y-20575000D01*
X-10959869Y-20613095D01*
X-10921773Y-20689285D01*
X-10883678Y-20841666D01*
X-10883678Y-21032142D01*
X-10921773Y-21184523D01*
X-10959869Y-21260714D01*
X-10997964Y-21298809D01*
X-11074154Y-21336904D01*
X-11150345Y-21336904D01*
X-11226535Y-21298809D01*
X-11264630Y-21260714D01*
X-11302726Y-21184523D01*
X-11340821Y-21032142D01*
X-11340821Y-20841666D01*
X-11302726Y-20689285D01*
X-11264630Y-20613095D01*
X-11226535Y-20575000D01*
X-11150345Y-20536904D01*
X-12102726Y-11176904D02*
X-12102726Y-10376904D01*
X-11912250Y-10376904D01*
X-11797964Y-10415000D01*
X-11721773Y-10491190D01*
X-11683678Y-10567380D01*
X-11645583Y-10719761D01*
X-11645583Y-10834047D01*
X-11683678Y-10986428D01*
X-11721773Y-11062619D01*
X-11797964Y-11138809D01*
X-11912250Y-11176904D01*
X-12102726Y-11176904D01*
X-11340821Y-10453095D02*
X-11302726Y-10415000D01*
X-11226535Y-10376904D01*
X-11036059Y-10376904D01*
X-10959869Y-10415000D01*
X-10921773Y-10453095D01*
X-10883678Y-10529285D01*
X-10883678Y-10605476D01*
X-10921773Y-10719761D01*
X-11378916Y-11176904D01*
X-10883678Y-11176904D01*
X-11813598Y-7836904D02*
X-11356455Y-7836904D01*
X-11585026Y-8636904D02*
X-11585026Y-7836904D01*
X-11165979Y-7836904D02*
X-10632645Y-8636904D01*
X-10632645Y-7836904D02*
X-11165979Y-8636904D01*
X-10175502Y-7836904D02*
X-10099312Y-7836904D01*
X-10023122Y-7875000D01*
X-9985026Y-7913095D01*
X-9946931Y-7989285D01*
X-9908836Y-8141666D01*
X-9908836Y-8332142D01*
X-9946931Y-8484523D01*
X-9985026Y-8560714D01*
X-10023122Y-8598809D01*
X-10099312Y-8636904D01*
X-10175502Y-8636904D01*
X-10251693Y-8598809D01*
X-10289788Y-8560714D01*
X-10327883Y-8484523D01*
X-10365979Y-8332142D01*
X-10365979Y-8141666D01*
X-10327883Y-7989285D01*
X-10289788Y-7913095D01*
X-10251693Y-7875000D01*
X-10175502Y-7836904D01*
X-8994550Y-7798809D02*
X-9680264Y-8827380D01*
X-8727883Y-8636904D02*
X-8727883Y-7836904D01*
X-8537407Y-7836904D01*
X-8423122Y-7875000D01*
X-8346931Y-7951190D01*
X-8308836Y-8027380D01*
X-8270741Y-8179761D01*
X-8270741Y-8294047D01*
X-8308836Y-8446428D01*
X-8346931Y-8522619D01*
X-8423122Y-8598809D01*
X-8537407Y-8636904D01*
X-8727883Y-8636904D01*
X-8004074Y-7836904D02*
X-7508836Y-7836904D01*
X-7775502Y-8141666D01*
X-7661217Y-8141666D01*
X-7585026Y-8179761D01*
X-7546931Y-8217857D01*
X-7508836Y-8294047D01*
X-7508836Y-8484523D01*
X-7546931Y-8560714D01*
X-7585026Y-8598809D01*
X-7661217Y-8636904D01*
X-7889788Y-8636904D01*
X-7965979Y-8598809D01*
X-8004074Y-8560714D01*
%LPC*%
D14*
X-19560000Y-50800000D03*
X2381250Y-50800000D03*
D15*
X-810000Y-80680000D03*
D16*
X2690000Y-76980000D03*
D17*
X1690000Y-79470000D03*
X-3310000Y-79470000D03*
D16*
X-4320000Y-76980000D03*
D18*
X-345000Y-70582500D03*
D19*
X4255000Y-68282500D03*
X-2745000Y-68282500D03*
D18*
X2655000Y-70582500D03*
X-4345000Y-70582500D03*
X-5445000Y-65982500D03*
D20*
X-125412500Y-116681250D03*
D17*
X-130492500Y-116681250D03*
X-120332500Y-116681250D03*
D20*
X-113506250Y-24003000D03*
D17*
X-118586250Y-24003000D03*
X-108426250Y-24003000D03*
D20*
X-37306250Y-50228500D03*
D17*
X-37306250Y-55308500D03*
X-37306250Y-45148500D03*
D20*
X-56356250Y-45466000D03*
D17*
X-61436250Y-45466000D03*
X-51276250Y-45466000D03*
D20*
X-113506250Y-43053000D03*
D17*
X-118586250Y-43053000D03*
X-108426250Y-43053000D03*
D20*
X-56356250Y-26416000D03*
D17*
X-61436250Y-26416000D03*
X-51276250Y-26416000D03*
D21*
X-15413750Y-77370000D03*
X-10333750Y-77370000D03*
X-10333750Y-79751250D03*
X-15413750Y-79751250D03*
X-1606250Y-42088750D03*
X-4146250Y-42088750D03*
X-6686250Y-42088750D03*
X-9226250Y-42088750D03*
D22*
X-13671250Y-8275000D03*
D23*
X-13671250Y-10815000D03*
X-13671250Y-13355000D03*
X-13671250Y-15895000D03*
X-13671250Y-18435000D03*
X-13671250Y-20975000D03*
X-13671250Y-23515000D03*
X-13671250Y-26055000D03*
X-13671250Y-28595000D03*
X-13671250Y-31135000D03*
X-13671250Y-33675000D03*
X1568750Y-36215000D03*
X1568750Y-33675000D03*
X1568750Y-31135000D03*
X1568750Y-28595000D03*
X1568750Y-26055000D03*
X1568750Y-23515000D03*
X1568750Y-20975000D03*
X1568750Y-18435000D03*
X1568750Y-15895000D03*
X1568750Y-13355000D03*
X1568750Y-10815000D03*
X-13671250Y-36215000D03*
X1568750Y-8275000D03*
D20*
X-36068000Y-118618000D03*
D17*
X-40467409Y-116078000D03*
X-31668591Y-121158000D03*
D20*
X-75406250Y-116681250D03*
D17*
X-80486250Y-116681250D03*
X-70326250Y-116681250D03*
D20*
X-94392750Y-97631250D03*
D17*
X-99472750Y-97631250D03*
X-89312750Y-97631250D03*
D20*
X-101600000Y-116681250D03*
D17*
X-106680000Y-116681250D03*
X-96520000Y-116681250D03*
D20*
X-149225000Y-116681250D03*
D17*
X-154305000Y-116681250D03*
X-144145000Y-116681250D03*
D20*
X-26543000Y-102108000D03*
D17*
X-30942409Y-99568000D03*
X-22143591Y-104648000D03*
D20*
X-56356250Y-83566000D03*
D17*
X-61436250Y-83566000D03*
X-51276250Y-83566000D03*
D20*
X-75406250Y-82550000D03*
D17*
X-80486250Y-82550000D03*
X-70326250Y-82550000D03*
D20*
X-94456250Y-73787000D03*
D17*
X-99536250Y-73787000D03*
X-89376250Y-73787000D03*
D20*
X-113506250Y-81153000D03*
D17*
X-118586250Y-81153000D03*
X-108426250Y-81153000D03*
D20*
X-132556250Y-100012500D03*
D17*
X-137636250Y-100012500D03*
X-127476250Y-100012500D03*
D20*
X-151606250Y-97631250D03*
D17*
X-156686250Y-97631250D03*
X-146526250Y-97631250D03*
D20*
X-56356250Y-64516000D03*
D17*
X-61436250Y-64516000D03*
X-51276250Y-64516000D03*
D20*
X-75406250Y-63500000D03*
D17*
X-80486250Y-63500000D03*
X-70326250Y-63500000D03*
D20*
X-94456250Y-54737000D03*
D17*
X-99536250Y-54737000D03*
X-89376250Y-54737000D03*
D20*
X-113506250Y-62103000D03*
D17*
X-118586250Y-62103000D03*
X-108426250Y-62103000D03*
D20*
X-132556250Y-78581250D03*
D17*
X-137636250Y-78581250D03*
X-127476250Y-78581250D03*
D20*
X-151606250Y-78581250D03*
D17*
X-156686250Y-78581250D03*
X-146526250Y-78581250D03*
D20*
X-75406250Y-44450000D03*
D17*
X-80486250Y-44450000D03*
X-70326250Y-44450000D03*
D20*
X-94456250Y-35687000D03*
D17*
X-99536250Y-35687000D03*
X-89376250Y-35687000D03*
D20*
X-132556250Y-59531250D03*
D17*
X-137636250Y-59531250D03*
X-127476250Y-59531250D03*
D20*
X-151606250Y-59531250D03*
D17*
X-156686250Y-59531250D03*
X-146526250Y-59531250D03*
D20*
X-37306250Y-26416000D03*
D17*
X-42386250Y-26416000D03*
X-32226250Y-26416000D03*
D20*
X-75406250Y-25400000D03*
D17*
X-80486250Y-25400000D03*
X-70326250Y-25400000D03*
D20*
X-94456250Y-16637000D03*
D17*
X-99536250Y-16637000D03*
X-89376250Y-16637000D03*
D20*
X-132556250Y-40481250D03*
D17*
X-137636250Y-40481250D03*
X-127476250Y-40481250D03*
D20*
X-151606250Y-40481250D03*
D17*
X-156686250Y-40481250D03*
X-146526250Y-40481250D03*
M02*
