M48
; DRILL file {KiCad 5.1.10} date Sun Jul 11 16:17:43 2021
; FORMAT={-:-/ absolute / inch / decimal}
; #@! TF.CreationDate,2021-07-11T16:17:43-04:00
; #@! TF.GenerationSoftware,Kicad,Pcbnew,5.1.10
; #@! TF.FileFunction,NonPlated,1,2,NPTH
FMAT,2
INCH
T1C0.0315
T2C0.0472
T3C0.0689
T4C0.0866
T5C0.1570
%
G90
G05
T1
X-0.1081Y-2.6883
X0.1675Y-2.6883
T2
X-0.0319Y-3.1764
T3
X-6.1688Y-1.5938
X-6.1688Y-2.3438
X-6.1688Y-3.0938
X-6.1688Y-3.8438
X-6.075Y-4.5938
X-5.7687Y-1.5938
X-5.7687Y-2.3438
X-5.7687Y-3.0938
X-5.7687Y-3.8438
X-5.675Y-4.5938
X-5.4188Y-1.5938
X-5.4188Y-2.3438
X-5.4188Y-3.0938
X-5.4188Y-3.9375
X-5.1375Y-4.5938
X-5.0187Y-1.5938
X-5.0187Y-2.3438
X-5.0187Y-3.0938
X-5.0187Y-3.9375
X-4.7375Y-4.5938
X-4.6688Y-0.945
X-4.6688Y-1.695
X-4.6688Y-2.445
X-4.6688Y-3.195
X-4.2687Y-0.945
X-4.2687Y-1.695
X-4.2687Y-2.445
X-4.2687Y-3.195
X-4.2Y-4.5938
X-3.9187Y-0.655
X-3.9187Y-1.405
X-3.9187Y-2.155
X-3.9187Y-2.905
X-3.9162Y-3.8438
X-3.8Y-4.5938
X-3.5187Y-0.655
X-3.5187Y-1.405
X-3.5187Y-2.155
X-3.5187Y-2.905
X-3.5162Y-3.8438
X-3.1687Y-1.0
X-3.1687Y-1.75
X-3.1687Y-2.5
X-3.1687Y-3.25
X-3.1687Y-4.5938
X-2.7687Y-1.0
X-2.7687Y-1.75
X-2.7687Y-2.5
X-2.7687Y-3.25
X-2.7687Y-4.5938
X-2.4187Y-1.04
X-2.4187Y-1.79
X-2.4187Y-2.54
X-2.4187Y-3.29
X-2.0187Y-1.04
X-2.0187Y-1.79
X-2.0187Y-2.54
X-2.0187Y-3.29
X-1.6687Y-1.04
X-1.5932Y-4.57
X-1.4688Y-1.7775
X-1.4688Y-2.1775
X-1.2688Y-1.04
X-1.2468Y-4.77
X-1.2182Y-3.92
X-0.8718Y-4.12
T4
X-0.7701Y-2.0
X0.0938Y-2.0
T5
X-5.9688Y-1.5938
X-5.9688Y-2.3438
X-5.9688Y-3.0938
X-5.9688Y-3.8438
X-5.875Y-4.5938
X-5.2188Y-1.5938
X-5.2188Y-2.3438
X-5.2188Y-3.0938
X-5.2188Y-3.9375
X-4.9375Y-4.5938
X-4.4688Y-0.945
X-4.4688Y-1.695
X-4.4688Y-2.445
X-4.4688Y-3.195
X-4.0Y-4.5938
X-3.7188Y-0.655
X-3.7188Y-1.405
X-3.7188Y-2.155
X-3.7188Y-2.905
X-3.7163Y-3.8438
X-2.9688Y-1.0
X-2.9688Y-1.75
X-2.9688Y-2.5
X-2.9688Y-3.25
X-2.9688Y-4.5938
X-2.2188Y-1.04
X-2.2188Y-1.79
X-2.2188Y-2.54
X-2.2188Y-3.29
X-1.4688Y-1.04
X-1.4688Y-1.9775
X-1.42Y-4.67
X-1.045Y-4.02
T0
M30
