M48
; DRILL file {KiCad 5.1.10} date Tue Jun 15 23:51:38 2021
; FORMAT={-:-/ absolute / inch / decimal}
; #@! TF.CreationDate,2021-06-15T23:51:38-04:00
; #@! TF.GenerationSoftware,Kicad,Pcbnew,5.1.10
; #@! TF.FileFunction,Plated,1,2,PTH
FMAT,2
INCH
T1C0.0157
T2C0.0430
T3C0.0512
T4C0.0579
%
G90
G05
T1
X-4.4375Y-1.2812
X-4.4062Y-1.3125
X-4.2812Y-1.0625
X-4.2188Y-1.0938
X-3.75Y-0.8438
X-3.7188Y-0.9375
X-3.25Y-0.5312
X-3.0625Y-0.5938
X-2.5938Y-1.4375
X-2.5938Y-2.1875
X-2.5938Y-2.9062
X-2.5938Y-3.6562
X-2.1275Y-4.7525
X-1.625Y-2.5938
X-1.4375Y-2.5938
X-1.0312Y-2.5
X-0.9033Y-2.4092
X-0.9033Y-2.9717
X-0.75Y-0.7812
X-0.75Y-1.5625
X-0.6923Y-0.5673
X-0.5312Y-3.0938
T2
X-0.92Y-0.815
X-0.92Y-0.915
X-0.92Y-1.015
X-0.92Y-1.115
X-0.92Y-1.215
X-0.92Y-1.315
X-0.92Y-1.415
X-0.92Y-1.515
X-0.92Y-1.615
X-0.92Y-1.715
X-0.92Y-1.815
X-0.92Y-1.915
X-0.32Y-0.815
X-0.32Y-0.915
X-0.32Y-1.015
X-0.32Y-1.115
X-0.32Y-1.215
X-0.32Y-1.315
X-0.32Y-1.415
X-0.32Y-1.515
X-0.32Y-1.615
X-0.32Y-1.715
X-0.32Y-1.815
X-0.32Y-1.915
T3
X-0.5967Y-2.4114
X-0.5967Y-2.5886
X-0.3408Y-2.4114
X-0.3408Y-2.5886
T4
X-6.1187Y-1.5875
X-6.1187Y-2.3375
X-6.1187Y-3.0875
X-6.1187Y-3.8375
X-6.025Y-4.5875
X-5.8687Y-1.4875
X-5.8687Y-2.2375
X-5.8687Y-2.9875
X-5.8687Y-3.7375
X-5.775Y-4.4875
X-5.3687Y-1.5875
X-5.3687Y-2.3375
X-5.3687Y-3.0875
X-5.3687Y-3.8375
X-5.1187Y-1.4875
X-5.1187Y-2.2375
X-5.1187Y-2.9875
X-5.1187Y-3.7375
X-5.0875Y-4.5875
X-4.8375Y-4.4875
X-4.6187Y-0.845
X-4.6187Y-1.595
X-4.6187Y-2.345
X-4.6187Y-3.095
X-4.3687Y-0.745
X-4.3687Y-1.495
X-4.3687Y-2.245
X-4.3687Y-2.995
X-4.15Y-4.5875
X-3.9Y-4.4875
X-3.8687Y-0.555
X-3.8687Y-1.305
X-3.8687Y-2.055
X-3.8687Y-2.805
X-3.8662Y-3.838
X-3.6187Y-0.455
X-3.6187Y-1.205
X-3.6187Y-1.955
X-3.6187Y-2.705
X-3.6162Y-3.738
X-3.1187Y-0.9
X-3.1187Y-1.65
X-3.1187Y-2.4
X-3.1187Y-3.15
X-3.1187Y-4.5875
X-2.8687Y-0.8
X-2.8687Y-1.55
X-2.8687Y-2.3
X-2.8687Y-3.05
X-2.8687Y-4.4875
X-2.3687Y-0.94
X-2.3687Y-1.69
X-2.3687Y-2.44
X-2.3687Y-3.19
X-2.1187Y-0.84
X-2.1187Y-1.59
X-2.1187Y-2.34
X-2.1187Y-3.09
X-1.6687Y-1.8775
X-1.6187Y-0.94
X-1.5687Y-2.1275
X-1.4999Y-4.5084
X-1.3687Y-0.84
X-1.2334Y-4.5468
X-1.1249Y-3.8584
X-0.8584Y-3.8968
T0
M30
