G04 #@! TF.GenerationSoftware,KiCad,Pcbnew,5.1.10*
G04 #@! TF.CreationDate,2021-06-15T23:50:52-04:00*
G04 #@! TF.ProjectId,attempt2,61747465-6d70-4743-922e-6b696361645f,rev?*
G04 #@! TF.SameCoordinates,Original*
G04 #@! TF.FileFunction,Legend,Top*
G04 #@! TF.FilePolarity,Positive*
%FSLAX46Y46*%
G04 Gerber Fmt 4.6, Leading zero omitted, Abs format (unit mm)*
G04 Created by KiCad (PCBNEW 5.1.10) date 2021-06-15 23:50:52*
%MOMM*%
%LPD*%
G01*
G04 APERTURE LIST*
%ADD10C,0.150000*%
%ADD11C,0.200000*%
%ADD12C,0.120000*%
%ADD13C,0.381000*%
%ADD14R,0.700000X1.300000*%
%ADD15C,1.500000*%
%ADD16R,1.200000X2.500000*%
%ADD17C,0.100000*%
%ADD18R,1.752600X1.752600*%
%ADD19C,1.752600*%
%ADD20C,2.000000*%
%ADD21C,3.987800*%
%ADD22C,1.750000*%
%ADD23R,1.200000X0.900000*%
%ADD24R,0.900000X1.200000*%
G04 APERTURE END LIST*
D10*
X-80382142Y-100369642D02*
X-80429761Y-100417261D01*
X-80572619Y-100464880D01*
X-80667857Y-100464880D01*
X-80810714Y-100417261D01*
X-80905952Y-100322023D01*
X-80953571Y-100226785D01*
X-81001190Y-100036309D01*
X-81001190Y-99893452D01*
X-80953571Y-99702976D01*
X-80905952Y-99607738D01*
X-80810714Y-99512500D01*
X-80667857Y-99464880D01*
X-80572619Y-99464880D01*
X-80429761Y-99512500D01*
X-80382142Y-99560119D01*
X-79525000Y-99798214D02*
X-79525000Y-100464880D01*
X-79953571Y-99798214D02*
X-79953571Y-100322023D01*
X-79905952Y-100417261D01*
X-79810714Y-100464880D01*
X-79667857Y-100464880D01*
X-79572619Y-100417261D01*
X-79525000Y-100369642D01*
X-79096428Y-100417261D02*
X-79001190Y-100464880D01*
X-78810714Y-100464880D01*
X-78715476Y-100417261D01*
X-78667857Y-100322023D01*
X-78667857Y-100274404D01*
X-78715476Y-100179166D01*
X-78810714Y-100131547D01*
X-78953571Y-100131547D01*
X-79048809Y-100083928D01*
X-79096428Y-99988690D01*
X-79096428Y-99941071D01*
X-79048809Y-99845833D01*
X-78953571Y-99798214D01*
X-78810714Y-99798214D01*
X-78715476Y-99845833D01*
X-78382142Y-99798214D02*
X-78001190Y-99798214D01*
X-78239285Y-99464880D02*
X-78239285Y-100322023D01*
X-78191666Y-100417261D01*
X-78096428Y-100464880D01*
X-78001190Y-100464880D01*
X-77525000Y-100464880D02*
X-77620238Y-100417261D01*
X-77667857Y-100369642D01*
X-77715476Y-100274404D01*
X-77715476Y-99988690D01*
X-77667857Y-99893452D01*
X-77620238Y-99845833D01*
X-77525000Y-99798214D01*
X-77382142Y-99798214D01*
X-77286904Y-99845833D01*
X-77239285Y-99893452D01*
X-77191666Y-99988690D01*
X-77191666Y-100274404D01*
X-77239285Y-100369642D01*
X-77286904Y-100417261D01*
X-77382142Y-100464880D01*
X-77525000Y-100464880D01*
X-76763095Y-100464880D02*
X-76763095Y-99798214D01*
X-76763095Y-99893452D02*
X-76715476Y-99845833D01*
X-76620238Y-99798214D01*
X-76477380Y-99798214D01*
X-76382142Y-99845833D01*
X-76334523Y-99941071D01*
X-76334523Y-100464880D01*
X-76334523Y-99941071D02*
X-76286904Y-99845833D01*
X-76191666Y-99798214D01*
X-76048809Y-99798214D01*
X-75953571Y-99845833D01*
X-75905952Y-99941071D01*
X-75905952Y-100464880D01*
X-74334523Y-99941071D02*
X-74191666Y-99988690D01*
X-74144047Y-100036309D01*
X-74096428Y-100131547D01*
X-74096428Y-100274404D01*
X-74144047Y-100369642D01*
X-74191666Y-100417261D01*
X-74286904Y-100464880D01*
X-74667857Y-100464880D01*
X-74667857Y-99464880D01*
X-74334523Y-99464880D01*
X-74239285Y-99512500D01*
X-74191666Y-99560119D01*
X-74144047Y-99655357D01*
X-74144047Y-99750595D01*
X-74191666Y-99845833D01*
X-74239285Y-99893452D01*
X-74334523Y-99941071D01*
X-74667857Y-99941071D01*
X-73525000Y-100464880D02*
X-73620238Y-100417261D01*
X-73667857Y-100369642D01*
X-73715476Y-100274404D01*
X-73715476Y-99988690D01*
X-73667857Y-99893452D01*
X-73620238Y-99845833D01*
X-73525000Y-99798214D01*
X-73382142Y-99798214D01*
X-73286904Y-99845833D01*
X-73239285Y-99893452D01*
X-73191666Y-99988690D01*
X-73191666Y-100274404D01*
X-73239285Y-100369642D01*
X-73286904Y-100417261D01*
X-73382142Y-100464880D01*
X-73525000Y-100464880D01*
X-72334523Y-99798214D02*
X-72334523Y-100464880D01*
X-72763095Y-99798214D02*
X-72763095Y-100322023D01*
X-72715476Y-100417261D01*
X-72620238Y-100464880D01*
X-72477380Y-100464880D01*
X-72382142Y-100417261D01*
X-72334523Y-100369642D01*
X-71858333Y-100464880D02*
X-71858333Y-99798214D01*
X-71858333Y-99988690D02*
X-71810714Y-99893452D01*
X-71763095Y-99845833D01*
X-71667857Y-99798214D01*
X-71572619Y-99798214D01*
X-71239285Y-100464880D02*
X-71239285Y-99464880D01*
X-71239285Y-99845833D02*
X-71144047Y-99798214D01*
X-70953571Y-99798214D01*
X-70858333Y-99845833D01*
X-70810714Y-99893452D01*
X-70763095Y-99988690D01*
X-70763095Y-100274404D01*
X-70810714Y-100369642D01*
X-70858333Y-100417261D01*
X-70953571Y-100464880D01*
X-71144047Y-100464880D01*
X-71239285Y-100417261D01*
X-70191666Y-100464880D02*
X-70286904Y-100417261D01*
X-70334523Y-100369642D01*
X-70382142Y-100274404D01*
X-70382142Y-99988690D01*
X-70334523Y-99893452D01*
X-70286904Y-99845833D01*
X-70191666Y-99798214D01*
X-70048809Y-99798214D01*
X-69953571Y-99845833D01*
X-69905952Y-99893452D01*
X-69858333Y-99988690D01*
X-69858333Y-100274404D01*
X-69905952Y-100369642D01*
X-69953571Y-100417261D01*
X-70048809Y-100464880D01*
X-70191666Y-100464880D01*
X-69429761Y-99798214D02*
X-69429761Y-100464880D01*
X-69429761Y-99893452D02*
X-69382142Y-99845833D01*
X-69286904Y-99798214D01*
X-69144047Y-99798214D01*
X-69048809Y-99845833D01*
X-69001190Y-99941071D01*
X-69001190Y-100464880D01*
X-67858333Y-99798214D02*
X-67620238Y-100464880D01*
X-67382142Y-99798214D01*
X-66810714Y-99464880D02*
X-66715476Y-99464880D01*
X-66620238Y-99512500D01*
X-66572619Y-99560119D01*
X-66525000Y-99655357D01*
X-66477380Y-99845833D01*
X-66477380Y-100083928D01*
X-66525000Y-100274404D01*
X-66572619Y-100369642D01*
X-66620238Y-100417261D01*
X-66715476Y-100464880D01*
X-66810714Y-100464880D01*
X-66905952Y-100417261D01*
X-66953571Y-100369642D01*
X-67001190Y-100274404D01*
X-67048809Y-100083928D01*
X-67048809Y-99845833D01*
X-67001190Y-99655357D01*
X-66953571Y-99560119D01*
X-66905952Y-99512500D01*
X-66810714Y-99464880D01*
X-66048809Y-100369642D02*
X-66001190Y-100417261D01*
X-66048809Y-100464880D01*
X-66096428Y-100417261D01*
X-66048809Y-100369642D01*
X-66048809Y-100464880D01*
X-65048809Y-100464880D02*
X-65620238Y-100464880D01*
X-65334523Y-100464880D02*
X-65334523Y-99464880D01*
X-65429761Y-99607738D01*
X-65525000Y-99702976D01*
X-65620238Y-99750595D01*
D11*
X-14277250Y-83400000D02*
X-17277250Y-83400000D01*
X-17277250Y-83400000D02*
X-17277250Y-81700000D01*
X-14277250Y-83400000D02*
X-14277250Y-81700000D01*
X-14277250Y-81700000D02*
X-17277250Y-81700000D01*
D12*
X-18131250Y-75331250D02*
X-18131250Y-76731250D01*
X-19681250Y-75331250D02*
X-19681250Y-76731250D01*
X-19231250Y-69131250D02*
X-8706250Y-69131250D01*
X-19681250Y-75331250D02*
X-20806250Y-75331250D01*
X-15731250Y-75331250D02*
X-18131250Y-75331250D01*
X-12731250Y-75331250D02*
X-14081250Y-75331250D01*
X-8706250Y-75331250D02*
X-11081250Y-75331250D01*
X-20806250Y-69131250D02*
X-20806250Y-75331250D01*
X-8706250Y-75331250D02*
X-8706250Y-74731250D01*
X-8706250Y-69731250D02*
X-8706250Y-69131250D01*
X-6706250Y-74731250D02*
X-6706250Y-69731250D01*
X-8706250Y-74731250D02*
X-6706250Y-74731250D01*
X-8706250Y-69731250D02*
X-6706250Y-69731250D01*
X-46695025Y-110541557D02*
X-44962975Y-111541557D01*
X-44962975Y-111541557D02*
X-43012975Y-108164058D01*
X-46695025Y-110541557D02*
X-44745025Y-107164058D01*
D13*
X-22098000Y-19431000D02*
X-24638000Y-19431000D01*
X-24638000Y-16891000D02*
X-24638000Y-19431000D01*
X-6858000Y-16891000D02*
X-24638000Y-16891000D01*
X-6858000Y-19431000D02*
X-6858000Y-16891000D01*
D10*
G36*
X-10816432Y-25910360D02*
G01*
X-10816432Y-26110360D01*
X-10916432Y-26110360D01*
X-10916432Y-25910360D01*
X-10816432Y-25910360D01*
G37*
X-10816432Y-25910360D02*
X-10816432Y-26110360D01*
X-10916432Y-26110360D01*
X-10916432Y-25910360D01*
X-10816432Y-25910360D01*
G36*
X-11216432Y-25310360D02*
G01*
X-11216432Y-26110360D01*
X-11316432Y-26110360D01*
X-11316432Y-25310360D01*
X-11216432Y-25310360D01*
G37*
X-11216432Y-25310360D02*
X-11216432Y-26110360D01*
X-11316432Y-26110360D01*
X-11316432Y-25310360D01*
X-11216432Y-25310360D01*
G36*
X-10816432Y-25310360D02*
G01*
X-10816432Y-25410360D01*
X-11316432Y-25410360D01*
X-11316432Y-25310360D01*
X-10816432Y-25310360D01*
G37*
X-10816432Y-25310360D02*
X-10816432Y-25410360D01*
X-11316432Y-25410360D01*
X-11316432Y-25310360D01*
X-10816432Y-25310360D01*
G36*
X-11016432Y-25710360D02*
G01*
X-11016432Y-25810360D01*
X-11116432Y-25810360D01*
X-11116432Y-25710360D01*
X-11016432Y-25710360D01*
G37*
X-11016432Y-25710360D02*
X-11016432Y-25810360D01*
X-11116432Y-25810360D01*
X-11116432Y-25710360D01*
X-11016432Y-25710360D01*
G36*
X-10816432Y-25310360D02*
G01*
X-10816432Y-25610360D01*
X-10916432Y-25610360D01*
X-10916432Y-25310360D01*
X-10816432Y-25310360D01*
G37*
X-10816432Y-25310360D02*
X-10816432Y-25610360D01*
X-10916432Y-25610360D01*
X-10916432Y-25310360D01*
X-10816432Y-25310360D01*
D13*
X-22098000Y-21971000D02*
X-24638000Y-21971000D01*
X-22098000Y-19431000D02*
X-22098000Y-21971000D01*
X-6858000Y-49911000D02*
X-6858000Y-19431000D01*
X-24638000Y-49911000D02*
X-6858000Y-49911000D01*
X-24638000Y-19431000D02*
X-24638000Y-49911000D01*
D10*
X-15156250Y-61250000D02*
X-15156250Y-65750000D01*
X-15156250Y-65750000D02*
X-8656250Y-65750000D01*
X-8656250Y-65750000D02*
X-8656250Y-61250000D01*
X-8656250Y-61250000D02*
X-15156250Y-61250000D01*
D11*
X-17375000Y-84081250D02*
X-14375000Y-84081250D01*
X-14375000Y-84081250D02*
X-14375000Y-85781250D01*
X-17375000Y-84081250D02*
X-17375000Y-85781250D01*
X-17375000Y-85781250D02*
X-14375000Y-85781250D01*
D12*
X-63706250Y-121312500D02*
X-61706250Y-121312500D01*
X-61706250Y-121312500D02*
X-61706250Y-117412500D01*
X-63706250Y-121312500D02*
X-63706250Y-117412500D01*
X-85062500Y-108950000D02*
X-85062500Y-106950000D01*
X-85062500Y-106950000D02*
X-88962500Y-106950000D01*
X-85062500Y-108950000D02*
X-88962500Y-108950000D01*
X-92281250Y-120518750D02*
X-90281250Y-120518750D01*
X-90281250Y-120518750D02*
X-90281250Y-116618750D01*
X-92281250Y-120518750D02*
X-92281250Y-116618750D01*
X-116093750Y-120518750D02*
X-114093750Y-120518750D01*
X-114093750Y-120518750D02*
X-114093750Y-116618750D01*
X-116093750Y-120518750D02*
X-116093750Y-116618750D01*
X-139906250Y-120518750D02*
X-137906250Y-120518750D01*
X-137906250Y-120518750D02*
X-137906250Y-116618750D01*
X-139906250Y-120518750D02*
X-139906250Y-116618750D01*
X-37551025Y-95428557D02*
X-35818975Y-96428557D01*
X-35818975Y-96428557D02*
X-33868975Y-93051058D01*
X-37551025Y-95428557D02*
X-35601025Y-92051058D01*
X-46962500Y-92281250D02*
X-46962500Y-90281250D01*
X-46962500Y-90281250D02*
X-50862500Y-90281250D01*
X-46962500Y-92281250D02*
X-50862500Y-92281250D01*
X-66012500Y-91487500D02*
X-66012500Y-89487500D01*
X-66012500Y-89487500D02*
X-69912500Y-89487500D01*
X-66012500Y-91487500D02*
X-69912500Y-91487500D01*
X-85062500Y-82756250D02*
X-85062500Y-80756250D01*
X-85062500Y-80756250D02*
X-88962500Y-80756250D01*
X-85062500Y-82756250D02*
X-88962500Y-82756250D01*
X-104112500Y-89900000D02*
X-104112500Y-87900000D01*
X-104112500Y-87900000D02*
X-108012500Y-87900000D01*
X-104112500Y-89900000D02*
X-108012500Y-89900000D01*
X-123162500Y-108950000D02*
X-123162500Y-106950000D01*
X-123162500Y-106950000D02*
X-127062500Y-106950000D01*
X-123162500Y-108950000D02*
X-127062500Y-108950000D01*
X-142212500Y-108950000D02*
X-142212500Y-106950000D01*
X-142212500Y-106950000D02*
X-146112500Y-106950000D01*
X-142212500Y-108950000D02*
X-146112500Y-108950000D01*
X-41406250Y-62912500D02*
X-41406250Y-60912500D01*
X-41406250Y-60912500D02*
X-45306250Y-60912500D01*
X-41406250Y-62912500D02*
X-45306250Y-62912500D01*
X-46962500Y-73231250D02*
X-46962500Y-71231250D01*
X-46962500Y-71231250D02*
X-50862500Y-71231250D01*
X-46962500Y-73231250D02*
X-50862500Y-73231250D01*
X-66012500Y-72437500D02*
X-66012500Y-70437500D01*
X-66012500Y-70437500D02*
X-69912500Y-70437500D01*
X-66012500Y-72437500D02*
X-69912500Y-72437500D01*
X-85062500Y-63706250D02*
X-85062500Y-61706250D01*
X-85062500Y-61706250D02*
X-88962500Y-61706250D01*
X-85062500Y-63706250D02*
X-88962500Y-63706250D01*
X-104112500Y-70850000D02*
X-104112500Y-68850000D01*
X-104112500Y-68850000D02*
X-108012500Y-68850000D01*
X-104112500Y-70850000D02*
X-108012500Y-70850000D01*
X-123162500Y-89900000D02*
X-123162500Y-87900000D01*
X-123162500Y-87900000D02*
X-127062500Y-87900000D01*
X-123162500Y-89900000D02*
X-127062500Y-89900000D01*
X-142212500Y-89900000D02*
X-142212500Y-87900000D01*
X-142212500Y-87900000D02*
X-146112500Y-87900000D01*
X-142212500Y-89900000D02*
X-146112500Y-89900000D01*
X-46962500Y-54181250D02*
X-46962500Y-52181250D01*
X-46962500Y-52181250D02*
X-50862500Y-52181250D01*
X-46962500Y-54181250D02*
X-50862500Y-54181250D01*
X-66012500Y-53387500D02*
X-66012500Y-51387500D01*
X-66012500Y-51387500D02*
X-69912500Y-51387500D01*
X-66012500Y-53387500D02*
X-69912500Y-53387500D01*
X-85062500Y-44656250D02*
X-85062500Y-42656250D01*
X-85062500Y-42656250D02*
X-88962500Y-42656250D01*
X-85062500Y-44656250D02*
X-88962500Y-44656250D01*
X-104112500Y-51800000D02*
X-104112500Y-49800000D01*
X-104112500Y-49800000D02*
X-108012500Y-49800000D01*
X-104112500Y-51800000D02*
X-108012500Y-51800000D01*
X-123162500Y-70850000D02*
X-123162500Y-68850000D01*
X-123162500Y-68850000D02*
X-127062500Y-68850000D01*
X-123162500Y-70850000D02*
X-127062500Y-70850000D01*
X-142212500Y-70850000D02*
X-142212500Y-68850000D01*
X-142212500Y-68850000D02*
X-146112500Y-68850000D01*
X-142212500Y-70850000D02*
X-146112500Y-70850000D01*
X-27912500Y-35131250D02*
X-27912500Y-33131250D01*
X-27912500Y-33131250D02*
X-31812500Y-33131250D01*
X-27912500Y-35131250D02*
X-31812500Y-35131250D01*
X-46962500Y-35131250D02*
X-46962500Y-33131250D01*
X-46962500Y-33131250D02*
X-50862500Y-33131250D01*
X-46962500Y-35131250D02*
X-50862500Y-35131250D01*
X-66012500Y-34337500D02*
X-66012500Y-32337500D01*
X-66012500Y-32337500D02*
X-69912500Y-32337500D01*
X-66012500Y-34337500D02*
X-69912500Y-34337500D01*
X-85062500Y-25606250D02*
X-85062500Y-23606250D01*
X-85062500Y-23606250D02*
X-88962500Y-23606250D01*
X-85062500Y-25606250D02*
X-88962500Y-25606250D01*
X-104112500Y-32750000D02*
X-104112500Y-30750000D01*
X-104112500Y-30750000D02*
X-108012500Y-30750000D01*
X-104112500Y-32750000D02*
X-108012500Y-32750000D01*
X-123162500Y-51800000D02*
X-123162500Y-49800000D01*
X-123162500Y-49800000D02*
X-127062500Y-49800000D01*
X-123162500Y-51800000D02*
X-127062500Y-51800000D01*
X-142212500Y-51800000D02*
X-142212500Y-49800000D01*
X-142212500Y-49800000D02*
X-146112500Y-49800000D01*
X-142212500Y-51800000D02*
X-146112500Y-51800000D01*
D10*
X-13260583Y-82666666D02*
X-13593916Y-82900000D01*
X-13260583Y-83066666D02*
X-13960583Y-83066666D01*
X-13960583Y-82800000D01*
X-13927250Y-82733333D01*
X-13893916Y-82700000D01*
X-13827250Y-82666666D01*
X-13727250Y-82666666D01*
X-13660583Y-82700000D01*
X-13627250Y-82733333D01*
X-13593916Y-82800000D01*
X-13593916Y-83066666D01*
X-13893916Y-82400000D02*
X-13927250Y-82366666D01*
X-13960583Y-82300000D01*
X-13960583Y-82133333D01*
X-13927250Y-82066666D01*
X-13893916Y-82033333D01*
X-13827250Y-82000000D01*
X-13760583Y-82000000D01*
X-13660583Y-82033333D01*
X-13260583Y-82433333D01*
X-13260583Y-82000000D01*
X-16427250Y-80850000D02*
X-16427250Y-81316666D01*
X-16593916Y-80583333D02*
X-16760583Y-81083333D01*
X-16327250Y-81083333D01*
X-16060583Y-81250000D02*
X-16027250Y-81283333D01*
X-16060583Y-81316666D01*
X-16093916Y-81283333D01*
X-16060583Y-81250000D01*
X-16060583Y-81316666D01*
X-15793916Y-80616666D02*
X-15327250Y-80616666D01*
X-15627250Y-81316666D01*
X-15060583Y-81316666D02*
X-15060583Y-80616666D01*
X-14993916Y-81050000D02*
X-14793916Y-81316666D01*
X-14793916Y-80850000D02*
X-15060583Y-81116666D01*
X-15464583Y-77033630D02*
X-15464583Y-77747916D01*
X-15512202Y-77890773D01*
X-15607440Y-77986011D01*
X-15750297Y-78033630D01*
X-15845535Y-78033630D01*
X-14464583Y-78033630D02*
X-15036011Y-78033630D01*
X-14750297Y-78033630D02*
X-14750297Y-77033630D01*
X-14845535Y-77176488D01*
X-14940773Y-77271726D01*
X-15036011Y-77319345D01*
X-46651420Y-109370792D02*
X-47517445Y-108870792D01*
X-47398398Y-108664596D01*
X-47285730Y-108564687D01*
X-47155632Y-108529828D01*
X-47049344Y-108536208D01*
X-46860577Y-108590206D01*
X-46736859Y-108661635D01*
X-46595712Y-108798112D01*
X-46537043Y-108886971D01*
X-46502183Y-109017068D01*
X-46532372Y-109164596D01*
X-46651420Y-109370792D01*
X-46514485Y-107800280D02*
X-45937134Y-108133613D01*
X-46963447Y-107816000D02*
X-46463905Y-108379339D01*
X-46154381Y-107843229D01*
X-46303160Y-106767588D02*
X-46541255Y-107179981D01*
X-46152671Y-107459315D01*
X-46170101Y-107394266D01*
X-46163721Y-107287978D01*
X-46044674Y-107081782D01*
X-45955815Y-107023113D01*
X-45890767Y-107005683D01*
X-45784478Y-107012063D01*
X-45578282Y-107131110D01*
X-45519613Y-107219969D01*
X-45502183Y-107285017D01*
X-45508563Y-107391306D01*
X-45627610Y-107597502D01*
X-45716469Y-107656171D01*
X-45781518Y-107673601D01*
X-10610809Y-46043857D02*
X-10496523Y-46081952D01*
X-10458428Y-46120047D01*
X-10420333Y-46196238D01*
X-10420333Y-46310523D01*
X-10458428Y-46386714D01*
X-10496523Y-46424809D01*
X-10572714Y-46462904D01*
X-10877476Y-46462904D01*
X-10877476Y-45662904D01*
X-10610809Y-45662904D01*
X-10534619Y-45701000D01*
X-10496523Y-45739095D01*
X-10458428Y-45815285D01*
X-10458428Y-45891476D01*
X-10496523Y-45967666D01*
X-10534619Y-46005761D01*
X-10610809Y-46043857D01*
X-10877476Y-46043857D01*
X-10115571Y-45739095D02*
X-10077476Y-45701000D01*
X-10001285Y-45662904D01*
X-9810809Y-45662904D01*
X-9734619Y-45701000D01*
X-9696523Y-45739095D01*
X-9658428Y-45815285D01*
X-9658428Y-45891476D01*
X-9696523Y-46005761D01*
X-10153666Y-46462904D01*
X-9658428Y-46462904D01*
X-10553666Y-38423857D02*
X-10820333Y-38423857D01*
X-10820333Y-38842904D02*
X-10820333Y-38042904D01*
X-10439380Y-38042904D01*
X-10210809Y-38042904D02*
X-9677476Y-38042904D01*
X-10020333Y-38842904D01*
X-10553666Y-35883857D02*
X-10820333Y-35883857D01*
X-10820333Y-36302904D02*
X-10820333Y-35502904D01*
X-10439380Y-35502904D01*
X-9791761Y-35502904D02*
X-9944142Y-35502904D01*
X-10020333Y-35541000D01*
X-10058428Y-35579095D01*
X-10134619Y-35693380D01*
X-10172714Y-35845761D01*
X-10172714Y-36150523D01*
X-10134619Y-36226714D01*
X-10096523Y-36264809D01*
X-10020333Y-36302904D01*
X-9867952Y-36302904D01*
X-9791761Y-36264809D01*
X-9753666Y-36226714D01*
X-9715571Y-36150523D01*
X-9715571Y-35960047D01*
X-9753666Y-35883857D01*
X-9791761Y-35845761D01*
X-9867952Y-35807666D01*
X-10020333Y-35807666D01*
X-10096523Y-35845761D01*
X-10134619Y-35883857D01*
X-10172714Y-35960047D01*
X-10553666Y-33343857D02*
X-10820333Y-33343857D01*
X-10820333Y-33762904D02*
X-10820333Y-32962904D01*
X-10439380Y-32962904D01*
X-9753666Y-32962904D02*
X-10134619Y-32962904D01*
X-10172714Y-33343857D01*
X-10134619Y-33305761D01*
X-10058428Y-33267666D01*
X-9867952Y-33267666D01*
X-9791761Y-33305761D01*
X-9753666Y-33343857D01*
X-9715571Y-33420047D01*
X-9715571Y-33610523D01*
X-9753666Y-33686714D01*
X-9791761Y-33724809D01*
X-9867952Y-33762904D01*
X-10058428Y-33762904D01*
X-10134619Y-33724809D01*
X-10172714Y-33686714D01*
X-10839380Y-21062904D02*
X-11106047Y-20681952D01*
X-11296523Y-21062904D02*
X-11296523Y-20262904D01*
X-10991761Y-20262904D01*
X-10915571Y-20301000D01*
X-10877476Y-20339095D01*
X-10839380Y-20415285D01*
X-10839380Y-20529571D01*
X-10877476Y-20605761D01*
X-10915571Y-20643857D01*
X-10991761Y-20681952D01*
X-11296523Y-20681952D01*
X-10534619Y-20834333D02*
X-10153666Y-20834333D01*
X-10610809Y-21062904D02*
X-10344142Y-20262904D01*
X-10077476Y-21062904D01*
X-9887000Y-20262904D02*
X-9696523Y-21062904D01*
X-9544142Y-20491476D01*
X-9391761Y-21062904D01*
X-9201285Y-20262904D01*
X-10896523Y-22841000D02*
X-10972714Y-22802904D01*
X-11087000Y-22802904D01*
X-11201285Y-22841000D01*
X-11277476Y-22917190D01*
X-11315571Y-22993380D01*
X-11353666Y-23145761D01*
X-11353666Y-23260047D01*
X-11315571Y-23412428D01*
X-11277476Y-23488619D01*
X-11201285Y-23564809D01*
X-11087000Y-23602904D01*
X-11010809Y-23602904D01*
X-10896523Y-23564809D01*
X-10858428Y-23526714D01*
X-10858428Y-23260047D01*
X-11010809Y-23260047D01*
X-10515571Y-23602904D02*
X-10515571Y-22802904D01*
X-10058428Y-23602904D01*
X-10058428Y-22802904D01*
X-9677476Y-23602904D02*
X-9677476Y-22802904D01*
X-9487000Y-22802904D01*
X-9372714Y-22841000D01*
X-9296523Y-22917190D01*
X-9258428Y-22993380D01*
X-9220333Y-23145761D01*
X-9220333Y-23260047D01*
X-9258428Y-23412428D01*
X-9296523Y-23488619D01*
X-9372714Y-23564809D01*
X-9487000Y-23602904D01*
X-9677476Y-23602904D01*
X-10548213Y-26074809D02*
X-10433927Y-26112904D01*
X-10243451Y-26112904D01*
X-10167260Y-26074809D01*
X-10129165Y-26036714D01*
X-10091070Y-25960523D01*
X-10091070Y-25884333D01*
X-10129165Y-25808142D01*
X-10167260Y-25770047D01*
X-10243451Y-25731952D01*
X-10395832Y-25693857D01*
X-10472022Y-25655761D01*
X-10510118Y-25617666D01*
X-10548213Y-25541476D01*
X-10548213Y-25465285D01*
X-10510118Y-25389095D01*
X-10472022Y-25351000D01*
X-10395832Y-25312904D01*
X-10205356Y-25312904D01*
X-10091070Y-25351000D01*
X-9862499Y-25312904D02*
X-9405356Y-25312904D01*
X-9633927Y-26112904D02*
X-9633927Y-25312904D01*
X-11353666Y-27882904D02*
X-11087000Y-28682904D01*
X-10820333Y-27882904D01*
X-10096523Y-28606714D02*
X-10134619Y-28644809D01*
X-10248904Y-28682904D01*
X-10325095Y-28682904D01*
X-10439380Y-28644809D01*
X-10515571Y-28568619D01*
X-10553666Y-28492428D01*
X-10591761Y-28340047D01*
X-10591761Y-28225761D01*
X-10553666Y-28073380D01*
X-10515571Y-27997190D01*
X-10439380Y-27921000D01*
X-10325095Y-27882904D01*
X-10248904Y-27882904D01*
X-10134619Y-27921000D01*
X-10096523Y-27959095D01*
X-9296523Y-28606714D02*
X-9334619Y-28644809D01*
X-9448904Y-28682904D01*
X-9525095Y-28682904D01*
X-9639380Y-28644809D01*
X-9715571Y-28568619D01*
X-9753666Y-28492428D01*
X-9791761Y-28340047D01*
X-9791761Y-28225761D01*
X-9753666Y-28073380D01*
X-9715571Y-27997190D01*
X-9639380Y-27921000D01*
X-9525095Y-27882904D01*
X-9448904Y-27882904D01*
X-9334619Y-27921000D01*
X-9296523Y-27959095D01*
X-10553666Y-30803857D02*
X-10820333Y-30803857D01*
X-10820333Y-31222904D02*
X-10820333Y-30422904D01*
X-10439380Y-30422904D01*
X-9791761Y-30689571D02*
X-9791761Y-31222904D01*
X-9982238Y-30384809D02*
X-10172714Y-30956238D01*
X-9677476Y-30956238D01*
X-10610809Y-40963857D02*
X-10496523Y-41001952D01*
X-10458428Y-41040047D01*
X-10420333Y-41116238D01*
X-10420333Y-41230523D01*
X-10458428Y-41306714D01*
X-10496523Y-41344809D01*
X-10572714Y-41382904D01*
X-10877476Y-41382904D01*
X-10877476Y-40582904D01*
X-10610809Y-40582904D01*
X-10534619Y-40621000D01*
X-10496523Y-40659095D01*
X-10458428Y-40735285D01*
X-10458428Y-40811476D01*
X-10496523Y-40887666D01*
X-10534619Y-40925761D01*
X-10610809Y-40963857D01*
X-10877476Y-40963857D01*
X-9658428Y-41382904D02*
X-10115571Y-41382904D01*
X-9887000Y-41382904D02*
X-9887000Y-40582904D01*
X-9963190Y-40697190D01*
X-10039380Y-40773380D01*
X-10115571Y-40811476D01*
X-10610809Y-43503857D02*
X-10496523Y-43541952D01*
X-10458428Y-43580047D01*
X-10420333Y-43656238D01*
X-10420333Y-43770523D01*
X-10458428Y-43846714D01*
X-10496523Y-43884809D01*
X-10572714Y-43922904D01*
X-10877476Y-43922904D01*
X-10877476Y-43122904D01*
X-10610809Y-43122904D01*
X-10534619Y-43161000D01*
X-10496523Y-43199095D01*
X-10458428Y-43275285D01*
X-10458428Y-43351476D01*
X-10496523Y-43427666D01*
X-10534619Y-43465761D01*
X-10610809Y-43503857D01*
X-10877476Y-43503857D01*
X-10153666Y-43122904D02*
X-9658428Y-43122904D01*
X-9925095Y-43427666D01*
X-9810809Y-43427666D01*
X-9734619Y-43465761D01*
X-9696523Y-43503857D01*
X-9658428Y-43580047D01*
X-9658428Y-43770523D01*
X-9696523Y-43846714D01*
X-9734619Y-43884809D01*
X-9810809Y-43922904D01*
X-10039380Y-43922904D01*
X-10115571Y-43884809D01*
X-10153666Y-43846714D01*
X-10610809Y-48583857D02*
X-10496523Y-48621952D01*
X-10458428Y-48660047D01*
X-10420333Y-48736238D01*
X-10420333Y-48850523D01*
X-10458428Y-48926714D01*
X-10496523Y-48964809D01*
X-10572714Y-49002904D01*
X-10877476Y-49002904D01*
X-10877476Y-48202904D01*
X-10610809Y-48202904D01*
X-10534619Y-48241000D01*
X-10496523Y-48279095D01*
X-10458428Y-48355285D01*
X-10458428Y-48431476D01*
X-10496523Y-48507666D01*
X-10534619Y-48545761D01*
X-10610809Y-48583857D01*
X-10877476Y-48583857D01*
X-9734619Y-48202904D02*
X-9887000Y-48202904D01*
X-9963190Y-48241000D01*
X-10001285Y-48279095D01*
X-10077476Y-48393380D01*
X-10115571Y-48545761D01*
X-10115571Y-48850523D01*
X-10077476Y-48926714D01*
X-10039380Y-48964809D01*
X-9963190Y-49002904D01*
X-9810809Y-49002904D01*
X-9734619Y-48964809D01*
X-9696523Y-48926714D01*
X-9658428Y-48850523D01*
X-9658428Y-48660047D01*
X-9696523Y-48583857D01*
X-9734619Y-48545761D01*
X-9810809Y-48507666D01*
X-9963190Y-48507666D01*
X-10039380Y-48545761D01*
X-10077476Y-48583857D01*
X-10115571Y-48660047D01*
X-21532809Y-48583857D02*
X-21418523Y-48621952D01*
X-21380428Y-48660047D01*
X-21342333Y-48736238D01*
X-21342333Y-48850523D01*
X-21380428Y-48926714D01*
X-21418523Y-48964809D01*
X-21494714Y-49002904D01*
X-21799476Y-49002904D01*
X-21799476Y-48202904D01*
X-21532809Y-48202904D01*
X-21456619Y-48241000D01*
X-21418523Y-48279095D01*
X-21380428Y-48355285D01*
X-21380428Y-48431476D01*
X-21418523Y-48507666D01*
X-21456619Y-48545761D01*
X-21532809Y-48583857D01*
X-21799476Y-48583857D01*
X-20618523Y-48202904D02*
X-20999476Y-48202904D01*
X-21037571Y-48583857D01*
X-20999476Y-48545761D01*
X-20923285Y-48507666D01*
X-20732809Y-48507666D01*
X-20656619Y-48545761D01*
X-20618523Y-48583857D01*
X-20580428Y-48660047D01*
X-20580428Y-48850523D01*
X-20618523Y-48926714D01*
X-20656619Y-48964809D01*
X-20732809Y-49002904D01*
X-20923285Y-49002904D01*
X-20999476Y-48964809D01*
X-21037571Y-48926714D01*
X-21532809Y-46043857D02*
X-21418523Y-46081952D01*
X-21380428Y-46120047D01*
X-21342333Y-46196238D01*
X-21342333Y-46310523D01*
X-21380428Y-46386714D01*
X-21418523Y-46424809D01*
X-21494714Y-46462904D01*
X-21799476Y-46462904D01*
X-21799476Y-45662904D01*
X-21532809Y-45662904D01*
X-21456619Y-45701000D01*
X-21418523Y-45739095D01*
X-21380428Y-45815285D01*
X-21380428Y-45891476D01*
X-21418523Y-45967666D01*
X-21456619Y-46005761D01*
X-21532809Y-46043857D01*
X-21799476Y-46043857D01*
X-20656619Y-45929571D02*
X-20656619Y-46462904D01*
X-20847095Y-45624809D02*
X-21037571Y-46196238D01*
X-20542333Y-46196238D01*
X-21761380Y-43503857D02*
X-21494714Y-43503857D01*
X-21380428Y-43922904D02*
X-21761380Y-43922904D01*
X-21761380Y-43122904D01*
X-21380428Y-43122904D01*
X-20694714Y-43122904D02*
X-20847095Y-43122904D01*
X-20923285Y-43161000D01*
X-20961380Y-43199095D01*
X-21037571Y-43313380D01*
X-21075666Y-43465761D01*
X-21075666Y-43770523D01*
X-21037571Y-43846714D01*
X-20999476Y-43884809D01*
X-20923285Y-43922904D01*
X-20770904Y-43922904D01*
X-20694714Y-43884809D01*
X-20656619Y-43846714D01*
X-20618523Y-43770523D01*
X-20618523Y-43580047D01*
X-20656619Y-43503857D01*
X-20694714Y-43465761D01*
X-20770904Y-43427666D01*
X-20923285Y-43427666D01*
X-20999476Y-43465761D01*
X-21037571Y-43503857D01*
X-21075666Y-43580047D01*
X-21799476Y-41382904D02*
X-21799476Y-40582904D01*
X-21609000Y-40582904D01*
X-21494714Y-40621000D01*
X-21418523Y-40697190D01*
X-21380428Y-40773380D01*
X-21342333Y-40925761D01*
X-21342333Y-41040047D01*
X-21380428Y-41192428D01*
X-21418523Y-41268619D01*
X-21494714Y-41344809D01*
X-21609000Y-41382904D01*
X-21799476Y-41382904D01*
X-21075666Y-40582904D02*
X-20542333Y-40582904D01*
X-20885190Y-41382904D01*
X-21342333Y-38766714D02*
X-21380428Y-38804809D01*
X-21494714Y-38842904D01*
X-21570904Y-38842904D01*
X-21685190Y-38804809D01*
X-21761380Y-38728619D01*
X-21799476Y-38652428D01*
X-21837571Y-38500047D01*
X-21837571Y-38385761D01*
X-21799476Y-38233380D01*
X-21761380Y-38157190D01*
X-21685190Y-38081000D01*
X-21570904Y-38042904D01*
X-21494714Y-38042904D01*
X-21380428Y-38081000D01*
X-21342333Y-38119095D01*
X-20656619Y-38042904D02*
X-20809000Y-38042904D01*
X-20885190Y-38081000D01*
X-20923285Y-38119095D01*
X-20999476Y-38233380D01*
X-21037571Y-38385761D01*
X-21037571Y-38690523D01*
X-20999476Y-38766714D01*
X-20961380Y-38804809D01*
X-20885190Y-38842904D01*
X-20732809Y-38842904D01*
X-20656619Y-38804809D01*
X-20618523Y-38766714D01*
X-20580428Y-38690523D01*
X-20580428Y-38500047D01*
X-20618523Y-38423857D01*
X-20656619Y-38385761D01*
X-20732809Y-38347666D01*
X-20885190Y-38347666D01*
X-20961380Y-38385761D01*
X-20999476Y-38423857D01*
X-21037571Y-38500047D01*
X-21799476Y-36302904D02*
X-21799476Y-35502904D01*
X-21609000Y-35502904D01*
X-21494714Y-35541000D01*
X-21418523Y-35617190D01*
X-21380428Y-35693380D01*
X-21342333Y-35845761D01*
X-21342333Y-35960047D01*
X-21380428Y-36112428D01*
X-21418523Y-36188619D01*
X-21494714Y-36264809D01*
X-21609000Y-36302904D01*
X-21799476Y-36302904D01*
X-20656619Y-35769571D02*
X-20656619Y-36302904D01*
X-20847095Y-35464809D02*
X-21037571Y-36036238D01*
X-20542333Y-36036238D01*
X-21818523Y-25381000D02*
X-21894714Y-25342904D01*
X-22009000Y-25342904D01*
X-22123285Y-25381000D01*
X-22199476Y-25457190D01*
X-22237571Y-25533380D01*
X-22275666Y-25685761D01*
X-22275666Y-25800047D01*
X-22237571Y-25952428D01*
X-22199476Y-26028619D01*
X-22123285Y-26104809D01*
X-22009000Y-26142904D01*
X-21932809Y-26142904D01*
X-21818523Y-26104809D01*
X-21780428Y-26066714D01*
X-21780428Y-25800047D01*
X-21932809Y-25800047D01*
X-21437571Y-26142904D02*
X-21437571Y-25342904D01*
X-20980428Y-26142904D01*
X-20980428Y-25342904D01*
X-20599476Y-26142904D02*
X-20599476Y-25342904D01*
X-20409000Y-25342904D01*
X-20294714Y-25381000D01*
X-20218523Y-25457190D01*
X-20180428Y-25533380D01*
X-20142333Y-25685761D01*
X-20142333Y-25800047D01*
X-20180428Y-25952428D01*
X-20218523Y-26028619D01*
X-20294714Y-26104809D01*
X-20409000Y-26142904D01*
X-20599476Y-26142904D01*
X-21818523Y-27921000D02*
X-21894714Y-27882904D01*
X-22009000Y-27882904D01*
X-22123285Y-27921000D01*
X-22199476Y-27997190D01*
X-22237571Y-28073380D01*
X-22275666Y-28225761D01*
X-22275666Y-28340047D01*
X-22237571Y-28492428D01*
X-22199476Y-28568619D01*
X-22123285Y-28644809D01*
X-22009000Y-28682904D01*
X-21932809Y-28682904D01*
X-21818523Y-28644809D01*
X-21780428Y-28606714D01*
X-21780428Y-28340047D01*
X-21932809Y-28340047D01*
X-21437571Y-28682904D02*
X-21437571Y-27882904D01*
X-20980428Y-28682904D01*
X-20980428Y-27882904D01*
X-20599476Y-28682904D02*
X-20599476Y-27882904D01*
X-20409000Y-27882904D01*
X-20294714Y-27921000D01*
X-20218523Y-27997190D01*
X-20180428Y-28073380D01*
X-20142333Y-28225761D01*
X-20142333Y-28340047D01*
X-20180428Y-28492428D01*
X-20218523Y-28568619D01*
X-20294714Y-28644809D01*
X-20409000Y-28682904D01*
X-20599476Y-28682904D01*
X-21799476Y-31222904D02*
X-21799476Y-30422904D01*
X-21609000Y-30422904D01*
X-21494714Y-30461000D01*
X-21418523Y-30537190D01*
X-21380428Y-30613380D01*
X-21342333Y-30765761D01*
X-21342333Y-30880047D01*
X-21380428Y-31032428D01*
X-21418523Y-31108619D01*
X-21494714Y-31184809D01*
X-21609000Y-31222904D01*
X-21799476Y-31222904D01*
X-20580428Y-31222904D02*
X-21037571Y-31222904D01*
X-20809000Y-31222904D02*
X-20809000Y-30422904D01*
X-20885190Y-30537190D01*
X-20961380Y-30613380D01*
X-21037571Y-30651476D01*
X-21799476Y-33762904D02*
X-21799476Y-32962904D01*
X-21609000Y-32962904D01*
X-21494714Y-33001000D01*
X-21418523Y-33077190D01*
X-21380428Y-33153380D01*
X-21342333Y-33305761D01*
X-21342333Y-33420047D01*
X-21380428Y-33572428D01*
X-21418523Y-33648619D01*
X-21494714Y-33724809D01*
X-21609000Y-33762904D01*
X-21799476Y-33762904D01*
X-20847095Y-32962904D02*
X-20770904Y-32962904D01*
X-20694714Y-33001000D01*
X-20656619Y-33039095D01*
X-20618523Y-33115285D01*
X-20580428Y-33267666D01*
X-20580428Y-33458142D01*
X-20618523Y-33610523D01*
X-20656619Y-33686714D01*
X-20694714Y-33724809D01*
X-20770904Y-33762904D01*
X-20847095Y-33762904D01*
X-20923285Y-33724809D01*
X-20961380Y-33686714D01*
X-20999476Y-33610523D01*
X-21037571Y-33458142D01*
X-21037571Y-33267666D01*
X-20999476Y-33115285D01*
X-20961380Y-33039095D01*
X-20923285Y-33001000D01*
X-20847095Y-32962904D01*
X-21799476Y-23602904D02*
X-21799476Y-22802904D01*
X-21609000Y-22802904D01*
X-21494714Y-22841000D01*
X-21418523Y-22917190D01*
X-21380428Y-22993380D01*
X-21342333Y-23145761D01*
X-21342333Y-23260047D01*
X-21380428Y-23412428D01*
X-21418523Y-23488619D01*
X-21494714Y-23564809D01*
X-21609000Y-23602904D01*
X-21799476Y-23602904D01*
X-21037571Y-22879095D02*
X-20999476Y-22841000D01*
X-20923285Y-22802904D01*
X-20732809Y-22802904D01*
X-20656619Y-22841000D01*
X-20618523Y-22879095D01*
X-20580428Y-22955285D01*
X-20580428Y-23031476D01*
X-20618523Y-23145761D01*
X-21075666Y-23602904D01*
X-20580428Y-23602904D01*
X-21510348Y-20262904D02*
X-21053205Y-20262904D01*
X-21281776Y-21062904D02*
X-21281776Y-20262904D01*
X-20862729Y-20262904D02*
X-20329395Y-21062904D01*
X-20329395Y-20262904D02*
X-20862729Y-21062904D01*
X-19872252Y-20262904D02*
X-19796062Y-20262904D01*
X-19719872Y-20301000D01*
X-19681776Y-20339095D01*
X-19643681Y-20415285D01*
X-19605586Y-20567666D01*
X-19605586Y-20758142D01*
X-19643681Y-20910523D01*
X-19681776Y-20986714D01*
X-19719872Y-21024809D01*
X-19796062Y-21062904D01*
X-19872252Y-21062904D01*
X-19948443Y-21024809D01*
X-19986538Y-20986714D01*
X-20024633Y-20910523D01*
X-20062729Y-20758142D01*
X-20062729Y-20567666D01*
X-20024633Y-20415285D01*
X-19986538Y-20339095D01*
X-19948443Y-20301000D01*
X-19872252Y-20262904D01*
X-18691300Y-20224809D02*
X-19377014Y-21253380D01*
X-18424633Y-21062904D02*
X-18424633Y-20262904D01*
X-18234157Y-20262904D01*
X-18119872Y-20301000D01*
X-18043681Y-20377190D01*
X-18005586Y-20453380D01*
X-17967491Y-20605761D01*
X-17967491Y-20720047D01*
X-18005586Y-20872428D01*
X-18043681Y-20948619D01*
X-18119872Y-21024809D01*
X-18234157Y-21062904D01*
X-18424633Y-21062904D01*
X-17700824Y-20262904D02*
X-17205586Y-20262904D01*
X-17472252Y-20567666D01*
X-17357967Y-20567666D01*
X-17281776Y-20605761D01*
X-17243681Y-20643857D01*
X-17205586Y-20720047D01*
X-17205586Y-20910523D01*
X-17243681Y-20986714D01*
X-17281776Y-21024809D01*
X-17357967Y-21062904D01*
X-17586538Y-21062904D01*
X-17662729Y-21024809D01*
X-17700824Y-20986714D01*
X-13358630Y-63952380D02*
X-13691964Y-63476190D01*
X-13930059Y-63952380D02*
X-13930059Y-62952380D01*
X-13549107Y-62952380D01*
X-13453869Y-63000000D01*
X-13406250Y-63047619D01*
X-13358630Y-63142857D01*
X-13358630Y-63285714D01*
X-13406250Y-63380952D01*
X-13453869Y-63428571D01*
X-13549107Y-63476190D01*
X-13930059Y-63476190D01*
X-12930059Y-63428571D02*
X-12596726Y-63428571D01*
X-12453869Y-63952380D02*
X-12930059Y-63952380D01*
X-12930059Y-62952380D01*
X-12453869Y-62952380D01*
X-12072916Y-63904761D02*
X-11930059Y-63952380D01*
X-11691964Y-63952380D01*
X-11596726Y-63904761D01*
X-11549107Y-63857142D01*
X-11501488Y-63761904D01*
X-11501488Y-63666666D01*
X-11549107Y-63571428D01*
X-11596726Y-63523809D01*
X-11691964Y-63476190D01*
X-11882440Y-63428571D01*
X-11977678Y-63380952D01*
X-12025297Y-63333333D01*
X-12072916Y-63238095D01*
X-12072916Y-63142857D01*
X-12025297Y-63047619D01*
X-11977678Y-63000000D01*
X-11882440Y-62952380D01*
X-11644345Y-62952380D01*
X-11501488Y-63000000D01*
X-11072916Y-63428571D02*
X-10739583Y-63428571D01*
X-10596726Y-63952380D02*
X-11072916Y-63952380D01*
X-11072916Y-62952380D01*
X-10596726Y-62952380D01*
X-10311011Y-62952380D02*
X-9739583Y-62952380D01*
X-10025297Y-63952380D02*
X-10025297Y-62952380D01*
X-17758333Y-85047916D02*
X-18091666Y-85281250D01*
X-17758333Y-85447916D02*
X-18458333Y-85447916D01*
X-18458333Y-85181250D01*
X-18425000Y-85114583D01*
X-18391666Y-85081250D01*
X-18325000Y-85047916D01*
X-18225000Y-85047916D01*
X-18158333Y-85081250D01*
X-18125000Y-85114583D01*
X-18091666Y-85181250D01*
X-18091666Y-85447916D01*
X-17758333Y-84381250D02*
X-17758333Y-84781250D01*
X-17758333Y-84581250D02*
X-18458333Y-84581250D01*
X-18358333Y-84647916D01*
X-18291666Y-84714583D01*
X-18258333Y-84781250D01*
X-16525000Y-86331250D02*
X-16525000Y-86797916D01*
X-16691666Y-86064583D02*
X-16858333Y-86564583D01*
X-16425000Y-86564583D01*
X-16158333Y-86731250D02*
X-16125000Y-86764583D01*
X-16158333Y-86797916D01*
X-16191666Y-86764583D01*
X-16158333Y-86731250D01*
X-16158333Y-86797916D01*
X-15891666Y-86097916D02*
X-15425000Y-86097916D01*
X-15725000Y-86797916D01*
X-15158333Y-86797916D02*
X-15158333Y-86097916D01*
X-15091666Y-86531250D02*
X-14891666Y-86797916D01*
X-14891666Y-86331250D02*
X-15158333Y-86597916D01*
X-64253869Y-120276785D02*
X-65253869Y-120276785D01*
X-65253869Y-120038690D01*
X-65206250Y-119895833D01*
X-65111011Y-119800595D01*
X-65015773Y-119752976D01*
X-64825297Y-119705357D01*
X-64682440Y-119705357D01*
X-64491964Y-119752976D01*
X-64396726Y-119800595D01*
X-64301488Y-119895833D01*
X-64253869Y-120038690D01*
X-64253869Y-120276785D01*
X-64920535Y-118848214D02*
X-64253869Y-118848214D01*
X-65301488Y-119086309D02*
X-64587202Y-119324404D01*
X-64587202Y-118705357D01*
X-64920535Y-117895833D02*
X-64253869Y-117895833D01*
X-65301488Y-118133928D02*
X-64587202Y-118372023D01*
X-64587202Y-117752976D01*
X-88526785Y-110402380D02*
X-88526785Y-109402380D01*
X-88288690Y-109402380D01*
X-88145833Y-109450000D01*
X-88050595Y-109545238D01*
X-88002976Y-109640476D01*
X-87955357Y-109830952D01*
X-87955357Y-109973809D01*
X-88002976Y-110164285D01*
X-88050595Y-110259523D01*
X-88145833Y-110354761D01*
X-88288690Y-110402380D01*
X-88526785Y-110402380D01*
X-87098214Y-109735714D02*
X-87098214Y-110402380D01*
X-87336309Y-109354761D02*
X-87574404Y-110069047D01*
X-86955357Y-110069047D01*
X-86669642Y-109402380D02*
X-86050595Y-109402380D01*
X-86383928Y-109783333D01*
X-86241071Y-109783333D01*
X-86145833Y-109830952D01*
X-86098214Y-109878571D01*
X-86050595Y-109973809D01*
X-86050595Y-110211904D01*
X-86098214Y-110307142D01*
X-86145833Y-110354761D01*
X-86241071Y-110402380D01*
X-86526785Y-110402380D01*
X-86622023Y-110354761D01*
X-86669642Y-110307142D01*
X-92828869Y-119483035D02*
X-93828869Y-119483035D01*
X-93828869Y-119244940D01*
X-93781250Y-119102083D01*
X-93686011Y-119006845D01*
X-93590773Y-118959226D01*
X-93400297Y-118911607D01*
X-93257440Y-118911607D01*
X-93066964Y-118959226D01*
X-92971726Y-119006845D01*
X-92876488Y-119102083D01*
X-92828869Y-119244940D01*
X-92828869Y-119483035D01*
X-93495535Y-118054464D02*
X-92828869Y-118054464D01*
X-93876488Y-118292559D02*
X-93162202Y-118530654D01*
X-93162202Y-117911607D01*
X-93733630Y-117578273D02*
X-93781250Y-117530654D01*
X-93828869Y-117435416D01*
X-93828869Y-117197321D01*
X-93781250Y-117102083D01*
X-93733630Y-117054464D01*
X-93638392Y-117006845D01*
X-93543154Y-117006845D01*
X-93400297Y-117054464D01*
X-92828869Y-117625892D01*
X-92828869Y-117006845D01*
X-116641369Y-119483035D02*
X-117641369Y-119483035D01*
X-117641369Y-119244940D01*
X-117593750Y-119102083D01*
X-117498511Y-119006845D01*
X-117403273Y-118959226D01*
X-117212797Y-118911607D01*
X-117069940Y-118911607D01*
X-116879464Y-118959226D01*
X-116784226Y-119006845D01*
X-116688988Y-119102083D01*
X-116641369Y-119244940D01*
X-116641369Y-119483035D01*
X-117308035Y-118054464D02*
X-116641369Y-118054464D01*
X-117688988Y-118292559D02*
X-116974702Y-118530654D01*
X-116974702Y-117911607D01*
X-116641369Y-117006845D02*
X-116641369Y-117578273D01*
X-116641369Y-117292559D02*
X-117641369Y-117292559D01*
X-117498511Y-117387797D01*
X-117403273Y-117483035D01*
X-117355654Y-117578273D01*
X-140453869Y-119483035D02*
X-141453869Y-119483035D01*
X-141453869Y-119244940D01*
X-141406250Y-119102083D01*
X-141311011Y-119006845D01*
X-141215773Y-118959226D01*
X-141025297Y-118911607D01*
X-140882440Y-118911607D01*
X-140691964Y-118959226D01*
X-140596726Y-119006845D01*
X-140501488Y-119102083D01*
X-140453869Y-119244940D01*
X-140453869Y-119483035D01*
X-141120535Y-118054464D02*
X-140453869Y-118054464D01*
X-141501488Y-118292559D02*
X-140787202Y-118530654D01*
X-140787202Y-117911607D01*
X-141453869Y-117340178D02*
X-141453869Y-117244940D01*
X-141406250Y-117149702D01*
X-141358630Y-117102083D01*
X-141263392Y-117054464D01*
X-141072916Y-117006845D01*
X-140834821Y-117006845D01*
X-140644345Y-117054464D01*
X-140549107Y-117102083D01*
X-140501488Y-117149702D01*
X-140453869Y-117244940D01*
X-140453869Y-117340178D01*
X-140501488Y-117435416D01*
X-140549107Y-117483035D01*
X-140644345Y-117530654D01*
X-140834821Y-117578273D01*
X-141072916Y-117578273D01*
X-141263392Y-117530654D01*
X-141358630Y-117483035D01*
X-141406250Y-117435416D01*
X-141453869Y-117340178D01*
X-37507420Y-94257792D02*
X-38373445Y-93757792D01*
X-38254398Y-93551596D01*
X-38141730Y-93451687D01*
X-38011632Y-93416828D01*
X-37905344Y-93423208D01*
X-37716577Y-93477206D01*
X-37592859Y-93548635D01*
X-37451712Y-93685112D01*
X-37393043Y-93773971D01*
X-37358183Y-93904068D01*
X-37388372Y-94051596D01*
X-37507420Y-94257792D01*
X-37921064Y-92974245D02*
X-37611541Y-92438134D01*
X-37448293Y-92917286D01*
X-37376864Y-92793568D01*
X-37288006Y-92734899D01*
X-37222957Y-92717469D01*
X-37116669Y-92723849D01*
X-36910472Y-92842896D01*
X-36851803Y-92931755D01*
X-36834374Y-92996804D01*
X-36840753Y-93103092D01*
X-36983610Y-93350528D01*
X-37072469Y-93409197D01*
X-37137518Y-93426626D01*
X-37182969Y-91695827D02*
X-37278207Y-91860784D01*
X-37284587Y-91967072D01*
X-37267157Y-92032121D01*
X-37191058Y-92186028D01*
X-37049911Y-92322506D01*
X-36719996Y-92512982D01*
X-36613708Y-92519362D01*
X-36548659Y-92501932D01*
X-36459801Y-92443263D01*
X-36364563Y-92278306D01*
X-36358183Y-92172017D01*
X-36375613Y-92106969D01*
X-36434282Y-92018110D01*
X-36640478Y-91899063D01*
X-36746767Y-91892683D01*
X-36811815Y-91910113D01*
X-36900674Y-91968782D01*
X-36995912Y-92133739D01*
X-37002292Y-92240027D01*
X-36984862Y-92305076D01*
X-36926193Y-92393934D01*
X-50426785Y-93733630D02*
X-50426785Y-92733630D01*
X-50188690Y-92733630D01*
X-50045833Y-92781250D01*
X-49950595Y-92876488D01*
X-49902976Y-92971726D01*
X-49855357Y-93162202D01*
X-49855357Y-93305059D01*
X-49902976Y-93495535D01*
X-49950595Y-93590773D01*
X-50045833Y-93686011D01*
X-50188690Y-93733630D01*
X-50426785Y-93733630D01*
X-49522023Y-92733630D02*
X-48902976Y-92733630D01*
X-49236309Y-93114583D01*
X-49093452Y-93114583D01*
X-48998214Y-93162202D01*
X-48950595Y-93209821D01*
X-48902976Y-93305059D01*
X-48902976Y-93543154D01*
X-48950595Y-93638392D01*
X-48998214Y-93686011D01*
X-49093452Y-93733630D01*
X-49379166Y-93733630D01*
X-49474404Y-93686011D01*
X-49522023Y-93638392D01*
X-47998214Y-92733630D02*
X-48474404Y-92733630D01*
X-48522023Y-93209821D01*
X-48474404Y-93162202D01*
X-48379166Y-93114583D01*
X-48141071Y-93114583D01*
X-48045833Y-93162202D01*
X-47998214Y-93209821D01*
X-47950595Y-93305059D01*
X-47950595Y-93543154D01*
X-47998214Y-93638392D01*
X-48045833Y-93686011D01*
X-48141071Y-93733630D01*
X-48379166Y-93733630D01*
X-48474404Y-93686011D01*
X-48522023Y-93638392D01*
X-69476785Y-92939880D02*
X-69476785Y-91939880D01*
X-69238690Y-91939880D01*
X-69095833Y-91987500D01*
X-69000595Y-92082738D01*
X-68952976Y-92177976D01*
X-68905357Y-92368452D01*
X-68905357Y-92511309D01*
X-68952976Y-92701785D01*
X-69000595Y-92797023D01*
X-69095833Y-92892261D01*
X-69238690Y-92939880D01*
X-69476785Y-92939880D01*
X-68572023Y-91939880D02*
X-67952976Y-91939880D01*
X-68286309Y-92320833D01*
X-68143452Y-92320833D01*
X-68048214Y-92368452D01*
X-68000595Y-92416071D01*
X-67952976Y-92511309D01*
X-67952976Y-92749404D01*
X-68000595Y-92844642D01*
X-68048214Y-92892261D01*
X-68143452Y-92939880D01*
X-68429166Y-92939880D01*
X-68524404Y-92892261D01*
X-68572023Y-92844642D01*
X-67095833Y-92273214D02*
X-67095833Y-92939880D01*
X-67333928Y-91892261D02*
X-67572023Y-92606547D01*
X-66952976Y-92606547D01*
X-88526785Y-84208630D02*
X-88526785Y-83208630D01*
X-88288690Y-83208630D01*
X-88145833Y-83256250D01*
X-88050595Y-83351488D01*
X-88002976Y-83446726D01*
X-87955357Y-83637202D01*
X-87955357Y-83780059D01*
X-88002976Y-83970535D01*
X-88050595Y-84065773D01*
X-88145833Y-84161011D01*
X-88288690Y-84208630D01*
X-88526785Y-84208630D01*
X-87622023Y-83208630D02*
X-87002976Y-83208630D01*
X-87336309Y-83589583D01*
X-87193452Y-83589583D01*
X-87098214Y-83637202D01*
X-87050595Y-83684821D01*
X-87002976Y-83780059D01*
X-87002976Y-84018154D01*
X-87050595Y-84113392D01*
X-87098214Y-84161011D01*
X-87193452Y-84208630D01*
X-87479166Y-84208630D01*
X-87574404Y-84161011D01*
X-87622023Y-84113392D01*
X-86669642Y-83208630D02*
X-86050595Y-83208630D01*
X-86383928Y-83589583D01*
X-86241071Y-83589583D01*
X-86145833Y-83637202D01*
X-86098214Y-83684821D01*
X-86050595Y-83780059D01*
X-86050595Y-84018154D01*
X-86098214Y-84113392D01*
X-86145833Y-84161011D01*
X-86241071Y-84208630D01*
X-86526785Y-84208630D01*
X-86622023Y-84161011D01*
X-86669642Y-84113392D01*
X-107576785Y-91352380D02*
X-107576785Y-90352380D01*
X-107338690Y-90352380D01*
X-107195833Y-90400000D01*
X-107100595Y-90495238D01*
X-107052976Y-90590476D01*
X-107005357Y-90780952D01*
X-107005357Y-90923809D01*
X-107052976Y-91114285D01*
X-107100595Y-91209523D01*
X-107195833Y-91304761D01*
X-107338690Y-91352380D01*
X-107576785Y-91352380D01*
X-106672023Y-90352380D02*
X-106052976Y-90352380D01*
X-106386309Y-90733333D01*
X-106243452Y-90733333D01*
X-106148214Y-90780952D01*
X-106100595Y-90828571D01*
X-106052976Y-90923809D01*
X-106052976Y-91161904D01*
X-106100595Y-91257142D01*
X-106148214Y-91304761D01*
X-106243452Y-91352380D01*
X-106529166Y-91352380D01*
X-106624404Y-91304761D01*
X-106672023Y-91257142D01*
X-105672023Y-90447619D02*
X-105624404Y-90400000D01*
X-105529166Y-90352380D01*
X-105291071Y-90352380D01*
X-105195833Y-90400000D01*
X-105148214Y-90447619D01*
X-105100595Y-90542857D01*
X-105100595Y-90638095D01*
X-105148214Y-90780952D01*
X-105719642Y-91352380D01*
X-105100595Y-91352380D01*
X-126626785Y-110402380D02*
X-126626785Y-109402380D01*
X-126388690Y-109402380D01*
X-126245833Y-109450000D01*
X-126150595Y-109545238D01*
X-126102976Y-109640476D01*
X-126055357Y-109830952D01*
X-126055357Y-109973809D01*
X-126102976Y-110164285D01*
X-126150595Y-110259523D01*
X-126245833Y-110354761D01*
X-126388690Y-110402380D01*
X-126626785Y-110402380D01*
X-125722023Y-109402380D02*
X-125102976Y-109402380D01*
X-125436309Y-109783333D01*
X-125293452Y-109783333D01*
X-125198214Y-109830952D01*
X-125150595Y-109878571D01*
X-125102976Y-109973809D01*
X-125102976Y-110211904D01*
X-125150595Y-110307142D01*
X-125198214Y-110354761D01*
X-125293452Y-110402380D01*
X-125579166Y-110402380D01*
X-125674404Y-110354761D01*
X-125722023Y-110307142D01*
X-124150595Y-110402380D02*
X-124722023Y-110402380D01*
X-124436309Y-110402380D02*
X-124436309Y-109402380D01*
X-124531547Y-109545238D01*
X-124626785Y-109640476D01*
X-124722023Y-109688095D01*
X-145676785Y-110402380D02*
X-145676785Y-109402380D01*
X-145438690Y-109402380D01*
X-145295833Y-109450000D01*
X-145200595Y-109545238D01*
X-145152976Y-109640476D01*
X-145105357Y-109830952D01*
X-145105357Y-109973809D01*
X-145152976Y-110164285D01*
X-145200595Y-110259523D01*
X-145295833Y-110354761D01*
X-145438690Y-110402380D01*
X-145676785Y-110402380D01*
X-144772023Y-109402380D02*
X-144152976Y-109402380D01*
X-144486309Y-109783333D01*
X-144343452Y-109783333D01*
X-144248214Y-109830952D01*
X-144200595Y-109878571D01*
X-144152976Y-109973809D01*
X-144152976Y-110211904D01*
X-144200595Y-110307142D01*
X-144248214Y-110354761D01*
X-144343452Y-110402380D01*
X-144629166Y-110402380D01*
X-144724404Y-110354761D01*
X-144772023Y-110307142D01*
X-143533928Y-109402380D02*
X-143438690Y-109402380D01*
X-143343452Y-109450000D01*
X-143295833Y-109497619D01*
X-143248214Y-109592857D01*
X-143200595Y-109783333D01*
X-143200595Y-110021428D01*
X-143248214Y-110211904D01*
X-143295833Y-110307142D01*
X-143343452Y-110354761D01*
X-143438690Y-110402380D01*
X-143533928Y-110402380D01*
X-143629166Y-110354761D01*
X-143676785Y-110307142D01*
X-143724404Y-110211904D01*
X-143772023Y-110021428D01*
X-143772023Y-109783333D01*
X-143724404Y-109592857D01*
X-143676785Y-109497619D01*
X-143629166Y-109450000D01*
X-143533928Y-109402380D01*
X-44870535Y-64364880D02*
X-44870535Y-63364880D01*
X-44632440Y-63364880D01*
X-44489583Y-63412500D01*
X-44394345Y-63507738D01*
X-44346726Y-63602976D01*
X-44299107Y-63793452D01*
X-44299107Y-63936309D01*
X-44346726Y-64126785D01*
X-44394345Y-64222023D01*
X-44489583Y-64317261D01*
X-44632440Y-64364880D01*
X-44870535Y-64364880D01*
X-43918154Y-63460119D02*
X-43870535Y-63412500D01*
X-43775297Y-63364880D01*
X-43537202Y-63364880D01*
X-43441964Y-63412500D01*
X-43394345Y-63460119D01*
X-43346726Y-63555357D01*
X-43346726Y-63650595D01*
X-43394345Y-63793452D01*
X-43965773Y-64364880D01*
X-43346726Y-64364880D01*
X-42489583Y-63364880D02*
X-42680059Y-63364880D01*
X-42775297Y-63412500D01*
X-42822916Y-63460119D01*
X-42918154Y-63602976D01*
X-42965773Y-63793452D01*
X-42965773Y-64174404D01*
X-42918154Y-64269642D01*
X-42870535Y-64317261D01*
X-42775297Y-64364880D01*
X-42584821Y-64364880D01*
X-42489583Y-64317261D01*
X-42441964Y-64269642D01*
X-42394345Y-64174404D01*
X-42394345Y-63936309D01*
X-42441964Y-63841071D01*
X-42489583Y-63793452D01*
X-42584821Y-63745833D01*
X-42775297Y-63745833D01*
X-42870535Y-63793452D01*
X-42918154Y-63841071D01*
X-42965773Y-63936309D01*
X-50426785Y-74683630D02*
X-50426785Y-73683630D01*
X-50188690Y-73683630D01*
X-50045833Y-73731250D01*
X-49950595Y-73826488D01*
X-49902976Y-73921726D01*
X-49855357Y-74112202D01*
X-49855357Y-74255059D01*
X-49902976Y-74445535D01*
X-49950595Y-74540773D01*
X-50045833Y-74636011D01*
X-50188690Y-74683630D01*
X-50426785Y-74683630D01*
X-49474404Y-73778869D02*
X-49426785Y-73731250D01*
X-49331547Y-73683630D01*
X-49093452Y-73683630D01*
X-48998214Y-73731250D01*
X-48950595Y-73778869D01*
X-48902976Y-73874107D01*
X-48902976Y-73969345D01*
X-48950595Y-74112202D01*
X-49522023Y-74683630D01*
X-48902976Y-74683630D01*
X-47998214Y-73683630D02*
X-48474404Y-73683630D01*
X-48522023Y-74159821D01*
X-48474404Y-74112202D01*
X-48379166Y-74064583D01*
X-48141071Y-74064583D01*
X-48045833Y-74112202D01*
X-47998214Y-74159821D01*
X-47950595Y-74255059D01*
X-47950595Y-74493154D01*
X-47998214Y-74588392D01*
X-48045833Y-74636011D01*
X-48141071Y-74683630D01*
X-48379166Y-74683630D01*
X-48474404Y-74636011D01*
X-48522023Y-74588392D01*
X-69476785Y-73889880D02*
X-69476785Y-72889880D01*
X-69238690Y-72889880D01*
X-69095833Y-72937500D01*
X-69000595Y-73032738D01*
X-68952976Y-73127976D01*
X-68905357Y-73318452D01*
X-68905357Y-73461309D01*
X-68952976Y-73651785D01*
X-69000595Y-73747023D01*
X-69095833Y-73842261D01*
X-69238690Y-73889880D01*
X-69476785Y-73889880D01*
X-68524404Y-72985119D02*
X-68476785Y-72937500D01*
X-68381547Y-72889880D01*
X-68143452Y-72889880D01*
X-68048214Y-72937500D01*
X-68000595Y-72985119D01*
X-67952976Y-73080357D01*
X-67952976Y-73175595D01*
X-68000595Y-73318452D01*
X-68572023Y-73889880D01*
X-67952976Y-73889880D01*
X-67095833Y-73223214D02*
X-67095833Y-73889880D01*
X-67333928Y-72842261D02*
X-67572023Y-73556547D01*
X-66952976Y-73556547D01*
X-88526785Y-65158630D02*
X-88526785Y-64158630D01*
X-88288690Y-64158630D01*
X-88145833Y-64206250D01*
X-88050595Y-64301488D01*
X-88002976Y-64396726D01*
X-87955357Y-64587202D01*
X-87955357Y-64730059D01*
X-88002976Y-64920535D01*
X-88050595Y-65015773D01*
X-88145833Y-65111011D01*
X-88288690Y-65158630D01*
X-88526785Y-65158630D01*
X-87574404Y-64253869D02*
X-87526785Y-64206250D01*
X-87431547Y-64158630D01*
X-87193452Y-64158630D01*
X-87098214Y-64206250D01*
X-87050595Y-64253869D01*
X-87002976Y-64349107D01*
X-87002976Y-64444345D01*
X-87050595Y-64587202D01*
X-87622023Y-65158630D01*
X-87002976Y-65158630D01*
X-86669642Y-64158630D02*
X-86050595Y-64158630D01*
X-86383928Y-64539583D01*
X-86241071Y-64539583D01*
X-86145833Y-64587202D01*
X-86098214Y-64634821D01*
X-86050595Y-64730059D01*
X-86050595Y-64968154D01*
X-86098214Y-65063392D01*
X-86145833Y-65111011D01*
X-86241071Y-65158630D01*
X-86526785Y-65158630D01*
X-86622023Y-65111011D01*
X-86669642Y-65063392D01*
X-107576785Y-72302380D02*
X-107576785Y-71302380D01*
X-107338690Y-71302380D01*
X-107195833Y-71350000D01*
X-107100595Y-71445238D01*
X-107052976Y-71540476D01*
X-107005357Y-71730952D01*
X-107005357Y-71873809D01*
X-107052976Y-72064285D01*
X-107100595Y-72159523D01*
X-107195833Y-72254761D01*
X-107338690Y-72302380D01*
X-107576785Y-72302380D01*
X-106624404Y-71397619D02*
X-106576785Y-71350000D01*
X-106481547Y-71302380D01*
X-106243452Y-71302380D01*
X-106148214Y-71350000D01*
X-106100595Y-71397619D01*
X-106052976Y-71492857D01*
X-106052976Y-71588095D01*
X-106100595Y-71730952D01*
X-106672023Y-72302380D01*
X-106052976Y-72302380D01*
X-105672023Y-71397619D02*
X-105624404Y-71350000D01*
X-105529166Y-71302380D01*
X-105291071Y-71302380D01*
X-105195833Y-71350000D01*
X-105148214Y-71397619D01*
X-105100595Y-71492857D01*
X-105100595Y-71588095D01*
X-105148214Y-71730952D01*
X-105719642Y-72302380D01*
X-105100595Y-72302380D01*
X-126626785Y-91352380D02*
X-126626785Y-90352380D01*
X-126388690Y-90352380D01*
X-126245833Y-90400000D01*
X-126150595Y-90495238D01*
X-126102976Y-90590476D01*
X-126055357Y-90780952D01*
X-126055357Y-90923809D01*
X-126102976Y-91114285D01*
X-126150595Y-91209523D01*
X-126245833Y-91304761D01*
X-126388690Y-91352380D01*
X-126626785Y-91352380D01*
X-125674404Y-90447619D02*
X-125626785Y-90400000D01*
X-125531547Y-90352380D01*
X-125293452Y-90352380D01*
X-125198214Y-90400000D01*
X-125150595Y-90447619D01*
X-125102976Y-90542857D01*
X-125102976Y-90638095D01*
X-125150595Y-90780952D01*
X-125722023Y-91352380D01*
X-125102976Y-91352380D01*
X-124150595Y-91352380D02*
X-124722023Y-91352380D01*
X-124436309Y-91352380D02*
X-124436309Y-90352380D01*
X-124531547Y-90495238D01*
X-124626785Y-90590476D01*
X-124722023Y-90638095D01*
X-145676785Y-91352380D02*
X-145676785Y-90352380D01*
X-145438690Y-90352380D01*
X-145295833Y-90400000D01*
X-145200595Y-90495238D01*
X-145152976Y-90590476D01*
X-145105357Y-90780952D01*
X-145105357Y-90923809D01*
X-145152976Y-91114285D01*
X-145200595Y-91209523D01*
X-145295833Y-91304761D01*
X-145438690Y-91352380D01*
X-145676785Y-91352380D01*
X-144724404Y-90447619D02*
X-144676785Y-90400000D01*
X-144581547Y-90352380D01*
X-144343452Y-90352380D01*
X-144248214Y-90400000D01*
X-144200595Y-90447619D01*
X-144152976Y-90542857D01*
X-144152976Y-90638095D01*
X-144200595Y-90780952D01*
X-144772023Y-91352380D01*
X-144152976Y-91352380D01*
X-143533928Y-90352380D02*
X-143438690Y-90352380D01*
X-143343452Y-90400000D01*
X-143295833Y-90447619D01*
X-143248214Y-90542857D01*
X-143200595Y-90733333D01*
X-143200595Y-90971428D01*
X-143248214Y-91161904D01*
X-143295833Y-91257142D01*
X-143343452Y-91304761D01*
X-143438690Y-91352380D01*
X-143533928Y-91352380D01*
X-143629166Y-91304761D01*
X-143676785Y-91257142D01*
X-143724404Y-91161904D01*
X-143772023Y-90971428D01*
X-143772023Y-90733333D01*
X-143724404Y-90542857D01*
X-143676785Y-90447619D01*
X-143629166Y-90400000D01*
X-143533928Y-90352380D01*
X-50426785Y-55633630D02*
X-50426785Y-54633630D01*
X-50188690Y-54633630D01*
X-50045833Y-54681250D01*
X-49950595Y-54776488D01*
X-49902976Y-54871726D01*
X-49855357Y-55062202D01*
X-49855357Y-55205059D01*
X-49902976Y-55395535D01*
X-49950595Y-55490773D01*
X-50045833Y-55586011D01*
X-50188690Y-55633630D01*
X-50426785Y-55633630D01*
X-48902976Y-55633630D02*
X-49474404Y-55633630D01*
X-49188690Y-55633630D02*
X-49188690Y-54633630D01*
X-49283928Y-54776488D01*
X-49379166Y-54871726D01*
X-49474404Y-54919345D01*
X-47998214Y-54633630D02*
X-48474404Y-54633630D01*
X-48522023Y-55109821D01*
X-48474404Y-55062202D01*
X-48379166Y-55014583D01*
X-48141071Y-55014583D01*
X-48045833Y-55062202D01*
X-47998214Y-55109821D01*
X-47950595Y-55205059D01*
X-47950595Y-55443154D01*
X-47998214Y-55538392D01*
X-48045833Y-55586011D01*
X-48141071Y-55633630D01*
X-48379166Y-55633630D01*
X-48474404Y-55586011D01*
X-48522023Y-55538392D01*
X-69476785Y-54839880D02*
X-69476785Y-53839880D01*
X-69238690Y-53839880D01*
X-69095833Y-53887500D01*
X-69000595Y-53982738D01*
X-68952976Y-54077976D01*
X-68905357Y-54268452D01*
X-68905357Y-54411309D01*
X-68952976Y-54601785D01*
X-69000595Y-54697023D01*
X-69095833Y-54792261D01*
X-69238690Y-54839880D01*
X-69476785Y-54839880D01*
X-67952976Y-54839880D02*
X-68524404Y-54839880D01*
X-68238690Y-54839880D02*
X-68238690Y-53839880D01*
X-68333928Y-53982738D01*
X-68429166Y-54077976D01*
X-68524404Y-54125595D01*
X-67095833Y-54173214D02*
X-67095833Y-54839880D01*
X-67333928Y-53792261D02*
X-67572023Y-54506547D01*
X-66952976Y-54506547D01*
X-88526785Y-46108630D02*
X-88526785Y-45108630D01*
X-88288690Y-45108630D01*
X-88145833Y-45156250D01*
X-88050595Y-45251488D01*
X-88002976Y-45346726D01*
X-87955357Y-45537202D01*
X-87955357Y-45680059D01*
X-88002976Y-45870535D01*
X-88050595Y-45965773D01*
X-88145833Y-46061011D01*
X-88288690Y-46108630D01*
X-88526785Y-46108630D01*
X-87002976Y-46108630D02*
X-87574404Y-46108630D01*
X-87288690Y-46108630D02*
X-87288690Y-45108630D01*
X-87383928Y-45251488D01*
X-87479166Y-45346726D01*
X-87574404Y-45394345D01*
X-86669642Y-45108630D02*
X-86050595Y-45108630D01*
X-86383928Y-45489583D01*
X-86241071Y-45489583D01*
X-86145833Y-45537202D01*
X-86098214Y-45584821D01*
X-86050595Y-45680059D01*
X-86050595Y-45918154D01*
X-86098214Y-46013392D01*
X-86145833Y-46061011D01*
X-86241071Y-46108630D01*
X-86526785Y-46108630D01*
X-86622023Y-46061011D01*
X-86669642Y-46013392D01*
X-107576785Y-53252380D02*
X-107576785Y-52252380D01*
X-107338690Y-52252380D01*
X-107195833Y-52300000D01*
X-107100595Y-52395238D01*
X-107052976Y-52490476D01*
X-107005357Y-52680952D01*
X-107005357Y-52823809D01*
X-107052976Y-53014285D01*
X-107100595Y-53109523D01*
X-107195833Y-53204761D01*
X-107338690Y-53252380D01*
X-107576785Y-53252380D01*
X-106052976Y-53252380D02*
X-106624404Y-53252380D01*
X-106338690Y-53252380D02*
X-106338690Y-52252380D01*
X-106433928Y-52395238D01*
X-106529166Y-52490476D01*
X-106624404Y-52538095D01*
X-105672023Y-52347619D02*
X-105624404Y-52300000D01*
X-105529166Y-52252380D01*
X-105291071Y-52252380D01*
X-105195833Y-52300000D01*
X-105148214Y-52347619D01*
X-105100595Y-52442857D01*
X-105100595Y-52538095D01*
X-105148214Y-52680952D01*
X-105719642Y-53252380D01*
X-105100595Y-53252380D01*
X-126626785Y-72302380D02*
X-126626785Y-71302380D01*
X-126388690Y-71302380D01*
X-126245833Y-71350000D01*
X-126150595Y-71445238D01*
X-126102976Y-71540476D01*
X-126055357Y-71730952D01*
X-126055357Y-71873809D01*
X-126102976Y-72064285D01*
X-126150595Y-72159523D01*
X-126245833Y-72254761D01*
X-126388690Y-72302380D01*
X-126626785Y-72302380D01*
X-125102976Y-72302380D02*
X-125674404Y-72302380D01*
X-125388690Y-72302380D02*
X-125388690Y-71302380D01*
X-125483928Y-71445238D01*
X-125579166Y-71540476D01*
X-125674404Y-71588095D01*
X-124150595Y-72302380D02*
X-124722023Y-72302380D01*
X-124436309Y-72302380D02*
X-124436309Y-71302380D01*
X-124531547Y-71445238D01*
X-124626785Y-71540476D01*
X-124722023Y-71588095D01*
X-145676785Y-72302380D02*
X-145676785Y-71302380D01*
X-145438690Y-71302380D01*
X-145295833Y-71350000D01*
X-145200595Y-71445238D01*
X-145152976Y-71540476D01*
X-145105357Y-71730952D01*
X-145105357Y-71873809D01*
X-145152976Y-72064285D01*
X-145200595Y-72159523D01*
X-145295833Y-72254761D01*
X-145438690Y-72302380D01*
X-145676785Y-72302380D01*
X-144152976Y-72302380D02*
X-144724404Y-72302380D01*
X-144438690Y-72302380D02*
X-144438690Y-71302380D01*
X-144533928Y-71445238D01*
X-144629166Y-71540476D01*
X-144724404Y-71588095D01*
X-143533928Y-71302380D02*
X-143438690Y-71302380D01*
X-143343452Y-71350000D01*
X-143295833Y-71397619D01*
X-143248214Y-71492857D01*
X-143200595Y-71683333D01*
X-143200595Y-71921428D01*
X-143248214Y-72111904D01*
X-143295833Y-72207142D01*
X-143343452Y-72254761D01*
X-143438690Y-72302380D01*
X-143533928Y-72302380D01*
X-143629166Y-72254761D01*
X-143676785Y-72207142D01*
X-143724404Y-72111904D01*
X-143772023Y-71921428D01*
X-143772023Y-71683333D01*
X-143724404Y-71492857D01*
X-143676785Y-71397619D01*
X-143629166Y-71350000D01*
X-143533928Y-71302380D01*
X-31376785Y-36583630D02*
X-31376785Y-35583630D01*
X-31138690Y-35583630D01*
X-30995833Y-35631250D01*
X-30900595Y-35726488D01*
X-30852976Y-35821726D01*
X-30805357Y-36012202D01*
X-30805357Y-36155059D01*
X-30852976Y-36345535D01*
X-30900595Y-36440773D01*
X-30995833Y-36536011D01*
X-31138690Y-36583630D01*
X-31376785Y-36583630D01*
X-30186309Y-35583630D02*
X-30091071Y-35583630D01*
X-29995833Y-35631250D01*
X-29948214Y-35678869D01*
X-29900595Y-35774107D01*
X-29852976Y-35964583D01*
X-29852976Y-36202678D01*
X-29900595Y-36393154D01*
X-29948214Y-36488392D01*
X-29995833Y-36536011D01*
X-30091071Y-36583630D01*
X-30186309Y-36583630D01*
X-30281547Y-36536011D01*
X-30329166Y-36488392D01*
X-30376785Y-36393154D01*
X-30424404Y-36202678D01*
X-30424404Y-35964583D01*
X-30376785Y-35774107D01*
X-30329166Y-35678869D01*
X-30281547Y-35631250D01*
X-30186309Y-35583630D01*
X-28995833Y-35583630D02*
X-29186309Y-35583630D01*
X-29281547Y-35631250D01*
X-29329166Y-35678869D01*
X-29424404Y-35821726D01*
X-29472023Y-36012202D01*
X-29472023Y-36393154D01*
X-29424404Y-36488392D01*
X-29376785Y-36536011D01*
X-29281547Y-36583630D01*
X-29091071Y-36583630D01*
X-28995833Y-36536011D01*
X-28948214Y-36488392D01*
X-28900595Y-36393154D01*
X-28900595Y-36155059D01*
X-28948214Y-36059821D01*
X-28995833Y-36012202D01*
X-29091071Y-35964583D01*
X-29281547Y-35964583D01*
X-29376785Y-36012202D01*
X-29424404Y-36059821D01*
X-29472023Y-36155059D01*
X-50426785Y-36583630D02*
X-50426785Y-35583630D01*
X-50188690Y-35583630D01*
X-50045833Y-35631250D01*
X-49950595Y-35726488D01*
X-49902976Y-35821726D01*
X-49855357Y-36012202D01*
X-49855357Y-36155059D01*
X-49902976Y-36345535D01*
X-49950595Y-36440773D01*
X-50045833Y-36536011D01*
X-50188690Y-36583630D01*
X-50426785Y-36583630D01*
X-49236309Y-35583630D02*
X-49141071Y-35583630D01*
X-49045833Y-35631250D01*
X-48998214Y-35678869D01*
X-48950595Y-35774107D01*
X-48902976Y-35964583D01*
X-48902976Y-36202678D01*
X-48950595Y-36393154D01*
X-48998214Y-36488392D01*
X-49045833Y-36536011D01*
X-49141071Y-36583630D01*
X-49236309Y-36583630D01*
X-49331547Y-36536011D01*
X-49379166Y-36488392D01*
X-49426785Y-36393154D01*
X-49474404Y-36202678D01*
X-49474404Y-35964583D01*
X-49426785Y-35774107D01*
X-49379166Y-35678869D01*
X-49331547Y-35631250D01*
X-49236309Y-35583630D01*
X-47998214Y-35583630D02*
X-48474404Y-35583630D01*
X-48522023Y-36059821D01*
X-48474404Y-36012202D01*
X-48379166Y-35964583D01*
X-48141071Y-35964583D01*
X-48045833Y-36012202D01*
X-47998214Y-36059821D01*
X-47950595Y-36155059D01*
X-47950595Y-36393154D01*
X-47998214Y-36488392D01*
X-48045833Y-36536011D01*
X-48141071Y-36583630D01*
X-48379166Y-36583630D01*
X-48474404Y-36536011D01*
X-48522023Y-36488392D01*
X-69476785Y-35789880D02*
X-69476785Y-34789880D01*
X-69238690Y-34789880D01*
X-69095833Y-34837500D01*
X-69000595Y-34932738D01*
X-68952976Y-35027976D01*
X-68905357Y-35218452D01*
X-68905357Y-35361309D01*
X-68952976Y-35551785D01*
X-69000595Y-35647023D01*
X-69095833Y-35742261D01*
X-69238690Y-35789880D01*
X-69476785Y-35789880D01*
X-68286309Y-34789880D02*
X-68191071Y-34789880D01*
X-68095833Y-34837500D01*
X-68048214Y-34885119D01*
X-68000595Y-34980357D01*
X-67952976Y-35170833D01*
X-67952976Y-35408928D01*
X-68000595Y-35599404D01*
X-68048214Y-35694642D01*
X-68095833Y-35742261D01*
X-68191071Y-35789880D01*
X-68286309Y-35789880D01*
X-68381547Y-35742261D01*
X-68429166Y-35694642D01*
X-68476785Y-35599404D01*
X-68524404Y-35408928D01*
X-68524404Y-35170833D01*
X-68476785Y-34980357D01*
X-68429166Y-34885119D01*
X-68381547Y-34837500D01*
X-68286309Y-34789880D01*
X-67095833Y-35123214D02*
X-67095833Y-35789880D01*
X-67333928Y-34742261D02*
X-67572023Y-35456547D01*
X-66952976Y-35456547D01*
X-88526785Y-27058630D02*
X-88526785Y-26058630D01*
X-88288690Y-26058630D01*
X-88145833Y-26106250D01*
X-88050595Y-26201488D01*
X-88002976Y-26296726D01*
X-87955357Y-26487202D01*
X-87955357Y-26630059D01*
X-88002976Y-26820535D01*
X-88050595Y-26915773D01*
X-88145833Y-27011011D01*
X-88288690Y-27058630D01*
X-88526785Y-27058630D01*
X-87336309Y-26058630D02*
X-87241071Y-26058630D01*
X-87145833Y-26106250D01*
X-87098214Y-26153869D01*
X-87050595Y-26249107D01*
X-87002976Y-26439583D01*
X-87002976Y-26677678D01*
X-87050595Y-26868154D01*
X-87098214Y-26963392D01*
X-87145833Y-27011011D01*
X-87241071Y-27058630D01*
X-87336309Y-27058630D01*
X-87431547Y-27011011D01*
X-87479166Y-26963392D01*
X-87526785Y-26868154D01*
X-87574404Y-26677678D01*
X-87574404Y-26439583D01*
X-87526785Y-26249107D01*
X-87479166Y-26153869D01*
X-87431547Y-26106250D01*
X-87336309Y-26058630D01*
X-86669642Y-26058630D02*
X-86050595Y-26058630D01*
X-86383928Y-26439583D01*
X-86241071Y-26439583D01*
X-86145833Y-26487202D01*
X-86098214Y-26534821D01*
X-86050595Y-26630059D01*
X-86050595Y-26868154D01*
X-86098214Y-26963392D01*
X-86145833Y-27011011D01*
X-86241071Y-27058630D01*
X-86526785Y-27058630D01*
X-86622023Y-27011011D01*
X-86669642Y-26963392D01*
X-107576785Y-34202380D02*
X-107576785Y-33202380D01*
X-107338690Y-33202380D01*
X-107195833Y-33250000D01*
X-107100595Y-33345238D01*
X-107052976Y-33440476D01*
X-107005357Y-33630952D01*
X-107005357Y-33773809D01*
X-107052976Y-33964285D01*
X-107100595Y-34059523D01*
X-107195833Y-34154761D01*
X-107338690Y-34202380D01*
X-107576785Y-34202380D01*
X-106386309Y-33202380D02*
X-106291071Y-33202380D01*
X-106195833Y-33250000D01*
X-106148214Y-33297619D01*
X-106100595Y-33392857D01*
X-106052976Y-33583333D01*
X-106052976Y-33821428D01*
X-106100595Y-34011904D01*
X-106148214Y-34107142D01*
X-106195833Y-34154761D01*
X-106291071Y-34202380D01*
X-106386309Y-34202380D01*
X-106481547Y-34154761D01*
X-106529166Y-34107142D01*
X-106576785Y-34011904D01*
X-106624404Y-33821428D01*
X-106624404Y-33583333D01*
X-106576785Y-33392857D01*
X-106529166Y-33297619D01*
X-106481547Y-33250000D01*
X-106386309Y-33202380D01*
X-105672023Y-33297619D02*
X-105624404Y-33250000D01*
X-105529166Y-33202380D01*
X-105291071Y-33202380D01*
X-105195833Y-33250000D01*
X-105148214Y-33297619D01*
X-105100595Y-33392857D01*
X-105100595Y-33488095D01*
X-105148214Y-33630952D01*
X-105719642Y-34202380D01*
X-105100595Y-34202380D01*
X-126626785Y-53252380D02*
X-126626785Y-52252380D01*
X-126388690Y-52252380D01*
X-126245833Y-52300000D01*
X-126150595Y-52395238D01*
X-126102976Y-52490476D01*
X-126055357Y-52680952D01*
X-126055357Y-52823809D01*
X-126102976Y-53014285D01*
X-126150595Y-53109523D01*
X-126245833Y-53204761D01*
X-126388690Y-53252380D01*
X-126626785Y-53252380D01*
X-125436309Y-52252380D02*
X-125341071Y-52252380D01*
X-125245833Y-52300000D01*
X-125198214Y-52347619D01*
X-125150595Y-52442857D01*
X-125102976Y-52633333D01*
X-125102976Y-52871428D01*
X-125150595Y-53061904D01*
X-125198214Y-53157142D01*
X-125245833Y-53204761D01*
X-125341071Y-53252380D01*
X-125436309Y-53252380D01*
X-125531547Y-53204761D01*
X-125579166Y-53157142D01*
X-125626785Y-53061904D01*
X-125674404Y-52871428D01*
X-125674404Y-52633333D01*
X-125626785Y-52442857D01*
X-125579166Y-52347619D01*
X-125531547Y-52300000D01*
X-125436309Y-52252380D01*
X-124150595Y-53252380D02*
X-124722023Y-53252380D01*
X-124436309Y-53252380D02*
X-124436309Y-52252380D01*
X-124531547Y-52395238D01*
X-124626785Y-52490476D01*
X-124722023Y-52538095D01*
X-145676785Y-53252380D02*
X-145676785Y-52252380D01*
X-145438690Y-52252380D01*
X-145295833Y-52300000D01*
X-145200595Y-52395238D01*
X-145152976Y-52490476D01*
X-145105357Y-52680952D01*
X-145105357Y-52823809D01*
X-145152976Y-53014285D01*
X-145200595Y-53109523D01*
X-145295833Y-53204761D01*
X-145438690Y-53252380D01*
X-145676785Y-53252380D01*
X-144486309Y-52252380D02*
X-144391071Y-52252380D01*
X-144295833Y-52300000D01*
X-144248214Y-52347619D01*
X-144200595Y-52442857D01*
X-144152976Y-52633333D01*
X-144152976Y-52871428D01*
X-144200595Y-53061904D01*
X-144248214Y-53157142D01*
X-144295833Y-53204761D01*
X-144391071Y-53252380D01*
X-144486309Y-53252380D01*
X-144581547Y-53204761D01*
X-144629166Y-53157142D01*
X-144676785Y-53061904D01*
X-144724404Y-52871428D01*
X-144724404Y-52633333D01*
X-144676785Y-52442857D01*
X-144629166Y-52347619D01*
X-144581547Y-52300000D01*
X-144486309Y-52252380D01*
X-143533928Y-52252380D02*
X-143438690Y-52252380D01*
X-143343452Y-52300000D01*
X-143295833Y-52347619D01*
X-143248214Y-52442857D01*
X-143200595Y-52633333D01*
X-143200595Y-52871428D01*
X-143248214Y-53061904D01*
X-143295833Y-53157142D01*
X-143343452Y-53204761D01*
X-143438690Y-53252380D01*
X-143533928Y-53252380D01*
X-143629166Y-53204761D01*
X-143676785Y-53157142D01*
X-143724404Y-53061904D01*
X-143772023Y-52871428D01*
X-143772023Y-52633333D01*
X-143724404Y-52442857D01*
X-143676785Y-52347619D01*
X-143629166Y-52300000D01*
X-143533928Y-52252380D01*
%LPC*%
D14*
X-14827250Y-82550000D03*
X-16727250Y-82550000D03*
D15*
X-17306250Y-72231250D03*
X-10306250Y-72231250D03*
D16*
X-11906250Y-75481250D03*
X-14906250Y-75481250D03*
X-18906250Y-75481250D03*
X-20006250Y-68981250D03*
D17*
G36*
X-43584385Y-108353769D02*
G01*
X-44623615Y-107753769D01*
X-44173615Y-106974347D01*
X-43134385Y-107574347D01*
X-43584385Y-108353769D01*
G37*
G36*
X-45234385Y-111211653D02*
G01*
X-46273615Y-110611653D01*
X-45823615Y-109832231D01*
X-44784385Y-110432231D01*
X-45234385Y-111211653D01*
G37*
D18*
X-23368000Y-20701000D03*
D19*
X-23368000Y-23241000D03*
X-23368000Y-25781000D03*
X-23368000Y-28321000D03*
X-23368000Y-30861000D03*
X-23368000Y-33401000D03*
X-23368000Y-35941000D03*
X-23368000Y-38481000D03*
X-23368000Y-41021000D03*
X-23368000Y-43561000D03*
X-23368000Y-46101000D03*
X-8128000Y-48641000D03*
X-8128000Y-46101000D03*
X-8128000Y-43561000D03*
X-8128000Y-41021000D03*
X-8128000Y-38481000D03*
X-8128000Y-35941000D03*
X-8128000Y-33401000D03*
X-8128000Y-30861000D03*
X-8128000Y-28321000D03*
X-8128000Y-25781000D03*
X-8128000Y-23241000D03*
X-23368000Y-48641000D03*
X-8128000Y-20701000D03*
D20*
X-8656250Y-65750000D03*
X-15156250Y-65750000D03*
X-15156250Y-61250000D03*
X-8656250Y-61250000D03*
D14*
X-16825000Y-84931250D03*
X-14925000Y-84931250D03*
D21*
X-36068000Y-118618000D03*
D22*
X-40467409Y-116078000D03*
X-31668591Y-121158000D03*
D21*
X-75406250Y-119062500D03*
D22*
X-80486250Y-119062500D03*
X-70326250Y-119062500D03*
D21*
X-94392750Y-100024500D03*
D22*
X-99472750Y-100024500D03*
X-89312750Y-100024500D03*
D21*
X-101600000Y-119062500D03*
D22*
X-106680000Y-119062500D03*
X-96520000Y-119062500D03*
D21*
X-125412500Y-119062500D03*
D22*
X-130492500Y-119062500D03*
X-120332500Y-119062500D03*
D21*
X-149225000Y-119062500D03*
D22*
X-154305000Y-119062500D03*
X-144145000Y-119062500D03*
D21*
X-26543000Y-102108000D03*
D22*
X-30942409Y-99568000D03*
X-22143591Y-104648000D03*
D21*
X-56356250Y-83566000D03*
D22*
X-61436250Y-83566000D03*
X-51276250Y-83566000D03*
D21*
X-75406250Y-82550000D03*
D22*
X-80486250Y-82550000D03*
X-70326250Y-82550000D03*
D21*
X-94456250Y-73787000D03*
D22*
X-99536250Y-73787000D03*
X-89376250Y-73787000D03*
D21*
X-113506250Y-81153000D03*
D22*
X-118586250Y-81153000D03*
X-108426250Y-81153000D03*
D21*
X-132556250Y-100012500D03*
D22*
X-137636250Y-100012500D03*
X-127476250Y-100012500D03*
D21*
X-151606250Y-100012500D03*
D22*
X-156686250Y-100012500D03*
X-146526250Y-100012500D03*
D21*
X-37306250Y-50228500D03*
D22*
X-37306250Y-55308500D03*
X-37306250Y-45148500D03*
D21*
X-56356250Y-64516000D03*
D22*
X-61436250Y-64516000D03*
X-51276250Y-64516000D03*
D21*
X-75406250Y-63500000D03*
D22*
X-80486250Y-63500000D03*
X-70326250Y-63500000D03*
D21*
X-94456250Y-54737000D03*
D22*
X-99536250Y-54737000D03*
X-89376250Y-54737000D03*
D21*
X-113506250Y-62103000D03*
D22*
X-118586250Y-62103000D03*
X-108426250Y-62103000D03*
D21*
X-132556250Y-80962500D03*
D22*
X-137636250Y-80962500D03*
X-127476250Y-80962500D03*
D21*
X-151606250Y-80962500D03*
D22*
X-156686250Y-80962500D03*
X-146526250Y-80962500D03*
D21*
X-56356250Y-45466000D03*
D22*
X-61436250Y-45466000D03*
X-51276250Y-45466000D03*
D21*
X-75406250Y-44450000D03*
D22*
X-80486250Y-44450000D03*
X-70326250Y-44450000D03*
D21*
X-94456250Y-35687000D03*
D22*
X-99536250Y-35687000D03*
X-89376250Y-35687000D03*
D21*
X-113506250Y-43053000D03*
D22*
X-118586250Y-43053000D03*
X-108426250Y-43053000D03*
D21*
X-132556250Y-61912500D03*
D22*
X-137636250Y-61912500D03*
X-127476250Y-61912500D03*
D21*
X-151606250Y-61912500D03*
D22*
X-156686250Y-61912500D03*
X-146526250Y-61912500D03*
D21*
X-37306250Y-26416000D03*
D22*
X-42386250Y-26416000D03*
X-32226250Y-26416000D03*
D21*
X-56356250Y-26416000D03*
D22*
X-61436250Y-26416000D03*
X-51276250Y-26416000D03*
D21*
X-75406250Y-25400000D03*
D22*
X-80486250Y-25400000D03*
X-70326250Y-25400000D03*
D21*
X-94456250Y-16637000D03*
D22*
X-99536250Y-16637000D03*
X-89376250Y-16637000D03*
D21*
X-113506250Y-24003000D03*
D22*
X-118586250Y-24003000D03*
X-108426250Y-24003000D03*
D21*
X-132556250Y-42862500D03*
D22*
X-137636250Y-42862500D03*
X-127476250Y-42862500D03*
D21*
X-151606250Y-42862500D03*
D22*
X-156686250Y-42862500D03*
X-146526250Y-42862500D03*
D23*
X-62706250Y-117412500D03*
X-62706250Y-120712500D03*
D24*
X-88962500Y-107950000D03*
X-85662500Y-107950000D03*
D23*
X-91281250Y-116618750D03*
X-91281250Y-119918750D03*
X-115093750Y-116618750D03*
X-115093750Y-119918750D03*
X-138906250Y-116618750D03*
X-138906250Y-119918750D03*
D17*
G36*
X-34440385Y-93240769D02*
G01*
X-35479615Y-92640769D01*
X-35029615Y-91861347D01*
X-33990385Y-92461347D01*
X-34440385Y-93240769D01*
G37*
G36*
X-36090385Y-96098653D02*
G01*
X-37129615Y-95498653D01*
X-36679615Y-94719231D01*
X-35640385Y-95319231D01*
X-36090385Y-96098653D01*
G37*
D24*
X-50862500Y-91281250D03*
X-47562500Y-91281250D03*
X-69912500Y-90487500D03*
X-66612500Y-90487500D03*
X-88962500Y-81756250D03*
X-85662500Y-81756250D03*
X-108012500Y-88900000D03*
X-104712500Y-88900000D03*
X-127062500Y-107950000D03*
X-123762500Y-107950000D03*
X-146112500Y-107950000D03*
X-142812500Y-107950000D03*
X-45306250Y-61912500D03*
X-42006250Y-61912500D03*
X-50862500Y-72231250D03*
X-47562500Y-72231250D03*
X-69912500Y-71437500D03*
X-66612500Y-71437500D03*
X-88962500Y-62706250D03*
X-85662500Y-62706250D03*
X-108012500Y-69850000D03*
X-104712500Y-69850000D03*
X-127062500Y-88900000D03*
X-123762500Y-88900000D03*
X-146112500Y-88900000D03*
X-142812500Y-88900000D03*
X-50862500Y-53181250D03*
X-47562500Y-53181250D03*
X-69912500Y-52387500D03*
X-66612500Y-52387500D03*
X-88962500Y-43656250D03*
X-85662500Y-43656250D03*
X-108012500Y-50800000D03*
X-104712500Y-50800000D03*
X-127062500Y-69850000D03*
X-123762500Y-69850000D03*
X-146112500Y-69850000D03*
X-142812500Y-69850000D03*
X-31812500Y-34131250D03*
X-28512500Y-34131250D03*
X-50862500Y-34131250D03*
X-47562500Y-34131250D03*
X-69912500Y-33337500D03*
X-66612500Y-33337500D03*
X-88962500Y-24606250D03*
X-85662500Y-24606250D03*
X-108012500Y-31750000D03*
X-104712500Y-31750000D03*
X-127062500Y-50800000D03*
X-123762500Y-50800000D03*
X-146112500Y-50800000D03*
X-142812500Y-50800000D03*
M02*
