G04 #@! TF.GenerationSoftware,KiCad,Pcbnew,5.1.10*
G04 #@! TF.CreationDate,2021-06-15T23:50:52-04:00*
G04 #@! TF.ProjectId,attempt2,61747465-6d70-4743-922e-6b696361645f,rev?*
G04 #@! TF.SameCoordinates,Original*
G04 #@! TF.FileFunction,Legend,Bot*
G04 #@! TF.FilePolarity,Positive*
%FSLAX46Y46*%
G04 Gerber Fmt 4.6, Leading zero omitted, Abs format (unit mm)*
G04 Created by KiCad (PCBNEW 5.1.10) date 2021-06-15 23:50:52*
%MOMM*%
%LPD*%
G01*
G04 APERTURE LIST*
%ADD10C,0.150000*%
%ADD11C,0.381000*%
%ADD12C,1.500000*%
%ADD13R,1.752600X1.752600*%
%ADD14C,1.752600*%
%ADD15C,2.000000*%
%ADD16C,2.250000*%
%ADD17C,3.987800*%
%ADD18C,1.750000*%
G04 APERTURE END LIST*
D10*
X-65667857Y-100369642D02*
X-65620238Y-100417261D01*
X-65477380Y-100464880D01*
X-65382142Y-100464880D01*
X-65239285Y-100417261D01*
X-65144047Y-100322023D01*
X-65096428Y-100226785D01*
X-65048809Y-100036309D01*
X-65048809Y-99893452D01*
X-65096428Y-99702976D01*
X-65144047Y-99607738D01*
X-65239285Y-99512500D01*
X-65382142Y-99464880D01*
X-65477380Y-99464880D01*
X-65620238Y-99512500D01*
X-65667857Y-99560119D01*
X-66525000Y-99798214D02*
X-66525000Y-100464880D01*
X-66096428Y-99798214D02*
X-66096428Y-100322023D01*
X-66144047Y-100417261D01*
X-66239285Y-100464880D01*
X-66382142Y-100464880D01*
X-66477380Y-100417261D01*
X-66525000Y-100369642D01*
X-66953571Y-100417261D02*
X-67048809Y-100464880D01*
X-67239285Y-100464880D01*
X-67334523Y-100417261D01*
X-67382142Y-100322023D01*
X-67382142Y-100274404D01*
X-67334523Y-100179166D01*
X-67239285Y-100131547D01*
X-67096428Y-100131547D01*
X-67001190Y-100083928D01*
X-66953571Y-99988690D01*
X-66953571Y-99941071D01*
X-67001190Y-99845833D01*
X-67096428Y-99798214D01*
X-67239285Y-99798214D01*
X-67334523Y-99845833D01*
X-67667857Y-99798214D02*
X-68048809Y-99798214D01*
X-67810714Y-99464880D02*
X-67810714Y-100322023D01*
X-67858333Y-100417261D01*
X-67953571Y-100464880D01*
X-68048809Y-100464880D01*
X-68525000Y-100464880D02*
X-68429761Y-100417261D01*
X-68382142Y-100369642D01*
X-68334523Y-100274404D01*
X-68334523Y-99988690D01*
X-68382142Y-99893452D01*
X-68429761Y-99845833D01*
X-68525000Y-99798214D01*
X-68667857Y-99798214D01*
X-68763095Y-99845833D01*
X-68810714Y-99893452D01*
X-68858333Y-99988690D01*
X-68858333Y-100274404D01*
X-68810714Y-100369642D01*
X-68763095Y-100417261D01*
X-68667857Y-100464880D01*
X-68525000Y-100464880D01*
X-69286904Y-100464880D02*
X-69286904Y-99798214D01*
X-69286904Y-99893452D02*
X-69334523Y-99845833D01*
X-69429761Y-99798214D01*
X-69572619Y-99798214D01*
X-69667857Y-99845833D01*
X-69715476Y-99941071D01*
X-69715476Y-100464880D01*
X-69715476Y-99941071D02*
X-69763095Y-99845833D01*
X-69858333Y-99798214D01*
X-70001190Y-99798214D01*
X-70096428Y-99845833D01*
X-70144047Y-99941071D01*
X-70144047Y-100464880D01*
X-71715476Y-99941071D02*
X-71858333Y-99988690D01*
X-71905952Y-100036309D01*
X-71953571Y-100131547D01*
X-71953571Y-100274404D01*
X-71905952Y-100369642D01*
X-71858333Y-100417261D01*
X-71763095Y-100464880D01*
X-71382142Y-100464880D01*
X-71382142Y-99464880D01*
X-71715476Y-99464880D01*
X-71810714Y-99512500D01*
X-71858333Y-99560119D01*
X-71905952Y-99655357D01*
X-71905952Y-99750595D01*
X-71858333Y-99845833D01*
X-71810714Y-99893452D01*
X-71715476Y-99941071D01*
X-71382142Y-99941071D01*
X-72525000Y-100464880D02*
X-72429761Y-100417261D01*
X-72382142Y-100369642D01*
X-72334523Y-100274404D01*
X-72334523Y-99988690D01*
X-72382142Y-99893452D01*
X-72429761Y-99845833D01*
X-72525000Y-99798214D01*
X-72667857Y-99798214D01*
X-72763095Y-99845833D01*
X-72810714Y-99893452D01*
X-72858333Y-99988690D01*
X-72858333Y-100274404D01*
X-72810714Y-100369642D01*
X-72763095Y-100417261D01*
X-72667857Y-100464880D01*
X-72525000Y-100464880D01*
X-73715476Y-99798214D02*
X-73715476Y-100464880D01*
X-73286904Y-99798214D02*
X-73286904Y-100322023D01*
X-73334523Y-100417261D01*
X-73429761Y-100464880D01*
X-73572619Y-100464880D01*
X-73667857Y-100417261D01*
X-73715476Y-100369642D01*
X-74191666Y-100464880D02*
X-74191666Y-99798214D01*
X-74191666Y-99988690D02*
X-74239285Y-99893452D01*
X-74286904Y-99845833D01*
X-74382142Y-99798214D01*
X-74477380Y-99798214D01*
X-74810714Y-100464880D02*
X-74810714Y-99464880D01*
X-74810714Y-99845833D02*
X-74905952Y-99798214D01*
X-75096428Y-99798214D01*
X-75191666Y-99845833D01*
X-75239285Y-99893452D01*
X-75286904Y-99988690D01*
X-75286904Y-100274404D01*
X-75239285Y-100369642D01*
X-75191666Y-100417261D01*
X-75096428Y-100464880D01*
X-74905952Y-100464880D01*
X-74810714Y-100417261D01*
X-75858333Y-100464880D02*
X-75763095Y-100417261D01*
X-75715476Y-100369642D01*
X-75667857Y-100274404D01*
X-75667857Y-99988690D01*
X-75715476Y-99893452D01*
X-75763095Y-99845833D01*
X-75858333Y-99798214D01*
X-76001190Y-99798214D01*
X-76096428Y-99845833D01*
X-76144047Y-99893452D01*
X-76191666Y-99988690D01*
X-76191666Y-100274404D01*
X-76144047Y-100369642D01*
X-76096428Y-100417261D01*
X-76001190Y-100464880D01*
X-75858333Y-100464880D01*
X-76620238Y-99798214D02*
X-76620238Y-100464880D01*
X-76620238Y-99893452D02*
X-76667857Y-99845833D01*
X-76763095Y-99798214D01*
X-76905952Y-99798214D01*
X-77001190Y-99845833D01*
X-77048809Y-99941071D01*
X-77048809Y-100464880D01*
X-78191666Y-99798214D02*
X-78429761Y-100464880D01*
X-78667857Y-99798214D01*
X-79239285Y-99464880D02*
X-79334523Y-99464880D01*
X-79429761Y-99512500D01*
X-79477380Y-99560119D01*
X-79525000Y-99655357D01*
X-79572619Y-99845833D01*
X-79572619Y-100083928D01*
X-79525000Y-100274404D01*
X-79477380Y-100369642D01*
X-79429761Y-100417261D01*
X-79334523Y-100464880D01*
X-79239285Y-100464880D01*
X-79144047Y-100417261D01*
X-79096428Y-100369642D01*
X-79048809Y-100274404D01*
X-79001190Y-100083928D01*
X-79001190Y-99845833D01*
X-79048809Y-99655357D01*
X-79096428Y-99560119D01*
X-79144047Y-99512500D01*
X-79239285Y-99464880D01*
X-80001190Y-100369642D02*
X-80048809Y-100417261D01*
X-80001190Y-100464880D01*
X-79953571Y-100417261D01*
X-80001190Y-100369642D01*
X-80001190Y-100464880D01*
X-81001190Y-100464880D02*
X-80429761Y-100464880D01*
X-80715476Y-100464880D02*
X-80715476Y-99464880D01*
X-80620238Y-99607738D01*
X-80525000Y-99702976D01*
X-80429761Y-99750595D01*
D11*
X-22098000Y-19431000D02*
X-24638000Y-19431000D01*
X-6858000Y-16891000D02*
X-24638000Y-16891000D01*
X-24638000Y-16891000D02*
X-24638000Y-49911000D01*
X-24638000Y-49911000D02*
X-6858000Y-49911000D01*
X-6858000Y-49911000D02*
X-6858000Y-16891000D01*
D10*
G36*
X-9903365Y-25320030D02*
G01*
X-9903365Y-25420030D01*
X-9403365Y-25420030D01*
X-9403365Y-25320030D01*
X-9903365Y-25320030D01*
G37*
X-9903365Y-25320030D02*
X-9903365Y-25420030D01*
X-9403365Y-25420030D01*
X-9403365Y-25320030D01*
X-9903365Y-25320030D01*
G36*
X-9903365Y-25320030D02*
G01*
X-9903365Y-25620030D01*
X-9803365Y-25620030D01*
X-9803365Y-25320030D01*
X-9903365Y-25320030D01*
G37*
X-9903365Y-25320030D02*
X-9903365Y-25620030D01*
X-9803365Y-25620030D01*
X-9803365Y-25320030D01*
X-9903365Y-25320030D01*
G36*
X-9903365Y-25920030D02*
G01*
X-9903365Y-26120030D01*
X-9803365Y-26120030D01*
X-9803365Y-25920030D01*
X-9903365Y-25920030D01*
G37*
X-9903365Y-25920030D02*
X-9903365Y-26120030D01*
X-9803365Y-26120030D01*
X-9803365Y-25920030D01*
X-9903365Y-25920030D01*
G36*
X-9503365Y-25320030D02*
G01*
X-9503365Y-26120030D01*
X-9403365Y-26120030D01*
X-9403365Y-25320030D01*
X-9503365Y-25320030D01*
G37*
X-9503365Y-25320030D02*
X-9503365Y-26120030D01*
X-9403365Y-26120030D01*
X-9403365Y-25320030D01*
X-9503365Y-25320030D01*
G36*
X-9703365Y-25720030D02*
G01*
X-9703365Y-25820030D01*
X-9603365Y-25820030D01*
X-9603365Y-25720030D01*
X-9703365Y-25720030D01*
G37*
X-9703365Y-25720030D02*
X-9703365Y-25820030D01*
X-9603365Y-25820030D01*
X-9603365Y-25720030D01*
X-9703365Y-25720030D01*
D11*
X-22098000Y-19431000D02*
X-22098000Y-21971000D01*
X-22098000Y-21971000D02*
X-24638000Y-21971000D01*
D10*
X-15156250Y-61250000D02*
X-15156250Y-65750000D01*
X-15156250Y-65750000D02*
X-8656250Y-65750000D01*
X-8656250Y-65750000D02*
X-8656250Y-61250000D01*
X-8656250Y-61250000D02*
X-15156250Y-61250000D01*
X-20618523Y-23602904D02*
X-20618523Y-22802904D01*
X-20809000Y-22802904D01*
X-20923285Y-22841000D01*
X-20999476Y-22917190D01*
X-21037571Y-22993380D01*
X-21075666Y-23145761D01*
X-21075666Y-23260047D01*
X-21037571Y-23412428D01*
X-20999476Y-23488619D01*
X-20923285Y-23564809D01*
X-20809000Y-23602904D01*
X-20618523Y-23602904D01*
X-21380428Y-22879095D02*
X-21418523Y-22841000D01*
X-21494714Y-22802904D01*
X-21685190Y-22802904D01*
X-21761380Y-22841000D01*
X-21799476Y-22879095D01*
X-21837571Y-22955285D01*
X-21837571Y-23031476D01*
X-21799476Y-23145761D01*
X-21342333Y-23602904D01*
X-21837571Y-23602904D01*
X-20618523Y-33762904D02*
X-20618523Y-32962904D01*
X-20809000Y-32962904D01*
X-20923285Y-33001000D01*
X-20999476Y-33077190D01*
X-21037571Y-33153380D01*
X-21075666Y-33305761D01*
X-21075666Y-33420047D01*
X-21037571Y-33572428D01*
X-20999476Y-33648619D01*
X-20923285Y-33724809D01*
X-20809000Y-33762904D01*
X-20618523Y-33762904D01*
X-21570904Y-32962904D02*
X-21647095Y-32962904D01*
X-21723285Y-33001000D01*
X-21761380Y-33039095D01*
X-21799476Y-33115285D01*
X-21837571Y-33267666D01*
X-21837571Y-33458142D01*
X-21799476Y-33610523D01*
X-21761380Y-33686714D01*
X-21723285Y-33724809D01*
X-21647095Y-33762904D01*
X-21570904Y-33762904D01*
X-21494714Y-33724809D01*
X-21456619Y-33686714D01*
X-21418523Y-33610523D01*
X-21380428Y-33458142D01*
X-21380428Y-33267666D01*
X-21418523Y-33115285D01*
X-21456619Y-33039095D01*
X-21494714Y-33001000D01*
X-21570904Y-32962904D01*
X-20618523Y-31222904D02*
X-20618523Y-30422904D01*
X-20809000Y-30422904D01*
X-20923285Y-30461000D01*
X-20999476Y-30537190D01*
X-21037571Y-30613380D01*
X-21075666Y-30765761D01*
X-21075666Y-30880047D01*
X-21037571Y-31032428D01*
X-20999476Y-31108619D01*
X-20923285Y-31184809D01*
X-20809000Y-31222904D01*
X-20618523Y-31222904D01*
X-21837571Y-31222904D02*
X-21380428Y-31222904D01*
X-21609000Y-31222904D02*
X-21609000Y-30422904D01*
X-21532809Y-30537190D01*
X-21456619Y-30613380D01*
X-21380428Y-30651476D01*
X-20599476Y-27921000D02*
X-20523285Y-27882904D01*
X-20409000Y-27882904D01*
X-20294714Y-27921000D01*
X-20218523Y-27997190D01*
X-20180428Y-28073380D01*
X-20142333Y-28225761D01*
X-20142333Y-28340047D01*
X-20180428Y-28492428D01*
X-20218523Y-28568619D01*
X-20294714Y-28644809D01*
X-20409000Y-28682904D01*
X-20485190Y-28682904D01*
X-20599476Y-28644809D01*
X-20637571Y-28606714D01*
X-20637571Y-28340047D01*
X-20485190Y-28340047D01*
X-20980428Y-28682904D02*
X-20980428Y-27882904D01*
X-21437571Y-28682904D01*
X-21437571Y-27882904D01*
X-21818523Y-28682904D02*
X-21818523Y-27882904D01*
X-22009000Y-27882904D01*
X-22123285Y-27921000D01*
X-22199476Y-27997190D01*
X-22237571Y-28073380D01*
X-22275666Y-28225761D01*
X-22275666Y-28340047D01*
X-22237571Y-28492428D01*
X-22199476Y-28568619D01*
X-22123285Y-28644809D01*
X-22009000Y-28682904D01*
X-21818523Y-28682904D01*
X-20599476Y-25381000D02*
X-20523285Y-25342904D01*
X-20409000Y-25342904D01*
X-20294714Y-25381000D01*
X-20218523Y-25457190D01*
X-20180428Y-25533380D01*
X-20142333Y-25685761D01*
X-20142333Y-25800047D01*
X-20180428Y-25952428D01*
X-20218523Y-26028619D01*
X-20294714Y-26104809D01*
X-20409000Y-26142904D01*
X-20485190Y-26142904D01*
X-20599476Y-26104809D01*
X-20637571Y-26066714D01*
X-20637571Y-25800047D01*
X-20485190Y-25800047D01*
X-20980428Y-26142904D02*
X-20980428Y-25342904D01*
X-21437571Y-26142904D01*
X-21437571Y-25342904D01*
X-21818523Y-26142904D02*
X-21818523Y-25342904D01*
X-22009000Y-25342904D01*
X-22123285Y-25381000D01*
X-22199476Y-25457190D01*
X-22237571Y-25533380D01*
X-22275666Y-25685761D01*
X-22275666Y-25800047D01*
X-22237571Y-25952428D01*
X-22199476Y-26028619D01*
X-22123285Y-26104809D01*
X-22009000Y-26142904D01*
X-21818523Y-26142904D01*
X-20618523Y-36302904D02*
X-20618523Y-35502904D01*
X-20809000Y-35502904D01*
X-20923285Y-35541000D01*
X-20999476Y-35617190D01*
X-21037571Y-35693380D01*
X-21075666Y-35845761D01*
X-21075666Y-35960047D01*
X-21037571Y-36112428D01*
X-20999476Y-36188619D01*
X-20923285Y-36264809D01*
X-20809000Y-36302904D01*
X-20618523Y-36302904D01*
X-21761380Y-35769571D02*
X-21761380Y-36302904D01*
X-21570904Y-35464809D02*
X-21380428Y-36036238D01*
X-21875666Y-36036238D01*
X-21075666Y-38766714D02*
X-21037571Y-38804809D01*
X-20923285Y-38842904D01*
X-20847095Y-38842904D01*
X-20732809Y-38804809D01*
X-20656619Y-38728619D01*
X-20618523Y-38652428D01*
X-20580428Y-38500047D01*
X-20580428Y-38385761D01*
X-20618523Y-38233380D01*
X-20656619Y-38157190D01*
X-20732809Y-38081000D01*
X-20847095Y-38042904D01*
X-20923285Y-38042904D01*
X-21037571Y-38081000D01*
X-21075666Y-38119095D01*
X-21761380Y-38042904D02*
X-21609000Y-38042904D01*
X-21532809Y-38081000D01*
X-21494714Y-38119095D01*
X-21418523Y-38233380D01*
X-21380428Y-38385761D01*
X-21380428Y-38690523D01*
X-21418523Y-38766714D01*
X-21456619Y-38804809D01*
X-21532809Y-38842904D01*
X-21685190Y-38842904D01*
X-21761380Y-38804809D01*
X-21799476Y-38766714D01*
X-21837571Y-38690523D01*
X-21837571Y-38500047D01*
X-21799476Y-38423857D01*
X-21761380Y-38385761D01*
X-21685190Y-38347666D01*
X-21532809Y-38347666D01*
X-21456619Y-38385761D01*
X-21418523Y-38423857D01*
X-21380428Y-38500047D01*
X-20618523Y-41382904D02*
X-20618523Y-40582904D01*
X-20809000Y-40582904D01*
X-20923285Y-40621000D01*
X-20999476Y-40697190D01*
X-21037571Y-40773380D01*
X-21075666Y-40925761D01*
X-21075666Y-41040047D01*
X-21037571Y-41192428D01*
X-20999476Y-41268619D01*
X-20923285Y-41344809D01*
X-20809000Y-41382904D01*
X-20618523Y-41382904D01*
X-21342333Y-40582904D02*
X-21875666Y-40582904D01*
X-21532809Y-41382904D01*
X-20656619Y-43503857D02*
X-20923285Y-43503857D01*
X-21037571Y-43922904D02*
X-20656619Y-43922904D01*
X-20656619Y-43122904D01*
X-21037571Y-43122904D01*
X-21723285Y-43122904D02*
X-21570904Y-43122904D01*
X-21494714Y-43161000D01*
X-21456619Y-43199095D01*
X-21380428Y-43313380D01*
X-21342333Y-43465761D01*
X-21342333Y-43770523D01*
X-21380428Y-43846714D01*
X-21418523Y-43884809D01*
X-21494714Y-43922904D01*
X-21647095Y-43922904D01*
X-21723285Y-43884809D01*
X-21761380Y-43846714D01*
X-21799476Y-43770523D01*
X-21799476Y-43580047D01*
X-21761380Y-43503857D01*
X-21723285Y-43465761D01*
X-21647095Y-43427666D01*
X-21494714Y-43427666D01*
X-21418523Y-43465761D01*
X-21380428Y-43503857D01*
X-21342333Y-43580047D01*
X-20885190Y-46043857D02*
X-20999476Y-46081952D01*
X-21037571Y-46120047D01*
X-21075666Y-46196238D01*
X-21075666Y-46310523D01*
X-21037571Y-46386714D01*
X-20999476Y-46424809D01*
X-20923285Y-46462904D01*
X-20618523Y-46462904D01*
X-20618523Y-45662904D01*
X-20885190Y-45662904D01*
X-20961380Y-45701000D01*
X-20999476Y-45739095D01*
X-21037571Y-45815285D01*
X-21037571Y-45891476D01*
X-20999476Y-45967666D01*
X-20961380Y-46005761D01*
X-20885190Y-46043857D01*
X-20618523Y-46043857D01*
X-21761380Y-45929571D02*
X-21761380Y-46462904D01*
X-21570904Y-45624809D02*
X-21380428Y-46196238D01*
X-21875666Y-46196238D01*
X-20885190Y-48583857D02*
X-20999476Y-48621952D01*
X-21037571Y-48660047D01*
X-21075666Y-48736238D01*
X-21075666Y-48850523D01*
X-21037571Y-48926714D01*
X-20999476Y-48964809D01*
X-20923285Y-49002904D01*
X-20618523Y-49002904D01*
X-20618523Y-48202904D01*
X-20885190Y-48202904D01*
X-20961380Y-48241000D01*
X-20999476Y-48279095D01*
X-21037571Y-48355285D01*
X-21037571Y-48431476D01*
X-20999476Y-48507666D01*
X-20961380Y-48545761D01*
X-20885190Y-48583857D01*
X-20618523Y-48583857D01*
X-21799476Y-48202904D02*
X-21418523Y-48202904D01*
X-21380428Y-48583857D01*
X-21418523Y-48545761D01*
X-21494714Y-48507666D01*
X-21685190Y-48507666D01*
X-21761380Y-48545761D01*
X-21799476Y-48583857D01*
X-21837571Y-48660047D01*
X-21837571Y-48850523D01*
X-21799476Y-48926714D01*
X-21761380Y-48964809D01*
X-21685190Y-49002904D01*
X-21494714Y-49002904D01*
X-21418523Y-48964809D01*
X-21380428Y-48926714D01*
X-9963190Y-48583857D02*
X-10077476Y-48621952D01*
X-10115571Y-48660047D01*
X-10153666Y-48736238D01*
X-10153666Y-48850523D01*
X-10115571Y-48926714D01*
X-10077476Y-48964809D01*
X-10001285Y-49002904D01*
X-9696523Y-49002904D01*
X-9696523Y-48202904D01*
X-9963190Y-48202904D01*
X-10039380Y-48241000D01*
X-10077476Y-48279095D01*
X-10115571Y-48355285D01*
X-10115571Y-48431476D01*
X-10077476Y-48507666D01*
X-10039380Y-48545761D01*
X-9963190Y-48583857D01*
X-9696523Y-48583857D01*
X-10839380Y-48202904D02*
X-10687000Y-48202904D01*
X-10610809Y-48241000D01*
X-10572714Y-48279095D01*
X-10496523Y-48393380D01*
X-10458428Y-48545761D01*
X-10458428Y-48850523D01*
X-10496523Y-48926714D01*
X-10534619Y-48964809D01*
X-10610809Y-49002904D01*
X-10763190Y-49002904D01*
X-10839380Y-48964809D01*
X-10877476Y-48926714D01*
X-10915571Y-48850523D01*
X-10915571Y-48660047D01*
X-10877476Y-48583857D01*
X-10839380Y-48545761D01*
X-10763190Y-48507666D01*
X-10610809Y-48507666D01*
X-10534619Y-48545761D01*
X-10496523Y-48583857D01*
X-10458428Y-48660047D01*
X-9963190Y-43503857D02*
X-10077476Y-43541952D01*
X-10115571Y-43580047D01*
X-10153666Y-43656238D01*
X-10153666Y-43770523D01*
X-10115571Y-43846714D01*
X-10077476Y-43884809D01*
X-10001285Y-43922904D01*
X-9696523Y-43922904D01*
X-9696523Y-43122904D01*
X-9963190Y-43122904D01*
X-10039380Y-43161000D01*
X-10077476Y-43199095D01*
X-10115571Y-43275285D01*
X-10115571Y-43351476D01*
X-10077476Y-43427666D01*
X-10039380Y-43465761D01*
X-9963190Y-43503857D01*
X-9696523Y-43503857D01*
X-10420333Y-43122904D02*
X-10915571Y-43122904D01*
X-10648904Y-43427666D01*
X-10763190Y-43427666D01*
X-10839380Y-43465761D01*
X-10877476Y-43503857D01*
X-10915571Y-43580047D01*
X-10915571Y-43770523D01*
X-10877476Y-43846714D01*
X-10839380Y-43884809D01*
X-10763190Y-43922904D01*
X-10534619Y-43922904D01*
X-10458428Y-43884809D01*
X-10420333Y-43846714D01*
X-9963190Y-40963857D02*
X-10077476Y-41001952D01*
X-10115571Y-41040047D01*
X-10153666Y-41116238D01*
X-10153666Y-41230523D01*
X-10115571Y-41306714D01*
X-10077476Y-41344809D01*
X-10001285Y-41382904D01*
X-9696523Y-41382904D01*
X-9696523Y-40582904D01*
X-9963190Y-40582904D01*
X-10039380Y-40621000D01*
X-10077476Y-40659095D01*
X-10115571Y-40735285D01*
X-10115571Y-40811476D01*
X-10077476Y-40887666D01*
X-10039380Y-40925761D01*
X-9963190Y-40963857D01*
X-9696523Y-40963857D01*
X-10915571Y-41382904D02*
X-10458428Y-41382904D01*
X-10687000Y-41382904D02*
X-10687000Y-40582904D01*
X-10610809Y-40697190D01*
X-10534619Y-40773380D01*
X-10458428Y-40811476D01*
X-10020333Y-30803857D02*
X-9753666Y-30803857D01*
X-9753666Y-31222904D02*
X-9753666Y-30422904D01*
X-10134619Y-30422904D01*
X-10782238Y-30689571D02*
X-10782238Y-31222904D01*
X-10591761Y-30384809D02*
X-10401285Y-30956238D01*
X-10896523Y-30956238D01*
X-9220333Y-27882904D02*
X-9487000Y-28682904D01*
X-9753666Y-27882904D01*
X-10477476Y-28606714D02*
X-10439380Y-28644809D01*
X-10325095Y-28682904D01*
X-10248904Y-28682904D01*
X-10134619Y-28644809D01*
X-10058428Y-28568619D01*
X-10020333Y-28492428D01*
X-9982238Y-28340047D01*
X-9982238Y-28225761D01*
X-10020333Y-28073380D01*
X-10058428Y-27997190D01*
X-10134619Y-27921000D01*
X-10248904Y-27882904D01*
X-10325095Y-27882904D01*
X-10439380Y-27921000D01*
X-10477476Y-27959095D01*
X-11277476Y-28606714D02*
X-11239380Y-28644809D01*
X-11125095Y-28682904D01*
X-11048904Y-28682904D01*
X-10934619Y-28644809D01*
X-10858428Y-28568619D01*
X-10820333Y-28492428D01*
X-10782238Y-28340047D01*
X-10782238Y-28225761D01*
X-10820333Y-28073380D01*
X-10858428Y-27997190D01*
X-10934619Y-27921000D01*
X-11048904Y-27882904D01*
X-11125095Y-27882904D01*
X-11239380Y-27921000D01*
X-11277476Y-27959095D01*
X-9677476Y-22841000D02*
X-9601285Y-22802904D01*
X-9487000Y-22802904D01*
X-9372714Y-22841000D01*
X-9296523Y-22917190D01*
X-9258428Y-22993380D01*
X-9220333Y-23145761D01*
X-9220333Y-23260047D01*
X-9258428Y-23412428D01*
X-9296523Y-23488619D01*
X-9372714Y-23564809D01*
X-9487000Y-23602904D01*
X-9563190Y-23602904D01*
X-9677476Y-23564809D01*
X-9715571Y-23526714D01*
X-9715571Y-23260047D01*
X-9563190Y-23260047D01*
X-10058428Y-23602904D02*
X-10058428Y-22802904D01*
X-10515571Y-23602904D01*
X-10515571Y-22802904D01*
X-10896523Y-23602904D02*
X-10896523Y-22802904D01*
X-11087000Y-22802904D01*
X-11201285Y-22841000D01*
X-11277476Y-22917190D01*
X-11315571Y-22993380D01*
X-11353666Y-23145761D01*
X-11353666Y-23260047D01*
X-11315571Y-23412428D01*
X-11277476Y-23488619D01*
X-11201285Y-23564809D01*
X-11087000Y-23602904D01*
X-10896523Y-23602904D01*
X-9734619Y-21062904D02*
X-9467952Y-20681952D01*
X-9277476Y-21062904D02*
X-9277476Y-20262904D01*
X-9582238Y-20262904D01*
X-9658428Y-20301000D01*
X-9696523Y-20339095D01*
X-9734619Y-20415285D01*
X-9734619Y-20529571D01*
X-9696523Y-20605761D01*
X-9658428Y-20643857D01*
X-9582238Y-20681952D01*
X-9277476Y-20681952D01*
X-10039380Y-20834333D02*
X-10420333Y-20834333D01*
X-9963190Y-21062904D02*
X-10229857Y-20262904D01*
X-10496523Y-21062904D01*
X-10687000Y-20262904D02*
X-10877476Y-21062904D01*
X-11029857Y-20491476D01*
X-11182238Y-21062904D01*
X-11372714Y-20262904D01*
X-10020333Y-33343857D02*
X-9753666Y-33343857D01*
X-9753666Y-33762904D02*
X-9753666Y-32962904D01*
X-10134619Y-32962904D01*
X-10820333Y-32962904D02*
X-10439380Y-32962904D01*
X-10401285Y-33343857D01*
X-10439380Y-33305761D01*
X-10515571Y-33267666D01*
X-10706047Y-33267666D01*
X-10782238Y-33305761D01*
X-10820333Y-33343857D01*
X-10858428Y-33420047D01*
X-10858428Y-33610523D01*
X-10820333Y-33686714D01*
X-10782238Y-33724809D01*
X-10706047Y-33762904D01*
X-10515571Y-33762904D01*
X-10439380Y-33724809D01*
X-10401285Y-33686714D01*
X-10020333Y-35883857D02*
X-9753666Y-35883857D01*
X-9753666Y-36302904D02*
X-9753666Y-35502904D01*
X-10134619Y-35502904D01*
X-10782238Y-35502904D02*
X-10629857Y-35502904D01*
X-10553666Y-35541000D01*
X-10515571Y-35579095D01*
X-10439380Y-35693380D01*
X-10401285Y-35845761D01*
X-10401285Y-36150523D01*
X-10439380Y-36226714D01*
X-10477476Y-36264809D01*
X-10553666Y-36302904D01*
X-10706047Y-36302904D01*
X-10782238Y-36264809D01*
X-10820333Y-36226714D01*
X-10858428Y-36150523D01*
X-10858428Y-35960047D01*
X-10820333Y-35883857D01*
X-10782238Y-35845761D01*
X-10706047Y-35807666D01*
X-10553666Y-35807666D01*
X-10477476Y-35845761D01*
X-10439380Y-35883857D01*
X-10401285Y-35960047D01*
X-10020333Y-38423857D02*
X-9753666Y-38423857D01*
X-9753666Y-38842904D02*
X-9753666Y-38042904D01*
X-10134619Y-38042904D01*
X-10363190Y-38042904D02*
X-10896523Y-38042904D01*
X-10553666Y-38842904D01*
X-9963190Y-46043857D02*
X-10077476Y-46081952D01*
X-10115571Y-46120047D01*
X-10153666Y-46196238D01*
X-10153666Y-46310523D01*
X-10115571Y-46386714D01*
X-10077476Y-46424809D01*
X-10001285Y-46462904D01*
X-9696523Y-46462904D01*
X-9696523Y-45662904D01*
X-9963190Y-45662904D01*
X-10039380Y-45701000D01*
X-10077476Y-45739095D01*
X-10115571Y-45815285D01*
X-10115571Y-45891476D01*
X-10077476Y-45967666D01*
X-10039380Y-46005761D01*
X-9963190Y-46043857D01*
X-9696523Y-46043857D01*
X-10458428Y-45739095D02*
X-10496523Y-45701000D01*
X-10572714Y-45662904D01*
X-10763190Y-45662904D01*
X-10839380Y-45701000D01*
X-10877476Y-45739095D01*
X-10915571Y-45815285D01*
X-10915571Y-45891476D01*
X-10877476Y-46005761D01*
X-10420333Y-46462904D01*
X-10915571Y-46462904D01*
X-17129395Y-20262904D02*
X-17586538Y-20262904D01*
X-17357967Y-21062904D02*
X-17357967Y-20262904D01*
X-17777014Y-20262904D02*
X-18310348Y-21062904D01*
X-18310348Y-20262904D02*
X-17777014Y-21062904D01*
X-18767491Y-20262904D02*
X-18843681Y-20262904D01*
X-18919872Y-20301000D01*
X-18957967Y-20339095D01*
X-18996062Y-20415285D01*
X-19034157Y-20567666D01*
X-19034157Y-20758142D01*
X-18996062Y-20910523D01*
X-18957967Y-20986714D01*
X-18919872Y-21024809D01*
X-18843681Y-21062904D01*
X-18767491Y-21062904D01*
X-18691300Y-21024809D01*
X-18653205Y-20986714D01*
X-18615110Y-20910523D01*
X-18577014Y-20758142D01*
X-18577014Y-20567666D01*
X-18615110Y-20415285D01*
X-18653205Y-20339095D01*
X-18691300Y-20301000D01*
X-18767491Y-20262904D01*
X-19948443Y-20224809D02*
X-19262729Y-21253380D01*
X-20215110Y-21062904D02*
X-20215110Y-20262904D01*
X-20405586Y-20262904D01*
X-20519872Y-20301000D01*
X-20596062Y-20377190D01*
X-20634157Y-20453380D01*
X-20672252Y-20605761D01*
X-20672252Y-20720047D01*
X-20634157Y-20872428D01*
X-20596062Y-20948619D01*
X-20519872Y-21024809D01*
X-20405586Y-21062904D01*
X-20215110Y-21062904D01*
X-20938919Y-20262904D02*
X-21434157Y-20262904D01*
X-21167491Y-20567666D01*
X-21281776Y-20567666D01*
X-21357967Y-20605761D01*
X-21396062Y-20643857D01*
X-21434157Y-20720047D01*
X-21434157Y-20910523D01*
X-21396062Y-20986714D01*
X-21357967Y-21024809D01*
X-21281776Y-21062904D01*
X-21053205Y-21062904D01*
X-20977014Y-21024809D01*
X-20938919Y-20986714D01*
X-10174666Y-26084809D02*
X-10288952Y-26122904D01*
X-10479428Y-26122904D01*
X-10555619Y-26084809D01*
X-10593714Y-26046714D01*
X-10631809Y-25970523D01*
X-10631809Y-25894333D01*
X-10593714Y-25818142D01*
X-10555619Y-25780047D01*
X-10479428Y-25741952D01*
X-10327047Y-25703857D01*
X-10250857Y-25665761D01*
X-10212761Y-25627666D01*
X-10174666Y-25551476D01*
X-10174666Y-25475285D01*
X-10212761Y-25399095D01*
X-10250857Y-25361000D01*
X-10327047Y-25322904D01*
X-10517523Y-25322904D01*
X-10631809Y-25361000D01*
X-10860380Y-25322904D02*
X-11317523Y-25322904D01*
X-11088952Y-26122904D02*
X-11088952Y-25322904D01*
X-10326869Y-63952380D02*
X-9993535Y-63476190D01*
X-9755440Y-63952380D02*
X-9755440Y-62952380D01*
X-10136392Y-62952380D01*
X-10231630Y-63000000D01*
X-10279250Y-63047619D01*
X-10326869Y-63142857D01*
X-10326869Y-63285714D01*
X-10279250Y-63380952D01*
X-10231630Y-63428571D01*
X-10136392Y-63476190D01*
X-9755440Y-63476190D01*
X-10755440Y-63428571D02*
X-11088773Y-63428571D01*
X-11231630Y-63952380D02*
X-10755440Y-63952380D01*
X-10755440Y-62952380D01*
X-11231630Y-62952380D01*
X-11612583Y-63904761D02*
X-11755440Y-63952380D01*
X-11993535Y-63952380D01*
X-12088773Y-63904761D01*
X-12136392Y-63857142D01*
X-12184011Y-63761904D01*
X-12184011Y-63666666D01*
X-12136392Y-63571428D01*
X-12088773Y-63523809D01*
X-11993535Y-63476190D01*
X-11803059Y-63428571D01*
X-11707821Y-63380952D01*
X-11660202Y-63333333D01*
X-11612583Y-63238095D01*
X-11612583Y-63142857D01*
X-11660202Y-63047619D01*
X-11707821Y-63000000D01*
X-11803059Y-62952380D01*
X-12041154Y-62952380D01*
X-12184011Y-63000000D01*
X-12612583Y-63428571D02*
X-12945916Y-63428571D01*
X-13088773Y-63952380D02*
X-12612583Y-63952380D01*
X-12612583Y-62952380D01*
X-13088773Y-62952380D01*
X-13374488Y-62952380D02*
X-13945916Y-62952380D01*
X-13660202Y-63952380D02*
X-13660202Y-62952380D01*
%LPC*%
D12*
X-17306250Y-72231250D03*
X-10306250Y-72231250D03*
D13*
X-23368000Y-20701000D03*
D14*
X-23368000Y-23241000D03*
X-23368000Y-25781000D03*
X-23368000Y-28321000D03*
X-23368000Y-30861000D03*
X-23368000Y-33401000D03*
X-23368000Y-35941000D03*
X-23368000Y-38481000D03*
X-23368000Y-41021000D03*
X-23368000Y-43561000D03*
X-23368000Y-46101000D03*
X-8128000Y-48641000D03*
X-8128000Y-46101000D03*
X-8128000Y-43561000D03*
X-8128000Y-41021000D03*
X-8128000Y-38481000D03*
X-8128000Y-35941000D03*
X-8128000Y-33401000D03*
X-8128000Y-30861000D03*
X-8128000Y-28321000D03*
X-8128000Y-25781000D03*
X-8128000Y-23241000D03*
X-23368000Y-48641000D03*
X-8128000Y-20701000D03*
D15*
X-8656250Y-65750000D03*
X-15156250Y-65750000D03*
X-15156250Y-61250000D03*
X-8656250Y-61250000D03*
D16*
X-31328295Y-115488591D03*
D17*
X-36068000Y-118618000D03*
D16*
X-38097557Y-114513295D03*
D18*
X-40467409Y-116078000D03*
X-31668591Y-121158000D03*
D16*
X-72866250Y-113982500D03*
D17*
X-75406250Y-119062500D03*
D16*
X-79216250Y-116522500D03*
D18*
X-80486250Y-119062500D03*
X-70326250Y-119062500D03*
D16*
X-91852750Y-94944500D03*
D17*
X-94392750Y-100024500D03*
D16*
X-98202750Y-97484500D03*
D18*
X-99472750Y-100024500D03*
X-89312750Y-100024500D03*
D16*
X-99060000Y-113982500D03*
D17*
X-101600000Y-119062500D03*
D16*
X-105410000Y-116522500D03*
D18*
X-106680000Y-119062500D03*
X-96520000Y-119062500D03*
D16*
X-122872500Y-113982500D03*
D17*
X-125412500Y-119062500D03*
D16*
X-129222500Y-116522500D03*
D18*
X-130492500Y-119062500D03*
X-120332500Y-119062500D03*
D16*
X-146685000Y-113982500D03*
D17*
X-149225000Y-119062500D03*
D16*
X-153035000Y-116522500D03*
D18*
X-154305000Y-119062500D03*
X-144145000Y-119062500D03*
D16*
X-21803295Y-98978591D03*
D17*
X-26543000Y-102108000D03*
D16*
X-28572557Y-98003295D03*
D18*
X-30942409Y-99568000D03*
X-22143591Y-104648000D03*
D16*
X-53816250Y-78486000D03*
D17*
X-56356250Y-83566000D03*
D16*
X-60166250Y-81026000D03*
D18*
X-61436250Y-83566000D03*
X-51276250Y-83566000D03*
D16*
X-72866250Y-77470000D03*
D17*
X-75406250Y-82550000D03*
D16*
X-79216250Y-80010000D03*
D18*
X-80486250Y-82550000D03*
X-70326250Y-82550000D03*
D16*
X-91916250Y-68707000D03*
D17*
X-94456250Y-73787000D03*
D16*
X-98266250Y-71247000D03*
D18*
X-99536250Y-73787000D03*
X-89376250Y-73787000D03*
D16*
X-110966250Y-76073000D03*
D17*
X-113506250Y-81153000D03*
D16*
X-117316250Y-78613000D03*
D18*
X-118586250Y-81153000D03*
X-108426250Y-81153000D03*
D16*
X-130016250Y-94932500D03*
D17*
X-132556250Y-100012500D03*
D16*
X-136366250Y-97472500D03*
D18*
X-137636250Y-100012500D03*
X-127476250Y-100012500D03*
D16*
X-149066250Y-94932500D03*
D17*
X-151606250Y-100012500D03*
D16*
X-155416250Y-97472500D03*
D18*
X-156686250Y-100012500D03*
X-146526250Y-100012500D03*
D16*
X-42386250Y-47688500D03*
D17*
X-37306250Y-50228500D03*
D16*
X-39846250Y-54038500D03*
D18*
X-37306250Y-55308500D03*
X-37306250Y-45148500D03*
D16*
X-53816250Y-59436000D03*
D17*
X-56356250Y-64516000D03*
D16*
X-60166250Y-61976000D03*
D18*
X-61436250Y-64516000D03*
X-51276250Y-64516000D03*
D16*
X-72866250Y-58420000D03*
D17*
X-75406250Y-63500000D03*
D16*
X-79216250Y-60960000D03*
D18*
X-80486250Y-63500000D03*
X-70326250Y-63500000D03*
D16*
X-91916250Y-49657000D03*
D17*
X-94456250Y-54737000D03*
D16*
X-98266250Y-52197000D03*
D18*
X-99536250Y-54737000D03*
X-89376250Y-54737000D03*
D16*
X-110966250Y-57023000D03*
D17*
X-113506250Y-62103000D03*
D16*
X-117316250Y-59563000D03*
D18*
X-118586250Y-62103000D03*
X-108426250Y-62103000D03*
D16*
X-130016250Y-75882500D03*
D17*
X-132556250Y-80962500D03*
D16*
X-136366250Y-78422500D03*
D18*
X-137636250Y-80962500D03*
X-127476250Y-80962500D03*
D16*
X-149066250Y-75882500D03*
D17*
X-151606250Y-80962500D03*
D16*
X-155416250Y-78422500D03*
D18*
X-156686250Y-80962500D03*
X-146526250Y-80962500D03*
D16*
X-53816250Y-40386000D03*
D17*
X-56356250Y-45466000D03*
D16*
X-60166250Y-42926000D03*
D18*
X-61436250Y-45466000D03*
X-51276250Y-45466000D03*
D16*
X-72866250Y-39370000D03*
D17*
X-75406250Y-44450000D03*
D16*
X-79216250Y-41910000D03*
D18*
X-80486250Y-44450000D03*
X-70326250Y-44450000D03*
D16*
X-91916250Y-30607000D03*
D17*
X-94456250Y-35687000D03*
D16*
X-98266250Y-33147000D03*
D18*
X-99536250Y-35687000D03*
X-89376250Y-35687000D03*
D16*
X-110966250Y-37973000D03*
D17*
X-113506250Y-43053000D03*
D16*
X-117316250Y-40513000D03*
D18*
X-118586250Y-43053000D03*
X-108426250Y-43053000D03*
D16*
X-130016250Y-56832500D03*
D17*
X-132556250Y-61912500D03*
D16*
X-136366250Y-59372500D03*
D18*
X-137636250Y-61912500D03*
X-127476250Y-61912500D03*
D16*
X-149066250Y-56832500D03*
D17*
X-151606250Y-61912500D03*
D16*
X-155416250Y-59372500D03*
D18*
X-156686250Y-61912500D03*
X-146526250Y-61912500D03*
D16*
X-34766250Y-21336000D03*
D17*
X-37306250Y-26416000D03*
D16*
X-41116250Y-23876000D03*
D18*
X-42386250Y-26416000D03*
X-32226250Y-26416000D03*
D16*
X-53816250Y-21336000D03*
D17*
X-56356250Y-26416000D03*
D16*
X-60166250Y-23876000D03*
D18*
X-61436250Y-26416000D03*
X-51276250Y-26416000D03*
D16*
X-72866250Y-20320000D03*
D17*
X-75406250Y-25400000D03*
D16*
X-79216250Y-22860000D03*
D18*
X-80486250Y-25400000D03*
X-70326250Y-25400000D03*
D16*
X-91916250Y-11557000D03*
D17*
X-94456250Y-16637000D03*
D16*
X-98266250Y-14097000D03*
D18*
X-99536250Y-16637000D03*
X-89376250Y-16637000D03*
D16*
X-110966250Y-18923000D03*
D17*
X-113506250Y-24003000D03*
D16*
X-117316250Y-21463000D03*
D18*
X-118586250Y-24003000D03*
X-108426250Y-24003000D03*
D16*
X-130016250Y-37782500D03*
D17*
X-132556250Y-42862500D03*
D16*
X-136366250Y-40322500D03*
D18*
X-137636250Y-42862500D03*
X-127476250Y-42862500D03*
D16*
X-149066250Y-37782500D03*
D17*
X-151606250Y-42862500D03*
D16*
X-155416250Y-40322500D03*
D18*
X-156686250Y-42862500D03*
X-146526250Y-42862500D03*
M02*
