G04 #@! TF.GenerationSoftware,KiCad,Pcbnew,5.1.10*
G04 #@! TF.CreationDate,2021-06-15T23:50:52-04:00*
G04 #@! TF.ProjectId,attempt2,61747465-6d70-4743-922e-6b696361645f,rev?*
G04 #@! TF.SameCoordinates,Original*
G04 #@! TF.FileFunction,Copper,L2,Bot*
G04 #@! TF.FilePolarity,Positive*
%FSLAX46Y46*%
G04 Gerber Fmt 4.6, Leading zero omitted, Abs format (unit mm)*
G04 Created by KiCad (PCBNEW 5.1.10) date 2021-06-15 23:50:52*
%MOMM*%
%LPD*%
G01*
G04 APERTURE LIST*
G04 #@! TA.AperFunction,ComponentPad*
%ADD10R,1.752600X1.752600*%
G04 #@! TD*
G04 #@! TA.AperFunction,ComponentPad*
%ADD11C,1.752600*%
G04 #@! TD*
G04 #@! TA.AperFunction,ComponentPad*
%ADD12C,2.000000*%
G04 #@! TD*
G04 #@! TA.AperFunction,ComponentPad*
%ADD13C,2.250000*%
G04 #@! TD*
G04 #@! TA.AperFunction,ViaPad*
%ADD14C,0.800000*%
G04 #@! TD*
G04 #@! TA.AperFunction,Conductor*
%ADD15C,0.250000*%
G04 #@! TD*
G04 #@! TA.AperFunction,Conductor*
%ADD16C,0.254000*%
G04 #@! TD*
G04 #@! TA.AperFunction,Conductor*
%ADD17C,0.100000*%
G04 #@! TD*
G04 APERTURE END LIST*
D10*
X-23368000Y-20701000D03*
D11*
X-23368000Y-23241000D03*
X-23368000Y-25781000D03*
X-23368000Y-28321000D03*
X-23368000Y-30861000D03*
X-23368000Y-33401000D03*
X-23368000Y-35941000D03*
X-23368000Y-38481000D03*
X-23368000Y-41021000D03*
X-23368000Y-43561000D03*
X-23368000Y-46101000D03*
X-8128000Y-48641000D03*
X-8128000Y-46101000D03*
X-8128000Y-43561000D03*
X-8128000Y-41021000D03*
X-8128000Y-38481000D03*
X-8128000Y-35941000D03*
X-8128000Y-33401000D03*
X-8128000Y-30861000D03*
X-8128000Y-28321000D03*
X-8128000Y-25781000D03*
X-8128000Y-23241000D03*
X-23368000Y-48641000D03*
X-8128000Y-20701000D03*
D12*
X-8656250Y-65750000D03*
X-15156250Y-65750000D03*
X-15156250Y-61250000D03*
X-8656250Y-61250000D03*
D13*
X-31328295Y-115488591D03*
X-38097557Y-114513295D03*
X-72866250Y-113982500D03*
X-79216250Y-116522500D03*
X-91852750Y-94944500D03*
X-98202750Y-97484500D03*
X-99060000Y-113982500D03*
X-105410000Y-116522500D03*
X-122872500Y-113982500D03*
X-129222500Y-116522500D03*
X-146685000Y-113982500D03*
X-153035000Y-116522500D03*
X-21803295Y-98978591D03*
X-28572557Y-98003295D03*
X-53816250Y-78486000D03*
X-60166250Y-81026000D03*
X-72866250Y-77470000D03*
X-79216250Y-80010000D03*
X-91916250Y-68707000D03*
X-98266250Y-71247000D03*
X-110966250Y-76073000D03*
X-117316250Y-78613000D03*
X-130016250Y-94932500D03*
X-136366250Y-97472500D03*
X-149066250Y-94932500D03*
X-155416250Y-97472500D03*
X-42386250Y-47688500D03*
X-39846250Y-54038500D03*
X-53816250Y-59436000D03*
X-60166250Y-61976000D03*
X-72866250Y-58420000D03*
X-79216250Y-60960000D03*
X-91916250Y-49657000D03*
X-98266250Y-52197000D03*
X-110966250Y-57023000D03*
X-117316250Y-59563000D03*
X-130016250Y-75882500D03*
X-136366250Y-78422500D03*
X-149066250Y-75882500D03*
X-155416250Y-78422500D03*
X-53816250Y-40386000D03*
X-60166250Y-42926000D03*
X-72866250Y-39370000D03*
X-79216250Y-41910000D03*
X-91916250Y-30607000D03*
X-98266250Y-33147000D03*
X-110966250Y-37973000D03*
X-117316250Y-40513000D03*
X-130016250Y-56832500D03*
X-136366250Y-59372500D03*
X-149066250Y-56832500D03*
X-155416250Y-59372500D03*
X-34766250Y-21336000D03*
X-41116250Y-23876000D03*
X-53816250Y-21336000D03*
X-60166250Y-23876000D03*
X-72866250Y-20320000D03*
X-79216250Y-22860000D03*
X-91916250Y-11557000D03*
X-98266250Y-14097000D03*
X-110966250Y-18923000D03*
X-117316250Y-21463000D03*
X-130016250Y-37782500D03*
X-136366250Y-40322500D03*
X-149066250Y-37782500D03*
X-155416250Y-40322500D03*
D14*
X-65881250Y-36512500D03*
X-65881250Y-55562500D03*
X-65881250Y-73818750D03*
X-65881250Y-92868750D03*
X-54037500Y-120712500D03*
X-112712500Y-32543750D03*
X-108743750Y-26987500D03*
X-82550000Y-13493750D03*
X-95250000Y-21431250D03*
X-111918750Y-33337500D03*
X-107156250Y-27781250D03*
X-94456250Y-23812500D03*
X-77787500Y-15081250D03*
X-17584338Y-14409338D03*
X-19050000Y-19843750D03*
X-19050000Y-39687500D03*
X-41275000Y-65881250D03*
X-36512500Y-65881250D03*
X-13493750Y-78581250D03*
X-26193750Y-63500000D03*
X-22943750Y-75481250D03*
X-22943750Y-61193750D03*
D15*
X-65881250Y-36512500D02*
X-49212500Y-36512500D01*
X-49212500Y-36512500D02*
X-48418750Y-36512500D01*
X-48418750Y-36512500D02*
X-47625000Y-35718750D01*
X-47625000Y-35718750D02*
X-47625000Y-34131250D01*
X-47625000Y-35718750D02*
X-46831250Y-36512500D01*
X-46831250Y-36512500D02*
X-29368750Y-36512500D01*
X-29368750Y-36512500D02*
X-28575000Y-35718750D01*
X-28575000Y-35718750D02*
X-28575000Y-34131250D01*
X-25812750Y-38481000D02*
X-23368000Y-38481000D01*
X-28575000Y-35718750D02*
X-25812750Y-38481000D01*
X-65881250Y-55562500D02*
X-48418750Y-55562500D01*
X-48418750Y-55562500D02*
X-47625000Y-54768750D01*
X-47625000Y-54768750D02*
X-47625000Y-53181250D01*
X-47625000Y-53181250D02*
X-45243750Y-53181250D01*
X-45243750Y-53181250D02*
X-45243750Y-38893750D01*
X-45243750Y-38893750D02*
X-27781250Y-38893750D01*
X-25654000Y-41021000D02*
X-23368000Y-41021000D01*
X-27781250Y-38893750D02*
X-25654000Y-41021000D01*
X-65881250Y-73818750D02*
X-48418750Y-73818750D01*
X-48418750Y-73818750D02*
X-47625000Y-73025000D01*
X-47625000Y-73025000D02*
X-47625000Y-72231250D01*
X-25844500Y-46037500D02*
X-23368000Y-43561000D01*
X-29368750Y-59531250D02*
X-29368750Y-46037500D01*
X-31750000Y-61912500D02*
X-29368750Y-59531250D01*
X-42068750Y-61912500D02*
X-31750000Y-61912500D01*
X-42068750Y-69056250D02*
X-42068750Y-61912500D01*
X-46831250Y-73818750D02*
X-42068750Y-69056250D01*
X-29368750Y-46037500D02*
X-25844500Y-46037500D01*
X-47625000Y-73025000D02*
X-46831250Y-73818750D01*
X-65881250Y-92868750D02*
X-65881250Y-94456250D01*
X-65881250Y-94456250D02*
X-65087500Y-95250000D01*
X-65087500Y-95250000D02*
X-49212500Y-95250000D01*
X-49212500Y-95250000D02*
X-47625000Y-93662500D01*
X-47625000Y-93662500D02*
X-47625000Y-91281250D01*
X-26987500Y-49720500D02*
X-23368000Y-46101000D01*
X-36512500Y-69056250D02*
X-26987500Y-59531250D01*
X-26987500Y-59531250D02*
X-26987500Y-49720500D01*
X-36512500Y-95250000D02*
X-36512500Y-69056250D01*
X-46037500Y-95250000D02*
X-36512500Y-95250000D01*
X-47625000Y-93662500D02*
X-46037500Y-95250000D01*
X-23368000Y-58293000D02*
X-23368000Y-48641000D01*
X-54037500Y-120712500D02*
X-54037500Y-119125000D01*
X-48418750Y-104775000D02*
X-33337500Y-104775000D01*
X-54037500Y-119125000D02*
X-45243750Y-110331250D01*
X-50006250Y-106362500D02*
X-48418750Y-104775000D01*
X-45243750Y-110331250D02*
X-50006250Y-110331250D01*
X-50006250Y-110331250D02*
X-50006250Y-106362500D01*
X-33337500Y-84137500D02*
X-34925000Y-82550000D01*
X-33337500Y-95250000D02*
X-30956250Y-95250000D01*
X-33337500Y-104775000D02*
X-33337500Y-95250000D01*
X-30956250Y-95250000D02*
X-30956250Y-84137500D01*
X-30956250Y-84137500D02*
X-33337500Y-84137500D01*
X-34925000Y-82550000D02*
X-34925000Y-69850000D01*
X-34925000Y-69850000D02*
X-23368000Y-58293000D01*
X-112712500Y-32543750D02*
X-112712500Y-30956250D01*
X-112712500Y-30956250D02*
X-108743750Y-26987500D01*
X-108743750Y-26987500D02*
X-108743750Y-26987500D01*
X-82550000Y-13493750D02*
X-82550000Y-13493750D01*
X-95250000Y-21431250D02*
X-90487500Y-21431250D01*
X-90487500Y-21431250D02*
X-82550000Y-13493750D01*
X-136366250Y-40322500D02*
X-139541250Y-40322500D01*
X-139541250Y-40322500D02*
X-140493750Y-41275000D01*
X-139382500Y-94456250D02*
X-136366250Y-97472500D01*
X-140493750Y-94456250D02*
X-139382500Y-94456250D01*
X-140176250Y-74612500D02*
X-140493750Y-74612500D01*
X-136366250Y-78422500D02*
X-140176250Y-74612500D01*
X-140493750Y-55245000D02*
X-140493750Y-54768750D01*
X-136366250Y-59372500D02*
X-140493750Y-55245000D01*
X-140493750Y-54768750D02*
X-140493750Y-74612500D01*
X-140493750Y-41275000D02*
X-140493750Y-54768750D01*
X-129222500Y-116522500D02*
X-131921250Y-116522500D01*
X-140493750Y-107950000D02*
X-140493750Y-93662500D01*
X-131921250Y-116522500D02*
X-140493750Y-107950000D01*
X-140493750Y-93662500D02*
X-140493750Y-94456250D01*
X-140493750Y-74612500D02*
X-140493750Y-93662500D01*
X-111918750Y-33337500D02*
X-111918750Y-32543750D01*
X-111918750Y-32543750D02*
X-107156250Y-27781250D01*
X-107156250Y-27781250D02*
X-107156250Y-27781250D01*
X-94456250Y-23812500D02*
X-91281250Y-23812500D01*
X-91281250Y-23812500D02*
X-89693750Y-22225000D01*
X-89693750Y-22225000D02*
X-82550000Y-15081250D01*
X-82550000Y-15081250D02*
X-77787500Y-15081250D01*
X-77787500Y-15081250D02*
X-77787500Y-15081250D01*
X-120650000Y-75279250D02*
X-117316250Y-78613000D01*
X-120618250Y-21463000D02*
X-120650000Y-21494750D01*
X-117316250Y-21463000D02*
X-120618250Y-21463000D01*
X-120523000Y-56356250D02*
X-120650000Y-56356250D01*
X-117316250Y-59563000D02*
X-120523000Y-56356250D01*
X-117316250Y-40513000D02*
X-120650000Y-37179250D01*
X-120650000Y-35718750D02*
X-120650000Y-56356250D01*
X-120650000Y-37179250D02*
X-120650000Y-35718750D01*
X-120650000Y-21494750D02*
X-120650000Y-35718750D01*
X-105410000Y-116522500D02*
X-108108750Y-116522500D01*
X-108108750Y-116522500D02*
X-120650000Y-103981250D01*
X-120650000Y-103981250D02*
X-120650000Y-74612500D01*
X-120650000Y-74612500D02*
X-120650000Y-75279250D01*
X-120650000Y-56356250D02*
X-120650000Y-74612500D01*
X-111125000Y-13493750D02*
X-103187500Y-13493750D01*
X-117316250Y-21463000D02*
X-117316250Y-19685000D01*
X-117316250Y-19685000D02*
X-111125000Y-13493750D01*
X-73818750Y-14287500D02*
X-17706176Y-14287500D01*
X-103187500Y-13493750D02*
X-99218750Y-9525000D01*
X-99218750Y-9525000D02*
X-99218750Y-7143750D01*
X-99218750Y-7143750D02*
X-80962500Y-7143750D01*
X-80962500Y-7143750D02*
X-73818750Y-14287500D01*
X-98266250Y-14097000D02*
X-101409500Y-14097000D01*
X-98202750Y-95885000D02*
X-98202750Y-97484500D01*
X-101409500Y-92678250D02*
X-98202750Y-95885000D01*
X-101409500Y-30003750D02*
X-101409500Y-28765500D01*
X-98266250Y-33147000D02*
X-101409500Y-30003750D01*
X-101409500Y-14097000D02*
X-101409500Y-28765500D01*
X-98266250Y-49784000D02*
X-101409500Y-46640750D01*
X-98266250Y-52197000D02*
X-98266250Y-49784000D01*
X-101409500Y-28765500D02*
X-101409500Y-46640750D01*
X-98266250Y-68421250D02*
X-101409500Y-65278000D01*
X-98266250Y-71247000D02*
X-98266250Y-68421250D01*
X-101409500Y-65278000D02*
X-101409500Y-92678250D01*
X-101409500Y-46640750D02*
X-101409500Y-65278000D01*
X-19050000Y-15081250D02*
X-19050000Y-19843750D01*
X-81756250Y-7937500D02*
X-74612500Y-15081250D01*
X-74612500Y-15081250D02*
X-19050000Y-15081250D01*
X-97631250Y-7937500D02*
X-81756250Y-7937500D01*
X-98266250Y-8572500D02*
X-97631250Y-7937500D01*
X-98266250Y-14097000D02*
X-98266250Y-8572500D01*
X-9461500Y-39687500D02*
X-8128000Y-41021000D01*
X-19050000Y-39687500D02*
X-9461500Y-39687500D01*
X-82550000Y-76676250D02*
X-79216250Y-80010000D01*
X-82391250Y-22860000D02*
X-82550000Y-23018750D01*
X-79216250Y-22860000D02*
X-82391250Y-22860000D01*
X-79216250Y-116522500D02*
X-81438750Y-114300000D01*
X-81438750Y-114300000D02*
X-82550000Y-114300000D01*
X-82550000Y-114300000D02*
X-82550000Y-73818750D01*
X-82550000Y-73818750D02*
X-82550000Y-73025000D01*
X-82550000Y-73025000D02*
X-82550000Y-76676250D01*
X-82550000Y-57626250D02*
X-82550000Y-57150000D01*
X-79216250Y-60960000D02*
X-82550000Y-57626250D01*
X-82550000Y-57150000D02*
X-82550000Y-73025000D01*
X-82232500Y-38893750D02*
X-82550000Y-38893750D01*
X-79216250Y-41910000D02*
X-82232500Y-38893750D01*
X-82550000Y-38893750D02*
X-82550000Y-57150000D01*
X-82550000Y-23018750D02*
X-82550000Y-38893750D01*
X-41275000Y-65881250D02*
X-36512500Y-65881250D01*
X-36512500Y-65881250D02*
X-36512500Y-65881250D01*
X-13493750Y-78581250D02*
X-24606250Y-78581250D01*
X-24606250Y-78581250D02*
X-24606250Y-65087500D01*
X-24606250Y-65087500D02*
X-26193750Y-63500000D01*
X-26193750Y-63500000D02*
X-26193750Y-63500000D01*
X-22943750Y-75481250D02*
X-22943750Y-61193750D01*
X-22943750Y-61193750D02*
X-22943750Y-61193750D01*
X-20006250Y-31682750D02*
X-23368000Y-28321000D01*
X-20006250Y-68981250D02*
X-20006250Y-66043750D01*
X-20006250Y-66043750D02*
X-20006250Y-65918750D01*
X-15156250Y-65750000D02*
X-19975000Y-65750000D01*
X-19975000Y-65750000D02*
X-20006250Y-65718750D01*
X-20006250Y-65718750D02*
X-20006250Y-31682750D01*
X-20006250Y-66043750D02*
X-20006250Y-65718750D01*
X-8656250Y-65750000D02*
X-11112500Y-68206250D01*
X-11112500Y-68206250D02*
X-17406250Y-68206250D01*
X-19568750Y-66043750D02*
X-20006250Y-66043750D01*
X-17406250Y-68206250D02*
X-19568750Y-66043750D01*
X-23368000Y-28321000D02*
X-23368000Y-25781000D01*
X-10668000Y-25781000D02*
X-8128000Y-23241000D01*
X-23368000Y-25781000D02*
X-10668000Y-25781000D01*
X-15156250Y-61250000D02*
X-11906250Y-58000000D01*
X-8656250Y-58018750D02*
X-8675000Y-58000000D01*
X-8656250Y-61250000D02*
X-8656250Y-58018750D01*
X-8675000Y-58000000D02*
X-5612500Y-58000000D01*
X-11906250Y-58000000D02*
X-8675000Y-58000000D01*
X-7551375Y-34739699D02*
X-10504051Y-34739699D01*
X-5612500Y-36678574D02*
X-7551375Y-34739699D01*
X-5612500Y-58000000D02*
X-5612500Y-36678574D01*
X-10504051Y-28157051D02*
X-8128000Y-25781000D01*
X-10504051Y-34739699D02*
X-10504051Y-28157051D01*
D16*
X-5660624Y-13568982D02*
X-4878459Y-15133312D01*
X-3302266Y-19073795D01*
X-4094377Y-91948000D01*
X-15841273Y-91948000D01*
X-26860500Y-85651299D01*
X-26860500Y-64296961D01*
X-26853524Y-64303937D01*
X-26684006Y-64417205D01*
X-26495648Y-64495226D01*
X-26295689Y-64535000D01*
X-26233551Y-64535000D01*
X-25366249Y-65402303D01*
X-25366250Y-78543917D01*
X-25369927Y-78581250D01*
X-25355253Y-78730236D01*
X-25311796Y-78873497D01*
X-25241224Y-79005526D01*
X-25146251Y-79121251D01*
X-25030526Y-79216224D01*
X-24898497Y-79286796D01*
X-24755236Y-79330253D01*
X-24606250Y-79344927D01*
X-24568917Y-79341250D01*
X-14197461Y-79341250D01*
X-14153524Y-79385187D01*
X-13984006Y-79498455D01*
X-13795648Y-79576476D01*
X-13595689Y-79616250D01*
X-13391811Y-79616250D01*
X-13191852Y-79576476D01*
X-13003494Y-79498455D01*
X-12833976Y-79385187D01*
X-12689813Y-79241024D01*
X-12576545Y-79071506D01*
X-12498524Y-78883148D01*
X-12458750Y-78683189D01*
X-12458750Y-78479311D01*
X-12498524Y-78279352D01*
X-12576545Y-78090994D01*
X-12689813Y-77921476D01*
X-12833976Y-77777313D01*
X-13003494Y-77664045D01*
X-13191852Y-77586024D01*
X-13391811Y-77546250D01*
X-13595689Y-77546250D01*
X-13795648Y-77586024D01*
X-13984006Y-77664045D01*
X-14153524Y-77777313D01*
X-14197461Y-77821250D01*
X-23846250Y-77821250D01*
X-23846250Y-75993514D01*
X-23747687Y-76141024D01*
X-23603524Y-76285187D01*
X-23434006Y-76398455D01*
X-23245648Y-76476476D01*
X-23045689Y-76516250D01*
X-22841811Y-76516250D01*
X-22641852Y-76476476D01*
X-22453494Y-76398455D01*
X-22283976Y-76285187D01*
X-22139813Y-76141024D01*
X-22026545Y-75971506D01*
X-21948524Y-75783148D01*
X-21908750Y-75583189D01*
X-21908750Y-75379311D01*
X-21948524Y-75179352D01*
X-22026545Y-74990994D01*
X-22139813Y-74821476D01*
X-22183750Y-74777539D01*
X-22183750Y-72094839D01*
X-18691250Y-72094839D01*
X-18691250Y-72367661D01*
X-18638025Y-72635239D01*
X-18533621Y-72887293D01*
X-18382049Y-73114136D01*
X-18189136Y-73307049D01*
X-17962293Y-73458621D01*
X-17710239Y-73563025D01*
X-17442661Y-73616250D01*
X-17169839Y-73616250D01*
X-16902261Y-73563025D01*
X-16650207Y-73458621D01*
X-16423364Y-73307049D01*
X-16230451Y-73114136D01*
X-16078879Y-72887293D01*
X-15974475Y-72635239D01*
X-15921250Y-72367661D01*
X-15921250Y-72094839D01*
X-11691250Y-72094839D01*
X-11691250Y-72367661D01*
X-11638025Y-72635239D01*
X-11533621Y-72887293D01*
X-11382049Y-73114136D01*
X-11189136Y-73307049D01*
X-10962293Y-73458621D01*
X-10710239Y-73563025D01*
X-10442661Y-73616250D01*
X-10169839Y-73616250D01*
X-9902261Y-73563025D01*
X-9650207Y-73458621D01*
X-9423364Y-73307049D01*
X-9230451Y-73114136D01*
X-9078879Y-72887293D01*
X-8974475Y-72635239D01*
X-8921250Y-72367661D01*
X-8921250Y-72094839D01*
X-8974475Y-71827261D01*
X-9078879Y-71575207D01*
X-9230451Y-71348364D01*
X-9423364Y-71155451D01*
X-9650207Y-71003879D01*
X-9902261Y-70899475D01*
X-10169839Y-70846250D01*
X-10442661Y-70846250D01*
X-10710239Y-70899475D01*
X-10962293Y-71003879D01*
X-11189136Y-71155451D01*
X-11382049Y-71348364D01*
X-11533621Y-71575207D01*
X-11638025Y-71827261D01*
X-11691250Y-72094839D01*
X-15921250Y-72094839D01*
X-15974475Y-71827261D01*
X-16078879Y-71575207D01*
X-16230451Y-71348364D01*
X-16423364Y-71155451D01*
X-16650207Y-71003879D01*
X-16902261Y-70899475D01*
X-17169839Y-70846250D01*
X-17442661Y-70846250D01*
X-17710239Y-70899475D01*
X-17962293Y-71003879D01*
X-18189136Y-71155451D01*
X-18382049Y-71348364D01*
X-18533621Y-71575207D01*
X-18638025Y-71827261D01*
X-18691250Y-72094839D01*
X-22183750Y-72094839D01*
X-22183750Y-66885413D01*
X-16112058Y-66885413D01*
X-16016294Y-67149814D01*
X-15726679Y-67290704D01*
X-15415142Y-67372384D01*
X-15093655Y-67391718D01*
X-14774575Y-67347961D01*
X-14470162Y-67242795D01*
X-14296206Y-67149814D01*
X-14200442Y-66885413D01*
X-9612058Y-66885413D01*
X-9516294Y-67149814D01*
X-9226679Y-67290704D01*
X-8915142Y-67372384D01*
X-8593655Y-67391718D01*
X-8274575Y-67347961D01*
X-7970162Y-67242795D01*
X-7796206Y-67149814D01*
X-7700442Y-66885413D01*
X-8656250Y-65929605D01*
X-9612058Y-66885413D01*
X-14200442Y-66885413D01*
X-15156250Y-65929605D01*
X-16112058Y-66885413D01*
X-22183750Y-66885413D01*
X-22183750Y-65812595D01*
X-16797968Y-65812595D01*
X-16754211Y-66131675D01*
X-16649045Y-66436088D01*
X-16556064Y-66610044D01*
X-16291663Y-66705808D01*
X-15335855Y-65750000D01*
X-14976645Y-65750000D01*
X-14020837Y-66705808D01*
X-13756436Y-66610044D01*
X-13615546Y-66320429D01*
X-13533866Y-66008892D01*
X-13522061Y-65812595D01*
X-10297968Y-65812595D01*
X-10254211Y-66131675D01*
X-10149045Y-66436088D01*
X-10056064Y-66610044D01*
X-9791663Y-66705808D01*
X-8835855Y-65750000D01*
X-8476645Y-65750000D01*
X-7520837Y-66705808D01*
X-7256436Y-66610044D01*
X-7115546Y-66320429D01*
X-7033866Y-66008892D01*
X-7014532Y-65687405D01*
X-7058289Y-65368325D01*
X-7163455Y-65063912D01*
X-7256436Y-64889956D01*
X-7520837Y-64794192D01*
X-8476645Y-65750000D01*
X-8835855Y-65750000D01*
X-9791663Y-64794192D01*
X-10056064Y-64889956D01*
X-10196954Y-65179571D01*
X-10278634Y-65491108D01*
X-10297968Y-65812595D01*
X-13522061Y-65812595D01*
X-13514532Y-65687405D01*
X-13558289Y-65368325D01*
X-13663455Y-65063912D01*
X-13756436Y-64889956D01*
X-14020837Y-64794192D01*
X-14976645Y-65750000D01*
X-15335855Y-65750000D01*
X-16291663Y-64794192D01*
X-16556064Y-64889956D01*
X-16696954Y-65179571D01*
X-16778634Y-65491108D01*
X-16797968Y-65812595D01*
X-22183750Y-65812595D01*
X-22183750Y-64614587D01*
X-16112058Y-64614587D01*
X-15156250Y-65570395D01*
X-14200442Y-64614587D01*
X-9612058Y-64614587D01*
X-8656250Y-65570395D01*
X-7700442Y-64614587D01*
X-7796206Y-64350186D01*
X-8085821Y-64209296D01*
X-8397358Y-64127616D01*
X-8718845Y-64108282D01*
X-9037925Y-64152039D01*
X-9342338Y-64257205D01*
X-9516294Y-64350186D01*
X-9612058Y-64614587D01*
X-14200442Y-64614587D01*
X-14296206Y-64350186D01*
X-14585821Y-64209296D01*
X-14897358Y-64127616D01*
X-15218845Y-64108282D01*
X-15537925Y-64152039D01*
X-15842338Y-64257205D01*
X-16016294Y-64350186D01*
X-16112058Y-64614587D01*
X-22183750Y-64614587D01*
X-22183750Y-61897461D01*
X-22139813Y-61853524D01*
X-22026545Y-61684006D01*
X-21948524Y-61495648D01*
X-21908750Y-61295689D01*
X-21908750Y-61091811D01*
X-21948524Y-60891852D01*
X-22026545Y-60703494D01*
X-22139813Y-60533976D01*
X-22283976Y-60389813D01*
X-22453494Y-60276545D01*
X-22641852Y-60198524D01*
X-22841811Y-60158750D01*
X-23045689Y-60158750D01*
X-23245648Y-60198524D01*
X-23434006Y-60276545D01*
X-23603524Y-60389813D01*
X-23747687Y-60533976D01*
X-23860955Y-60703494D01*
X-23938976Y-60891852D01*
X-23978750Y-61091811D01*
X-23978750Y-61295689D01*
X-23938976Y-61495648D01*
X-23860955Y-61684006D01*
X-23747687Y-61853524D01*
X-23703749Y-61897462D01*
X-23703750Y-74777539D01*
X-23747687Y-74821476D01*
X-23846250Y-74968986D01*
X-23846250Y-65124822D01*
X-23842574Y-65087499D01*
X-23846250Y-65050176D01*
X-23846250Y-65050167D01*
X-23857247Y-64938514D01*
X-23900704Y-64795253D01*
X-23901271Y-64794192D01*
X-23971276Y-64663223D01*
X-24042451Y-64576497D01*
X-24066249Y-64547499D01*
X-24095247Y-64523701D01*
X-25158750Y-63460199D01*
X-25158750Y-63398061D01*
X-25198524Y-63198102D01*
X-25276545Y-63009744D01*
X-25389813Y-62840226D01*
X-25533976Y-62696063D01*
X-25703494Y-62582795D01*
X-25891852Y-62504774D01*
X-26091811Y-62465000D01*
X-26295689Y-62465000D01*
X-26495648Y-62504774D01*
X-26511566Y-62511367D01*
X-22856996Y-58856798D01*
X-22827999Y-58833001D01*
X-22771106Y-58763677D01*
X-22733026Y-58717277D01*
X-22662454Y-58585247D01*
X-22639933Y-58511003D01*
X-22618997Y-58441986D01*
X-22608000Y-58330333D01*
X-22608000Y-58330324D01*
X-22604324Y-58293001D01*
X-22608000Y-58255678D01*
X-22608000Y-49950810D01*
X-22404602Y-49814904D01*
X-22194096Y-49604398D01*
X-22028703Y-49356869D01*
X-21914778Y-49081830D01*
X-21856700Y-48789850D01*
X-21856700Y-48492150D01*
X-21914778Y-48200170D01*
X-22028703Y-47925131D01*
X-22194096Y-47677602D01*
X-22404602Y-47467096D01*
X-22548420Y-47371000D01*
X-22404602Y-47274904D01*
X-22194096Y-47064398D01*
X-22028703Y-46816869D01*
X-21914778Y-46541830D01*
X-21856700Y-46249850D01*
X-21856700Y-45952150D01*
X-21914778Y-45660170D01*
X-22028703Y-45385131D01*
X-22194096Y-45137602D01*
X-22404602Y-44927096D01*
X-22548420Y-44831000D01*
X-22404602Y-44734904D01*
X-22194096Y-44524398D01*
X-22028703Y-44276869D01*
X-21914778Y-44001830D01*
X-21856700Y-43709850D01*
X-21856700Y-43412150D01*
X-21914778Y-43120170D01*
X-22028703Y-42845131D01*
X-22194096Y-42597602D01*
X-22404602Y-42387096D01*
X-22548420Y-42291000D01*
X-22404602Y-42194904D01*
X-22194096Y-41984398D01*
X-22028703Y-41736869D01*
X-21914778Y-41461830D01*
X-21856700Y-41169850D01*
X-21856700Y-40872150D01*
X-21914778Y-40580170D01*
X-22028703Y-40305131D01*
X-22194096Y-40057602D01*
X-22404602Y-39847096D01*
X-22548420Y-39751000D01*
X-22404602Y-39654904D01*
X-22335259Y-39585561D01*
X-20085000Y-39585561D01*
X-20085000Y-39789439D01*
X-20045226Y-39989398D01*
X-19967205Y-40177756D01*
X-19853937Y-40347274D01*
X-19709774Y-40491437D01*
X-19540256Y-40604705D01*
X-19351898Y-40682726D01*
X-19151939Y-40722500D01*
X-18948061Y-40722500D01*
X-18748102Y-40682726D01*
X-18559744Y-40604705D01*
X-18390226Y-40491437D01*
X-18346289Y-40447500D01*
X-9776301Y-40447500D01*
X-9591576Y-40632225D01*
X-9639300Y-40872150D01*
X-9639300Y-41169850D01*
X-9581222Y-41461830D01*
X-9467297Y-41736869D01*
X-9301904Y-41984398D01*
X-9091398Y-42194904D01*
X-8947580Y-42291000D01*
X-9091398Y-42387096D01*
X-9301904Y-42597602D01*
X-9467297Y-42845131D01*
X-9581222Y-43120170D01*
X-9639300Y-43412150D01*
X-9639300Y-43709850D01*
X-9581222Y-44001830D01*
X-9467297Y-44276869D01*
X-9301904Y-44524398D01*
X-9091398Y-44734904D01*
X-8947580Y-44831000D01*
X-9091398Y-44927096D01*
X-9301904Y-45137602D01*
X-9467297Y-45385131D01*
X-9581222Y-45660170D01*
X-9639300Y-45952150D01*
X-9639300Y-46249850D01*
X-9581222Y-46541830D01*
X-9467297Y-46816869D01*
X-9301904Y-47064398D01*
X-9091398Y-47274904D01*
X-8947580Y-47371000D01*
X-9091398Y-47467096D01*
X-9301904Y-47677602D01*
X-9467297Y-47925131D01*
X-9581222Y-48200170D01*
X-9639300Y-48492150D01*
X-9639300Y-48789850D01*
X-9581222Y-49081830D01*
X-9467297Y-49356869D01*
X-9301904Y-49604398D01*
X-9091398Y-49814904D01*
X-8843869Y-49980297D01*
X-8568830Y-50094222D01*
X-8276850Y-50152300D01*
X-7979150Y-50152300D01*
X-7687170Y-50094222D01*
X-7412131Y-49980297D01*
X-7164602Y-49814904D01*
X-6954096Y-49604398D01*
X-6788703Y-49356869D01*
X-6674778Y-49081830D01*
X-6616700Y-48789850D01*
X-6616700Y-48492150D01*
X-6674778Y-48200170D01*
X-6788703Y-47925131D01*
X-6954096Y-47677602D01*
X-7164602Y-47467096D01*
X-7308420Y-47371000D01*
X-7164602Y-47274904D01*
X-6954096Y-47064398D01*
X-6788703Y-46816869D01*
X-6674778Y-46541830D01*
X-6616700Y-46249850D01*
X-6616700Y-45952150D01*
X-6674778Y-45660170D01*
X-6788703Y-45385131D01*
X-6954096Y-45137602D01*
X-7164602Y-44927096D01*
X-7308420Y-44831000D01*
X-7164602Y-44734904D01*
X-6954096Y-44524398D01*
X-6788703Y-44276869D01*
X-6674778Y-44001830D01*
X-6616700Y-43709850D01*
X-6616700Y-43412150D01*
X-6674778Y-43120170D01*
X-6788703Y-42845131D01*
X-6954096Y-42597602D01*
X-7164602Y-42387096D01*
X-7308420Y-42291000D01*
X-7164602Y-42194904D01*
X-6954096Y-41984398D01*
X-6788703Y-41736869D01*
X-6674778Y-41461830D01*
X-6616700Y-41169850D01*
X-6616700Y-40872150D01*
X-6674778Y-40580170D01*
X-6788703Y-40305131D01*
X-6954096Y-40057602D01*
X-7164602Y-39847096D01*
X-7308420Y-39751000D01*
X-7164602Y-39654904D01*
X-6954096Y-39444398D01*
X-6788703Y-39196869D01*
X-6674778Y-38921830D01*
X-6616700Y-38629850D01*
X-6616700Y-38332150D01*
X-6674778Y-38040170D01*
X-6788703Y-37765131D01*
X-6954096Y-37517602D01*
X-7164602Y-37307096D01*
X-7308420Y-37211000D01*
X-7164602Y-37114904D01*
X-6954096Y-36904398D01*
X-6788703Y-36656869D01*
X-6765360Y-36600515D01*
X-6372499Y-36993377D01*
X-6372500Y-57240000D01*
X-8637678Y-57240000D01*
X-8675000Y-57236324D01*
X-8712322Y-57240000D01*
X-11868928Y-57240000D01*
X-11906251Y-57236324D01*
X-11943574Y-57240000D01*
X-11943583Y-57240000D01*
X-12055236Y-57250997D01*
X-12198497Y-57294454D01*
X-12330527Y-57365026D01*
X-12414167Y-57433668D01*
X-12446251Y-57459999D01*
X-12470049Y-57488997D01*
X-14664874Y-59683823D01*
X-14679338Y-59677832D01*
X-14995217Y-59615000D01*
X-15317283Y-59615000D01*
X-15633162Y-59677832D01*
X-15930713Y-59801082D01*
X-16198502Y-59980013D01*
X-16426237Y-60207748D01*
X-16605168Y-60475537D01*
X-16728418Y-60773088D01*
X-16791250Y-61088967D01*
X-16791250Y-61411033D01*
X-16728418Y-61726912D01*
X-16605168Y-62024463D01*
X-16426237Y-62292252D01*
X-16198502Y-62519987D01*
X-15930713Y-62698918D01*
X-15633162Y-62822168D01*
X-15317283Y-62885000D01*
X-14995217Y-62885000D01*
X-14679338Y-62822168D01*
X-14381787Y-62698918D01*
X-14113998Y-62519987D01*
X-13886263Y-62292252D01*
X-13707332Y-62024463D01*
X-13584082Y-61726912D01*
X-13521250Y-61411033D01*
X-13521250Y-61088967D01*
X-13584082Y-60773088D01*
X-13590073Y-60758624D01*
X-11591448Y-58760000D01*
X-9416249Y-58760000D01*
X-9416250Y-59795091D01*
X-9430713Y-59801082D01*
X-9698502Y-59980013D01*
X-9926237Y-60207748D01*
X-10105168Y-60475537D01*
X-10228418Y-60773088D01*
X-10291250Y-61088967D01*
X-10291250Y-61411033D01*
X-10228418Y-61726912D01*
X-10105168Y-62024463D01*
X-9926237Y-62292252D01*
X-9698502Y-62519987D01*
X-9430713Y-62698918D01*
X-9133162Y-62822168D01*
X-8817283Y-62885000D01*
X-8495217Y-62885000D01*
X-8179338Y-62822168D01*
X-7881787Y-62698918D01*
X-7613998Y-62519987D01*
X-7386263Y-62292252D01*
X-7207332Y-62024463D01*
X-7084082Y-61726912D01*
X-7021250Y-61411033D01*
X-7021250Y-61088967D01*
X-7084082Y-60773088D01*
X-7207332Y-60475537D01*
X-7386263Y-60207748D01*
X-7613998Y-59980013D01*
X-7881787Y-59801082D01*
X-7896250Y-59795091D01*
X-7896250Y-58760000D01*
X-5649833Y-58760000D01*
X-5612500Y-58763677D01*
X-5575167Y-58760000D01*
X-5463514Y-58749003D01*
X-5320253Y-58705546D01*
X-5188224Y-58634974D01*
X-5072499Y-58540001D01*
X-4977526Y-58424276D01*
X-4906954Y-58292247D01*
X-4863497Y-58148986D01*
X-4848823Y-58000000D01*
X-4852500Y-57962667D01*
X-4852500Y-36715896D01*
X-4848824Y-36678573D01*
X-4852500Y-36641250D01*
X-4852500Y-36641241D01*
X-4863497Y-36529588D01*
X-4906954Y-36386327D01*
X-4977526Y-36254298D01*
X-5072499Y-36138573D01*
X-5101497Y-36114775D01*
X-6913152Y-34303121D01*
X-6788703Y-34116869D01*
X-6674778Y-33841830D01*
X-6616700Y-33549850D01*
X-6616700Y-33252150D01*
X-6674778Y-32960170D01*
X-6788703Y-32685131D01*
X-6954096Y-32437602D01*
X-7164602Y-32227096D01*
X-7308420Y-32131000D01*
X-7164602Y-32034904D01*
X-6954096Y-31824398D01*
X-6788703Y-31576869D01*
X-6674778Y-31301830D01*
X-6616700Y-31009850D01*
X-6616700Y-30712150D01*
X-6674778Y-30420170D01*
X-6788703Y-30145131D01*
X-6954096Y-29897602D01*
X-7164602Y-29687096D01*
X-7308420Y-29591000D01*
X-7164602Y-29494904D01*
X-6954096Y-29284398D01*
X-6788703Y-29036869D01*
X-6674778Y-28761830D01*
X-6616700Y-28469850D01*
X-6616700Y-28172150D01*
X-6674778Y-27880170D01*
X-6788703Y-27605131D01*
X-6954096Y-27357602D01*
X-7164602Y-27147096D01*
X-7308420Y-27051000D01*
X-7164602Y-26954904D01*
X-6954096Y-26744398D01*
X-6788703Y-26496869D01*
X-6674778Y-26221830D01*
X-6616700Y-25929850D01*
X-6616700Y-25632150D01*
X-6674778Y-25340170D01*
X-6788703Y-25065131D01*
X-6954096Y-24817602D01*
X-7164602Y-24607096D01*
X-7327809Y-24498045D01*
X-7260437Y-24288169D01*
X-8128000Y-23420605D01*
X-8995563Y-24288169D01*
X-8928191Y-24498045D01*
X-9091398Y-24607096D01*
X-9301904Y-24817602D01*
X-9467297Y-25065131D01*
X-9581222Y-25340170D01*
X-9639300Y-25632150D01*
X-9639300Y-25929850D01*
X-9591576Y-26169775D01*
X-11015053Y-27593252D01*
X-11044051Y-27617050D01*
X-11067849Y-27646048D01*
X-11067850Y-27646049D01*
X-11139025Y-27732775D01*
X-11209597Y-27864805D01*
X-11253053Y-28008066D01*
X-11267727Y-28157051D01*
X-11264050Y-28194383D01*
X-11264051Y-34702366D01*
X-11267728Y-34739699D01*
X-11253054Y-34888685D01*
X-11209597Y-35031946D01*
X-11139025Y-35163975D01*
X-11067851Y-35250701D01*
X-11044052Y-35279700D01*
X-10928327Y-35374673D01*
X-10796298Y-35445245D01*
X-10653037Y-35488702D01*
X-10504051Y-35503376D01*
X-10466718Y-35499699D01*
X-9581027Y-35499699D01*
X-9581222Y-35500170D01*
X-9639300Y-35792150D01*
X-9639300Y-36089850D01*
X-9581222Y-36381830D01*
X-9467297Y-36656869D01*
X-9301904Y-36904398D01*
X-9091398Y-37114904D01*
X-8947580Y-37211000D01*
X-9091398Y-37307096D01*
X-9301904Y-37517602D01*
X-9467297Y-37765131D01*
X-9581222Y-38040170D01*
X-9639300Y-38332150D01*
X-9639300Y-38629850D01*
X-9581222Y-38921830D01*
X-9578873Y-38927500D01*
X-18346289Y-38927500D01*
X-18390226Y-38883563D01*
X-18559744Y-38770295D01*
X-18748102Y-38692274D01*
X-18948061Y-38652500D01*
X-19151939Y-38652500D01*
X-19351898Y-38692274D01*
X-19540256Y-38770295D01*
X-19709774Y-38883563D01*
X-19853937Y-39027726D01*
X-19967205Y-39197244D01*
X-20045226Y-39385602D01*
X-20085000Y-39585561D01*
X-22335259Y-39585561D01*
X-22194096Y-39444398D01*
X-22028703Y-39196869D01*
X-21914778Y-38921830D01*
X-21856700Y-38629850D01*
X-21856700Y-38332150D01*
X-21914778Y-38040170D01*
X-22028703Y-37765131D01*
X-22194096Y-37517602D01*
X-22404602Y-37307096D01*
X-22548420Y-37211000D01*
X-22404602Y-37114904D01*
X-22194096Y-36904398D01*
X-22028703Y-36656869D01*
X-21914778Y-36381830D01*
X-21856700Y-36089850D01*
X-21856700Y-35792150D01*
X-21914778Y-35500170D01*
X-22028703Y-35225131D01*
X-22194096Y-34977602D01*
X-22404602Y-34767096D01*
X-22548420Y-34671000D01*
X-22404602Y-34574904D01*
X-22194096Y-34364398D01*
X-22028703Y-34116869D01*
X-21914778Y-33841830D01*
X-21856700Y-33549850D01*
X-21856700Y-33252150D01*
X-21914778Y-32960170D01*
X-22028703Y-32685131D01*
X-22194096Y-32437602D01*
X-22404602Y-32227096D01*
X-22548420Y-32131000D01*
X-22404602Y-32034904D01*
X-22194096Y-31824398D01*
X-22028703Y-31576869D01*
X-21914778Y-31301830D01*
X-21856700Y-31009850D01*
X-21856700Y-30712150D01*
X-21914778Y-30420170D01*
X-22028703Y-30145131D01*
X-22194096Y-29897602D01*
X-22404602Y-29687096D01*
X-22567809Y-29578045D01*
X-22500437Y-29368169D01*
X-23368000Y-28500605D01*
X-24235563Y-29368169D01*
X-24168191Y-29578045D01*
X-24331398Y-29687096D01*
X-24541904Y-29897602D01*
X-24707297Y-30145131D01*
X-24821222Y-30420170D01*
X-24879300Y-30712150D01*
X-24879300Y-31009850D01*
X-24821222Y-31301830D01*
X-24707297Y-31576869D01*
X-24541904Y-31824398D01*
X-24331398Y-32034904D01*
X-24187580Y-32131000D01*
X-24331398Y-32227096D01*
X-24541904Y-32437602D01*
X-24707297Y-32685131D01*
X-24821222Y-32960170D01*
X-24879300Y-33252150D01*
X-24879300Y-33549850D01*
X-24821222Y-33841830D01*
X-24707297Y-34116869D01*
X-24541904Y-34364398D01*
X-24331398Y-34574904D01*
X-24187580Y-34671000D01*
X-24331398Y-34767096D01*
X-24541904Y-34977602D01*
X-24707297Y-35225131D01*
X-24821222Y-35500170D01*
X-24879300Y-35792150D01*
X-24879300Y-36089850D01*
X-24821222Y-36381830D01*
X-24707297Y-36656869D01*
X-24541904Y-36904398D01*
X-24331398Y-37114904D01*
X-24187580Y-37211000D01*
X-24331398Y-37307096D01*
X-24541904Y-37517602D01*
X-24677810Y-37721000D01*
X-25497947Y-37721000D01*
X-26860500Y-36358448D01*
X-26860500Y-28388491D01*
X-24885113Y-28388491D01*
X-24842796Y-28683167D01*
X-24743802Y-28963927D01*
X-24666929Y-29107746D01*
X-24415169Y-29188563D01*
X-23547605Y-28321000D01*
X-23188395Y-28321000D01*
X-22320831Y-29188563D01*
X-22069071Y-29107746D01*
X-21940543Y-28839221D01*
X-21866871Y-28550781D01*
X-21850887Y-28253509D01*
X-21893204Y-27958833D01*
X-21992198Y-27678073D01*
X-22069071Y-27534254D01*
X-22320831Y-27453437D01*
X-23188395Y-28321000D01*
X-23547605Y-28321000D01*
X-24415169Y-27453437D01*
X-24666929Y-27534254D01*
X-24795457Y-27802779D01*
X-24869129Y-28091219D01*
X-24885113Y-28388491D01*
X-26860500Y-28388491D01*
X-26860500Y-26828169D01*
X-24235563Y-26828169D01*
X-24164032Y-27051000D01*
X-24235563Y-27273831D01*
X-23368000Y-28141395D01*
X-22500437Y-27273831D01*
X-22571968Y-27051000D01*
X-22500437Y-26828169D01*
X-23368000Y-25960605D01*
X-24235563Y-26828169D01*
X-26860500Y-26828169D01*
X-26860500Y-25848491D01*
X-24885113Y-25848491D01*
X-24842796Y-26143167D01*
X-24743802Y-26423927D01*
X-24666929Y-26567746D01*
X-24415169Y-26648563D01*
X-23547605Y-25781000D01*
X-23188395Y-25781000D01*
X-22320831Y-26648563D01*
X-22069071Y-26567746D01*
X-21940543Y-26299221D01*
X-21866871Y-26010781D01*
X-21850887Y-25713509D01*
X-21893204Y-25418833D01*
X-21992198Y-25138073D01*
X-22069071Y-24994254D01*
X-22320831Y-24913437D01*
X-23188395Y-25781000D01*
X-23547605Y-25781000D01*
X-24415169Y-24913437D01*
X-24666929Y-24994254D01*
X-24795457Y-25262779D01*
X-24869129Y-25551219D01*
X-24885113Y-25848491D01*
X-26860500Y-25848491D01*
X-26860500Y-19824700D01*
X-24882372Y-19824700D01*
X-24882372Y-21577300D01*
X-24870112Y-21701782D01*
X-24833802Y-21821480D01*
X-24774837Y-21931794D01*
X-24695485Y-22028485D01*
X-24598794Y-22107837D01*
X-24488480Y-22166802D01*
X-24444458Y-22180156D01*
X-24541904Y-22277602D01*
X-24707297Y-22525131D01*
X-24821222Y-22800170D01*
X-24879300Y-23092150D01*
X-24879300Y-23389850D01*
X-24821222Y-23681830D01*
X-24707297Y-23956869D01*
X-24541904Y-24204398D01*
X-24331398Y-24414904D01*
X-24168191Y-24523955D01*
X-24235563Y-24733831D01*
X-23368000Y-25601395D01*
X-22500437Y-24733831D01*
X-22567809Y-24523955D01*
X-22404602Y-24414904D01*
X-22194096Y-24204398D01*
X-22028703Y-23956869D01*
X-21914778Y-23681830D01*
X-21856700Y-23389850D01*
X-21856700Y-23308491D01*
X-9645113Y-23308491D01*
X-9602796Y-23603167D01*
X-9503802Y-23883927D01*
X-9426929Y-24027746D01*
X-9175169Y-24108563D01*
X-8307605Y-23241000D01*
X-7948395Y-23241000D01*
X-7080831Y-24108563D01*
X-6829071Y-24027746D01*
X-6700543Y-23759221D01*
X-6626871Y-23470781D01*
X-6610887Y-23173509D01*
X-6653204Y-22878833D01*
X-6752198Y-22598073D01*
X-6829071Y-22454254D01*
X-7080831Y-22373437D01*
X-7948395Y-23241000D01*
X-8307605Y-23241000D01*
X-9175169Y-22373437D01*
X-9426929Y-22454254D01*
X-9555457Y-22722779D01*
X-9629129Y-23011219D01*
X-9645113Y-23308491D01*
X-21856700Y-23308491D01*
X-21856700Y-23092150D01*
X-21914778Y-22800170D01*
X-22028703Y-22525131D01*
X-22194096Y-22277602D01*
X-22291542Y-22180156D01*
X-22247520Y-22166802D01*
X-22137206Y-22107837D01*
X-22040515Y-22028485D01*
X-21961163Y-21931794D01*
X-21902198Y-21821480D01*
X-21865888Y-21701782D01*
X-21853628Y-21577300D01*
X-21853628Y-19824700D01*
X-21865888Y-19700218D01*
X-21902198Y-19580520D01*
X-21961163Y-19470206D01*
X-22040515Y-19373515D01*
X-22137206Y-19294163D01*
X-22247520Y-19235198D01*
X-22367218Y-19198888D01*
X-22491700Y-19186628D01*
X-24244300Y-19186628D01*
X-24368782Y-19198888D01*
X-24488480Y-19235198D01*
X-24598794Y-19294163D01*
X-24695485Y-19373515D01*
X-24774837Y-19470206D01*
X-24833802Y-19580520D01*
X-24870112Y-19700218D01*
X-24882372Y-19824700D01*
X-26860500Y-19824700D01*
X-26860500Y-15841250D01*
X-19810000Y-15841250D01*
X-19809999Y-19140038D01*
X-19853937Y-19183976D01*
X-19967205Y-19353494D01*
X-20045226Y-19541852D01*
X-20085000Y-19741811D01*
X-20085000Y-19945689D01*
X-20045226Y-20145648D01*
X-19967205Y-20334006D01*
X-19853937Y-20503524D01*
X-19709774Y-20647687D01*
X-19540256Y-20760955D01*
X-19351898Y-20838976D01*
X-19151939Y-20878750D01*
X-18948061Y-20878750D01*
X-18748102Y-20838976D01*
X-18559744Y-20760955D01*
X-18390226Y-20647687D01*
X-18294689Y-20552150D01*
X-9639300Y-20552150D01*
X-9639300Y-20849850D01*
X-9581222Y-21141830D01*
X-9467297Y-21416869D01*
X-9301904Y-21664398D01*
X-9091398Y-21874904D01*
X-8928191Y-21983955D01*
X-8995563Y-22193831D01*
X-8128000Y-23061395D01*
X-7260437Y-22193831D01*
X-7327809Y-21983955D01*
X-7164602Y-21874904D01*
X-6954096Y-21664398D01*
X-6788703Y-21416869D01*
X-6674778Y-21141830D01*
X-6616700Y-20849850D01*
X-6616700Y-20552150D01*
X-6674778Y-20260170D01*
X-6788703Y-19985131D01*
X-6954096Y-19737602D01*
X-7164602Y-19527096D01*
X-7412131Y-19361703D01*
X-7687170Y-19247778D01*
X-7979150Y-19189700D01*
X-8276850Y-19189700D01*
X-8568830Y-19247778D01*
X-8843869Y-19361703D01*
X-9091398Y-19527096D01*
X-9301904Y-19737602D01*
X-9467297Y-19985131D01*
X-9581222Y-20260170D01*
X-9639300Y-20552150D01*
X-18294689Y-20552150D01*
X-18246063Y-20503524D01*
X-18132795Y-20334006D01*
X-18054774Y-20145648D01*
X-18015000Y-19945689D01*
X-18015000Y-19741811D01*
X-18054774Y-19541852D01*
X-18132795Y-19353494D01*
X-18246063Y-19183976D01*
X-18290000Y-19140039D01*
X-18290000Y-15167387D01*
X-18244112Y-15213275D01*
X-18074594Y-15326543D01*
X-17886236Y-15404564D01*
X-17686277Y-15444338D01*
X-17482399Y-15444338D01*
X-17282440Y-15404564D01*
X-17094082Y-15326543D01*
X-16924564Y-15213275D01*
X-16780401Y-15069112D01*
X-16667133Y-14899594D01*
X-16589112Y-14711236D01*
X-16549338Y-14511277D01*
X-16549338Y-14307399D01*
X-16589112Y-14107440D01*
X-16667133Y-13919082D01*
X-16780401Y-13749564D01*
X-16924564Y-13605401D01*
X-17094082Y-13492133D01*
X-17282440Y-13414112D01*
X-17482399Y-13374338D01*
X-17686277Y-13374338D01*
X-17886236Y-13414112D01*
X-18074594Y-13492133D01*
X-18127525Y-13527500D01*
X-26860500Y-13527500D01*
X-26860500Y-12033250D01*
X-7196356Y-12033250D01*
X-5660624Y-13568982D01*
G04 #@! TA.AperFunction,Conductor*
D17*
G36*
X-5660624Y-13568982D02*
G01*
X-4878459Y-15133312D01*
X-3302266Y-19073795D01*
X-4094377Y-91948000D01*
X-15841273Y-91948000D01*
X-26860500Y-85651299D01*
X-26860500Y-64296961D01*
X-26853524Y-64303937D01*
X-26684006Y-64417205D01*
X-26495648Y-64495226D01*
X-26295689Y-64535000D01*
X-26233551Y-64535000D01*
X-25366249Y-65402303D01*
X-25366250Y-78543917D01*
X-25369927Y-78581250D01*
X-25355253Y-78730236D01*
X-25311796Y-78873497D01*
X-25241224Y-79005526D01*
X-25146251Y-79121251D01*
X-25030526Y-79216224D01*
X-24898497Y-79286796D01*
X-24755236Y-79330253D01*
X-24606250Y-79344927D01*
X-24568917Y-79341250D01*
X-14197461Y-79341250D01*
X-14153524Y-79385187D01*
X-13984006Y-79498455D01*
X-13795648Y-79576476D01*
X-13595689Y-79616250D01*
X-13391811Y-79616250D01*
X-13191852Y-79576476D01*
X-13003494Y-79498455D01*
X-12833976Y-79385187D01*
X-12689813Y-79241024D01*
X-12576545Y-79071506D01*
X-12498524Y-78883148D01*
X-12458750Y-78683189D01*
X-12458750Y-78479311D01*
X-12498524Y-78279352D01*
X-12576545Y-78090994D01*
X-12689813Y-77921476D01*
X-12833976Y-77777313D01*
X-13003494Y-77664045D01*
X-13191852Y-77586024D01*
X-13391811Y-77546250D01*
X-13595689Y-77546250D01*
X-13795648Y-77586024D01*
X-13984006Y-77664045D01*
X-14153524Y-77777313D01*
X-14197461Y-77821250D01*
X-23846250Y-77821250D01*
X-23846250Y-75993514D01*
X-23747687Y-76141024D01*
X-23603524Y-76285187D01*
X-23434006Y-76398455D01*
X-23245648Y-76476476D01*
X-23045689Y-76516250D01*
X-22841811Y-76516250D01*
X-22641852Y-76476476D01*
X-22453494Y-76398455D01*
X-22283976Y-76285187D01*
X-22139813Y-76141024D01*
X-22026545Y-75971506D01*
X-21948524Y-75783148D01*
X-21908750Y-75583189D01*
X-21908750Y-75379311D01*
X-21948524Y-75179352D01*
X-22026545Y-74990994D01*
X-22139813Y-74821476D01*
X-22183750Y-74777539D01*
X-22183750Y-72094839D01*
X-18691250Y-72094839D01*
X-18691250Y-72367661D01*
X-18638025Y-72635239D01*
X-18533621Y-72887293D01*
X-18382049Y-73114136D01*
X-18189136Y-73307049D01*
X-17962293Y-73458621D01*
X-17710239Y-73563025D01*
X-17442661Y-73616250D01*
X-17169839Y-73616250D01*
X-16902261Y-73563025D01*
X-16650207Y-73458621D01*
X-16423364Y-73307049D01*
X-16230451Y-73114136D01*
X-16078879Y-72887293D01*
X-15974475Y-72635239D01*
X-15921250Y-72367661D01*
X-15921250Y-72094839D01*
X-11691250Y-72094839D01*
X-11691250Y-72367661D01*
X-11638025Y-72635239D01*
X-11533621Y-72887293D01*
X-11382049Y-73114136D01*
X-11189136Y-73307049D01*
X-10962293Y-73458621D01*
X-10710239Y-73563025D01*
X-10442661Y-73616250D01*
X-10169839Y-73616250D01*
X-9902261Y-73563025D01*
X-9650207Y-73458621D01*
X-9423364Y-73307049D01*
X-9230451Y-73114136D01*
X-9078879Y-72887293D01*
X-8974475Y-72635239D01*
X-8921250Y-72367661D01*
X-8921250Y-72094839D01*
X-8974475Y-71827261D01*
X-9078879Y-71575207D01*
X-9230451Y-71348364D01*
X-9423364Y-71155451D01*
X-9650207Y-71003879D01*
X-9902261Y-70899475D01*
X-10169839Y-70846250D01*
X-10442661Y-70846250D01*
X-10710239Y-70899475D01*
X-10962293Y-71003879D01*
X-11189136Y-71155451D01*
X-11382049Y-71348364D01*
X-11533621Y-71575207D01*
X-11638025Y-71827261D01*
X-11691250Y-72094839D01*
X-15921250Y-72094839D01*
X-15974475Y-71827261D01*
X-16078879Y-71575207D01*
X-16230451Y-71348364D01*
X-16423364Y-71155451D01*
X-16650207Y-71003879D01*
X-16902261Y-70899475D01*
X-17169839Y-70846250D01*
X-17442661Y-70846250D01*
X-17710239Y-70899475D01*
X-17962293Y-71003879D01*
X-18189136Y-71155451D01*
X-18382049Y-71348364D01*
X-18533621Y-71575207D01*
X-18638025Y-71827261D01*
X-18691250Y-72094839D01*
X-22183750Y-72094839D01*
X-22183750Y-66885413D01*
X-16112058Y-66885413D01*
X-16016294Y-67149814D01*
X-15726679Y-67290704D01*
X-15415142Y-67372384D01*
X-15093655Y-67391718D01*
X-14774575Y-67347961D01*
X-14470162Y-67242795D01*
X-14296206Y-67149814D01*
X-14200442Y-66885413D01*
X-9612058Y-66885413D01*
X-9516294Y-67149814D01*
X-9226679Y-67290704D01*
X-8915142Y-67372384D01*
X-8593655Y-67391718D01*
X-8274575Y-67347961D01*
X-7970162Y-67242795D01*
X-7796206Y-67149814D01*
X-7700442Y-66885413D01*
X-8656250Y-65929605D01*
X-9612058Y-66885413D01*
X-14200442Y-66885413D01*
X-15156250Y-65929605D01*
X-16112058Y-66885413D01*
X-22183750Y-66885413D01*
X-22183750Y-65812595D01*
X-16797968Y-65812595D01*
X-16754211Y-66131675D01*
X-16649045Y-66436088D01*
X-16556064Y-66610044D01*
X-16291663Y-66705808D01*
X-15335855Y-65750000D01*
X-14976645Y-65750000D01*
X-14020837Y-66705808D01*
X-13756436Y-66610044D01*
X-13615546Y-66320429D01*
X-13533866Y-66008892D01*
X-13522061Y-65812595D01*
X-10297968Y-65812595D01*
X-10254211Y-66131675D01*
X-10149045Y-66436088D01*
X-10056064Y-66610044D01*
X-9791663Y-66705808D01*
X-8835855Y-65750000D01*
X-8476645Y-65750000D01*
X-7520837Y-66705808D01*
X-7256436Y-66610044D01*
X-7115546Y-66320429D01*
X-7033866Y-66008892D01*
X-7014532Y-65687405D01*
X-7058289Y-65368325D01*
X-7163455Y-65063912D01*
X-7256436Y-64889956D01*
X-7520837Y-64794192D01*
X-8476645Y-65750000D01*
X-8835855Y-65750000D01*
X-9791663Y-64794192D01*
X-10056064Y-64889956D01*
X-10196954Y-65179571D01*
X-10278634Y-65491108D01*
X-10297968Y-65812595D01*
X-13522061Y-65812595D01*
X-13514532Y-65687405D01*
X-13558289Y-65368325D01*
X-13663455Y-65063912D01*
X-13756436Y-64889956D01*
X-14020837Y-64794192D01*
X-14976645Y-65750000D01*
X-15335855Y-65750000D01*
X-16291663Y-64794192D01*
X-16556064Y-64889956D01*
X-16696954Y-65179571D01*
X-16778634Y-65491108D01*
X-16797968Y-65812595D01*
X-22183750Y-65812595D01*
X-22183750Y-64614587D01*
X-16112058Y-64614587D01*
X-15156250Y-65570395D01*
X-14200442Y-64614587D01*
X-9612058Y-64614587D01*
X-8656250Y-65570395D01*
X-7700442Y-64614587D01*
X-7796206Y-64350186D01*
X-8085821Y-64209296D01*
X-8397358Y-64127616D01*
X-8718845Y-64108282D01*
X-9037925Y-64152039D01*
X-9342338Y-64257205D01*
X-9516294Y-64350186D01*
X-9612058Y-64614587D01*
X-14200442Y-64614587D01*
X-14296206Y-64350186D01*
X-14585821Y-64209296D01*
X-14897358Y-64127616D01*
X-15218845Y-64108282D01*
X-15537925Y-64152039D01*
X-15842338Y-64257205D01*
X-16016294Y-64350186D01*
X-16112058Y-64614587D01*
X-22183750Y-64614587D01*
X-22183750Y-61897461D01*
X-22139813Y-61853524D01*
X-22026545Y-61684006D01*
X-21948524Y-61495648D01*
X-21908750Y-61295689D01*
X-21908750Y-61091811D01*
X-21948524Y-60891852D01*
X-22026545Y-60703494D01*
X-22139813Y-60533976D01*
X-22283976Y-60389813D01*
X-22453494Y-60276545D01*
X-22641852Y-60198524D01*
X-22841811Y-60158750D01*
X-23045689Y-60158750D01*
X-23245648Y-60198524D01*
X-23434006Y-60276545D01*
X-23603524Y-60389813D01*
X-23747687Y-60533976D01*
X-23860955Y-60703494D01*
X-23938976Y-60891852D01*
X-23978750Y-61091811D01*
X-23978750Y-61295689D01*
X-23938976Y-61495648D01*
X-23860955Y-61684006D01*
X-23747687Y-61853524D01*
X-23703749Y-61897462D01*
X-23703750Y-74777539D01*
X-23747687Y-74821476D01*
X-23846250Y-74968986D01*
X-23846250Y-65124822D01*
X-23842574Y-65087499D01*
X-23846250Y-65050176D01*
X-23846250Y-65050167D01*
X-23857247Y-64938514D01*
X-23900704Y-64795253D01*
X-23901271Y-64794192D01*
X-23971276Y-64663223D01*
X-24042451Y-64576497D01*
X-24066249Y-64547499D01*
X-24095247Y-64523701D01*
X-25158750Y-63460199D01*
X-25158750Y-63398061D01*
X-25198524Y-63198102D01*
X-25276545Y-63009744D01*
X-25389813Y-62840226D01*
X-25533976Y-62696063D01*
X-25703494Y-62582795D01*
X-25891852Y-62504774D01*
X-26091811Y-62465000D01*
X-26295689Y-62465000D01*
X-26495648Y-62504774D01*
X-26511566Y-62511367D01*
X-22856996Y-58856798D01*
X-22827999Y-58833001D01*
X-22771106Y-58763677D01*
X-22733026Y-58717277D01*
X-22662454Y-58585247D01*
X-22639933Y-58511003D01*
X-22618997Y-58441986D01*
X-22608000Y-58330333D01*
X-22608000Y-58330324D01*
X-22604324Y-58293001D01*
X-22608000Y-58255678D01*
X-22608000Y-49950810D01*
X-22404602Y-49814904D01*
X-22194096Y-49604398D01*
X-22028703Y-49356869D01*
X-21914778Y-49081830D01*
X-21856700Y-48789850D01*
X-21856700Y-48492150D01*
X-21914778Y-48200170D01*
X-22028703Y-47925131D01*
X-22194096Y-47677602D01*
X-22404602Y-47467096D01*
X-22548420Y-47371000D01*
X-22404602Y-47274904D01*
X-22194096Y-47064398D01*
X-22028703Y-46816869D01*
X-21914778Y-46541830D01*
X-21856700Y-46249850D01*
X-21856700Y-45952150D01*
X-21914778Y-45660170D01*
X-22028703Y-45385131D01*
X-22194096Y-45137602D01*
X-22404602Y-44927096D01*
X-22548420Y-44831000D01*
X-22404602Y-44734904D01*
X-22194096Y-44524398D01*
X-22028703Y-44276869D01*
X-21914778Y-44001830D01*
X-21856700Y-43709850D01*
X-21856700Y-43412150D01*
X-21914778Y-43120170D01*
X-22028703Y-42845131D01*
X-22194096Y-42597602D01*
X-22404602Y-42387096D01*
X-22548420Y-42291000D01*
X-22404602Y-42194904D01*
X-22194096Y-41984398D01*
X-22028703Y-41736869D01*
X-21914778Y-41461830D01*
X-21856700Y-41169850D01*
X-21856700Y-40872150D01*
X-21914778Y-40580170D01*
X-22028703Y-40305131D01*
X-22194096Y-40057602D01*
X-22404602Y-39847096D01*
X-22548420Y-39751000D01*
X-22404602Y-39654904D01*
X-22335259Y-39585561D01*
X-20085000Y-39585561D01*
X-20085000Y-39789439D01*
X-20045226Y-39989398D01*
X-19967205Y-40177756D01*
X-19853937Y-40347274D01*
X-19709774Y-40491437D01*
X-19540256Y-40604705D01*
X-19351898Y-40682726D01*
X-19151939Y-40722500D01*
X-18948061Y-40722500D01*
X-18748102Y-40682726D01*
X-18559744Y-40604705D01*
X-18390226Y-40491437D01*
X-18346289Y-40447500D01*
X-9776301Y-40447500D01*
X-9591576Y-40632225D01*
X-9639300Y-40872150D01*
X-9639300Y-41169850D01*
X-9581222Y-41461830D01*
X-9467297Y-41736869D01*
X-9301904Y-41984398D01*
X-9091398Y-42194904D01*
X-8947580Y-42291000D01*
X-9091398Y-42387096D01*
X-9301904Y-42597602D01*
X-9467297Y-42845131D01*
X-9581222Y-43120170D01*
X-9639300Y-43412150D01*
X-9639300Y-43709850D01*
X-9581222Y-44001830D01*
X-9467297Y-44276869D01*
X-9301904Y-44524398D01*
X-9091398Y-44734904D01*
X-8947580Y-44831000D01*
X-9091398Y-44927096D01*
X-9301904Y-45137602D01*
X-9467297Y-45385131D01*
X-9581222Y-45660170D01*
X-9639300Y-45952150D01*
X-9639300Y-46249850D01*
X-9581222Y-46541830D01*
X-9467297Y-46816869D01*
X-9301904Y-47064398D01*
X-9091398Y-47274904D01*
X-8947580Y-47371000D01*
X-9091398Y-47467096D01*
X-9301904Y-47677602D01*
X-9467297Y-47925131D01*
X-9581222Y-48200170D01*
X-9639300Y-48492150D01*
X-9639300Y-48789850D01*
X-9581222Y-49081830D01*
X-9467297Y-49356869D01*
X-9301904Y-49604398D01*
X-9091398Y-49814904D01*
X-8843869Y-49980297D01*
X-8568830Y-50094222D01*
X-8276850Y-50152300D01*
X-7979150Y-50152300D01*
X-7687170Y-50094222D01*
X-7412131Y-49980297D01*
X-7164602Y-49814904D01*
X-6954096Y-49604398D01*
X-6788703Y-49356869D01*
X-6674778Y-49081830D01*
X-6616700Y-48789850D01*
X-6616700Y-48492150D01*
X-6674778Y-48200170D01*
X-6788703Y-47925131D01*
X-6954096Y-47677602D01*
X-7164602Y-47467096D01*
X-7308420Y-47371000D01*
X-7164602Y-47274904D01*
X-6954096Y-47064398D01*
X-6788703Y-46816869D01*
X-6674778Y-46541830D01*
X-6616700Y-46249850D01*
X-6616700Y-45952150D01*
X-6674778Y-45660170D01*
X-6788703Y-45385131D01*
X-6954096Y-45137602D01*
X-7164602Y-44927096D01*
X-7308420Y-44831000D01*
X-7164602Y-44734904D01*
X-6954096Y-44524398D01*
X-6788703Y-44276869D01*
X-6674778Y-44001830D01*
X-6616700Y-43709850D01*
X-6616700Y-43412150D01*
X-6674778Y-43120170D01*
X-6788703Y-42845131D01*
X-6954096Y-42597602D01*
X-7164602Y-42387096D01*
X-7308420Y-42291000D01*
X-7164602Y-42194904D01*
X-6954096Y-41984398D01*
X-6788703Y-41736869D01*
X-6674778Y-41461830D01*
X-6616700Y-41169850D01*
X-6616700Y-40872150D01*
X-6674778Y-40580170D01*
X-6788703Y-40305131D01*
X-6954096Y-40057602D01*
X-7164602Y-39847096D01*
X-7308420Y-39751000D01*
X-7164602Y-39654904D01*
X-6954096Y-39444398D01*
X-6788703Y-39196869D01*
X-6674778Y-38921830D01*
X-6616700Y-38629850D01*
X-6616700Y-38332150D01*
X-6674778Y-38040170D01*
X-6788703Y-37765131D01*
X-6954096Y-37517602D01*
X-7164602Y-37307096D01*
X-7308420Y-37211000D01*
X-7164602Y-37114904D01*
X-6954096Y-36904398D01*
X-6788703Y-36656869D01*
X-6765360Y-36600515D01*
X-6372499Y-36993377D01*
X-6372500Y-57240000D01*
X-8637678Y-57240000D01*
X-8675000Y-57236324D01*
X-8712322Y-57240000D01*
X-11868928Y-57240000D01*
X-11906251Y-57236324D01*
X-11943574Y-57240000D01*
X-11943583Y-57240000D01*
X-12055236Y-57250997D01*
X-12198497Y-57294454D01*
X-12330527Y-57365026D01*
X-12414167Y-57433668D01*
X-12446251Y-57459999D01*
X-12470049Y-57488997D01*
X-14664874Y-59683823D01*
X-14679338Y-59677832D01*
X-14995217Y-59615000D01*
X-15317283Y-59615000D01*
X-15633162Y-59677832D01*
X-15930713Y-59801082D01*
X-16198502Y-59980013D01*
X-16426237Y-60207748D01*
X-16605168Y-60475537D01*
X-16728418Y-60773088D01*
X-16791250Y-61088967D01*
X-16791250Y-61411033D01*
X-16728418Y-61726912D01*
X-16605168Y-62024463D01*
X-16426237Y-62292252D01*
X-16198502Y-62519987D01*
X-15930713Y-62698918D01*
X-15633162Y-62822168D01*
X-15317283Y-62885000D01*
X-14995217Y-62885000D01*
X-14679338Y-62822168D01*
X-14381787Y-62698918D01*
X-14113998Y-62519987D01*
X-13886263Y-62292252D01*
X-13707332Y-62024463D01*
X-13584082Y-61726912D01*
X-13521250Y-61411033D01*
X-13521250Y-61088967D01*
X-13584082Y-60773088D01*
X-13590073Y-60758624D01*
X-11591448Y-58760000D01*
X-9416249Y-58760000D01*
X-9416250Y-59795091D01*
X-9430713Y-59801082D01*
X-9698502Y-59980013D01*
X-9926237Y-60207748D01*
X-10105168Y-60475537D01*
X-10228418Y-60773088D01*
X-10291250Y-61088967D01*
X-10291250Y-61411033D01*
X-10228418Y-61726912D01*
X-10105168Y-62024463D01*
X-9926237Y-62292252D01*
X-9698502Y-62519987D01*
X-9430713Y-62698918D01*
X-9133162Y-62822168D01*
X-8817283Y-62885000D01*
X-8495217Y-62885000D01*
X-8179338Y-62822168D01*
X-7881787Y-62698918D01*
X-7613998Y-62519987D01*
X-7386263Y-62292252D01*
X-7207332Y-62024463D01*
X-7084082Y-61726912D01*
X-7021250Y-61411033D01*
X-7021250Y-61088967D01*
X-7084082Y-60773088D01*
X-7207332Y-60475537D01*
X-7386263Y-60207748D01*
X-7613998Y-59980013D01*
X-7881787Y-59801082D01*
X-7896250Y-59795091D01*
X-7896250Y-58760000D01*
X-5649833Y-58760000D01*
X-5612500Y-58763677D01*
X-5575167Y-58760000D01*
X-5463514Y-58749003D01*
X-5320253Y-58705546D01*
X-5188224Y-58634974D01*
X-5072499Y-58540001D01*
X-4977526Y-58424276D01*
X-4906954Y-58292247D01*
X-4863497Y-58148986D01*
X-4848823Y-58000000D01*
X-4852500Y-57962667D01*
X-4852500Y-36715896D01*
X-4848824Y-36678573D01*
X-4852500Y-36641250D01*
X-4852500Y-36641241D01*
X-4863497Y-36529588D01*
X-4906954Y-36386327D01*
X-4977526Y-36254298D01*
X-5072499Y-36138573D01*
X-5101497Y-36114775D01*
X-6913152Y-34303121D01*
X-6788703Y-34116869D01*
X-6674778Y-33841830D01*
X-6616700Y-33549850D01*
X-6616700Y-33252150D01*
X-6674778Y-32960170D01*
X-6788703Y-32685131D01*
X-6954096Y-32437602D01*
X-7164602Y-32227096D01*
X-7308420Y-32131000D01*
X-7164602Y-32034904D01*
X-6954096Y-31824398D01*
X-6788703Y-31576869D01*
X-6674778Y-31301830D01*
X-6616700Y-31009850D01*
X-6616700Y-30712150D01*
X-6674778Y-30420170D01*
X-6788703Y-30145131D01*
X-6954096Y-29897602D01*
X-7164602Y-29687096D01*
X-7308420Y-29591000D01*
X-7164602Y-29494904D01*
X-6954096Y-29284398D01*
X-6788703Y-29036869D01*
X-6674778Y-28761830D01*
X-6616700Y-28469850D01*
X-6616700Y-28172150D01*
X-6674778Y-27880170D01*
X-6788703Y-27605131D01*
X-6954096Y-27357602D01*
X-7164602Y-27147096D01*
X-7308420Y-27051000D01*
X-7164602Y-26954904D01*
X-6954096Y-26744398D01*
X-6788703Y-26496869D01*
X-6674778Y-26221830D01*
X-6616700Y-25929850D01*
X-6616700Y-25632150D01*
X-6674778Y-25340170D01*
X-6788703Y-25065131D01*
X-6954096Y-24817602D01*
X-7164602Y-24607096D01*
X-7327809Y-24498045D01*
X-7260437Y-24288169D01*
X-8128000Y-23420605D01*
X-8995563Y-24288169D01*
X-8928191Y-24498045D01*
X-9091398Y-24607096D01*
X-9301904Y-24817602D01*
X-9467297Y-25065131D01*
X-9581222Y-25340170D01*
X-9639300Y-25632150D01*
X-9639300Y-25929850D01*
X-9591576Y-26169775D01*
X-11015053Y-27593252D01*
X-11044051Y-27617050D01*
X-11067849Y-27646048D01*
X-11067850Y-27646049D01*
X-11139025Y-27732775D01*
X-11209597Y-27864805D01*
X-11253053Y-28008066D01*
X-11267727Y-28157051D01*
X-11264050Y-28194383D01*
X-11264051Y-34702366D01*
X-11267728Y-34739699D01*
X-11253054Y-34888685D01*
X-11209597Y-35031946D01*
X-11139025Y-35163975D01*
X-11067851Y-35250701D01*
X-11044052Y-35279700D01*
X-10928327Y-35374673D01*
X-10796298Y-35445245D01*
X-10653037Y-35488702D01*
X-10504051Y-35503376D01*
X-10466718Y-35499699D01*
X-9581027Y-35499699D01*
X-9581222Y-35500170D01*
X-9639300Y-35792150D01*
X-9639300Y-36089850D01*
X-9581222Y-36381830D01*
X-9467297Y-36656869D01*
X-9301904Y-36904398D01*
X-9091398Y-37114904D01*
X-8947580Y-37211000D01*
X-9091398Y-37307096D01*
X-9301904Y-37517602D01*
X-9467297Y-37765131D01*
X-9581222Y-38040170D01*
X-9639300Y-38332150D01*
X-9639300Y-38629850D01*
X-9581222Y-38921830D01*
X-9578873Y-38927500D01*
X-18346289Y-38927500D01*
X-18390226Y-38883563D01*
X-18559744Y-38770295D01*
X-18748102Y-38692274D01*
X-18948061Y-38652500D01*
X-19151939Y-38652500D01*
X-19351898Y-38692274D01*
X-19540256Y-38770295D01*
X-19709774Y-38883563D01*
X-19853937Y-39027726D01*
X-19967205Y-39197244D01*
X-20045226Y-39385602D01*
X-20085000Y-39585561D01*
X-22335259Y-39585561D01*
X-22194096Y-39444398D01*
X-22028703Y-39196869D01*
X-21914778Y-38921830D01*
X-21856700Y-38629850D01*
X-21856700Y-38332150D01*
X-21914778Y-38040170D01*
X-22028703Y-37765131D01*
X-22194096Y-37517602D01*
X-22404602Y-37307096D01*
X-22548420Y-37211000D01*
X-22404602Y-37114904D01*
X-22194096Y-36904398D01*
X-22028703Y-36656869D01*
X-21914778Y-36381830D01*
X-21856700Y-36089850D01*
X-21856700Y-35792150D01*
X-21914778Y-35500170D01*
X-22028703Y-35225131D01*
X-22194096Y-34977602D01*
X-22404602Y-34767096D01*
X-22548420Y-34671000D01*
X-22404602Y-34574904D01*
X-22194096Y-34364398D01*
X-22028703Y-34116869D01*
X-21914778Y-33841830D01*
X-21856700Y-33549850D01*
X-21856700Y-33252150D01*
X-21914778Y-32960170D01*
X-22028703Y-32685131D01*
X-22194096Y-32437602D01*
X-22404602Y-32227096D01*
X-22548420Y-32131000D01*
X-22404602Y-32034904D01*
X-22194096Y-31824398D01*
X-22028703Y-31576869D01*
X-21914778Y-31301830D01*
X-21856700Y-31009850D01*
X-21856700Y-30712150D01*
X-21914778Y-30420170D01*
X-22028703Y-30145131D01*
X-22194096Y-29897602D01*
X-22404602Y-29687096D01*
X-22567809Y-29578045D01*
X-22500437Y-29368169D01*
X-23368000Y-28500605D01*
X-24235563Y-29368169D01*
X-24168191Y-29578045D01*
X-24331398Y-29687096D01*
X-24541904Y-29897602D01*
X-24707297Y-30145131D01*
X-24821222Y-30420170D01*
X-24879300Y-30712150D01*
X-24879300Y-31009850D01*
X-24821222Y-31301830D01*
X-24707297Y-31576869D01*
X-24541904Y-31824398D01*
X-24331398Y-32034904D01*
X-24187580Y-32131000D01*
X-24331398Y-32227096D01*
X-24541904Y-32437602D01*
X-24707297Y-32685131D01*
X-24821222Y-32960170D01*
X-24879300Y-33252150D01*
X-24879300Y-33549850D01*
X-24821222Y-33841830D01*
X-24707297Y-34116869D01*
X-24541904Y-34364398D01*
X-24331398Y-34574904D01*
X-24187580Y-34671000D01*
X-24331398Y-34767096D01*
X-24541904Y-34977602D01*
X-24707297Y-35225131D01*
X-24821222Y-35500170D01*
X-24879300Y-35792150D01*
X-24879300Y-36089850D01*
X-24821222Y-36381830D01*
X-24707297Y-36656869D01*
X-24541904Y-36904398D01*
X-24331398Y-37114904D01*
X-24187580Y-37211000D01*
X-24331398Y-37307096D01*
X-24541904Y-37517602D01*
X-24677810Y-37721000D01*
X-25497947Y-37721000D01*
X-26860500Y-36358448D01*
X-26860500Y-28388491D01*
X-24885113Y-28388491D01*
X-24842796Y-28683167D01*
X-24743802Y-28963927D01*
X-24666929Y-29107746D01*
X-24415169Y-29188563D01*
X-23547605Y-28321000D01*
X-23188395Y-28321000D01*
X-22320831Y-29188563D01*
X-22069071Y-29107746D01*
X-21940543Y-28839221D01*
X-21866871Y-28550781D01*
X-21850887Y-28253509D01*
X-21893204Y-27958833D01*
X-21992198Y-27678073D01*
X-22069071Y-27534254D01*
X-22320831Y-27453437D01*
X-23188395Y-28321000D01*
X-23547605Y-28321000D01*
X-24415169Y-27453437D01*
X-24666929Y-27534254D01*
X-24795457Y-27802779D01*
X-24869129Y-28091219D01*
X-24885113Y-28388491D01*
X-26860500Y-28388491D01*
X-26860500Y-26828169D01*
X-24235563Y-26828169D01*
X-24164032Y-27051000D01*
X-24235563Y-27273831D01*
X-23368000Y-28141395D01*
X-22500437Y-27273831D01*
X-22571968Y-27051000D01*
X-22500437Y-26828169D01*
X-23368000Y-25960605D01*
X-24235563Y-26828169D01*
X-26860500Y-26828169D01*
X-26860500Y-25848491D01*
X-24885113Y-25848491D01*
X-24842796Y-26143167D01*
X-24743802Y-26423927D01*
X-24666929Y-26567746D01*
X-24415169Y-26648563D01*
X-23547605Y-25781000D01*
X-23188395Y-25781000D01*
X-22320831Y-26648563D01*
X-22069071Y-26567746D01*
X-21940543Y-26299221D01*
X-21866871Y-26010781D01*
X-21850887Y-25713509D01*
X-21893204Y-25418833D01*
X-21992198Y-25138073D01*
X-22069071Y-24994254D01*
X-22320831Y-24913437D01*
X-23188395Y-25781000D01*
X-23547605Y-25781000D01*
X-24415169Y-24913437D01*
X-24666929Y-24994254D01*
X-24795457Y-25262779D01*
X-24869129Y-25551219D01*
X-24885113Y-25848491D01*
X-26860500Y-25848491D01*
X-26860500Y-19824700D01*
X-24882372Y-19824700D01*
X-24882372Y-21577300D01*
X-24870112Y-21701782D01*
X-24833802Y-21821480D01*
X-24774837Y-21931794D01*
X-24695485Y-22028485D01*
X-24598794Y-22107837D01*
X-24488480Y-22166802D01*
X-24444458Y-22180156D01*
X-24541904Y-22277602D01*
X-24707297Y-22525131D01*
X-24821222Y-22800170D01*
X-24879300Y-23092150D01*
X-24879300Y-23389850D01*
X-24821222Y-23681830D01*
X-24707297Y-23956869D01*
X-24541904Y-24204398D01*
X-24331398Y-24414904D01*
X-24168191Y-24523955D01*
X-24235563Y-24733831D01*
X-23368000Y-25601395D01*
X-22500437Y-24733831D01*
X-22567809Y-24523955D01*
X-22404602Y-24414904D01*
X-22194096Y-24204398D01*
X-22028703Y-23956869D01*
X-21914778Y-23681830D01*
X-21856700Y-23389850D01*
X-21856700Y-23308491D01*
X-9645113Y-23308491D01*
X-9602796Y-23603167D01*
X-9503802Y-23883927D01*
X-9426929Y-24027746D01*
X-9175169Y-24108563D01*
X-8307605Y-23241000D01*
X-7948395Y-23241000D01*
X-7080831Y-24108563D01*
X-6829071Y-24027746D01*
X-6700543Y-23759221D01*
X-6626871Y-23470781D01*
X-6610887Y-23173509D01*
X-6653204Y-22878833D01*
X-6752198Y-22598073D01*
X-6829071Y-22454254D01*
X-7080831Y-22373437D01*
X-7948395Y-23241000D01*
X-8307605Y-23241000D01*
X-9175169Y-22373437D01*
X-9426929Y-22454254D01*
X-9555457Y-22722779D01*
X-9629129Y-23011219D01*
X-9645113Y-23308491D01*
X-21856700Y-23308491D01*
X-21856700Y-23092150D01*
X-21914778Y-22800170D01*
X-22028703Y-22525131D01*
X-22194096Y-22277602D01*
X-22291542Y-22180156D01*
X-22247520Y-22166802D01*
X-22137206Y-22107837D01*
X-22040515Y-22028485D01*
X-21961163Y-21931794D01*
X-21902198Y-21821480D01*
X-21865888Y-21701782D01*
X-21853628Y-21577300D01*
X-21853628Y-19824700D01*
X-21865888Y-19700218D01*
X-21902198Y-19580520D01*
X-21961163Y-19470206D01*
X-22040515Y-19373515D01*
X-22137206Y-19294163D01*
X-22247520Y-19235198D01*
X-22367218Y-19198888D01*
X-22491700Y-19186628D01*
X-24244300Y-19186628D01*
X-24368782Y-19198888D01*
X-24488480Y-19235198D01*
X-24598794Y-19294163D01*
X-24695485Y-19373515D01*
X-24774837Y-19470206D01*
X-24833802Y-19580520D01*
X-24870112Y-19700218D01*
X-24882372Y-19824700D01*
X-26860500Y-19824700D01*
X-26860500Y-15841250D01*
X-19810000Y-15841250D01*
X-19809999Y-19140038D01*
X-19853937Y-19183976D01*
X-19967205Y-19353494D01*
X-20045226Y-19541852D01*
X-20085000Y-19741811D01*
X-20085000Y-19945689D01*
X-20045226Y-20145648D01*
X-19967205Y-20334006D01*
X-19853937Y-20503524D01*
X-19709774Y-20647687D01*
X-19540256Y-20760955D01*
X-19351898Y-20838976D01*
X-19151939Y-20878750D01*
X-18948061Y-20878750D01*
X-18748102Y-20838976D01*
X-18559744Y-20760955D01*
X-18390226Y-20647687D01*
X-18294689Y-20552150D01*
X-9639300Y-20552150D01*
X-9639300Y-20849850D01*
X-9581222Y-21141830D01*
X-9467297Y-21416869D01*
X-9301904Y-21664398D01*
X-9091398Y-21874904D01*
X-8928191Y-21983955D01*
X-8995563Y-22193831D01*
X-8128000Y-23061395D01*
X-7260437Y-22193831D01*
X-7327809Y-21983955D01*
X-7164602Y-21874904D01*
X-6954096Y-21664398D01*
X-6788703Y-21416869D01*
X-6674778Y-21141830D01*
X-6616700Y-20849850D01*
X-6616700Y-20552150D01*
X-6674778Y-20260170D01*
X-6788703Y-19985131D01*
X-6954096Y-19737602D01*
X-7164602Y-19527096D01*
X-7412131Y-19361703D01*
X-7687170Y-19247778D01*
X-7979150Y-19189700D01*
X-8276850Y-19189700D01*
X-8568830Y-19247778D01*
X-8843869Y-19361703D01*
X-9091398Y-19527096D01*
X-9301904Y-19737602D01*
X-9467297Y-19985131D01*
X-9581222Y-20260170D01*
X-9639300Y-20552150D01*
X-18294689Y-20552150D01*
X-18246063Y-20503524D01*
X-18132795Y-20334006D01*
X-18054774Y-20145648D01*
X-18015000Y-19945689D01*
X-18015000Y-19741811D01*
X-18054774Y-19541852D01*
X-18132795Y-19353494D01*
X-18246063Y-19183976D01*
X-18290000Y-19140039D01*
X-18290000Y-15167387D01*
X-18244112Y-15213275D01*
X-18074594Y-15326543D01*
X-17886236Y-15404564D01*
X-17686277Y-15444338D01*
X-17482399Y-15444338D01*
X-17282440Y-15404564D01*
X-17094082Y-15326543D01*
X-16924564Y-15213275D01*
X-16780401Y-15069112D01*
X-16667133Y-14899594D01*
X-16589112Y-14711236D01*
X-16549338Y-14511277D01*
X-16549338Y-14307399D01*
X-16589112Y-14107440D01*
X-16667133Y-13919082D01*
X-16780401Y-13749564D01*
X-16924564Y-13605401D01*
X-17094082Y-13492133D01*
X-17282440Y-13414112D01*
X-17482399Y-13374338D01*
X-17686277Y-13374338D01*
X-17886236Y-13414112D01*
X-18074594Y-13492133D01*
X-18127525Y-13527500D01*
X-26860500Y-13527500D01*
X-26860500Y-12033250D01*
X-7196356Y-12033250D01*
X-5660624Y-13568982D01*
G37*
G04 #@! TD.AperFunction*
M02*
