G04 #@! TF.GenerationSoftware,KiCad,Pcbnew,5.1.10*
G04 #@! TF.CreationDate,2021-06-15T23:50:52-04:00*
G04 #@! TF.ProjectId,attempt2,61747465-6d70-4743-922e-6b696361645f,rev?*
G04 #@! TF.SameCoordinates,Original*
G04 #@! TF.FileFunction,Soldermask,Top*
G04 #@! TF.FilePolarity,Negative*
%FSLAX46Y46*%
G04 Gerber Fmt 4.6, Leading zero omitted, Abs format (unit mm)*
G04 Created by KiCad (PCBNEW 5.1.10) date 2021-06-15 23:50:52*
%MOMM*%
%LPD*%
G01*
G04 APERTURE LIST*
%ADD10R,0.700000X1.300000*%
%ADD11C,1.500000*%
%ADD12R,1.200000X2.500000*%
%ADD13C,0.100000*%
%ADD14R,1.752600X1.752600*%
%ADD15C,1.752600*%
%ADD16C,2.000000*%
%ADD17C,3.987800*%
%ADD18C,1.750000*%
%ADD19R,1.200000X0.900000*%
%ADD20R,0.900000X1.200000*%
G04 APERTURE END LIST*
D10*
X-14827250Y-82550000D03*
X-16727250Y-82550000D03*
D11*
X-17306250Y-72231250D03*
X-10306250Y-72231250D03*
D12*
X-11906250Y-75481250D03*
X-14906250Y-75481250D03*
X-18906250Y-75481250D03*
X-20006250Y-68981250D03*
D13*
G36*
X-43584385Y-108353769D02*
G01*
X-44623615Y-107753769D01*
X-44173615Y-106974347D01*
X-43134385Y-107574347D01*
X-43584385Y-108353769D01*
G37*
G36*
X-45234385Y-111211653D02*
G01*
X-46273615Y-110611653D01*
X-45823615Y-109832231D01*
X-44784385Y-110432231D01*
X-45234385Y-111211653D01*
G37*
D14*
X-23368000Y-20701000D03*
D15*
X-23368000Y-23241000D03*
X-23368000Y-25781000D03*
X-23368000Y-28321000D03*
X-23368000Y-30861000D03*
X-23368000Y-33401000D03*
X-23368000Y-35941000D03*
X-23368000Y-38481000D03*
X-23368000Y-41021000D03*
X-23368000Y-43561000D03*
X-23368000Y-46101000D03*
X-8128000Y-48641000D03*
X-8128000Y-46101000D03*
X-8128000Y-43561000D03*
X-8128000Y-41021000D03*
X-8128000Y-38481000D03*
X-8128000Y-35941000D03*
X-8128000Y-33401000D03*
X-8128000Y-30861000D03*
X-8128000Y-28321000D03*
X-8128000Y-25781000D03*
X-8128000Y-23241000D03*
X-23368000Y-48641000D03*
X-8128000Y-20701000D03*
D16*
X-8656250Y-65750000D03*
X-15156250Y-65750000D03*
X-15156250Y-61250000D03*
X-8656250Y-61250000D03*
D10*
X-16825000Y-84931250D03*
X-14925000Y-84931250D03*
D17*
X-36068000Y-118618000D03*
D18*
X-40467409Y-116078000D03*
X-31668591Y-121158000D03*
D17*
X-75406250Y-119062500D03*
D18*
X-80486250Y-119062500D03*
X-70326250Y-119062500D03*
D17*
X-94392750Y-100024500D03*
D18*
X-99472750Y-100024500D03*
X-89312750Y-100024500D03*
D17*
X-101600000Y-119062500D03*
D18*
X-106680000Y-119062500D03*
X-96520000Y-119062500D03*
D17*
X-125412500Y-119062500D03*
D18*
X-130492500Y-119062500D03*
X-120332500Y-119062500D03*
D17*
X-149225000Y-119062500D03*
D18*
X-154305000Y-119062500D03*
X-144145000Y-119062500D03*
D17*
X-26543000Y-102108000D03*
D18*
X-30942409Y-99568000D03*
X-22143591Y-104648000D03*
D17*
X-56356250Y-83566000D03*
D18*
X-61436250Y-83566000D03*
X-51276250Y-83566000D03*
D17*
X-75406250Y-82550000D03*
D18*
X-80486250Y-82550000D03*
X-70326250Y-82550000D03*
D17*
X-94456250Y-73787000D03*
D18*
X-99536250Y-73787000D03*
X-89376250Y-73787000D03*
D17*
X-113506250Y-81153000D03*
D18*
X-118586250Y-81153000D03*
X-108426250Y-81153000D03*
D17*
X-132556250Y-100012500D03*
D18*
X-137636250Y-100012500D03*
X-127476250Y-100012500D03*
D17*
X-151606250Y-100012500D03*
D18*
X-156686250Y-100012500D03*
X-146526250Y-100012500D03*
D17*
X-37306250Y-50228500D03*
D18*
X-37306250Y-55308500D03*
X-37306250Y-45148500D03*
D17*
X-56356250Y-64516000D03*
D18*
X-61436250Y-64516000D03*
X-51276250Y-64516000D03*
D17*
X-75406250Y-63500000D03*
D18*
X-80486250Y-63500000D03*
X-70326250Y-63500000D03*
D17*
X-94456250Y-54737000D03*
D18*
X-99536250Y-54737000D03*
X-89376250Y-54737000D03*
D17*
X-113506250Y-62103000D03*
D18*
X-118586250Y-62103000D03*
X-108426250Y-62103000D03*
D17*
X-132556250Y-80962500D03*
D18*
X-137636250Y-80962500D03*
X-127476250Y-80962500D03*
D17*
X-151606250Y-80962500D03*
D18*
X-156686250Y-80962500D03*
X-146526250Y-80962500D03*
D17*
X-56356250Y-45466000D03*
D18*
X-61436250Y-45466000D03*
X-51276250Y-45466000D03*
D17*
X-75406250Y-44450000D03*
D18*
X-80486250Y-44450000D03*
X-70326250Y-44450000D03*
D17*
X-94456250Y-35687000D03*
D18*
X-99536250Y-35687000D03*
X-89376250Y-35687000D03*
D17*
X-113506250Y-43053000D03*
D18*
X-118586250Y-43053000D03*
X-108426250Y-43053000D03*
D17*
X-132556250Y-61912500D03*
D18*
X-137636250Y-61912500D03*
X-127476250Y-61912500D03*
D17*
X-151606250Y-61912500D03*
D18*
X-156686250Y-61912500D03*
X-146526250Y-61912500D03*
D17*
X-37306250Y-26416000D03*
D18*
X-42386250Y-26416000D03*
X-32226250Y-26416000D03*
D17*
X-56356250Y-26416000D03*
D18*
X-61436250Y-26416000D03*
X-51276250Y-26416000D03*
D17*
X-75406250Y-25400000D03*
D18*
X-80486250Y-25400000D03*
X-70326250Y-25400000D03*
D17*
X-94456250Y-16637000D03*
D18*
X-99536250Y-16637000D03*
X-89376250Y-16637000D03*
D17*
X-113506250Y-24003000D03*
D18*
X-118586250Y-24003000D03*
X-108426250Y-24003000D03*
D17*
X-132556250Y-42862500D03*
D18*
X-137636250Y-42862500D03*
X-127476250Y-42862500D03*
D17*
X-151606250Y-42862500D03*
D18*
X-156686250Y-42862500D03*
X-146526250Y-42862500D03*
D19*
X-62706250Y-117412500D03*
X-62706250Y-120712500D03*
D20*
X-88962500Y-107950000D03*
X-85662500Y-107950000D03*
D19*
X-91281250Y-116618750D03*
X-91281250Y-119918750D03*
X-115093750Y-116618750D03*
X-115093750Y-119918750D03*
X-138906250Y-116618750D03*
X-138906250Y-119918750D03*
D13*
G36*
X-34440385Y-93240769D02*
G01*
X-35479615Y-92640769D01*
X-35029615Y-91861347D01*
X-33990385Y-92461347D01*
X-34440385Y-93240769D01*
G37*
G36*
X-36090385Y-96098653D02*
G01*
X-37129615Y-95498653D01*
X-36679615Y-94719231D01*
X-35640385Y-95319231D01*
X-36090385Y-96098653D01*
G37*
D20*
X-50862500Y-91281250D03*
X-47562500Y-91281250D03*
X-69912500Y-90487500D03*
X-66612500Y-90487500D03*
X-88962500Y-81756250D03*
X-85662500Y-81756250D03*
X-108012500Y-88900000D03*
X-104712500Y-88900000D03*
X-127062500Y-107950000D03*
X-123762500Y-107950000D03*
X-146112500Y-107950000D03*
X-142812500Y-107950000D03*
X-45306250Y-61912500D03*
X-42006250Y-61912500D03*
X-50862500Y-72231250D03*
X-47562500Y-72231250D03*
X-69912500Y-71437500D03*
X-66612500Y-71437500D03*
X-88962500Y-62706250D03*
X-85662500Y-62706250D03*
X-108012500Y-69850000D03*
X-104712500Y-69850000D03*
X-127062500Y-88900000D03*
X-123762500Y-88900000D03*
X-146112500Y-88900000D03*
X-142812500Y-88900000D03*
X-50862500Y-53181250D03*
X-47562500Y-53181250D03*
X-69912500Y-52387500D03*
X-66612500Y-52387500D03*
X-88962500Y-43656250D03*
X-85662500Y-43656250D03*
X-108012500Y-50800000D03*
X-104712500Y-50800000D03*
X-127062500Y-69850000D03*
X-123762500Y-69850000D03*
X-146112500Y-69850000D03*
X-142812500Y-69850000D03*
X-31812500Y-34131250D03*
X-28512500Y-34131250D03*
X-50862500Y-34131250D03*
X-47562500Y-34131250D03*
X-69912500Y-33337500D03*
X-66612500Y-33337500D03*
X-88962500Y-24606250D03*
X-85662500Y-24606250D03*
X-108012500Y-31750000D03*
X-104712500Y-31750000D03*
X-127062500Y-50800000D03*
X-123762500Y-50800000D03*
X-146112500Y-50800000D03*
X-142812500Y-50800000D03*
M02*
