G04 #@! TF.GenerationSoftware,KiCad,Pcbnew,5.1.10*
G04 #@! TF.CreationDate,2022-03-09T15:21:35-05:00*
G04 #@! TF.ProjectId,bourbondox2_left,626f7572-626f-46e6-946f-78325f6c6566,rev?*
G04 #@! TF.SameCoordinates,Original*
G04 #@! TF.FileFunction,Soldermask,Top*
G04 #@! TF.FilePolarity,Negative*
%FSLAX46Y46*%
G04 Gerber Fmt 4.6, Leading zero omitted, Abs format (unit mm)*
G04 Created by KiCad (PCBNEW 5.1.10) date 2022-03-09 15:21:35*
%MOMM*%
%LPD*%
G01*
G04 APERTURE LIST*
%ADD10C,3.987800*%
%ADD11C,1.750000*%
%ADD12C,3.048000*%
%ADD13C,1.752600*%
%ADD14R,1.752600X1.752600*%
%ADD15C,1.200000*%
%ADD16C,2.100000*%
%ADD17C,1.397000*%
G04 APERTURE END LIST*
D10*
G04 #@! TO.C,MX42_2*
X145239290Y-132561100D03*
D11*
X140159290Y-132561100D03*
X150319290Y-132561100D03*
G04 #@! TD*
D10*
G04 #@! TO.C,MX41_2*
X121426790Y-132561100D03*
D11*
X116346790Y-132561100D03*
X126506790Y-132561100D03*
G04 #@! TD*
D10*
G04 #@! TO.C,MX40_2*
X97614290Y-132561100D03*
D11*
X92534290Y-132561100D03*
X102694290Y-132561100D03*
G04 #@! TD*
D10*
G04 #@! TO.C,MX30_2*
X102381050Y-113515140D03*
D11*
X97301050Y-113515140D03*
X107461050Y-113515140D03*
G04 #@! TD*
D10*
G04 #@! TO.C,MX10_2*
X104762300Y-75415140D03*
D11*
X99682300Y-75415140D03*
X109842300Y-75415140D03*
G04 #@! TD*
D10*
G04 #@! TO.C,MX45*
X241572911Y-145658475D03*
D11*
X239032911Y-150057884D03*
X244112911Y-141259066D03*
D12*
X229570599Y-152477090D03*
X241476849Y-131854860D03*
D10*
X242768826Y-160097090D03*
X254675076Y-139474860D03*
G04 #@! TD*
G04 #@! TO.C,MX44*
X225075127Y-136133474D03*
D11*
X222535127Y-140532883D03*
X227615127Y-131734065D03*
D12*
X213072815Y-142952089D03*
X224979065Y-122329859D03*
D10*
X226271042Y-150572089D03*
X238177292Y-129949859D03*
G04 #@! TD*
G04 #@! TO.C,MX43*
X171433040Y-132561100D03*
D11*
X166353040Y-132561100D03*
X176513040Y-132561100D03*
G04 #@! TD*
D13*
G04 #@! TO.C,U1*
X237410000Y-22542500D03*
X222170000Y-50482500D03*
X237410000Y-25082500D03*
X237410000Y-27622500D03*
X237410000Y-30162500D03*
X237410000Y-32702500D03*
X237410000Y-35242500D03*
X237410000Y-37782500D03*
X237410000Y-40322500D03*
X237410000Y-42862500D03*
X237410000Y-45402500D03*
X237410000Y-47942500D03*
X237410000Y-50482500D03*
X222170000Y-47942500D03*
X222170000Y-45402500D03*
X222170000Y-42862500D03*
X222170000Y-40322500D03*
X222170000Y-37782500D03*
X222170000Y-35242500D03*
X222170000Y-32702500D03*
X222170000Y-30162500D03*
X222170000Y-27622500D03*
X222170000Y-25082500D03*
D14*
X222170000Y-22542500D03*
G04 #@! TD*
D15*
G04 #@! TO.C,SW1*
X235366250Y-69968750D03*
D16*
X231666250Y-66468750D03*
D11*
X234156250Y-67468750D03*
X234156250Y-72468750D03*
D16*
X231666250Y-73478750D03*
G04 #@! TD*
D17*
G04 #@! TO.C,OL1*
X233838750Y-57150000D03*
X231298750Y-57150000D03*
X228758750Y-57150000D03*
X226218750Y-57150000D03*
G04 #@! TD*
D10*
G04 #@! TO.C,MX42*
X147620540Y-132561100D03*
D11*
X152700540Y-132561100D03*
X142540540Y-132561100D03*
G04 #@! TD*
D10*
G04 #@! TO.C,MX41*
X128570540Y-132561100D03*
D11*
X123490540Y-132561100D03*
X133650540Y-132561100D03*
G04 #@! TD*
D10*
G04 #@! TO.C,MX40*
X109520540Y-132561100D03*
D11*
X104440540Y-132561100D03*
X114600540Y-132561100D03*
G04 #@! TD*
D10*
G04 #@! TO.C,MX35*
X204787500Y-101125520D03*
D11*
X199707500Y-101125520D03*
X209867500Y-101125520D03*
G04 #@! TD*
D10*
G04 #@! TO.C,MX34*
X185737500Y-100045520D03*
D11*
X180657500Y-100045520D03*
X190817500Y-100045520D03*
G04 #@! TD*
D10*
G04 #@! TO.C,MX33*
X166687500Y-95250000D03*
D11*
X161607500Y-95250000D03*
X171767500Y-95250000D03*
G04 #@! TD*
D10*
G04 #@! TO.C,MX32*
X147637500Y-98425000D03*
D11*
X142557500Y-98425000D03*
X152717500Y-98425000D03*
G04 #@! TD*
D10*
G04 #@! TO.C,MX31*
X128574800Y-113515140D03*
D11*
X123494800Y-113515140D03*
X133654800Y-113515140D03*
G04 #@! TD*
D10*
G04 #@! TO.C,MX30*
X109524800Y-113515140D03*
D11*
X104444800Y-113515140D03*
X114604800Y-113515140D03*
G04 #@! TD*
D10*
G04 #@! TO.C,MX25*
X204787500Y-82075520D03*
D11*
X199707500Y-82075520D03*
X209867500Y-82075520D03*
G04 #@! TD*
D10*
G04 #@! TO.C,MX24*
X185737500Y-80995520D03*
D11*
X180657500Y-80995520D03*
X190817500Y-80995520D03*
G04 #@! TD*
D10*
G04 #@! TO.C,MX23*
X166687500Y-76200000D03*
D11*
X161607500Y-76200000D03*
X171767500Y-76200000D03*
G04 #@! TD*
D10*
G04 #@! TO.C,MX22*
X147637500Y-79375000D03*
D11*
X142557500Y-79375000D03*
X152717500Y-79375000D03*
G04 #@! TD*
D10*
G04 #@! TO.C,MX21*
X128574800Y-94465140D03*
D11*
X123494800Y-94465140D03*
X133654800Y-94465140D03*
G04 #@! TD*
D10*
G04 #@! TO.C,MX20*
X109524800Y-94465140D03*
D11*
X104444800Y-94465140D03*
X114604800Y-94465140D03*
G04 #@! TD*
D10*
G04 #@! TO.C,MX15*
X204787500Y-63025520D03*
D11*
X199707500Y-63025520D03*
X209867500Y-63025520D03*
G04 #@! TD*
D10*
G04 #@! TO.C,MX14*
X185737500Y-61945520D03*
D11*
X180657500Y-61945520D03*
X190817500Y-61945520D03*
G04 #@! TD*
D10*
G04 #@! TO.C,MX13*
X166687500Y-57150000D03*
D11*
X161607500Y-57150000D03*
X171767500Y-57150000D03*
G04 #@! TD*
D10*
G04 #@! TO.C,MX12*
X147637500Y-60325000D03*
D11*
X142557500Y-60325000D03*
X152717500Y-60325000D03*
G04 #@! TD*
D10*
G04 #@! TO.C,MX11*
X128574800Y-75415140D03*
D11*
X123494800Y-75415140D03*
X133654800Y-75415140D03*
G04 #@! TD*
D10*
G04 #@! TO.C,MX10*
X109524800Y-75415140D03*
D11*
X114604800Y-75415140D03*
X104444800Y-75415140D03*
G04 #@! TD*
D10*
G04 #@! TO.C,MX05*
X204787500Y-33337500D03*
D11*
X199707500Y-33337500D03*
X209867500Y-33337500D03*
G04 #@! TD*
D10*
G04 #@! TO.C,MX04*
X185737500Y-33337500D03*
D11*
X180657500Y-33337500D03*
X190817500Y-33337500D03*
G04 #@! TD*
D10*
G04 #@! TO.C,MX03*
X166687500Y-33337500D03*
D11*
X161607500Y-33337500D03*
X171767500Y-33337500D03*
G04 #@! TD*
D15*
G04 #@! TO.C,J1*
X243681250Y-26756250D03*
X243681250Y-19756250D03*
G04 #@! TD*
M02*
