M48
; DRILL file {KiCad 5.1.10} date Wed Mar  9 15:21:44 2022
; FORMAT={-:-/ absolute / inch / decimal}
; #@! TF.CreationDate,2022-03-09T15:21:44-05:00
; #@! TF.GenerationSoftware,Kicad,Pcbnew,5.1.10
; #@! TF.FileFunction,NonPlated,1,2,NPTH
FMAT,2
INCH
T1C0.0472
T2C0.0689
T3C0.1200
T4C0.1570
%
G90
G05
T1
X9.2664Y-2.7547
X9.5938Y-0.7778
X9.5938Y-1.0534
T2
X3.6431Y-5.2189
X3.8308Y-4.4691
X3.9245Y-2.9691
X4.0431Y-5.2189
X4.1118Y-5.2189
X4.112Y-2.9691
X4.112Y-3.7191
X4.112Y-4.4691
X4.2307Y-4.4691
X4.3245Y-2.9691
X4.5118Y-5.2189
X4.512Y-2.9691
X4.512Y-3.7191
X4.512Y-4.4691
X4.5806Y-5.2189
X4.8618Y-5.2189
X4.862Y-2.9691
X4.862Y-3.7191
X4.862Y-4.4691
X4.9806Y-5.2189
X5.2618Y-5.2189
X5.262Y-2.9691
X5.262Y-3.7191
X5.262Y-4.4691
X5.5181Y-5.2189
X5.6118Y-5.2189
X5.6125Y-2.375
X5.6125Y-3.125
X5.6125Y-3.875
X5.9181Y-5.2189
X6.0118Y-5.2189
X6.0125Y-2.375
X6.0125Y-3.125
X6.0125Y-3.875
X6.3625Y-1.3125
X6.3625Y-2.25
X6.3625Y-3.0
X6.3625Y-3.75
X6.5493Y-5.2189
X6.7625Y-1.3125
X6.7625Y-2.25
X6.7625Y-3.0
X6.7625Y-3.75
X6.9493Y-5.2189
X7.1125Y-1.3125
X7.1125Y-2.4388
X7.1125Y-3.1888
X7.1125Y-3.9388
X7.5125Y-1.3125
X7.5125Y-2.4388
X7.5125Y-3.1888
X7.5125Y-3.9388
X7.8625Y-1.3125
X7.8625Y-2.4813
X7.8625Y-3.2313
X7.8625Y-3.9813
X8.2625Y-1.3125
X8.2625Y-2.4813
X8.2625Y-3.2313
X8.2625Y-3.9813
X8.7612Y-5.5328
X8.9612Y-5.1864
X9.4107Y-5.9078
X9.6107Y-5.5614
T3
X8.3887Y-5.628
X8.8574Y-4.8161
X9.0382Y-6.003
X9.507Y-5.1911
T4
X3.8431Y-5.2189
X4.0308Y-4.4691
X4.1245Y-2.9691
X4.3118Y-5.2189
X4.312Y-2.9691
X4.312Y-3.7191
X4.312Y-4.4691
X4.7806Y-5.2189
X5.0618Y-5.2189
X5.062Y-2.9691
X5.062Y-3.7191
X5.062Y-4.4691
X5.7181Y-5.2189
X5.8118Y-5.2189
X5.8125Y-2.375
X5.8125Y-3.125
X5.8125Y-3.875
X6.5625Y-1.3125
X6.5625Y-2.25
X6.5625Y-3.0
X6.5625Y-3.75
X6.7493Y-5.2189
X7.3125Y-1.3125
X7.3125Y-2.4388
X7.3125Y-3.1888
X7.3125Y-3.9388
X8.0625Y-1.3125
X8.0625Y-2.4813
X8.0625Y-3.2313
X8.0625Y-3.9813
X8.8612Y-5.3596
X8.9083Y-5.928
X9.3771Y-5.1161
X9.5107Y-5.7346
X9.5578Y-6.303
X10.0266Y-5.4911
T0
M30
