G04 #@! TF.GenerationSoftware,KiCad,Pcbnew,5.1.10*
G04 #@! TF.CreationDate,2021-07-25T23:09:34-04:00*
G04 #@! TF.ProjectId,v04_left,7630345f-6c65-4667-942e-6b696361645f,rev?*
G04 #@! TF.SameCoordinates,Original*
G04 #@! TF.FileFunction,Soldermask,Top*
G04 #@! TF.FilePolarity,Negative*
%FSLAX46Y46*%
G04 Gerber Fmt 4.6, Leading zero omitted, Abs format (unit mm)*
G04 Created by KiCad (PCBNEW 5.1.10) date 2021-07-25 23:09:34*
%MOMM*%
%LPD*%
G01*
G04 APERTURE LIST*
%ADD10C,3.987800*%
%ADD11C,1.750000*%
%ADD12C,3.048000*%
%ADD13R,1.752600X1.752600*%
%ADD14C,1.752600*%
%ADD15C,1.200000*%
%ADD16C,2.200000*%
%ADD17C,2.100000*%
%ADD18C,1.397000*%
G04 APERTURE END LIST*
D10*
X-36068000Y-118618000D03*
D11*
X-40467409Y-116078000D03*
X-31668591Y-121158000D03*
D12*
X-42886615Y-106615688D03*
X-22264385Y-118521938D03*
D10*
X-50506615Y-119813915D03*
X-29884385Y-131720165D03*
D13*
X-13671250Y-8275000D03*
D14*
X-13671250Y-10815000D03*
X-13671250Y-13355000D03*
X-13671250Y-15895000D03*
X-13671250Y-18435000D03*
X-13671250Y-20975000D03*
X-13671250Y-23515000D03*
X-13671250Y-26055000D03*
X-13671250Y-28595000D03*
X-13671250Y-31135000D03*
X-13671250Y-33675000D03*
X1568750Y-36215000D03*
X1568750Y-33675000D03*
X1568750Y-31135000D03*
X1568750Y-28595000D03*
X1568750Y-26055000D03*
X1568750Y-23515000D03*
X1568750Y-20975000D03*
X1568750Y-18435000D03*
X1568750Y-15895000D03*
X1568750Y-13355000D03*
X1568750Y-10815000D03*
X-13671250Y-36215000D03*
X1568750Y-8275000D03*
D15*
X-2943750Y-60325000D03*
X4056250Y-60325000D03*
D16*
X-19750000Y-50750000D03*
X2381250Y-50800000D03*
D15*
X-14406250Y-62328750D03*
D17*
X-10906250Y-58628750D03*
D11*
X-11906250Y-61118750D03*
X-16906250Y-61118750D03*
D17*
X-17916250Y-58628750D03*
D10*
X-125412500Y-116681250D03*
D11*
X-130492500Y-116681250D03*
X-120332500Y-116681250D03*
D10*
X-113506250Y-24003000D03*
D11*
X-118586250Y-24003000D03*
X-108426250Y-24003000D03*
D10*
X-37306250Y-50228500D03*
D11*
X-37306250Y-55308500D03*
X-37306250Y-45148500D03*
D10*
X-56356250Y-45466000D03*
D11*
X-61436250Y-45466000D03*
X-51276250Y-45466000D03*
D10*
X-113506250Y-43053000D03*
D11*
X-118586250Y-43053000D03*
X-108426250Y-43053000D03*
D10*
X-56356250Y-26416000D03*
D11*
X-61436250Y-26416000D03*
X-51276250Y-26416000D03*
D18*
X-6811250Y-52011250D03*
X-11891250Y-52011250D03*
X-11891250Y-49630000D03*
X-6811250Y-49630000D03*
X-1606250Y-42088750D03*
X-4146250Y-42088750D03*
X-6686250Y-42088750D03*
X-9226250Y-42088750D03*
D10*
X-75406250Y-116681250D03*
D11*
X-80486250Y-116681250D03*
X-70326250Y-116681250D03*
D10*
X-94392750Y-97631250D03*
D11*
X-99472750Y-97631250D03*
X-89312750Y-97631250D03*
D10*
X-101600000Y-116681250D03*
D11*
X-106680000Y-116681250D03*
X-96520000Y-116681250D03*
D10*
X-149225000Y-116681250D03*
D11*
X-154305000Y-116681250D03*
X-144145000Y-116681250D03*
D10*
X-26543000Y-102108000D03*
D11*
X-30942409Y-99568000D03*
X-22143591Y-104648000D03*
D10*
X-56356250Y-83566000D03*
D11*
X-61436250Y-83566000D03*
X-51276250Y-83566000D03*
D10*
X-75406250Y-82550000D03*
D11*
X-80486250Y-82550000D03*
X-70326250Y-82550000D03*
D10*
X-94456250Y-73787000D03*
D11*
X-99536250Y-73787000D03*
X-89376250Y-73787000D03*
D10*
X-113506250Y-81153000D03*
D11*
X-118586250Y-81153000D03*
X-108426250Y-81153000D03*
D10*
X-132556250Y-97631250D03*
D11*
X-137636250Y-97631250D03*
X-127476250Y-97631250D03*
D10*
X-151606250Y-97631250D03*
D11*
X-156686250Y-97631250D03*
X-146526250Y-97631250D03*
D10*
X-56356250Y-64516000D03*
D11*
X-61436250Y-64516000D03*
X-51276250Y-64516000D03*
D10*
X-75406250Y-63500000D03*
D11*
X-80486250Y-63500000D03*
X-70326250Y-63500000D03*
D10*
X-94456250Y-54737000D03*
D11*
X-99536250Y-54737000D03*
X-89376250Y-54737000D03*
D10*
X-113506250Y-62103000D03*
D11*
X-118586250Y-62103000D03*
X-108426250Y-62103000D03*
D10*
X-132556250Y-78581250D03*
D11*
X-137636250Y-78581250D03*
X-127476250Y-78581250D03*
D10*
X-151606250Y-78581250D03*
D11*
X-156686250Y-78581250D03*
X-146526250Y-78581250D03*
D10*
X-75406250Y-44450000D03*
D11*
X-80486250Y-44450000D03*
X-70326250Y-44450000D03*
D10*
X-94456250Y-35687000D03*
D11*
X-99536250Y-35687000D03*
X-89376250Y-35687000D03*
D10*
X-132556250Y-59531250D03*
D11*
X-137636250Y-59531250D03*
X-127476250Y-59531250D03*
D10*
X-151606250Y-59531250D03*
D11*
X-156686250Y-59531250D03*
X-146526250Y-59531250D03*
D10*
X-37306250Y-26416000D03*
D11*
X-42386250Y-26416000D03*
X-32226250Y-26416000D03*
D10*
X-75406250Y-25400000D03*
D11*
X-80486250Y-25400000D03*
X-70326250Y-25400000D03*
D10*
X-94456250Y-16637000D03*
D11*
X-99536250Y-16637000D03*
X-89376250Y-16637000D03*
D10*
X-132556250Y-40481250D03*
D11*
X-137636250Y-40481250D03*
X-127476250Y-40481250D03*
D10*
X-151606250Y-40481250D03*
D11*
X-156686250Y-40481250D03*
X-146526250Y-40481250D03*
M02*
