G04 #@! TF.GenerationSoftware,KiCad,Pcbnew,5.1.10*
G04 #@! TF.CreationDate,2021-07-25T23:09:34-04:00*
G04 #@! TF.ProjectId,v04_left,7630345f-6c65-4667-942e-6b696361645f,rev?*
G04 #@! TF.SameCoordinates,Original*
G04 #@! TF.FileFunction,Legend,Bot*
G04 #@! TF.FilePolarity,Positive*
%FSLAX46Y46*%
G04 Gerber Fmt 4.6, Leading zero omitted, Abs format (unit mm)*
G04 Created by KiCad (PCBNEW 5.1.10) date 2021-07-25 23:09:34*
%MOMM*%
%LPD*%
G01*
G04 APERTURE LIST*
%ADD10C,0.300000*%
%ADD11C,0.150000*%
%ADD12C,0.381000*%
%ADD13C,0.100000*%
%ADD14C,2.250000*%
%ADD15C,3.987800*%
%ADD16C,1.750000*%
%ADD17C,3.048000*%
%ADD18R,1.752600X1.752600*%
%ADD19C,1.752600*%
%ADD20O,2.500000X1.700000*%
%ADD21C,1.200000*%
%ADD22C,2.200000*%
%ADD23C,2.100000*%
%ADD24R,1.200000X0.900000*%
%ADD25R,0.900000X1.200000*%
%ADD26C,1.397000*%
G04 APERTURE END LIST*
D10*
X-68525000Y-103866071D02*
X-67810714Y-103866071D01*
X-67810714Y-102366071D01*
X-69025000Y-103080357D02*
X-69525000Y-103080357D01*
X-69739285Y-103866071D02*
X-69025000Y-103866071D01*
X-69025000Y-102366071D01*
X-69739285Y-102366071D01*
X-70882142Y-103080357D02*
X-70382142Y-103080357D01*
X-70382142Y-103866071D02*
X-70382142Y-102366071D01*
X-71096428Y-102366071D01*
X-71453571Y-102366071D02*
X-72310714Y-102366071D01*
X-71882142Y-103866071D02*
X-71882142Y-102366071D01*
X-73882142Y-103794642D02*
X-74096428Y-103866071D01*
X-74453571Y-103866071D01*
X-74596428Y-103794642D01*
X-74667857Y-103723214D01*
X-74739285Y-103580357D01*
X-74739285Y-103437500D01*
X-74667857Y-103294642D01*
X-74596428Y-103223214D01*
X-74453571Y-103151785D01*
X-74167857Y-103080357D01*
X-74025000Y-103008928D01*
X-73953571Y-102937500D01*
X-73882142Y-102794642D01*
X-73882142Y-102651785D01*
X-73953571Y-102508928D01*
X-74025000Y-102437500D01*
X-74167857Y-102366071D01*
X-74525000Y-102366071D01*
X-74739285Y-102437500D01*
X-75382142Y-103866071D02*
X-75382142Y-102366071D01*
X-76096428Y-103866071D02*
X-76096428Y-102366071D01*
X-76453571Y-102366071D01*
X-76667857Y-102437500D01*
X-76810714Y-102580357D01*
X-76882142Y-102723214D01*
X-76953571Y-103008928D01*
X-76953571Y-103223214D01*
X-76882142Y-103508928D01*
X-76810714Y-103651785D01*
X-76667857Y-103794642D01*
X-76453571Y-103866071D01*
X-76096428Y-103866071D01*
X-77596428Y-103080357D02*
X-78096428Y-103080357D01*
X-78310714Y-103866071D02*
X-77596428Y-103866071D01*
X-77596428Y-102366071D01*
X-78310714Y-102366071D01*
D11*
X-65667857Y-100369642D02*
X-65620238Y-100417261D01*
X-65477380Y-100464880D01*
X-65382142Y-100464880D01*
X-65239285Y-100417261D01*
X-65144047Y-100322023D01*
X-65096428Y-100226785D01*
X-65048809Y-100036309D01*
X-65048809Y-99893452D01*
X-65096428Y-99702976D01*
X-65144047Y-99607738D01*
X-65239285Y-99512500D01*
X-65382142Y-99464880D01*
X-65477380Y-99464880D01*
X-65620238Y-99512500D01*
X-65667857Y-99560119D01*
X-66525000Y-99798214D02*
X-66525000Y-100464880D01*
X-66096428Y-99798214D02*
X-66096428Y-100322023D01*
X-66144047Y-100417261D01*
X-66239285Y-100464880D01*
X-66382142Y-100464880D01*
X-66477380Y-100417261D01*
X-66525000Y-100369642D01*
X-66953571Y-100417261D02*
X-67048809Y-100464880D01*
X-67239285Y-100464880D01*
X-67334523Y-100417261D01*
X-67382142Y-100322023D01*
X-67382142Y-100274404D01*
X-67334523Y-100179166D01*
X-67239285Y-100131547D01*
X-67096428Y-100131547D01*
X-67001190Y-100083928D01*
X-66953571Y-99988690D01*
X-66953571Y-99941071D01*
X-67001190Y-99845833D01*
X-67096428Y-99798214D01*
X-67239285Y-99798214D01*
X-67334523Y-99845833D01*
X-67667857Y-99798214D02*
X-68048809Y-99798214D01*
X-67810714Y-99464880D02*
X-67810714Y-100322023D01*
X-67858333Y-100417261D01*
X-67953571Y-100464880D01*
X-68048809Y-100464880D01*
X-68525000Y-100464880D02*
X-68429761Y-100417261D01*
X-68382142Y-100369642D01*
X-68334523Y-100274404D01*
X-68334523Y-99988690D01*
X-68382142Y-99893452D01*
X-68429761Y-99845833D01*
X-68525000Y-99798214D01*
X-68667857Y-99798214D01*
X-68763095Y-99845833D01*
X-68810714Y-99893452D01*
X-68858333Y-99988690D01*
X-68858333Y-100274404D01*
X-68810714Y-100369642D01*
X-68763095Y-100417261D01*
X-68667857Y-100464880D01*
X-68525000Y-100464880D01*
X-69286904Y-100464880D02*
X-69286904Y-99798214D01*
X-69286904Y-99893452D02*
X-69334523Y-99845833D01*
X-69429761Y-99798214D01*
X-69572619Y-99798214D01*
X-69667857Y-99845833D01*
X-69715476Y-99941071D01*
X-69715476Y-100464880D01*
X-69715476Y-99941071D02*
X-69763095Y-99845833D01*
X-69858333Y-99798214D01*
X-70001190Y-99798214D01*
X-70096428Y-99845833D01*
X-70144047Y-99941071D01*
X-70144047Y-100464880D01*
X-71715476Y-99941071D02*
X-71858333Y-99988690D01*
X-71905952Y-100036309D01*
X-71953571Y-100131547D01*
X-71953571Y-100274404D01*
X-71905952Y-100369642D01*
X-71858333Y-100417261D01*
X-71763095Y-100464880D01*
X-71382142Y-100464880D01*
X-71382142Y-99464880D01*
X-71715476Y-99464880D01*
X-71810714Y-99512500D01*
X-71858333Y-99560119D01*
X-71905952Y-99655357D01*
X-71905952Y-99750595D01*
X-71858333Y-99845833D01*
X-71810714Y-99893452D01*
X-71715476Y-99941071D01*
X-71382142Y-99941071D01*
X-72525000Y-100464880D02*
X-72429761Y-100417261D01*
X-72382142Y-100369642D01*
X-72334523Y-100274404D01*
X-72334523Y-99988690D01*
X-72382142Y-99893452D01*
X-72429761Y-99845833D01*
X-72525000Y-99798214D01*
X-72667857Y-99798214D01*
X-72763095Y-99845833D01*
X-72810714Y-99893452D01*
X-72858333Y-99988690D01*
X-72858333Y-100274404D01*
X-72810714Y-100369642D01*
X-72763095Y-100417261D01*
X-72667857Y-100464880D01*
X-72525000Y-100464880D01*
X-73715476Y-99798214D02*
X-73715476Y-100464880D01*
X-73286904Y-99798214D02*
X-73286904Y-100322023D01*
X-73334523Y-100417261D01*
X-73429761Y-100464880D01*
X-73572619Y-100464880D01*
X-73667857Y-100417261D01*
X-73715476Y-100369642D01*
X-74191666Y-100464880D02*
X-74191666Y-99798214D01*
X-74191666Y-99988690D02*
X-74239285Y-99893452D01*
X-74286904Y-99845833D01*
X-74382142Y-99798214D01*
X-74477380Y-99798214D01*
X-74810714Y-100464880D02*
X-74810714Y-99464880D01*
X-74810714Y-99845833D02*
X-74905952Y-99798214D01*
X-75096428Y-99798214D01*
X-75191666Y-99845833D01*
X-75239285Y-99893452D01*
X-75286904Y-99988690D01*
X-75286904Y-100274404D01*
X-75239285Y-100369642D01*
X-75191666Y-100417261D01*
X-75096428Y-100464880D01*
X-74905952Y-100464880D01*
X-74810714Y-100417261D01*
X-75858333Y-100464880D02*
X-75763095Y-100417261D01*
X-75715476Y-100369642D01*
X-75667857Y-100274404D01*
X-75667857Y-99988690D01*
X-75715476Y-99893452D01*
X-75763095Y-99845833D01*
X-75858333Y-99798214D01*
X-76001190Y-99798214D01*
X-76096428Y-99845833D01*
X-76144047Y-99893452D01*
X-76191666Y-99988690D01*
X-76191666Y-100274404D01*
X-76144047Y-100369642D01*
X-76096428Y-100417261D01*
X-76001190Y-100464880D01*
X-75858333Y-100464880D01*
X-76620238Y-99798214D02*
X-76620238Y-100464880D01*
X-76620238Y-99893452D02*
X-76667857Y-99845833D01*
X-76763095Y-99798214D01*
X-76905952Y-99798214D01*
X-77001190Y-99845833D01*
X-77048809Y-99941071D01*
X-77048809Y-100464880D01*
X-78191666Y-99798214D02*
X-78429761Y-100464880D01*
X-78667857Y-99798214D01*
X-79239285Y-99464880D02*
X-79334523Y-99464880D01*
X-79429761Y-99512500D01*
X-79477380Y-99560119D01*
X-79525000Y-99655357D01*
X-79572619Y-99845833D01*
X-79572619Y-100083928D01*
X-79525000Y-100274404D01*
X-79477380Y-100369642D01*
X-79429761Y-100417261D01*
X-79334523Y-100464880D01*
X-79239285Y-100464880D01*
X-79144047Y-100417261D01*
X-79096428Y-100369642D01*
X-79048809Y-100274404D01*
X-79001190Y-100083928D01*
X-79001190Y-99845833D01*
X-79048809Y-99655357D01*
X-79096428Y-99560119D01*
X-79144047Y-99512500D01*
X-79239285Y-99464880D01*
X-80001190Y-100369642D02*
X-80048809Y-100417261D01*
X-80001190Y-100464880D01*
X-79953571Y-100417261D01*
X-80001190Y-100369642D01*
X-80001190Y-100464880D01*
X-80905952Y-99798214D02*
X-80905952Y-100464880D01*
X-80667857Y-99417261D02*
X-80429761Y-100131547D01*
X-81048809Y-100131547D01*
D12*
X-12401250Y-7005000D02*
X-14941250Y-7005000D01*
X2838750Y-4465000D02*
X-14941250Y-4465000D01*
X-14941250Y-4465000D02*
X-14941250Y-37485000D01*
X-14941250Y-37485000D02*
X2838750Y-37485000D01*
X2838750Y-37485000D02*
X2838750Y-4465000D01*
D11*
G36*
X-206615Y-12894030D02*
G01*
X-206615Y-12994030D01*
X293385Y-12994030D01*
X293385Y-12894030D01*
X-206615Y-12894030D01*
G37*
X-206615Y-12894030D02*
X-206615Y-12994030D01*
X293385Y-12994030D01*
X293385Y-12894030D01*
X-206615Y-12894030D01*
G36*
X-206615Y-12894030D02*
G01*
X-206615Y-13194030D01*
X-106615Y-13194030D01*
X-106615Y-12894030D01*
X-206615Y-12894030D01*
G37*
X-206615Y-12894030D02*
X-206615Y-13194030D01*
X-106615Y-13194030D01*
X-106615Y-12894030D01*
X-206615Y-12894030D01*
G36*
X-206615Y-13494030D02*
G01*
X-206615Y-13694030D01*
X-106615Y-13694030D01*
X-106615Y-13494030D01*
X-206615Y-13494030D01*
G37*
X-206615Y-13494030D02*
X-206615Y-13694030D01*
X-106615Y-13694030D01*
X-106615Y-13494030D01*
X-206615Y-13494030D01*
G36*
X193385Y-12894030D02*
G01*
X193385Y-13694030D01*
X293385Y-13694030D01*
X293385Y-12894030D01*
X193385Y-12894030D01*
G37*
X193385Y-12894030D02*
X193385Y-13694030D01*
X293385Y-13694030D01*
X293385Y-12894030D01*
X193385Y-12894030D01*
G36*
X-6615Y-13294030D02*
G01*
X-6615Y-13394030D01*
X93385Y-13394030D01*
X93385Y-13294030D01*
X-6615Y-13294030D01*
G37*
X-6615Y-13294030D02*
X-6615Y-13394030D01*
X93385Y-13394030D01*
X93385Y-13294030D01*
X-6615Y-13294030D01*
D12*
X-12401250Y-7005000D02*
X-12401250Y-9545000D01*
X-12401250Y-9545000D02*
X-14941250Y-9545000D01*
D13*
X-51468750Y-104558494D02*
X-51218750Y-104125481D01*
X-51815160Y-104358494D02*
X-51768750Y-105078109D01*
X-51122340Y-104758494D02*
X-51815160Y-104358494D01*
X-51768750Y-105078109D02*
X-51122340Y-104758494D01*
X-51768750Y-105078109D02*
X-52245064Y-104803109D01*
X-51768750Y-105078109D02*
X-51292436Y-105353109D01*
X-51968750Y-105424519D02*
X-51768750Y-105078109D01*
X-53073173Y-105537436D02*
X-51514327Y-106437436D01*
X-51673173Y-103112564D02*
X-53073173Y-105537436D01*
X-50114327Y-104012564D02*
X-51673173Y-103112564D01*
X-51514327Y-106437436D02*
X-50114327Y-104012564D01*
X-62706250Y-116431250D02*
X-62706250Y-115931250D01*
X-63106250Y-116431250D02*
X-62706250Y-117031250D01*
X-62306250Y-116431250D02*
X-63106250Y-116431250D01*
X-62706250Y-117031250D02*
X-62306250Y-116431250D01*
X-62706250Y-117031250D02*
X-63256250Y-117031250D01*
X-62706250Y-117031250D02*
X-62156250Y-117031250D01*
X-62706250Y-117431250D02*
X-62706250Y-117031250D01*
X-63606250Y-118081250D02*
X-61806250Y-118081250D01*
X-63606250Y-115281250D02*
X-63606250Y-118081250D01*
X-61806250Y-115281250D02*
X-63606250Y-115281250D01*
X-61806250Y-118081250D02*
X-61806250Y-115281250D01*
X-87562500Y-105568750D02*
X-88062500Y-105568750D01*
X-87562500Y-105968750D02*
X-86962500Y-105568750D01*
X-87562500Y-105168750D02*
X-87562500Y-105968750D01*
X-86962500Y-105568750D02*
X-87562500Y-105168750D01*
X-86962500Y-105568750D02*
X-86962500Y-106118750D01*
X-86962500Y-105568750D02*
X-86962500Y-105018750D01*
X-86562500Y-105568750D02*
X-86962500Y-105568750D01*
X-85912500Y-106468750D02*
X-85912500Y-104668750D01*
X-88712500Y-106468750D02*
X-85912500Y-106468750D01*
X-88712500Y-104668750D02*
X-88712500Y-106468750D01*
X-85912500Y-104668750D02*
X-88712500Y-104668750D01*
X-91281250Y-115637500D02*
X-91281250Y-115137500D01*
X-91681250Y-115637500D02*
X-91281250Y-116237500D01*
X-90881250Y-115637500D02*
X-91681250Y-115637500D01*
X-91281250Y-116237500D02*
X-90881250Y-115637500D01*
X-91281250Y-116237500D02*
X-91831250Y-116237500D01*
X-91281250Y-116237500D02*
X-90731250Y-116237500D01*
X-91281250Y-116637500D02*
X-91281250Y-116237500D01*
X-92181250Y-117287500D02*
X-90381250Y-117287500D01*
X-92181250Y-114487500D02*
X-92181250Y-117287500D01*
X-90381250Y-114487500D02*
X-92181250Y-114487500D01*
X-90381250Y-117287500D02*
X-90381250Y-114487500D01*
X-115093750Y-115637500D02*
X-115093750Y-115137500D01*
X-115493750Y-115637500D02*
X-115093750Y-116237500D01*
X-114693750Y-115637500D02*
X-115493750Y-115637500D01*
X-115093750Y-116237500D02*
X-114693750Y-115637500D01*
X-115093750Y-116237500D02*
X-115643750Y-116237500D01*
X-115093750Y-116237500D02*
X-114543750Y-116237500D01*
X-115093750Y-116637500D02*
X-115093750Y-116237500D01*
X-115993750Y-117287500D02*
X-114193750Y-117287500D01*
X-115993750Y-114487500D02*
X-115993750Y-117287500D01*
X-114193750Y-114487500D02*
X-115993750Y-114487500D01*
X-114193750Y-117287500D02*
X-114193750Y-114487500D01*
X-138906250Y-115637500D02*
X-138906250Y-115137500D01*
X-139306250Y-115637500D02*
X-138906250Y-116237500D01*
X-138506250Y-115637500D02*
X-139306250Y-115637500D01*
X-138906250Y-116237500D02*
X-138506250Y-115637500D01*
X-138906250Y-116237500D02*
X-139456250Y-116237500D01*
X-138906250Y-116237500D02*
X-138356250Y-116237500D01*
X-138906250Y-116637500D02*
X-138906250Y-116237500D01*
X-139806250Y-117287500D02*
X-138006250Y-117287500D01*
X-139806250Y-114487500D02*
X-139806250Y-117287500D01*
X-138006250Y-114487500D02*
X-139806250Y-114487500D01*
X-138006250Y-117287500D02*
X-138006250Y-114487500D01*
X-35435000Y-93763494D02*
X-35185000Y-93330481D01*
X-35781410Y-93563494D02*
X-35735000Y-94283109D01*
X-35088590Y-93963494D02*
X-35781410Y-93563494D01*
X-35735000Y-94283109D02*
X-35088590Y-93963494D01*
X-35735000Y-94283109D02*
X-36211314Y-94008109D01*
X-35735000Y-94283109D02*
X-35258686Y-94558109D01*
X-35935000Y-94629519D02*
X-35735000Y-94283109D01*
X-37039423Y-94742436D02*
X-35480577Y-95642436D01*
X-35639423Y-92317564D02*
X-37039423Y-94742436D01*
X-34080577Y-93217564D02*
X-35639423Y-92317564D01*
X-35480577Y-95642436D02*
X-34080577Y-93217564D01*
X-49462500Y-91281250D02*
X-49962500Y-91281250D01*
X-49462500Y-91681250D02*
X-48862500Y-91281250D01*
X-49462500Y-90881250D02*
X-49462500Y-91681250D01*
X-48862500Y-91281250D02*
X-49462500Y-90881250D01*
X-48862500Y-91281250D02*
X-48862500Y-91831250D01*
X-48862500Y-91281250D02*
X-48862500Y-90731250D01*
X-48462500Y-91281250D02*
X-48862500Y-91281250D01*
X-47812500Y-92181250D02*
X-47812500Y-90381250D01*
X-50612500Y-92181250D02*
X-47812500Y-92181250D01*
X-50612500Y-90381250D02*
X-50612500Y-92181250D01*
X-47812500Y-90381250D02*
X-50612500Y-90381250D01*
X-68512500Y-90487500D02*
X-69012500Y-90487500D01*
X-68512500Y-90887500D02*
X-67912500Y-90487500D01*
X-68512500Y-90087500D02*
X-68512500Y-90887500D01*
X-67912500Y-90487500D02*
X-68512500Y-90087500D01*
X-67912500Y-90487500D02*
X-67912500Y-91037500D01*
X-67912500Y-90487500D02*
X-67912500Y-89937500D01*
X-67512500Y-90487500D02*
X-67912500Y-90487500D01*
X-66862500Y-91387500D02*
X-66862500Y-89587500D01*
X-69662500Y-91387500D02*
X-66862500Y-91387500D01*
X-69662500Y-89587500D02*
X-69662500Y-91387500D01*
X-66862500Y-89587500D02*
X-69662500Y-89587500D01*
X-87562500Y-81756250D02*
X-88062500Y-81756250D01*
X-87562500Y-82156250D02*
X-86962500Y-81756250D01*
X-87562500Y-81356250D02*
X-87562500Y-82156250D01*
X-86962500Y-81756250D02*
X-87562500Y-81356250D01*
X-86962500Y-81756250D02*
X-86962500Y-82306250D01*
X-86962500Y-81756250D02*
X-86962500Y-81206250D01*
X-86562500Y-81756250D02*
X-86962500Y-81756250D01*
X-85912500Y-82656250D02*
X-85912500Y-80856250D01*
X-88712500Y-82656250D02*
X-85912500Y-82656250D01*
X-88712500Y-80856250D02*
X-88712500Y-82656250D01*
X-85912500Y-80856250D02*
X-88712500Y-80856250D01*
X-106612500Y-88900000D02*
X-107112500Y-88900000D01*
X-106612500Y-89300000D02*
X-106012500Y-88900000D01*
X-106612500Y-88500000D02*
X-106612500Y-89300000D01*
X-106012500Y-88900000D02*
X-106612500Y-88500000D01*
X-106012500Y-88900000D02*
X-106012500Y-89450000D01*
X-106012500Y-88900000D02*
X-106012500Y-88350000D01*
X-105612500Y-88900000D02*
X-106012500Y-88900000D01*
X-104962500Y-89800000D02*
X-104962500Y-88000000D01*
X-107762500Y-89800000D02*
X-104962500Y-89800000D01*
X-107762500Y-88000000D02*
X-107762500Y-89800000D01*
X-104962500Y-88000000D02*
X-107762500Y-88000000D01*
X-125662500Y-105568750D02*
X-126162500Y-105568750D01*
X-125662500Y-105968750D02*
X-125062500Y-105568750D01*
X-125662500Y-105168750D02*
X-125662500Y-105968750D01*
X-125062500Y-105568750D02*
X-125662500Y-105168750D01*
X-125062500Y-105568750D02*
X-125062500Y-106118750D01*
X-125062500Y-105568750D02*
X-125062500Y-105018750D01*
X-124662500Y-105568750D02*
X-125062500Y-105568750D01*
X-124012500Y-106468750D02*
X-124012500Y-104668750D01*
X-126812500Y-106468750D02*
X-124012500Y-106468750D01*
X-126812500Y-104668750D02*
X-126812500Y-106468750D01*
X-124012500Y-104668750D02*
X-126812500Y-104668750D01*
X-144712500Y-105568750D02*
X-145212500Y-105568750D01*
X-144712500Y-105968750D02*
X-144112500Y-105568750D01*
X-144712500Y-105168750D02*
X-144712500Y-105968750D01*
X-144112500Y-105568750D02*
X-144712500Y-105168750D01*
X-144112500Y-105568750D02*
X-144112500Y-106118750D01*
X-144112500Y-105568750D02*
X-144112500Y-105018750D01*
X-143712500Y-105568750D02*
X-144112500Y-105568750D01*
X-143062500Y-106468750D02*
X-143062500Y-104668750D01*
X-145862500Y-106468750D02*
X-143062500Y-106468750D01*
X-145862500Y-104668750D02*
X-145862500Y-106468750D01*
X-143062500Y-104668750D02*
X-145862500Y-104668750D01*
X-43906250Y-61912500D02*
X-44406250Y-61912500D01*
X-43906250Y-62312500D02*
X-43306250Y-61912500D01*
X-43906250Y-61512500D02*
X-43906250Y-62312500D01*
X-43306250Y-61912500D02*
X-43906250Y-61512500D01*
X-43306250Y-61912500D02*
X-43306250Y-62462500D01*
X-43306250Y-61912500D02*
X-43306250Y-61362500D01*
X-42906250Y-61912500D02*
X-43306250Y-61912500D01*
X-42256250Y-62812500D02*
X-42256250Y-61012500D01*
X-45056250Y-62812500D02*
X-42256250Y-62812500D01*
X-45056250Y-61012500D02*
X-45056250Y-62812500D01*
X-42256250Y-61012500D02*
X-45056250Y-61012500D01*
X-49462500Y-72231250D02*
X-49962500Y-72231250D01*
X-49462500Y-72631250D02*
X-48862500Y-72231250D01*
X-49462500Y-71831250D02*
X-49462500Y-72631250D01*
X-48862500Y-72231250D02*
X-49462500Y-71831250D01*
X-48862500Y-72231250D02*
X-48862500Y-72781250D01*
X-48862500Y-72231250D02*
X-48862500Y-71681250D01*
X-48462500Y-72231250D02*
X-48862500Y-72231250D01*
X-47812500Y-73131250D02*
X-47812500Y-71331250D01*
X-50612500Y-73131250D02*
X-47812500Y-73131250D01*
X-50612500Y-71331250D02*
X-50612500Y-73131250D01*
X-47812500Y-71331250D02*
X-50612500Y-71331250D01*
X-68512500Y-71437500D02*
X-69012500Y-71437500D01*
X-68512500Y-71837500D02*
X-67912500Y-71437500D01*
X-68512500Y-71037500D02*
X-68512500Y-71837500D01*
X-67912500Y-71437500D02*
X-68512500Y-71037500D01*
X-67912500Y-71437500D02*
X-67912500Y-71987500D01*
X-67912500Y-71437500D02*
X-67912500Y-70887500D01*
X-67512500Y-71437500D02*
X-67912500Y-71437500D01*
X-66862500Y-72337500D02*
X-66862500Y-70537500D01*
X-69662500Y-72337500D02*
X-66862500Y-72337500D01*
X-69662500Y-70537500D02*
X-69662500Y-72337500D01*
X-66862500Y-70537500D02*
X-69662500Y-70537500D01*
X-87562500Y-62706250D02*
X-88062500Y-62706250D01*
X-87562500Y-63106250D02*
X-86962500Y-62706250D01*
X-87562500Y-62306250D02*
X-87562500Y-63106250D01*
X-86962500Y-62706250D02*
X-87562500Y-62306250D01*
X-86962500Y-62706250D02*
X-86962500Y-63256250D01*
X-86962500Y-62706250D02*
X-86962500Y-62156250D01*
X-86562500Y-62706250D02*
X-86962500Y-62706250D01*
X-85912500Y-63606250D02*
X-85912500Y-61806250D01*
X-88712500Y-63606250D02*
X-85912500Y-63606250D01*
X-88712500Y-61806250D02*
X-88712500Y-63606250D01*
X-85912500Y-61806250D02*
X-88712500Y-61806250D01*
X-106612500Y-69850000D02*
X-107112500Y-69850000D01*
X-106612500Y-70250000D02*
X-106012500Y-69850000D01*
X-106612500Y-69450000D02*
X-106612500Y-70250000D01*
X-106012500Y-69850000D02*
X-106612500Y-69450000D01*
X-106012500Y-69850000D02*
X-106012500Y-70400000D01*
X-106012500Y-69850000D02*
X-106012500Y-69300000D01*
X-105612500Y-69850000D02*
X-106012500Y-69850000D01*
X-104962500Y-70750000D02*
X-104962500Y-68950000D01*
X-107762500Y-70750000D02*
X-104962500Y-70750000D01*
X-107762500Y-68950000D02*
X-107762500Y-70750000D01*
X-104962500Y-68950000D02*
X-107762500Y-68950000D01*
X-125662500Y-86518750D02*
X-126162500Y-86518750D01*
X-125662500Y-86918750D02*
X-125062500Y-86518750D01*
X-125662500Y-86118750D02*
X-125662500Y-86918750D01*
X-125062500Y-86518750D02*
X-125662500Y-86118750D01*
X-125062500Y-86518750D02*
X-125062500Y-87068750D01*
X-125062500Y-86518750D02*
X-125062500Y-85968750D01*
X-124662500Y-86518750D02*
X-125062500Y-86518750D01*
X-124012500Y-87418750D02*
X-124012500Y-85618750D01*
X-126812500Y-87418750D02*
X-124012500Y-87418750D01*
X-126812500Y-85618750D02*
X-126812500Y-87418750D01*
X-124012500Y-85618750D02*
X-126812500Y-85618750D01*
X-144712500Y-86518750D02*
X-145212500Y-86518750D01*
X-144712500Y-86918750D02*
X-144112500Y-86518750D01*
X-144712500Y-86118750D02*
X-144712500Y-86918750D01*
X-144112500Y-86518750D02*
X-144712500Y-86118750D01*
X-144112500Y-86518750D02*
X-144112500Y-87068750D01*
X-144112500Y-86518750D02*
X-144112500Y-85968750D01*
X-143712500Y-86518750D02*
X-144112500Y-86518750D01*
X-143062500Y-87418750D02*
X-143062500Y-85618750D01*
X-145862500Y-87418750D02*
X-143062500Y-87418750D01*
X-145862500Y-85618750D02*
X-145862500Y-87418750D01*
X-143062500Y-85618750D02*
X-145862500Y-85618750D01*
X-49462500Y-53181250D02*
X-49962500Y-53181250D01*
X-49462500Y-53581250D02*
X-48862500Y-53181250D01*
X-49462500Y-52781250D02*
X-49462500Y-53581250D01*
X-48862500Y-53181250D02*
X-49462500Y-52781250D01*
X-48862500Y-53181250D02*
X-48862500Y-53731250D01*
X-48862500Y-53181250D02*
X-48862500Y-52631250D01*
X-48462500Y-53181250D02*
X-48862500Y-53181250D01*
X-47812500Y-54081250D02*
X-47812500Y-52281250D01*
X-50612500Y-54081250D02*
X-47812500Y-54081250D01*
X-50612500Y-52281250D02*
X-50612500Y-54081250D01*
X-47812500Y-52281250D02*
X-50612500Y-52281250D01*
X-68512500Y-52387500D02*
X-69012500Y-52387500D01*
X-68512500Y-52787500D02*
X-67912500Y-52387500D01*
X-68512500Y-51987500D02*
X-68512500Y-52787500D01*
X-67912500Y-52387500D02*
X-68512500Y-51987500D01*
X-67912500Y-52387500D02*
X-67912500Y-52937500D01*
X-67912500Y-52387500D02*
X-67912500Y-51837500D01*
X-67512500Y-52387500D02*
X-67912500Y-52387500D01*
X-66862500Y-53287500D02*
X-66862500Y-51487500D01*
X-69662500Y-53287500D02*
X-66862500Y-53287500D01*
X-69662500Y-51487500D02*
X-69662500Y-53287500D01*
X-66862500Y-51487500D02*
X-69662500Y-51487500D01*
X-87562500Y-43656250D02*
X-88062500Y-43656250D01*
X-87562500Y-44056250D02*
X-86962500Y-43656250D01*
X-87562500Y-43256250D02*
X-87562500Y-44056250D01*
X-86962500Y-43656250D02*
X-87562500Y-43256250D01*
X-86962500Y-43656250D02*
X-86962500Y-44206250D01*
X-86962500Y-43656250D02*
X-86962500Y-43106250D01*
X-86562500Y-43656250D02*
X-86962500Y-43656250D01*
X-85912500Y-44556250D02*
X-85912500Y-42756250D01*
X-88712500Y-44556250D02*
X-85912500Y-44556250D01*
X-88712500Y-42756250D02*
X-88712500Y-44556250D01*
X-85912500Y-42756250D02*
X-88712500Y-42756250D01*
X-106612500Y-50800000D02*
X-107112500Y-50800000D01*
X-106612500Y-51200000D02*
X-106012500Y-50800000D01*
X-106612500Y-50400000D02*
X-106612500Y-51200000D01*
X-106012500Y-50800000D02*
X-106612500Y-50400000D01*
X-106012500Y-50800000D02*
X-106012500Y-51350000D01*
X-106012500Y-50800000D02*
X-106012500Y-50250000D01*
X-105612500Y-50800000D02*
X-106012500Y-50800000D01*
X-104962500Y-51700000D02*
X-104962500Y-49900000D01*
X-107762500Y-51700000D02*
X-104962500Y-51700000D01*
X-107762500Y-49900000D02*
X-107762500Y-51700000D01*
X-104962500Y-49900000D02*
X-107762500Y-49900000D01*
X-125662500Y-67468750D02*
X-126162500Y-67468750D01*
X-125662500Y-67868750D02*
X-125062500Y-67468750D01*
X-125662500Y-67068750D02*
X-125662500Y-67868750D01*
X-125062500Y-67468750D02*
X-125662500Y-67068750D01*
X-125062500Y-67468750D02*
X-125062500Y-68018750D01*
X-125062500Y-67468750D02*
X-125062500Y-66918750D01*
X-124662500Y-67468750D02*
X-125062500Y-67468750D01*
X-124012500Y-68368750D02*
X-124012500Y-66568750D01*
X-126812500Y-68368750D02*
X-124012500Y-68368750D01*
X-126812500Y-66568750D02*
X-126812500Y-68368750D01*
X-124012500Y-66568750D02*
X-126812500Y-66568750D01*
X-144712500Y-67468750D02*
X-145212500Y-67468750D01*
X-144712500Y-67868750D02*
X-144112500Y-67468750D01*
X-144712500Y-67068750D02*
X-144712500Y-67868750D01*
X-144112500Y-67468750D02*
X-144712500Y-67068750D01*
X-144112500Y-67468750D02*
X-144112500Y-68018750D01*
X-144112500Y-67468750D02*
X-144112500Y-66918750D01*
X-143712500Y-67468750D02*
X-144112500Y-67468750D01*
X-143062500Y-68368750D02*
X-143062500Y-66568750D01*
X-145862500Y-68368750D02*
X-143062500Y-68368750D01*
X-145862500Y-66568750D02*
X-145862500Y-68368750D01*
X-143062500Y-66568750D02*
X-145862500Y-66568750D01*
X-30412500Y-34131250D02*
X-30912500Y-34131250D01*
X-30412500Y-34531250D02*
X-29812500Y-34131250D01*
X-30412500Y-33731250D02*
X-30412500Y-34531250D01*
X-29812500Y-34131250D02*
X-30412500Y-33731250D01*
X-29812500Y-34131250D02*
X-29812500Y-34681250D01*
X-29812500Y-34131250D02*
X-29812500Y-33581250D01*
X-29412500Y-34131250D02*
X-29812500Y-34131250D01*
X-28762500Y-35031250D02*
X-28762500Y-33231250D01*
X-31562500Y-35031250D02*
X-28762500Y-35031250D01*
X-31562500Y-33231250D02*
X-31562500Y-35031250D01*
X-28762500Y-33231250D02*
X-31562500Y-33231250D01*
X-49462500Y-34131250D02*
X-49962500Y-34131250D01*
X-49462500Y-34531250D02*
X-48862500Y-34131250D01*
X-49462500Y-33731250D02*
X-49462500Y-34531250D01*
X-48862500Y-34131250D02*
X-49462500Y-33731250D01*
X-48862500Y-34131250D02*
X-48862500Y-34681250D01*
X-48862500Y-34131250D02*
X-48862500Y-33581250D01*
X-48462500Y-34131250D02*
X-48862500Y-34131250D01*
X-47812500Y-35031250D02*
X-47812500Y-33231250D01*
X-50612500Y-35031250D02*
X-47812500Y-35031250D01*
X-50612500Y-33231250D02*
X-50612500Y-35031250D01*
X-47812500Y-33231250D02*
X-50612500Y-33231250D01*
X-68512500Y-33337500D02*
X-69012500Y-33337500D01*
X-68512500Y-33737500D02*
X-67912500Y-33337500D01*
X-68512500Y-32937500D02*
X-68512500Y-33737500D01*
X-67912500Y-33337500D02*
X-68512500Y-32937500D01*
X-67912500Y-33337500D02*
X-67912500Y-33887500D01*
X-67912500Y-33337500D02*
X-67912500Y-32787500D01*
X-67512500Y-33337500D02*
X-67912500Y-33337500D01*
X-66862500Y-34237500D02*
X-66862500Y-32437500D01*
X-69662500Y-34237500D02*
X-66862500Y-34237500D01*
X-69662500Y-32437500D02*
X-69662500Y-34237500D01*
X-66862500Y-32437500D02*
X-69662500Y-32437500D01*
X-87562500Y-24606250D02*
X-88062500Y-24606250D01*
X-87562500Y-25006250D02*
X-86962500Y-24606250D01*
X-87562500Y-24206250D02*
X-87562500Y-25006250D01*
X-86962500Y-24606250D02*
X-87562500Y-24206250D01*
X-86962500Y-24606250D02*
X-86962500Y-25156250D01*
X-86962500Y-24606250D02*
X-86962500Y-24056250D01*
X-86562500Y-24606250D02*
X-86962500Y-24606250D01*
X-85912500Y-25506250D02*
X-85912500Y-23706250D01*
X-88712500Y-25506250D02*
X-85912500Y-25506250D01*
X-88712500Y-23706250D02*
X-88712500Y-25506250D01*
X-85912500Y-23706250D02*
X-88712500Y-23706250D01*
X-106612500Y-31750000D02*
X-107112500Y-31750000D01*
X-106612500Y-32150000D02*
X-106012500Y-31750000D01*
X-106612500Y-31350000D02*
X-106612500Y-32150000D01*
X-106012500Y-31750000D02*
X-106612500Y-31350000D01*
X-106012500Y-31750000D02*
X-106012500Y-32300000D01*
X-106012500Y-31750000D02*
X-106012500Y-31200000D01*
X-105612500Y-31750000D02*
X-106012500Y-31750000D01*
X-104962500Y-32650000D02*
X-104962500Y-30850000D01*
X-107762500Y-32650000D02*
X-104962500Y-32650000D01*
X-107762500Y-30850000D02*
X-107762500Y-32650000D01*
X-104962500Y-30850000D02*
X-107762500Y-30850000D01*
X-125662500Y-48418750D02*
X-126162500Y-48418750D01*
X-125662500Y-48818750D02*
X-125062500Y-48418750D01*
X-125662500Y-48018750D02*
X-125662500Y-48818750D01*
X-125062500Y-48418750D02*
X-125662500Y-48018750D01*
X-125062500Y-48418750D02*
X-125062500Y-48968750D01*
X-125062500Y-48418750D02*
X-125062500Y-47868750D01*
X-124662500Y-48418750D02*
X-125062500Y-48418750D01*
X-124012500Y-49318750D02*
X-124012500Y-47518750D01*
X-126812500Y-49318750D02*
X-124012500Y-49318750D01*
X-126812500Y-47518750D02*
X-126812500Y-49318750D01*
X-124012500Y-47518750D02*
X-126812500Y-47518750D01*
X-144712500Y-48418750D02*
X-145212500Y-48418750D01*
X-144712500Y-48818750D02*
X-144112500Y-48418750D01*
X-144712500Y-48018750D02*
X-144712500Y-48818750D01*
X-144112500Y-48418750D02*
X-144712500Y-48018750D01*
X-144112500Y-48418750D02*
X-144112500Y-48968750D01*
X-144112500Y-48418750D02*
X-144112500Y-47868750D01*
X-143712500Y-48418750D02*
X-144112500Y-48418750D01*
X-143062500Y-49318750D02*
X-143062500Y-47518750D01*
X-145862500Y-49318750D02*
X-143062500Y-49318750D01*
X-145862500Y-47518750D02*
X-145862500Y-49318750D01*
X-143062500Y-47518750D02*
X-145862500Y-47518750D01*
D11*
X-10851250Y-53011250D02*
X-10851250Y-51011250D01*
X-7851250Y-53011250D02*
X-10851250Y-53011250D01*
X-7851250Y-51011250D02*
X-7851250Y-53011250D01*
X-10851250Y-51011250D02*
X-7851250Y-51011250D01*
X-7851250Y-48630000D02*
X-7851250Y-50630000D01*
X-10851250Y-48630000D02*
X-7851250Y-48630000D01*
X-10851250Y-50630000D02*
X-10851250Y-48630000D01*
X-7851250Y-50630000D02*
X-10851250Y-50630000D01*
X-10496250Y-43358750D02*
X-10496250Y-40818750D01*
X-336250Y-43358750D02*
X-10496250Y-43358750D01*
X-336250Y-40818750D02*
X-336250Y-43358750D01*
X-10496250Y-40818750D02*
X-336250Y-40818750D01*
X-10921773Y-11176904D02*
X-10921773Y-10376904D01*
X-11112250Y-10376904D01*
X-11226535Y-10415000D01*
X-11302726Y-10491190D01*
X-11340821Y-10567380D01*
X-11378916Y-10719761D01*
X-11378916Y-10834047D01*
X-11340821Y-10986428D01*
X-11302726Y-11062619D01*
X-11226535Y-11138809D01*
X-11112250Y-11176904D01*
X-10921773Y-11176904D01*
X-11683678Y-10453095D02*
X-11721773Y-10415000D01*
X-11797964Y-10376904D01*
X-11988440Y-10376904D01*
X-12064630Y-10415000D01*
X-12102726Y-10453095D01*
X-12140821Y-10529285D01*
X-12140821Y-10605476D01*
X-12102726Y-10719761D01*
X-11645583Y-11176904D01*
X-12140821Y-11176904D01*
X-10921773Y-21336904D02*
X-10921773Y-20536904D01*
X-11112250Y-20536904D01*
X-11226535Y-20575000D01*
X-11302726Y-20651190D01*
X-11340821Y-20727380D01*
X-11378916Y-20879761D01*
X-11378916Y-20994047D01*
X-11340821Y-21146428D01*
X-11302726Y-21222619D01*
X-11226535Y-21298809D01*
X-11112250Y-21336904D01*
X-10921773Y-21336904D01*
X-11874154Y-20536904D02*
X-11950345Y-20536904D01*
X-12026535Y-20575000D01*
X-12064630Y-20613095D01*
X-12102726Y-20689285D01*
X-12140821Y-20841666D01*
X-12140821Y-21032142D01*
X-12102726Y-21184523D01*
X-12064630Y-21260714D01*
X-12026535Y-21298809D01*
X-11950345Y-21336904D01*
X-11874154Y-21336904D01*
X-11797964Y-21298809D01*
X-11759869Y-21260714D01*
X-11721773Y-21184523D01*
X-11683678Y-21032142D01*
X-11683678Y-20841666D01*
X-11721773Y-20689285D01*
X-11759869Y-20613095D01*
X-11797964Y-20575000D01*
X-11874154Y-20536904D01*
X-10921773Y-18796904D02*
X-10921773Y-17996904D01*
X-11112250Y-17996904D01*
X-11226535Y-18035000D01*
X-11302726Y-18111190D01*
X-11340821Y-18187380D01*
X-11378916Y-18339761D01*
X-11378916Y-18454047D01*
X-11340821Y-18606428D01*
X-11302726Y-18682619D01*
X-11226535Y-18758809D01*
X-11112250Y-18796904D01*
X-10921773Y-18796904D01*
X-12140821Y-18796904D02*
X-11683678Y-18796904D01*
X-11912250Y-18796904D02*
X-11912250Y-17996904D01*
X-11836059Y-18111190D01*
X-11759869Y-18187380D01*
X-11683678Y-18225476D01*
X-10902726Y-15495000D02*
X-10826535Y-15456904D01*
X-10712250Y-15456904D01*
X-10597964Y-15495000D01*
X-10521773Y-15571190D01*
X-10483678Y-15647380D01*
X-10445583Y-15799761D01*
X-10445583Y-15914047D01*
X-10483678Y-16066428D01*
X-10521773Y-16142619D01*
X-10597964Y-16218809D01*
X-10712250Y-16256904D01*
X-10788440Y-16256904D01*
X-10902726Y-16218809D01*
X-10940821Y-16180714D01*
X-10940821Y-15914047D01*
X-10788440Y-15914047D01*
X-11283678Y-16256904D02*
X-11283678Y-15456904D01*
X-11740821Y-16256904D01*
X-11740821Y-15456904D01*
X-12121773Y-16256904D02*
X-12121773Y-15456904D01*
X-12312250Y-15456904D01*
X-12426535Y-15495000D01*
X-12502726Y-15571190D01*
X-12540821Y-15647380D01*
X-12578916Y-15799761D01*
X-12578916Y-15914047D01*
X-12540821Y-16066428D01*
X-12502726Y-16142619D01*
X-12426535Y-16218809D01*
X-12312250Y-16256904D01*
X-12121773Y-16256904D01*
X-10902726Y-12955000D02*
X-10826535Y-12916904D01*
X-10712250Y-12916904D01*
X-10597964Y-12955000D01*
X-10521773Y-13031190D01*
X-10483678Y-13107380D01*
X-10445583Y-13259761D01*
X-10445583Y-13374047D01*
X-10483678Y-13526428D01*
X-10521773Y-13602619D01*
X-10597964Y-13678809D01*
X-10712250Y-13716904D01*
X-10788440Y-13716904D01*
X-10902726Y-13678809D01*
X-10940821Y-13640714D01*
X-10940821Y-13374047D01*
X-10788440Y-13374047D01*
X-11283678Y-13716904D02*
X-11283678Y-12916904D01*
X-11740821Y-13716904D01*
X-11740821Y-12916904D01*
X-12121773Y-13716904D02*
X-12121773Y-12916904D01*
X-12312250Y-12916904D01*
X-12426535Y-12955000D01*
X-12502726Y-13031190D01*
X-12540821Y-13107380D01*
X-12578916Y-13259761D01*
X-12578916Y-13374047D01*
X-12540821Y-13526428D01*
X-12502726Y-13602619D01*
X-12426535Y-13678809D01*
X-12312250Y-13716904D01*
X-12121773Y-13716904D01*
X-10921773Y-23876904D02*
X-10921773Y-23076904D01*
X-11112250Y-23076904D01*
X-11226535Y-23115000D01*
X-11302726Y-23191190D01*
X-11340821Y-23267380D01*
X-11378916Y-23419761D01*
X-11378916Y-23534047D01*
X-11340821Y-23686428D01*
X-11302726Y-23762619D01*
X-11226535Y-23838809D01*
X-11112250Y-23876904D01*
X-10921773Y-23876904D01*
X-12064630Y-23343571D02*
X-12064630Y-23876904D01*
X-11874154Y-23038809D02*
X-11683678Y-23610238D01*
X-12178916Y-23610238D01*
X-11378916Y-26340714D02*
X-11340821Y-26378809D01*
X-11226535Y-26416904D01*
X-11150345Y-26416904D01*
X-11036059Y-26378809D01*
X-10959869Y-26302619D01*
X-10921773Y-26226428D01*
X-10883678Y-26074047D01*
X-10883678Y-25959761D01*
X-10921773Y-25807380D01*
X-10959869Y-25731190D01*
X-11036059Y-25655000D01*
X-11150345Y-25616904D01*
X-11226535Y-25616904D01*
X-11340821Y-25655000D01*
X-11378916Y-25693095D01*
X-12064630Y-25616904D02*
X-11912250Y-25616904D01*
X-11836059Y-25655000D01*
X-11797964Y-25693095D01*
X-11721773Y-25807380D01*
X-11683678Y-25959761D01*
X-11683678Y-26264523D01*
X-11721773Y-26340714D01*
X-11759869Y-26378809D01*
X-11836059Y-26416904D01*
X-11988440Y-26416904D01*
X-12064630Y-26378809D01*
X-12102726Y-26340714D01*
X-12140821Y-26264523D01*
X-12140821Y-26074047D01*
X-12102726Y-25997857D01*
X-12064630Y-25959761D01*
X-11988440Y-25921666D01*
X-11836059Y-25921666D01*
X-11759869Y-25959761D01*
X-11721773Y-25997857D01*
X-11683678Y-26074047D01*
X-10921773Y-28956904D02*
X-10921773Y-28156904D01*
X-11112250Y-28156904D01*
X-11226535Y-28195000D01*
X-11302726Y-28271190D01*
X-11340821Y-28347380D01*
X-11378916Y-28499761D01*
X-11378916Y-28614047D01*
X-11340821Y-28766428D01*
X-11302726Y-28842619D01*
X-11226535Y-28918809D01*
X-11112250Y-28956904D01*
X-10921773Y-28956904D01*
X-11645583Y-28156904D02*
X-12178916Y-28156904D01*
X-11836059Y-28956904D01*
X-10959869Y-31077857D02*
X-11226535Y-31077857D01*
X-11340821Y-31496904D02*
X-10959869Y-31496904D01*
X-10959869Y-30696904D01*
X-11340821Y-30696904D01*
X-12026535Y-30696904D02*
X-11874154Y-30696904D01*
X-11797964Y-30735000D01*
X-11759869Y-30773095D01*
X-11683678Y-30887380D01*
X-11645583Y-31039761D01*
X-11645583Y-31344523D01*
X-11683678Y-31420714D01*
X-11721773Y-31458809D01*
X-11797964Y-31496904D01*
X-11950345Y-31496904D01*
X-12026535Y-31458809D01*
X-12064630Y-31420714D01*
X-12102726Y-31344523D01*
X-12102726Y-31154047D01*
X-12064630Y-31077857D01*
X-12026535Y-31039761D01*
X-11950345Y-31001666D01*
X-11797964Y-31001666D01*
X-11721773Y-31039761D01*
X-11683678Y-31077857D01*
X-11645583Y-31154047D01*
X-11188440Y-33617857D02*
X-11302726Y-33655952D01*
X-11340821Y-33694047D01*
X-11378916Y-33770238D01*
X-11378916Y-33884523D01*
X-11340821Y-33960714D01*
X-11302726Y-33998809D01*
X-11226535Y-34036904D01*
X-10921773Y-34036904D01*
X-10921773Y-33236904D01*
X-11188440Y-33236904D01*
X-11264630Y-33275000D01*
X-11302726Y-33313095D01*
X-11340821Y-33389285D01*
X-11340821Y-33465476D01*
X-11302726Y-33541666D01*
X-11264630Y-33579761D01*
X-11188440Y-33617857D01*
X-10921773Y-33617857D01*
X-12064630Y-33503571D02*
X-12064630Y-34036904D01*
X-11874154Y-33198809D02*
X-11683678Y-33770238D01*
X-12178916Y-33770238D01*
X-11188440Y-36157857D02*
X-11302726Y-36195952D01*
X-11340821Y-36234047D01*
X-11378916Y-36310238D01*
X-11378916Y-36424523D01*
X-11340821Y-36500714D01*
X-11302726Y-36538809D01*
X-11226535Y-36576904D01*
X-10921773Y-36576904D01*
X-10921773Y-35776904D01*
X-11188440Y-35776904D01*
X-11264630Y-35815000D01*
X-11302726Y-35853095D01*
X-11340821Y-35929285D01*
X-11340821Y-36005476D01*
X-11302726Y-36081666D01*
X-11264630Y-36119761D01*
X-11188440Y-36157857D01*
X-10921773Y-36157857D01*
X-12102726Y-35776904D02*
X-11721773Y-35776904D01*
X-11683678Y-36157857D01*
X-11721773Y-36119761D01*
X-11797964Y-36081666D01*
X-11988440Y-36081666D01*
X-12064630Y-36119761D01*
X-12102726Y-36157857D01*
X-12140821Y-36234047D01*
X-12140821Y-36424523D01*
X-12102726Y-36500714D01*
X-12064630Y-36538809D01*
X-11988440Y-36576904D01*
X-11797964Y-36576904D01*
X-11721773Y-36538809D01*
X-11683678Y-36500714D01*
X-266440Y-36157857D02*
X-380726Y-36195952D01*
X-418821Y-36234047D01*
X-456916Y-36310238D01*
X-456916Y-36424523D01*
X-418821Y-36500714D01*
X-380726Y-36538809D01*
X-304535Y-36576904D01*
X226Y-36576904D01*
X226Y-35776904D01*
X-266440Y-35776904D01*
X-342630Y-35815000D01*
X-380726Y-35853095D01*
X-418821Y-35929285D01*
X-418821Y-36005476D01*
X-380726Y-36081666D01*
X-342630Y-36119761D01*
X-266440Y-36157857D01*
X226Y-36157857D01*
X-1142630Y-35776904D02*
X-990250Y-35776904D01*
X-914059Y-35815000D01*
X-875964Y-35853095D01*
X-799773Y-35967380D01*
X-761678Y-36119761D01*
X-761678Y-36424523D01*
X-799773Y-36500714D01*
X-837869Y-36538809D01*
X-914059Y-36576904D01*
X-1066440Y-36576904D01*
X-1142630Y-36538809D01*
X-1180726Y-36500714D01*
X-1218821Y-36424523D01*
X-1218821Y-36234047D01*
X-1180726Y-36157857D01*
X-1142630Y-36119761D01*
X-1066440Y-36081666D01*
X-914059Y-36081666D01*
X-837869Y-36119761D01*
X-799773Y-36157857D01*
X-761678Y-36234047D01*
X-266440Y-31077857D02*
X-380726Y-31115952D01*
X-418821Y-31154047D01*
X-456916Y-31230238D01*
X-456916Y-31344523D01*
X-418821Y-31420714D01*
X-380726Y-31458809D01*
X-304535Y-31496904D01*
X226Y-31496904D01*
X226Y-30696904D01*
X-266440Y-30696904D01*
X-342630Y-30735000D01*
X-380726Y-30773095D01*
X-418821Y-30849285D01*
X-418821Y-30925476D01*
X-380726Y-31001666D01*
X-342630Y-31039761D01*
X-266440Y-31077857D01*
X226Y-31077857D01*
X-723583Y-30696904D02*
X-1218821Y-30696904D01*
X-952154Y-31001666D01*
X-1066440Y-31001666D01*
X-1142630Y-31039761D01*
X-1180726Y-31077857D01*
X-1218821Y-31154047D01*
X-1218821Y-31344523D01*
X-1180726Y-31420714D01*
X-1142630Y-31458809D01*
X-1066440Y-31496904D01*
X-837869Y-31496904D01*
X-761678Y-31458809D01*
X-723583Y-31420714D01*
X-266440Y-28537857D02*
X-380726Y-28575952D01*
X-418821Y-28614047D01*
X-456916Y-28690238D01*
X-456916Y-28804523D01*
X-418821Y-28880714D01*
X-380726Y-28918809D01*
X-304535Y-28956904D01*
X226Y-28956904D01*
X226Y-28156904D01*
X-266440Y-28156904D01*
X-342630Y-28195000D01*
X-380726Y-28233095D01*
X-418821Y-28309285D01*
X-418821Y-28385476D01*
X-380726Y-28461666D01*
X-342630Y-28499761D01*
X-266440Y-28537857D01*
X226Y-28537857D01*
X-1218821Y-28956904D02*
X-761678Y-28956904D01*
X-990250Y-28956904D02*
X-990250Y-28156904D01*
X-914059Y-28271190D01*
X-837869Y-28347380D01*
X-761678Y-28385476D01*
X-323583Y-18377857D02*
X-56916Y-18377857D01*
X-56916Y-18796904D02*
X-56916Y-17996904D01*
X-437869Y-17996904D01*
X-1085488Y-18263571D02*
X-1085488Y-18796904D01*
X-895011Y-17958809D02*
X-704535Y-18530238D01*
X-1199773Y-18530238D01*
X476416Y-15456904D02*
X209750Y-16256904D01*
X-56916Y-15456904D01*
X-780726Y-16180714D02*
X-742630Y-16218809D01*
X-628345Y-16256904D01*
X-552154Y-16256904D01*
X-437869Y-16218809D01*
X-361678Y-16142619D01*
X-323583Y-16066428D01*
X-285488Y-15914047D01*
X-285488Y-15799761D01*
X-323583Y-15647380D01*
X-361678Y-15571190D01*
X-437869Y-15495000D01*
X-552154Y-15456904D01*
X-628345Y-15456904D01*
X-742630Y-15495000D01*
X-780726Y-15533095D01*
X-1580726Y-16180714D02*
X-1542630Y-16218809D01*
X-1428345Y-16256904D01*
X-1352154Y-16256904D01*
X-1237869Y-16218809D01*
X-1161678Y-16142619D01*
X-1123583Y-16066428D01*
X-1085488Y-15914047D01*
X-1085488Y-15799761D01*
X-1123583Y-15647380D01*
X-1161678Y-15571190D01*
X-1237869Y-15495000D01*
X-1352154Y-15456904D01*
X-1428345Y-15456904D01*
X-1542630Y-15495000D01*
X-1580726Y-15533095D01*
X19273Y-10415000D02*
X95464Y-10376904D01*
X209750Y-10376904D01*
X324035Y-10415000D01*
X400226Y-10491190D01*
X438321Y-10567380D01*
X476416Y-10719761D01*
X476416Y-10834047D01*
X438321Y-10986428D01*
X400226Y-11062619D01*
X324035Y-11138809D01*
X209750Y-11176904D01*
X133559Y-11176904D01*
X19273Y-11138809D01*
X-18821Y-11100714D01*
X-18821Y-10834047D01*
X133559Y-10834047D01*
X-361678Y-11176904D02*
X-361678Y-10376904D01*
X-818821Y-11176904D01*
X-818821Y-10376904D01*
X-1199773Y-11176904D02*
X-1199773Y-10376904D01*
X-1390250Y-10376904D01*
X-1504535Y-10415000D01*
X-1580726Y-10491190D01*
X-1618821Y-10567380D01*
X-1656916Y-10719761D01*
X-1656916Y-10834047D01*
X-1618821Y-10986428D01*
X-1580726Y-11062619D01*
X-1504535Y-11138809D01*
X-1390250Y-11176904D01*
X-1199773Y-11176904D01*
X-37869Y-8636904D02*
X228797Y-8255952D01*
X419273Y-8636904D02*
X419273Y-7836904D01*
X114511Y-7836904D01*
X38321Y-7875000D01*
X226Y-7913095D01*
X-37869Y-7989285D01*
X-37869Y-8103571D01*
X226Y-8179761D01*
X38321Y-8217857D01*
X114511Y-8255952D01*
X419273Y-8255952D01*
X-342630Y-8408333D02*
X-723583Y-8408333D01*
X-266440Y-8636904D02*
X-533107Y-7836904D01*
X-799773Y-8636904D01*
X-990250Y-7836904D02*
X-1180726Y-8636904D01*
X-1333107Y-8065476D01*
X-1485488Y-8636904D01*
X-1675964Y-7836904D01*
X-323583Y-20917857D02*
X-56916Y-20917857D01*
X-56916Y-21336904D02*
X-56916Y-20536904D01*
X-437869Y-20536904D01*
X-1123583Y-20536904D02*
X-742630Y-20536904D01*
X-704535Y-20917857D01*
X-742630Y-20879761D01*
X-818821Y-20841666D01*
X-1009297Y-20841666D01*
X-1085488Y-20879761D01*
X-1123583Y-20917857D01*
X-1161678Y-20994047D01*
X-1161678Y-21184523D01*
X-1123583Y-21260714D01*
X-1085488Y-21298809D01*
X-1009297Y-21336904D01*
X-818821Y-21336904D01*
X-742630Y-21298809D01*
X-704535Y-21260714D01*
X-323583Y-23457857D02*
X-56916Y-23457857D01*
X-56916Y-23876904D02*
X-56916Y-23076904D01*
X-437869Y-23076904D01*
X-1085488Y-23076904D02*
X-933107Y-23076904D01*
X-856916Y-23115000D01*
X-818821Y-23153095D01*
X-742630Y-23267380D01*
X-704535Y-23419761D01*
X-704535Y-23724523D01*
X-742630Y-23800714D01*
X-780726Y-23838809D01*
X-856916Y-23876904D01*
X-1009297Y-23876904D01*
X-1085488Y-23838809D01*
X-1123583Y-23800714D01*
X-1161678Y-23724523D01*
X-1161678Y-23534047D01*
X-1123583Y-23457857D01*
X-1085488Y-23419761D01*
X-1009297Y-23381666D01*
X-856916Y-23381666D01*
X-780726Y-23419761D01*
X-742630Y-23457857D01*
X-704535Y-23534047D01*
X-323583Y-25997857D02*
X-56916Y-25997857D01*
X-56916Y-26416904D02*
X-56916Y-25616904D01*
X-437869Y-25616904D01*
X-666440Y-25616904D02*
X-1199773Y-25616904D01*
X-856916Y-26416904D01*
X-266440Y-33617857D02*
X-380726Y-33655952D01*
X-418821Y-33694047D01*
X-456916Y-33770238D01*
X-456916Y-33884523D01*
X-418821Y-33960714D01*
X-380726Y-33998809D01*
X-304535Y-34036904D01*
X226Y-34036904D01*
X226Y-33236904D01*
X-266440Y-33236904D01*
X-342630Y-33275000D01*
X-380726Y-33313095D01*
X-418821Y-33389285D01*
X-418821Y-33465476D01*
X-380726Y-33541666D01*
X-342630Y-33579761D01*
X-266440Y-33617857D01*
X226Y-33617857D01*
X-761678Y-33313095D02*
X-799773Y-33275000D01*
X-875964Y-33236904D01*
X-1066440Y-33236904D01*
X-1142630Y-33275000D01*
X-1180726Y-33313095D01*
X-1218821Y-33389285D01*
X-1218821Y-33465476D01*
X-1180726Y-33579761D01*
X-723583Y-34036904D01*
X-1218821Y-34036904D01*
X-7432645Y-7836904D02*
X-7889788Y-7836904D01*
X-7661217Y-8636904D02*
X-7661217Y-7836904D01*
X-8080264Y-7836904D02*
X-8613598Y-8636904D01*
X-8613598Y-7836904D02*
X-8080264Y-8636904D01*
X-9070741Y-7836904D02*
X-9146931Y-7836904D01*
X-9223122Y-7875000D01*
X-9261217Y-7913095D01*
X-9299312Y-7989285D01*
X-9337407Y-8141666D01*
X-9337407Y-8332142D01*
X-9299312Y-8484523D01*
X-9261217Y-8560714D01*
X-9223122Y-8598809D01*
X-9146931Y-8636904D01*
X-9070741Y-8636904D01*
X-8994550Y-8598809D01*
X-8956455Y-8560714D01*
X-8918360Y-8484523D01*
X-8880264Y-8332142D01*
X-8880264Y-8141666D01*
X-8918360Y-7989285D01*
X-8956455Y-7913095D01*
X-8994550Y-7875000D01*
X-9070741Y-7836904D01*
X-10251693Y-7798809D02*
X-9565979Y-8827380D01*
X-10518360Y-8636904D02*
X-10518360Y-7836904D01*
X-10708836Y-7836904D01*
X-10823122Y-7875000D01*
X-10899312Y-7951190D01*
X-10937407Y-8027380D01*
X-10975502Y-8179761D01*
X-10975502Y-8294047D01*
X-10937407Y-8446428D01*
X-10899312Y-8522619D01*
X-10823122Y-8598809D01*
X-10708836Y-8636904D01*
X-10518360Y-8636904D01*
X-11242169Y-7836904D02*
X-11737407Y-7836904D01*
X-11470741Y-8141666D01*
X-11585026Y-8141666D01*
X-11661217Y-8179761D01*
X-11699312Y-8217857D01*
X-11737407Y-8294047D01*
X-11737407Y-8484523D01*
X-11699312Y-8560714D01*
X-11661217Y-8598809D01*
X-11585026Y-8636904D01*
X-11356455Y-8636904D01*
X-11280264Y-8598809D01*
X-11242169Y-8560714D01*
X-477916Y-13658809D02*
X-592202Y-13696904D01*
X-782678Y-13696904D01*
X-858869Y-13658809D01*
X-896964Y-13620714D01*
X-935059Y-13544523D01*
X-935059Y-13468333D01*
X-896964Y-13392142D01*
X-858869Y-13354047D01*
X-782678Y-13315952D01*
X-630297Y-13277857D01*
X-554107Y-13239761D01*
X-516011Y-13201666D01*
X-477916Y-13125476D01*
X-477916Y-13049285D01*
X-516011Y-12973095D01*
X-554107Y-12935000D01*
X-630297Y-12896904D01*
X-820773Y-12896904D01*
X-935059Y-12935000D01*
X-1163630Y-12896904D02*
X-1620773Y-12896904D01*
X-1392202Y-13696904D02*
X-1392202Y-12896904D01*
X-48862782Y-104949588D02*
X-49728808Y-104449588D01*
X-49847855Y-104655784D01*
X-49878045Y-104803312D01*
X-49843185Y-104933409D01*
X-49784516Y-105022268D01*
X-49643368Y-105158745D01*
X-49519650Y-105230174D01*
X-49330884Y-105284172D01*
X-49224595Y-105290552D01*
X-49094498Y-105255693D01*
X-48981830Y-105155784D01*
X-48862782Y-104949588D01*
X-50154418Y-105853434D02*
X-49577068Y-106186767D01*
X-50365285Y-105456761D02*
X-49627648Y-105607707D01*
X-49937172Y-106143818D01*
X-50943093Y-106552792D02*
X-50704998Y-106140399D01*
X-50268796Y-106337255D01*
X-50333844Y-106354685D01*
X-50422703Y-106413354D01*
X-50541750Y-106619551D01*
X-50548130Y-106725839D01*
X-50530700Y-106790887D01*
X-50472031Y-106879746D01*
X-50265835Y-106998793D01*
X-50159547Y-107005173D01*
X-50094498Y-106987743D01*
X-50005639Y-106929074D01*
X-49886592Y-106722878D01*
X-49880212Y-106616590D01*
X-49897642Y-106551541D01*
X-60253869Y-115466964D02*
X-61253869Y-115466964D01*
X-61253869Y-115705059D01*
X-61206250Y-115847916D01*
X-61111011Y-115943154D01*
X-61015773Y-115990773D01*
X-60825297Y-116038392D01*
X-60682440Y-116038392D01*
X-60491964Y-115990773D01*
X-60396726Y-115943154D01*
X-60301488Y-115847916D01*
X-60253869Y-115705059D01*
X-60253869Y-115466964D01*
X-60920535Y-116895535D02*
X-60253869Y-116895535D01*
X-61301488Y-116657440D02*
X-60587202Y-116419345D01*
X-60587202Y-117038392D01*
X-60920535Y-117847916D02*
X-60253869Y-117847916D01*
X-61301488Y-117609821D02*
X-60587202Y-117371726D01*
X-60587202Y-117990773D01*
X-86098214Y-104021130D02*
X-86098214Y-103021130D01*
X-86336309Y-103021130D01*
X-86479166Y-103068750D01*
X-86574404Y-103163988D01*
X-86622023Y-103259226D01*
X-86669642Y-103449702D01*
X-86669642Y-103592559D01*
X-86622023Y-103783035D01*
X-86574404Y-103878273D01*
X-86479166Y-103973511D01*
X-86336309Y-104021130D01*
X-86098214Y-104021130D01*
X-87526785Y-103354464D02*
X-87526785Y-104021130D01*
X-87288690Y-102973511D02*
X-87050595Y-103687797D01*
X-87669642Y-103687797D01*
X-87955357Y-103021130D02*
X-88574404Y-103021130D01*
X-88241071Y-103402083D01*
X-88383928Y-103402083D01*
X-88479166Y-103449702D01*
X-88526785Y-103497321D01*
X-88574404Y-103592559D01*
X-88574404Y-103830654D01*
X-88526785Y-103925892D01*
X-88479166Y-103973511D01*
X-88383928Y-104021130D01*
X-88098214Y-104021130D01*
X-88002976Y-103973511D01*
X-87955357Y-103925892D01*
X-88828869Y-114673214D02*
X-89828869Y-114673214D01*
X-89828869Y-114911309D01*
X-89781250Y-115054166D01*
X-89686011Y-115149404D01*
X-89590773Y-115197023D01*
X-89400297Y-115244642D01*
X-89257440Y-115244642D01*
X-89066964Y-115197023D01*
X-88971726Y-115149404D01*
X-88876488Y-115054166D01*
X-88828869Y-114911309D01*
X-88828869Y-114673214D01*
X-89495535Y-116101785D02*
X-88828869Y-116101785D01*
X-89876488Y-115863690D02*
X-89162202Y-115625595D01*
X-89162202Y-116244642D01*
X-89733630Y-116577976D02*
X-89781250Y-116625595D01*
X-89828869Y-116720833D01*
X-89828869Y-116958928D01*
X-89781250Y-117054166D01*
X-89733630Y-117101785D01*
X-89638392Y-117149404D01*
X-89543154Y-117149404D01*
X-89400297Y-117101785D01*
X-88828869Y-116530357D01*
X-88828869Y-117149404D01*
X-112641369Y-114673214D02*
X-113641369Y-114673214D01*
X-113641369Y-114911309D01*
X-113593750Y-115054166D01*
X-113498511Y-115149404D01*
X-113403273Y-115197023D01*
X-113212797Y-115244642D01*
X-113069940Y-115244642D01*
X-112879464Y-115197023D01*
X-112784226Y-115149404D01*
X-112688988Y-115054166D01*
X-112641369Y-114911309D01*
X-112641369Y-114673214D01*
X-113308035Y-116101785D02*
X-112641369Y-116101785D01*
X-113688988Y-115863690D02*
X-112974702Y-115625595D01*
X-112974702Y-116244642D01*
X-112641369Y-117149404D02*
X-112641369Y-116577976D01*
X-112641369Y-116863690D02*
X-113641369Y-116863690D01*
X-113498511Y-116768452D01*
X-113403273Y-116673214D01*
X-113355654Y-116577976D01*
X-136453869Y-114673214D02*
X-137453869Y-114673214D01*
X-137453869Y-114911309D01*
X-137406250Y-115054166D01*
X-137311011Y-115149404D01*
X-137215773Y-115197023D01*
X-137025297Y-115244642D01*
X-136882440Y-115244642D01*
X-136691964Y-115197023D01*
X-136596726Y-115149404D01*
X-136501488Y-115054166D01*
X-136453869Y-114911309D01*
X-136453869Y-114673214D01*
X-137120535Y-116101785D02*
X-136453869Y-116101785D01*
X-137501488Y-115863690D02*
X-136787202Y-115625595D01*
X-136787202Y-116244642D01*
X-137453869Y-116816071D02*
X-137453869Y-116911309D01*
X-137406250Y-117006547D01*
X-137358630Y-117054166D01*
X-137263392Y-117101785D01*
X-137072916Y-117149404D01*
X-136834821Y-117149404D01*
X-136644345Y-117101785D01*
X-136549107Y-117054166D01*
X-136501488Y-117006547D01*
X-136453869Y-116911309D01*
X-136453869Y-116816071D01*
X-136501488Y-116720833D01*
X-136549107Y-116673214D01*
X-136644345Y-116625595D01*
X-136834821Y-116577976D01*
X-137072916Y-116577976D01*
X-137263392Y-116625595D01*
X-137358630Y-116673214D01*
X-137406250Y-116720833D01*
X-137453869Y-116816071D01*
X-32829032Y-94154588D02*
X-33695058Y-93654588D01*
X-33814105Y-93860784D01*
X-33844295Y-94008312D01*
X-33809435Y-94138409D01*
X-33750766Y-94227268D01*
X-33609618Y-94363745D01*
X-33485900Y-94435174D01*
X-33297134Y-94489172D01*
X-33190845Y-94495552D01*
X-33060748Y-94460693D01*
X-32948080Y-94360784D01*
X-32829032Y-94154588D01*
X-34147439Y-94438134D02*
X-34456962Y-94974245D01*
X-33960381Y-94876047D01*
X-34031810Y-94999764D01*
X-34038190Y-95106053D01*
X-34020760Y-95171101D01*
X-33962091Y-95259960D01*
X-33755894Y-95379007D01*
X-33649606Y-95385387D01*
X-33584557Y-95367957D01*
X-33495699Y-95309288D01*
X-33352842Y-95061852D01*
X-33346462Y-94955564D01*
X-33363892Y-94890515D01*
X-34885534Y-95716553D02*
X-34790296Y-95551596D01*
X-34701437Y-95492927D01*
X-34636389Y-95475497D01*
X-34465052Y-95464447D01*
X-34276285Y-95518446D01*
X-33946370Y-95708922D01*
X-33887701Y-95797780D01*
X-33870272Y-95862829D01*
X-33876651Y-95969117D01*
X-33971889Y-96134074D01*
X-34060748Y-96192743D01*
X-34125797Y-96210173D01*
X-34232085Y-96203793D01*
X-34438281Y-96084746D01*
X-34496950Y-95995887D01*
X-34514380Y-95930839D01*
X-34508000Y-95824551D01*
X-34412762Y-95659593D01*
X-34323904Y-95600924D01*
X-34258855Y-95583494D01*
X-34152567Y-95589874D01*
X-47998214Y-89733630D02*
X-47998214Y-88733630D01*
X-48236309Y-88733630D01*
X-48379166Y-88781250D01*
X-48474404Y-88876488D01*
X-48522023Y-88971726D01*
X-48569642Y-89162202D01*
X-48569642Y-89305059D01*
X-48522023Y-89495535D01*
X-48474404Y-89590773D01*
X-48379166Y-89686011D01*
X-48236309Y-89733630D01*
X-47998214Y-89733630D01*
X-48902976Y-88733630D02*
X-49522023Y-88733630D01*
X-49188690Y-89114583D01*
X-49331547Y-89114583D01*
X-49426785Y-89162202D01*
X-49474404Y-89209821D01*
X-49522023Y-89305059D01*
X-49522023Y-89543154D01*
X-49474404Y-89638392D01*
X-49426785Y-89686011D01*
X-49331547Y-89733630D01*
X-49045833Y-89733630D01*
X-48950595Y-89686011D01*
X-48902976Y-89638392D01*
X-50426785Y-88733630D02*
X-49950595Y-88733630D01*
X-49902976Y-89209821D01*
X-49950595Y-89162202D01*
X-50045833Y-89114583D01*
X-50283928Y-89114583D01*
X-50379166Y-89162202D01*
X-50426785Y-89209821D01*
X-50474404Y-89305059D01*
X-50474404Y-89543154D01*
X-50426785Y-89638392D01*
X-50379166Y-89686011D01*
X-50283928Y-89733630D01*
X-50045833Y-89733630D01*
X-49950595Y-89686011D01*
X-49902976Y-89638392D01*
X-67048214Y-88939880D02*
X-67048214Y-87939880D01*
X-67286309Y-87939880D01*
X-67429166Y-87987500D01*
X-67524404Y-88082738D01*
X-67572023Y-88177976D01*
X-67619642Y-88368452D01*
X-67619642Y-88511309D01*
X-67572023Y-88701785D01*
X-67524404Y-88797023D01*
X-67429166Y-88892261D01*
X-67286309Y-88939880D01*
X-67048214Y-88939880D01*
X-67952976Y-87939880D02*
X-68572023Y-87939880D01*
X-68238690Y-88320833D01*
X-68381547Y-88320833D01*
X-68476785Y-88368452D01*
X-68524404Y-88416071D01*
X-68572023Y-88511309D01*
X-68572023Y-88749404D01*
X-68524404Y-88844642D01*
X-68476785Y-88892261D01*
X-68381547Y-88939880D01*
X-68095833Y-88939880D01*
X-68000595Y-88892261D01*
X-67952976Y-88844642D01*
X-69429166Y-88273214D02*
X-69429166Y-88939880D01*
X-69191071Y-87892261D02*
X-68952976Y-88606547D01*
X-69572023Y-88606547D01*
X-86098214Y-80208630D02*
X-86098214Y-79208630D01*
X-86336309Y-79208630D01*
X-86479166Y-79256250D01*
X-86574404Y-79351488D01*
X-86622023Y-79446726D01*
X-86669642Y-79637202D01*
X-86669642Y-79780059D01*
X-86622023Y-79970535D01*
X-86574404Y-80065773D01*
X-86479166Y-80161011D01*
X-86336309Y-80208630D01*
X-86098214Y-80208630D01*
X-87002976Y-79208630D02*
X-87622023Y-79208630D01*
X-87288690Y-79589583D01*
X-87431547Y-79589583D01*
X-87526785Y-79637202D01*
X-87574404Y-79684821D01*
X-87622023Y-79780059D01*
X-87622023Y-80018154D01*
X-87574404Y-80113392D01*
X-87526785Y-80161011D01*
X-87431547Y-80208630D01*
X-87145833Y-80208630D01*
X-87050595Y-80161011D01*
X-87002976Y-80113392D01*
X-87955357Y-79208630D02*
X-88574404Y-79208630D01*
X-88241071Y-79589583D01*
X-88383928Y-79589583D01*
X-88479166Y-79637202D01*
X-88526785Y-79684821D01*
X-88574404Y-79780059D01*
X-88574404Y-80018154D01*
X-88526785Y-80113392D01*
X-88479166Y-80161011D01*
X-88383928Y-80208630D01*
X-88098214Y-80208630D01*
X-88002976Y-80161011D01*
X-87955357Y-80113392D01*
X-105148214Y-87352380D02*
X-105148214Y-86352380D01*
X-105386309Y-86352380D01*
X-105529166Y-86400000D01*
X-105624404Y-86495238D01*
X-105672023Y-86590476D01*
X-105719642Y-86780952D01*
X-105719642Y-86923809D01*
X-105672023Y-87114285D01*
X-105624404Y-87209523D01*
X-105529166Y-87304761D01*
X-105386309Y-87352380D01*
X-105148214Y-87352380D01*
X-106052976Y-86352380D02*
X-106672023Y-86352380D01*
X-106338690Y-86733333D01*
X-106481547Y-86733333D01*
X-106576785Y-86780952D01*
X-106624404Y-86828571D01*
X-106672023Y-86923809D01*
X-106672023Y-87161904D01*
X-106624404Y-87257142D01*
X-106576785Y-87304761D01*
X-106481547Y-87352380D01*
X-106195833Y-87352380D01*
X-106100595Y-87304761D01*
X-106052976Y-87257142D01*
X-107052976Y-86447619D02*
X-107100595Y-86400000D01*
X-107195833Y-86352380D01*
X-107433928Y-86352380D01*
X-107529166Y-86400000D01*
X-107576785Y-86447619D01*
X-107624404Y-86542857D01*
X-107624404Y-86638095D01*
X-107576785Y-86780952D01*
X-107005357Y-87352380D01*
X-107624404Y-87352380D01*
X-124198214Y-104021130D02*
X-124198214Y-103021130D01*
X-124436309Y-103021130D01*
X-124579166Y-103068750D01*
X-124674404Y-103163988D01*
X-124722023Y-103259226D01*
X-124769642Y-103449702D01*
X-124769642Y-103592559D01*
X-124722023Y-103783035D01*
X-124674404Y-103878273D01*
X-124579166Y-103973511D01*
X-124436309Y-104021130D01*
X-124198214Y-104021130D01*
X-125102976Y-103021130D02*
X-125722023Y-103021130D01*
X-125388690Y-103402083D01*
X-125531547Y-103402083D01*
X-125626785Y-103449702D01*
X-125674404Y-103497321D01*
X-125722023Y-103592559D01*
X-125722023Y-103830654D01*
X-125674404Y-103925892D01*
X-125626785Y-103973511D01*
X-125531547Y-104021130D01*
X-125245833Y-104021130D01*
X-125150595Y-103973511D01*
X-125102976Y-103925892D01*
X-126674404Y-104021130D02*
X-126102976Y-104021130D01*
X-126388690Y-104021130D02*
X-126388690Y-103021130D01*
X-126293452Y-103163988D01*
X-126198214Y-103259226D01*
X-126102976Y-103306845D01*
X-143248214Y-104021130D02*
X-143248214Y-103021130D01*
X-143486309Y-103021130D01*
X-143629166Y-103068750D01*
X-143724404Y-103163988D01*
X-143772023Y-103259226D01*
X-143819642Y-103449702D01*
X-143819642Y-103592559D01*
X-143772023Y-103783035D01*
X-143724404Y-103878273D01*
X-143629166Y-103973511D01*
X-143486309Y-104021130D01*
X-143248214Y-104021130D01*
X-144152976Y-103021130D02*
X-144772023Y-103021130D01*
X-144438690Y-103402083D01*
X-144581547Y-103402083D01*
X-144676785Y-103449702D01*
X-144724404Y-103497321D01*
X-144772023Y-103592559D01*
X-144772023Y-103830654D01*
X-144724404Y-103925892D01*
X-144676785Y-103973511D01*
X-144581547Y-104021130D01*
X-144295833Y-104021130D01*
X-144200595Y-103973511D01*
X-144152976Y-103925892D01*
X-145391071Y-103021130D02*
X-145486309Y-103021130D01*
X-145581547Y-103068750D01*
X-145629166Y-103116369D01*
X-145676785Y-103211607D01*
X-145724404Y-103402083D01*
X-145724404Y-103640178D01*
X-145676785Y-103830654D01*
X-145629166Y-103925892D01*
X-145581547Y-103973511D01*
X-145486309Y-104021130D01*
X-145391071Y-104021130D01*
X-145295833Y-103973511D01*
X-145248214Y-103925892D01*
X-145200595Y-103830654D01*
X-145152976Y-103640178D01*
X-145152976Y-103402083D01*
X-145200595Y-103211607D01*
X-145248214Y-103116369D01*
X-145295833Y-103068750D01*
X-145391071Y-103021130D01*
X-42441964Y-60364880D02*
X-42441964Y-59364880D01*
X-42680059Y-59364880D01*
X-42822916Y-59412500D01*
X-42918154Y-59507738D01*
X-42965773Y-59602976D01*
X-43013392Y-59793452D01*
X-43013392Y-59936309D01*
X-42965773Y-60126785D01*
X-42918154Y-60222023D01*
X-42822916Y-60317261D01*
X-42680059Y-60364880D01*
X-42441964Y-60364880D01*
X-43394345Y-59460119D02*
X-43441964Y-59412500D01*
X-43537202Y-59364880D01*
X-43775297Y-59364880D01*
X-43870535Y-59412500D01*
X-43918154Y-59460119D01*
X-43965773Y-59555357D01*
X-43965773Y-59650595D01*
X-43918154Y-59793452D01*
X-43346726Y-60364880D01*
X-43965773Y-60364880D01*
X-44822916Y-59364880D02*
X-44632440Y-59364880D01*
X-44537202Y-59412500D01*
X-44489583Y-59460119D01*
X-44394345Y-59602976D01*
X-44346726Y-59793452D01*
X-44346726Y-60174404D01*
X-44394345Y-60269642D01*
X-44441964Y-60317261D01*
X-44537202Y-60364880D01*
X-44727678Y-60364880D01*
X-44822916Y-60317261D01*
X-44870535Y-60269642D01*
X-44918154Y-60174404D01*
X-44918154Y-59936309D01*
X-44870535Y-59841071D01*
X-44822916Y-59793452D01*
X-44727678Y-59745833D01*
X-44537202Y-59745833D01*
X-44441964Y-59793452D01*
X-44394345Y-59841071D01*
X-44346726Y-59936309D01*
X-47998214Y-70683630D02*
X-47998214Y-69683630D01*
X-48236309Y-69683630D01*
X-48379166Y-69731250D01*
X-48474404Y-69826488D01*
X-48522023Y-69921726D01*
X-48569642Y-70112202D01*
X-48569642Y-70255059D01*
X-48522023Y-70445535D01*
X-48474404Y-70540773D01*
X-48379166Y-70636011D01*
X-48236309Y-70683630D01*
X-47998214Y-70683630D01*
X-48950595Y-69778869D02*
X-48998214Y-69731250D01*
X-49093452Y-69683630D01*
X-49331547Y-69683630D01*
X-49426785Y-69731250D01*
X-49474404Y-69778869D01*
X-49522023Y-69874107D01*
X-49522023Y-69969345D01*
X-49474404Y-70112202D01*
X-48902976Y-70683630D01*
X-49522023Y-70683630D01*
X-50426785Y-69683630D02*
X-49950595Y-69683630D01*
X-49902976Y-70159821D01*
X-49950595Y-70112202D01*
X-50045833Y-70064583D01*
X-50283928Y-70064583D01*
X-50379166Y-70112202D01*
X-50426785Y-70159821D01*
X-50474404Y-70255059D01*
X-50474404Y-70493154D01*
X-50426785Y-70588392D01*
X-50379166Y-70636011D01*
X-50283928Y-70683630D01*
X-50045833Y-70683630D01*
X-49950595Y-70636011D01*
X-49902976Y-70588392D01*
X-67048214Y-69889880D02*
X-67048214Y-68889880D01*
X-67286309Y-68889880D01*
X-67429166Y-68937500D01*
X-67524404Y-69032738D01*
X-67572023Y-69127976D01*
X-67619642Y-69318452D01*
X-67619642Y-69461309D01*
X-67572023Y-69651785D01*
X-67524404Y-69747023D01*
X-67429166Y-69842261D01*
X-67286309Y-69889880D01*
X-67048214Y-69889880D01*
X-68000595Y-68985119D02*
X-68048214Y-68937500D01*
X-68143452Y-68889880D01*
X-68381547Y-68889880D01*
X-68476785Y-68937500D01*
X-68524404Y-68985119D01*
X-68572023Y-69080357D01*
X-68572023Y-69175595D01*
X-68524404Y-69318452D01*
X-67952976Y-69889880D01*
X-68572023Y-69889880D01*
X-69429166Y-69223214D02*
X-69429166Y-69889880D01*
X-69191071Y-68842261D02*
X-68952976Y-69556547D01*
X-69572023Y-69556547D01*
X-86098214Y-61158630D02*
X-86098214Y-60158630D01*
X-86336309Y-60158630D01*
X-86479166Y-60206250D01*
X-86574404Y-60301488D01*
X-86622023Y-60396726D01*
X-86669642Y-60587202D01*
X-86669642Y-60730059D01*
X-86622023Y-60920535D01*
X-86574404Y-61015773D01*
X-86479166Y-61111011D01*
X-86336309Y-61158630D01*
X-86098214Y-61158630D01*
X-87050595Y-60253869D02*
X-87098214Y-60206250D01*
X-87193452Y-60158630D01*
X-87431547Y-60158630D01*
X-87526785Y-60206250D01*
X-87574404Y-60253869D01*
X-87622023Y-60349107D01*
X-87622023Y-60444345D01*
X-87574404Y-60587202D01*
X-87002976Y-61158630D01*
X-87622023Y-61158630D01*
X-87955357Y-60158630D02*
X-88574404Y-60158630D01*
X-88241071Y-60539583D01*
X-88383928Y-60539583D01*
X-88479166Y-60587202D01*
X-88526785Y-60634821D01*
X-88574404Y-60730059D01*
X-88574404Y-60968154D01*
X-88526785Y-61063392D01*
X-88479166Y-61111011D01*
X-88383928Y-61158630D01*
X-88098214Y-61158630D01*
X-88002976Y-61111011D01*
X-87955357Y-61063392D01*
X-105148214Y-68302380D02*
X-105148214Y-67302380D01*
X-105386309Y-67302380D01*
X-105529166Y-67350000D01*
X-105624404Y-67445238D01*
X-105672023Y-67540476D01*
X-105719642Y-67730952D01*
X-105719642Y-67873809D01*
X-105672023Y-68064285D01*
X-105624404Y-68159523D01*
X-105529166Y-68254761D01*
X-105386309Y-68302380D01*
X-105148214Y-68302380D01*
X-106100595Y-67397619D02*
X-106148214Y-67350000D01*
X-106243452Y-67302380D01*
X-106481547Y-67302380D01*
X-106576785Y-67350000D01*
X-106624404Y-67397619D01*
X-106672023Y-67492857D01*
X-106672023Y-67588095D01*
X-106624404Y-67730952D01*
X-106052976Y-68302380D01*
X-106672023Y-68302380D01*
X-107052976Y-67397619D02*
X-107100595Y-67350000D01*
X-107195833Y-67302380D01*
X-107433928Y-67302380D01*
X-107529166Y-67350000D01*
X-107576785Y-67397619D01*
X-107624404Y-67492857D01*
X-107624404Y-67588095D01*
X-107576785Y-67730952D01*
X-107005357Y-68302380D01*
X-107624404Y-68302380D01*
X-124198214Y-84971130D02*
X-124198214Y-83971130D01*
X-124436309Y-83971130D01*
X-124579166Y-84018750D01*
X-124674404Y-84113988D01*
X-124722023Y-84209226D01*
X-124769642Y-84399702D01*
X-124769642Y-84542559D01*
X-124722023Y-84733035D01*
X-124674404Y-84828273D01*
X-124579166Y-84923511D01*
X-124436309Y-84971130D01*
X-124198214Y-84971130D01*
X-125150595Y-84066369D02*
X-125198214Y-84018750D01*
X-125293452Y-83971130D01*
X-125531547Y-83971130D01*
X-125626785Y-84018750D01*
X-125674404Y-84066369D01*
X-125722023Y-84161607D01*
X-125722023Y-84256845D01*
X-125674404Y-84399702D01*
X-125102976Y-84971130D01*
X-125722023Y-84971130D01*
X-126674404Y-84971130D02*
X-126102976Y-84971130D01*
X-126388690Y-84971130D02*
X-126388690Y-83971130D01*
X-126293452Y-84113988D01*
X-126198214Y-84209226D01*
X-126102976Y-84256845D01*
X-143248214Y-84971130D02*
X-143248214Y-83971130D01*
X-143486309Y-83971130D01*
X-143629166Y-84018750D01*
X-143724404Y-84113988D01*
X-143772023Y-84209226D01*
X-143819642Y-84399702D01*
X-143819642Y-84542559D01*
X-143772023Y-84733035D01*
X-143724404Y-84828273D01*
X-143629166Y-84923511D01*
X-143486309Y-84971130D01*
X-143248214Y-84971130D01*
X-144200595Y-84066369D02*
X-144248214Y-84018750D01*
X-144343452Y-83971130D01*
X-144581547Y-83971130D01*
X-144676785Y-84018750D01*
X-144724404Y-84066369D01*
X-144772023Y-84161607D01*
X-144772023Y-84256845D01*
X-144724404Y-84399702D01*
X-144152976Y-84971130D01*
X-144772023Y-84971130D01*
X-145391071Y-83971130D02*
X-145486309Y-83971130D01*
X-145581547Y-84018750D01*
X-145629166Y-84066369D01*
X-145676785Y-84161607D01*
X-145724404Y-84352083D01*
X-145724404Y-84590178D01*
X-145676785Y-84780654D01*
X-145629166Y-84875892D01*
X-145581547Y-84923511D01*
X-145486309Y-84971130D01*
X-145391071Y-84971130D01*
X-145295833Y-84923511D01*
X-145248214Y-84875892D01*
X-145200595Y-84780654D01*
X-145152976Y-84590178D01*
X-145152976Y-84352083D01*
X-145200595Y-84161607D01*
X-145248214Y-84066369D01*
X-145295833Y-84018750D01*
X-145391071Y-83971130D01*
X-47998214Y-51633630D02*
X-47998214Y-50633630D01*
X-48236309Y-50633630D01*
X-48379166Y-50681250D01*
X-48474404Y-50776488D01*
X-48522023Y-50871726D01*
X-48569642Y-51062202D01*
X-48569642Y-51205059D01*
X-48522023Y-51395535D01*
X-48474404Y-51490773D01*
X-48379166Y-51586011D01*
X-48236309Y-51633630D01*
X-47998214Y-51633630D01*
X-49522023Y-51633630D02*
X-48950595Y-51633630D01*
X-49236309Y-51633630D02*
X-49236309Y-50633630D01*
X-49141071Y-50776488D01*
X-49045833Y-50871726D01*
X-48950595Y-50919345D01*
X-50426785Y-50633630D02*
X-49950595Y-50633630D01*
X-49902976Y-51109821D01*
X-49950595Y-51062202D01*
X-50045833Y-51014583D01*
X-50283928Y-51014583D01*
X-50379166Y-51062202D01*
X-50426785Y-51109821D01*
X-50474404Y-51205059D01*
X-50474404Y-51443154D01*
X-50426785Y-51538392D01*
X-50379166Y-51586011D01*
X-50283928Y-51633630D01*
X-50045833Y-51633630D01*
X-49950595Y-51586011D01*
X-49902976Y-51538392D01*
X-67048214Y-50839880D02*
X-67048214Y-49839880D01*
X-67286309Y-49839880D01*
X-67429166Y-49887500D01*
X-67524404Y-49982738D01*
X-67572023Y-50077976D01*
X-67619642Y-50268452D01*
X-67619642Y-50411309D01*
X-67572023Y-50601785D01*
X-67524404Y-50697023D01*
X-67429166Y-50792261D01*
X-67286309Y-50839880D01*
X-67048214Y-50839880D01*
X-68572023Y-50839880D02*
X-68000595Y-50839880D01*
X-68286309Y-50839880D02*
X-68286309Y-49839880D01*
X-68191071Y-49982738D01*
X-68095833Y-50077976D01*
X-68000595Y-50125595D01*
X-69429166Y-50173214D02*
X-69429166Y-50839880D01*
X-69191071Y-49792261D02*
X-68952976Y-50506547D01*
X-69572023Y-50506547D01*
X-86098214Y-42108630D02*
X-86098214Y-41108630D01*
X-86336309Y-41108630D01*
X-86479166Y-41156250D01*
X-86574404Y-41251488D01*
X-86622023Y-41346726D01*
X-86669642Y-41537202D01*
X-86669642Y-41680059D01*
X-86622023Y-41870535D01*
X-86574404Y-41965773D01*
X-86479166Y-42061011D01*
X-86336309Y-42108630D01*
X-86098214Y-42108630D01*
X-87622023Y-42108630D02*
X-87050595Y-42108630D01*
X-87336309Y-42108630D02*
X-87336309Y-41108630D01*
X-87241071Y-41251488D01*
X-87145833Y-41346726D01*
X-87050595Y-41394345D01*
X-87955357Y-41108630D02*
X-88574404Y-41108630D01*
X-88241071Y-41489583D01*
X-88383928Y-41489583D01*
X-88479166Y-41537202D01*
X-88526785Y-41584821D01*
X-88574404Y-41680059D01*
X-88574404Y-41918154D01*
X-88526785Y-42013392D01*
X-88479166Y-42061011D01*
X-88383928Y-42108630D01*
X-88098214Y-42108630D01*
X-88002976Y-42061011D01*
X-87955357Y-42013392D01*
X-105148214Y-49252380D02*
X-105148214Y-48252380D01*
X-105386309Y-48252380D01*
X-105529166Y-48300000D01*
X-105624404Y-48395238D01*
X-105672023Y-48490476D01*
X-105719642Y-48680952D01*
X-105719642Y-48823809D01*
X-105672023Y-49014285D01*
X-105624404Y-49109523D01*
X-105529166Y-49204761D01*
X-105386309Y-49252380D01*
X-105148214Y-49252380D01*
X-106672023Y-49252380D02*
X-106100595Y-49252380D01*
X-106386309Y-49252380D02*
X-106386309Y-48252380D01*
X-106291071Y-48395238D01*
X-106195833Y-48490476D01*
X-106100595Y-48538095D01*
X-107052976Y-48347619D02*
X-107100595Y-48300000D01*
X-107195833Y-48252380D01*
X-107433928Y-48252380D01*
X-107529166Y-48300000D01*
X-107576785Y-48347619D01*
X-107624404Y-48442857D01*
X-107624404Y-48538095D01*
X-107576785Y-48680952D01*
X-107005357Y-49252380D01*
X-107624404Y-49252380D01*
X-124198214Y-65921130D02*
X-124198214Y-64921130D01*
X-124436309Y-64921130D01*
X-124579166Y-64968750D01*
X-124674404Y-65063988D01*
X-124722023Y-65159226D01*
X-124769642Y-65349702D01*
X-124769642Y-65492559D01*
X-124722023Y-65683035D01*
X-124674404Y-65778273D01*
X-124579166Y-65873511D01*
X-124436309Y-65921130D01*
X-124198214Y-65921130D01*
X-125722023Y-65921130D02*
X-125150595Y-65921130D01*
X-125436309Y-65921130D02*
X-125436309Y-64921130D01*
X-125341071Y-65063988D01*
X-125245833Y-65159226D01*
X-125150595Y-65206845D01*
X-126674404Y-65921130D02*
X-126102976Y-65921130D01*
X-126388690Y-65921130D02*
X-126388690Y-64921130D01*
X-126293452Y-65063988D01*
X-126198214Y-65159226D01*
X-126102976Y-65206845D01*
X-143248214Y-65921130D02*
X-143248214Y-64921130D01*
X-143486309Y-64921130D01*
X-143629166Y-64968750D01*
X-143724404Y-65063988D01*
X-143772023Y-65159226D01*
X-143819642Y-65349702D01*
X-143819642Y-65492559D01*
X-143772023Y-65683035D01*
X-143724404Y-65778273D01*
X-143629166Y-65873511D01*
X-143486309Y-65921130D01*
X-143248214Y-65921130D01*
X-144772023Y-65921130D02*
X-144200595Y-65921130D01*
X-144486309Y-65921130D02*
X-144486309Y-64921130D01*
X-144391071Y-65063988D01*
X-144295833Y-65159226D01*
X-144200595Y-65206845D01*
X-145391071Y-64921130D02*
X-145486309Y-64921130D01*
X-145581547Y-64968750D01*
X-145629166Y-65016369D01*
X-145676785Y-65111607D01*
X-145724404Y-65302083D01*
X-145724404Y-65540178D01*
X-145676785Y-65730654D01*
X-145629166Y-65825892D01*
X-145581547Y-65873511D01*
X-145486309Y-65921130D01*
X-145391071Y-65921130D01*
X-145295833Y-65873511D01*
X-145248214Y-65825892D01*
X-145200595Y-65730654D01*
X-145152976Y-65540178D01*
X-145152976Y-65302083D01*
X-145200595Y-65111607D01*
X-145248214Y-65016369D01*
X-145295833Y-64968750D01*
X-145391071Y-64921130D01*
X-28948214Y-32583630D02*
X-28948214Y-31583630D01*
X-29186309Y-31583630D01*
X-29329166Y-31631250D01*
X-29424404Y-31726488D01*
X-29472023Y-31821726D01*
X-29519642Y-32012202D01*
X-29519642Y-32155059D01*
X-29472023Y-32345535D01*
X-29424404Y-32440773D01*
X-29329166Y-32536011D01*
X-29186309Y-32583630D01*
X-28948214Y-32583630D01*
X-30138690Y-31583630D02*
X-30233928Y-31583630D01*
X-30329166Y-31631250D01*
X-30376785Y-31678869D01*
X-30424404Y-31774107D01*
X-30472023Y-31964583D01*
X-30472023Y-32202678D01*
X-30424404Y-32393154D01*
X-30376785Y-32488392D01*
X-30329166Y-32536011D01*
X-30233928Y-32583630D01*
X-30138690Y-32583630D01*
X-30043452Y-32536011D01*
X-29995833Y-32488392D01*
X-29948214Y-32393154D01*
X-29900595Y-32202678D01*
X-29900595Y-31964583D01*
X-29948214Y-31774107D01*
X-29995833Y-31678869D01*
X-30043452Y-31631250D01*
X-30138690Y-31583630D01*
X-31329166Y-31583630D02*
X-31138690Y-31583630D01*
X-31043452Y-31631250D01*
X-30995833Y-31678869D01*
X-30900595Y-31821726D01*
X-30852976Y-32012202D01*
X-30852976Y-32393154D01*
X-30900595Y-32488392D01*
X-30948214Y-32536011D01*
X-31043452Y-32583630D01*
X-31233928Y-32583630D01*
X-31329166Y-32536011D01*
X-31376785Y-32488392D01*
X-31424404Y-32393154D01*
X-31424404Y-32155059D01*
X-31376785Y-32059821D01*
X-31329166Y-32012202D01*
X-31233928Y-31964583D01*
X-31043452Y-31964583D01*
X-30948214Y-32012202D01*
X-30900595Y-32059821D01*
X-30852976Y-32155059D01*
X-47998214Y-32583630D02*
X-47998214Y-31583630D01*
X-48236309Y-31583630D01*
X-48379166Y-31631250D01*
X-48474404Y-31726488D01*
X-48522023Y-31821726D01*
X-48569642Y-32012202D01*
X-48569642Y-32155059D01*
X-48522023Y-32345535D01*
X-48474404Y-32440773D01*
X-48379166Y-32536011D01*
X-48236309Y-32583630D01*
X-47998214Y-32583630D01*
X-49188690Y-31583630D02*
X-49283928Y-31583630D01*
X-49379166Y-31631250D01*
X-49426785Y-31678869D01*
X-49474404Y-31774107D01*
X-49522023Y-31964583D01*
X-49522023Y-32202678D01*
X-49474404Y-32393154D01*
X-49426785Y-32488392D01*
X-49379166Y-32536011D01*
X-49283928Y-32583630D01*
X-49188690Y-32583630D01*
X-49093452Y-32536011D01*
X-49045833Y-32488392D01*
X-48998214Y-32393154D01*
X-48950595Y-32202678D01*
X-48950595Y-31964583D01*
X-48998214Y-31774107D01*
X-49045833Y-31678869D01*
X-49093452Y-31631250D01*
X-49188690Y-31583630D01*
X-50426785Y-31583630D02*
X-49950595Y-31583630D01*
X-49902976Y-32059821D01*
X-49950595Y-32012202D01*
X-50045833Y-31964583D01*
X-50283928Y-31964583D01*
X-50379166Y-32012202D01*
X-50426785Y-32059821D01*
X-50474404Y-32155059D01*
X-50474404Y-32393154D01*
X-50426785Y-32488392D01*
X-50379166Y-32536011D01*
X-50283928Y-32583630D01*
X-50045833Y-32583630D01*
X-49950595Y-32536011D01*
X-49902976Y-32488392D01*
X-67048214Y-31789880D02*
X-67048214Y-30789880D01*
X-67286309Y-30789880D01*
X-67429166Y-30837500D01*
X-67524404Y-30932738D01*
X-67572023Y-31027976D01*
X-67619642Y-31218452D01*
X-67619642Y-31361309D01*
X-67572023Y-31551785D01*
X-67524404Y-31647023D01*
X-67429166Y-31742261D01*
X-67286309Y-31789880D01*
X-67048214Y-31789880D01*
X-68238690Y-30789880D02*
X-68333928Y-30789880D01*
X-68429166Y-30837500D01*
X-68476785Y-30885119D01*
X-68524404Y-30980357D01*
X-68572023Y-31170833D01*
X-68572023Y-31408928D01*
X-68524404Y-31599404D01*
X-68476785Y-31694642D01*
X-68429166Y-31742261D01*
X-68333928Y-31789880D01*
X-68238690Y-31789880D01*
X-68143452Y-31742261D01*
X-68095833Y-31694642D01*
X-68048214Y-31599404D01*
X-68000595Y-31408928D01*
X-68000595Y-31170833D01*
X-68048214Y-30980357D01*
X-68095833Y-30885119D01*
X-68143452Y-30837500D01*
X-68238690Y-30789880D01*
X-69429166Y-31123214D02*
X-69429166Y-31789880D01*
X-69191071Y-30742261D02*
X-68952976Y-31456547D01*
X-69572023Y-31456547D01*
X-86098214Y-23058630D02*
X-86098214Y-22058630D01*
X-86336309Y-22058630D01*
X-86479166Y-22106250D01*
X-86574404Y-22201488D01*
X-86622023Y-22296726D01*
X-86669642Y-22487202D01*
X-86669642Y-22630059D01*
X-86622023Y-22820535D01*
X-86574404Y-22915773D01*
X-86479166Y-23011011D01*
X-86336309Y-23058630D01*
X-86098214Y-23058630D01*
X-87288690Y-22058630D02*
X-87383928Y-22058630D01*
X-87479166Y-22106250D01*
X-87526785Y-22153869D01*
X-87574404Y-22249107D01*
X-87622023Y-22439583D01*
X-87622023Y-22677678D01*
X-87574404Y-22868154D01*
X-87526785Y-22963392D01*
X-87479166Y-23011011D01*
X-87383928Y-23058630D01*
X-87288690Y-23058630D01*
X-87193452Y-23011011D01*
X-87145833Y-22963392D01*
X-87098214Y-22868154D01*
X-87050595Y-22677678D01*
X-87050595Y-22439583D01*
X-87098214Y-22249107D01*
X-87145833Y-22153869D01*
X-87193452Y-22106250D01*
X-87288690Y-22058630D01*
X-87955357Y-22058630D02*
X-88574404Y-22058630D01*
X-88241071Y-22439583D01*
X-88383928Y-22439583D01*
X-88479166Y-22487202D01*
X-88526785Y-22534821D01*
X-88574404Y-22630059D01*
X-88574404Y-22868154D01*
X-88526785Y-22963392D01*
X-88479166Y-23011011D01*
X-88383928Y-23058630D01*
X-88098214Y-23058630D01*
X-88002976Y-23011011D01*
X-87955357Y-22963392D01*
X-105148214Y-30202380D02*
X-105148214Y-29202380D01*
X-105386309Y-29202380D01*
X-105529166Y-29250000D01*
X-105624404Y-29345238D01*
X-105672023Y-29440476D01*
X-105719642Y-29630952D01*
X-105719642Y-29773809D01*
X-105672023Y-29964285D01*
X-105624404Y-30059523D01*
X-105529166Y-30154761D01*
X-105386309Y-30202380D01*
X-105148214Y-30202380D01*
X-106338690Y-29202380D02*
X-106433928Y-29202380D01*
X-106529166Y-29250000D01*
X-106576785Y-29297619D01*
X-106624404Y-29392857D01*
X-106672023Y-29583333D01*
X-106672023Y-29821428D01*
X-106624404Y-30011904D01*
X-106576785Y-30107142D01*
X-106529166Y-30154761D01*
X-106433928Y-30202380D01*
X-106338690Y-30202380D01*
X-106243452Y-30154761D01*
X-106195833Y-30107142D01*
X-106148214Y-30011904D01*
X-106100595Y-29821428D01*
X-106100595Y-29583333D01*
X-106148214Y-29392857D01*
X-106195833Y-29297619D01*
X-106243452Y-29250000D01*
X-106338690Y-29202380D01*
X-107052976Y-29297619D02*
X-107100595Y-29250000D01*
X-107195833Y-29202380D01*
X-107433928Y-29202380D01*
X-107529166Y-29250000D01*
X-107576785Y-29297619D01*
X-107624404Y-29392857D01*
X-107624404Y-29488095D01*
X-107576785Y-29630952D01*
X-107005357Y-30202380D01*
X-107624404Y-30202380D01*
X-124198214Y-46871130D02*
X-124198214Y-45871130D01*
X-124436309Y-45871130D01*
X-124579166Y-45918750D01*
X-124674404Y-46013988D01*
X-124722023Y-46109226D01*
X-124769642Y-46299702D01*
X-124769642Y-46442559D01*
X-124722023Y-46633035D01*
X-124674404Y-46728273D01*
X-124579166Y-46823511D01*
X-124436309Y-46871130D01*
X-124198214Y-46871130D01*
X-125388690Y-45871130D02*
X-125483928Y-45871130D01*
X-125579166Y-45918750D01*
X-125626785Y-45966369D01*
X-125674404Y-46061607D01*
X-125722023Y-46252083D01*
X-125722023Y-46490178D01*
X-125674404Y-46680654D01*
X-125626785Y-46775892D01*
X-125579166Y-46823511D01*
X-125483928Y-46871130D01*
X-125388690Y-46871130D01*
X-125293452Y-46823511D01*
X-125245833Y-46775892D01*
X-125198214Y-46680654D01*
X-125150595Y-46490178D01*
X-125150595Y-46252083D01*
X-125198214Y-46061607D01*
X-125245833Y-45966369D01*
X-125293452Y-45918750D01*
X-125388690Y-45871130D01*
X-126674404Y-46871130D02*
X-126102976Y-46871130D01*
X-126388690Y-46871130D02*
X-126388690Y-45871130D01*
X-126293452Y-46013988D01*
X-126198214Y-46109226D01*
X-126102976Y-46156845D01*
X-143248214Y-46871130D02*
X-143248214Y-45871130D01*
X-143486309Y-45871130D01*
X-143629166Y-45918750D01*
X-143724404Y-46013988D01*
X-143772023Y-46109226D01*
X-143819642Y-46299702D01*
X-143819642Y-46442559D01*
X-143772023Y-46633035D01*
X-143724404Y-46728273D01*
X-143629166Y-46823511D01*
X-143486309Y-46871130D01*
X-143248214Y-46871130D01*
X-144438690Y-45871130D02*
X-144533928Y-45871130D01*
X-144629166Y-45918750D01*
X-144676785Y-45966369D01*
X-144724404Y-46061607D01*
X-144772023Y-46252083D01*
X-144772023Y-46490178D01*
X-144724404Y-46680654D01*
X-144676785Y-46775892D01*
X-144629166Y-46823511D01*
X-144533928Y-46871130D01*
X-144438690Y-46871130D01*
X-144343452Y-46823511D01*
X-144295833Y-46775892D01*
X-144248214Y-46680654D01*
X-144200595Y-46490178D01*
X-144200595Y-46252083D01*
X-144248214Y-46061607D01*
X-144295833Y-45966369D01*
X-144343452Y-45918750D01*
X-144438690Y-45871130D01*
X-145391071Y-45871130D02*
X-145486309Y-45871130D01*
X-145581547Y-45918750D01*
X-145629166Y-45966369D01*
X-145676785Y-46061607D01*
X-145724404Y-46252083D01*
X-145724404Y-46490178D01*
X-145676785Y-46680654D01*
X-145629166Y-46775892D01*
X-145581547Y-46823511D01*
X-145486309Y-46871130D01*
X-145391071Y-46871130D01*
X-145295833Y-46823511D01*
X-145248214Y-46775892D01*
X-145200595Y-46680654D01*
X-145152976Y-46490178D01*
X-145152976Y-46252083D01*
X-145200595Y-46061607D01*
X-145248214Y-45966369D01*
X-145295833Y-45918750D01*
X-145391071Y-45871130D01*
X-9217916Y-52373154D02*
X-8951250Y-51992202D01*
X-8760773Y-52373154D02*
X-8760773Y-51573154D01*
X-9065535Y-51573154D01*
X-9141726Y-51611250D01*
X-9179821Y-51649345D01*
X-9217916Y-51725535D01*
X-9217916Y-51839821D01*
X-9179821Y-51916011D01*
X-9141726Y-51954107D01*
X-9065535Y-51992202D01*
X-8760773Y-51992202D01*
X-9979821Y-52373154D02*
X-9522678Y-52373154D01*
X-9751250Y-52373154D02*
X-9751250Y-51573154D01*
X-9675059Y-51687440D01*
X-9598869Y-51763630D01*
X-9522678Y-51801726D01*
X-9217916Y-49991904D02*
X-8951250Y-49610952D01*
X-8760773Y-49991904D02*
X-8760773Y-49191904D01*
X-9065535Y-49191904D01*
X-9141726Y-49230000D01*
X-9179821Y-49268095D01*
X-9217916Y-49344285D01*
X-9217916Y-49458571D01*
X-9179821Y-49534761D01*
X-9141726Y-49572857D01*
X-9065535Y-49610952D01*
X-8760773Y-49610952D01*
X-9979821Y-49991904D02*
X-9522678Y-49991904D01*
X-9751250Y-49991904D02*
X-9751250Y-49191904D01*
X-9675059Y-49306190D01*
X-9598869Y-49382380D01*
X-9522678Y-49420476D01*
%LPC*%
D14*
X-31328295Y-115488591D03*
D15*
X-36068000Y-118618000D03*
D14*
X-38097557Y-114513295D03*
D16*
X-40467409Y-116078000D03*
X-31668591Y-121158000D03*
D17*
X-42886615Y-106615688D03*
X-22264385Y-118521938D03*
D15*
X-50506615Y-119813915D03*
X-29884385Y-131720165D03*
D18*
X-13671250Y-8275000D03*
D19*
X-13671250Y-10815000D03*
X-13671250Y-13355000D03*
X-13671250Y-15895000D03*
X-13671250Y-18435000D03*
X-13671250Y-20975000D03*
X-13671250Y-23515000D03*
X-13671250Y-26055000D03*
X-13671250Y-28595000D03*
X-13671250Y-31135000D03*
X-13671250Y-33675000D03*
X1568750Y-36215000D03*
X1568750Y-33675000D03*
X1568750Y-31135000D03*
X1568750Y-28595000D03*
X1568750Y-26055000D03*
X1568750Y-23515000D03*
X1568750Y-20975000D03*
X1568750Y-18435000D03*
X1568750Y-15895000D03*
X1568750Y-13355000D03*
X1568750Y-10815000D03*
X-13671250Y-36215000D03*
X1568750Y-8275000D03*
D20*
X-6243750Y-58225000D03*
X-4743750Y-62425000D03*
X-743750Y-62425000D03*
X2256250Y-62425000D03*
D21*
X-2943750Y-60325000D03*
X4056250Y-60325000D03*
D22*
X-19750000Y-50750000D03*
X2381250Y-50800000D03*
D21*
X-14406250Y-62328750D03*
D23*
X-10906250Y-58628750D03*
D16*
X-11906250Y-61118750D03*
X-16906250Y-61118750D03*
D23*
X-17916250Y-58628750D03*
D13*
G36*
X-50474135Y-104035769D02*
G01*
X-51513365Y-103435769D01*
X-51063365Y-102656347D01*
X-50024135Y-103256347D01*
X-50474135Y-104035769D01*
G37*
G36*
X-52124135Y-106893653D02*
G01*
X-53163365Y-106293653D01*
X-52713365Y-105514231D01*
X-51674135Y-106114231D01*
X-52124135Y-106893653D01*
G37*
D24*
X-62706250Y-115031250D03*
X-62706250Y-118331250D03*
D25*
X-88962500Y-105568750D03*
X-85662500Y-105568750D03*
D24*
X-91281250Y-114237500D03*
X-91281250Y-117537500D03*
X-115093750Y-114237500D03*
X-115093750Y-117537500D03*
X-138906250Y-114237500D03*
X-138906250Y-117537500D03*
D13*
G36*
X-34440385Y-93240769D02*
G01*
X-35479615Y-92640769D01*
X-35029615Y-91861347D01*
X-33990385Y-92461347D01*
X-34440385Y-93240769D01*
G37*
G36*
X-36090385Y-96098653D02*
G01*
X-37129615Y-95498653D01*
X-36679615Y-94719231D01*
X-35640385Y-95319231D01*
X-36090385Y-96098653D01*
G37*
D25*
X-50862500Y-91281250D03*
X-47562500Y-91281250D03*
X-69912500Y-90487500D03*
X-66612500Y-90487500D03*
X-88962500Y-81756250D03*
X-85662500Y-81756250D03*
X-108012500Y-88900000D03*
X-104712500Y-88900000D03*
X-127062500Y-105568750D03*
X-123762500Y-105568750D03*
X-146112500Y-105568750D03*
X-142812500Y-105568750D03*
X-45306250Y-61912500D03*
X-42006250Y-61912500D03*
X-50862500Y-72231250D03*
X-47562500Y-72231250D03*
X-69912500Y-71437500D03*
X-66612500Y-71437500D03*
X-88962500Y-62706250D03*
X-85662500Y-62706250D03*
X-108012500Y-69850000D03*
X-104712500Y-69850000D03*
X-127062500Y-86518750D03*
X-123762500Y-86518750D03*
X-146112500Y-86518750D03*
X-142812500Y-86518750D03*
X-50862500Y-53181250D03*
X-47562500Y-53181250D03*
X-69912500Y-52387500D03*
X-66612500Y-52387500D03*
X-88962500Y-43656250D03*
X-85662500Y-43656250D03*
X-108012500Y-50800000D03*
X-104712500Y-50800000D03*
X-127062500Y-67468750D03*
X-123762500Y-67468750D03*
X-146112500Y-67468750D03*
X-142812500Y-67468750D03*
X-31812500Y-34131250D03*
X-28512500Y-34131250D03*
X-50862500Y-34131250D03*
X-47562500Y-34131250D03*
X-69912500Y-33337500D03*
X-66612500Y-33337500D03*
X-88962500Y-24606250D03*
X-85662500Y-24606250D03*
X-108012500Y-31750000D03*
X-104712500Y-31750000D03*
X-127062500Y-48418750D03*
X-123762500Y-48418750D03*
X-146112500Y-48418750D03*
X-142812500Y-48418750D03*
D14*
X-122872500Y-111601250D03*
D15*
X-125412500Y-116681250D03*
D14*
X-129222500Y-114141250D03*
D16*
X-130492500Y-116681250D03*
X-120332500Y-116681250D03*
D14*
X-110966250Y-18923000D03*
D15*
X-113506250Y-24003000D03*
D14*
X-117316250Y-21463000D03*
D16*
X-118586250Y-24003000D03*
X-108426250Y-24003000D03*
D14*
X-42386250Y-47688500D03*
D15*
X-37306250Y-50228500D03*
D14*
X-39846250Y-54038500D03*
D16*
X-37306250Y-55308500D03*
X-37306250Y-45148500D03*
D14*
X-53816250Y-40386000D03*
D15*
X-56356250Y-45466000D03*
D14*
X-60166250Y-42926000D03*
D16*
X-61436250Y-45466000D03*
X-51276250Y-45466000D03*
D14*
X-110966250Y-37973000D03*
D15*
X-113506250Y-43053000D03*
D14*
X-117316250Y-40513000D03*
D16*
X-118586250Y-43053000D03*
X-108426250Y-43053000D03*
D14*
X-53816250Y-21336000D03*
D15*
X-56356250Y-26416000D03*
D14*
X-60166250Y-23876000D03*
D16*
X-61436250Y-26416000D03*
X-51276250Y-26416000D03*
D26*
X-6811250Y-52011250D03*
X-11891250Y-52011250D03*
X-11891250Y-49630000D03*
X-6811250Y-49630000D03*
X-1606250Y-42088750D03*
X-4146250Y-42088750D03*
X-6686250Y-42088750D03*
X-9226250Y-42088750D03*
D14*
X-72866250Y-111601250D03*
D15*
X-75406250Y-116681250D03*
D14*
X-79216250Y-114141250D03*
D16*
X-80486250Y-116681250D03*
X-70326250Y-116681250D03*
D14*
X-91852750Y-92551250D03*
D15*
X-94392750Y-97631250D03*
D14*
X-98202750Y-95091250D03*
D16*
X-99472750Y-97631250D03*
X-89312750Y-97631250D03*
D14*
X-99060000Y-111601250D03*
D15*
X-101600000Y-116681250D03*
D14*
X-105410000Y-114141250D03*
D16*
X-106680000Y-116681250D03*
X-96520000Y-116681250D03*
D14*
X-146685000Y-111601250D03*
D15*
X-149225000Y-116681250D03*
D14*
X-153035000Y-114141250D03*
D16*
X-154305000Y-116681250D03*
X-144145000Y-116681250D03*
D14*
X-21803295Y-98978591D03*
D15*
X-26543000Y-102108000D03*
D14*
X-28572557Y-98003295D03*
D16*
X-30942409Y-99568000D03*
X-22143591Y-104648000D03*
D14*
X-53816250Y-78486000D03*
D15*
X-56356250Y-83566000D03*
D14*
X-60166250Y-81026000D03*
D16*
X-61436250Y-83566000D03*
X-51276250Y-83566000D03*
D14*
X-72866250Y-77470000D03*
D15*
X-75406250Y-82550000D03*
D14*
X-79216250Y-80010000D03*
D16*
X-80486250Y-82550000D03*
X-70326250Y-82550000D03*
D14*
X-91916250Y-68707000D03*
D15*
X-94456250Y-73787000D03*
D14*
X-98266250Y-71247000D03*
D16*
X-99536250Y-73787000D03*
X-89376250Y-73787000D03*
D14*
X-110966250Y-76073000D03*
D15*
X-113506250Y-81153000D03*
D14*
X-117316250Y-78613000D03*
D16*
X-118586250Y-81153000D03*
X-108426250Y-81153000D03*
D14*
X-130016250Y-92551250D03*
D15*
X-132556250Y-97631250D03*
D14*
X-136366250Y-95091250D03*
D16*
X-137636250Y-97631250D03*
X-127476250Y-97631250D03*
D14*
X-149066250Y-92551250D03*
D15*
X-151606250Y-97631250D03*
D14*
X-155416250Y-95091250D03*
D16*
X-156686250Y-97631250D03*
X-146526250Y-97631250D03*
D14*
X-53816250Y-59436000D03*
D15*
X-56356250Y-64516000D03*
D14*
X-60166250Y-61976000D03*
D16*
X-61436250Y-64516000D03*
X-51276250Y-64516000D03*
D14*
X-72866250Y-58420000D03*
D15*
X-75406250Y-63500000D03*
D14*
X-79216250Y-60960000D03*
D16*
X-80486250Y-63500000D03*
X-70326250Y-63500000D03*
D14*
X-91916250Y-49657000D03*
D15*
X-94456250Y-54737000D03*
D14*
X-98266250Y-52197000D03*
D16*
X-99536250Y-54737000D03*
X-89376250Y-54737000D03*
D14*
X-110966250Y-57023000D03*
D15*
X-113506250Y-62103000D03*
D14*
X-117316250Y-59563000D03*
D16*
X-118586250Y-62103000D03*
X-108426250Y-62103000D03*
D14*
X-130016250Y-73501250D03*
D15*
X-132556250Y-78581250D03*
D14*
X-136366250Y-76041250D03*
D16*
X-137636250Y-78581250D03*
X-127476250Y-78581250D03*
D14*
X-149066250Y-73501250D03*
D15*
X-151606250Y-78581250D03*
D14*
X-155416250Y-76041250D03*
D16*
X-156686250Y-78581250D03*
X-146526250Y-78581250D03*
D14*
X-72866250Y-39370000D03*
D15*
X-75406250Y-44450000D03*
D14*
X-79216250Y-41910000D03*
D16*
X-80486250Y-44450000D03*
X-70326250Y-44450000D03*
D14*
X-91916250Y-30607000D03*
D15*
X-94456250Y-35687000D03*
D14*
X-98266250Y-33147000D03*
D16*
X-99536250Y-35687000D03*
X-89376250Y-35687000D03*
D14*
X-130016250Y-54451250D03*
D15*
X-132556250Y-59531250D03*
D14*
X-136366250Y-56991250D03*
D16*
X-137636250Y-59531250D03*
X-127476250Y-59531250D03*
D14*
X-149066250Y-54451250D03*
D15*
X-151606250Y-59531250D03*
D14*
X-155416250Y-56991250D03*
D16*
X-156686250Y-59531250D03*
X-146526250Y-59531250D03*
D14*
X-34766250Y-21336000D03*
D15*
X-37306250Y-26416000D03*
D14*
X-41116250Y-23876000D03*
D16*
X-42386250Y-26416000D03*
X-32226250Y-26416000D03*
D14*
X-72866250Y-20320000D03*
D15*
X-75406250Y-25400000D03*
D14*
X-79216250Y-22860000D03*
D16*
X-80486250Y-25400000D03*
X-70326250Y-25400000D03*
D14*
X-91916250Y-11557000D03*
D15*
X-94456250Y-16637000D03*
D14*
X-98266250Y-14097000D03*
D16*
X-99536250Y-16637000D03*
X-89376250Y-16637000D03*
D14*
X-130016250Y-35401250D03*
D15*
X-132556250Y-40481250D03*
D14*
X-136366250Y-37941250D03*
D16*
X-137636250Y-40481250D03*
X-127476250Y-40481250D03*
D14*
X-149066250Y-35401250D03*
D15*
X-151606250Y-40481250D03*
D14*
X-155416250Y-37941250D03*
D16*
X-156686250Y-40481250D03*
X-146526250Y-40481250D03*
M02*
