G04 #@! TF.GenerationSoftware,KiCad,Pcbnew,5.1.10*
G04 #@! TF.CreationDate,2021-07-25T23:09:34-04:00*
G04 #@! TF.ProjectId,v04_left,7630345f-6c65-4667-942e-6b696361645f,rev?*
G04 #@! TF.SameCoordinates,Original*
G04 #@! TF.FileFunction,Soldermask,Bot*
G04 #@! TF.FilePolarity,Negative*
%FSLAX46Y46*%
G04 Gerber Fmt 4.6, Leading zero omitted, Abs format (unit mm)*
G04 Created by KiCad (PCBNEW 5.1.10) date 2021-07-25 23:09:34*
%MOMM*%
%LPD*%
G01*
G04 APERTURE LIST*
%ADD10C,2.250000*%
%ADD11C,3.987800*%
%ADD12C,1.750000*%
%ADD13C,3.048000*%
%ADD14R,1.752600X1.752600*%
%ADD15C,1.752600*%
%ADD16O,2.500000X1.700000*%
%ADD17C,1.200000*%
%ADD18C,2.200000*%
%ADD19C,2.100000*%
%ADD20C,0.100000*%
%ADD21R,1.200000X0.900000*%
%ADD22R,0.900000X1.200000*%
%ADD23C,1.397000*%
G04 APERTURE END LIST*
D10*
X-31328295Y-115488591D03*
D11*
X-36068000Y-118618000D03*
D10*
X-38097557Y-114513295D03*
D12*
X-40467409Y-116078000D03*
X-31668591Y-121158000D03*
D13*
X-42886615Y-106615688D03*
X-22264385Y-118521938D03*
D11*
X-50506615Y-119813915D03*
X-29884385Y-131720165D03*
D14*
X-13671250Y-8275000D03*
D15*
X-13671250Y-10815000D03*
X-13671250Y-13355000D03*
X-13671250Y-15895000D03*
X-13671250Y-18435000D03*
X-13671250Y-20975000D03*
X-13671250Y-23515000D03*
X-13671250Y-26055000D03*
X-13671250Y-28595000D03*
X-13671250Y-31135000D03*
X-13671250Y-33675000D03*
X1568750Y-36215000D03*
X1568750Y-33675000D03*
X1568750Y-31135000D03*
X1568750Y-28595000D03*
X1568750Y-26055000D03*
X1568750Y-23515000D03*
X1568750Y-20975000D03*
X1568750Y-18435000D03*
X1568750Y-15895000D03*
X1568750Y-13355000D03*
X1568750Y-10815000D03*
X-13671250Y-36215000D03*
X1568750Y-8275000D03*
D16*
X-6243750Y-58225000D03*
X-4743750Y-62425000D03*
X-743750Y-62425000D03*
X2256250Y-62425000D03*
D17*
X-2943750Y-60325000D03*
X4056250Y-60325000D03*
D18*
X-19750000Y-50750000D03*
X2381250Y-50800000D03*
D17*
X-14406250Y-62328750D03*
D19*
X-10906250Y-58628750D03*
D12*
X-11906250Y-61118750D03*
X-16906250Y-61118750D03*
D19*
X-17916250Y-58628750D03*
D20*
G36*
X-50474135Y-104035769D02*
G01*
X-51513365Y-103435769D01*
X-51063365Y-102656347D01*
X-50024135Y-103256347D01*
X-50474135Y-104035769D01*
G37*
G36*
X-52124135Y-106893653D02*
G01*
X-53163365Y-106293653D01*
X-52713365Y-105514231D01*
X-51674135Y-106114231D01*
X-52124135Y-106893653D01*
G37*
D21*
X-62706250Y-115031250D03*
X-62706250Y-118331250D03*
D22*
X-88962500Y-105568750D03*
X-85662500Y-105568750D03*
D21*
X-91281250Y-114237500D03*
X-91281250Y-117537500D03*
X-115093750Y-114237500D03*
X-115093750Y-117537500D03*
X-138906250Y-114237500D03*
X-138906250Y-117537500D03*
D20*
G36*
X-34440385Y-93240769D02*
G01*
X-35479615Y-92640769D01*
X-35029615Y-91861347D01*
X-33990385Y-92461347D01*
X-34440385Y-93240769D01*
G37*
G36*
X-36090385Y-96098653D02*
G01*
X-37129615Y-95498653D01*
X-36679615Y-94719231D01*
X-35640385Y-95319231D01*
X-36090385Y-96098653D01*
G37*
D22*
X-50862500Y-91281250D03*
X-47562500Y-91281250D03*
X-69912500Y-90487500D03*
X-66612500Y-90487500D03*
X-88962500Y-81756250D03*
X-85662500Y-81756250D03*
X-108012500Y-88900000D03*
X-104712500Y-88900000D03*
X-127062500Y-105568750D03*
X-123762500Y-105568750D03*
X-146112500Y-105568750D03*
X-142812500Y-105568750D03*
X-45306250Y-61912500D03*
X-42006250Y-61912500D03*
X-50862500Y-72231250D03*
X-47562500Y-72231250D03*
X-69912500Y-71437500D03*
X-66612500Y-71437500D03*
X-88962500Y-62706250D03*
X-85662500Y-62706250D03*
X-108012500Y-69850000D03*
X-104712500Y-69850000D03*
X-127062500Y-86518750D03*
X-123762500Y-86518750D03*
X-146112500Y-86518750D03*
X-142812500Y-86518750D03*
X-50862500Y-53181250D03*
X-47562500Y-53181250D03*
X-69912500Y-52387500D03*
X-66612500Y-52387500D03*
X-88962500Y-43656250D03*
X-85662500Y-43656250D03*
X-108012500Y-50800000D03*
X-104712500Y-50800000D03*
X-127062500Y-67468750D03*
X-123762500Y-67468750D03*
X-146112500Y-67468750D03*
X-142812500Y-67468750D03*
X-31812500Y-34131250D03*
X-28512500Y-34131250D03*
X-50862500Y-34131250D03*
X-47562500Y-34131250D03*
X-69912500Y-33337500D03*
X-66612500Y-33337500D03*
X-88962500Y-24606250D03*
X-85662500Y-24606250D03*
X-108012500Y-31750000D03*
X-104712500Y-31750000D03*
X-127062500Y-48418750D03*
X-123762500Y-48418750D03*
X-146112500Y-48418750D03*
X-142812500Y-48418750D03*
D10*
X-122872500Y-111601250D03*
D11*
X-125412500Y-116681250D03*
D10*
X-129222500Y-114141250D03*
D12*
X-130492500Y-116681250D03*
X-120332500Y-116681250D03*
D10*
X-110966250Y-18923000D03*
D11*
X-113506250Y-24003000D03*
D10*
X-117316250Y-21463000D03*
D12*
X-118586250Y-24003000D03*
X-108426250Y-24003000D03*
D10*
X-42386250Y-47688500D03*
D11*
X-37306250Y-50228500D03*
D10*
X-39846250Y-54038500D03*
D12*
X-37306250Y-55308500D03*
X-37306250Y-45148500D03*
D10*
X-53816250Y-40386000D03*
D11*
X-56356250Y-45466000D03*
D10*
X-60166250Y-42926000D03*
D12*
X-61436250Y-45466000D03*
X-51276250Y-45466000D03*
D10*
X-110966250Y-37973000D03*
D11*
X-113506250Y-43053000D03*
D10*
X-117316250Y-40513000D03*
D12*
X-118586250Y-43053000D03*
X-108426250Y-43053000D03*
D10*
X-53816250Y-21336000D03*
D11*
X-56356250Y-26416000D03*
D10*
X-60166250Y-23876000D03*
D12*
X-61436250Y-26416000D03*
X-51276250Y-26416000D03*
D23*
X-6811250Y-52011250D03*
X-11891250Y-52011250D03*
X-11891250Y-49630000D03*
X-6811250Y-49630000D03*
X-1606250Y-42088750D03*
X-4146250Y-42088750D03*
X-6686250Y-42088750D03*
X-9226250Y-42088750D03*
D10*
X-72866250Y-111601250D03*
D11*
X-75406250Y-116681250D03*
D10*
X-79216250Y-114141250D03*
D12*
X-80486250Y-116681250D03*
X-70326250Y-116681250D03*
D10*
X-91852750Y-92551250D03*
D11*
X-94392750Y-97631250D03*
D10*
X-98202750Y-95091250D03*
D12*
X-99472750Y-97631250D03*
X-89312750Y-97631250D03*
D10*
X-99060000Y-111601250D03*
D11*
X-101600000Y-116681250D03*
D10*
X-105410000Y-114141250D03*
D12*
X-106680000Y-116681250D03*
X-96520000Y-116681250D03*
D10*
X-146685000Y-111601250D03*
D11*
X-149225000Y-116681250D03*
D10*
X-153035000Y-114141250D03*
D12*
X-154305000Y-116681250D03*
X-144145000Y-116681250D03*
D10*
X-21803295Y-98978591D03*
D11*
X-26543000Y-102108000D03*
D10*
X-28572557Y-98003295D03*
D12*
X-30942409Y-99568000D03*
X-22143591Y-104648000D03*
D10*
X-53816250Y-78486000D03*
D11*
X-56356250Y-83566000D03*
D10*
X-60166250Y-81026000D03*
D12*
X-61436250Y-83566000D03*
X-51276250Y-83566000D03*
D10*
X-72866250Y-77470000D03*
D11*
X-75406250Y-82550000D03*
D10*
X-79216250Y-80010000D03*
D12*
X-80486250Y-82550000D03*
X-70326250Y-82550000D03*
D10*
X-91916250Y-68707000D03*
D11*
X-94456250Y-73787000D03*
D10*
X-98266250Y-71247000D03*
D12*
X-99536250Y-73787000D03*
X-89376250Y-73787000D03*
D10*
X-110966250Y-76073000D03*
D11*
X-113506250Y-81153000D03*
D10*
X-117316250Y-78613000D03*
D12*
X-118586250Y-81153000D03*
X-108426250Y-81153000D03*
D10*
X-130016250Y-92551250D03*
D11*
X-132556250Y-97631250D03*
D10*
X-136366250Y-95091250D03*
D12*
X-137636250Y-97631250D03*
X-127476250Y-97631250D03*
D10*
X-149066250Y-92551250D03*
D11*
X-151606250Y-97631250D03*
D10*
X-155416250Y-95091250D03*
D12*
X-156686250Y-97631250D03*
X-146526250Y-97631250D03*
D10*
X-53816250Y-59436000D03*
D11*
X-56356250Y-64516000D03*
D10*
X-60166250Y-61976000D03*
D12*
X-61436250Y-64516000D03*
X-51276250Y-64516000D03*
D10*
X-72866250Y-58420000D03*
D11*
X-75406250Y-63500000D03*
D10*
X-79216250Y-60960000D03*
D12*
X-80486250Y-63500000D03*
X-70326250Y-63500000D03*
D10*
X-91916250Y-49657000D03*
D11*
X-94456250Y-54737000D03*
D10*
X-98266250Y-52197000D03*
D12*
X-99536250Y-54737000D03*
X-89376250Y-54737000D03*
D10*
X-110966250Y-57023000D03*
D11*
X-113506250Y-62103000D03*
D10*
X-117316250Y-59563000D03*
D12*
X-118586250Y-62103000D03*
X-108426250Y-62103000D03*
D10*
X-130016250Y-73501250D03*
D11*
X-132556250Y-78581250D03*
D10*
X-136366250Y-76041250D03*
D12*
X-137636250Y-78581250D03*
X-127476250Y-78581250D03*
D10*
X-149066250Y-73501250D03*
D11*
X-151606250Y-78581250D03*
D10*
X-155416250Y-76041250D03*
D12*
X-156686250Y-78581250D03*
X-146526250Y-78581250D03*
D10*
X-72866250Y-39370000D03*
D11*
X-75406250Y-44450000D03*
D10*
X-79216250Y-41910000D03*
D12*
X-80486250Y-44450000D03*
X-70326250Y-44450000D03*
D10*
X-91916250Y-30607000D03*
D11*
X-94456250Y-35687000D03*
D10*
X-98266250Y-33147000D03*
D12*
X-99536250Y-35687000D03*
X-89376250Y-35687000D03*
D10*
X-130016250Y-54451250D03*
D11*
X-132556250Y-59531250D03*
D10*
X-136366250Y-56991250D03*
D12*
X-137636250Y-59531250D03*
X-127476250Y-59531250D03*
D10*
X-149066250Y-54451250D03*
D11*
X-151606250Y-59531250D03*
D10*
X-155416250Y-56991250D03*
D12*
X-156686250Y-59531250D03*
X-146526250Y-59531250D03*
D10*
X-34766250Y-21336000D03*
D11*
X-37306250Y-26416000D03*
D10*
X-41116250Y-23876000D03*
D12*
X-42386250Y-26416000D03*
X-32226250Y-26416000D03*
D10*
X-72866250Y-20320000D03*
D11*
X-75406250Y-25400000D03*
D10*
X-79216250Y-22860000D03*
D12*
X-80486250Y-25400000D03*
X-70326250Y-25400000D03*
D10*
X-91916250Y-11557000D03*
D11*
X-94456250Y-16637000D03*
D10*
X-98266250Y-14097000D03*
D12*
X-99536250Y-16637000D03*
X-89376250Y-16637000D03*
D10*
X-130016250Y-35401250D03*
D11*
X-132556250Y-40481250D03*
D10*
X-136366250Y-37941250D03*
D12*
X-137636250Y-40481250D03*
X-127476250Y-40481250D03*
D10*
X-149066250Y-35401250D03*
D11*
X-151606250Y-40481250D03*
D10*
X-155416250Y-37941250D03*
D12*
X-156686250Y-40481250D03*
X-146526250Y-40481250D03*
M02*
